%TF.GenerationSoftware,KiCad,Pcbnew,7.0.7*%
%TF.CreationDate,2023-11-17T10:09:11-08:00*%
%TF.ProjectId,Final_Project_Sutton_Yazzolino,46696e61-6c5f-4507-926f-6a6563745f53,rev?*%
%TF.SameCoordinates,Original*%
%TF.FileFunction,Copper,L1,Top*%
%TF.FilePolarity,Positive*%
%FSLAX46Y46*%
G04 Gerber Fmt 4.6, Leading zero omitted, Abs format (unit mm)*
G04 Created by KiCad (PCBNEW 7.0.7) date 2023-11-17 10:09:11*
%MOMM*%
%LPD*%
G01*
G04 APERTURE LIST*
G04 Aperture macros list*
%AMRoundRect*
0 Rectangle with rounded corners*
0 $1 Rounding radius*
0 $2 $3 $4 $5 $6 $7 $8 $9 X,Y pos of 4 corners*
0 Add a 4 corners polygon primitive as box body*
4,1,4,$2,$3,$4,$5,$6,$7,$8,$9,$2,$3,0*
0 Add four circle primitives for the rounded corners*
1,1,$1+$1,$2,$3*
1,1,$1+$1,$4,$5*
1,1,$1+$1,$6,$7*
1,1,$1+$1,$8,$9*
0 Add four rect primitives between the rounded corners*
20,1,$1+$1,$2,$3,$4,$5,0*
20,1,$1+$1,$4,$5,$6,$7,0*
20,1,$1+$1,$6,$7,$8,$9,0*
20,1,$1+$1,$8,$9,$2,$3,0*%
%AMFreePoly0*
4,1,9,3.862500,-0.866500,0.737500,-0.866500,0.737500,-0.450000,-0.737500,-0.450000,-0.737500,0.450000,0.737500,0.450000,0.737500,0.866500,3.862500,0.866500,3.862500,-0.866500,3.862500,-0.866500,$1*%
G04 Aperture macros list end*
%TA.AperFunction,SMDPad,CuDef*%
%ADD10RoundRect,0.250000X-0.262500X-0.450000X0.262500X-0.450000X0.262500X0.450000X-0.262500X0.450000X0*%
%TD*%
%TA.AperFunction,SMDPad,CuDef*%
%ADD11RoundRect,0.250000X0.262500X0.450000X-0.262500X0.450000X-0.262500X-0.450000X0.262500X-0.450000X0*%
%TD*%
%TA.AperFunction,ComponentPad*%
%ADD12R,1.000000X1.000000*%
%TD*%
%TA.AperFunction,ComponentPad*%
%ADD13O,1.000000X1.000000*%
%TD*%
%TA.AperFunction,SMDPad,CuDef*%
%ADD14RoundRect,0.250000X0.450000X-0.262500X0.450000X0.262500X-0.450000X0.262500X-0.450000X-0.262500X0*%
%TD*%
%TA.AperFunction,SMDPad,CuDef*%
%ADD15RoundRect,0.250000X-1.050000X-0.550000X1.050000X-0.550000X1.050000X0.550000X-1.050000X0.550000X0*%
%TD*%
%TA.AperFunction,SMDPad,CuDef*%
%ADD16RoundRect,0.250000X0.550000X-1.050000X0.550000X1.050000X-0.550000X1.050000X-0.550000X-1.050000X0*%
%TD*%
%TA.AperFunction,SMDPad,CuDef*%
%ADD17R,0.600000X1.200000*%
%TD*%
%TA.AperFunction,SMDPad,CuDef*%
%ADD18RoundRect,0.150000X0.150000X-0.512500X0.150000X0.512500X-0.150000X0.512500X-0.150000X-0.512500X0*%
%TD*%
%TA.AperFunction,SMDPad,CuDef*%
%ADD19R,1.000000X1.450000*%
%TD*%
%TA.AperFunction,SMDPad,CuDef*%
%ADD20RoundRect,0.250000X-0.450000X0.262500X-0.450000X-0.262500X0.450000X-0.262500X0.450000X0.262500X0*%
%TD*%
%TA.AperFunction,SMDPad,CuDef*%
%ADD21RoundRect,0.150000X0.587500X0.150000X-0.587500X0.150000X-0.587500X-0.150000X0.587500X-0.150000X0*%
%TD*%
%TA.AperFunction,SMDPad,CuDef*%
%ADD22R,0.400000X1.350000*%
%TD*%
%TA.AperFunction,SMDPad,CuDef*%
%ADD23R,1.200000X1.550000*%
%TD*%
%TA.AperFunction,ComponentPad*%
%ADD24O,1.250000X0.950000*%
%TD*%
%TA.AperFunction,SMDPad,CuDef*%
%ADD25R,1.500000X1.550000*%
%TD*%
%TA.AperFunction,ComponentPad*%
%ADD26O,0.890000X1.550000*%
%TD*%
%TA.AperFunction,SMDPad,CuDef*%
%ADD27R,0.800000X1.500000*%
%TD*%
%TA.AperFunction,SMDPad,CuDef*%
%ADD28R,1.450000X2.000000*%
%TD*%
%TA.AperFunction,SMDPad,CuDef*%
%ADD29RoundRect,0.250000X-0.300000X0.300000X-0.300000X-0.300000X0.300000X-0.300000X0.300000X0.300000X0*%
%TD*%
%TA.AperFunction,ComponentPad*%
%ADD30R,3.000000X3.000000*%
%TD*%
%TA.AperFunction,ComponentPad*%
%ADD31C,3.000000*%
%TD*%
%TA.AperFunction,SMDPad,CuDef*%
%ADD32RoundRect,0.087500X0.287500X0.087500X-0.287500X0.087500X-0.287500X-0.087500X0.287500X-0.087500X0*%
%TD*%
%TA.AperFunction,SMDPad,CuDef*%
%ADD33RoundRect,0.150000X0.825000X0.150000X-0.825000X0.150000X-0.825000X-0.150000X0.825000X-0.150000X0*%
%TD*%
%TA.AperFunction,SMDPad,CuDef*%
%ADD34R,2.290000X3.000000*%
%TD*%
%TA.AperFunction,SMDPad,CuDef*%
%ADD35R,0.900000X1.300000*%
%TD*%
%TA.AperFunction,SMDPad,CuDef*%
%ADD36FreePoly0,90.000000*%
%TD*%
%TA.AperFunction,SMDPad,CuDef*%
%ADD37RoundRect,0.075000X-0.075000X0.662500X-0.075000X-0.662500X0.075000X-0.662500X0.075000X0.662500X0*%
%TD*%
%TA.AperFunction,SMDPad,CuDef*%
%ADD38RoundRect,0.075000X-0.662500X0.075000X-0.662500X-0.075000X0.662500X-0.075000X0.662500X0.075000X0*%
%TD*%
%TA.AperFunction,SMDPad,CuDef*%
%ADD39RoundRect,0.093750X0.093750X0.106250X-0.093750X0.106250X-0.093750X-0.106250X0.093750X-0.106250X0*%
%TD*%
%TA.AperFunction,SMDPad,CuDef*%
%ADD40R,1.000000X1.600000*%
%TD*%
%TA.AperFunction,ViaPad*%
%ADD41C,0.800000*%
%TD*%
%TA.AperFunction,Conductor*%
%ADD42C,0.250000*%
%TD*%
%TA.AperFunction,Conductor*%
%ADD43C,0.304800*%
%TD*%
%TA.AperFunction,Conductor*%
%ADD44C,0.200000*%
%TD*%
%TA.AperFunction,Conductor*%
%ADD45C,0.508000*%
%TD*%
G04 APERTURE END LIST*
D10*
%TO.P,R10,1*%
%TO.N,+3.3V*%
X131525000Y-126750000D03*
%TO.P,R10,2*%
%TO.N,/I2C-DIO*%
X133350000Y-126750000D03*
%TD*%
D11*
%TO.P,R22,1*%
%TO.N,/USB_D-*%
X139875000Y-138275000D03*
%TO.P,R22,2*%
%TO.N,+3.3V*%
X138050000Y-138275000D03*
%TD*%
D10*
%TO.P,R21,1*%
%TO.N,/USB_D+*%
X152500000Y-138325000D03*
%TO.P,R21,2*%
%TO.N,+3.3V*%
X154325000Y-138325000D03*
%TD*%
D12*
%TO.P,WifiModule1,1,Vin*%
%TO.N,+3.3V*%
X104950000Y-122295000D03*
D13*
%TO.P,WifiModule1,2,3V*%
%TO.N,unconnected-(WifiModule1-3V-Pad2)*%
X104950000Y-121025000D03*
%TO.P,WifiModule1,3,GND*%
%TO.N,GND*%
X104950000Y-119755000D03*
%TO.P,WifiModule1,4,SCK*%
%TO.N,/SPI-CLK*%
X104950000Y-118485000D03*
%TO.P,WifiModule1,5,MISO*%
%TO.N,/SPI_MISO*%
X104950000Y-117215000D03*
%TO.P,WifiModule1,6,MOSI*%
%TO.N,/SPI_MOSI*%
X104950000Y-115945000D03*
%TO.P,WifiModule1,7,CS*%
%TO.N,/Wifi_CS*%
X104950000Y-114675000D03*
%TO.P,WifiModule1,8,BUSY*%
%TO.N,/Wifi_BUSY*%
X104950000Y-113405000D03*
%TO.P,WifiModule1,9,RST*%
%TO.N,/reset*%
X104950000Y-112135000D03*
%TO.P,WifiModule1,10,GP0*%
%TO.N,unconnected-(WifiModule1-GP0-Pad10)*%
X104950000Y-110865000D03*
%TO.P,WifiModule1,11,RXI*%
%TO.N,/Wifi_RXI*%
X104950000Y-109595000D03*
%TO.P,WifiModule1,12,TXO*%
%TO.N,/Wifi_TXO*%
X104950000Y-108325000D03*
%TD*%
D11*
%TO.P,R13,1*%
%TO.N,GND*%
X169875000Y-128300000D03*
%TO.P,R13,2*%
%TO.N,/TempSensor_ADDR*%
X168050000Y-128300000D03*
%TD*%
D14*
%TO.P,R11,1*%
%TO.N,+3.3V*%
X106300000Y-87100000D03*
%TO.P,R11,2*%
%TO.N,/I2C-CLK*%
X106300000Y-85275000D03*
%TD*%
%TO.P,R7,1*%
%TO.N,Net-(J3-GNDDetect)*%
X103350000Y-87100000D03*
%TO.P,R7,2*%
%TO.N,GND*%
X103350000Y-85275000D03*
%TD*%
D10*
%TO.P,R5,1*%
%TO.N,+3.3V*%
X163400000Y-133425000D03*
%TO.P,R5,2*%
%TO.N,/TempSensor_INT*%
X165225000Y-133425000D03*
%TD*%
D12*
%TO.P,LEDmodule1,1,Vin*%
%TO.N,+3.3V*%
X105000000Y-126190000D03*
D13*
%TO.P,LEDmodule1,2,3V*%
%TO.N,unconnected-(LEDmodule1-3V-Pad2)*%
X105000000Y-127460000D03*
%TO.P,LEDmodule1,3,GND*%
%TO.N,GND*%
X105000000Y-128730000D03*
%TO.P,LEDmodule1,4,SCK*%
%TO.N,/SPI-CLK*%
X105000000Y-130000000D03*
%TO.P,LEDmodule1,5,MISO*%
%TO.N,/SPI_MISO*%
X105000000Y-131270000D03*
%TO.P,LEDmodule1,6,MOSI*%
%TO.N,/SPI_MOSI*%
X105000000Y-132540000D03*
%TO.P,LEDmodule1,7,TFTCS*%
%TO.N,/LED_TFTCS*%
X105000000Y-133810000D03*
%TO.P,LEDmodule1,8,RST*%
%TO.N,/LEDreset*%
X105000000Y-135080000D03*
%TO.P,LEDmodule1,9,DC*%
%TO.N,/LED_DC*%
X105000000Y-136350000D03*
%TO.P,LEDmodule1,10,SDCS*%
%TO.N,unconnected-(LEDmodule1-SDCS-Pad10)*%
X105000000Y-137620000D03*
%TO.P,LEDmodule1,11,LIT*%
%TO.N,unconnected-(LEDmodule1-LIT-Pad11)*%
X105000000Y-138890000D03*
%TD*%
D12*
%TO.P,J3,1,VTref*%
%TO.N,+3.3V*%
X104730000Y-91430000D03*
D13*
%TO.P,J3,2,SWDIO/TMS*%
%TO.N,/I2C-SWDIO*%
X106000000Y-91430000D03*
%TO.P,J3,3,GND*%
%TO.N,GND*%
X104730000Y-92700000D03*
%TO.P,J3,4,SWDCLK/TCK*%
%TO.N,/I2C-SWCLK*%
X106000000Y-92700000D03*
%TO.P,J3,5,GND*%
%TO.N,GND*%
X104730000Y-93970000D03*
%TO.P,J3,6,SWO/TDO*%
%TO.N,unconnected-(J3-SWO{slash}TDO-Pad6)*%
X106000000Y-93970000D03*
%TO.P,J3,7,KEY*%
%TO.N,unconnected-(J3-KEY-Pad7)*%
X104730000Y-95240000D03*
%TO.P,J3,8,NC/TDI*%
%TO.N,unconnected-(J3-NC{slash}TDI-Pad8)*%
X106000000Y-95240000D03*
%TO.P,J3,9,GNDDetect*%
%TO.N,Net-(J3-GNDDetect)*%
X104730000Y-96510000D03*
%TO.P,J3,10,~{RESET}*%
%TO.N,/reset*%
X106000000Y-96510000D03*
%TO.P,J3,11*%
%TO.N,N/C*%
X104730000Y-97780000D03*
%TO.P,J3,12*%
X106000000Y-97780000D03*
%TO.P,J3,13*%
X104730000Y-99050000D03*
%TO.P,J3,14*%
X106000000Y-99050000D03*
%TO.P,J3,15*%
X104730000Y-100320000D03*
%TO.P,J3,16*%
X106000000Y-100320000D03*
%TO.P,J3,17*%
X104730000Y-101590000D03*
%TO.P,J3,18*%
X106000000Y-101590000D03*
%TO.P,J3,19*%
X104730000Y-102860000D03*
%TO.P,J3,20*%
X106000000Y-102860000D03*
%TD*%
D15*
%TO.P,C7,1*%
%TO.N,Net-(LDO1.8V1-VO)*%
X189750000Y-131425000D03*
%TO.P,C7,2*%
%TO.N,GND*%
X193350000Y-131425000D03*
%TD*%
%TO.P,C5,1*%
%TO.N,Net-(LDO1.8V1-VI)*%
X175950000Y-120525000D03*
%TO.P,C5,2*%
%TO.N,GND*%
X179550000Y-120525000D03*
%TD*%
D16*
%TO.P,C3,1*%
%TO.N,Net-(LDO3.3V1-SS)*%
X191800000Y-125625000D03*
%TO.P,C3,2*%
%TO.N,GND*%
X191800000Y-122025000D03*
%TD*%
D15*
%TO.P,C1,1*%
%TO.N,+3.3V*%
X128325000Y-87975000D03*
%TO.P,C1,2*%
%TO.N,GND*%
X131925000Y-87975000D03*
%TD*%
D17*
%TO.P,Y1,1,1*%
%TO.N,Net-(U3-PA00)*%
X149875000Y-118500000D03*
%TO.P,Y1,2,2*%
%TO.N,Net-(U3-PA01)*%
X148675000Y-118500000D03*
%TD*%
D18*
%TO.P,U4,1,VIN*%
%TO.N,Net-(D2-K)*%
X131400000Y-134075000D03*
%TO.P,U4,2,GND*%
%TO.N,GND*%
X132350000Y-134075000D03*
%TO.P,U4,3,EN*%
%TO.N,Net-(U4-EN)*%
X133300000Y-134075000D03*
%TO.P,U4,4,NC*%
%TO.N,unconnected-(U4-NC-Pad4)*%
X133300000Y-131800000D03*
%TO.P,U4,5,VOUT*%
%TO.N,+3.3V*%
X131400000Y-131800000D03*
%TD*%
D19*
%TO.P,SW1,1,1*%
%TO.N,GND*%
X158400000Y-117600000D03*
X158400000Y-112450000D03*
%TO.P,SW1,2,2*%
%TO.N,/reset*%
X156700000Y-112450000D03*
X156700000Y-117600000D03*
%TD*%
D10*
%TO.P,R20,1*%
%TO.N,/LEDreset*%
X117575000Y-139150000D03*
%TO.P,R20,2*%
%TO.N,+3.3V*%
X119400000Y-139150000D03*
%TD*%
%TO.P,R19,1*%
%TO.N,/LED_DC*%
X112800000Y-139600000D03*
%TO.P,R19,2*%
%TO.N,+3.3V*%
X114625000Y-139600000D03*
%TD*%
%TO.P,R18,1*%
%TO.N,/LED_TFTCS*%
X112800000Y-134825000D03*
%TO.P,R18,2*%
%TO.N,+3.3V*%
X114625000Y-134825000D03*
%TD*%
D20*
%TO.P,R17,2*%
%TO.N,+3.3V*%
X134200000Y-118337500D03*
%TO.P,R17,1*%
%TO.N,/Wifi_CS*%
X134200000Y-116512500D03*
%TD*%
D10*
%TO.P,R16,1*%
%TO.N,/Wifi_BUSY*%
X110300000Y-102850000D03*
%TO.P,R16,2*%
%TO.N,+3.3V*%
X112125000Y-102850000D03*
%TD*%
D11*
%TO.P,R15,1*%
%TO.N,/SPI_MOSI*%
X116175000Y-122775000D03*
%TO.P,R15,2*%
%TO.N,+3.3V*%
X114350000Y-122775000D03*
%TD*%
D10*
%TO.P,R14,1*%
%TO.N,/SD_CMD*%
X126537500Y-126750000D03*
%TO.P,R14,2*%
%TO.N,+3.3V*%
X128362500Y-126750000D03*
%TD*%
%TO.P,R12,1*%
%TO.N,/SPI_MISO*%
X110650000Y-122775000D03*
%TO.P,R12,2*%
%TO.N,+3.3V*%
X112475000Y-122775000D03*
%TD*%
D14*
%TO.P,R9,1*%
%TO.N,Net-(D2-K)*%
X136225000Y-134550000D03*
%TO.P,R9,2*%
%TO.N,Net-(U4-EN)*%
X136225000Y-132725000D03*
%TD*%
D20*
%TO.P,R8,1*%
%TO.N,VBUS*%
X129600000Y-141350000D03*
%TO.P,R8,2*%
%TO.N,GND*%
X129600000Y-143175000D03*
%TD*%
D10*
%TO.P,R6,1*%
%TO.N,/reset*%
X116225000Y-111000000D03*
%TO.P,R6,2*%
%TO.N,+3.3V*%
X118050000Y-111000000D03*
%TD*%
%TO.P,R4,1*%
%TO.N,/Wifi_TXO*%
X134150000Y-108400000D03*
%TO.P,R4,2*%
%TO.N,+3.3V*%
X135975000Y-108400000D03*
%TD*%
%TO.P,R3,1*%
%TO.N,/PulseOx_INT*%
X185325000Y-129075000D03*
%TO.P,R3,2*%
%TO.N,Net-(LDO1.8V1-VI)*%
X187150000Y-129075000D03*
%TD*%
D11*
%TO.P,R2,2*%
%TO.N,+3.3V*%
X121850000Y-111075000D03*
%TO.P,R2,1*%
%TO.N,/Wifi_RXI*%
X123675000Y-111075000D03*
%TD*%
D20*
%TO.P,R1,2*%
%TO.N,/SPI-CLK*%
X113450000Y-127675000D03*
%TO.P,R1,1*%
%TO.N,+3.3V*%
X113450000Y-125850000D03*
%TD*%
D21*
%TO.P,Q1,1,G*%
%TO.N,VBUS*%
X128337500Y-139150000D03*
%TO.P,Q1,2,S*%
%TO.N,Net-(D2-K)*%
X128337500Y-137250000D03*
%TO.P,Q1,3,D*%
%TO.N,+BATT*%
X126462500Y-138200000D03*
%TD*%
D22*
%TO.P,J2,1,VBUS*%
%TO.N,VBUS*%
X144900000Y-137500000D03*
%TO.P,J2,2,D-*%
%TO.N,/USB_D-*%
X145550000Y-137500000D03*
%TO.P,J2,3,D+*%
%TO.N,/USB_D+*%
X146200000Y-137500000D03*
%TO.P,J2,4,ID*%
%TO.N,unconnected-(J2-ID-Pad4)*%
X146850000Y-137500000D03*
%TO.P,J2,5,GND*%
%TO.N,GND*%
X147500000Y-137500000D03*
D23*
%TO.P,J2,6,Shield*%
X143300000Y-140200000D03*
D24*
X148700000Y-137500000D03*
D25*
X147200000Y-140200000D03*
D26*
X149700000Y-140200000D03*
D23*
X149100000Y-140200000D03*
D24*
X143700000Y-137500000D03*
D25*
X145200000Y-140200000D03*
D26*
X142700000Y-140200000D03*
%TD*%
D27*
%TO.P,J1,1,DAT2*%
%TO.N,unconnected-(J1-DAT2-Pad1)*%
X119300000Y-58450000D03*
%TO.P,J1,2,DAT3/CD*%
%TO.N,/SPI_MOSI*%
X120400000Y-58450000D03*
%TO.P,J1,3,CMD*%
%TO.N,/SD_CMD*%
X121500000Y-58450000D03*
%TO.P,J1,4,VDD*%
%TO.N,+3.3V*%
X122600000Y-58450000D03*
%TO.P,J1,5,CLK*%
%TO.N,/SPI-CLK*%
X123700000Y-58450000D03*
%TO.P,J1,6,VSS*%
%TO.N,GND*%
X124800000Y-58450000D03*
%TO.P,J1,7,DAT0*%
%TO.N,/SPI_MISO*%
X125900000Y-58450000D03*
%TO.P,J1,8,DAT1*%
%TO.N,unconnected-(J1-DAT1-Pad8)*%
X127000000Y-58450000D03*
D28*
%TO.P,J1,9,SHIELD*%
%TO.N,GND*%
X115625000Y-55850000D03*
X115625000Y-64150000D03*
X129375000Y-64150000D03*
X129375000Y-55850000D03*
%TD*%
D14*
%TO.P,FB1,2*%
%TO.N,+3.3V*%
X134375000Y-100562500D03*
%TO.P,FB1,1*%
%TO.N,/VDDA*%
X134375000Y-102387500D03*
%TD*%
D29*
%TO.P,D2,1,K*%
%TO.N,Net-(D2-K)*%
X134200000Y-136800000D03*
%TO.P,D2,2,A*%
%TO.N,VBUS*%
X134200000Y-139600000D03*
%TD*%
D10*
%TO.P,C20,2*%
%TO.N,GND*%
X131475000Y-80350000D03*
%TO.P,C20,1*%
%TO.N,+3.3V*%
X129650000Y-80350000D03*
%TD*%
%TO.P,C19,1*%
%TO.N,+3.3V*%
X129600000Y-75475000D03*
%TO.P,C19,2*%
%TO.N,GND*%
X131425000Y-75475000D03*
%TD*%
D20*
%TO.P,C18,1*%
%TO.N,GND*%
X123625000Y-135387500D03*
%TO.P,C18,2*%
%TO.N,Net-(D2-K)*%
X123625000Y-137212500D03*
%TD*%
D14*
%TO.P,C17,2*%
%TO.N,GND*%
X151300000Y-114175000D03*
%TO.P,C17,1*%
%TO.N,Net-(U3-PA00)*%
X151300000Y-116000000D03*
%TD*%
D20*
%TO.P,C16,2*%
%TO.N,GND*%
X147650000Y-115800000D03*
%TO.P,C16,1*%
%TO.N,Net-(U3-PA01)*%
X147650000Y-113975000D03*
%TD*%
D10*
%TO.P,C15,1*%
%TO.N,+3.3V*%
X136875000Y-78650000D03*
%TO.P,C15,2*%
%TO.N,GND*%
X138700000Y-78650000D03*
%TD*%
%TO.P,C14,1*%
%TO.N,+3.3V*%
X136775000Y-98000000D03*
%TO.P,C14,2*%
%TO.N,GND*%
X138600000Y-98000000D03*
%TD*%
%TO.P,C13,1*%
%TO.N,/VDDA*%
X136850000Y-102675000D03*
%TO.P,C13,2*%
%TO.N,GND*%
X138675000Y-102675000D03*
%TD*%
%TO.P,C12,1*%
%TO.N,/VDDA*%
X136925000Y-73750000D03*
%TO.P,C12,2*%
%TO.N,GND*%
X138750000Y-73750000D03*
%TD*%
D20*
%TO.P,C11,1*%
%TO.N,+3.3V*%
X127000000Y-132175000D03*
%TO.P,C11,2*%
%TO.N,GND*%
X127000000Y-134000000D03*
%TD*%
D10*
%TO.P,C10,1*%
%TO.N,+3.3V*%
X136925000Y-93250000D03*
%TO.P,C10,2*%
%TO.N,GND*%
X138750000Y-93250000D03*
%TD*%
%TO.P,C9,1*%
%TO.N,+3.3V*%
X136950000Y-88025000D03*
%TO.P,C9,2*%
%TO.N,GND*%
X138775000Y-88025000D03*
%TD*%
%TO.P,C8,1*%
%TO.N,+3.3V*%
X136900000Y-83250000D03*
%TO.P,C8,2*%
%TO.N,GND*%
X138725000Y-83250000D03*
%TD*%
D11*
%TO.P,C6,1*%
%TO.N,GND*%
X179525000Y-126700000D03*
%TO.P,C6,2*%
%TO.N,Net-(LDO1.8V1-VO)*%
X177700000Y-126700000D03*
%TD*%
D10*
%TO.P,C4,1*%
%TO.N,GND*%
X185400000Y-124475000D03*
%TO.P,C4,2*%
%TO.N,Net-(LDO1.8V1-VI)*%
X187225000Y-124475000D03*
%TD*%
%TO.P,C2,1*%
%TO.N,+3.3V*%
X129325000Y-94175000D03*
%TO.P,C2,2*%
%TO.N,GND*%
X131150000Y-94175000D03*
%TD*%
D30*
%TO.P,BT1,1,+*%
%TO.N,+BATT*%
X151800000Y-108000000D03*
D31*
%TO.P,BT1,2,-*%
%TO.N,GND*%
X164600000Y-108000000D03*
%TD*%
D32*
%TO.P,U1,1,NC*%
%TO.N,unconnected-(U1-NC-Pad1)*%
X187625000Y-138950000D03*
%TO.P,U1,2,SCL*%
%TO.N,/I2C-CLK*%
X187625000Y-138150000D03*
%TO.P,U1,3,SDA*%
%TO.N,/I2C-DIO*%
X187625000Y-137350000D03*
%TO.P,U1,4,PGND*%
%TO.N,GND*%
X187625000Y-136550000D03*
%TO.P,U1,5,NC*%
%TO.N,unconnected-(U1-NC-Pad5)*%
X187625000Y-135750000D03*
%TO.P,U1,6,NC*%
%TO.N,unconnected-(U1-NC-Pad6)*%
X187625000Y-134950000D03*
%TO.P,U1,7,NC*%
%TO.N,unconnected-(U1-NC-Pad7)*%
X187625000Y-134150000D03*
%TO.P,U1,8,IR_DRV*%
%TO.N,Net-(JP1-A)*%
X185225000Y-134150000D03*
%TO.P,U1,9,IR_LED+*%
%TO.N,Net-(LDO1.8V1-VI)*%
X185225000Y-134950000D03*
%TO.P,U1,10,eR_LED+*%
X185225000Y-135750000D03*
%TO.P,U1,11,VDD*%
%TO.N,Net-(LDO1.8V1-VO)*%
X185225000Y-136550000D03*
%TO.P,U1,12,GND*%
%TO.N,GND*%
X185225000Y-137350000D03*
%TO.P,U1,13,~{INT}*%
%TO.N,/PulseOx_INT*%
X185225000Y-138150000D03*
%TO.P,U1,14,eR_DRV*%
%TO.N,Net-(JP2-A)*%
X185225000Y-138950000D03*
%TD*%
D33*
%TO.P,LDO3.3V1,1,VOUT*%
%TO.N,Net-(LDO1.8V1-VI)*%
X188500000Y-117345000D03*
%TO.P,LDO3.3V1,2,VOUT*%
X188500000Y-116075000D03*
%TO.P,LDO3.3V1,3,SENSE/ADJ*%
X188500000Y-114805000D03*
%TO.P,LDO3.3V1,4,GND*%
%TO.N,GND*%
X188500000Y-113535000D03*
%TO.P,LDO3.3V1,5,EN*%
%TO.N,+3.3V*%
X183550000Y-113535000D03*
%TO.P,LDO3.3V1,6,SS*%
%TO.N,Net-(LDO3.3V1-SS)*%
X183550000Y-114805000D03*
%TO.P,LDO3.3V1,7,VIN*%
%TO.N,+3.3V*%
X183550000Y-116075000D03*
%TO.P,LDO3.3V1,8,VIN*%
X183550000Y-117345000D03*
D34*
%TO.P,LDO3.3V1,9,GND*%
%TO.N,GND*%
X186025000Y-115440000D03*
%TD*%
D35*
%TO.P,LDO1.8V1,1,VO*%
%TO.N,Net-(LDO1.8V1-VO)*%
X169300000Y-117275000D03*
D36*
%TO.P,LDO1.8V1,2,GND*%
%TO.N,GND*%
X170800000Y-117187500D03*
D35*
%TO.P,LDO1.8V1,3,VI*%
%TO.N,Net-(LDO1.8V1-VI)*%
X172300000Y-117275000D03*
%TD*%
D37*
%TO.P,U3,1,PA00*%
%TO.N,Net-(U3-PA00)*%
X149600000Y-121675000D03*
%TO.P,U3,2,PA01*%
%TO.N,Net-(U3-PA01)*%
X149100000Y-121675000D03*
%TO.P,U3,3,PA02*%
%TO.N,unconnected-(U3-PA02-Pad3)*%
X148600000Y-121675000D03*
%TO.P,U3,4,PA03*%
%TO.N,unconnected-(U3-PA03-Pad4)*%
X148100000Y-121675000D03*
%TO.P,U3,5,PB04*%
%TO.N,unconnected-(U3-PB04-Pad5)*%
X147600000Y-121675000D03*
%TO.P,U3,6,PB05*%
%TO.N,unconnected-(U3-PB05-Pad6)*%
X147100000Y-121675000D03*
%TO.P,U3,7,GNDANA*%
%TO.N,GND*%
X146600000Y-121675000D03*
%TO.P,U3,8,VDDANA*%
%TO.N,/VDDA*%
X146100000Y-121675000D03*
%TO.P,U3,9,PB06*%
%TO.N,unconnected-(U3-PB06-Pad9)*%
X145600000Y-121675000D03*
%TO.P,U3,10,PB07*%
%TO.N,unconnected-(U3-PB07-Pad10)*%
X145100000Y-121675000D03*
%TO.P,U3,11,PB08*%
%TO.N,unconnected-(U3-PB08-Pad11)*%
X144600000Y-121675000D03*
%TO.P,U3,12,PB09*%
%TO.N,unconnected-(U3-PB09-Pad12)*%
X144100000Y-121675000D03*
%TO.P,U3,13,PA04*%
%TO.N,/Wifi_TXO*%
X143600000Y-121675000D03*
%TO.P,U3,14,PA05*%
%TO.N,/Wifi_RXI*%
X143100000Y-121675000D03*
%TO.P,U3,15,PA06*%
%TO.N,/Wifi_BUSY*%
X142600000Y-121675000D03*
%TO.P,U3,16,PA07*%
%TO.N,/Wifi_CS*%
X142100000Y-121675000D03*
D38*
%TO.P,U3,17,PA08*%
%TO.N,/LED_DC*%
X140187500Y-123587500D03*
%TO.P,U3,18,PA09*%
%TO.N,/LED_TFTCS*%
X140187500Y-124087500D03*
%TO.P,U3,19,PA10*%
%TO.N,unconnected-(U3-PA10-Pad19)*%
X140187500Y-124587500D03*
%TO.P,U3,20,PA11*%
%TO.N,unconnected-(U3-PA11-Pad20)*%
X140187500Y-125087500D03*
%TO.P,U3,21,VDDIOB*%
%TO.N,+3.3V*%
X140187500Y-125587500D03*
%TO.P,U3,22,GND*%
%TO.N,GND*%
X140187500Y-126087500D03*
%TO.P,U3,23,PB10*%
%TO.N,/I2C-DIO*%
X140187500Y-126587500D03*
%TO.P,U3,24,PB11*%
%TO.N,/I2C-CLK*%
X140187500Y-127087500D03*
%TO.P,U3,25,PB12*%
%TO.N,/SPI_MISO*%
X140187500Y-127587500D03*
%TO.P,U3,26,PB13*%
%TO.N,/SPI_MOSI*%
X140187500Y-128087500D03*
%TO.P,U3,27,PB14*%
%TO.N,unconnected-(U3-PB14-Pad27)*%
X140187500Y-128587500D03*
%TO.P,U3,28,PB15*%
%TO.N,/SD_CMD*%
X140187500Y-129087500D03*
%TO.P,U3,29,PA12*%
%TO.N,unconnected-(U3-PA12-Pad29)*%
X140187500Y-129587500D03*
%TO.P,U3,30,PA13*%
%TO.N,unconnected-(U3-PA13-Pad30)*%
X140187500Y-130087500D03*
%TO.P,U3,31,PA14*%
%TO.N,unconnected-(U3-PA14-Pad31)*%
X140187500Y-130587500D03*
%TO.P,U3,32,PA15*%
%TO.N,unconnected-(U3-PA15-Pad32)*%
X140187500Y-131087500D03*
D37*
%TO.P,U3,33,GND*%
%TO.N,GND*%
X142100000Y-133000000D03*
%TO.P,U3,34,VDDIO*%
%TO.N,+3.3V*%
X142600000Y-133000000D03*
%TO.P,U3,35,PA16*%
%TO.N,unconnected-(U3-PA16-Pad35)*%
X143100000Y-133000000D03*
%TO.P,U3,36,PA17*%
%TO.N,unconnected-(U3-PA17-Pad36)*%
X143600000Y-133000000D03*
%TO.P,U3,37,PA18*%
%TO.N,unconnected-(U3-PA18-Pad37)*%
X144100000Y-133000000D03*
%TO.P,U3,38,PA19*%
%TO.N,unconnected-(U3-PA19-Pad38)*%
X144600000Y-133000000D03*
%TO.P,U3,39,PB16*%
%TO.N,unconnected-(U3-PB16-Pad39)*%
X145100000Y-133000000D03*
%TO.P,U3,40,PB17*%
%TO.N,unconnected-(U3-PB17-Pad40)*%
X145600000Y-133000000D03*
%TO.P,U3,41,PA20*%
%TO.N,unconnected-(U3-PA20-Pad41)*%
X146100000Y-133000000D03*
%TO.P,U3,42,PA21*%
%TO.N,unconnected-(U3-PA21-Pad42)*%
X146600000Y-133000000D03*
%TO.P,U3,43,PA22*%
%TO.N,unconnected-(U3-PA22-Pad43)*%
X147100000Y-133000000D03*
%TO.P,U3,44,PA23*%
%TO.N,unconnected-(U3-PA23-Pad44)*%
X147600000Y-133000000D03*
%TO.P,U3,45,PA24*%
%TO.N,/USB_D-*%
X148100000Y-133000000D03*
%TO.P,U3,46,PA25*%
%TO.N,/USB_D+*%
X148600000Y-133000000D03*
%TO.P,U3,47,GND*%
%TO.N,GND*%
X149100000Y-133000000D03*
%TO.P,U3,48,VDDIO*%
%TO.N,+3.3V*%
X149600000Y-133000000D03*
D38*
%TO.P,U3,49,PB22*%
%TO.N,/SPI-CLK*%
X151512500Y-131087500D03*
%TO.P,U3,50,PB23*%
%TO.N,unconnected-(U3-PB23-Pad50)*%
X151512500Y-130587500D03*
%TO.P,U3,51,PA27*%
%TO.N,unconnected-(U3-PA27-Pad51)*%
X151512500Y-130087500D03*
%TO.P,U3,52,~{RESET}*%
%TO.N,/reset*%
X151512500Y-129587500D03*
%TO.P,U3,53,VDDCORE*%
%TO.N,+3.3V*%
X151512500Y-129087500D03*
%TO.P,U3,54,GND*%
%TO.N,GND*%
X151512500Y-128587500D03*
%TO.P,U3,55,VSW*%
%TO.N,unconnected-(U3-VSW-Pad55)*%
X151512500Y-128087500D03*
%TO.P,U3,56,VDDIO*%
%TO.N,+3.3V*%
X151512500Y-127587500D03*
%TO.P,U3,57,PA30*%
%TO.N,/I2C-SWCLK*%
X151512500Y-127087500D03*
%TO.P,U3,58,PA31*%
%TO.N,/I2C-SWDIO*%
X151512500Y-126587500D03*
%TO.P,U3,59,PB30*%
%TO.N,/TempSensor_INT*%
X151512500Y-126087500D03*
%TO.P,U3,60,PB31*%
%TO.N,/TempSensor_ADDR*%
X151512500Y-125587500D03*
%TO.P,U3,61,PB00*%
%TO.N,/PulseOx_RD*%
X151512500Y-125087500D03*
%TO.P,U3,62,PB01*%
%TO.N,/PulseOx_IRD*%
X151512500Y-124587500D03*
%TO.P,U3,63,PB02*%
%TO.N,/PulseOx_INT*%
X151512500Y-124087500D03*
%TO.P,U3,64,PB03*%
%TO.N,unconnected-(U3-PB03-Pad64)*%
X151512500Y-123587500D03*
%TD*%
D39*
%TO.P,U2,1,SCL*%
%TO.N,/I2C-CLK*%
X187325000Y-142375000D03*
%TO.P,U2,2,GND*%
%TO.N,GND*%
X187325000Y-141725000D03*
%TO.P,U2,3,ALERT*%
%TO.N,/TempSensor_INT*%
X187325000Y-141075000D03*
%TO.P,U2,4,ADD0*%
%TO.N,/TempSensor_ADDR*%
X185550000Y-141075000D03*
%TO.P,U2,5,V+*%
%TO.N,+3.3V*%
X185550000Y-141725000D03*
%TO.P,U2,6,SDA*%
%TO.N,/I2C-DIO*%
X185550000Y-142375000D03*
D40*
%TO.P,U2,7*%
%TO.N,N/C*%
X186437500Y-141725000D03*
%TD*%
D41*
%TO.N,/SPI-CLK*%
X128825000Y-121725000D03*
X123625000Y-121625000D03*
%TO.N,+3.3V*%
X116400000Y-134850000D03*
%TO.N,GND*%
X181000000Y-126950000D03*
%TO.N,/I2C-CLK*%
X190900000Y-139000000D03*
%TO.N,GND*%
X171275000Y-129350000D03*
%TO.N,+3.3V*%
X162675000Y-132025000D03*
X113500000Y-103000000D03*
%TO.N,/Wifi_BUSY*%
X108650000Y-105600000D03*
%TO.N,/SD_CMD*%
X126850000Y-115450000D03*
X126725000Y-122675000D03*
X125075000Y-126650000D03*
%TO.N,/I2C-CLK*%
X106300000Y-85275000D03*
X102200000Y-81625000D03*
X142850000Y-127200000D03*
%TO.N,/SPI_MISO*%
X108825000Y-123350000D03*
X129900000Y-129725000D03*
%TO.N,+3.3V*%
X129975000Y-126600000D03*
%TO.N,GND*%
X131075000Y-144000000D03*
%TO.N,+3.3V*%
X137550000Y-108400000D03*
X119625000Y-111000000D03*
%TO.N,/PulseOx_RD*%
X155850000Y-125375000D03*
%TO.N,GND*%
X153800000Y-128863000D03*
%TO.N,+3.3V*%
X149875000Y-128250000D03*
%TO.N,/PulseOx_IRD*%
X155925000Y-123799500D03*
%TO.N,Net-(JP2-A)*%
X183912500Y-138289999D03*
%TO.N,Net-(JP1-A)*%
X182950000Y-133500000D03*
%TO.N,GND*%
X149575000Y-113900000D03*
%TO.N,Net-(LDO3.3V1-SS)*%
X181175000Y-115000000D03*
X189650000Y-120225000D03*
%TO.N,GND*%
X191750000Y-119850000D03*
%TO.N,Net-(LDO1.8V1-VO)*%
X173425000Y-125250000D03*
X171825000Y-123325000D03*
%TO.N,GND*%
X181925000Y-120650000D03*
X170825000Y-119025000D03*
%TO.N,+3.3V*%
X181475000Y-117525000D03*
X181625000Y-112850000D03*
%TO.N,GND*%
X190700000Y-113050000D03*
%TO.N,/PulseOx_INT*%
X184050000Y-137300000D03*
X183900000Y-129450000D03*
%TO.N,GND*%
X188875000Y-136625000D03*
%TO.N,/PulseOx_INT*%
X158725000Y-124250000D03*
X153650000Y-123075000D03*
%TO.N,GND*%
X183575000Y-124625000D03*
%TO.N,/TempSensor_INT*%
X188475000Y-140375000D03*
X182900000Y-140350000D03*
X158725000Y-127175000D03*
X153450000Y-126600000D03*
%TO.N,/TempSensor_ADDR*%
X154650000Y-126175000D03*
X158750000Y-126175000D03*
%TO.N,+3.3V*%
X184125000Y-141775000D03*
%TO.N,GND*%
X188450000Y-141750000D03*
%TO.N,/VDDA*%
X145925000Y-113800000D03*
%TO.N,+3.3V*%
X137480803Y-125972153D03*
%TO.N,GND*%
X138475000Y-126075000D03*
%TO.N,+3.3V*%
X141210377Y-134293389D03*
X137900000Y-136925000D03*
X155575000Y-138325000D03*
%TO.N,GND*%
X150525000Y-134300000D03*
%TO.N,+3.3V*%
X151000000Y-133350000D03*
%TO.N,GND*%
X131525000Y-83550000D03*
%TO.N,+3.3V*%
X129725000Y-83675000D03*
%TO.N,/VDDA*%
X134375000Y-104050000D03*
X136875000Y-70625000D03*
%TO.N,+3.3V*%
X136825000Y-100300000D03*
%TO.N,GND*%
X138750000Y-70475000D03*
X146600000Y-120200000D03*
%TO.N,/SPI_MOSI*%
X136925000Y-128250000D03*
%TO.N,/LED_TFTCS*%
X107975000Y-134100000D03*
X110300000Y-134275000D03*
%TO.N,/I2C-SWDIO*%
X153074799Y-121024799D03*
X155425000Y-89850000D03*
%TO.N,/I2C-SWCLK*%
X149875000Y-127150000D03*
X154200000Y-90150000D03*
%TO.N,+3.3V*%
X134200000Y-119600000D03*
%TO.N,/reset*%
X142450000Y-112675000D03*
X114125000Y-112680500D03*
%TO.N,/SD_CMD*%
X142000000Y-129075000D03*
X141375000Y-117325000D03*
%TO.N,GND*%
X117025000Y-64100000D03*
X127950000Y-64275000D03*
%TO.N,/SPI-CLK*%
X116800000Y-107350000D03*
%TO.N,/SPI_MISO*%
X125796558Y-60373342D03*
%TO.N,/SPI_MOSI*%
X117550000Y-69750000D03*
%TO.N,GND*%
X117250000Y-55050000D03*
X127725000Y-55075000D03*
X124800000Y-60450000D03*
%TO.N,+3.3V*%
X122575000Y-60550000D03*
X131425000Y-130500000D03*
X127000000Y-130950000D03*
X105079099Y-90134970D03*
X106300000Y-88225000D03*
%TO.N,GND*%
X103350000Y-84275000D03*
X104101900Y-89925000D03*
X106825000Y-119800000D03*
X107175000Y-128700000D03*
X127000000Y-135075000D03*
X132350000Y-135350000D03*
X141100000Y-133300000D03*
%TO.N,+3.3V*%
X107625000Y-126200000D03*
%TO.N,+BATT*%
X151600000Y-104800000D03*
X126400000Y-143000000D03*
%TD*%
D42*
%TO.N,/SPI-CLK*%
X130212500Y-123112500D02*
X128825000Y-121725000D01*
X150473896Y-131087500D02*
X142498896Y-123112500D01*
X142498896Y-123112500D02*
X130212500Y-123112500D01*
X151512500Y-131087500D02*
X150473896Y-131087500D01*
X119500000Y-121625000D02*
X123625000Y-121625000D01*
X113450000Y-127675000D02*
X119500000Y-121625000D01*
%TO.N,+3.3V*%
X118850000Y-137300000D02*
X116400000Y-134850000D01*
X118850000Y-138600000D02*
X118850000Y-137300000D01*
X119400000Y-139150000D02*
X118850000Y-138600000D01*
%TO.N,/LEDreset*%
X104175000Y-135905000D02*
X105000000Y-135080000D01*
X104175000Y-139575000D02*
X104175000Y-135905000D01*
X105225000Y-140625000D02*
X104175000Y-139575000D01*
X117575000Y-139150000D02*
X116100000Y-140625000D01*
X116100000Y-140625000D02*
X105225000Y-140625000D01*
%TO.N,/LED_DC*%
X109053274Y-139600000D02*
X106414137Y-136960863D01*
X112800000Y-139600000D02*
X109053274Y-139600000D01*
%TO.N,+3.3V*%
X114625000Y-139600000D02*
X114625000Y-134825000D01*
X116375000Y-134825000D02*
X116400000Y-134850000D01*
X114625000Y-134825000D02*
X116375000Y-134825000D01*
%TO.N,/LED_TFTCS*%
X110850000Y-134825000D02*
X110300000Y-134275000D01*
X112800000Y-134825000D02*
X110850000Y-134825000D01*
%TO.N,/Wifi_RXI*%
X124620000Y-111075000D02*
X126100000Y-109595000D01*
X123675000Y-111075000D02*
X124620000Y-111075000D01*
X131959581Y-109595000D02*
X126100000Y-109595000D01*
X126100000Y-109595000D02*
X104950000Y-109595000D01*
%TO.N,+3.3V*%
X121850000Y-111075000D02*
X119700000Y-111075000D01*
X119700000Y-111075000D02*
X119625000Y-111000000D01*
%TO.N,GND*%
X180750000Y-126700000D02*
X181000000Y-126950000D01*
X179525000Y-126700000D02*
X180750000Y-126700000D01*
%TO.N,Net-(LDO1.8V1-VO)*%
X174875000Y-126700000D02*
X173425000Y-125250000D01*
X177700000Y-126700000D02*
X174875000Y-126700000D01*
%TO.N,+3.3V*%
X129325000Y-88975000D02*
X128325000Y-87975000D01*
X129325000Y-94175000D02*
X129325000Y-88975000D01*
%TO.N,GND*%
X131925000Y-93400000D02*
X131150000Y-94175000D01*
X131925000Y-87975000D02*
X131925000Y-93400000D01*
%TO.N,/I2C-DIO*%
X141387500Y-126475000D02*
X141275000Y-126587500D01*
X161250000Y-142500000D02*
X145225000Y-126475000D01*
X185425000Y-142500000D02*
X161250000Y-142500000D01*
X141275000Y-126587500D02*
X140187500Y-126587500D01*
X185550000Y-142375000D02*
X185425000Y-142500000D01*
X145225000Y-126475000D02*
X141387500Y-126475000D01*
%TO.N,/I2C-CLK*%
X191750000Y-138150000D02*
X190900000Y-139000000D01*
X192100000Y-138150000D02*
X191750000Y-138150000D01*
%TO.N,/TempSensor_ADDR*%
X168050000Y-126275000D02*
X167950000Y-126175000D01*
X167950000Y-126175000D02*
X158750000Y-126175000D01*
X170650000Y-126175000D02*
X167950000Y-126175000D01*
X168050000Y-128300000D02*
X168050000Y-126275000D01*
%TO.N,GND*%
X170225000Y-128300000D02*
X171275000Y-129350000D01*
X169875000Y-128300000D02*
X170225000Y-128300000D01*
%TO.N,+3.3V*%
X163400000Y-132750000D02*
X162675000Y-132025000D01*
X163400000Y-133425000D02*
X163400000Y-132750000D01*
%TO.N,/TempSensor_INT*%
X166500000Y-133425000D02*
X166900000Y-133025000D01*
X165225000Y-133425000D02*
X166500000Y-133425000D01*
X182900000Y-139450000D02*
X182900000Y-140350000D01*
X166900000Y-133025000D02*
X176475000Y-133025000D01*
X161050000Y-127175000D02*
X166900000Y-133025000D01*
X158725000Y-127175000D02*
X161050000Y-127175000D01*
X176475000Y-133025000D02*
X182900000Y-139450000D01*
%TO.N,/TempSensor_ADDR*%
X185550000Y-141075000D02*
X170650000Y-126175000D01*
%TO.N,+3.3V*%
X113350000Y-102850000D02*
X113500000Y-103000000D01*
X112125000Y-102850000D02*
X113350000Y-102850000D01*
%TO.N,/Wifi_BUSY*%
X110300000Y-103950000D02*
X108650000Y-105600000D01*
X110300000Y-102850000D02*
X110300000Y-103950000D01*
%TO.N,/SD_CMD*%
X126725000Y-115575000D02*
X126850000Y-115450000D01*
X126725000Y-122675000D02*
X126725000Y-115575000D01*
X126537500Y-126750000D02*
X125175000Y-126750000D01*
X125175000Y-126750000D02*
X125075000Y-126650000D01*
%TO.N,+3.3V*%
X129825000Y-126750000D02*
X129975000Y-126600000D01*
X128362500Y-126750000D02*
X129825000Y-126750000D01*
%TO.N,/I2C-CLK*%
X102650000Y-81625000D02*
X106300000Y-85275000D01*
X102200000Y-81625000D02*
X102650000Y-81625000D01*
X142737500Y-127087500D02*
X142850000Y-127200000D01*
X140187500Y-127087500D02*
X142737500Y-127087500D01*
%TO.N,/SPI_MISO*%
X139337500Y-127587500D02*
X140187500Y-127587500D01*
X139125000Y-127375000D02*
X139337500Y-127587500D01*
X136774695Y-127375000D02*
X139125000Y-127375000D01*
X129900000Y-129725000D02*
X134424695Y-129725000D01*
X109400000Y-122775000D02*
X108825000Y-123350000D01*
X134424695Y-129725000D02*
X136774695Y-127375000D01*
X110650000Y-122775000D02*
X109400000Y-122775000D01*
%TO.N,+3.3V*%
X109050000Y-126200000D02*
X107625000Y-126200000D01*
X112475000Y-122775000D02*
X109050000Y-126200000D01*
%TO.N,/SPI-CLK*%
X111125000Y-130000000D02*
X105000000Y-130000000D01*
X113450000Y-127675000D02*
X111125000Y-130000000D01*
%TO.N,/SPI_MOSI*%
X109345000Y-115945000D02*
X104950000Y-115945000D01*
X116175000Y-122775000D02*
X109345000Y-115945000D01*
%TO.N,/SPI_MISO*%
X110650000Y-122207894D02*
X105657106Y-117215000D01*
X105657106Y-117215000D02*
X104950000Y-117215000D01*
X110650000Y-122775000D02*
X110650000Y-122207894D01*
%TO.N,+3.3V*%
X113450000Y-123675000D02*
X114350000Y-122775000D01*
X113450000Y-125850000D02*
X113450000Y-123675000D01*
X112475000Y-122775000D02*
X114350000Y-122775000D01*
X130125000Y-126750000D02*
X129975000Y-126600000D01*
X131525000Y-126750000D02*
X130125000Y-126750000D01*
%TO.N,/I2C-DIO*%
X138775305Y-126800000D02*
X133400000Y-126800000D01*
X133400000Y-126800000D02*
X133350000Y-126750000D01*
X138987805Y-126587500D02*
X138775305Y-126800000D01*
X140187500Y-126587500D02*
X138987805Y-126587500D01*
%TO.N,Net-(D2-K)*%
X132774695Y-136800000D02*
X134200000Y-136800000D01*
X131400000Y-134075000D02*
X131400000Y-135425305D01*
X131400000Y-135425305D02*
X132774695Y-136800000D01*
D43*
X123662500Y-137250000D02*
X123625000Y-137212500D01*
X128337500Y-137250000D02*
X123662500Y-137250000D01*
D42*
%TO.N,GND*%
X127000000Y-135075000D02*
X123937500Y-135075000D01*
X123937500Y-135075000D02*
X123625000Y-135387500D01*
%TO.N,Net-(D2-K)*%
X136225000Y-134775000D02*
X134200000Y-136800000D01*
X136225000Y-134550000D02*
X136225000Y-134775000D01*
%TO.N,Net-(U4-EN)*%
X134875000Y-134075000D02*
X136225000Y-132725000D01*
X133300000Y-134075000D02*
X134875000Y-134075000D01*
%TO.N,GND*%
X130250000Y-143175000D02*
X131075000Y-144000000D01*
X129600000Y-143175000D02*
X130250000Y-143175000D01*
%TO.N,VBUS*%
X129600000Y-139625000D02*
X129575000Y-139600000D01*
D43*
X129575000Y-139600000D02*
X134200000Y-139600000D01*
X128787500Y-139600000D02*
X129575000Y-139600000D01*
D42*
X129600000Y-141350000D02*
X129600000Y-139625000D01*
%TO.N,+3.3V*%
X135975000Y-108400000D02*
X137550000Y-108400000D01*
%TO.N,/Wifi_TXO*%
X134075000Y-108325000D02*
X134150000Y-108400000D01*
X131325977Y-108325000D02*
X134075000Y-108325000D01*
%TO.N,+3.3V*%
X118050000Y-111000000D02*
X119625000Y-111000000D01*
%TO.N,/reset*%
X115805500Y-111000000D02*
X114125000Y-112680500D01*
X116225000Y-111000000D02*
X115805500Y-111000000D01*
%TO.N,+3.3V*%
X128325000Y-85075000D02*
X129725000Y-83675000D01*
X128325000Y-87975000D02*
X128325000Y-85075000D01*
%TO.N,GND*%
X131525000Y-87575000D02*
X131525000Y-83550000D01*
X131925000Y-87975000D02*
X131525000Y-87575000D01*
%TO.N,/PulseOx_RD*%
X155562500Y-125087500D02*
X155850000Y-125375000D01*
X151512500Y-125087500D02*
X155562500Y-125087500D01*
%TO.N,/PulseOx_IRD*%
X152725000Y-124537500D02*
X152675000Y-124587500D01*
X153200000Y-124550000D02*
X153187500Y-124537500D01*
X153950500Y-123799500D02*
X153200000Y-124550000D01*
X155925000Y-123799500D02*
X153950500Y-123799500D01*
X153187500Y-124537500D02*
X152725000Y-124537500D01*
X152675000Y-124587500D02*
X151512500Y-124587500D01*
%TO.N,/PulseOx_INT*%
X153650000Y-123075000D02*
X152637500Y-124087500D01*
X152637500Y-124087500D02*
X151512500Y-124087500D01*
%TO.N,/TempSensor_ADDR*%
X153462805Y-125587500D02*
X154050305Y-126175000D01*
X151512500Y-125587500D02*
X153462805Y-125587500D01*
X154050305Y-126175000D02*
X154650000Y-126175000D01*
%TO.N,GND*%
X153524500Y-128587500D02*
X153800000Y-128863000D01*
X151512500Y-128587500D02*
X153524500Y-128587500D01*
%TO.N,+3.3V*%
X150450000Y-128250000D02*
X149875000Y-128250000D01*
X150450000Y-127762500D02*
X150450000Y-128250000D01*
X150450000Y-128250000D02*
X150450000Y-128828185D01*
X150709315Y-129087500D02*
X151512500Y-129087500D01*
X150450000Y-128828185D02*
X150709315Y-129087500D01*
X150625000Y-127587500D02*
X150450000Y-127762500D01*
X151512500Y-127587500D02*
X150625000Y-127587500D01*
%TO.N,/reset*%
X156537500Y-129587500D02*
X151512500Y-129587500D01*
X156700000Y-129425000D02*
X156537500Y-129587500D01*
X156700000Y-117600000D02*
X156700000Y-129425000D01*
%TO.N,Net-(JP2-A)*%
X184572501Y-138950000D02*
X183912500Y-138289999D01*
X185225000Y-138950000D02*
X184572501Y-138950000D01*
%TO.N,Net-(JP1-A)*%
X183600000Y-134150000D02*
X182950000Y-133500000D01*
X185225000Y-134150000D02*
X183600000Y-134150000D01*
%TO.N,Net-(LDO1.8V1-VO)*%
X185383363Y-136550000D02*
X185225000Y-136550000D01*
X186925000Y-135008363D02*
X185383363Y-136550000D01*
X186925000Y-133891637D02*
X186925000Y-135008363D01*
X189391637Y-131425000D02*
X186925000Y-133891637D01*
X189750000Y-131425000D02*
X189391637Y-131425000D01*
%TO.N,Net-(LDO1.8V1-VI)*%
X185383363Y-134950000D02*
X185225000Y-134950000D01*
X186425000Y-132475000D02*
X186425000Y-133908363D01*
X187150000Y-131750000D02*
X186425000Y-132475000D01*
X187150000Y-129075000D02*
X187150000Y-131750000D01*
X186425000Y-133908363D02*
X185383363Y-134950000D01*
%TO.N,GND*%
X190550000Y-136625000D02*
X188875000Y-136625000D01*
X193350000Y-133825000D02*
X190550000Y-136625000D01*
X193350000Y-131425000D02*
X193350000Y-133825000D01*
X146600000Y-116850000D02*
X146600000Y-120200000D01*
X147650000Y-115800000D02*
X146600000Y-116850000D01*
X149850000Y-114175000D02*
X149575000Y-113900000D01*
X151300000Y-114175000D02*
X149850000Y-114175000D01*
%TO.N,Net-(U3-PA00)*%
X149875000Y-118500000D02*
X149875000Y-120200000D01*
X149875000Y-120200000D02*
X149600000Y-120475000D01*
X149600000Y-120475000D02*
X149600000Y-121675000D01*
X149875000Y-117425000D02*
X151300000Y-116000000D01*
X149875000Y-118500000D02*
X149875000Y-117425000D01*
%TO.N,Net-(U3-PA01)*%
X149100000Y-118925000D02*
X149100000Y-121675000D01*
X148675000Y-118500000D02*
X149100000Y-118925000D01*
X148675000Y-115000000D02*
X148675000Y-118500000D01*
X147650000Y-113975000D02*
X148675000Y-115000000D01*
%TO.N,Net-(LDO3.3V1-SS)*%
X183355000Y-115000000D02*
X183550000Y-114805000D01*
X181175000Y-115000000D02*
X183355000Y-115000000D01*
X189650000Y-123475000D02*
X189650000Y-120225000D01*
X191800000Y-125625000D02*
X189650000Y-123475000D01*
%TO.N,GND*%
X191800000Y-119900000D02*
X191750000Y-119850000D01*
X191800000Y-122025000D02*
X191800000Y-119900000D01*
%TO.N,Net-(LDO1.8V1-VO)*%
X184725000Y-136550000D02*
X185225000Y-136550000D01*
X169300000Y-120800000D02*
X171825000Y-123325000D01*
X169300000Y-117275000D02*
X169300000Y-120800000D01*
X173425000Y-125250000D02*
X184725000Y-136550000D01*
%TO.N,Net-(LDO1.8V1-VI)*%
X188400000Y-118250000D02*
X188500000Y-118150000D01*
X188500000Y-118150000D02*
X188500000Y-123200000D01*
X178225000Y-118250000D02*
X188400000Y-118250000D01*
X188500000Y-116075000D02*
X188500000Y-118150000D01*
X175950000Y-120525000D02*
X178225000Y-118250000D01*
X175550000Y-120525000D02*
X172300000Y-117275000D01*
X175950000Y-120525000D02*
X175550000Y-120525000D01*
%TO.N,GND*%
X181800000Y-120525000D02*
X181925000Y-120650000D01*
X179550000Y-120525000D02*
X181800000Y-120525000D01*
%TO.N,Net-(LDO1.8V1-VI)*%
X188500000Y-123200000D02*
X187225000Y-124475000D01*
X188500000Y-116075000D02*
X188500000Y-117345000D01*
X188500000Y-116075000D02*
X188500000Y-114805000D01*
%TO.N,GND*%
X170800000Y-119000000D02*
X170825000Y-119025000D01*
X170800000Y-117187500D02*
X170800000Y-119000000D01*
%TO.N,+3.3V*%
X181655000Y-117345000D02*
X181475000Y-117525000D01*
X183550000Y-117345000D02*
X181655000Y-117345000D01*
X182310000Y-113535000D02*
X181625000Y-112850000D01*
X183550000Y-113535000D02*
X182310000Y-113535000D01*
%TO.N,GND*%
X190215000Y-113535000D02*
X190700000Y-113050000D01*
X188500000Y-113535000D02*
X190215000Y-113535000D01*
%TO.N,+3.3V*%
X183550000Y-116075000D02*
X183550000Y-117345000D01*
%TO.N,GND*%
X187930000Y-113535000D02*
X186025000Y-115440000D01*
X188500000Y-113535000D02*
X187930000Y-113535000D01*
%TO.N,/PulseOx_INT*%
X184950000Y-129450000D02*
X185325000Y-129075000D01*
X183900000Y-129450000D02*
X184950000Y-129450000D01*
X184900000Y-138150000D02*
X184050000Y-137300000D01*
X185225000Y-138150000D02*
X184900000Y-138150000D01*
%TO.N,GND*%
X188800000Y-136550000D02*
X188875000Y-136625000D01*
X187625000Y-136550000D02*
X188800000Y-136550000D01*
%TO.N,/PulseOx_INT*%
X180500000Y-124250000D02*
X158725000Y-124250000D01*
X185325000Y-129075000D02*
X180500000Y-124250000D01*
%TO.N,GND*%
X183725000Y-124475000D02*
X183575000Y-124625000D01*
X185400000Y-124475000D02*
X183725000Y-124475000D01*
%TO.N,Net-(LDO1.8V1-VI)*%
X187150000Y-124550000D02*
X187225000Y-124475000D01*
X187150000Y-129075000D02*
X187150000Y-124550000D01*
X185250000Y-134975000D02*
X185225000Y-134950000D01*
X185250000Y-135750000D02*
X185250000Y-134975000D01*
X185225000Y-135750000D02*
X185250000Y-135750000D01*
%TO.N,/TempSensor_INT*%
X188025000Y-140375000D02*
X187325000Y-141075000D01*
X188475000Y-140375000D02*
X188025000Y-140375000D01*
X152937500Y-126087500D02*
X153450000Y-126600000D01*
X151512500Y-126087500D02*
X152937500Y-126087500D01*
%TO.N,/I2C-CLK*%
X192100000Y-138150000D02*
X187625000Y-138150000D01*
X192900000Y-138950000D02*
X192100000Y-138150000D01*
X188550000Y-143300000D02*
X192900000Y-138950000D01*
X188250000Y-143300000D02*
X188550000Y-143300000D01*
X187325000Y-142375000D02*
X188250000Y-143300000D01*
%TO.N,/I2C-DIO*%
X185550000Y-142787500D02*
X185550000Y-142375000D01*
X186687500Y-143925000D02*
X185550000Y-142787500D01*
X188800000Y-143925000D02*
X186687500Y-143925000D01*
X194000000Y-138725000D02*
X188800000Y-143925000D01*
X194000000Y-137400000D02*
X194000000Y-138725000D01*
X187833363Y-137400000D02*
X194000000Y-137400000D01*
X187783363Y-137350000D02*
X187833363Y-137400000D01*
X187625000Y-137350000D02*
X187783363Y-137350000D01*
%TO.N,+3.3V*%
X184175000Y-141725000D02*
X184125000Y-141775000D01*
X185550000Y-141725000D02*
X184175000Y-141725000D01*
%TO.N,GND*%
X188425000Y-141725000D02*
X188450000Y-141750000D01*
X187325000Y-141725000D02*
X188425000Y-141725000D01*
X187466637Y-136550000D02*
X187625000Y-136550000D01*
X186666637Y-137350000D02*
X187466637Y-136550000D01*
X185225000Y-137350000D02*
X186666637Y-137350000D01*
%TO.N,/VDDA*%
X145875000Y-120500305D02*
X145875000Y-113850000D01*
X145875000Y-113850000D02*
X145925000Y-113800000D01*
X146100000Y-120725305D02*
X145875000Y-120500305D01*
X146100000Y-121675000D02*
X146100000Y-120725305D01*
%TO.N,+3.3V*%
X138102956Y-125350000D02*
X137480803Y-125972153D01*
X139012805Y-125587500D02*
X138775305Y-125350000D01*
X138775305Y-125350000D02*
X138102956Y-125350000D01*
X140187500Y-125587500D02*
X139012805Y-125587500D01*
%TO.N,GND*%
X138487500Y-126087500D02*
X138475000Y-126075000D01*
X140187500Y-126087500D02*
X138487500Y-126087500D01*
%TO.N,+3.3V*%
X142109796Y-134293389D02*
X141210377Y-134293389D01*
X142600000Y-133803185D02*
X142109796Y-134293389D01*
X142600000Y-133000000D02*
X142600000Y-133803185D01*
X138050000Y-137075000D02*
X137900000Y-136925000D01*
X138050000Y-138275000D02*
X138050000Y-137075000D01*
X154325000Y-138325000D02*
X155575000Y-138325000D01*
%TO.N,GND*%
X149596815Y-134300000D02*
X150525000Y-134300000D01*
X149100000Y-133803185D02*
X149596815Y-134300000D01*
X149100000Y-133000000D02*
X149100000Y-133803185D01*
%TO.N,+3.3V*%
X150650000Y-133000000D02*
X151000000Y-133350000D01*
X149600000Y-133000000D02*
X150650000Y-133000000D01*
D44*
%TO.N,/USB_D+*%
X150695200Y-136520200D02*
X146200000Y-136520200D01*
X152500000Y-138325000D02*
X150695200Y-136520200D01*
%TO.N,/USB_D-*%
X145378265Y-136220200D02*
X145550000Y-136391935D01*
X141929800Y-136220200D02*
X145378265Y-136220200D01*
X139875000Y-138275000D02*
X141929800Y-136220200D01*
D42*
%TO.N,GND*%
X131475000Y-83500000D02*
X131525000Y-83550000D01*
X131475000Y-80350000D02*
X131475000Y-83500000D01*
%TO.N,+3.3V*%
X129650000Y-83600000D02*
X129725000Y-83675000D01*
X129650000Y-80350000D02*
X129650000Y-83600000D01*
X129600000Y-75475000D02*
X129600000Y-80300000D01*
X129600000Y-80300000D02*
X129650000Y-80350000D01*
%TO.N,GND*%
X131425000Y-80300000D02*
X131475000Y-80350000D01*
X131425000Y-75475000D02*
X131425000Y-80300000D01*
%TO.N,/VDDA*%
X136875000Y-73700000D02*
X136925000Y-73750000D01*
X136875000Y-70625000D02*
X136875000Y-73700000D01*
X134375000Y-102387500D02*
X134375000Y-104050000D01*
%TO.N,+3.3V*%
X136562500Y-100562500D02*
X136825000Y-100300000D01*
X134375000Y-100562500D02*
X136562500Y-100562500D01*
%TO.N,/VDDA*%
X136562500Y-102387500D02*
X134375000Y-102387500D01*
X136850000Y-102675000D02*
X136562500Y-102387500D01*
%TO.N,+3.3V*%
X136775000Y-100250000D02*
X136825000Y-100300000D01*
X136775000Y-98000000D02*
X136775000Y-100250000D01*
X136925000Y-97850000D02*
X136925000Y-93250000D01*
X136775000Y-98000000D02*
X136925000Y-97850000D01*
X136925000Y-88050000D02*
X136950000Y-88025000D01*
X136925000Y-93250000D02*
X136925000Y-88050000D01*
X136900000Y-83250000D02*
X136900000Y-87975000D01*
X136900000Y-87975000D02*
X136950000Y-88025000D01*
X136875000Y-83225000D02*
X136900000Y-83250000D01*
X136875000Y-78650000D02*
X136875000Y-83225000D01*
%TO.N,GND*%
X138750000Y-73750000D02*
X138750000Y-70475000D01*
X138700000Y-73800000D02*
X138750000Y-73750000D01*
X138700000Y-78650000D02*
X138700000Y-73800000D01*
X138725000Y-78675000D02*
X138700000Y-78650000D01*
X138725000Y-83250000D02*
X138725000Y-78675000D01*
X138775000Y-83300000D02*
X138725000Y-83250000D01*
X138775000Y-88025000D02*
X138775000Y-83300000D01*
X138750000Y-88050000D02*
X138775000Y-88025000D01*
X138750000Y-93250000D02*
X138750000Y-88050000D01*
X138750000Y-93250000D02*
X138750000Y-97850000D01*
X138750000Y-97850000D02*
X138600000Y-98000000D01*
X138675000Y-102675000D02*
X138600000Y-102600000D01*
X138600000Y-102600000D02*
X138600000Y-98000000D01*
X146600000Y-121675000D02*
X146600000Y-120200000D01*
%TO.N,/SPI_MOSI*%
X137087500Y-128087500D02*
X140187500Y-128087500D01*
X136925000Y-128250000D02*
X137087500Y-128087500D01*
%TO.N,/LED_TFTCS*%
X107685000Y-133810000D02*
X105000000Y-133810000D01*
X107975000Y-134100000D02*
X107685000Y-133810000D01*
X120487500Y-124087500D02*
X110300000Y-134275000D01*
X140187500Y-124087500D02*
X120487500Y-124087500D01*
%TO.N,/LED_DC*%
X105610863Y-136960863D02*
X105000000Y-136350000D01*
X106414137Y-136960863D02*
X105610863Y-136960863D01*
X119787500Y-123587500D02*
X106414137Y-136960863D01*
X140187500Y-123587500D02*
X119787500Y-123587500D01*
%TO.N,/I2C-SWDIO*%
X150709315Y-126587500D02*
X151512500Y-126587500D01*
X150125000Y-126003185D02*
X150709315Y-126587500D01*
X152772016Y-121024799D02*
X150125000Y-123671815D01*
X153074799Y-121024799D02*
X152772016Y-121024799D01*
X150125000Y-123671815D02*
X150125000Y-126003185D01*
X132725000Y-53900000D02*
X155425000Y-76600000D01*
X121413604Y-53900000D02*
X132725000Y-53900000D01*
X111125000Y-64188604D02*
X121413604Y-53900000D01*
X155425000Y-76600000D02*
X155425000Y-89850000D01*
X111125000Y-86305000D02*
X111125000Y-64188604D01*
X106000000Y-91430000D02*
X111125000Y-86305000D01*
%TO.N,/I2C-SWCLK*%
X149937500Y-127087500D02*
X151512500Y-127087500D01*
X149875000Y-127150000D02*
X149937500Y-127087500D01*
X154200000Y-77225000D02*
X154200000Y-90150000D01*
X131325000Y-54350000D02*
X154200000Y-77225000D01*
X121600000Y-54350000D02*
X131325000Y-54350000D01*
X111575000Y-64375000D02*
X121600000Y-54350000D01*
X111575000Y-87125000D02*
X111575000Y-64375000D01*
X106000000Y-92700000D02*
X111575000Y-87125000D01*
%TO.N,+3.3V*%
X134200000Y-118337500D02*
X134200000Y-119600000D01*
D45*
%TO.N,/reset*%
X114125000Y-112680500D02*
X113579500Y-112135000D01*
X113579500Y-112135000D02*
X104950000Y-112135000D01*
X142675000Y-112450000D02*
X142450000Y-112675000D01*
X156700000Y-112450000D02*
X142675000Y-112450000D01*
D42*
%TO.N,/SD_CMD*%
X140200000Y-129075000D02*
X140187500Y-129087500D01*
X142000000Y-129075000D02*
X140200000Y-129075000D01*
X141375000Y-71025000D02*
X141375000Y-117325000D01*
X121500000Y-57750000D02*
X121875000Y-57375000D01*
X121875000Y-57375000D02*
X127725000Y-57375000D01*
X127725000Y-57375000D02*
X141375000Y-71025000D01*
X121500000Y-58450000D02*
X121500000Y-57750000D01*
%TO.N,GND*%
X116975000Y-64150000D02*
X117025000Y-64100000D01*
X115625000Y-64150000D02*
X116975000Y-64150000D01*
X128075000Y-64150000D02*
X127950000Y-64275000D01*
X129375000Y-64150000D02*
X128075000Y-64150000D01*
%TO.N,/SPI-CLK*%
X123700000Y-100450000D02*
X116800000Y-107350000D01*
X123700000Y-58450000D02*
X123700000Y-100450000D01*
D43*
%TO.N,/SPI_MISO*%
X125796558Y-58553442D02*
X125900000Y-58450000D01*
X125796558Y-60373342D02*
X125796558Y-58553442D01*
%TO.N,/SPI_MOSI*%
X117550000Y-69750000D02*
X120400000Y-66900000D01*
X120400000Y-66900000D02*
X120400000Y-58450000D01*
D42*
%TO.N,GND*%
X116450000Y-55850000D02*
X117250000Y-55050000D01*
X115625000Y-55850000D02*
X116450000Y-55850000D01*
X128500000Y-55850000D02*
X127725000Y-55075000D01*
X129375000Y-55850000D02*
X128500000Y-55850000D01*
X124800000Y-58450000D02*
X124800000Y-60450000D01*
%TO.N,+3.3V*%
X122600000Y-60525000D02*
X122575000Y-60550000D01*
X122600000Y-58450000D02*
X122600000Y-60525000D01*
D43*
X131400000Y-130525000D02*
X131425000Y-130500000D01*
X131400000Y-131800000D02*
X131400000Y-130525000D01*
X127000000Y-132175000D02*
X127000000Y-130950000D01*
X105079099Y-91080901D02*
X104730000Y-91430000D01*
X105079099Y-90134970D02*
X105079099Y-91080901D01*
X106300000Y-87100000D02*
X106300000Y-88225000D01*
%TO.N,GND*%
X103350000Y-85275000D02*
X103350000Y-84275000D01*
X103875000Y-92279800D02*
X103875000Y-90151900D01*
X104295200Y-92700000D02*
X103875000Y-92279800D01*
X103875000Y-90151900D02*
X104101900Y-89925000D01*
X104730000Y-92700000D02*
X104295200Y-92700000D01*
X104730000Y-92700000D02*
X104730000Y-93970000D01*
%TO.N,Net-(J3-GNDDetect)*%
X103350000Y-95130000D02*
X103350000Y-87100000D01*
X104730000Y-96510000D02*
X103350000Y-95130000D01*
D42*
%TO.N,GND*%
X106780000Y-119755000D02*
X106825000Y-119800000D01*
X104950000Y-119755000D02*
X106780000Y-119755000D01*
%TO.N,+3.3V*%
X104950000Y-126140000D02*
X105000000Y-126190000D01*
X104950000Y-122295000D02*
X104950000Y-126140000D01*
%TO.N,GND*%
X107145000Y-128730000D02*
X107175000Y-128700000D01*
X105000000Y-128730000D02*
X107145000Y-128730000D01*
X127000000Y-134000000D02*
X127000000Y-135075000D01*
D43*
X132350000Y-134075000D02*
X132350000Y-135350000D01*
X132350000Y-134075000D02*
X132350000Y-134498001D01*
D42*
X141400000Y-133000000D02*
X141100000Y-133300000D01*
X142100000Y-133000000D02*
X141400000Y-133000000D01*
D43*
%TO.N,/USB_D+*%
X148607200Y-134113000D02*
X148607200Y-133849135D01*
X146200000Y-137500000D02*
X146200000Y-136520200D01*
X146200000Y-136520200D02*
X148607200Y-134113000D01*
%TO.N,/USB_D-*%
X145550000Y-137500000D02*
X145550000Y-136391935D01*
X145550000Y-136391935D02*
X148102400Y-133839535D01*
%TO.N,/reset*%
X104097600Y-111282600D02*
X104950000Y-112135000D01*
X106852400Y-105217124D02*
X104097600Y-107971924D01*
X104097600Y-107971924D02*
X104097600Y-111282600D01*
X106852400Y-97362400D02*
X106852400Y-105217124D01*
X106000000Y-96510000D02*
X106852400Y-97362400D01*
%TO.N,+3.3V*%
X107615000Y-126190000D02*
X107625000Y-126200000D01*
X105000000Y-126190000D02*
X107615000Y-126190000D01*
%TO.N,/SPI_MOSI*%
X103088000Y-130628000D02*
X105000000Y-132540000D01*
X103088000Y-117807000D02*
X103088000Y-130628000D01*
X104950000Y-115945000D02*
X103088000Y-117807000D01*
%TO.N,/SPI_MISO*%
X103592800Y-118572200D02*
X103592800Y-129862800D01*
X104950000Y-117215000D02*
X103592800Y-118572200D01*
X103592800Y-129862800D02*
X105000000Y-131270000D01*
%TO.N,/SPI-CLK*%
X104097600Y-129097600D02*
X105000000Y-130000000D01*
X104097600Y-119337400D02*
X104097600Y-129097600D01*
X104950000Y-118485000D02*
X104097600Y-119337400D01*
D42*
%TO.N,/Wifi_CS*%
X134550000Y-116162500D02*
X134200000Y-116512500D01*
X134550000Y-114675000D02*
X134550000Y-116162500D01*
X134550000Y-114675000D02*
X104950000Y-114675000D01*
X135100000Y-114675000D02*
X134550000Y-114675000D01*
%TO.N,/Wifi_TXO*%
X131325977Y-108325000D02*
X104950000Y-108325000D01*
X143600000Y-120599023D02*
X131325977Y-108325000D01*
X143600000Y-121675000D02*
X143600000Y-120599023D01*
%TO.N,/Wifi_RXI*%
X143100000Y-120735419D02*
X131959581Y-109595000D01*
X143100000Y-121675000D02*
X143100000Y-120735419D01*
%TO.N,/Wifi_BUSY*%
X135133185Y-113405000D02*
X104950000Y-113405000D01*
X142600000Y-121675000D02*
X142600000Y-120871815D01*
X142600000Y-120871815D02*
X135133185Y-113405000D01*
%TO.N,/Wifi_CS*%
X142100000Y-121675000D02*
X135100000Y-114675000D01*
%TO.N,GND*%
X147500000Y-137500000D02*
X148700000Y-137500000D01*
D43*
%TO.N,+BATT*%
X126462500Y-142937500D02*
X126400000Y-143000000D01*
X126462500Y-138200000D02*
X126462500Y-142937500D01*
X151600000Y-107800000D02*
X151800000Y-108000000D01*
X151600000Y-104800000D02*
X151600000Y-107800000D01*
D45*
%TO.N,GND*%
X158092800Y-117292800D02*
X158400000Y-117600000D01*
X158092800Y-112757200D02*
X158092800Y-117292800D01*
X158400000Y-112450000D02*
X158092800Y-112757200D01*
%TO.N,/reset*%
X157007200Y-117292800D02*
X156700000Y-117600000D01*
X157007200Y-112757200D02*
X157007200Y-117292800D01*
X156700000Y-112450000D02*
X157007200Y-112757200D01*
%TO.N,GND*%
X160150000Y-112450000D02*
X164600000Y-108000000D01*
X158400000Y-112450000D02*
X160150000Y-112450000D01*
D43*
%TO.N,+3.3V*%
X127375000Y-131800000D02*
X127000000Y-132175000D01*
%TO.N,VBUS*%
X144900000Y-137379880D02*
X144900000Y-137500000D01*
X144192720Y-136672600D02*
X144900000Y-137379880D01*
X143207280Y-136672600D02*
X144192720Y-136672600D01*
X142693600Y-137186280D02*
X143207280Y-136672600D01*
X142693600Y-137906400D02*
X142693600Y-137186280D01*
X141000000Y-139600000D02*
X142693600Y-137906400D01*
X134200000Y-139600000D02*
X141000000Y-139600000D01*
X128337500Y-139150000D02*
X128787500Y-139600000D01*
%TO.N,Net-(D2-K)*%
X133750000Y-137250000D02*
X134200000Y-136800000D01*
X128337500Y-137250000D02*
X133750000Y-137250000D01*
%TO.N,GND*%
X147500000Y-139900000D02*
X147200000Y-140200000D01*
D45*
X147200000Y-140200000D02*
X147504000Y-139896000D01*
X149100000Y-137900000D02*
X148700000Y-137500000D01*
X149100000Y-140200000D02*
X149100000Y-137900000D01*
X143300000Y-137900000D02*
X143700000Y-137500000D01*
X143300000Y-140200000D02*
X143300000Y-137900000D01*
X145200000Y-140200000D02*
X143300000Y-140200000D01*
X147200000Y-140200000D02*
X145200000Y-140200000D01*
X147200000Y-140200000D02*
X149100000Y-140200000D01*
%TD*%
M02*
