%TF.GenerationSoftware,KiCad,Pcbnew,7.0.7*%
%TF.CreationDate,2023-11-17T10:09:12-08:00*%
%TF.ProjectId,Final_Project_Sutton_Yazzolino,46696e61-6c5f-4507-926f-6a6563745f53,rev?*%
%TF.SameCoordinates,Original*%
%TF.FileFunction,Soldermask,Bot*%
%TF.FilePolarity,Negative*%
%FSLAX46Y46*%
G04 Gerber Fmt 4.6, Leading zero omitted, Abs format (unit mm)*
G04 Created by KiCad (PCBNEW 7.0.7) date 2023-11-17 10:09:12*
%MOMM*%
%LPD*%
G01*
G04 APERTURE LIST*
G04 Aperture macros list*
%AMFreePoly0*
4,1,6,1.000000,0.000000,0.500000,-0.750000,-0.500000,-0.750000,-0.500000,0.750000,0.500000,0.750000,1.000000,0.000000,1.000000,0.000000,$1*%
%AMFreePoly1*
4,1,6,0.500000,-0.750000,-0.650000,-0.750000,-0.150000,0.000000,-0.650000,0.750000,0.500000,0.750000,0.500000,-0.750000,0.500000,-0.750000,$1*%
G04 Aperture macros list end*
%ADD10R,1.000000X1.000000*%
%ADD11O,1.000000X1.000000*%
%ADD12FreePoly0,180.000000*%
%ADD13FreePoly1,180.000000*%
%ADD14C,0.750000*%
%ADD15O,1.250000X0.950000*%
%ADD16O,0.890000X1.550000*%
%ADD17C,3.500000*%
%ADD18R,3.000000X3.000000*%
%ADD19C,3.000000*%
G04 APERTURE END LIST*
D10*
%TO.C,WifiModule1*%
X104950000Y-122295000D03*
D11*
X104950000Y-121025000D03*
X104950000Y-119755000D03*
X104950000Y-118485000D03*
X104950000Y-117215000D03*
X104950000Y-115945000D03*
X104950000Y-114675000D03*
X104950000Y-113405000D03*
X104950000Y-112135000D03*
X104950000Y-110865000D03*
X104950000Y-109595000D03*
X104950000Y-108325000D03*
%TD*%
D10*
%TO.C,LEDmodule1*%
X105000000Y-126190000D03*
D11*
X105000000Y-127460000D03*
X105000000Y-128730000D03*
X105000000Y-130000000D03*
X105000000Y-131270000D03*
X105000000Y-132540000D03*
X105000000Y-133810000D03*
X105000000Y-135080000D03*
X105000000Y-136350000D03*
X105000000Y-137620000D03*
X105000000Y-138890000D03*
%TD*%
D10*
%TO.C,J3*%
X104730000Y-91430000D03*
D11*
X106000000Y-91430000D03*
X104730000Y-92700000D03*
X106000000Y-92700000D03*
X104730000Y-93970000D03*
X106000000Y-93970000D03*
X104730000Y-95240000D03*
X106000000Y-95240000D03*
X104730000Y-96510000D03*
X106000000Y-96510000D03*
X104730000Y-97780000D03*
X106000000Y-97780000D03*
X104730000Y-99050000D03*
X106000000Y-99050000D03*
X104730000Y-100320000D03*
X106000000Y-100320000D03*
X104730000Y-101590000D03*
X106000000Y-101590000D03*
X104730000Y-102860000D03*
X106000000Y-102860000D03*
%TD*%
D12*
%TO.C,JP2*%
X178050000Y-141175000D03*
D13*
X176600000Y-141175000D03*
%TD*%
D12*
%TO.C,JP1*%
X178100000Y-137325000D03*
D13*
X176650000Y-137325000D03*
%TD*%
D14*
%TO.C,SW1*%
X158925000Y-115025000D03*
X156175000Y-115025000D03*
%TD*%
D15*
%TO.C,J2*%
X148700000Y-137500000D03*
D16*
X149700000Y-140200000D03*
D15*
X143700000Y-137500000D03*
D16*
X142700000Y-140200000D03*
%TD*%
D17*
%TO.C,BT1*%
X181800000Y-81300000D03*
X151800000Y-81300000D03*
D18*
X151800000Y-108000000D03*
D19*
X164600000Y-108000000D03*
%TD*%
M02*
