%TF.GenerationSoftware,KiCad,Pcbnew,7.0.7*%
%TF.CreationDate,2023-11-17T10:09:12-08:00*%
%TF.ProjectId,Final_Project_Sutton_Yazzolino,46696e61-6c5f-4507-926f-6a6563745f53,rev?*%
%TF.SameCoordinates,Original*%
%TF.FileFunction,Legend,Bot*%
%TF.FilePolarity,Positive*%
%FSLAX46Y46*%
G04 Gerber Fmt 4.6, Leading zero omitted, Abs format (unit mm)*
G04 Created by KiCad (PCBNEW 7.0.7) date 2023-11-17 10:09:12*
%MOMM*%
%LPD*%
G01*
G04 APERTURE LIST*
%ADD10C,0.150000*%
%ADD11C,0.120000*%
G04 APERTURE END LIST*
D10*
X178158333Y-138829819D02*
X178158333Y-139544104D01*
X178158333Y-139544104D02*
X178205952Y-139686961D01*
X178205952Y-139686961D02*
X178301190Y-139782200D01*
X178301190Y-139782200D02*
X178444047Y-139829819D01*
X178444047Y-139829819D02*
X178539285Y-139829819D01*
X177682142Y-139829819D02*
X177682142Y-138829819D01*
X177682142Y-138829819D02*
X177301190Y-138829819D01*
X177301190Y-138829819D02*
X177205952Y-138877438D01*
X177205952Y-138877438D02*
X177158333Y-138925057D01*
X177158333Y-138925057D02*
X177110714Y-139020295D01*
X177110714Y-139020295D02*
X177110714Y-139163152D01*
X177110714Y-139163152D02*
X177158333Y-139258390D01*
X177158333Y-139258390D02*
X177205952Y-139306009D01*
X177205952Y-139306009D02*
X177301190Y-139353628D01*
X177301190Y-139353628D02*
X177682142Y-139353628D01*
X176729761Y-138925057D02*
X176682142Y-138877438D01*
X176682142Y-138877438D02*
X176586904Y-138829819D01*
X176586904Y-138829819D02*
X176348809Y-138829819D01*
X176348809Y-138829819D02*
X176253571Y-138877438D01*
X176253571Y-138877438D02*
X176205952Y-138925057D01*
X176205952Y-138925057D02*
X176158333Y-139020295D01*
X176158333Y-139020295D02*
X176158333Y-139115533D01*
X176158333Y-139115533D02*
X176205952Y-139258390D01*
X176205952Y-139258390D02*
X176777380Y-139829819D01*
X176777380Y-139829819D02*
X176158333Y-139829819D01*
X178208333Y-134979819D02*
X178208333Y-135694104D01*
X178208333Y-135694104D02*
X178255952Y-135836961D01*
X178255952Y-135836961D02*
X178351190Y-135932200D01*
X178351190Y-135932200D02*
X178494047Y-135979819D01*
X178494047Y-135979819D02*
X178589285Y-135979819D01*
X177732142Y-135979819D02*
X177732142Y-134979819D01*
X177732142Y-134979819D02*
X177351190Y-134979819D01*
X177351190Y-134979819D02*
X177255952Y-135027438D01*
X177255952Y-135027438D02*
X177208333Y-135075057D01*
X177208333Y-135075057D02*
X177160714Y-135170295D01*
X177160714Y-135170295D02*
X177160714Y-135313152D01*
X177160714Y-135313152D02*
X177208333Y-135408390D01*
X177208333Y-135408390D02*
X177255952Y-135456009D01*
X177255952Y-135456009D02*
X177351190Y-135503628D01*
X177351190Y-135503628D02*
X177732142Y-135503628D01*
X176208333Y-135979819D02*
X176779761Y-135979819D01*
X176494047Y-135979819D02*
X176494047Y-134979819D01*
X176494047Y-134979819D02*
X176589285Y-135122676D01*
X176589285Y-135122676D02*
X176684523Y-135217914D01*
X176684523Y-135217914D02*
X176779761Y-135265533D01*
D11*
%TO.C,JP2*%
X178725000Y-142175000D02*
X178725000Y-140175000D01*
X175925000Y-142175000D02*
X178725000Y-142175000D01*
X175925000Y-140175000D02*
X175925000Y-142175000D01*
X178725000Y-140175000D02*
X175925000Y-140175000D01*
%TO.C,JP1*%
X178775000Y-138325000D02*
X178775000Y-136325000D01*
X175975000Y-138325000D02*
X178775000Y-138325000D01*
X175975000Y-136325000D02*
X175975000Y-138325000D01*
X178775000Y-136325000D02*
X175975000Y-136325000D01*
%TD*%
M02*
