%TF.GenerationSoftware,KiCad,Pcbnew,7.0.7*%
%TF.CreationDate,2023-11-17T10:09:12-08:00*%
%TF.ProjectId,Final_Project_Sutton_Yazzolino,46696e61-6c5f-4507-926f-6a6563745f53,rev?*%
%TF.SameCoordinates,Original*%
%TF.FileFunction,Legend,Top*%
%TF.FilePolarity,Positive*%
%FSLAX46Y46*%
G04 Gerber Fmt 4.6, Leading zero omitted, Abs format (unit mm)*
G04 Created by KiCad (PCBNEW 7.0.7) date 2023-11-17 10:09:12*
%MOMM*%
%LPD*%
G01*
G04 APERTURE LIST*
%ADD10C,0.150000*%
%ADD11C,0.120000*%
G04 APERTURE END LIST*
D10*
X131794642Y-125554819D02*
X131461309Y-125078628D01*
X131223214Y-125554819D02*
X131223214Y-124554819D01*
X131223214Y-124554819D02*
X131604166Y-124554819D01*
X131604166Y-124554819D02*
X131699404Y-124602438D01*
X131699404Y-124602438D02*
X131747023Y-124650057D01*
X131747023Y-124650057D02*
X131794642Y-124745295D01*
X131794642Y-124745295D02*
X131794642Y-124888152D01*
X131794642Y-124888152D02*
X131747023Y-124983390D01*
X131747023Y-124983390D02*
X131699404Y-125031009D01*
X131699404Y-125031009D02*
X131604166Y-125078628D01*
X131604166Y-125078628D02*
X131223214Y-125078628D01*
X132747023Y-125554819D02*
X132175595Y-125554819D01*
X132461309Y-125554819D02*
X132461309Y-124554819D01*
X132461309Y-124554819D02*
X132366071Y-124697676D01*
X132366071Y-124697676D02*
X132270833Y-124792914D01*
X132270833Y-124792914D02*
X132175595Y-124840533D01*
X133366071Y-124554819D02*
X133461309Y-124554819D01*
X133461309Y-124554819D02*
X133556547Y-124602438D01*
X133556547Y-124602438D02*
X133604166Y-124650057D01*
X133604166Y-124650057D02*
X133651785Y-124745295D01*
X133651785Y-124745295D02*
X133699404Y-124935771D01*
X133699404Y-124935771D02*
X133699404Y-125173866D01*
X133699404Y-125173866D02*
X133651785Y-125364342D01*
X133651785Y-125364342D02*
X133604166Y-125459580D01*
X133604166Y-125459580D02*
X133556547Y-125507200D01*
X133556547Y-125507200D02*
X133461309Y-125554819D01*
X133461309Y-125554819D02*
X133366071Y-125554819D01*
X133366071Y-125554819D02*
X133270833Y-125507200D01*
X133270833Y-125507200D02*
X133223214Y-125459580D01*
X133223214Y-125459580D02*
X133175595Y-125364342D01*
X133175595Y-125364342D02*
X133127976Y-125173866D01*
X133127976Y-125173866D02*
X133127976Y-124935771D01*
X133127976Y-124935771D02*
X133175595Y-124745295D01*
X133175595Y-124745295D02*
X133223214Y-124650057D01*
X133223214Y-124650057D02*
X133270833Y-124602438D01*
X133270833Y-124602438D02*
X133366071Y-124554819D01*
X138319642Y-140379819D02*
X137986309Y-139903628D01*
X137748214Y-140379819D02*
X137748214Y-139379819D01*
X137748214Y-139379819D02*
X138129166Y-139379819D01*
X138129166Y-139379819D02*
X138224404Y-139427438D01*
X138224404Y-139427438D02*
X138272023Y-139475057D01*
X138272023Y-139475057D02*
X138319642Y-139570295D01*
X138319642Y-139570295D02*
X138319642Y-139713152D01*
X138319642Y-139713152D02*
X138272023Y-139808390D01*
X138272023Y-139808390D02*
X138224404Y-139856009D01*
X138224404Y-139856009D02*
X138129166Y-139903628D01*
X138129166Y-139903628D02*
X137748214Y-139903628D01*
X138700595Y-139475057D02*
X138748214Y-139427438D01*
X138748214Y-139427438D02*
X138843452Y-139379819D01*
X138843452Y-139379819D02*
X139081547Y-139379819D01*
X139081547Y-139379819D02*
X139176785Y-139427438D01*
X139176785Y-139427438D02*
X139224404Y-139475057D01*
X139224404Y-139475057D02*
X139272023Y-139570295D01*
X139272023Y-139570295D02*
X139272023Y-139665533D01*
X139272023Y-139665533D02*
X139224404Y-139808390D01*
X139224404Y-139808390D02*
X138652976Y-140379819D01*
X138652976Y-140379819D02*
X139272023Y-140379819D01*
X139652976Y-139475057D02*
X139700595Y-139427438D01*
X139700595Y-139427438D02*
X139795833Y-139379819D01*
X139795833Y-139379819D02*
X140033928Y-139379819D01*
X140033928Y-139379819D02*
X140129166Y-139427438D01*
X140129166Y-139427438D02*
X140176785Y-139475057D01*
X140176785Y-139475057D02*
X140224404Y-139570295D01*
X140224404Y-139570295D02*
X140224404Y-139665533D01*
X140224404Y-139665533D02*
X140176785Y-139808390D01*
X140176785Y-139808390D02*
X139605357Y-140379819D01*
X139605357Y-140379819D02*
X140224404Y-140379819D01*
X152769642Y-137129819D02*
X152436309Y-136653628D01*
X152198214Y-137129819D02*
X152198214Y-136129819D01*
X152198214Y-136129819D02*
X152579166Y-136129819D01*
X152579166Y-136129819D02*
X152674404Y-136177438D01*
X152674404Y-136177438D02*
X152722023Y-136225057D01*
X152722023Y-136225057D02*
X152769642Y-136320295D01*
X152769642Y-136320295D02*
X152769642Y-136463152D01*
X152769642Y-136463152D02*
X152722023Y-136558390D01*
X152722023Y-136558390D02*
X152674404Y-136606009D01*
X152674404Y-136606009D02*
X152579166Y-136653628D01*
X152579166Y-136653628D02*
X152198214Y-136653628D01*
X153150595Y-136225057D02*
X153198214Y-136177438D01*
X153198214Y-136177438D02*
X153293452Y-136129819D01*
X153293452Y-136129819D02*
X153531547Y-136129819D01*
X153531547Y-136129819D02*
X153626785Y-136177438D01*
X153626785Y-136177438D02*
X153674404Y-136225057D01*
X153674404Y-136225057D02*
X153722023Y-136320295D01*
X153722023Y-136320295D02*
X153722023Y-136415533D01*
X153722023Y-136415533D02*
X153674404Y-136558390D01*
X153674404Y-136558390D02*
X153102976Y-137129819D01*
X153102976Y-137129819D02*
X153722023Y-137129819D01*
X154674404Y-137129819D02*
X154102976Y-137129819D01*
X154388690Y-137129819D02*
X154388690Y-136129819D01*
X154388690Y-136129819D02*
X154293452Y-136272676D01*
X154293452Y-136272676D02*
X154198214Y-136367914D01*
X154198214Y-136367914D02*
X154102976Y-136415533D01*
X106879819Y-122235713D02*
X107879819Y-121997618D01*
X107879819Y-121997618D02*
X107165533Y-121807142D01*
X107165533Y-121807142D02*
X107879819Y-121616666D01*
X107879819Y-121616666D02*
X106879819Y-121378571D01*
X107879819Y-120997618D02*
X107213152Y-120997618D01*
X106879819Y-120997618D02*
X106927438Y-121045237D01*
X106927438Y-121045237D02*
X106975057Y-120997618D01*
X106975057Y-120997618D02*
X106927438Y-120949999D01*
X106927438Y-120949999D02*
X106879819Y-120997618D01*
X106879819Y-120997618D02*
X106975057Y-120997618D01*
X107213152Y-120664285D02*
X107213152Y-120283333D01*
X107879819Y-120521428D02*
X107022676Y-120521428D01*
X107022676Y-120521428D02*
X106927438Y-120473809D01*
X106927438Y-120473809D02*
X106879819Y-120378571D01*
X106879819Y-120378571D02*
X106879819Y-120283333D01*
X107879819Y-119949999D02*
X107213152Y-119949999D01*
X106879819Y-119949999D02*
X106927438Y-119997618D01*
X106927438Y-119997618D02*
X106975057Y-119949999D01*
X106975057Y-119949999D02*
X106927438Y-119902380D01*
X106927438Y-119902380D02*
X106879819Y-119949999D01*
X106879819Y-119949999D02*
X106975057Y-119949999D01*
X107879819Y-119473809D02*
X106879819Y-119473809D01*
X106879819Y-119473809D02*
X107594104Y-119140476D01*
X107594104Y-119140476D02*
X106879819Y-118807143D01*
X106879819Y-118807143D02*
X107879819Y-118807143D01*
X107879819Y-118188095D02*
X107832200Y-118283333D01*
X107832200Y-118283333D02*
X107784580Y-118330952D01*
X107784580Y-118330952D02*
X107689342Y-118378571D01*
X107689342Y-118378571D02*
X107403628Y-118378571D01*
X107403628Y-118378571D02*
X107308390Y-118330952D01*
X107308390Y-118330952D02*
X107260771Y-118283333D01*
X107260771Y-118283333D02*
X107213152Y-118188095D01*
X107213152Y-118188095D02*
X107213152Y-118045238D01*
X107213152Y-118045238D02*
X107260771Y-117950000D01*
X107260771Y-117950000D02*
X107308390Y-117902381D01*
X107308390Y-117902381D02*
X107403628Y-117854762D01*
X107403628Y-117854762D02*
X107689342Y-117854762D01*
X107689342Y-117854762D02*
X107784580Y-117902381D01*
X107784580Y-117902381D02*
X107832200Y-117950000D01*
X107832200Y-117950000D02*
X107879819Y-118045238D01*
X107879819Y-118045238D02*
X107879819Y-118188095D01*
X107879819Y-116997619D02*
X106879819Y-116997619D01*
X107832200Y-116997619D02*
X107879819Y-117092857D01*
X107879819Y-117092857D02*
X107879819Y-117283333D01*
X107879819Y-117283333D02*
X107832200Y-117378571D01*
X107832200Y-117378571D02*
X107784580Y-117426190D01*
X107784580Y-117426190D02*
X107689342Y-117473809D01*
X107689342Y-117473809D02*
X107403628Y-117473809D01*
X107403628Y-117473809D02*
X107308390Y-117426190D01*
X107308390Y-117426190D02*
X107260771Y-117378571D01*
X107260771Y-117378571D02*
X107213152Y-117283333D01*
X107213152Y-117283333D02*
X107213152Y-117092857D01*
X107213152Y-117092857D02*
X107260771Y-116997619D01*
X107213152Y-116092857D02*
X107879819Y-116092857D01*
X107213152Y-116521428D02*
X107736961Y-116521428D01*
X107736961Y-116521428D02*
X107832200Y-116473809D01*
X107832200Y-116473809D02*
X107879819Y-116378571D01*
X107879819Y-116378571D02*
X107879819Y-116235714D01*
X107879819Y-116235714D02*
X107832200Y-116140476D01*
X107832200Y-116140476D02*
X107784580Y-116092857D01*
X107879819Y-115473809D02*
X107832200Y-115569047D01*
X107832200Y-115569047D02*
X107736961Y-115616666D01*
X107736961Y-115616666D02*
X106879819Y-115616666D01*
X107832200Y-114711904D02*
X107879819Y-114807142D01*
X107879819Y-114807142D02*
X107879819Y-114997618D01*
X107879819Y-114997618D02*
X107832200Y-115092856D01*
X107832200Y-115092856D02*
X107736961Y-115140475D01*
X107736961Y-115140475D02*
X107356009Y-115140475D01*
X107356009Y-115140475D02*
X107260771Y-115092856D01*
X107260771Y-115092856D02*
X107213152Y-114997618D01*
X107213152Y-114997618D02*
X107213152Y-114807142D01*
X107213152Y-114807142D02*
X107260771Y-114711904D01*
X107260771Y-114711904D02*
X107356009Y-114664285D01*
X107356009Y-114664285D02*
X107451247Y-114664285D01*
X107451247Y-114664285D02*
X107546485Y-115140475D01*
X107879819Y-113711904D02*
X107879819Y-114283332D01*
X107879819Y-113997618D02*
X106879819Y-113997618D01*
X106879819Y-113997618D02*
X107022676Y-114092856D01*
X107022676Y-114092856D02*
X107117914Y-114188094D01*
X107117914Y-114188094D02*
X107165533Y-114283332D01*
X168319642Y-130404819D02*
X167986309Y-129928628D01*
X167748214Y-130404819D02*
X167748214Y-129404819D01*
X167748214Y-129404819D02*
X168129166Y-129404819D01*
X168129166Y-129404819D02*
X168224404Y-129452438D01*
X168224404Y-129452438D02*
X168272023Y-129500057D01*
X168272023Y-129500057D02*
X168319642Y-129595295D01*
X168319642Y-129595295D02*
X168319642Y-129738152D01*
X168319642Y-129738152D02*
X168272023Y-129833390D01*
X168272023Y-129833390D02*
X168224404Y-129881009D01*
X168224404Y-129881009D02*
X168129166Y-129928628D01*
X168129166Y-129928628D02*
X167748214Y-129928628D01*
X169272023Y-130404819D02*
X168700595Y-130404819D01*
X168986309Y-130404819D02*
X168986309Y-129404819D01*
X168986309Y-129404819D02*
X168891071Y-129547676D01*
X168891071Y-129547676D02*
X168795833Y-129642914D01*
X168795833Y-129642914D02*
X168700595Y-129690533D01*
X169605357Y-129404819D02*
X170224404Y-129404819D01*
X170224404Y-129404819D02*
X169891071Y-129785771D01*
X169891071Y-129785771D02*
X170033928Y-129785771D01*
X170033928Y-129785771D02*
X170129166Y-129833390D01*
X170129166Y-129833390D02*
X170176785Y-129881009D01*
X170176785Y-129881009D02*
X170224404Y-129976247D01*
X170224404Y-129976247D02*
X170224404Y-130214342D01*
X170224404Y-130214342D02*
X170176785Y-130309580D01*
X170176785Y-130309580D02*
X170129166Y-130357200D01*
X170129166Y-130357200D02*
X170033928Y-130404819D01*
X170033928Y-130404819D02*
X169748214Y-130404819D01*
X169748214Y-130404819D02*
X169652976Y-130357200D01*
X169652976Y-130357200D02*
X169605357Y-130309580D01*
X105104819Y-86830357D02*
X104628628Y-87163690D01*
X105104819Y-87401785D02*
X104104819Y-87401785D01*
X104104819Y-87401785D02*
X104104819Y-87020833D01*
X104104819Y-87020833D02*
X104152438Y-86925595D01*
X104152438Y-86925595D02*
X104200057Y-86877976D01*
X104200057Y-86877976D02*
X104295295Y-86830357D01*
X104295295Y-86830357D02*
X104438152Y-86830357D01*
X104438152Y-86830357D02*
X104533390Y-86877976D01*
X104533390Y-86877976D02*
X104581009Y-86925595D01*
X104581009Y-86925595D02*
X104628628Y-87020833D01*
X104628628Y-87020833D02*
X104628628Y-87401785D01*
X105104819Y-85877976D02*
X105104819Y-86449404D01*
X105104819Y-86163690D02*
X104104819Y-86163690D01*
X104104819Y-86163690D02*
X104247676Y-86258928D01*
X104247676Y-86258928D02*
X104342914Y-86354166D01*
X104342914Y-86354166D02*
X104390533Y-86449404D01*
X105104819Y-84925595D02*
X105104819Y-85497023D01*
X105104819Y-85211309D02*
X104104819Y-85211309D01*
X104104819Y-85211309D02*
X104247676Y-85306547D01*
X104247676Y-85306547D02*
X104342914Y-85401785D01*
X104342914Y-85401785D02*
X104390533Y-85497023D01*
X102154819Y-86354166D02*
X101678628Y-86687499D01*
X102154819Y-86925594D02*
X101154819Y-86925594D01*
X101154819Y-86925594D02*
X101154819Y-86544642D01*
X101154819Y-86544642D02*
X101202438Y-86449404D01*
X101202438Y-86449404D02*
X101250057Y-86401785D01*
X101250057Y-86401785D02*
X101345295Y-86354166D01*
X101345295Y-86354166D02*
X101488152Y-86354166D01*
X101488152Y-86354166D02*
X101583390Y-86401785D01*
X101583390Y-86401785D02*
X101631009Y-86449404D01*
X101631009Y-86449404D02*
X101678628Y-86544642D01*
X101678628Y-86544642D02*
X101678628Y-86925594D01*
X101154819Y-86020832D02*
X101154819Y-85354166D01*
X101154819Y-85354166D02*
X102154819Y-85782737D01*
X164145833Y-132229819D02*
X163812500Y-131753628D01*
X163574405Y-132229819D02*
X163574405Y-131229819D01*
X163574405Y-131229819D02*
X163955357Y-131229819D01*
X163955357Y-131229819D02*
X164050595Y-131277438D01*
X164050595Y-131277438D02*
X164098214Y-131325057D01*
X164098214Y-131325057D02*
X164145833Y-131420295D01*
X164145833Y-131420295D02*
X164145833Y-131563152D01*
X164145833Y-131563152D02*
X164098214Y-131658390D01*
X164098214Y-131658390D02*
X164050595Y-131706009D01*
X164050595Y-131706009D02*
X163955357Y-131753628D01*
X163955357Y-131753628D02*
X163574405Y-131753628D01*
X165050595Y-131229819D02*
X164574405Y-131229819D01*
X164574405Y-131229819D02*
X164526786Y-131706009D01*
X164526786Y-131706009D02*
X164574405Y-131658390D01*
X164574405Y-131658390D02*
X164669643Y-131610771D01*
X164669643Y-131610771D02*
X164907738Y-131610771D01*
X164907738Y-131610771D02*
X165002976Y-131658390D01*
X165002976Y-131658390D02*
X165050595Y-131706009D01*
X165050595Y-131706009D02*
X165098214Y-131801247D01*
X165098214Y-131801247D02*
X165098214Y-132039342D01*
X165098214Y-132039342D02*
X165050595Y-132134580D01*
X165050595Y-132134580D02*
X165002976Y-132182200D01*
X165002976Y-132182200D02*
X164907738Y-132229819D01*
X164907738Y-132229819D02*
X164669643Y-132229819D01*
X164669643Y-132229819D02*
X164574405Y-132182200D01*
X164574405Y-132182200D02*
X164526786Y-132134580D01*
X108129819Y-136608333D02*
X108129819Y-137084523D01*
X108129819Y-137084523D02*
X107129819Y-137084523D01*
X107606009Y-136274999D02*
X107606009Y-135941666D01*
X108129819Y-135798809D02*
X108129819Y-136274999D01*
X108129819Y-136274999D02*
X107129819Y-136274999D01*
X107129819Y-136274999D02*
X107129819Y-135798809D01*
X108129819Y-135370237D02*
X107129819Y-135370237D01*
X107129819Y-135370237D02*
X107129819Y-135132142D01*
X107129819Y-135132142D02*
X107177438Y-134989285D01*
X107177438Y-134989285D02*
X107272676Y-134894047D01*
X107272676Y-134894047D02*
X107367914Y-134846428D01*
X107367914Y-134846428D02*
X107558390Y-134798809D01*
X107558390Y-134798809D02*
X107701247Y-134798809D01*
X107701247Y-134798809D02*
X107891723Y-134846428D01*
X107891723Y-134846428D02*
X107986961Y-134894047D01*
X107986961Y-134894047D02*
X108082200Y-134989285D01*
X108082200Y-134989285D02*
X108129819Y-135132142D01*
X108129819Y-135132142D02*
X108129819Y-135370237D01*
X108129819Y-134370237D02*
X107463152Y-134370237D01*
X107558390Y-134370237D02*
X107510771Y-134322618D01*
X107510771Y-134322618D02*
X107463152Y-134227380D01*
X107463152Y-134227380D02*
X107463152Y-134084523D01*
X107463152Y-134084523D02*
X107510771Y-133989285D01*
X107510771Y-133989285D02*
X107606009Y-133941666D01*
X107606009Y-133941666D02*
X108129819Y-133941666D01*
X107606009Y-133941666D02*
X107510771Y-133894047D01*
X107510771Y-133894047D02*
X107463152Y-133798809D01*
X107463152Y-133798809D02*
X107463152Y-133655952D01*
X107463152Y-133655952D02*
X107510771Y-133560713D01*
X107510771Y-133560713D02*
X107606009Y-133513094D01*
X107606009Y-133513094D02*
X108129819Y-133513094D01*
X108129819Y-132894047D02*
X108082200Y-132989285D01*
X108082200Y-132989285D02*
X108034580Y-133036904D01*
X108034580Y-133036904D02*
X107939342Y-133084523D01*
X107939342Y-133084523D02*
X107653628Y-133084523D01*
X107653628Y-133084523D02*
X107558390Y-133036904D01*
X107558390Y-133036904D02*
X107510771Y-132989285D01*
X107510771Y-132989285D02*
X107463152Y-132894047D01*
X107463152Y-132894047D02*
X107463152Y-132751190D01*
X107463152Y-132751190D02*
X107510771Y-132655952D01*
X107510771Y-132655952D02*
X107558390Y-132608333D01*
X107558390Y-132608333D02*
X107653628Y-132560714D01*
X107653628Y-132560714D02*
X107939342Y-132560714D01*
X107939342Y-132560714D02*
X108034580Y-132608333D01*
X108034580Y-132608333D02*
X108082200Y-132655952D01*
X108082200Y-132655952D02*
X108129819Y-132751190D01*
X108129819Y-132751190D02*
X108129819Y-132894047D01*
X108129819Y-131703571D02*
X107129819Y-131703571D01*
X108082200Y-131703571D02*
X108129819Y-131798809D01*
X108129819Y-131798809D02*
X108129819Y-131989285D01*
X108129819Y-131989285D02*
X108082200Y-132084523D01*
X108082200Y-132084523D02*
X108034580Y-132132142D01*
X108034580Y-132132142D02*
X107939342Y-132179761D01*
X107939342Y-132179761D02*
X107653628Y-132179761D01*
X107653628Y-132179761D02*
X107558390Y-132132142D01*
X107558390Y-132132142D02*
X107510771Y-132084523D01*
X107510771Y-132084523D02*
X107463152Y-131989285D01*
X107463152Y-131989285D02*
X107463152Y-131798809D01*
X107463152Y-131798809D02*
X107510771Y-131703571D01*
X107463152Y-130798809D02*
X108129819Y-130798809D01*
X107463152Y-131227380D02*
X107986961Y-131227380D01*
X107986961Y-131227380D02*
X108082200Y-131179761D01*
X108082200Y-131179761D02*
X108129819Y-131084523D01*
X108129819Y-131084523D02*
X108129819Y-130941666D01*
X108129819Y-130941666D02*
X108082200Y-130846428D01*
X108082200Y-130846428D02*
X108034580Y-130798809D01*
X108129819Y-130179761D02*
X108082200Y-130274999D01*
X108082200Y-130274999D02*
X107986961Y-130322618D01*
X107986961Y-130322618D02*
X107129819Y-130322618D01*
X108082200Y-129417856D02*
X108129819Y-129513094D01*
X108129819Y-129513094D02*
X108129819Y-129703570D01*
X108129819Y-129703570D02*
X108082200Y-129798808D01*
X108082200Y-129798808D02*
X107986961Y-129846427D01*
X107986961Y-129846427D02*
X107606009Y-129846427D01*
X107606009Y-129846427D02*
X107510771Y-129798808D01*
X107510771Y-129798808D02*
X107463152Y-129703570D01*
X107463152Y-129703570D02*
X107463152Y-129513094D01*
X107463152Y-129513094D02*
X107510771Y-129417856D01*
X107510771Y-129417856D02*
X107606009Y-129370237D01*
X107606009Y-129370237D02*
X107701247Y-129370237D01*
X107701247Y-129370237D02*
X107796485Y-129846427D01*
X108129819Y-128417856D02*
X108129819Y-128989284D01*
X108129819Y-128703570D02*
X107129819Y-128703570D01*
X107129819Y-128703570D02*
X107272676Y-128798808D01*
X107272676Y-128798808D02*
X107367914Y-128894046D01*
X107367914Y-128894046D02*
X107415533Y-128989284D01*
X105031666Y-89189819D02*
X105031666Y-89904104D01*
X105031666Y-89904104D02*
X104984047Y-90046961D01*
X104984047Y-90046961D02*
X104888809Y-90142200D01*
X104888809Y-90142200D02*
X104745952Y-90189819D01*
X104745952Y-90189819D02*
X104650714Y-90189819D01*
X105412619Y-89189819D02*
X106031666Y-89189819D01*
X106031666Y-89189819D02*
X105698333Y-89570771D01*
X105698333Y-89570771D02*
X105841190Y-89570771D01*
X105841190Y-89570771D02*
X105936428Y-89618390D01*
X105936428Y-89618390D02*
X105984047Y-89666009D01*
X105984047Y-89666009D02*
X106031666Y-89761247D01*
X106031666Y-89761247D02*
X106031666Y-89999342D01*
X106031666Y-89999342D02*
X105984047Y-90094580D01*
X105984047Y-90094580D02*
X105936428Y-90142200D01*
X105936428Y-90142200D02*
X105841190Y-90189819D01*
X105841190Y-90189819D02*
X105555476Y-90189819D01*
X105555476Y-90189819D02*
X105460238Y-90142200D01*
X105460238Y-90142200D02*
X105412619Y-90094580D01*
X191383333Y-128584580D02*
X191335714Y-128632200D01*
X191335714Y-128632200D02*
X191192857Y-128679819D01*
X191192857Y-128679819D02*
X191097619Y-128679819D01*
X191097619Y-128679819D02*
X190954762Y-128632200D01*
X190954762Y-128632200D02*
X190859524Y-128536961D01*
X190859524Y-128536961D02*
X190811905Y-128441723D01*
X190811905Y-128441723D02*
X190764286Y-128251247D01*
X190764286Y-128251247D02*
X190764286Y-128108390D01*
X190764286Y-128108390D02*
X190811905Y-127917914D01*
X190811905Y-127917914D02*
X190859524Y-127822676D01*
X190859524Y-127822676D02*
X190954762Y-127727438D01*
X190954762Y-127727438D02*
X191097619Y-127679819D01*
X191097619Y-127679819D02*
X191192857Y-127679819D01*
X191192857Y-127679819D02*
X191335714Y-127727438D01*
X191335714Y-127727438D02*
X191383333Y-127775057D01*
X191716667Y-127679819D02*
X192383333Y-127679819D01*
X192383333Y-127679819D02*
X191954762Y-128679819D01*
X177583333Y-117684580D02*
X177535714Y-117732200D01*
X177535714Y-117732200D02*
X177392857Y-117779819D01*
X177392857Y-117779819D02*
X177297619Y-117779819D01*
X177297619Y-117779819D02*
X177154762Y-117732200D01*
X177154762Y-117732200D02*
X177059524Y-117636961D01*
X177059524Y-117636961D02*
X177011905Y-117541723D01*
X177011905Y-117541723D02*
X176964286Y-117351247D01*
X176964286Y-117351247D02*
X176964286Y-117208390D01*
X176964286Y-117208390D02*
X177011905Y-117017914D01*
X177011905Y-117017914D02*
X177059524Y-116922676D01*
X177059524Y-116922676D02*
X177154762Y-116827438D01*
X177154762Y-116827438D02*
X177297619Y-116779819D01*
X177297619Y-116779819D02*
X177392857Y-116779819D01*
X177392857Y-116779819D02*
X177535714Y-116827438D01*
X177535714Y-116827438D02*
X177583333Y-116875057D01*
X178488095Y-116779819D02*
X178011905Y-116779819D01*
X178011905Y-116779819D02*
X177964286Y-117256009D01*
X177964286Y-117256009D02*
X178011905Y-117208390D01*
X178011905Y-117208390D02*
X178107143Y-117160771D01*
X178107143Y-117160771D02*
X178345238Y-117160771D01*
X178345238Y-117160771D02*
X178440476Y-117208390D01*
X178440476Y-117208390D02*
X178488095Y-117256009D01*
X178488095Y-117256009D02*
X178535714Y-117351247D01*
X178535714Y-117351247D02*
X178535714Y-117589342D01*
X178535714Y-117589342D02*
X178488095Y-117684580D01*
X178488095Y-117684580D02*
X178440476Y-117732200D01*
X178440476Y-117732200D02*
X178345238Y-117779819D01*
X178345238Y-117779819D02*
X178107143Y-117779819D01*
X178107143Y-117779819D02*
X178011905Y-117732200D01*
X178011905Y-117732200D02*
X177964286Y-117684580D01*
X192559580Y-119691666D02*
X192607200Y-119739285D01*
X192607200Y-119739285D02*
X192654819Y-119882142D01*
X192654819Y-119882142D02*
X192654819Y-119977380D01*
X192654819Y-119977380D02*
X192607200Y-120120237D01*
X192607200Y-120120237D02*
X192511961Y-120215475D01*
X192511961Y-120215475D02*
X192416723Y-120263094D01*
X192416723Y-120263094D02*
X192226247Y-120310713D01*
X192226247Y-120310713D02*
X192083390Y-120310713D01*
X192083390Y-120310713D02*
X191892914Y-120263094D01*
X191892914Y-120263094D02*
X191797676Y-120215475D01*
X191797676Y-120215475D02*
X191702438Y-120120237D01*
X191702438Y-120120237D02*
X191654819Y-119977380D01*
X191654819Y-119977380D02*
X191654819Y-119882142D01*
X191654819Y-119882142D02*
X191702438Y-119739285D01*
X191702438Y-119739285D02*
X191750057Y-119691666D01*
X191654819Y-119358332D02*
X191654819Y-118739285D01*
X191654819Y-118739285D02*
X192035771Y-119072618D01*
X192035771Y-119072618D02*
X192035771Y-118929761D01*
X192035771Y-118929761D02*
X192083390Y-118834523D01*
X192083390Y-118834523D02*
X192131009Y-118786904D01*
X192131009Y-118786904D02*
X192226247Y-118739285D01*
X192226247Y-118739285D02*
X192464342Y-118739285D01*
X192464342Y-118739285D02*
X192559580Y-118786904D01*
X192559580Y-118786904D02*
X192607200Y-118834523D01*
X192607200Y-118834523D02*
X192654819Y-118929761D01*
X192654819Y-118929761D02*
X192654819Y-119215475D01*
X192654819Y-119215475D02*
X192607200Y-119310713D01*
X192607200Y-119310713D02*
X192559580Y-119358332D01*
X129958333Y-85134580D02*
X129910714Y-85182200D01*
X129910714Y-85182200D02*
X129767857Y-85229819D01*
X129767857Y-85229819D02*
X129672619Y-85229819D01*
X129672619Y-85229819D02*
X129529762Y-85182200D01*
X129529762Y-85182200D02*
X129434524Y-85086961D01*
X129434524Y-85086961D02*
X129386905Y-84991723D01*
X129386905Y-84991723D02*
X129339286Y-84801247D01*
X129339286Y-84801247D02*
X129339286Y-84658390D01*
X129339286Y-84658390D02*
X129386905Y-84467914D01*
X129386905Y-84467914D02*
X129434524Y-84372676D01*
X129434524Y-84372676D02*
X129529762Y-84277438D01*
X129529762Y-84277438D02*
X129672619Y-84229819D01*
X129672619Y-84229819D02*
X129767857Y-84229819D01*
X129767857Y-84229819D02*
X129910714Y-84277438D01*
X129910714Y-84277438D02*
X129958333Y-84325057D01*
X130910714Y-85229819D02*
X130339286Y-85229819D01*
X130625000Y-85229819D02*
X130625000Y-84229819D01*
X130625000Y-84229819D02*
X130529762Y-84372676D01*
X130529762Y-84372676D02*
X130434524Y-84467914D01*
X130434524Y-84467914D02*
X130339286Y-84515533D01*
X150848809Y-118378628D02*
X150848809Y-118854819D01*
X150515476Y-117854819D02*
X150848809Y-118378628D01*
X150848809Y-118378628D02*
X151182142Y-117854819D01*
X152039285Y-118854819D02*
X151467857Y-118854819D01*
X151753571Y-118854819D02*
X151753571Y-117854819D01*
X151753571Y-117854819D02*
X151658333Y-117997676D01*
X151658333Y-117997676D02*
X151563095Y-118092914D01*
X151563095Y-118092914D02*
X151467857Y-118140533D01*
X129404819Y-133699404D02*
X130214342Y-133699404D01*
X130214342Y-133699404D02*
X130309580Y-133651785D01*
X130309580Y-133651785D02*
X130357200Y-133604166D01*
X130357200Y-133604166D02*
X130404819Y-133508928D01*
X130404819Y-133508928D02*
X130404819Y-133318452D01*
X130404819Y-133318452D02*
X130357200Y-133223214D01*
X130357200Y-133223214D02*
X130309580Y-133175595D01*
X130309580Y-133175595D02*
X130214342Y-133127976D01*
X130214342Y-133127976D02*
X129404819Y-133127976D01*
X129738152Y-132223214D02*
X130404819Y-132223214D01*
X129357200Y-132461309D02*
X130071485Y-132699404D01*
X130071485Y-132699404D02*
X130071485Y-132080357D01*
X162457200Y-116358332D02*
X162504819Y-116215475D01*
X162504819Y-116215475D02*
X162504819Y-115977380D01*
X162504819Y-115977380D02*
X162457200Y-115882142D01*
X162457200Y-115882142D02*
X162409580Y-115834523D01*
X162409580Y-115834523D02*
X162314342Y-115786904D01*
X162314342Y-115786904D02*
X162219104Y-115786904D01*
X162219104Y-115786904D02*
X162123866Y-115834523D01*
X162123866Y-115834523D02*
X162076247Y-115882142D01*
X162076247Y-115882142D02*
X162028628Y-115977380D01*
X162028628Y-115977380D02*
X161981009Y-116167856D01*
X161981009Y-116167856D02*
X161933390Y-116263094D01*
X161933390Y-116263094D02*
X161885771Y-116310713D01*
X161885771Y-116310713D02*
X161790533Y-116358332D01*
X161790533Y-116358332D02*
X161695295Y-116358332D01*
X161695295Y-116358332D02*
X161600057Y-116310713D01*
X161600057Y-116310713D02*
X161552438Y-116263094D01*
X161552438Y-116263094D02*
X161504819Y-116167856D01*
X161504819Y-116167856D02*
X161504819Y-115929761D01*
X161504819Y-115929761D02*
X161552438Y-115786904D01*
X161504819Y-115453570D02*
X162504819Y-115215475D01*
X162504819Y-115215475D02*
X161790533Y-115024999D01*
X161790533Y-115024999D02*
X162504819Y-114834523D01*
X162504819Y-114834523D02*
X161504819Y-114596428D01*
X162504819Y-113691666D02*
X162504819Y-114263094D01*
X162504819Y-113977380D02*
X161504819Y-113977380D01*
X161504819Y-113977380D02*
X161647676Y-114072618D01*
X161647676Y-114072618D02*
X161742914Y-114167856D01*
X161742914Y-114167856D02*
X161790533Y-114263094D01*
X117844642Y-137954819D02*
X117511309Y-137478628D01*
X117273214Y-137954819D02*
X117273214Y-136954819D01*
X117273214Y-136954819D02*
X117654166Y-136954819D01*
X117654166Y-136954819D02*
X117749404Y-137002438D01*
X117749404Y-137002438D02*
X117797023Y-137050057D01*
X117797023Y-137050057D02*
X117844642Y-137145295D01*
X117844642Y-137145295D02*
X117844642Y-137288152D01*
X117844642Y-137288152D02*
X117797023Y-137383390D01*
X117797023Y-137383390D02*
X117749404Y-137431009D01*
X117749404Y-137431009D02*
X117654166Y-137478628D01*
X117654166Y-137478628D02*
X117273214Y-137478628D01*
X118225595Y-137050057D02*
X118273214Y-137002438D01*
X118273214Y-137002438D02*
X118368452Y-136954819D01*
X118368452Y-136954819D02*
X118606547Y-136954819D01*
X118606547Y-136954819D02*
X118701785Y-137002438D01*
X118701785Y-137002438D02*
X118749404Y-137050057D01*
X118749404Y-137050057D02*
X118797023Y-137145295D01*
X118797023Y-137145295D02*
X118797023Y-137240533D01*
X118797023Y-137240533D02*
X118749404Y-137383390D01*
X118749404Y-137383390D02*
X118177976Y-137954819D01*
X118177976Y-137954819D02*
X118797023Y-137954819D01*
X119416071Y-136954819D02*
X119511309Y-136954819D01*
X119511309Y-136954819D02*
X119606547Y-137002438D01*
X119606547Y-137002438D02*
X119654166Y-137050057D01*
X119654166Y-137050057D02*
X119701785Y-137145295D01*
X119701785Y-137145295D02*
X119749404Y-137335771D01*
X119749404Y-137335771D02*
X119749404Y-137573866D01*
X119749404Y-137573866D02*
X119701785Y-137764342D01*
X119701785Y-137764342D02*
X119654166Y-137859580D01*
X119654166Y-137859580D02*
X119606547Y-137907200D01*
X119606547Y-137907200D02*
X119511309Y-137954819D01*
X119511309Y-137954819D02*
X119416071Y-137954819D01*
X119416071Y-137954819D02*
X119320833Y-137907200D01*
X119320833Y-137907200D02*
X119273214Y-137859580D01*
X119273214Y-137859580D02*
X119225595Y-137764342D01*
X119225595Y-137764342D02*
X119177976Y-137573866D01*
X119177976Y-137573866D02*
X119177976Y-137335771D01*
X119177976Y-137335771D02*
X119225595Y-137145295D01*
X119225595Y-137145295D02*
X119273214Y-137050057D01*
X119273214Y-137050057D02*
X119320833Y-137002438D01*
X119320833Y-137002438D02*
X119416071Y-136954819D01*
X113069642Y-138404819D02*
X112736309Y-137928628D01*
X112498214Y-138404819D02*
X112498214Y-137404819D01*
X112498214Y-137404819D02*
X112879166Y-137404819D01*
X112879166Y-137404819D02*
X112974404Y-137452438D01*
X112974404Y-137452438D02*
X113022023Y-137500057D01*
X113022023Y-137500057D02*
X113069642Y-137595295D01*
X113069642Y-137595295D02*
X113069642Y-137738152D01*
X113069642Y-137738152D02*
X113022023Y-137833390D01*
X113022023Y-137833390D02*
X112974404Y-137881009D01*
X112974404Y-137881009D02*
X112879166Y-137928628D01*
X112879166Y-137928628D02*
X112498214Y-137928628D01*
X114022023Y-138404819D02*
X113450595Y-138404819D01*
X113736309Y-138404819D02*
X113736309Y-137404819D01*
X113736309Y-137404819D02*
X113641071Y-137547676D01*
X113641071Y-137547676D02*
X113545833Y-137642914D01*
X113545833Y-137642914D02*
X113450595Y-137690533D01*
X114498214Y-138404819D02*
X114688690Y-138404819D01*
X114688690Y-138404819D02*
X114783928Y-138357200D01*
X114783928Y-138357200D02*
X114831547Y-138309580D01*
X114831547Y-138309580D02*
X114926785Y-138166723D01*
X114926785Y-138166723D02*
X114974404Y-137976247D01*
X114974404Y-137976247D02*
X114974404Y-137595295D01*
X114974404Y-137595295D02*
X114926785Y-137500057D01*
X114926785Y-137500057D02*
X114879166Y-137452438D01*
X114879166Y-137452438D02*
X114783928Y-137404819D01*
X114783928Y-137404819D02*
X114593452Y-137404819D01*
X114593452Y-137404819D02*
X114498214Y-137452438D01*
X114498214Y-137452438D02*
X114450595Y-137500057D01*
X114450595Y-137500057D02*
X114402976Y-137595295D01*
X114402976Y-137595295D02*
X114402976Y-137833390D01*
X114402976Y-137833390D02*
X114450595Y-137928628D01*
X114450595Y-137928628D02*
X114498214Y-137976247D01*
X114498214Y-137976247D02*
X114593452Y-138023866D01*
X114593452Y-138023866D02*
X114783928Y-138023866D01*
X114783928Y-138023866D02*
X114879166Y-137976247D01*
X114879166Y-137976247D02*
X114926785Y-137928628D01*
X114926785Y-137928628D02*
X114974404Y-137833390D01*
X113069642Y-133629819D02*
X112736309Y-133153628D01*
X112498214Y-133629819D02*
X112498214Y-132629819D01*
X112498214Y-132629819D02*
X112879166Y-132629819D01*
X112879166Y-132629819D02*
X112974404Y-132677438D01*
X112974404Y-132677438D02*
X113022023Y-132725057D01*
X113022023Y-132725057D02*
X113069642Y-132820295D01*
X113069642Y-132820295D02*
X113069642Y-132963152D01*
X113069642Y-132963152D02*
X113022023Y-133058390D01*
X113022023Y-133058390D02*
X112974404Y-133106009D01*
X112974404Y-133106009D02*
X112879166Y-133153628D01*
X112879166Y-133153628D02*
X112498214Y-133153628D01*
X114022023Y-133629819D02*
X113450595Y-133629819D01*
X113736309Y-133629819D02*
X113736309Y-132629819D01*
X113736309Y-132629819D02*
X113641071Y-132772676D01*
X113641071Y-132772676D02*
X113545833Y-132867914D01*
X113545833Y-132867914D02*
X113450595Y-132915533D01*
X114593452Y-133058390D02*
X114498214Y-133010771D01*
X114498214Y-133010771D02*
X114450595Y-132963152D01*
X114450595Y-132963152D02*
X114402976Y-132867914D01*
X114402976Y-132867914D02*
X114402976Y-132820295D01*
X114402976Y-132820295D02*
X114450595Y-132725057D01*
X114450595Y-132725057D02*
X114498214Y-132677438D01*
X114498214Y-132677438D02*
X114593452Y-132629819D01*
X114593452Y-132629819D02*
X114783928Y-132629819D01*
X114783928Y-132629819D02*
X114879166Y-132677438D01*
X114879166Y-132677438D02*
X114926785Y-132725057D01*
X114926785Y-132725057D02*
X114974404Y-132820295D01*
X114974404Y-132820295D02*
X114974404Y-132867914D01*
X114974404Y-132867914D02*
X114926785Y-132963152D01*
X114926785Y-132963152D02*
X114879166Y-133010771D01*
X114879166Y-133010771D02*
X114783928Y-133058390D01*
X114783928Y-133058390D02*
X114593452Y-133058390D01*
X114593452Y-133058390D02*
X114498214Y-133106009D01*
X114498214Y-133106009D02*
X114450595Y-133153628D01*
X114450595Y-133153628D02*
X114402976Y-133248866D01*
X114402976Y-133248866D02*
X114402976Y-133439342D01*
X114402976Y-133439342D02*
X114450595Y-133534580D01*
X114450595Y-133534580D02*
X114498214Y-133582200D01*
X114498214Y-133582200D02*
X114593452Y-133629819D01*
X114593452Y-133629819D02*
X114783928Y-133629819D01*
X114783928Y-133629819D02*
X114879166Y-133582200D01*
X114879166Y-133582200D02*
X114926785Y-133534580D01*
X114926785Y-133534580D02*
X114974404Y-133439342D01*
X114974404Y-133439342D02*
X114974404Y-133248866D01*
X114974404Y-133248866D02*
X114926785Y-133153628D01*
X114926785Y-133153628D02*
X114879166Y-133106009D01*
X114879166Y-133106009D02*
X114783928Y-133058390D01*
X136304819Y-118067857D02*
X135828628Y-118401190D01*
X136304819Y-118639285D02*
X135304819Y-118639285D01*
X135304819Y-118639285D02*
X135304819Y-118258333D01*
X135304819Y-118258333D02*
X135352438Y-118163095D01*
X135352438Y-118163095D02*
X135400057Y-118115476D01*
X135400057Y-118115476D02*
X135495295Y-118067857D01*
X135495295Y-118067857D02*
X135638152Y-118067857D01*
X135638152Y-118067857D02*
X135733390Y-118115476D01*
X135733390Y-118115476D02*
X135781009Y-118163095D01*
X135781009Y-118163095D02*
X135828628Y-118258333D01*
X135828628Y-118258333D02*
X135828628Y-118639285D01*
X136304819Y-117115476D02*
X136304819Y-117686904D01*
X136304819Y-117401190D02*
X135304819Y-117401190D01*
X135304819Y-117401190D02*
X135447676Y-117496428D01*
X135447676Y-117496428D02*
X135542914Y-117591666D01*
X135542914Y-117591666D02*
X135590533Y-117686904D01*
X135304819Y-116782142D02*
X135304819Y-116115476D01*
X135304819Y-116115476D02*
X136304819Y-116544047D01*
X110569642Y-101654819D02*
X110236309Y-101178628D01*
X109998214Y-101654819D02*
X109998214Y-100654819D01*
X109998214Y-100654819D02*
X110379166Y-100654819D01*
X110379166Y-100654819D02*
X110474404Y-100702438D01*
X110474404Y-100702438D02*
X110522023Y-100750057D01*
X110522023Y-100750057D02*
X110569642Y-100845295D01*
X110569642Y-100845295D02*
X110569642Y-100988152D01*
X110569642Y-100988152D02*
X110522023Y-101083390D01*
X110522023Y-101083390D02*
X110474404Y-101131009D01*
X110474404Y-101131009D02*
X110379166Y-101178628D01*
X110379166Y-101178628D02*
X109998214Y-101178628D01*
X111522023Y-101654819D02*
X110950595Y-101654819D01*
X111236309Y-101654819D02*
X111236309Y-100654819D01*
X111236309Y-100654819D02*
X111141071Y-100797676D01*
X111141071Y-100797676D02*
X111045833Y-100892914D01*
X111045833Y-100892914D02*
X110950595Y-100940533D01*
X112379166Y-100654819D02*
X112188690Y-100654819D01*
X112188690Y-100654819D02*
X112093452Y-100702438D01*
X112093452Y-100702438D02*
X112045833Y-100750057D01*
X112045833Y-100750057D02*
X111950595Y-100892914D01*
X111950595Y-100892914D02*
X111902976Y-101083390D01*
X111902976Y-101083390D02*
X111902976Y-101464342D01*
X111902976Y-101464342D02*
X111950595Y-101559580D01*
X111950595Y-101559580D02*
X111998214Y-101607200D01*
X111998214Y-101607200D02*
X112093452Y-101654819D01*
X112093452Y-101654819D02*
X112283928Y-101654819D01*
X112283928Y-101654819D02*
X112379166Y-101607200D01*
X112379166Y-101607200D02*
X112426785Y-101559580D01*
X112426785Y-101559580D02*
X112474404Y-101464342D01*
X112474404Y-101464342D02*
X112474404Y-101226247D01*
X112474404Y-101226247D02*
X112426785Y-101131009D01*
X112426785Y-101131009D02*
X112379166Y-101083390D01*
X112379166Y-101083390D02*
X112283928Y-101035771D01*
X112283928Y-101035771D02*
X112093452Y-101035771D01*
X112093452Y-101035771D02*
X111998214Y-101083390D01*
X111998214Y-101083390D02*
X111950595Y-101131009D01*
X111950595Y-101131009D02*
X111902976Y-101226247D01*
X114619642Y-124879819D02*
X114286309Y-124403628D01*
X114048214Y-124879819D02*
X114048214Y-123879819D01*
X114048214Y-123879819D02*
X114429166Y-123879819D01*
X114429166Y-123879819D02*
X114524404Y-123927438D01*
X114524404Y-123927438D02*
X114572023Y-123975057D01*
X114572023Y-123975057D02*
X114619642Y-124070295D01*
X114619642Y-124070295D02*
X114619642Y-124213152D01*
X114619642Y-124213152D02*
X114572023Y-124308390D01*
X114572023Y-124308390D02*
X114524404Y-124356009D01*
X114524404Y-124356009D02*
X114429166Y-124403628D01*
X114429166Y-124403628D02*
X114048214Y-124403628D01*
X115572023Y-124879819D02*
X115000595Y-124879819D01*
X115286309Y-124879819D02*
X115286309Y-123879819D01*
X115286309Y-123879819D02*
X115191071Y-124022676D01*
X115191071Y-124022676D02*
X115095833Y-124117914D01*
X115095833Y-124117914D02*
X115000595Y-124165533D01*
X116476785Y-123879819D02*
X116000595Y-123879819D01*
X116000595Y-123879819D02*
X115952976Y-124356009D01*
X115952976Y-124356009D02*
X116000595Y-124308390D01*
X116000595Y-124308390D02*
X116095833Y-124260771D01*
X116095833Y-124260771D02*
X116333928Y-124260771D01*
X116333928Y-124260771D02*
X116429166Y-124308390D01*
X116429166Y-124308390D02*
X116476785Y-124356009D01*
X116476785Y-124356009D02*
X116524404Y-124451247D01*
X116524404Y-124451247D02*
X116524404Y-124689342D01*
X116524404Y-124689342D02*
X116476785Y-124784580D01*
X116476785Y-124784580D02*
X116429166Y-124832200D01*
X116429166Y-124832200D02*
X116333928Y-124879819D01*
X116333928Y-124879819D02*
X116095833Y-124879819D01*
X116095833Y-124879819D02*
X116000595Y-124832200D01*
X116000595Y-124832200D02*
X115952976Y-124784580D01*
X126807142Y-125554819D02*
X126473809Y-125078628D01*
X126235714Y-125554819D02*
X126235714Y-124554819D01*
X126235714Y-124554819D02*
X126616666Y-124554819D01*
X126616666Y-124554819D02*
X126711904Y-124602438D01*
X126711904Y-124602438D02*
X126759523Y-124650057D01*
X126759523Y-124650057D02*
X126807142Y-124745295D01*
X126807142Y-124745295D02*
X126807142Y-124888152D01*
X126807142Y-124888152D02*
X126759523Y-124983390D01*
X126759523Y-124983390D02*
X126711904Y-125031009D01*
X126711904Y-125031009D02*
X126616666Y-125078628D01*
X126616666Y-125078628D02*
X126235714Y-125078628D01*
X127759523Y-125554819D02*
X127188095Y-125554819D01*
X127473809Y-125554819D02*
X127473809Y-124554819D01*
X127473809Y-124554819D02*
X127378571Y-124697676D01*
X127378571Y-124697676D02*
X127283333Y-124792914D01*
X127283333Y-124792914D02*
X127188095Y-124840533D01*
X128616666Y-124888152D02*
X128616666Y-125554819D01*
X128378571Y-124507200D02*
X128140476Y-125221485D01*
X128140476Y-125221485D02*
X128759523Y-125221485D01*
X110919642Y-121579819D02*
X110586309Y-121103628D01*
X110348214Y-121579819D02*
X110348214Y-120579819D01*
X110348214Y-120579819D02*
X110729166Y-120579819D01*
X110729166Y-120579819D02*
X110824404Y-120627438D01*
X110824404Y-120627438D02*
X110872023Y-120675057D01*
X110872023Y-120675057D02*
X110919642Y-120770295D01*
X110919642Y-120770295D02*
X110919642Y-120913152D01*
X110919642Y-120913152D02*
X110872023Y-121008390D01*
X110872023Y-121008390D02*
X110824404Y-121056009D01*
X110824404Y-121056009D02*
X110729166Y-121103628D01*
X110729166Y-121103628D02*
X110348214Y-121103628D01*
X111872023Y-121579819D02*
X111300595Y-121579819D01*
X111586309Y-121579819D02*
X111586309Y-120579819D01*
X111586309Y-120579819D02*
X111491071Y-120722676D01*
X111491071Y-120722676D02*
X111395833Y-120817914D01*
X111395833Y-120817914D02*
X111300595Y-120865533D01*
X112252976Y-120675057D02*
X112300595Y-120627438D01*
X112300595Y-120627438D02*
X112395833Y-120579819D01*
X112395833Y-120579819D02*
X112633928Y-120579819D01*
X112633928Y-120579819D02*
X112729166Y-120627438D01*
X112729166Y-120627438D02*
X112776785Y-120675057D01*
X112776785Y-120675057D02*
X112824404Y-120770295D01*
X112824404Y-120770295D02*
X112824404Y-120865533D01*
X112824404Y-120865533D02*
X112776785Y-121008390D01*
X112776785Y-121008390D02*
X112205357Y-121579819D01*
X112205357Y-121579819D02*
X112824404Y-121579819D01*
X135029819Y-133804166D02*
X134553628Y-134137499D01*
X135029819Y-134375594D02*
X134029819Y-134375594D01*
X134029819Y-134375594D02*
X134029819Y-133994642D01*
X134029819Y-133994642D02*
X134077438Y-133899404D01*
X134077438Y-133899404D02*
X134125057Y-133851785D01*
X134125057Y-133851785D02*
X134220295Y-133804166D01*
X134220295Y-133804166D02*
X134363152Y-133804166D01*
X134363152Y-133804166D02*
X134458390Y-133851785D01*
X134458390Y-133851785D02*
X134506009Y-133899404D01*
X134506009Y-133899404D02*
X134553628Y-133994642D01*
X134553628Y-133994642D02*
X134553628Y-134375594D01*
X135029819Y-133327975D02*
X135029819Y-133137499D01*
X135029819Y-133137499D02*
X134982200Y-133042261D01*
X134982200Y-133042261D02*
X134934580Y-132994642D01*
X134934580Y-132994642D02*
X134791723Y-132899404D01*
X134791723Y-132899404D02*
X134601247Y-132851785D01*
X134601247Y-132851785D02*
X134220295Y-132851785D01*
X134220295Y-132851785D02*
X134125057Y-132899404D01*
X134125057Y-132899404D02*
X134077438Y-132947023D01*
X134077438Y-132947023D02*
X134029819Y-133042261D01*
X134029819Y-133042261D02*
X134029819Y-133232737D01*
X134029819Y-133232737D02*
X134077438Y-133327975D01*
X134077438Y-133327975D02*
X134125057Y-133375594D01*
X134125057Y-133375594D02*
X134220295Y-133423213D01*
X134220295Y-133423213D02*
X134458390Y-133423213D01*
X134458390Y-133423213D02*
X134553628Y-133375594D01*
X134553628Y-133375594D02*
X134601247Y-133327975D01*
X134601247Y-133327975D02*
X134648866Y-133232737D01*
X134648866Y-133232737D02*
X134648866Y-133042261D01*
X134648866Y-133042261D02*
X134601247Y-132947023D01*
X134601247Y-132947023D02*
X134553628Y-132899404D01*
X134553628Y-132899404D02*
X134458390Y-132851785D01*
X131704819Y-142429166D02*
X131228628Y-142762499D01*
X131704819Y-143000594D02*
X130704819Y-143000594D01*
X130704819Y-143000594D02*
X130704819Y-142619642D01*
X130704819Y-142619642D02*
X130752438Y-142524404D01*
X130752438Y-142524404D02*
X130800057Y-142476785D01*
X130800057Y-142476785D02*
X130895295Y-142429166D01*
X130895295Y-142429166D02*
X131038152Y-142429166D01*
X131038152Y-142429166D02*
X131133390Y-142476785D01*
X131133390Y-142476785D02*
X131181009Y-142524404D01*
X131181009Y-142524404D02*
X131228628Y-142619642D01*
X131228628Y-142619642D02*
X131228628Y-143000594D01*
X131133390Y-141857737D02*
X131085771Y-141952975D01*
X131085771Y-141952975D02*
X131038152Y-142000594D01*
X131038152Y-142000594D02*
X130942914Y-142048213D01*
X130942914Y-142048213D02*
X130895295Y-142048213D01*
X130895295Y-142048213D02*
X130800057Y-142000594D01*
X130800057Y-142000594D02*
X130752438Y-141952975D01*
X130752438Y-141952975D02*
X130704819Y-141857737D01*
X130704819Y-141857737D02*
X130704819Y-141667261D01*
X130704819Y-141667261D02*
X130752438Y-141572023D01*
X130752438Y-141572023D02*
X130800057Y-141524404D01*
X130800057Y-141524404D02*
X130895295Y-141476785D01*
X130895295Y-141476785D02*
X130942914Y-141476785D01*
X130942914Y-141476785D02*
X131038152Y-141524404D01*
X131038152Y-141524404D02*
X131085771Y-141572023D01*
X131085771Y-141572023D02*
X131133390Y-141667261D01*
X131133390Y-141667261D02*
X131133390Y-141857737D01*
X131133390Y-141857737D02*
X131181009Y-141952975D01*
X131181009Y-141952975D02*
X131228628Y-142000594D01*
X131228628Y-142000594D02*
X131323866Y-142048213D01*
X131323866Y-142048213D02*
X131514342Y-142048213D01*
X131514342Y-142048213D02*
X131609580Y-142000594D01*
X131609580Y-142000594D02*
X131657200Y-141952975D01*
X131657200Y-141952975D02*
X131704819Y-141857737D01*
X131704819Y-141857737D02*
X131704819Y-141667261D01*
X131704819Y-141667261D02*
X131657200Y-141572023D01*
X131657200Y-141572023D02*
X131609580Y-141524404D01*
X131609580Y-141524404D02*
X131514342Y-141476785D01*
X131514342Y-141476785D02*
X131323866Y-141476785D01*
X131323866Y-141476785D02*
X131228628Y-141524404D01*
X131228628Y-141524404D02*
X131181009Y-141572023D01*
X131181009Y-141572023D02*
X131133390Y-141667261D01*
X116970833Y-109804819D02*
X116637500Y-109328628D01*
X116399405Y-109804819D02*
X116399405Y-108804819D01*
X116399405Y-108804819D02*
X116780357Y-108804819D01*
X116780357Y-108804819D02*
X116875595Y-108852438D01*
X116875595Y-108852438D02*
X116923214Y-108900057D01*
X116923214Y-108900057D02*
X116970833Y-108995295D01*
X116970833Y-108995295D02*
X116970833Y-109138152D01*
X116970833Y-109138152D02*
X116923214Y-109233390D01*
X116923214Y-109233390D02*
X116875595Y-109281009D01*
X116875595Y-109281009D02*
X116780357Y-109328628D01*
X116780357Y-109328628D02*
X116399405Y-109328628D01*
X117827976Y-108804819D02*
X117637500Y-108804819D01*
X117637500Y-108804819D02*
X117542262Y-108852438D01*
X117542262Y-108852438D02*
X117494643Y-108900057D01*
X117494643Y-108900057D02*
X117399405Y-109042914D01*
X117399405Y-109042914D02*
X117351786Y-109233390D01*
X117351786Y-109233390D02*
X117351786Y-109614342D01*
X117351786Y-109614342D02*
X117399405Y-109709580D01*
X117399405Y-109709580D02*
X117447024Y-109757200D01*
X117447024Y-109757200D02*
X117542262Y-109804819D01*
X117542262Y-109804819D02*
X117732738Y-109804819D01*
X117732738Y-109804819D02*
X117827976Y-109757200D01*
X117827976Y-109757200D02*
X117875595Y-109709580D01*
X117875595Y-109709580D02*
X117923214Y-109614342D01*
X117923214Y-109614342D02*
X117923214Y-109376247D01*
X117923214Y-109376247D02*
X117875595Y-109281009D01*
X117875595Y-109281009D02*
X117827976Y-109233390D01*
X117827976Y-109233390D02*
X117732738Y-109185771D01*
X117732738Y-109185771D02*
X117542262Y-109185771D01*
X117542262Y-109185771D02*
X117447024Y-109233390D01*
X117447024Y-109233390D02*
X117399405Y-109281009D01*
X117399405Y-109281009D02*
X117351786Y-109376247D01*
X134895833Y-107204819D02*
X134562500Y-106728628D01*
X134324405Y-107204819D02*
X134324405Y-106204819D01*
X134324405Y-106204819D02*
X134705357Y-106204819D01*
X134705357Y-106204819D02*
X134800595Y-106252438D01*
X134800595Y-106252438D02*
X134848214Y-106300057D01*
X134848214Y-106300057D02*
X134895833Y-106395295D01*
X134895833Y-106395295D02*
X134895833Y-106538152D01*
X134895833Y-106538152D02*
X134848214Y-106633390D01*
X134848214Y-106633390D02*
X134800595Y-106681009D01*
X134800595Y-106681009D02*
X134705357Y-106728628D01*
X134705357Y-106728628D02*
X134324405Y-106728628D01*
X135752976Y-106538152D02*
X135752976Y-107204819D01*
X135514881Y-106157200D02*
X135276786Y-106871485D01*
X135276786Y-106871485D02*
X135895833Y-106871485D01*
X186070833Y-127879819D02*
X185737500Y-127403628D01*
X185499405Y-127879819D02*
X185499405Y-126879819D01*
X185499405Y-126879819D02*
X185880357Y-126879819D01*
X185880357Y-126879819D02*
X185975595Y-126927438D01*
X185975595Y-126927438D02*
X186023214Y-126975057D01*
X186023214Y-126975057D02*
X186070833Y-127070295D01*
X186070833Y-127070295D02*
X186070833Y-127213152D01*
X186070833Y-127213152D02*
X186023214Y-127308390D01*
X186023214Y-127308390D02*
X185975595Y-127356009D01*
X185975595Y-127356009D02*
X185880357Y-127403628D01*
X185880357Y-127403628D02*
X185499405Y-127403628D01*
X186404167Y-126879819D02*
X187023214Y-126879819D01*
X187023214Y-126879819D02*
X186689881Y-127260771D01*
X186689881Y-127260771D02*
X186832738Y-127260771D01*
X186832738Y-127260771D02*
X186927976Y-127308390D01*
X186927976Y-127308390D02*
X186975595Y-127356009D01*
X186975595Y-127356009D02*
X187023214Y-127451247D01*
X187023214Y-127451247D02*
X187023214Y-127689342D01*
X187023214Y-127689342D02*
X186975595Y-127784580D01*
X186975595Y-127784580D02*
X186927976Y-127832200D01*
X186927976Y-127832200D02*
X186832738Y-127879819D01*
X186832738Y-127879819D02*
X186547024Y-127879819D01*
X186547024Y-127879819D02*
X186451786Y-127832200D01*
X186451786Y-127832200D02*
X186404167Y-127784580D01*
X122595833Y-113179819D02*
X122262500Y-112703628D01*
X122024405Y-113179819D02*
X122024405Y-112179819D01*
X122024405Y-112179819D02*
X122405357Y-112179819D01*
X122405357Y-112179819D02*
X122500595Y-112227438D01*
X122500595Y-112227438D02*
X122548214Y-112275057D01*
X122548214Y-112275057D02*
X122595833Y-112370295D01*
X122595833Y-112370295D02*
X122595833Y-112513152D01*
X122595833Y-112513152D02*
X122548214Y-112608390D01*
X122548214Y-112608390D02*
X122500595Y-112656009D01*
X122500595Y-112656009D02*
X122405357Y-112703628D01*
X122405357Y-112703628D02*
X122024405Y-112703628D01*
X122976786Y-112275057D02*
X123024405Y-112227438D01*
X123024405Y-112227438D02*
X123119643Y-112179819D01*
X123119643Y-112179819D02*
X123357738Y-112179819D01*
X123357738Y-112179819D02*
X123452976Y-112227438D01*
X123452976Y-112227438D02*
X123500595Y-112275057D01*
X123500595Y-112275057D02*
X123548214Y-112370295D01*
X123548214Y-112370295D02*
X123548214Y-112465533D01*
X123548214Y-112465533D02*
X123500595Y-112608390D01*
X123500595Y-112608390D02*
X122929167Y-113179819D01*
X122929167Y-113179819D02*
X123548214Y-113179819D01*
X115554819Y-126929166D02*
X115078628Y-127262499D01*
X115554819Y-127500594D02*
X114554819Y-127500594D01*
X114554819Y-127500594D02*
X114554819Y-127119642D01*
X114554819Y-127119642D02*
X114602438Y-127024404D01*
X114602438Y-127024404D02*
X114650057Y-126976785D01*
X114650057Y-126976785D02*
X114745295Y-126929166D01*
X114745295Y-126929166D02*
X114888152Y-126929166D01*
X114888152Y-126929166D02*
X114983390Y-126976785D01*
X114983390Y-126976785D02*
X115031009Y-127024404D01*
X115031009Y-127024404D02*
X115078628Y-127119642D01*
X115078628Y-127119642D02*
X115078628Y-127500594D01*
X115554819Y-125976785D02*
X115554819Y-126548213D01*
X115554819Y-126262499D02*
X114554819Y-126262499D01*
X114554819Y-126262499D02*
X114697676Y-126357737D01*
X114697676Y-126357737D02*
X114792914Y-126452975D01*
X114792914Y-126452975D02*
X114840533Y-126548213D01*
X127304761Y-141150057D02*
X127209523Y-141102438D01*
X127209523Y-141102438D02*
X127114285Y-141007200D01*
X127114285Y-141007200D02*
X126971428Y-140864342D01*
X126971428Y-140864342D02*
X126876190Y-140816723D01*
X126876190Y-140816723D02*
X126780952Y-140816723D01*
X126828571Y-141054819D02*
X126733333Y-141007200D01*
X126733333Y-141007200D02*
X126638095Y-140911961D01*
X126638095Y-140911961D02*
X126590476Y-140721485D01*
X126590476Y-140721485D02*
X126590476Y-140388152D01*
X126590476Y-140388152D02*
X126638095Y-140197676D01*
X126638095Y-140197676D02*
X126733333Y-140102438D01*
X126733333Y-140102438D02*
X126828571Y-140054819D01*
X126828571Y-140054819D02*
X127019047Y-140054819D01*
X127019047Y-140054819D02*
X127114285Y-140102438D01*
X127114285Y-140102438D02*
X127209523Y-140197676D01*
X127209523Y-140197676D02*
X127257142Y-140388152D01*
X127257142Y-140388152D02*
X127257142Y-140721485D01*
X127257142Y-140721485D02*
X127209523Y-140911961D01*
X127209523Y-140911961D02*
X127114285Y-141007200D01*
X127114285Y-141007200D02*
X127019047Y-141054819D01*
X127019047Y-141054819D02*
X126828571Y-141054819D01*
X128209523Y-141054819D02*
X127638095Y-141054819D01*
X127923809Y-141054819D02*
X127923809Y-140054819D01*
X127923809Y-140054819D02*
X127828571Y-140197676D01*
X127828571Y-140197676D02*
X127733333Y-140292914D01*
X127733333Y-140292914D02*
X127638095Y-140340533D01*
X145866666Y-134854819D02*
X145866666Y-135569104D01*
X145866666Y-135569104D02*
X145819047Y-135711961D01*
X145819047Y-135711961D02*
X145723809Y-135807200D01*
X145723809Y-135807200D02*
X145580952Y-135854819D01*
X145580952Y-135854819D02*
X145485714Y-135854819D01*
X146295238Y-134950057D02*
X146342857Y-134902438D01*
X146342857Y-134902438D02*
X146438095Y-134854819D01*
X146438095Y-134854819D02*
X146676190Y-134854819D01*
X146676190Y-134854819D02*
X146771428Y-134902438D01*
X146771428Y-134902438D02*
X146819047Y-134950057D01*
X146819047Y-134950057D02*
X146866666Y-135045295D01*
X146866666Y-135045295D02*
X146866666Y-135140533D01*
X146866666Y-135140533D02*
X146819047Y-135283390D01*
X146819047Y-135283390D02*
X146247619Y-135854819D01*
X146247619Y-135854819D02*
X146866666Y-135854819D01*
X122166666Y-51464819D02*
X122166666Y-52179104D01*
X122166666Y-52179104D02*
X122119047Y-52321961D01*
X122119047Y-52321961D02*
X122023809Y-52417200D01*
X122023809Y-52417200D02*
X121880952Y-52464819D01*
X121880952Y-52464819D02*
X121785714Y-52464819D01*
X123166666Y-52464819D02*
X122595238Y-52464819D01*
X122880952Y-52464819D02*
X122880952Y-51464819D01*
X122880952Y-51464819D02*
X122785714Y-51607676D01*
X122785714Y-51607676D02*
X122690476Y-51702914D01*
X122690476Y-51702914D02*
X122595238Y-51750533D01*
X134481009Y-102370833D02*
X134481009Y-102704166D01*
X135004819Y-102704166D02*
X134004819Y-102704166D01*
X134004819Y-102704166D02*
X134004819Y-102227976D01*
X134481009Y-101513690D02*
X134528628Y-101370833D01*
X134528628Y-101370833D02*
X134576247Y-101323214D01*
X134576247Y-101323214D02*
X134671485Y-101275595D01*
X134671485Y-101275595D02*
X134814342Y-101275595D01*
X134814342Y-101275595D02*
X134909580Y-101323214D01*
X134909580Y-101323214D02*
X134957200Y-101370833D01*
X134957200Y-101370833D02*
X135004819Y-101466071D01*
X135004819Y-101466071D02*
X135004819Y-101847023D01*
X135004819Y-101847023D02*
X134004819Y-101847023D01*
X134004819Y-101847023D02*
X134004819Y-101513690D01*
X134004819Y-101513690D02*
X134052438Y-101418452D01*
X134052438Y-101418452D02*
X134100057Y-101370833D01*
X134100057Y-101370833D02*
X134195295Y-101323214D01*
X134195295Y-101323214D02*
X134290533Y-101323214D01*
X134290533Y-101323214D02*
X134385771Y-101370833D01*
X134385771Y-101370833D02*
X134433390Y-101418452D01*
X134433390Y-101418452D02*
X134481009Y-101513690D01*
X134481009Y-101513690D02*
X134481009Y-101847023D01*
X135004819Y-100323214D02*
X135004819Y-100894642D01*
X135004819Y-100608928D02*
X134004819Y-100608928D01*
X134004819Y-100608928D02*
X134147676Y-100704166D01*
X134147676Y-100704166D02*
X134242914Y-100799404D01*
X134242914Y-100799404D02*
X134290533Y-100894642D01*
X136559819Y-138811094D02*
X135559819Y-138811094D01*
X135559819Y-138811094D02*
X135559819Y-138572999D01*
X135559819Y-138572999D02*
X135607438Y-138430142D01*
X135607438Y-138430142D02*
X135702676Y-138334904D01*
X135702676Y-138334904D02*
X135797914Y-138287285D01*
X135797914Y-138287285D02*
X135988390Y-138239666D01*
X135988390Y-138239666D02*
X136131247Y-138239666D01*
X136131247Y-138239666D02*
X136321723Y-138287285D01*
X136321723Y-138287285D02*
X136416961Y-138334904D01*
X136416961Y-138334904D02*
X136512200Y-138430142D01*
X136512200Y-138430142D02*
X136559819Y-138572999D01*
X136559819Y-138572999D02*
X136559819Y-138811094D01*
X135655057Y-137858713D02*
X135607438Y-137811094D01*
X135607438Y-137811094D02*
X135559819Y-137715856D01*
X135559819Y-137715856D02*
X135559819Y-137477761D01*
X135559819Y-137477761D02*
X135607438Y-137382523D01*
X135607438Y-137382523D02*
X135655057Y-137334904D01*
X135655057Y-137334904D02*
X135750295Y-137287285D01*
X135750295Y-137287285D02*
X135845533Y-137287285D01*
X135845533Y-137287285D02*
X135988390Y-137334904D01*
X135988390Y-137334904D02*
X136559819Y-137906332D01*
X136559819Y-137906332D02*
X136559819Y-137287285D01*
X129919642Y-79059580D02*
X129872023Y-79107200D01*
X129872023Y-79107200D02*
X129729166Y-79154819D01*
X129729166Y-79154819D02*
X129633928Y-79154819D01*
X129633928Y-79154819D02*
X129491071Y-79107200D01*
X129491071Y-79107200D02*
X129395833Y-79011961D01*
X129395833Y-79011961D02*
X129348214Y-78916723D01*
X129348214Y-78916723D02*
X129300595Y-78726247D01*
X129300595Y-78726247D02*
X129300595Y-78583390D01*
X129300595Y-78583390D02*
X129348214Y-78392914D01*
X129348214Y-78392914D02*
X129395833Y-78297676D01*
X129395833Y-78297676D02*
X129491071Y-78202438D01*
X129491071Y-78202438D02*
X129633928Y-78154819D01*
X129633928Y-78154819D02*
X129729166Y-78154819D01*
X129729166Y-78154819D02*
X129872023Y-78202438D01*
X129872023Y-78202438D02*
X129919642Y-78250057D01*
X130300595Y-78250057D02*
X130348214Y-78202438D01*
X130348214Y-78202438D02*
X130443452Y-78154819D01*
X130443452Y-78154819D02*
X130681547Y-78154819D01*
X130681547Y-78154819D02*
X130776785Y-78202438D01*
X130776785Y-78202438D02*
X130824404Y-78250057D01*
X130824404Y-78250057D02*
X130872023Y-78345295D01*
X130872023Y-78345295D02*
X130872023Y-78440533D01*
X130872023Y-78440533D02*
X130824404Y-78583390D01*
X130824404Y-78583390D02*
X130252976Y-79154819D01*
X130252976Y-79154819D02*
X130872023Y-79154819D01*
X131491071Y-78154819D02*
X131586309Y-78154819D01*
X131586309Y-78154819D02*
X131681547Y-78202438D01*
X131681547Y-78202438D02*
X131729166Y-78250057D01*
X131729166Y-78250057D02*
X131776785Y-78345295D01*
X131776785Y-78345295D02*
X131824404Y-78535771D01*
X131824404Y-78535771D02*
X131824404Y-78773866D01*
X131824404Y-78773866D02*
X131776785Y-78964342D01*
X131776785Y-78964342D02*
X131729166Y-79059580D01*
X131729166Y-79059580D02*
X131681547Y-79107200D01*
X131681547Y-79107200D02*
X131586309Y-79154819D01*
X131586309Y-79154819D02*
X131491071Y-79154819D01*
X131491071Y-79154819D02*
X131395833Y-79107200D01*
X131395833Y-79107200D02*
X131348214Y-79059580D01*
X131348214Y-79059580D02*
X131300595Y-78964342D01*
X131300595Y-78964342D02*
X131252976Y-78773866D01*
X131252976Y-78773866D02*
X131252976Y-78535771D01*
X131252976Y-78535771D02*
X131300595Y-78345295D01*
X131300595Y-78345295D02*
X131348214Y-78250057D01*
X131348214Y-78250057D02*
X131395833Y-78202438D01*
X131395833Y-78202438D02*
X131491071Y-78154819D01*
X129869642Y-74184580D02*
X129822023Y-74232200D01*
X129822023Y-74232200D02*
X129679166Y-74279819D01*
X129679166Y-74279819D02*
X129583928Y-74279819D01*
X129583928Y-74279819D02*
X129441071Y-74232200D01*
X129441071Y-74232200D02*
X129345833Y-74136961D01*
X129345833Y-74136961D02*
X129298214Y-74041723D01*
X129298214Y-74041723D02*
X129250595Y-73851247D01*
X129250595Y-73851247D02*
X129250595Y-73708390D01*
X129250595Y-73708390D02*
X129298214Y-73517914D01*
X129298214Y-73517914D02*
X129345833Y-73422676D01*
X129345833Y-73422676D02*
X129441071Y-73327438D01*
X129441071Y-73327438D02*
X129583928Y-73279819D01*
X129583928Y-73279819D02*
X129679166Y-73279819D01*
X129679166Y-73279819D02*
X129822023Y-73327438D01*
X129822023Y-73327438D02*
X129869642Y-73375057D01*
X130822023Y-74279819D02*
X130250595Y-74279819D01*
X130536309Y-74279819D02*
X130536309Y-73279819D01*
X130536309Y-73279819D02*
X130441071Y-73422676D01*
X130441071Y-73422676D02*
X130345833Y-73517914D01*
X130345833Y-73517914D02*
X130250595Y-73565533D01*
X131298214Y-74279819D02*
X131488690Y-74279819D01*
X131488690Y-74279819D02*
X131583928Y-74232200D01*
X131583928Y-74232200D02*
X131631547Y-74184580D01*
X131631547Y-74184580D02*
X131726785Y-74041723D01*
X131726785Y-74041723D02*
X131774404Y-73851247D01*
X131774404Y-73851247D02*
X131774404Y-73470295D01*
X131774404Y-73470295D02*
X131726785Y-73375057D01*
X131726785Y-73375057D02*
X131679166Y-73327438D01*
X131679166Y-73327438D02*
X131583928Y-73279819D01*
X131583928Y-73279819D02*
X131393452Y-73279819D01*
X131393452Y-73279819D02*
X131298214Y-73327438D01*
X131298214Y-73327438D02*
X131250595Y-73375057D01*
X131250595Y-73375057D02*
X131202976Y-73470295D01*
X131202976Y-73470295D02*
X131202976Y-73708390D01*
X131202976Y-73708390D02*
X131250595Y-73803628D01*
X131250595Y-73803628D02*
X131298214Y-73851247D01*
X131298214Y-73851247D02*
X131393452Y-73898866D01*
X131393452Y-73898866D02*
X131583928Y-73898866D01*
X131583928Y-73898866D02*
X131679166Y-73851247D01*
X131679166Y-73851247D02*
X131726785Y-73803628D01*
X131726785Y-73803628D02*
X131774404Y-73708390D01*
X125634580Y-136942857D02*
X125682200Y-136990476D01*
X125682200Y-136990476D02*
X125729819Y-137133333D01*
X125729819Y-137133333D02*
X125729819Y-137228571D01*
X125729819Y-137228571D02*
X125682200Y-137371428D01*
X125682200Y-137371428D02*
X125586961Y-137466666D01*
X125586961Y-137466666D02*
X125491723Y-137514285D01*
X125491723Y-137514285D02*
X125301247Y-137561904D01*
X125301247Y-137561904D02*
X125158390Y-137561904D01*
X125158390Y-137561904D02*
X124967914Y-137514285D01*
X124967914Y-137514285D02*
X124872676Y-137466666D01*
X124872676Y-137466666D02*
X124777438Y-137371428D01*
X124777438Y-137371428D02*
X124729819Y-137228571D01*
X124729819Y-137228571D02*
X124729819Y-137133333D01*
X124729819Y-137133333D02*
X124777438Y-136990476D01*
X124777438Y-136990476D02*
X124825057Y-136942857D01*
X125729819Y-135990476D02*
X125729819Y-136561904D01*
X125729819Y-136276190D02*
X124729819Y-136276190D01*
X124729819Y-136276190D02*
X124872676Y-136371428D01*
X124872676Y-136371428D02*
X124967914Y-136466666D01*
X124967914Y-136466666D02*
X125015533Y-136561904D01*
X125158390Y-135419047D02*
X125110771Y-135514285D01*
X125110771Y-135514285D02*
X125063152Y-135561904D01*
X125063152Y-135561904D02*
X124967914Y-135609523D01*
X124967914Y-135609523D02*
X124920295Y-135609523D01*
X124920295Y-135609523D02*
X124825057Y-135561904D01*
X124825057Y-135561904D02*
X124777438Y-135514285D01*
X124777438Y-135514285D02*
X124729819Y-135419047D01*
X124729819Y-135419047D02*
X124729819Y-135228571D01*
X124729819Y-135228571D02*
X124777438Y-135133333D01*
X124777438Y-135133333D02*
X124825057Y-135085714D01*
X124825057Y-135085714D02*
X124920295Y-135038095D01*
X124920295Y-135038095D02*
X124967914Y-135038095D01*
X124967914Y-135038095D02*
X125063152Y-135085714D01*
X125063152Y-135085714D02*
X125110771Y-135133333D01*
X125110771Y-135133333D02*
X125158390Y-135228571D01*
X125158390Y-135228571D02*
X125158390Y-135419047D01*
X125158390Y-135419047D02*
X125206009Y-135514285D01*
X125206009Y-135514285D02*
X125253628Y-135561904D01*
X125253628Y-135561904D02*
X125348866Y-135609523D01*
X125348866Y-135609523D02*
X125539342Y-135609523D01*
X125539342Y-135609523D02*
X125634580Y-135561904D01*
X125634580Y-135561904D02*
X125682200Y-135514285D01*
X125682200Y-135514285D02*
X125729819Y-135419047D01*
X125729819Y-135419047D02*
X125729819Y-135228571D01*
X125729819Y-135228571D02*
X125682200Y-135133333D01*
X125682200Y-135133333D02*
X125634580Y-135085714D01*
X125634580Y-135085714D02*
X125539342Y-135038095D01*
X125539342Y-135038095D02*
X125348866Y-135038095D01*
X125348866Y-135038095D02*
X125253628Y-135085714D01*
X125253628Y-135085714D02*
X125206009Y-135133333D01*
X125206009Y-135133333D02*
X125158390Y-135228571D01*
X150582142Y-112884580D02*
X150534523Y-112932200D01*
X150534523Y-112932200D02*
X150391666Y-112979819D01*
X150391666Y-112979819D02*
X150296428Y-112979819D01*
X150296428Y-112979819D02*
X150153571Y-112932200D01*
X150153571Y-112932200D02*
X150058333Y-112836961D01*
X150058333Y-112836961D02*
X150010714Y-112741723D01*
X150010714Y-112741723D02*
X149963095Y-112551247D01*
X149963095Y-112551247D02*
X149963095Y-112408390D01*
X149963095Y-112408390D02*
X150010714Y-112217914D01*
X150010714Y-112217914D02*
X150058333Y-112122676D01*
X150058333Y-112122676D02*
X150153571Y-112027438D01*
X150153571Y-112027438D02*
X150296428Y-111979819D01*
X150296428Y-111979819D02*
X150391666Y-111979819D01*
X150391666Y-111979819D02*
X150534523Y-112027438D01*
X150534523Y-112027438D02*
X150582142Y-112075057D01*
X151534523Y-112979819D02*
X150963095Y-112979819D01*
X151248809Y-112979819D02*
X151248809Y-111979819D01*
X151248809Y-111979819D02*
X151153571Y-112122676D01*
X151153571Y-112122676D02*
X151058333Y-112217914D01*
X151058333Y-112217914D02*
X150963095Y-112265533D01*
X151867857Y-111979819D02*
X152534523Y-111979819D01*
X152534523Y-111979819D02*
X152105952Y-112979819D01*
X146857142Y-112859580D02*
X146809523Y-112907200D01*
X146809523Y-112907200D02*
X146666666Y-112954819D01*
X146666666Y-112954819D02*
X146571428Y-112954819D01*
X146571428Y-112954819D02*
X146428571Y-112907200D01*
X146428571Y-112907200D02*
X146333333Y-112811961D01*
X146333333Y-112811961D02*
X146285714Y-112716723D01*
X146285714Y-112716723D02*
X146238095Y-112526247D01*
X146238095Y-112526247D02*
X146238095Y-112383390D01*
X146238095Y-112383390D02*
X146285714Y-112192914D01*
X146285714Y-112192914D02*
X146333333Y-112097676D01*
X146333333Y-112097676D02*
X146428571Y-112002438D01*
X146428571Y-112002438D02*
X146571428Y-111954819D01*
X146571428Y-111954819D02*
X146666666Y-111954819D01*
X146666666Y-111954819D02*
X146809523Y-112002438D01*
X146809523Y-112002438D02*
X146857142Y-112050057D01*
X147809523Y-112954819D02*
X147238095Y-112954819D01*
X147523809Y-112954819D02*
X147523809Y-111954819D01*
X147523809Y-111954819D02*
X147428571Y-112097676D01*
X147428571Y-112097676D02*
X147333333Y-112192914D01*
X147333333Y-112192914D02*
X147238095Y-112240533D01*
X148666666Y-111954819D02*
X148476190Y-111954819D01*
X148476190Y-111954819D02*
X148380952Y-112002438D01*
X148380952Y-112002438D02*
X148333333Y-112050057D01*
X148333333Y-112050057D02*
X148238095Y-112192914D01*
X148238095Y-112192914D02*
X148190476Y-112383390D01*
X148190476Y-112383390D02*
X148190476Y-112764342D01*
X148190476Y-112764342D02*
X148238095Y-112859580D01*
X148238095Y-112859580D02*
X148285714Y-112907200D01*
X148285714Y-112907200D02*
X148380952Y-112954819D01*
X148380952Y-112954819D02*
X148571428Y-112954819D01*
X148571428Y-112954819D02*
X148666666Y-112907200D01*
X148666666Y-112907200D02*
X148714285Y-112859580D01*
X148714285Y-112859580D02*
X148761904Y-112764342D01*
X148761904Y-112764342D02*
X148761904Y-112526247D01*
X148761904Y-112526247D02*
X148714285Y-112431009D01*
X148714285Y-112431009D02*
X148666666Y-112383390D01*
X148666666Y-112383390D02*
X148571428Y-112335771D01*
X148571428Y-112335771D02*
X148380952Y-112335771D01*
X148380952Y-112335771D02*
X148285714Y-112383390D01*
X148285714Y-112383390D02*
X148238095Y-112431009D01*
X148238095Y-112431009D02*
X148190476Y-112526247D01*
X137144642Y-77359580D02*
X137097023Y-77407200D01*
X137097023Y-77407200D02*
X136954166Y-77454819D01*
X136954166Y-77454819D02*
X136858928Y-77454819D01*
X136858928Y-77454819D02*
X136716071Y-77407200D01*
X136716071Y-77407200D02*
X136620833Y-77311961D01*
X136620833Y-77311961D02*
X136573214Y-77216723D01*
X136573214Y-77216723D02*
X136525595Y-77026247D01*
X136525595Y-77026247D02*
X136525595Y-76883390D01*
X136525595Y-76883390D02*
X136573214Y-76692914D01*
X136573214Y-76692914D02*
X136620833Y-76597676D01*
X136620833Y-76597676D02*
X136716071Y-76502438D01*
X136716071Y-76502438D02*
X136858928Y-76454819D01*
X136858928Y-76454819D02*
X136954166Y-76454819D01*
X136954166Y-76454819D02*
X137097023Y-76502438D01*
X137097023Y-76502438D02*
X137144642Y-76550057D01*
X138097023Y-77454819D02*
X137525595Y-77454819D01*
X137811309Y-77454819D02*
X137811309Y-76454819D01*
X137811309Y-76454819D02*
X137716071Y-76597676D01*
X137716071Y-76597676D02*
X137620833Y-76692914D01*
X137620833Y-76692914D02*
X137525595Y-76740533D01*
X139001785Y-76454819D02*
X138525595Y-76454819D01*
X138525595Y-76454819D02*
X138477976Y-76931009D01*
X138477976Y-76931009D02*
X138525595Y-76883390D01*
X138525595Y-76883390D02*
X138620833Y-76835771D01*
X138620833Y-76835771D02*
X138858928Y-76835771D01*
X138858928Y-76835771D02*
X138954166Y-76883390D01*
X138954166Y-76883390D02*
X139001785Y-76931009D01*
X139001785Y-76931009D02*
X139049404Y-77026247D01*
X139049404Y-77026247D02*
X139049404Y-77264342D01*
X139049404Y-77264342D02*
X139001785Y-77359580D01*
X139001785Y-77359580D02*
X138954166Y-77407200D01*
X138954166Y-77407200D02*
X138858928Y-77454819D01*
X138858928Y-77454819D02*
X138620833Y-77454819D01*
X138620833Y-77454819D02*
X138525595Y-77407200D01*
X138525595Y-77407200D02*
X138477976Y-77359580D01*
X137044642Y-96709580D02*
X136997023Y-96757200D01*
X136997023Y-96757200D02*
X136854166Y-96804819D01*
X136854166Y-96804819D02*
X136758928Y-96804819D01*
X136758928Y-96804819D02*
X136616071Y-96757200D01*
X136616071Y-96757200D02*
X136520833Y-96661961D01*
X136520833Y-96661961D02*
X136473214Y-96566723D01*
X136473214Y-96566723D02*
X136425595Y-96376247D01*
X136425595Y-96376247D02*
X136425595Y-96233390D01*
X136425595Y-96233390D02*
X136473214Y-96042914D01*
X136473214Y-96042914D02*
X136520833Y-95947676D01*
X136520833Y-95947676D02*
X136616071Y-95852438D01*
X136616071Y-95852438D02*
X136758928Y-95804819D01*
X136758928Y-95804819D02*
X136854166Y-95804819D01*
X136854166Y-95804819D02*
X136997023Y-95852438D01*
X136997023Y-95852438D02*
X137044642Y-95900057D01*
X137997023Y-96804819D02*
X137425595Y-96804819D01*
X137711309Y-96804819D02*
X137711309Y-95804819D01*
X137711309Y-95804819D02*
X137616071Y-95947676D01*
X137616071Y-95947676D02*
X137520833Y-96042914D01*
X137520833Y-96042914D02*
X137425595Y-96090533D01*
X138854166Y-96138152D02*
X138854166Y-96804819D01*
X138616071Y-95757200D02*
X138377976Y-96471485D01*
X138377976Y-96471485D02*
X138997023Y-96471485D01*
X137119642Y-101384580D02*
X137072023Y-101432200D01*
X137072023Y-101432200D02*
X136929166Y-101479819D01*
X136929166Y-101479819D02*
X136833928Y-101479819D01*
X136833928Y-101479819D02*
X136691071Y-101432200D01*
X136691071Y-101432200D02*
X136595833Y-101336961D01*
X136595833Y-101336961D02*
X136548214Y-101241723D01*
X136548214Y-101241723D02*
X136500595Y-101051247D01*
X136500595Y-101051247D02*
X136500595Y-100908390D01*
X136500595Y-100908390D02*
X136548214Y-100717914D01*
X136548214Y-100717914D02*
X136595833Y-100622676D01*
X136595833Y-100622676D02*
X136691071Y-100527438D01*
X136691071Y-100527438D02*
X136833928Y-100479819D01*
X136833928Y-100479819D02*
X136929166Y-100479819D01*
X136929166Y-100479819D02*
X137072023Y-100527438D01*
X137072023Y-100527438D02*
X137119642Y-100575057D01*
X138072023Y-101479819D02*
X137500595Y-101479819D01*
X137786309Y-101479819D02*
X137786309Y-100479819D01*
X137786309Y-100479819D02*
X137691071Y-100622676D01*
X137691071Y-100622676D02*
X137595833Y-100717914D01*
X137595833Y-100717914D02*
X137500595Y-100765533D01*
X138405357Y-100479819D02*
X139024404Y-100479819D01*
X139024404Y-100479819D02*
X138691071Y-100860771D01*
X138691071Y-100860771D02*
X138833928Y-100860771D01*
X138833928Y-100860771D02*
X138929166Y-100908390D01*
X138929166Y-100908390D02*
X138976785Y-100956009D01*
X138976785Y-100956009D02*
X139024404Y-101051247D01*
X139024404Y-101051247D02*
X139024404Y-101289342D01*
X139024404Y-101289342D02*
X138976785Y-101384580D01*
X138976785Y-101384580D02*
X138929166Y-101432200D01*
X138929166Y-101432200D02*
X138833928Y-101479819D01*
X138833928Y-101479819D02*
X138548214Y-101479819D01*
X138548214Y-101479819D02*
X138452976Y-101432200D01*
X138452976Y-101432200D02*
X138405357Y-101384580D01*
X137194642Y-72459580D02*
X137147023Y-72507200D01*
X137147023Y-72507200D02*
X137004166Y-72554819D01*
X137004166Y-72554819D02*
X136908928Y-72554819D01*
X136908928Y-72554819D02*
X136766071Y-72507200D01*
X136766071Y-72507200D02*
X136670833Y-72411961D01*
X136670833Y-72411961D02*
X136623214Y-72316723D01*
X136623214Y-72316723D02*
X136575595Y-72126247D01*
X136575595Y-72126247D02*
X136575595Y-71983390D01*
X136575595Y-71983390D02*
X136623214Y-71792914D01*
X136623214Y-71792914D02*
X136670833Y-71697676D01*
X136670833Y-71697676D02*
X136766071Y-71602438D01*
X136766071Y-71602438D02*
X136908928Y-71554819D01*
X136908928Y-71554819D02*
X137004166Y-71554819D01*
X137004166Y-71554819D02*
X137147023Y-71602438D01*
X137147023Y-71602438D02*
X137194642Y-71650057D01*
X138147023Y-72554819D02*
X137575595Y-72554819D01*
X137861309Y-72554819D02*
X137861309Y-71554819D01*
X137861309Y-71554819D02*
X137766071Y-71697676D01*
X137766071Y-71697676D02*
X137670833Y-71792914D01*
X137670833Y-71792914D02*
X137575595Y-71840533D01*
X138527976Y-71650057D02*
X138575595Y-71602438D01*
X138575595Y-71602438D02*
X138670833Y-71554819D01*
X138670833Y-71554819D02*
X138908928Y-71554819D01*
X138908928Y-71554819D02*
X139004166Y-71602438D01*
X139004166Y-71602438D02*
X139051785Y-71650057D01*
X139051785Y-71650057D02*
X139099404Y-71745295D01*
X139099404Y-71745295D02*
X139099404Y-71840533D01*
X139099404Y-71840533D02*
X139051785Y-71983390D01*
X139051785Y-71983390D02*
X138480357Y-72554819D01*
X138480357Y-72554819D02*
X139099404Y-72554819D01*
X129009580Y-133730357D02*
X129057200Y-133777976D01*
X129057200Y-133777976D02*
X129104819Y-133920833D01*
X129104819Y-133920833D02*
X129104819Y-134016071D01*
X129104819Y-134016071D02*
X129057200Y-134158928D01*
X129057200Y-134158928D02*
X128961961Y-134254166D01*
X128961961Y-134254166D02*
X128866723Y-134301785D01*
X128866723Y-134301785D02*
X128676247Y-134349404D01*
X128676247Y-134349404D02*
X128533390Y-134349404D01*
X128533390Y-134349404D02*
X128342914Y-134301785D01*
X128342914Y-134301785D02*
X128247676Y-134254166D01*
X128247676Y-134254166D02*
X128152438Y-134158928D01*
X128152438Y-134158928D02*
X128104819Y-134016071D01*
X128104819Y-134016071D02*
X128104819Y-133920833D01*
X128104819Y-133920833D02*
X128152438Y-133777976D01*
X128152438Y-133777976D02*
X128200057Y-133730357D01*
X129104819Y-132777976D02*
X129104819Y-133349404D01*
X129104819Y-133063690D02*
X128104819Y-133063690D01*
X128104819Y-133063690D02*
X128247676Y-133158928D01*
X128247676Y-133158928D02*
X128342914Y-133254166D01*
X128342914Y-133254166D02*
X128390533Y-133349404D01*
X129104819Y-131825595D02*
X129104819Y-132397023D01*
X129104819Y-132111309D02*
X128104819Y-132111309D01*
X128104819Y-132111309D02*
X128247676Y-132206547D01*
X128247676Y-132206547D02*
X128342914Y-132301785D01*
X128342914Y-132301785D02*
X128390533Y-132397023D01*
X137194642Y-91959580D02*
X137147023Y-92007200D01*
X137147023Y-92007200D02*
X137004166Y-92054819D01*
X137004166Y-92054819D02*
X136908928Y-92054819D01*
X136908928Y-92054819D02*
X136766071Y-92007200D01*
X136766071Y-92007200D02*
X136670833Y-91911961D01*
X136670833Y-91911961D02*
X136623214Y-91816723D01*
X136623214Y-91816723D02*
X136575595Y-91626247D01*
X136575595Y-91626247D02*
X136575595Y-91483390D01*
X136575595Y-91483390D02*
X136623214Y-91292914D01*
X136623214Y-91292914D02*
X136670833Y-91197676D01*
X136670833Y-91197676D02*
X136766071Y-91102438D01*
X136766071Y-91102438D02*
X136908928Y-91054819D01*
X136908928Y-91054819D02*
X137004166Y-91054819D01*
X137004166Y-91054819D02*
X137147023Y-91102438D01*
X137147023Y-91102438D02*
X137194642Y-91150057D01*
X138147023Y-92054819D02*
X137575595Y-92054819D01*
X137861309Y-92054819D02*
X137861309Y-91054819D01*
X137861309Y-91054819D02*
X137766071Y-91197676D01*
X137766071Y-91197676D02*
X137670833Y-91292914D01*
X137670833Y-91292914D02*
X137575595Y-91340533D01*
X138766071Y-91054819D02*
X138861309Y-91054819D01*
X138861309Y-91054819D02*
X138956547Y-91102438D01*
X138956547Y-91102438D02*
X139004166Y-91150057D01*
X139004166Y-91150057D02*
X139051785Y-91245295D01*
X139051785Y-91245295D02*
X139099404Y-91435771D01*
X139099404Y-91435771D02*
X139099404Y-91673866D01*
X139099404Y-91673866D02*
X139051785Y-91864342D01*
X139051785Y-91864342D02*
X139004166Y-91959580D01*
X139004166Y-91959580D02*
X138956547Y-92007200D01*
X138956547Y-92007200D02*
X138861309Y-92054819D01*
X138861309Y-92054819D02*
X138766071Y-92054819D01*
X138766071Y-92054819D02*
X138670833Y-92007200D01*
X138670833Y-92007200D02*
X138623214Y-91959580D01*
X138623214Y-91959580D02*
X138575595Y-91864342D01*
X138575595Y-91864342D02*
X138527976Y-91673866D01*
X138527976Y-91673866D02*
X138527976Y-91435771D01*
X138527976Y-91435771D02*
X138575595Y-91245295D01*
X138575595Y-91245295D02*
X138623214Y-91150057D01*
X138623214Y-91150057D02*
X138670833Y-91102438D01*
X138670833Y-91102438D02*
X138766071Y-91054819D01*
X137695833Y-86734580D02*
X137648214Y-86782200D01*
X137648214Y-86782200D02*
X137505357Y-86829819D01*
X137505357Y-86829819D02*
X137410119Y-86829819D01*
X137410119Y-86829819D02*
X137267262Y-86782200D01*
X137267262Y-86782200D02*
X137172024Y-86686961D01*
X137172024Y-86686961D02*
X137124405Y-86591723D01*
X137124405Y-86591723D02*
X137076786Y-86401247D01*
X137076786Y-86401247D02*
X137076786Y-86258390D01*
X137076786Y-86258390D02*
X137124405Y-86067914D01*
X137124405Y-86067914D02*
X137172024Y-85972676D01*
X137172024Y-85972676D02*
X137267262Y-85877438D01*
X137267262Y-85877438D02*
X137410119Y-85829819D01*
X137410119Y-85829819D02*
X137505357Y-85829819D01*
X137505357Y-85829819D02*
X137648214Y-85877438D01*
X137648214Y-85877438D02*
X137695833Y-85925057D01*
X138172024Y-86829819D02*
X138362500Y-86829819D01*
X138362500Y-86829819D02*
X138457738Y-86782200D01*
X138457738Y-86782200D02*
X138505357Y-86734580D01*
X138505357Y-86734580D02*
X138600595Y-86591723D01*
X138600595Y-86591723D02*
X138648214Y-86401247D01*
X138648214Y-86401247D02*
X138648214Y-86020295D01*
X138648214Y-86020295D02*
X138600595Y-85925057D01*
X138600595Y-85925057D02*
X138552976Y-85877438D01*
X138552976Y-85877438D02*
X138457738Y-85829819D01*
X138457738Y-85829819D02*
X138267262Y-85829819D01*
X138267262Y-85829819D02*
X138172024Y-85877438D01*
X138172024Y-85877438D02*
X138124405Y-85925057D01*
X138124405Y-85925057D02*
X138076786Y-86020295D01*
X138076786Y-86020295D02*
X138076786Y-86258390D01*
X138076786Y-86258390D02*
X138124405Y-86353628D01*
X138124405Y-86353628D02*
X138172024Y-86401247D01*
X138172024Y-86401247D02*
X138267262Y-86448866D01*
X138267262Y-86448866D02*
X138457738Y-86448866D01*
X138457738Y-86448866D02*
X138552976Y-86401247D01*
X138552976Y-86401247D02*
X138600595Y-86353628D01*
X138600595Y-86353628D02*
X138648214Y-86258390D01*
X137645833Y-81959580D02*
X137598214Y-82007200D01*
X137598214Y-82007200D02*
X137455357Y-82054819D01*
X137455357Y-82054819D02*
X137360119Y-82054819D01*
X137360119Y-82054819D02*
X137217262Y-82007200D01*
X137217262Y-82007200D02*
X137122024Y-81911961D01*
X137122024Y-81911961D02*
X137074405Y-81816723D01*
X137074405Y-81816723D02*
X137026786Y-81626247D01*
X137026786Y-81626247D02*
X137026786Y-81483390D01*
X137026786Y-81483390D02*
X137074405Y-81292914D01*
X137074405Y-81292914D02*
X137122024Y-81197676D01*
X137122024Y-81197676D02*
X137217262Y-81102438D01*
X137217262Y-81102438D02*
X137360119Y-81054819D01*
X137360119Y-81054819D02*
X137455357Y-81054819D01*
X137455357Y-81054819D02*
X137598214Y-81102438D01*
X137598214Y-81102438D02*
X137645833Y-81150057D01*
X138217262Y-81483390D02*
X138122024Y-81435771D01*
X138122024Y-81435771D02*
X138074405Y-81388152D01*
X138074405Y-81388152D02*
X138026786Y-81292914D01*
X138026786Y-81292914D02*
X138026786Y-81245295D01*
X138026786Y-81245295D02*
X138074405Y-81150057D01*
X138074405Y-81150057D02*
X138122024Y-81102438D01*
X138122024Y-81102438D02*
X138217262Y-81054819D01*
X138217262Y-81054819D02*
X138407738Y-81054819D01*
X138407738Y-81054819D02*
X138502976Y-81102438D01*
X138502976Y-81102438D02*
X138550595Y-81150057D01*
X138550595Y-81150057D02*
X138598214Y-81245295D01*
X138598214Y-81245295D02*
X138598214Y-81292914D01*
X138598214Y-81292914D02*
X138550595Y-81388152D01*
X138550595Y-81388152D02*
X138502976Y-81435771D01*
X138502976Y-81435771D02*
X138407738Y-81483390D01*
X138407738Y-81483390D02*
X138217262Y-81483390D01*
X138217262Y-81483390D02*
X138122024Y-81531009D01*
X138122024Y-81531009D02*
X138074405Y-81578628D01*
X138074405Y-81578628D02*
X138026786Y-81673866D01*
X138026786Y-81673866D02*
X138026786Y-81864342D01*
X138026786Y-81864342D02*
X138074405Y-81959580D01*
X138074405Y-81959580D02*
X138122024Y-82007200D01*
X138122024Y-82007200D02*
X138217262Y-82054819D01*
X138217262Y-82054819D02*
X138407738Y-82054819D01*
X138407738Y-82054819D02*
X138502976Y-82007200D01*
X138502976Y-82007200D02*
X138550595Y-81959580D01*
X138550595Y-81959580D02*
X138598214Y-81864342D01*
X138598214Y-81864342D02*
X138598214Y-81673866D01*
X138598214Y-81673866D02*
X138550595Y-81578628D01*
X138550595Y-81578628D02*
X138502976Y-81531009D01*
X138502976Y-81531009D02*
X138407738Y-81483390D01*
X178445833Y-128709580D02*
X178398214Y-128757200D01*
X178398214Y-128757200D02*
X178255357Y-128804819D01*
X178255357Y-128804819D02*
X178160119Y-128804819D01*
X178160119Y-128804819D02*
X178017262Y-128757200D01*
X178017262Y-128757200D02*
X177922024Y-128661961D01*
X177922024Y-128661961D02*
X177874405Y-128566723D01*
X177874405Y-128566723D02*
X177826786Y-128376247D01*
X177826786Y-128376247D02*
X177826786Y-128233390D01*
X177826786Y-128233390D02*
X177874405Y-128042914D01*
X177874405Y-128042914D02*
X177922024Y-127947676D01*
X177922024Y-127947676D02*
X178017262Y-127852438D01*
X178017262Y-127852438D02*
X178160119Y-127804819D01*
X178160119Y-127804819D02*
X178255357Y-127804819D01*
X178255357Y-127804819D02*
X178398214Y-127852438D01*
X178398214Y-127852438D02*
X178445833Y-127900057D01*
X179302976Y-127804819D02*
X179112500Y-127804819D01*
X179112500Y-127804819D02*
X179017262Y-127852438D01*
X179017262Y-127852438D02*
X178969643Y-127900057D01*
X178969643Y-127900057D02*
X178874405Y-128042914D01*
X178874405Y-128042914D02*
X178826786Y-128233390D01*
X178826786Y-128233390D02*
X178826786Y-128614342D01*
X178826786Y-128614342D02*
X178874405Y-128709580D01*
X178874405Y-128709580D02*
X178922024Y-128757200D01*
X178922024Y-128757200D02*
X179017262Y-128804819D01*
X179017262Y-128804819D02*
X179207738Y-128804819D01*
X179207738Y-128804819D02*
X179302976Y-128757200D01*
X179302976Y-128757200D02*
X179350595Y-128709580D01*
X179350595Y-128709580D02*
X179398214Y-128614342D01*
X179398214Y-128614342D02*
X179398214Y-128376247D01*
X179398214Y-128376247D02*
X179350595Y-128281009D01*
X179350595Y-128281009D02*
X179302976Y-128233390D01*
X179302976Y-128233390D02*
X179207738Y-128185771D01*
X179207738Y-128185771D02*
X179017262Y-128185771D01*
X179017262Y-128185771D02*
X178922024Y-128233390D01*
X178922024Y-128233390D02*
X178874405Y-128281009D01*
X178874405Y-128281009D02*
X178826786Y-128376247D01*
X186145833Y-123184580D02*
X186098214Y-123232200D01*
X186098214Y-123232200D02*
X185955357Y-123279819D01*
X185955357Y-123279819D02*
X185860119Y-123279819D01*
X185860119Y-123279819D02*
X185717262Y-123232200D01*
X185717262Y-123232200D02*
X185622024Y-123136961D01*
X185622024Y-123136961D02*
X185574405Y-123041723D01*
X185574405Y-123041723D02*
X185526786Y-122851247D01*
X185526786Y-122851247D02*
X185526786Y-122708390D01*
X185526786Y-122708390D02*
X185574405Y-122517914D01*
X185574405Y-122517914D02*
X185622024Y-122422676D01*
X185622024Y-122422676D02*
X185717262Y-122327438D01*
X185717262Y-122327438D02*
X185860119Y-122279819D01*
X185860119Y-122279819D02*
X185955357Y-122279819D01*
X185955357Y-122279819D02*
X186098214Y-122327438D01*
X186098214Y-122327438D02*
X186145833Y-122375057D01*
X187002976Y-122613152D02*
X187002976Y-123279819D01*
X186764881Y-122232200D02*
X186526786Y-122946485D01*
X186526786Y-122946485D02*
X187145833Y-122946485D01*
X130070833Y-92884580D02*
X130023214Y-92932200D01*
X130023214Y-92932200D02*
X129880357Y-92979819D01*
X129880357Y-92979819D02*
X129785119Y-92979819D01*
X129785119Y-92979819D02*
X129642262Y-92932200D01*
X129642262Y-92932200D02*
X129547024Y-92836961D01*
X129547024Y-92836961D02*
X129499405Y-92741723D01*
X129499405Y-92741723D02*
X129451786Y-92551247D01*
X129451786Y-92551247D02*
X129451786Y-92408390D01*
X129451786Y-92408390D02*
X129499405Y-92217914D01*
X129499405Y-92217914D02*
X129547024Y-92122676D01*
X129547024Y-92122676D02*
X129642262Y-92027438D01*
X129642262Y-92027438D02*
X129785119Y-91979819D01*
X129785119Y-91979819D02*
X129880357Y-91979819D01*
X129880357Y-91979819D02*
X130023214Y-92027438D01*
X130023214Y-92027438D02*
X130070833Y-92075057D01*
X130451786Y-92075057D02*
X130499405Y-92027438D01*
X130499405Y-92027438D02*
X130594643Y-91979819D01*
X130594643Y-91979819D02*
X130832738Y-91979819D01*
X130832738Y-91979819D02*
X130927976Y-92027438D01*
X130927976Y-92027438D02*
X130975595Y-92075057D01*
X130975595Y-92075057D02*
X131023214Y-92170295D01*
X131023214Y-92170295D02*
X131023214Y-92265533D01*
X131023214Y-92265533D02*
X130975595Y-92408390D01*
X130975595Y-92408390D02*
X130404167Y-92979819D01*
X130404167Y-92979819D02*
X131023214Y-92979819D01*
X141381009Y-108585714D02*
X141428628Y-108442857D01*
X141428628Y-108442857D02*
X141476247Y-108395238D01*
X141476247Y-108395238D02*
X141571485Y-108347619D01*
X141571485Y-108347619D02*
X141714342Y-108347619D01*
X141714342Y-108347619D02*
X141809580Y-108395238D01*
X141809580Y-108395238D02*
X141857200Y-108442857D01*
X141857200Y-108442857D02*
X141904819Y-108538095D01*
X141904819Y-108538095D02*
X141904819Y-108919047D01*
X141904819Y-108919047D02*
X140904819Y-108919047D01*
X140904819Y-108919047D02*
X140904819Y-108585714D01*
X140904819Y-108585714D02*
X140952438Y-108490476D01*
X140952438Y-108490476D02*
X141000057Y-108442857D01*
X141000057Y-108442857D02*
X141095295Y-108395238D01*
X141095295Y-108395238D02*
X141190533Y-108395238D01*
X141190533Y-108395238D02*
X141285771Y-108442857D01*
X141285771Y-108442857D02*
X141333390Y-108490476D01*
X141333390Y-108490476D02*
X141381009Y-108585714D01*
X141381009Y-108585714D02*
X141381009Y-108919047D01*
X140904819Y-108061904D02*
X140904819Y-107490476D01*
X141904819Y-107776190D02*
X140904819Y-107776190D01*
X141904819Y-106633333D02*
X141904819Y-107204761D01*
X141904819Y-106919047D02*
X140904819Y-106919047D01*
X140904819Y-106919047D02*
X141047676Y-107014285D01*
X141047676Y-107014285D02*
X141142914Y-107109523D01*
X141142914Y-107109523D02*
X141190533Y-107204761D01*
X152037200Y-113642857D02*
X152037200Y-111357143D01*
X153180057Y-112500000D02*
X150894342Y-112500000D01*
X183129819Y-137186904D02*
X183939342Y-137186904D01*
X183939342Y-137186904D02*
X184034580Y-137139285D01*
X184034580Y-137139285D02*
X184082200Y-137091666D01*
X184082200Y-137091666D02*
X184129819Y-136996428D01*
X184129819Y-136996428D02*
X184129819Y-136805952D01*
X184129819Y-136805952D02*
X184082200Y-136710714D01*
X184082200Y-136710714D02*
X184034580Y-136663095D01*
X184034580Y-136663095D02*
X183939342Y-136615476D01*
X183939342Y-136615476D02*
X183129819Y-136615476D01*
X184129819Y-135615476D02*
X184129819Y-136186904D01*
X184129819Y-135901190D02*
X183129819Y-135901190D01*
X183129819Y-135901190D02*
X183272676Y-135996428D01*
X183272676Y-135996428D02*
X183367914Y-136091666D01*
X183367914Y-136091666D02*
X183415533Y-136186904D01*
X183215476Y-119294819D02*
X182739286Y-119294819D01*
X182739286Y-119294819D02*
X182739286Y-118294819D01*
X183548810Y-119294819D02*
X183548810Y-118294819D01*
X183548810Y-118294819D02*
X183786905Y-118294819D01*
X183786905Y-118294819D02*
X183929762Y-118342438D01*
X183929762Y-118342438D02*
X184025000Y-118437676D01*
X184025000Y-118437676D02*
X184072619Y-118532914D01*
X184072619Y-118532914D02*
X184120238Y-118723390D01*
X184120238Y-118723390D02*
X184120238Y-118866247D01*
X184120238Y-118866247D02*
X184072619Y-119056723D01*
X184072619Y-119056723D02*
X184025000Y-119151961D01*
X184025000Y-119151961D02*
X183929762Y-119247200D01*
X183929762Y-119247200D02*
X183786905Y-119294819D01*
X183786905Y-119294819D02*
X183548810Y-119294819D01*
X184739286Y-118294819D02*
X184929762Y-118294819D01*
X184929762Y-118294819D02*
X185025000Y-118342438D01*
X185025000Y-118342438D02*
X185120238Y-118437676D01*
X185120238Y-118437676D02*
X185167857Y-118628152D01*
X185167857Y-118628152D02*
X185167857Y-118961485D01*
X185167857Y-118961485D02*
X185120238Y-119151961D01*
X185120238Y-119151961D02*
X185025000Y-119247200D01*
X185025000Y-119247200D02*
X184929762Y-119294819D01*
X184929762Y-119294819D02*
X184739286Y-119294819D01*
X184739286Y-119294819D02*
X184644048Y-119247200D01*
X184644048Y-119247200D02*
X184548810Y-119151961D01*
X184548810Y-119151961D02*
X184501191Y-118961485D01*
X184501191Y-118961485D02*
X184501191Y-118628152D01*
X184501191Y-118628152D02*
X184548810Y-118437676D01*
X184548810Y-118437676D02*
X184644048Y-118342438D01*
X184644048Y-118342438D02*
X184739286Y-118294819D01*
X185501191Y-118294819D02*
X186120238Y-118294819D01*
X186120238Y-118294819D02*
X185786905Y-118675771D01*
X185786905Y-118675771D02*
X185929762Y-118675771D01*
X185929762Y-118675771D02*
X186025000Y-118723390D01*
X186025000Y-118723390D02*
X186072619Y-118771009D01*
X186072619Y-118771009D02*
X186120238Y-118866247D01*
X186120238Y-118866247D02*
X186120238Y-119104342D01*
X186120238Y-119104342D02*
X186072619Y-119199580D01*
X186072619Y-119199580D02*
X186025000Y-119247200D01*
X186025000Y-119247200D02*
X185929762Y-119294819D01*
X185929762Y-119294819D02*
X185644048Y-119294819D01*
X185644048Y-119294819D02*
X185548810Y-119247200D01*
X185548810Y-119247200D02*
X185501191Y-119199580D01*
X186548810Y-119199580D02*
X186596429Y-119247200D01*
X186596429Y-119247200D02*
X186548810Y-119294819D01*
X186548810Y-119294819D02*
X186501191Y-119247200D01*
X186501191Y-119247200D02*
X186548810Y-119199580D01*
X186548810Y-119199580D02*
X186548810Y-119294819D01*
X186929762Y-118294819D02*
X187548809Y-118294819D01*
X187548809Y-118294819D02*
X187215476Y-118675771D01*
X187215476Y-118675771D02*
X187358333Y-118675771D01*
X187358333Y-118675771D02*
X187453571Y-118723390D01*
X187453571Y-118723390D02*
X187501190Y-118771009D01*
X187501190Y-118771009D02*
X187548809Y-118866247D01*
X187548809Y-118866247D02*
X187548809Y-119104342D01*
X187548809Y-119104342D02*
X187501190Y-119199580D01*
X187501190Y-119199580D02*
X187453571Y-119247200D01*
X187453571Y-119247200D02*
X187358333Y-119294819D01*
X187358333Y-119294819D02*
X187072619Y-119294819D01*
X187072619Y-119294819D02*
X186977381Y-119247200D01*
X186977381Y-119247200D02*
X186929762Y-119199580D01*
X187834524Y-118294819D02*
X188167857Y-119294819D01*
X188167857Y-119294819D02*
X188501190Y-118294819D01*
X189358333Y-119294819D02*
X188786905Y-119294819D01*
X189072619Y-119294819D02*
X189072619Y-118294819D01*
X189072619Y-118294819D02*
X188977381Y-118437676D01*
X188977381Y-118437676D02*
X188882143Y-118532914D01*
X188882143Y-118532914D02*
X188786905Y-118580533D01*
X167754819Y-118134523D02*
X167754819Y-118610713D01*
X167754819Y-118610713D02*
X166754819Y-118610713D01*
X167754819Y-117801189D02*
X166754819Y-117801189D01*
X166754819Y-117801189D02*
X166754819Y-117563094D01*
X166754819Y-117563094D02*
X166802438Y-117420237D01*
X166802438Y-117420237D02*
X166897676Y-117324999D01*
X166897676Y-117324999D02*
X166992914Y-117277380D01*
X166992914Y-117277380D02*
X167183390Y-117229761D01*
X167183390Y-117229761D02*
X167326247Y-117229761D01*
X167326247Y-117229761D02*
X167516723Y-117277380D01*
X167516723Y-117277380D02*
X167611961Y-117324999D01*
X167611961Y-117324999D02*
X167707200Y-117420237D01*
X167707200Y-117420237D02*
X167754819Y-117563094D01*
X167754819Y-117563094D02*
X167754819Y-117801189D01*
X166754819Y-116610713D02*
X166754819Y-116420237D01*
X166754819Y-116420237D02*
X166802438Y-116324999D01*
X166802438Y-116324999D02*
X166897676Y-116229761D01*
X166897676Y-116229761D02*
X167088152Y-116182142D01*
X167088152Y-116182142D02*
X167421485Y-116182142D01*
X167421485Y-116182142D02*
X167611961Y-116229761D01*
X167611961Y-116229761D02*
X167707200Y-116324999D01*
X167707200Y-116324999D02*
X167754819Y-116420237D01*
X167754819Y-116420237D02*
X167754819Y-116610713D01*
X167754819Y-116610713D02*
X167707200Y-116705951D01*
X167707200Y-116705951D02*
X167611961Y-116801189D01*
X167611961Y-116801189D02*
X167421485Y-116848808D01*
X167421485Y-116848808D02*
X167088152Y-116848808D01*
X167088152Y-116848808D02*
X166897676Y-116801189D01*
X166897676Y-116801189D02*
X166802438Y-116705951D01*
X166802438Y-116705951D02*
X166754819Y-116610713D01*
X167754819Y-115229761D02*
X167754819Y-115801189D01*
X167754819Y-115515475D02*
X166754819Y-115515475D01*
X166754819Y-115515475D02*
X166897676Y-115610713D01*
X166897676Y-115610713D02*
X166992914Y-115705951D01*
X166992914Y-115705951D02*
X167040533Y-115801189D01*
X167659580Y-114801189D02*
X167707200Y-114753570D01*
X167707200Y-114753570D02*
X167754819Y-114801189D01*
X167754819Y-114801189D02*
X167707200Y-114848808D01*
X167707200Y-114848808D02*
X167659580Y-114801189D01*
X167659580Y-114801189D02*
X167754819Y-114801189D01*
X167183390Y-114182142D02*
X167135771Y-114277380D01*
X167135771Y-114277380D02*
X167088152Y-114324999D01*
X167088152Y-114324999D02*
X166992914Y-114372618D01*
X166992914Y-114372618D02*
X166945295Y-114372618D01*
X166945295Y-114372618D02*
X166850057Y-114324999D01*
X166850057Y-114324999D02*
X166802438Y-114277380D01*
X166802438Y-114277380D02*
X166754819Y-114182142D01*
X166754819Y-114182142D02*
X166754819Y-113991666D01*
X166754819Y-113991666D02*
X166802438Y-113896428D01*
X166802438Y-113896428D02*
X166850057Y-113848809D01*
X166850057Y-113848809D02*
X166945295Y-113801190D01*
X166945295Y-113801190D02*
X166992914Y-113801190D01*
X166992914Y-113801190D02*
X167088152Y-113848809D01*
X167088152Y-113848809D02*
X167135771Y-113896428D01*
X167135771Y-113896428D02*
X167183390Y-113991666D01*
X167183390Y-113991666D02*
X167183390Y-114182142D01*
X167183390Y-114182142D02*
X167231009Y-114277380D01*
X167231009Y-114277380D02*
X167278628Y-114324999D01*
X167278628Y-114324999D02*
X167373866Y-114372618D01*
X167373866Y-114372618D02*
X167564342Y-114372618D01*
X167564342Y-114372618D02*
X167659580Y-114324999D01*
X167659580Y-114324999D02*
X167707200Y-114277380D01*
X167707200Y-114277380D02*
X167754819Y-114182142D01*
X167754819Y-114182142D02*
X167754819Y-113991666D01*
X167754819Y-113991666D02*
X167707200Y-113896428D01*
X167707200Y-113896428D02*
X167659580Y-113848809D01*
X167659580Y-113848809D02*
X167564342Y-113801190D01*
X167564342Y-113801190D02*
X167373866Y-113801190D01*
X167373866Y-113801190D02*
X167278628Y-113848809D01*
X167278628Y-113848809D02*
X167231009Y-113896428D01*
X167231009Y-113896428D02*
X167183390Y-113991666D01*
X166754819Y-113515475D02*
X167754819Y-113182142D01*
X167754819Y-113182142D02*
X166754819Y-112848809D01*
X167754819Y-111991666D02*
X167754819Y-112563094D01*
X167754819Y-112277380D02*
X166754819Y-112277380D01*
X166754819Y-112277380D02*
X166897676Y-112372618D01*
X166897676Y-112372618D02*
X166992914Y-112467856D01*
X166992914Y-112467856D02*
X167040533Y-112563094D01*
X152654819Y-128099404D02*
X153464342Y-128099404D01*
X153464342Y-128099404D02*
X153559580Y-128051785D01*
X153559580Y-128051785D02*
X153607200Y-128004166D01*
X153607200Y-128004166D02*
X153654819Y-127908928D01*
X153654819Y-127908928D02*
X153654819Y-127718452D01*
X153654819Y-127718452D02*
X153607200Y-127623214D01*
X153607200Y-127623214D02*
X153559580Y-127575595D01*
X153559580Y-127575595D02*
X153464342Y-127527976D01*
X153464342Y-127527976D02*
X152654819Y-127527976D01*
X152654819Y-127147023D02*
X152654819Y-126527976D01*
X152654819Y-126527976D02*
X153035771Y-126861309D01*
X153035771Y-126861309D02*
X153035771Y-126718452D01*
X153035771Y-126718452D02*
X153083390Y-126623214D01*
X153083390Y-126623214D02*
X153131009Y-126575595D01*
X153131009Y-126575595D02*
X153226247Y-126527976D01*
X153226247Y-126527976D02*
X153464342Y-126527976D01*
X153464342Y-126527976D02*
X153559580Y-126575595D01*
X153559580Y-126575595D02*
X153607200Y-126623214D01*
X153607200Y-126623214D02*
X153654819Y-126718452D01*
X153654819Y-126718452D02*
X153654819Y-127004166D01*
X153654819Y-127004166D02*
X153607200Y-127099404D01*
X153607200Y-127099404D02*
X153559580Y-127147023D01*
X185675595Y-143129819D02*
X185675595Y-143939342D01*
X185675595Y-143939342D02*
X185723214Y-144034580D01*
X185723214Y-144034580D02*
X185770833Y-144082200D01*
X185770833Y-144082200D02*
X185866071Y-144129819D01*
X185866071Y-144129819D02*
X186056547Y-144129819D01*
X186056547Y-144129819D02*
X186151785Y-144082200D01*
X186151785Y-144082200D02*
X186199404Y-144034580D01*
X186199404Y-144034580D02*
X186247023Y-143939342D01*
X186247023Y-143939342D02*
X186247023Y-143129819D01*
X186675595Y-143225057D02*
X186723214Y-143177438D01*
X186723214Y-143177438D02*
X186818452Y-143129819D01*
X186818452Y-143129819D02*
X187056547Y-143129819D01*
X187056547Y-143129819D02*
X187151785Y-143177438D01*
X187151785Y-143177438D02*
X187199404Y-143225057D01*
X187199404Y-143225057D02*
X187247023Y-143320295D01*
X187247023Y-143320295D02*
X187247023Y-143415533D01*
X187247023Y-143415533D02*
X187199404Y-143558390D01*
X187199404Y-143558390D02*
X186627976Y-144129819D01*
X186627976Y-144129819D02*
X187247023Y-144129819D01*
D11*
%TO.C,R10*%
X132210436Y-126015000D02*
X132664564Y-126015000D01*
X132210436Y-127485000D02*
X132664564Y-127485000D01*
%TO.C,R22*%
X139189564Y-139010000D02*
X138735436Y-139010000D01*
X139189564Y-137540000D02*
X138735436Y-137540000D01*
%TO.C,R21*%
X153185436Y-137590000D02*
X153639564Y-137590000D01*
X153185436Y-139060000D02*
X153639564Y-139060000D01*
%TO.C,WifiModule1*%
X104642470Y-107630000D02*
X103840000Y-107630000D01*
X106060000Y-121535000D02*
X106060000Y-107630000D01*
X106060000Y-122295000D02*
X106060000Y-123055000D01*
X106060000Y-107630000D02*
X105257530Y-107630000D01*
X106060000Y-123055000D02*
X104950000Y-123055000D01*
X104386529Y-121535000D02*
X103840000Y-121535000D01*
X106060000Y-121535000D02*
X105513471Y-121535000D01*
X103840000Y-121535000D02*
X103840000Y-107630000D01*
%TO.C,R13*%
X169189564Y-129035000D02*
X168735436Y-129035000D01*
X169189564Y-127565000D02*
X168735436Y-127565000D01*
%TO.C,R11*%
X105565000Y-86414564D02*
X105565000Y-85960436D01*
X107035000Y-86414564D02*
X107035000Y-85960436D01*
%TO.C,R7*%
X102615000Y-86414564D02*
X102615000Y-85960436D01*
X104085000Y-86414564D02*
X104085000Y-85960436D01*
%TO.C,R5*%
X164085436Y-132690000D02*
X164539564Y-132690000D01*
X164085436Y-134160000D02*
X164539564Y-134160000D01*
%TO.C,LEDmodule1*%
X103890000Y-125430000D02*
X105000000Y-125430000D01*
X103890000Y-126950000D02*
X104436529Y-126950000D01*
X103890000Y-126190000D02*
X103890000Y-125430000D01*
X106110000Y-126950000D02*
X106110000Y-139585000D01*
X105307530Y-139585000D02*
X106110000Y-139585000D01*
X103890000Y-139585000D02*
X104692470Y-139585000D01*
X105563471Y-126950000D02*
X106110000Y-126950000D01*
X103890000Y-126950000D02*
X103890000Y-139585000D01*
%TO.C,J3*%
X105490000Y-92136529D02*
X105490000Y-91993471D01*
X105293471Y-92190000D02*
X105436529Y-92190000D01*
X103600000Y-91430000D02*
X103600000Y-90670000D01*
X107130000Y-90735000D02*
X107130000Y-103555000D01*
X106307530Y-103555000D02*
X107130000Y-103555000D01*
X103600000Y-92190000D02*
X104166529Y-92190000D01*
X103600000Y-90670000D02*
X104730000Y-90670000D01*
X103600000Y-92190000D02*
X103600000Y-103555000D01*
X105037530Y-103555000D02*
X105692470Y-103555000D01*
X106307530Y-90735000D02*
X107130000Y-90735000D01*
X105490000Y-90735000D02*
X105692470Y-90735000D01*
X103600000Y-103555000D02*
X104422470Y-103555000D01*
X105490000Y-90866529D02*
X105490000Y-90735000D01*
%TO.C,C7*%
X193810000Y-133685000D02*
X193810000Y-132485000D01*
X190354437Y-133685000D02*
X193810000Y-133685000D01*
X190354437Y-129165000D02*
X193810000Y-129165000D01*
X189290000Y-132620563D02*
X189290000Y-132485000D01*
X189290000Y-132620563D02*
X190354437Y-133685000D01*
X189290000Y-130229437D02*
X190354437Y-129165000D01*
X193810000Y-129165000D02*
X193810000Y-130365000D01*
X188800000Y-129615000D02*
X188800000Y-130115000D01*
X189290000Y-130229437D02*
X189290000Y-130365000D01*
X188550000Y-129865000D02*
X189050000Y-129865000D01*
%TO.C,C5*%
X180010000Y-122785000D02*
X180010000Y-121585000D01*
X176554437Y-122785000D02*
X180010000Y-122785000D01*
X176554437Y-118265000D02*
X180010000Y-118265000D01*
X175490000Y-121720563D02*
X175490000Y-121585000D01*
X175490000Y-121720563D02*
X176554437Y-122785000D01*
X175490000Y-119329437D02*
X176554437Y-118265000D01*
X180010000Y-118265000D02*
X180010000Y-119465000D01*
X175000000Y-118715000D02*
X175000000Y-119215000D01*
X175490000Y-119329437D02*
X175490000Y-119465000D01*
X174750000Y-118965000D02*
X175250000Y-118965000D01*
%TO.C,C3*%
X194060000Y-121565000D02*
X192860000Y-121565000D01*
X194060000Y-125020563D02*
X194060000Y-121565000D01*
X189540000Y-125020563D02*
X189540000Y-121565000D01*
X192995563Y-126085000D02*
X192860000Y-126085000D01*
X192995563Y-126085000D02*
X194060000Y-125020563D01*
X190604437Y-126085000D02*
X189540000Y-125020563D01*
X189540000Y-121565000D02*
X190740000Y-121565000D01*
X189990000Y-126575000D02*
X190490000Y-126575000D01*
X190604437Y-126085000D02*
X190740000Y-126085000D01*
X190240000Y-126825000D02*
X190240000Y-126325000D01*
%TO.C,C1*%
X132385000Y-90235000D02*
X132385000Y-89035000D01*
X128929437Y-90235000D02*
X132385000Y-90235000D01*
X128929437Y-85715000D02*
X132385000Y-85715000D01*
X127865000Y-89170563D02*
X127865000Y-89035000D01*
X127865000Y-89170563D02*
X128929437Y-90235000D01*
X127865000Y-86779437D02*
X128929437Y-85715000D01*
X132385000Y-85715000D02*
X132385000Y-86915000D01*
X127375000Y-86165000D02*
X127375000Y-86665000D01*
X127865000Y-86779437D02*
X127865000Y-86915000D01*
X127125000Y-86415000D02*
X127625000Y-86415000D01*
%TO.C,Y1*%
X150375000Y-119100000D02*
X150375000Y-117900000D01*
X149375000Y-119200000D02*
X149175000Y-119200000D01*
X149375000Y-117800000D02*
X149175000Y-117800000D01*
%TO.C,U4*%
X133910000Y-132937500D02*
X133910000Y-133737500D01*
X130790000Y-132937500D02*
X130790000Y-134737500D01*
X130790000Y-132937500D02*
X130790000Y-132137500D01*
X133910000Y-132937500D02*
X133910000Y-132137500D01*
%TO.C,SW1*%
X159400000Y-113600000D02*
X159400000Y-112675000D01*
X157275000Y-117475000D02*
X157825000Y-117475000D01*
X155700000Y-117375000D02*
X155700000Y-112675000D01*
X157275000Y-112575000D02*
X157825000Y-112575000D01*
X159400000Y-117375000D02*
X159400000Y-116450000D01*
%TO.C,R20*%
X118260436Y-138415000D02*
X118714564Y-138415000D01*
X118260436Y-139885000D02*
X118714564Y-139885000D01*
%TO.C,R19*%
X113485436Y-138865000D02*
X113939564Y-138865000D01*
X113485436Y-140335000D02*
X113939564Y-140335000D01*
%TO.C,R18*%
X113485436Y-134090000D02*
X113939564Y-134090000D01*
X113485436Y-135560000D02*
X113939564Y-135560000D01*
%TO.C,R17*%
X133465000Y-117197936D02*
X133465000Y-117652064D01*
X134935000Y-117197936D02*
X134935000Y-117652064D01*
%TO.C,R16*%
X110985436Y-102115000D02*
X111439564Y-102115000D01*
X110985436Y-103585000D02*
X111439564Y-103585000D01*
%TO.C,R15*%
X115489564Y-123510000D02*
X115035436Y-123510000D01*
X115489564Y-122040000D02*
X115035436Y-122040000D01*
%TO.C,R14*%
X127222936Y-126015000D02*
X127677064Y-126015000D01*
X127222936Y-127485000D02*
X127677064Y-127485000D01*
%TO.C,R12*%
X111335436Y-122040000D02*
X111789564Y-122040000D01*
X111335436Y-123510000D02*
X111789564Y-123510000D01*
%TO.C,R9*%
X135490000Y-133864564D02*
X135490000Y-133410436D01*
X136960000Y-133864564D02*
X136960000Y-133410436D01*
%TO.C,R8*%
X130335000Y-142035436D02*
X130335000Y-142489564D01*
X128865000Y-142035436D02*
X128865000Y-142489564D01*
%TO.C,R6*%
X116910436Y-110265000D02*
X117364564Y-110265000D01*
X116910436Y-111735000D02*
X117364564Y-111735000D01*
%TO.C,R4*%
X134835436Y-107665000D02*
X135289564Y-107665000D01*
X134835436Y-109135000D02*
X135289564Y-109135000D01*
%TO.C,R3*%
X186010436Y-128340000D02*
X186464564Y-128340000D01*
X186010436Y-129810000D02*
X186464564Y-129810000D01*
%TO.C,R2*%
X122989564Y-110340000D02*
X122535436Y-110340000D01*
X122989564Y-111810000D02*
X122535436Y-111810000D01*
%TO.C,R1*%
X112715000Y-126535436D02*
X112715000Y-126989564D01*
X114185000Y-126535436D02*
X114185000Y-126989564D01*
%TO.C,Q1*%
X127400000Y-139760000D02*
X126750000Y-139760000D01*
X127400000Y-136640000D02*
X126750000Y-136640000D01*
X127400000Y-139760000D02*
X129075000Y-139760000D01*
X127400000Y-136640000D02*
X128050000Y-136640000D01*
%TO.C,J2*%
X144890000Y-136560000D02*
X144440000Y-136560000D01*
X149960000Y-137240000D02*
X149540000Y-137240000D01*
X144440000Y-137010000D02*
X144440000Y-136560000D01*
X142440000Y-141590000D02*
X142440000Y-141190000D01*
X149960000Y-141190000D02*
X149960000Y-141590000D01*
X149960000Y-139220000D02*
X149960000Y-137240000D01*
X142440000Y-139220000D02*
X142440000Y-137240000D01*
X142440000Y-137240000D02*
X142860000Y-137240000D01*
%TO.C,J1*%
X129410000Y-57110000D02*
X129410000Y-62890000D01*
X121600000Y-53990000D02*
X123400000Y-53990000D01*
X129410000Y-65410000D02*
X129410000Y-68110000D01*
X124700000Y-53890000D02*
X126200000Y-53690000D01*
X128000000Y-54190000D02*
X128000000Y-53190000D01*
X117800000Y-53490000D02*
X119500000Y-53790000D01*
X117500000Y-52690000D02*
X127500000Y-52690000D01*
X129410000Y-54190000D02*
X129410000Y-54590000D01*
X127500000Y-53390000D02*
X128000000Y-53290000D01*
X120300000Y-53890000D02*
X121600000Y-53990000D01*
X123400000Y-53990000D02*
X124700000Y-53890000D01*
X117000000Y-53290000D02*
X117800000Y-53490000D01*
X129410000Y-68110000D02*
X115590000Y-68110000D01*
X115590000Y-65410000D02*
X115590000Y-68110000D01*
X119500000Y-53790000D02*
X120300000Y-53890000D01*
X117000000Y-54190000D02*
X117000000Y-53190000D01*
X115590000Y-54190000D02*
X115590000Y-54590000D01*
X115590000Y-57110000D02*
X115590000Y-62890000D01*
X126200000Y-53690000D02*
X127500000Y-53390000D01*
X115590000Y-54190000D02*
X129410000Y-54190000D01*
X128000000Y-53190000D02*
G75*
G03*
X127500000Y-52690000I-500000J0D01*
G01*
X117500000Y-52690000D02*
G75*
G03*
X117000000Y-53190000I1J-500001D01*
G01*
%TO.C,FB1*%
X135110000Y-101702064D02*
X135110000Y-101247936D01*
X133640000Y-101702064D02*
X133640000Y-101247936D01*
%TO.C,D2*%
X133200000Y-135990000D02*
X133200000Y-139850000D01*
X135200000Y-135990000D02*
X133200000Y-135990000D01*
X135200000Y-135990000D02*
X135200000Y-139850000D01*
%TO.C,C20*%
X130335436Y-81085000D02*
X130789564Y-81085000D01*
X130335436Y-79615000D02*
X130789564Y-79615000D01*
%TO.C,C19*%
X130285436Y-74740000D02*
X130739564Y-74740000D01*
X130285436Y-76210000D02*
X130739564Y-76210000D01*
%TO.C,C18*%
X124360000Y-136072936D02*
X124360000Y-136527064D01*
X122890000Y-136072936D02*
X122890000Y-136527064D01*
%TO.C,C17*%
X152035000Y-115314564D02*
X152035000Y-114860436D01*
X150565000Y-115314564D02*
X150565000Y-114860436D01*
%TO.C,C16*%
X146915000Y-114660436D02*
X146915000Y-115114564D01*
X148385000Y-114660436D02*
X148385000Y-115114564D01*
%TO.C,C15*%
X137560436Y-77915000D02*
X138014564Y-77915000D01*
X137560436Y-79385000D02*
X138014564Y-79385000D01*
%TO.C,C14*%
X137460436Y-97265000D02*
X137914564Y-97265000D01*
X137460436Y-98735000D02*
X137914564Y-98735000D01*
%TO.C,C13*%
X137535436Y-101940000D02*
X137989564Y-101940000D01*
X137535436Y-103410000D02*
X137989564Y-103410000D01*
%TO.C,C12*%
X137610436Y-73015000D02*
X138064564Y-73015000D01*
X137610436Y-74485000D02*
X138064564Y-74485000D01*
%TO.C,C11*%
X127735000Y-132860436D02*
X127735000Y-133314564D01*
X126265000Y-132860436D02*
X126265000Y-133314564D01*
%TO.C,C10*%
X137610436Y-92515000D02*
X138064564Y-92515000D01*
X137610436Y-93985000D02*
X138064564Y-93985000D01*
%TO.C,C9*%
X137635436Y-87290000D02*
X138089564Y-87290000D01*
X137635436Y-88760000D02*
X138089564Y-88760000D01*
%TO.C,C8*%
X137585436Y-82515000D02*
X138039564Y-82515000D01*
X137585436Y-83985000D02*
X138039564Y-83985000D01*
%TO.C,C6*%
X178839564Y-127435000D02*
X178385436Y-127435000D01*
X178839564Y-125965000D02*
X178385436Y-125965000D01*
%TO.C,C4*%
X186085436Y-123740000D02*
X186539564Y-123740000D01*
X186085436Y-125210000D02*
X186539564Y-125210000D01*
%TO.C,C2*%
X130010436Y-93440000D02*
X130464564Y-93440000D01*
X130010436Y-94910000D02*
X130464564Y-94910000D01*
%TO.C,BT1*%
X142530000Y-110420000D02*
X142530000Y-52180000D01*
X191070000Y-110420000D02*
X191070000Y-52180000D01*
X142530000Y-52180000D02*
X191070000Y-52180000D01*
X142530000Y-110420000D02*
X191070000Y-110420000D01*
X145150000Y-110800000D02*
X142150000Y-110800000D01*
X142150000Y-110800000D02*
X142150000Y-107800000D01*
%TO.C,U1*%
X186425000Y-139470000D02*
X184785000Y-139470000D01*
X184765000Y-133650000D02*
X188075000Y-133650000D01*
%TO.C,LDO3.3V1*%
X186025000Y-118000000D02*
X189475000Y-118000000D01*
X186025000Y-118000000D02*
X184075000Y-118000000D01*
X186025000Y-112880000D02*
X187975000Y-112880000D01*
X186025000Y-112880000D02*
X184075000Y-112880000D01*
%TO.C,LDO1.8V1*%
X168670000Y-117825000D02*
X168670000Y-116685000D01*
X168440000Y-116685000D02*
X168670000Y-116685000D01*
X168440000Y-116685000D02*
X168440000Y-113965000D01*
X173160000Y-116685000D02*
X172930000Y-116685000D01*
X168440000Y-113965000D02*
X169750000Y-113965000D01*
X171850000Y-113965000D02*
X173160000Y-113965000D01*
X173160000Y-113965000D02*
X173160000Y-116685000D01*
%TO.C,U3*%
X150960000Y-122227500D02*
X150010000Y-122227500D01*
X150010000Y-122227500D02*
X150010000Y-120937500D01*
X140740000Y-122227500D02*
X141690000Y-122227500D01*
X150960000Y-123177500D02*
X150960000Y-122227500D01*
X140740000Y-123177500D02*
X140740000Y-122227500D01*
X150960000Y-131497500D02*
X150960000Y-132447500D01*
X140740000Y-131497500D02*
X140740000Y-132447500D01*
X150960000Y-132447500D02*
X150010000Y-132447500D01*
X140740000Y-132447500D02*
X141690000Y-132447500D01*
%TO.C,U2*%
X187437500Y-140615000D02*
X185437500Y-140615000D01*
X186437500Y-142835000D02*
X185437500Y-142835000D01*
%TD*%
M02*
