%TF.GenerationSoftware,KiCad,Pcbnew,7.0.7*%
%TF.CreationDate,2023-11-17T01:41:53-08:00*%
%TF.ProjectId,Final_Project_Sutton_Yazzolino,46696e61-6c5f-4507-926f-6a6563745f53,rev?*%
%TF.SameCoordinates,Original*%
%TF.FileFunction,Drillmap*%
%TF.FilePolarity,Positive*%
%FSLAX45Y45*%
G04 Gerber Fmt 4.5, Leading zero omitted, Abs format (unit mm)*
G04 Created by KiCad (PCBNEW 7.0.7) date 2023-11-17 01:41:53*
%MOMM*%
%LPD*%
G01*
G04 APERTURE LIST*
%ADD10C,0.100000*%
%ADD11C,0.200000*%
%ADD12C,0.040000*%
%ADD13C,0.050000*%
%ADD14C,0.055000*%
%ADD15C,0.065000*%
%ADD16C,0.120000*%
G04 APERTURE END LIST*
D10*
X10500000Y-5000000D02*
X10000000Y-5500000D01*
X10000000Y-14000000D02*
G75*
G03*
X10500000Y-14500000I500000J0D01*
G01*
X19000000Y-14500000D02*
G75*
G03*
X19500000Y-14000000I0J500000D01*
G01*
X19500000Y-5500000D02*
G75*
G03*
X19000000Y-5000000I-500000J0D01*
G01*
X19000000Y-5000000D02*
X10500000Y-5000000D01*
X19500000Y-14000000D02*
X19500000Y-5500000D01*
X10500000Y-14500000D02*
X19000000Y-14500000D01*
X10000000Y-5500000D02*
X10000000Y-14000000D01*
D11*
D12*
X12620000Y-14280000D02*
X12660000Y-14320000D01*
X12660000Y-14280000D02*
X12620000Y-14320000D01*
X15140000Y-10460000D02*
X15180000Y-10500000D01*
X15180000Y-10460000D02*
X15140000Y-10500000D01*
D13*
X14295000Y-14020000D02*
G75*
G03*
X14295000Y-14020000I-25000J0D01*
G01*
D11*
X14245000Y-13987500D02*
X14245000Y-14052500D01*
X14245000Y-14052500D02*
G75*
G03*
X14295000Y-14052500I25000J0D01*
G01*
X14295000Y-14052500D02*
X14295000Y-13987500D01*
X14295000Y-13987500D02*
G75*
G03*
X14245000Y-13987500I-25000J0D01*
G01*
D13*
X14995000Y-14020000D02*
G75*
G03*
X14995000Y-14020000I-25000J0D01*
G01*
D11*
X14945000Y-13987500D02*
X14945000Y-14052500D01*
X14945000Y-14052500D02*
G75*
G03*
X14995000Y-14052500I25000J0D01*
G01*
X14995000Y-14052500D02*
X14995000Y-13987500D01*
X14995000Y-13987500D02*
G75*
G03*
X14945000Y-13987500I-25000J0D01*
G01*
D14*
X14370000Y-13722500D02*
X14370000Y-13777500D01*
X14342500Y-13750000D02*
X14397500Y-13750000D01*
D11*
X14355000Y-13777500D02*
X14385000Y-13777500D01*
X14385000Y-13777500D02*
G75*
G03*
X14385000Y-13722500I0J27500D01*
G01*
X14385000Y-13722500D02*
X14355000Y-13722500D01*
X14355000Y-13722500D02*
G75*
G03*
X14355000Y-13777500I0J-27500D01*
G01*
D14*
X14870000Y-13722500D02*
X14870000Y-13777500D01*
X14842500Y-13750000D02*
X14897500Y-13750000D01*
D11*
X14855000Y-13777500D02*
X14885000Y-13777500D01*
X14885000Y-13777500D02*
G75*
G03*
X14885000Y-13722500I0J27500D01*
G01*
X14885000Y-13722500D02*
X14855000Y-13722500D01*
X14855000Y-13722500D02*
G75*
G03*
X14855000Y-13777500I0J-27500D01*
G01*
D15*
X10522981Y-10629981D02*
X10522981Y-10584019D01*
X10477019Y-10584019D01*
X10477019Y-10629981D01*
X10522981Y-10629981D01*
X10522981Y-10756981D02*
X10522981Y-10711019D01*
X10477019Y-10711019D01*
X10477019Y-10756981D01*
X10522981Y-10756981D01*
X10522981Y-10883981D02*
X10522981Y-10838019D01*
X10477019Y-10838019D01*
X10477019Y-10883981D01*
X10522981Y-10883981D01*
X10522981Y-11010981D02*
X10522981Y-10965019D01*
X10477019Y-10965019D01*
X10477019Y-11010981D01*
X10522981Y-11010981D01*
X10522981Y-11137981D02*
X10522981Y-11092019D01*
X10477019Y-11092019D01*
X10477019Y-11137981D01*
X10522981Y-11137981D01*
X10522981Y-11264981D02*
X10522981Y-11219019D01*
X10477019Y-11219019D01*
X10477019Y-11264981D01*
X10522981Y-11264981D01*
X10522981Y-11391981D02*
X10522981Y-11346019D01*
X10477019Y-11346019D01*
X10477019Y-11391981D01*
X10522981Y-11391981D01*
X10522981Y-11518981D02*
X10522981Y-11473019D01*
X10477019Y-11473019D01*
X10477019Y-11518981D01*
X10522981Y-11518981D01*
X10522981Y-11645981D02*
X10522981Y-11600019D01*
X10477019Y-11600019D01*
X10477019Y-11645981D01*
X10522981Y-11645981D01*
X10522981Y-11772981D02*
X10522981Y-11727019D01*
X10477019Y-11727019D01*
X10477019Y-11772981D01*
X10522981Y-11772981D01*
X10522981Y-11899981D02*
X10522981Y-11854019D01*
X10477019Y-11854019D01*
X10477019Y-11899981D01*
X10522981Y-11899981D01*
X10522981Y-12026981D02*
X10522981Y-11981019D01*
X10477019Y-11981019D01*
X10477019Y-12026981D01*
X10522981Y-12026981D01*
X10522981Y-12641981D02*
X10522981Y-12596019D01*
X10477019Y-12596019D01*
X10477019Y-12641981D01*
X10522981Y-12641981D01*
X10522981Y-12768981D02*
X10522981Y-12723019D01*
X10477019Y-12723019D01*
X10477019Y-12768981D01*
X10522981Y-12768981D01*
X10522981Y-12895981D02*
X10522981Y-12850019D01*
X10477019Y-12850019D01*
X10477019Y-12895981D01*
X10522981Y-12895981D01*
X10522981Y-13022981D02*
X10522981Y-12977019D01*
X10477019Y-12977019D01*
X10477019Y-13022981D01*
X10522981Y-13022981D01*
X10522981Y-13149981D02*
X10522981Y-13104019D01*
X10477019Y-13104019D01*
X10477019Y-13149981D01*
X10522981Y-13149981D01*
X10522981Y-13276981D02*
X10522981Y-13231019D01*
X10477019Y-13231019D01*
X10477019Y-13276981D01*
X10522981Y-13276981D01*
X10522981Y-13403981D02*
X10522981Y-13358019D01*
X10477019Y-13358019D01*
X10477019Y-13403981D01*
X10522981Y-13403981D01*
X10522981Y-13530981D02*
X10522981Y-13485019D01*
X10477019Y-13485019D01*
X10477019Y-13530981D01*
X10522981Y-13530981D01*
X10522981Y-13657981D02*
X10522981Y-13612019D01*
X10477019Y-13612019D01*
X10477019Y-13657981D01*
X10522981Y-13657981D01*
X10522981Y-13784981D02*
X10522981Y-13739019D01*
X10477019Y-13739019D01*
X10477019Y-13784981D01*
X10522981Y-13784981D01*
X10522981Y-13911981D02*
X10522981Y-13866019D01*
X10477019Y-13866019D01*
X10477019Y-13911981D01*
X10522981Y-13911981D01*
X10772981Y-5629981D02*
X10772981Y-5584019D01*
X10727019Y-5584019D01*
X10727019Y-5629981D01*
X10772981Y-5629981D01*
X10772981Y-5756981D02*
X10772981Y-5711019D01*
X10727019Y-5711019D01*
X10727019Y-5756981D01*
X10772981Y-5756981D01*
X10772981Y-5883981D02*
X10772981Y-5838019D01*
X10727019Y-5838019D01*
X10727019Y-5883981D01*
X10772981Y-5883981D01*
X10772981Y-6010981D02*
X10772981Y-5965019D01*
X10727019Y-5965019D01*
X10727019Y-6010981D01*
X10772981Y-6010981D01*
X10772981Y-6137981D02*
X10772981Y-6092019D01*
X10727019Y-6092019D01*
X10727019Y-6137981D01*
X10772981Y-6137981D01*
X10772981Y-6264981D02*
X10772981Y-6219019D01*
X10727019Y-6219019D01*
X10727019Y-6264981D01*
X10772981Y-6264981D01*
X10772981Y-6391981D02*
X10772981Y-6346019D01*
X10727019Y-6346019D01*
X10727019Y-6391981D01*
X10772981Y-6391981D01*
X10772981Y-6518981D02*
X10772981Y-6473019D01*
X10727019Y-6473019D01*
X10727019Y-6518981D01*
X10772981Y-6518981D01*
X10772981Y-6645981D02*
X10772981Y-6600019D01*
X10727019Y-6600019D01*
X10727019Y-6645981D01*
X10772981Y-6645981D01*
X10772981Y-6772981D02*
X10772981Y-6727019D01*
X10727019Y-6727019D01*
X10727019Y-6772981D01*
X10772981Y-6772981D01*
X10899981Y-5629981D02*
X10899981Y-5584019D01*
X10854019Y-5584019D01*
X10854019Y-5629981D01*
X10899981Y-5629981D01*
X10899981Y-5756981D02*
X10899981Y-5711019D01*
X10854019Y-5711019D01*
X10854019Y-5756981D01*
X10899981Y-5756981D01*
X10899981Y-5883981D02*
X10899981Y-5838019D01*
X10854019Y-5838019D01*
X10854019Y-5883981D01*
X10899981Y-5883981D01*
X10899981Y-6010981D02*
X10899981Y-5965019D01*
X10854019Y-5965019D01*
X10854019Y-6010981D01*
X10899981Y-6010981D01*
X10899981Y-6137981D02*
X10899981Y-6092019D01*
X10854019Y-6092019D01*
X10854019Y-6137981D01*
X10899981Y-6137981D01*
X10899981Y-6264981D02*
X10899981Y-6219019D01*
X10854019Y-6219019D01*
X10854019Y-6264981D01*
X10899981Y-6264981D01*
X10899981Y-6391981D02*
X10899981Y-6346019D01*
X10854019Y-6346019D01*
X10854019Y-6391981D01*
X10899981Y-6391981D01*
X10899981Y-6518981D02*
X10899981Y-6473019D01*
X10854019Y-6473019D01*
X10854019Y-6518981D01*
X10899981Y-6518981D01*
X10899981Y-6645981D02*
X10899981Y-6600019D01*
X10854019Y-6600019D01*
X10854019Y-6645981D01*
X10899981Y-6645981D01*
X10899981Y-6772981D02*
X10899981Y-6727019D01*
X10854019Y-6727019D01*
X10854019Y-6772981D01*
X10899981Y-6772981D01*
D16*
X15180000Y-10860000D02*
X15240000Y-10800000D01*
X15180000Y-10740000D01*
X15120000Y-10800000D01*
X15180000Y-10860000D01*
X16460000Y-10860000D02*
X16520000Y-10800000D01*
X16460000Y-10740000D01*
X16400000Y-10800000D01*
X16460000Y-10860000D01*
D11*
X10255777Y-14816484D02*
X10255777Y-14616484D01*
X10255777Y-14616484D02*
X10303396Y-14616484D01*
X10303396Y-14616484D02*
X10331967Y-14626008D01*
X10331967Y-14626008D02*
X10351015Y-14645055D01*
X10351015Y-14645055D02*
X10360539Y-14664103D01*
X10360539Y-14664103D02*
X10370063Y-14702198D01*
X10370063Y-14702198D02*
X10370063Y-14730769D01*
X10370063Y-14730769D02*
X10360539Y-14768865D01*
X10360539Y-14768865D02*
X10351015Y-14787912D01*
X10351015Y-14787912D02*
X10331967Y-14806960D01*
X10331967Y-14806960D02*
X10303396Y-14816484D01*
X10303396Y-14816484D02*
X10255777Y-14816484D01*
X10455777Y-14816484D02*
X10455777Y-14683150D01*
X10455777Y-14721246D02*
X10465301Y-14702198D01*
X10465301Y-14702198D02*
X10474824Y-14692674D01*
X10474824Y-14692674D02*
X10493872Y-14683150D01*
X10493872Y-14683150D02*
X10512920Y-14683150D01*
X10579586Y-14816484D02*
X10579586Y-14683150D01*
X10579586Y-14616484D02*
X10570063Y-14626008D01*
X10570063Y-14626008D02*
X10579586Y-14635531D01*
X10579586Y-14635531D02*
X10589110Y-14626008D01*
X10589110Y-14626008D02*
X10579586Y-14616484D01*
X10579586Y-14616484D02*
X10579586Y-14635531D01*
X10703396Y-14816484D02*
X10684348Y-14806960D01*
X10684348Y-14806960D02*
X10674824Y-14787912D01*
X10674824Y-14787912D02*
X10674824Y-14616484D01*
X10808158Y-14816484D02*
X10789110Y-14806960D01*
X10789110Y-14806960D02*
X10779586Y-14787912D01*
X10779586Y-14787912D02*
X10779586Y-14616484D01*
X11036729Y-14816484D02*
X11036729Y-14616484D01*
X11036729Y-14616484D02*
X11103396Y-14759341D01*
X11103396Y-14759341D02*
X11170063Y-14616484D01*
X11170063Y-14616484D02*
X11170063Y-14816484D01*
X11351015Y-14816484D02*
X11351015Y-14711722D01*
X11351015Y-14711722D02*
X11341491Y-14692674D01*
X11341491Y-14692674D02*
X11322443Y-14683150D01*
X11322443Y-14683150D02*
X11284348Y-14683150D01*
X11284348Y-14683150D02*
X11265301Y-14692674D01*
X11351015Y-14806960D02*
X11331967Y-14816484D01*
X11331967Y-14816484D02*
X11284348Y-14816484D01*
X11284348Y-14816484D02*
X11265301Y-14806960D01*
X11265301Y-14806960D02*
X11255777Y-14787912D01*
X11255777Y-14787912D02*
X11255777Y-14768865D01*
X11255777Y-14768865D02*
X11265301Y-14749817D01*
X11265301Y-14749817D02*
X11284348Y-14740293D01*
X11284348Y-14740293D02*
X11331967Y-14740293D01*
X11331967Y-14740293D02*
X11351015Y-14730769D01*
X11446253Y-14683150D02*
X11446253Y-14883150D01*
X11446253Y-14692674D02*
X11465301Y-14683150D01*
X11465301Y-14683150D02*
X11503396Y-14683150D01*
X11503396Y-14683150D02*
X11522443Y-14692674D01*
X11522443Y-14692674D02*
X11531967Y-14702198D01*
X11531967Y-14702198D02*
X11541491Y-14721246D01*
X11541491Y-14721246D02*
X11541491Y-14778388D01*
X11541491Y-14778388D02*
X11531967Y-14797436D01*
X11531967Y-14797436D02*
X11522443Y-14806960D01*
X11522443Y-14806960D02*
X11503396Y-14816484D01*
X11503396Y-14816484D02*
X11465301Y-14816484D01*
X11465301Y-14816484D02*
X11446253Y-14806960D01*
X11627205Y-14797436D02*
X11636729Y-14806960D01*
X11636729Y-14806960D02*
X11627205Y-14816484D01*
X11627205Y-14816484D02*
X11617682Y-14806960D01*
X11617682Y-14806960D02*
X11627205Y-14797436D01*
X11627205Y-14797436D02*
X11627205Y-14816484D01*
X11627205Y-14692674D02*
X11636729Y-14702198D01*
X11636729Y-14702198D02*
X11627205Y-14711722D01*
X11627205Y-14711722D02*
X11617682Y-14702198D01*
X11617682Y-14702198D02*
X11627205Y-14692674D01*
X11627205Y-14692674D02*
X11627205Y-14711722D01*
D12*
X9955000Y-15125000D02*
X9995000Y-15165000D01*
X9995000Y-15125000D02*
X9955000Y-15165000D01*
D11*
X10293872Y-15036484D02*
X10312920Y-15036484D01*
X10312920Y-15036484D02*
X10331967Y-15046008D01*
X10331967Y-15046008D02*
X10341491Y-15055531D01*
X10341491Y-15055531D02*
X10351015Y-15074579D01*
X10351015Y-15074579D02*
X10360539Y-15112674D01*
X10360539Y-15112674D02*
X10360539Y-15160293D01*
X10360539Y-15160293D02*
X10351015Y-15198388D01*
X10351015Y-15198388D02*
X10341491Y-15217436D01*
X10341491Y-15217436D02*
X10331967Y-15226960D01*
X10331967Y-15226960D02*
X10312920Y-15236484D01*
X10312920Y-15236484D02*
X10293872Y-15236484D01*
X10293872Y-15236484D02*
X10274824Y-15226960D01*
X10274824Y-15226960D02*
X10265301Y-15217436D01*
X10265301Y-15217436D02*
X10255777Y-15198388D01*
X10255777Y-15198388D02*
X10246253Y-15160293D01*
X10246253Y-15160293D02*
X10246253Y-15112674D01*
X10246253Y-15112674D02*
X10255777Y-15074579D01*
X10255777Y-15074579D02*
X10265301Y-15055531D01*
X10265301Y-15055531D02*
X10274824Y-15046008D01*
X10274824Y-15046008D02*
X10293872Y-15036484D01*
X10446253Y-15217436D02*
X10455777Y-15226960D01*
X10455777Y-15226960D02*
X10446253Y-15236484D01*
X10446253Y-15236484D02*
X10436729Y-15226960D01*
X10436729Y-15226960D02*
X10446253Y-15217436D01*
X10446253Y-15217436D02*
X10446253Y-15236484D01*
X10627205Y-15103150D02*
X10627205Y-15236484D01*
X10579586Y-15026960D02*
X10531967Y-15169817D01*
X10531967Y-15169817D02*
X10655777Y-15169817D01*
X10770063Y-15036484D02*
X10789110Y-15036484D01*
X10789110Y-15036484D02*
X10808158Y-15046008D01*
X10808158Y-15046008D02*
X10817682Y-15055531D01*
X10817682Y-15055531D02*
X10827205Y-15074579D01*
X10827205Y-15074579D02*
X10836729Y-15112674D01*
X10836729Y-15112674D02*
X10836729Y-15160293D01*
X10836729Y-15160293D02*
X10827205Y-15198388D01*
X10827205Y-15198388D02*
X10817682Y-15217436D01*
X10817682Y-15217436D02*
X10808158Y-15226960D01*
X10808158Y-15226960D02*
X10789110Y-15236484D01*
X10789110Y-15236484D02*
X10770063Y-15236484D01*
X10770063Y-15236484D02*
X10751015Y-15226960D01*
X10751015Y-15226960D02*
X10741491Y-15217436D01*
X10741491Y-15217436D02*
X10731967Y-15198388D01*
X10731967Y-15198388D02*
X10722444Y-15160293D01*
X10722444Y-15160293D02*
X10722444Y-15112674D01*
X10722444Y-15112674D02*
X10731967Y-15074579D01*
X10731967Y-15074579D02*
X10741491Y-15055531D01*
X10741491Y-15055531D02*
X10751015Y-15046008D01*
X10751015Y-15046008D02*
X10770063Y-15036484D01*
X10960539Y-15036484D02*
X10979586Y-15036484D01*
X10979586Y-15036484D02*
X10998634Y-15046008D01*
X10998634Y-15046008D02*
X11008158Y-15055531D01*
X11008158Y-15055531D02*
X11017682Y-15074579D01*
X11017682Y-15074579D02*
X11027205Y-15112674D01*
X11027205Y-15112674D02*
X11027205Y-15160293D01*
X11027205Y-15160293D02*
X11017682Y-15198388D01*
X11017682Y-15198388D02*
X11008158Y-15217436D01*
X11008158Y-15217436D02*
X10998634Y-15226960D01*
X10998634Y-15226960D02*
X10979586Y-15236484D01*
X10979586Y-15236484D02*
X10960539Y-15236484D01*
X10960539Y-15236484D02*
X10941491Y-15226960D01*
X10941491Y-15226960D02*
X10931967Y-15217436D01*
X10931967Y-15217436D02*
X10922444Y-15198388D01*
X10922444Y-15198388D02*
X10912920Y-15160293D01*
X10912920Y-15160293D02*
X10912920Y-15112674D01*
X10912920Y-15112674D02*
X10922444Y-15074579D01*
X10922444Y-15074579D02*
X10931967Y-15055531D01*
X10931967Y-15055531D02*
X10941491Y-15046008D01*
X10941491Y-15046008D02*
X10960539Y-15036484D01*
X11112920Y-15236484D02*
X11112920Y-15103150D01*
X11112920Y-15122198D02*
X11122444Y-15112674D01*
X11122444Y-15112674D02*
X11141491Y-15103150D01*
X11141491Y-15103150D02*
X11170063Y-15103150D01*
X11170063Y-15103150D02*
X11189110Y-15112674D01*
X11189110Y-15112674D02*
X11198634Y-15131722D01*
X11198634Y-15131722D02*
X11198634Y-15236484D01*
X11198634Y-15131722D02*
X11208158Y-15112674D01*
X11208158Y-15112674D02*
X11227205Y-15103150D01*
X11227205Y-15103150D02*
X11255777Y-15103150D01*
X11255777Y-15103150D02*
X11274824Y-15112674D01*
X11274824Y-15112674D02*
X11284348Y-15131722D01*
X11284348Y-15131722D02*
X11284348Y-15236484D01*
X11379586Y-15236484D02*
X11379586Y-15103150D01*
X11379586Y-15122198D02*
X11389110Y-15112674D01*
X11389110Y-15112674D02*
X11408158Y-15103150D01*
X11408158Y-15103150D02*
X11436729Y-15103150D01*
X11436729Y-15103150D02*
X11455777Y-15112674D01*
X11455777Y-15112674D02*
X11465301Y-15131722D01*
X11465301Y-15131722D02*
X11465301Y-15236484D01*
X11465301Y-15131722D02*
X11474824Y-15112674D01*
X11474824Y-15112674D02*
X11493872Y-15103150D01*
X11493872Y-15103150D02*
X11522443Y-15103150D01*
X11522443Y-15103150D02*
X11541491Y-15112674D01*
X11541491Y-15112674D02*
X11551015Y-15131722D01*
X11551015Y-15131722D02*
X11551015Y-15236484D01*
X11941491Y-15026960D02*
X11770063Y-15284103D01*
X12198634Y-15036484D02*
X12217682Y-15036484D01*
X12217682Y-15036484D02*
X12236729Y-15046008D01*
X12236729Y-15046008D02*
X12246253Y-15055531D01*
X12246253Y-15055531D02*
X12255777Y-15074579D01*
X12255777Y-15074579D02*
X12265301Y-15112674D01*
X12265301Y-15112674D02*
X12265301Y-15160293D01*
X12265301Y-15160293D02*
X12255777Y-15198388D01*
X12255777Y-15198388D02*
X12246253Y-15217436D01*
X12246253Y-15217436D02*
X12236729Y-15226960D01*
X12236729Y-15226960D02*
X12217682Y-15236484D01*
X12217682Y-15236484D02*
X12198634Y-15236484D01*
X12198634Y-15236484D02*
X12179586Y-15226960D01*
X12179586Y-15226960D02*
X12170063Y-15217436D01*
X12170063Y-15217436D02*
X12160539Y-15198388D01*
X12160539Y-15198388D02*
X12151015Y-15160293D01*
X12151015Y-15160293D02*
X12151015Y-15112674D01*
X12151015Y-15112674D02*
X12160539Y-15074579D01*
X12160539Y-15074579D02*
X12170063Y-15055531D01*
X12170063Y-15055531D02*
X12179586Y-15046008D01*
X12179586Y-15046008D02*
X12198634Y-15036484D01*
X12351015Y-15217436D02*
X12360539Y-15226960D01*
X12360539Y-15226960D02*
X12351015Y-15236484D01*
X12351015Y-15236484D02*
X12341491Y-15226960D01*
X12341491Y-15226960D02*
X12351015Y-15217436D01*
X12351015Y-15217436D02*
X12351015Y-15236484D01*
X12484348Y-15036484D02*
X12503396Y-15036484D01*
X12503396Y-15036484D02*
X12522444Y-15046008D01*
X12522444Y-15046008D02*
X12531967Y-15055531D01*
X12531967Y-15055531D02*
X12541491Y-15074579D01*
X12541491Y-15074579D02*
X12551015Y-15112674D01*
X12551015Y-15112674D02*
X12551015Y-15160293D01*
X12551015Y-15160293D02*
X12541491Y-15198388D01*
X12541491Y-15198388D02*
X12531967Y-15217436D01*
X12531967Y-15217436D02*
X12522444Y-15226960D01*
X12522444Y-15226960D02*
X12503396Y-15236484D01*
X12503396Y-15236484D02*
X12484348Y-15236484D01*
X12484348Y-15236484D02*
X12465301Y-15226960D01*
X12465301Y-15226960D02*
X12455777Y-15217436D01*
X12455777Y-15217436D02*
X12446253Y-15198388D01*
X12446253Y-15198388D02*
X12436729Y-15160293D01*
X12436729Y-15160293D02*
X12436729Y-15112674D01*
X12436729Y-15112674D02*
X12446253Y-15074579D01*
X12446253Y-15074579D02*
X12455777Y-15055531D01*
X12455777Y-15055531D02*
X12465301Y-15046008D01*
X12465301Y-15046008D02*
X12484348Y-15036484D01*
X12741491Y-15236484D02*
X12627206Y-15236484D01*
X12684348Y-15236484D02*
X12684348Y-15036484D01*
X12684348Y-15036484D02*
X12665301Y-15065055D01*
X12665301Y-15065055D02*
X12646253Y-15084103D01*
X12646253Y-15084103D02*
X12627206Y-15093627D01*
X12922444Y-15036484D02*
X12827206Y-15036484D01*
X12827206Y-15036484D02*
X12817682Y-15131722D01*
X12817682Y-15131722D02*
X12827206Y-15122198D01*
X12827206Y-15122198D02*
X12846253Y-15112674D01*
X12846253Y-15112674D02*
X12893872Y-15112674D01*
X12893872Y-15112674D02*
X12912920Y-15122198D01*
X12912920Y-15122198D02*
X12922444Y-15131722D01*
X12922444Y-15131722D02*
X12931967Y-15150769D01*
X12931967Y-15150769D02*
X12931967Y-15198388D01*
X12931967Y-15198388D02*
X12922444Y-15217436D01*
X12922444Y-15217436D02*
X12912920Y-15226960D01*
X12912920Y-15226960D02*
X12893872Y-15236484D01*
X12893872Y-15236484D02*
X12846253Y-15236484D01*
X12846253Y-15236484D02*
X12827206Y-15226960D01*
X12827206Y-15226960D02*
X12817682Y-15217436D01*
X12998634Y-15036484D02*
X13131967Y-15036484D01*
X13131967Y-15036484D02*
X13046253Y-15236484D01*
X13198634Y-15036484D02*
X13198634Y-15074579D01*
X13274825Y-15036484D02*
X13274825Y-15074579D01*
X13570063Y-15312674D02*
X13560539Y-15303150D01*
X13560539Y-15303150D02*
X13541491Y-15274579D01*
X13541491Y-15274579D02*
X13531968Y-15255531D01*
X13531968Y-15255531D02*
X13522444Y-15226960D01*
X13522444Y-15226960D02*
X13512920Y-15179341D01*
X13512920Y-15179341D02*
X13512920Y-15141246D01*
X13512920Y-15141246D02*
X13522444Y-15093627D01*
X13522444Y-15093627D02*
X13531968Y-15065055D01*
X13531968Y-15065055D02*
X13541491Y-15046008D01*
X13541491Y-15046008D02*
X13560539Y-15017436D01*
X13560539Y-15017436D02*
X13570063Y-15007912D01*
X13636729Y-15055531D02*
X13646253Y-15046008D01*
X13646253Y-15046008D02*
X13665301Y-15036484D01*
X13665301Y-15036484D02*
X13712920Y-15036484D01*
X13712920Y-15036484D02*
X13731968Y-15046008D01*
X13731968Y-15046008D02*
X13741491Y-15055531D01*
X13741491Y-15055531D02*
X13751015Y-15074579D01*
X13751015Y-15074579D02*
X13751015Y-15093627D01*
X13751015Y-15093627D02*
X13741491Y-15122198D01*
X13741491Y-15122198D02*
X13627206Y-15236484D01*
X13627206Y-15236484D02*
X13751015Y-15236484D01*
X13989110Y-15236484D02*
X13989110Y-15036484D01*
X14074825Y-15236484D02*
X14074825Y-15131722D01*
X14074825Y-15131722D02*
X14065301Y-15112674D01*
X14065301Y-15112674D02*
X14046253Y-15103150D01*
X14046253Y-15103150D02*
X14017682Y-15103150D01*
X14017682Y-15103150D02*
X13998634Y-15112674D01*
X13998634Y-15112674D02*
X13989110Y-15122198D01*
X14198634Y-15236484D02*
X14179587Y-15226960D01*
X14179587Y-15226960D02*
X14170063Y-15217436D01*
X14170063Y-15217436D02*
X14160539Y-15198388D01*
X14160539Y-15198388D02*
X14160539Y-15141246D01*
X14160539Y-15141246D02*
X14170063Y-15122198D01*
X14170063Y-15122198D02*
X14179587Y-15112674D01*
X14179587Y-15112674D02*
X14198634Y-15103150D01*
X14198634Y-15103150D02*
X14227206Y-15103150D01*
X14227206Y-15103150D02*
X14246253Y-15112674D01*
X14246253Y-15112674D02*
X14255777Y-15122198D01*
X14255777Y-15122198D02*
X14265301Y-15141246D01*
X14265301Y-15141246D02*
X14265301Y-15198388D01*
X14265301Y-15198388D02*
X14255777Y-15217436D01*
X14255777Y-15217436D02*
X14246253Y-15226960D01*
X14246253Y-15226960D02*
X14227206Y-15236484D01*
X14227206Y-15236484D02*
X14198634Y-15236484D01*
X14379587Y-15236484D02*
X14360539Y-15226960D01*
X14360539Y-15226960D02*
X14351015Y-15207912D01*
X14351015Y-15207912D02*
X14351015Y-15036484D01*
X14531968Y-15226960D02*
X14512920Y-15236484D01*
X14512920Y-15236484D02*
X14474825Y-15236484D01*
X14474825Y-15236484D02*
X14455777Y-15226960D01*
X14455777Y-15226960D02*
X14446253Y-15207912D01*
X14446253Y-15207912D02*
X14446253Y-15131722D01*
X14446253Y-15131722D02*
X14455777Y-15112674D01*
X14455777Y-15112674D02*
X14474825Y-15103150D01*
X14474825Y-15103150D02*
X14512920Y-15103150D01*
X14512920Y-15103150D02*
X14531968Y-15112674D01*
X14531968Y-15112674D02*
X14541491Y-15131722D01*
X14541491Y-15131722D02*
X14541491Y-15150769D01*
X14541491Y-15150769D02*
X14446253Y-15169817D01*
X14617682Y-15226960D02*
X14636730Y-15236484D01*
X14636730Y-15236484D02*
X14674825Y-15236484D01*
X14674825Y-15236484D02*
X14693872Y-15226960D01*
X14693872Y-15226960D02*
X14703396Y-15207912D01*
X14703396Y-15207912D02*
X14703396Y-15198388D01*
X14703396Y-15198388D02*
X14693872Y-15179341D01*
X14693872Y-15179341D02*
X14674825Y-15169817D01*
X14674825Y-15169817D02*
X14646253Y-15169817D01*
X14646253Y-15169817D02*
X14627206Y-15160293D01*
X14627206Y-15160293D02*
X14617682Y-15141246D01*
X14617682Y-15141246D02*
X14617682Y-15131722D01*
X14617682Y-15131722D02*
X14627206Y-15112674D01*
X14627206Y-15112674D02*
X14646253Y-15103150D01*
X14646253Y-15103150D02*
X14674825Y-15103150D01*
X14674825Y-15103150D02*
X14693872Y-15112674D01*
X14770063Y-15312674D02*
X14779587Y-15303150D01*
X14779587Y-15303150D02*
X14798634Y-15274579D01*
X14798634Y-15274579D02*
X14808158Y-15255531D01*
X14808158Y-15255531D02*
X14817682Y-15226960D01*
X14817682Y-15226960D02*
X14827206Y-15179341D01*
X14827206Y-15179341D02*
X14827206Y-15141246D01*
X14827206Y-15141246D02*
X14817682Y-15093627D01*
X14817682Y-15093627D02*
X14808158Y-15065055D01*
X14808158Y-15065055D02*
X14798634Y-15046008D01*
X14798634Y-15046008D02*
X14779587Y-15017436D01*
X14779587Y-15017436D02*
X14770063Y-15007912D01*
D13*
X9995000Y-15409000D02*
G75*
G03*
X9995000Y-15409000I-25000J0D01*
G01*
D11*
X10293872Y-15300484D02*
X10312920Y-15300484D01*
X10312920Y-15300484D02*
X10331967Y-15310008D01*
X10331967Y-15310008D02*
X10341491Y-15319531D01*
X10341491Y-15319531D02*
X10351015Y-15338579D01*
X10351015Y-15338579D02*
X10360539Y-15376674D01*
X10360539Y-15376674D02*
X10360539Y-15424293D01*
X10360539Y-15424293D02*
X10351015Y-15462388D01*
X10351015Y-15462388D02*
X10341491Y-15481436D01*
X10341491Y-15481436D02*
X10331967Y-15490960D01*
X10331967Y-15490960D02*
X10312920Y-15500484D01*
X10312920Y-15500484D02*
X10293872Y-15500484D01*
X10293872Y-15500484D02*
X10274824Y-15490960D01*
X10274824Y-15490960D02*
X10265301Y-15481436D01*
X10265301Y-15481436D02*
X10255777Y-15462388D01*
X10255777Y-15462388D02*
X10246253Y-15424293D01*
X10246253Y-15424293D02*
X10246253Y-15376674D01*
X10246253Y-15376674D02*
X10255777Y-15338579D01*
X10255777Y-15338579D02*
X10265301Y-15319531D01*
X10265301Y-15319531D02*
X10274824Y-15310008D01*
X10274824Y-15310008D02*
X10293872Y-15300484D01*
X10446253Y-15481436D02*
X10455777Y-15490960D01*
X10455777Y-15490960D02*
X10446253Y-15500484D01*
X10446253Y-15500484D02*
X10436729Y-15490960D01*
X10436729Y-15490960D02*
X10446253Y-15481436D01*
X10446253Y-15481436D02*
X10446253Y-15500484D01*
X10636729Y-15300484D02*
X10541491Y-15300484D01*
X10541491Y-15300484D02*
X10531967Y-15395722D01*
X10531967Y-15395722D02*
X10541491Y-15386198D01*
X10541491Y-15386198D02*
X10560539Y-15376674D01*
X10560539Y-15376674D02*
X10608158Y-15376674D01*
X10608158Y-15376674D02*
X10627205Y-15386198D01*
X10627205Y-15386198D02*
X10636729Y-15395722D01*
X10636729Y-15395722D02*
X10646253Y-15414769D01*
X10646253Y-15414769D02*
X10646253Y-15462388D01*
X10646253Y-15462388D02*
X10636729Y-15481436D01*
X10636729Y-15481436D02*
X10627205Y-15490960D01*
X10627205Y-15490960D02*
X10608158Y-15500484D01*
X10608158Y-15500484D02*
X10560539Y-15500484D01*
X10560539Y-15500484D02*
X10541491Y-15490960D01*
X10541491Y-15490960D02*
X10531967Y-15481436D01*
X10770063Y-15300484D02*
X10789110Y-15300484D01*
X10789110Y-15300484D02*
X10808158Y-15310008D01*
X10808158Y-15310008D02*
X10817682Y-15319531D01*
X10817682Y-15319531D02*
X10827205Y-15338579D01*
X10827205Y-15338579D02*
X10836729Y-15376674D01*
X10836729Y-15376674D02*
X10836729Y-15424293D01*
X10836729Y-15424293D02*
X10827205Y-15462388D01*
X10827205Y-15462388D02*
X10817682Y-15481436D01*
X10817682Y-15481436D02*
X10808158Y-15490960D01*
X10808158Y-15490960D02*
X10789110Y-15500484D01*
X10789110Y-15500484D02*
X10770063Y-15500484D01*
X10770063Y-15500484D02*
X10751015Y-15490960D01*
X10751015Y-15490960D02*
X10741491Y-15481436D01*
X10741491Y-15481436D02*
X10731967Y-15462388D01*
X10731967Y-15462388D02*
X10722444Y-15424293D01*
X10722444Y-15424293D02*
X10722444Y-15376674D01*
X10722444Y-15376674D02*
X10731967Y-15338579D01*
X10731967Y-15338579D02*
X10741491Y-15319531D01*
X10741491Y-15319531D02*
X10751015Y-15310008D01*
X10751015Y-15310008D02*
X10770063Y-15300484D01*
X10960539Y-15300484D02*
X10979586Y-15300484D01*
X10979586Y-15300484D02*
X10998634Y-15310008D01*
X10998634Y-15310008D02*
X11008158Y-15319531D01*
X11008158Y-15319531D02*
X11017682Y-15338579D01*
X11017682Y-15338579D02*
X11027205Y-15376674D01*
X11027205Y-15376674D02*
X11027205Y-15424293D01*
X11027205Y-15424293D02*
X11017682Y-15462388D01*
X11017682Y-15462388D02*
X11008158Y-15481436D01*
X11008158Y-15481436D02*
X10998634Y-15490960D01*
X10998634Y-15490960D02*
X10979586Y-15500484D01*
X10979586Y-15500484D02*
X10960539Y-15500484D01*
X10960539Y-15500484D02*
X10941491Y-15490960D01*
X10941491Y-15490960D02*
X10931967Y-15481436D01*
X10931967Y-15481436D02*
X10922444Y-15462388D01*
X10922444Y-15462388D02*
X10912920Y-15424293D01*
X10912920Y-15424293D02*
X10912920Y-15376674D01*
X10912920Y-15376674D02*
X10922444Y-15338579D01*
X10922444Y-15338579D02*
X10931967Y-15319531D01*
X10931967Y-15319531D02*
X10941491Y-15310008D01*
X10941491Y-15310008D02*
X10960539Y-15300484D01*
X11112920Y-15500484D02*
X11112920Y-15367150D01*
X11112920Y-15386198D02*
X11122444Y-15376674D01*
X11122444Y-15376674D02*
X11141491Y-15367150D01*
X11141491Y-15367150D02*
X11170063Y-15367150D01*
X11170063Y-15367150D02*
X11189110Y-15376674D01*
X11189110Y-15376674D02*
X11198634Y-15395722D01*
X11198634Y-15395722D02*
X11198634Y-15500484D01*
X11198634Y-15395722D02*
X11208158Y-15376674D01*
X11208158Y-15376674D02*
X11227205Y-15367150D01*
X11227205Y-15367150D02*
X11255777Y-15367150D01*
X11255777Y-15367150D02*
X11274824Y-15376674D01*
X11274824Y-15376674D02*
X11284348Y-15395722D01*
X11284348Y-15395722D02*
X11284348Y-15500484D01*
X11379586Y-15500484D02*
X11379586Y-15367150D01*
X11379586Y-15386198D02*
X11389110Y-15376674D01*
X11389110Y-15376674D02*
X11408158Y-15367150D01*
X11408158Y-15367150D02*
X11436729Y-15367150D01*
X11436729Y-15367150D02*
X11455777Y-15376674D01*
X11455777Y-15376674D02*
X11465301Y-15395722D01*
X11465301Y-15395722D02*
X11465301Y-15500484D01*
X11465301Y-15395722D02*
X11474824Y-15376674D01*
X11474824Y-15376674D02*
X11493872Y-15367150D01*
X11493872Y-15367150D02*
X11522443Y-15367150D01*
X11522443Y-15367150D02*
X11541491Y-15376674D01*
X11541491Y-15376674D02*
X11551015Y-15395722D01*
X11551015Y-15395722D02*
X11551015Y-15500484D01*
X11941491Y-15290960D02*
X11770063Y-15548103D01*
X12198634Y-15300484D02*
X12217682Y-15300484D01*
X12217682Y-15300484D02*
X12236729Y-15310008D01*
X12236729Y-15310008D02*
X12246253Y-15319531D01*
X12246253Y-15319531D02*
X12255777Y-15338579D01*
X12255777Y-15338579D02*
X12265301Y-15376674D01*
X12265301Y-15376674D02*
X12265301Y-15424293D01*
X12265301Y-15424293D02*
X12255777Y-15462388D01*
X12255777Y-15462388D02*
X12246253Y-15481436D01*
X12246253Y-15481436D02*
X12236729Y-15490960D01*
X12236729Y-15490960D02*
X12217682Y-15500484D01*
X12217682Y-15500484D02*
X12198634Y-15500484D01*
X12198634Y-15500484D02*
X12179586Y-15490960D01*
X12179586Y-15490960D02*
X12170063Y-15481436D01*
X12170063Y-15481436D02*
X12160539Y-15462388D01*
X12160539Y-15462388D02*
X12151015Y-15424293D01*
X12151015Y-15424293D02*
X12151015Y-15376674D01*
X12151015Y-15376674D02*
X12160539Y-15338579D01*
X12160539Y-15338579D02*
X12170063Y-15319531D01*
X12170063Y-15319531D02*
X12179586Y-15310008D01*
X12179586Y-15310008D02*
X12198634Y-15300484D01*
X12351015Y-15481436D02*
X12360539Y-15490960D01*
X12360539Y-15490960D02*
X12351015Y-15500484D01*
X12351015Y-15500484D02*
X12341491Y-15490960D01*
X12341491Y-15490960D02*
X12351015Y-15481436D01*
X12351015Y-15481436D02*
X12351015Y-15500484D01*
X12484348Y-15300484D02*
X12503396Y-15300484D01*
X12503396Y-15300484D02*
X12522444Y-15310008D01*
X12522444Y-15310008D02*
X12531967Y-15319531D01*
X12531967Y-15319531D02*
X12541491Y-15338579D01*
X12541491Y-15338579D02*
X12551015Y-15376674D01*
X12551015Y-15376674D02*
X12551015Y-15424293D01*
X12551015Y-15424293D02*
X12541491Y-15462388D01*
X12541491Y-15462388D02*
X12531967Y-15481436D01*
X12531967Y-15481436D02*
X12522444Y-15490960D01*
X12522444Y-15490960D02*
X12503396Y-15500484D01*
X12503396Y-15500484D02*
X12484348Y-15500484D01*
X12484348Y-15500484D02*
X12465301Y-15490960D01*
X12465301Y-15490960D02*
X12455777Y-15481436D01*
X12455777Y-15481436D02*
X12446253Y-15462388D01*
X12446253Y-15462388D02*
X12436729Y-15424293D01*
X12436729Y-15424293D02*
X12436729Y-15376674D01*
X12436729Y-15376674D02*
X12446253Y-15338579D01*
X12446253Y-15338579D02*
X12455777Y-15319531D01*
X12455777Y-15319531D02*
X12465301Y-15310008D01*
X12465301Y-15310008D02*
X12484348Y-15300484D01*
X12741491Y-15500484D02*
X12627206Y-15500484D01*
X12684348Y-15500484D02*
X12684348Y-15300484D01*
X12684348Y-15300484D02*
X12665301Y-15329055D01*
X12665301Y-15329055D02*
X12646253Y-15348103D01*
X12646253Y-15348103D02*
X12627206Y-15357627D01*
X12836729Y-15500484D02*
X12874825Y-15500484D01*
X12874825Y-15500484D02*
X12893872Y-15490960D01*
X12893872Y-15490960D02*
X12903396Y-15481436D01*
X12903396Y-15481436D02*
X12922444Y-15452865D01*
X12922444Y-15452865D02*
X12931967Y-15414769D01*
X12931967Y-15414769D02*
X12931967Y-15338579D01*
X12931967Y-15338579D02*
X12922444Y-15319531D01*
X12922444Y-15319531D02*
X12912920Y-15310008D01*
X12912920Y-15310008D02*
X12893872Y-15300484D01*
X12893872Y-15300484D02*
X12855777Y-15300484D01*
X12855777Y-15300484D02*
X12836729Y-15310008D01*
X12836729Y-15310008D02*
X12827206Y-15319531D01*
X12827206Y-15319531D02*
X12817682Y-15338579D01*
X12817682Y-15338579D02*
X12817682Y-15386198D01*
X12817682Y-15386198D02*
X12827206Y-15405246D01*
X12827206Y-15405246D02*
X12836729Y-15414769D01*
X12836729Y-15414769D02*
X12855777Y-15424293D01*
X12855777Y-15424293D02*
X12893872Y-15424293D01*
X12893872Y-15424293D02*
X12912920Y-15414769D01*
X12912920Y-15414769D02*
X12922444Y-15405246D01*
X12922444Y-15405246D02*
X12931967Y-15386198D01*
X12998634Y-15300484D02*
X13131967Y-15300484D01*
X13131967Y-15300484D02*
X13046253Y-15500484D01*
X13198634Y-15300484D02*
X13198634Y-15338579D01*
X13274825Y-15300484D02*
X13274825Y-15338579D01*
X13570063Y-15576674D02*
X13560539Y-15567150D01*
X13560539Y-15567150D02*
X13541491Y-15538579D01*
X13541491Y-15538579D02*
X13531968Y-15519531D01*
X13531968Y-15519531D02*
X13522444Y-15490960D01*
X13522444Y-15490960D02*
X13512920Y-15443341D01*
X13512920Y-15443341D02*
X13512920Y-15405246D01*
X13512920Y-15405246D02*
X13522444Y-15357627D01*
X13522444Y-15357627D02*
X13531968Y-15329055D01*
X13531968Y-15329055D02*
X13541491Y-15310008D01*
X13541491Y-15310008D02*
X13560539Y-15281436D01*
X13560539Y-15281436D02*
X13570063Y-15271912D01*
X13684348Y-15300484D02*
X13703396Y-15300484D01*
X13703396Y-15300484D02*
X13722444Y-15310008D01*
X13722444Y-15310008D02*
X13731968Y-15319531D01*
X13731968Y-15319531D02*
X13741491Y-15338579D01*
X13741491Y-15338579D02*
X13751015Y-15376674D01*
X13751015Y-15376674D02*
X13751015Y-15424293D01*
X13751015Y-15424293D02*
X13741491Y-15462388D01*
X13741491Y-15462388D02*
X13731968Y-15481436D01*
X13731968Y-15481436D02*
X13722444Y-15490960D01*
X13722444Y-15490960D02*
X13703396Y-15500484D01*
X13703396Y-15500484D02*
X13684348Y-15500484D01*
X13684348Y-15500484D02*
X13665301Y-15490960D01*
X13665301Y-15490960D02*
X13655777Y-15481436D01*
X13655777Y-15481436D02*
X13646253Y-15462388D01*
X13646253Y-15462388D02*
X13636729Y-15424293D01*
X13636729Y-15424293D02*
X13636729Y-15376674D01*
X13636729Y-15376674D02*
X13646253Y-15338579D01*
X13646253Y-15338579D02*
X13655777Y-15319531D01*
X13655777Y-15319531D02*
X13665301Y-15310008D01*
X13665301Y-15310008D02*
X13684348Y-15300484D01*
X13989110Y-15500484D02*
X13989110Y-15300484D01*
X14074825Y-15500484D02*
X14074825Y-15395722D01*
X14074825Y-15395722D02*
X14065301Y-15376674D01*
X14065301Y-15376674D02*
X14046253Y-15367150D01*
X14046253Y-15367150D02*
X14017682Y-15367150D01*
X14017682Y-15367150D02*
X13998634Y-15376674D01*
X13998634Y-15376674D02*
X13989110Y-15386198D01*
X14198634Y-15500484D02*
X14179587Y-15490960D01*
X14179587Y-15490960D02*
X14170063Y-15481436D01*
X14170063Y-15481436D02*
X14160539Y-15462388D01*
X14160539Y-15462388D02*
X14160539Y-15405246D01*
X14160539Y-15405246D02*
X14170063Y-15386198D01*
X14170063Y-15386198D02*
X14179587Y-15376674D01*
X14179587Y-15376674D02*
X14198634Y-15367150D01*
X14198634Y-15367150D02*
X14227206Y-15367150D01*
X14227206Y-15367150D02*
X14246253Y-15376674D01*
X14246253Y-15376674D02*
X14255777Y-15386198D01*
X14255777Y-15386198D02*
X14265301Y-15405246D01*
X14265301Y-15405246D02*
X14265301Y-15462388D01*
X14265301Y-15462388D02*
X14255777Y-15481436D01*
X14255777Y-15481436D02*
X14246253Y-15490960D01*
X14246253Y-15490960D02*
X14227206Y-15500484D01*
X14227206Y-15500484D02*
X14198634Y-15500484D01*
X14379587Y-15500484D02*
X14360539Y-15490960D01*
X14360539Y-15490960D02*
X14351015Y-15471912D01*
X14351015Y-15471912D02*
X14351015Y-15300484D01*
X14531968Y-15490960D02*
X14512920Y-15500484D01*
X14512920Y-15500484D02*
X14474825Y-15500484D01*
X14474825Y-15500484D02*
X14455777Y-15490960D01*
X14455777Y-15490960D02*
X14446253Y-15471912D01*
X14446253Y-15471912D02*
X14446253Y-15395722D01*
X14446253Y-15395722D02*
X14455777Y-15376674D01*
X14455777Y-15376674D02*
X14474825Y-15367150D01*
X14474825Y-15367150D02*
X14512920Y-15367150D01*
X14512920Y-15367150D02*
X14531968Y-15376674D01*
X14531968Y-15376674D02*
X14541491Y-15395722D01*
X14541491Y-15395722D02*
X14541491Y-15414769D01*
X14541491Y-15414769D02*
X14446253Y-15433817D01*
X14617682Y-15490960D02*
X14636730Y-15500484D01*
X14636730Y-15500484D02*
X14674825Y-15500484D01*
X14674825Y-15500484D02*
X14693872Y-15490960D01*
X14693872Y-15490960D02*
X14703396Y-15471912D01*
X14703396Y-15471912D02*
X14703396Y-15462388D01*
X14703396Y-15462388D02*
X14693872Y-15443341D01*
X14693872Y-15443341D02*
X14674825Y-15433817D01*
X14674825Y-15433817D02*
X14646253Y-15433817D01*
X14646253Y-15433817D02*
X14627206Y-15424293D01*
X14627206Y-15424293D02*
X14617682Y-15405246D01*
X14617682Y-15405246D02*
X14617682Y-15395722D01*
X14617682Y-15395722D02*
X14627206Y-15376674D01*
X14627206Y-15376674D02*
X14646253Y-15367150D01*
X14646253Y-15367150D02*
X14674825Y-15367150D01*
X14674825Y-15367150D02*
X14693872Y-15376674D01*
X14941492Y-15424293D02*
X15093873Y-15424293D01*
X15017682Y-15500484D02*
X15017682Y-15348103D01*
X15331968Y-15319531D02*
X15341492Y-15310008D01*
X15341492Y-15310008D02*
X15360539Y-15300484D01*
X15360539Y-15300484D02*
X15408158Y-15300484D01*
X15408158Y-15300484D02*
X15427206Y-15310008D01*
X15427206Y-15310008D02*
X15436730Y-15319531D01*
X15436730Y-15319531D02*
X15446253Y-15338579D01*
X15446253Y-15338579D02*
X15446253Y-15357627D01*
X15446253Y-15357627D02*
X15436730Y-15386198D01*
X15436730Y-15386198D02*
X15322444Y-15500484D01*
X15322444Y-15500484D02*
X15446253Y-15500484D01*
X15674825Y-15490960D02*
X15693873Y-15500484D01*
X15693873Y-15500484D02*
X15731968Y-15500484D01*
X15731968Y-15500484D02*
X15751015Y-15490960D01*
X15751015Y-15490960D02*
X15760539Y-15471912D01*
X15760539Y-15471912D02*
X15760539Y-15462388D01*
X15760539Y-15462388D02*
X15751015Y-15443341D01*
X15751015Y-15443341D02*
X15731968Y-15433817D01*
X15731968Y-15433817D02*
X15703396Y-15433817D01*
X15703396Y-15433817D02*
X15684349Y-15424293D01*
X15684349Y-15424293D02*
X15674825Y-15405246D01*
X15674825Y-15405246D02*
X15674825Y-15395722D01*
X15674825Y-15395722D02*
X15684349Y-15376674D01*
X15684349Y-15376674D02*
X15703396Y-15367150D01*
X15703396Y-15367150D02*
X15731968Y-15367150D01*
X15731968Y-15367150D02*
X15751015Y-15376674D01*
X15874825Y-15500484D02*
X15855777Y-15490960D01*
X15855777Y-15490960D02*
X15846254Y-15471912D01*
X15846254Y-15471912D02*
X15846254Y-15300484D01*
X15979587Y-15500484D02*
X15960539Y-15490960D01*
X15960539Y-15490960D02*
X15951015Y-15481436D01*
X15951015Y-15481436D02*
X15941492Y-15462388D01*
X15941492Y-15462388D02*
X15941492Y-15405246D01*
X15941492Y-15405246D02*
X15951015Y-15386198D01*
X15951015Y-15386198D02*
X15960539Y-15376674D01*
X15960539Y-15376674D02*
X15979587Y-15367150D01*
X15979587Y-15367150D02*
X16008158Y-15367150D01*
X16008158Y-15367150D02*
X16027206Y-15376674D01*
X16027206Y-15376674D02*
X16036730Y-15386198D01*
X16036730Y-15386198D02*
X16046254Y-15405246D01*
X16046254Y-15405246D02*
X16046254Y-15462388D01*
X16046254Y-15462388D02*
X16036730Y-15481436D01*
X16036730Y-15481436D02*
X16027206Y-15490960D01*
X16027206Y-15490960D02*
X16008158Y-15500484D01*
X16008158Y-15500484D02*
X15979587Y-15500484D01*
X16103396Y-15367150D02*
X16179587Y-15367150D01*
X16131968Y-15300484D02*
X16131968Y-15471912D01*
X16131968Y-15471912D02*
X16141492Y-15490960D01*
X16141492Y-15490960D02*
X16160539Y-15500484D01*
X16160539Y-15500484D02*
X16179587Y-15500484D01*
X16236730Y-15490960D02*
X16255777Y-15500484D01*
X16255777Y-15500484D02*
X16293873Y-15500484D01*
X16293873Y-15500484D02*
X16312920Y-15490960D01*
X16312920Y-15490960D02*
X16322444Y-15471912D01*
X16322444Y-15471912D02*
X16322444Y-15462388D01*
X16322444Y-15462388D02*
X16312920Y-15443341D01*
X16312920Y-15443341D02*
X16293873Y-15433817D01*
X16293873Y-15433817D02*
X16265301Y-15433817D01*
X16265301Y-15433817D02*
X16246254Y-15424293D01*
X16246254Y-15424293D02*
X16236730Y-15405246D01*
X16236730Y-15405246D02*
X16236730Y-15395722D01*
X16236730Y-15395722D02*
X16246254Y-15376674D01*
X16246254Y-15376674D02*
X16265301Y-15367150D01*
X16265301Y-15367150D02*
X16293873Y-15367150D01*
X16293873Y-15367150D02*
X16312920Y-15376674D01*
X16389111Y-15576674D02*
X16398635Y-15567150D01*
X16398635Y-15567150D02*
X16417682Y-15538579D01*
X16417682Y-15538579D02*
X16427206Y-15519531D01*
X16427206Y-15519531D02*
X16436730Y-15490960D01*
X16436730Y-15490960D02*
X16446254Y-15443341D01*
X16446254Y-15443341D02*
X16446254Y-15405246D01*
X16446254Y-15405246D02*
X16436730Y-15357627D01*
X16436730Y-15357627D02*
X16427206Y-15329055D01*
X16427206Y-15329055D02*
X16417682Y-15310008D01*
X16417682Y-15310008D02*
X16398635Y-15281436D01*
X16398635Y-15281436D02*
X16389111Y-15271912D01*
D14*
X9967500Y-15645500D02*
X9967500Y-15700500D01*
X9940000Y-15673000D02*
X9995000Y-15673000D01*
D11*
X10293872Y-15564484D02*
X10312920Y-15564484D01*
X10312920Y-15564484D02*
X10331967Y-15574008D01*
X10331967Y-15574008D02*
X10341491Y-15583531D01*
X10341491Y-15583531D02*
X10351015Y-15602579D01*
X10351015Y-15602579D02*
X10360539Y-15640674D01*
X10360539Y-15640674D02*
X10360539Y-15688293D01*
X10360539Y-15688293D02*
X10351015Y-15726388D01*
X10351015Y-15726388D02*
X10341491Y-15745436D01*
X10341491Y-15745436D02*
X10331967Y-15754960D01*
X10331967Y-15754960D02*
X10312920Y-15764484D01*
X10312920Y-15764484D02*
X10293872Y-15764484D01*
X10293872Y-15764484D02*
X10274824Y-15754960D01*
X10274824Y-15754960D02*
X10265301Y-15745436D01*
X10265301Y-15745436D02*
X10255777Y-15726388D01*
X10255777Y-15726388D02*
X10246253Y-15688293D01*
X10246253Y-15688293D02*
X10246253Y-15640674D01*
X10246253Y-15640674D02*
X10255777Y-15602579D01*
X10255777Y-15602579D02*
X10265301Y-15583531D01*
X10265301Y-15583531D02*
X10274824Y-15574008D01*
X10274824Y-15574008D02*
X10293872Y-15564484D01*
X10446253Y-15745436D02*
X10455777Y-15754960D01*
X10455777Y-15754960D02*
X10446253Y-15764484D01*
X10446253Y-15764484D02*
X10436729Y-15754960D01*
X10436729Y-15754960D02*
X10446253Y-15745436D01*
X10446253Y-15745436D02*
X10446253Y-15764484D01*
X10636729Y-15564484D02*
X10541491Y-15564484D01*
X10541491Y-15564484D02*
X10531967Y-15659722D01*
X10531967Y-15659722D02*
X10541491Y-15650198D01*
X10541491Y-15650198D02*
X10560539Y-15640674D01*
X10560539Y-15640674D02*
X10608158Y-15640674D01*
X10608158Y-15640674D02*
X10627205Y-15650198D01*
X10627205Y-15650198D02*
X10636729Y-15659722D01*
X10636729Y-15659722D02*
X10646253Y-15678769D01*
X10646253Y-15678769D02*
X10646253Y-15726388D01*
X10646253Y-15726388D02*
X10636729Y-15745436D01*
X10636729Y-15745436D02*
X10627205Y-15754960D01*
X10627205Y-15754960D02*
X10608158Y-15764484D01*
X10608158Y-15764484D02*
X10560539Y-15764484D01*
X10560539Y-15764484D02*
X10541491Y-15754960D01*
X10541491Y-15754960D02*
X10531967Y-15745436D01*
X10827205Y-15564484D02*
X10731967Y-15564484D01*
X10731967Y-15564484D02*
X10722444Y-15659722D01*
X10722444Y-15659722D02*
X10731967Y-15650198D01*
X10731967Y-15650198D02*
X10751015Y-15640674D01*
X10751015Y-15640674D02*
X10798634Y-15640674D01*
X10798634Y-15640674D02*
X10817682Y-15650198D01*
X10817682Y-15650198D02*
X10827205Y-15659722D01*
X10827205Y-15659722D02*
X10836729Y-15678769D01*
X10836729Y-15678769D02*
X10836729Y-15726388D01*
X10836729Y-15726388D02*
X10827205Y-15745436D01*
X10827205Y-15745436D02*
X10817682Y-15754960D01*
X10817682Y-15754960D02*
X10798634Y-15764484D01*
X10798634Y-15764484D02*
X10751015Y-15764484D01*
X10751015Y-15764484D02*
X10731967Y-15754960D01*
X10731967Y-15754960D02*
X10722444Y-15745436D01*
X10960539Y-15564484D02*
X10979586Y-15564484D01*
X10979586Y-15564484D02*
X10998634Y-15574008D01*
X10998634Y-15574008D02*
X11008158Y-15583531D01*
X11008158Y-15583531D02*
X11017682Y-15602579D01*
X11017682Y-15602579D02*
X11027205Y-15640674D01*
X11027205Y-15640674D02*
X11027205Y-15688293D01*
X11027205Y-15688293D02*
X11017682Y-15726388D01*
X11017682Y-15726388D02*
X11008158Y-15745436D01*
X11008158Y-15745436D02*
X10998634Y-15754960D01*
X10998634Y-15754960D02*
X10979586Y-15764484D01*
X10979586Y-15764484D02*
X10960539Y-15764484D01*
X10960539Y-15764484D02*
X10941491Y-15754960D01*
X10941491Y-15754960D02*
X10931967Y-15745436D01*
X10931967Y-15745436D02*
X10922444Y-15726388D01*
X10922444Y-15726388D02*
X10912920Y-15688293D01*
X10912920Y-15688293D02*
X10912920Y-15640674D01*
X10912920Y-15640674D02*
X10922444Y-15602579D01*
X10922444Y-15602579D02*
X10931967Y-15583531D01*
X10931967Y-15583531D02*
X10941491Y-15574008D01*
X10941491Y-15574008D02*
X10960539Y-15564484D01*
X11112920Y-15764484D02*
X11112920Y-15631150D01*
X11112920Y-15650198D02*
X11122444Y-15640674D01*
X11122444Y-15640674D02*
X11141491Y-15631150D01*
X11141491Y-15631150D02*
X11170063Y-15631150D01*
X11170063Y-15631150D02*
X11189110Y-15640674D01*
X11189110Y-15640674D02*
X11198634Y-15659722D01*
X11198634Y-15659722D02*
X11198634Y-15764484D01*
X11198634Y-15659722D02*
X11208158Y-15640674D01*
X11208158Y-15640674D02*
X11227205Y-15631150D01*
X11227205Y-15631150D02*
X11255777Y-15631150D01*
X11255777Y-15631150D02*
X11274824Y-15640674D01*
X11274824Y-15640674D02*
X11284348Y-15659722D01*
X11284348Y-15659722D02*
X11284348Y-15764484D01*
X11379586Y-15764484D02*
X11379586Y-15631150D01*
X11379586Y-15650198D02*
X11389110Y-15640674D01*
X11389110Y-15640674D02*
X11408158Y-15631150D01*
X11408158Y-15631150D02*
X11436729Y-15631150D01*
X11436729Y-15631150D02*
X11455777Y-15640674D01*
X11455777Y-15640674D02*
X11465301Y-15659722D01*
X11465301Y-15659722D02*
X11465301Y-15764484D01*
X11465301Y-15659722D02*
X11474824Y-15640674D01*
X11474824Y-15640674D02*
X11493872Y-15631150D01*
X11493872Y-15631150D02*
X11522443Y-15631150D01*
X11522443Y-15631150D02*
X11541491Y-15640674D01*
X11541491Y-15640674D02*
X11551015Y-15659722D01*
X11551015Y-15659722D02*
X11551015Y-15764484D01*
X11941491Y-15554960D02*
X11770063Y-15812103D01*
X12198634Y-15564484D02*
X12217682Y-15564484D01*
X12217682Y-15564484D02*
X12236729Y-15574008D01*
X12236729Y-15574008D02*
X12246253Y-15583531D01*
X12246253Y-15583531D02*
X12255777Y-15602579D01*
X12255777Y-15602579D02*
X12265301Y-15640674D01*
X12265301Y-15640674D02*
X12265301Y-15688293D01*
X12265301Y-15688293D02*
X12255777Y-15726388D01*
X12255777Y-15726388D02*
X12246253Y-15745436D01*
X12246253Y-15745436D02*
X12236729Y-15754960D01*
X12236729Y-15754960D02*
X12217682Y-15764484D01*
X12217682Y-15764484D02*
X12198634Y-15764484D01*
X12198634Y-15764484D02*
X12179586Y-15754960D01*
X12179586Y-15754960D02*
X12170063Y-15745436D01*
X12170063Y-15745436D02*
X12160539Y-15726388D01*
X12160539Y-15726388D02*
X12151015Y-15688293D01*
X12151015Y-15688293D02*
X12151015Y-15640674D01*
X12151015Y-15640674D02*
X12160539Y-15602579D01*
X12160539Y-15602579D02*
X12170063Y-15583531D01*
X12170063Y-15583531D02*
X12179586Y-15574008D01*
X12179586Y-15574008D02*
X12198634Y-15564484D01*
X12351015Y-15745436D02*
X12360539Y-15754960D01*
X12360539Y-15754960D02*
X12351015Y-15764484D01*
X12351015Y-15764484D02*
X12341491Y-15754960D01*
X12341491Y-15754960D02*
X12351015Y-15745436D01*
X12351015Y-15745436D02*
X12351015Y-15764484D01*
X12484348Y-15564484D02*
X12503396Y-15564484D01*
X12503396Y-15564484D02*
X12522444Y-15574008D01*
X12522444Y-15574008D02*
X12531967Y-15583531D01*
X12531967Y-15583531D02*
X12541491Y-15602579D01*
X12541491Y-15602579D02*
X12551015Y-15640674D01*
X12551015Y-15640674D02*
X12551015Y-15688293D01*
X12551015Y-15688293D02*
X12541491Y-15726388D01*
X12541491Y-15726388D02*
X12531967Y-15745436D01*
X12531967Y-15745436D02*
X12522444Y-15754960D01*
X12522444Y-15754960D02*
X12503396Y-15764484D01*
X12503396Y-15764484D02*
X12484348Y-15764484D01*
X12484348Y-15764484D02*
X12465301Y-15754960D01*
X12465301Y-15754960D02*
X12455777Y-15745436D01*
X12455777Y-15745436D02*
X12446253Y-15726388D01*
X12446253Y-15726388D02*
X12436729Y-15688293D01*
X12436729Y-15688293D02*
X12436729Y-15640674D01*
X12436729Y-15640674D02*
X12446253Y-15602579D01*
X12446253Y-15602579D02*
X12455777Y-15583531D01*
X12455777Y-15583531D02*
X12465301Y-15574008D01*
X12465301Y-15574008D02*
X12484348Y-15564484D01*
X12627206Y-15583531D02*
X12636729Y-15574008D01*
X12636729Y-15574008D02*
X12655777Y-15564484D01*
X12655777Y-15564484D02*
X12703396Y-15564484D01*
X12703396Y-15564484D02*
X12722444Y-15574008D01*
X12722444Y-15574008D02*
X12731967Y-15583531D01*
X12731967Y-15583531D02*
X12741491Y-15602579D01*
X12741491Y-15602579D02*
X12741491Y-15621627D01*
X12741491Y-15621627D02*
X12731967Y-15650198D01*
X12731967Y-15650198D02*
X12617682Y-15764484D01*
X12617682Y-15764484D02*
X12741491Y-15764484D01*
X12931967Y-15764484D02*
X12817682Y-15764484D01*
X12874825Y-15764484D02*
X12874825Y-15564484D01*
X12874825Y-15564484D02*
X12855777Y-15593055D01*
X12855777Y-15593055D02*
X12836729Y-15612103D01*
X12836729Y-15612103D02*
X12817682Y-15621627D01*
X12998634Y-15564484D02*
X13131967Y-15564484D01*
X13131967Y-15564484D02*
X13046253Y-15764484D01*
X13198634Y-15564484D02*
X13198634Y-15602579D01*
X13274825Y-15564484D02*
X13274825Y-15602579D01*
X13570063Y-15840674D02*
X13560539Y-15831150D01*
X13560539Y-15831150D02*
X13541491Y-15802579D01*
X13541491Y-15802579D02*
X13531968Y-15783531D01*
X13531968Y-15783531D02*
X13522444Y-15754960D01*
X13522444Y-15754960D02*
X13512920Y-15707341D01*
X13512920Y-15707341D02*
X13512920Y-15669246D01*
X13512920Y-15669246D02*
X13522444Y-15621627D01*
X13522444Y-15621627D02*
X13531968Y-15593055D01*
X13531968Y-15593055D02*
X13541491Y-15574008D01*
X13541491Y-15574008D02*
X13560539Y-15545436D01*
X13560539Y-15545436D02*
X13570063Y-15535912D01*
X13684348Y-15564484D02*
X13703396Y-15564484D01*
X13703396Y-15564484D02*
X13722444Y-15574008D01*
X13722444Y-15574008D02*
X13731968Y-15583531D01*
X13731968Y-15583531D02*
X13741491Y-15602579D01*
X13741491Y-15602579D02*
X13751015Y-15640674D01*
X13751015Y-15640674D02*
X13751015Y-15688293D01*
X13751015Y-15688293D02*
X13741491Y-15726388D01*
X13741491Y-15726388D02*
X13731968Y-15745436D01*
X13731968Y-15745436D02*
X13722444Y-15754960D01*
X13722444Y-15754960D02*
X13703396Y-15764484D01*
X13703396Y-15764484D02*
X13684348Y-15764484D01*
X13684348Y-15764484D02*
X13665301Y-15754960D01*
X13665301Y-15754960D02*
X13655777Y-15745436D01*
X13655777Y-15745436D02*
X13646253Y-15726388D01*
X13646253Y-15726388D02*
X13636729Y-15688293D01*
X13636729Y-15688293D02*
X13636729Y-15640674D01*
X13636729Y-15640674D02*
X13646253Y-15602579D01*
X13646253Y-15602579D02*
X13655777Y-15583531D01*
X13655777Y-15583531D02*
X13665301Y-15574008D01*
X13665301Y-15574008D02*
X13684348Y-15564484D01*
X13989110Y-15764484D02*
X13989110Y-15564484D01*
X14074825Y-15764484D02*
X14074825Y-15659722D01*
X14074825Y-15659722D02*
X14065301Y-15640674D01*
X14065301Y-15640674D02*
X14046253Y-15631150D01*
X14046253Y-15631150D02*
X14017682Y-15631150D01*
X14017682Y-15631150D02*
X13998634Y-15640674D01*
X13998634Y-15640674D02*
X13989110Y-15650198D01*
X14198634Y-15764484D02*
X14179587Y-15754960D01*
X14179587Y-15754960D02*
X14170063Y-15745436D01*
X14170063Y-15745436D02*
X14160539Y-15726388D01*
X14160539Y-15726388D02*
X14160539Y-15669246D01*
X14160539Y-15669246D02*
X14170063Y-15650198D01*
X14170063Y-15650198D02*
X14179587Y-15640674D01*
X14179587Y-15640674D02*
X14198634Y-15631150D01*
X14198634Y-15631150D02*
X14227206Y-15631150D01*
X14227206Y-15631150D02*
X14246253Y-15640674D01*
X14246253Y-15640674D02*
X14255777Y-15650198D01*
X14255777Y-15650198D02*
X14265301Y-15669246D01*
X14265301Y-15669246D02*
X14265301Y-15726388D01*
X14265301Y-15726388D02*
X14255777Y-15745436D01*
X14255777Y-15745436D02*
X14246253Y-15754960D01*
X14246253Y-15754960D02*
X14227206Y-15764484D01*
X14227206Y-15764484D02*
X14198634Y-15764484D01*
X14379587Y-15764484D02*
X14360539Y-15754960D01*
X14360539Y-15754960D02*
X14351015Y-15735912D01*
X14351015Y-15735912D02*
X14351015Y-15564484D01*
X14531968Y-15754960D02*
X14512920Y-15764484D01*
X14512920Y-15764484D02*
X14474825Y-15764484D01*
X14474825Y-15764484D02*
X14455777Y-15754960D01*
X14455777Y-15754960D02*
X14446253Y-15735912D01*
X14446253Y-15735912D02*
X14446253Y-15659722D01*
X14446253Y-15659722D02*
X14455777Y-15640674D01*
X14455777Y-15640674D02*
X14474825Y-15631150D01*
X14474825Y-15631150D02*
X14512920Y-15631150D01*
X14512920Y-15631150D02*
X14531968Y-15640674D01*
X14531968Y-15640674D02*
X14541491Y-15659722D01*
X14541491Y-15659722D02*
X14541491Y-15678769D01*
X14541491Y-15678769D02*
X14446253Y-15697817D01*
X14617682Y-15754960D02*
X14636730Y-15764484D01*
X14636730Y-15764484D02*
X14674825Y-15764484D01*
X14674825Y-15764484D02*
X14693872Y-15754960D01*
X14693872Y-15754960D02*
X14703396Y-15735912D01*
X14703396Y-15735912D02*
X14703396Y-15726388D01*
X14703396Y-15726388D02*
X14693872Y-15707341D01*
X14693872Y-15707341D02*
X14674825Y-15697817D01*
X14674825Y-15697817D02*
X14646253Y-15697817D01*
X14646253Y-15697817D02*
X14627206Y-15688293D01*
X14627206Y-15688293D02*
X14617682Y-15669246D01*
X14617682Y-15669246D02*
X14617682Y-15659722D01*
X14617682Y-15659722D02*
X14627206Y-15640674D01*
X14627206Y-15640674D02*
X14646253Y-15631150D01*
X14646253Y-15631150D02*
X14674825Y-15631150D01*
X14674825Y-15631150D02*
X14693872Y-15640674D01*
X14941492Y-15688293D02*
X15093873Y-15688293D01*
X15017682Y-15764484D02*
X15017682Y-15612103D01*
X15331968Y-15583531D02*
X15341492Y-15574008D01*
X15341492Y-15574008D02*
X15360539Y-15564484D01*
X15360539Y-15564484D02*
X15408158Y-15564484D01*
X15408158Y-15564484D02*
X15427206Y-15574008D01*
X15427206Y-15574008D02*
X15436730Y-15583531D01*
X15436730Y-15583531D02*
X15446253Y-15602579D01*
X15446253Y-15602579D02*
X15446253Y-15621627D01*
X15446253Y-15621627D02*
X15436730Y-15650198D01*
X15436730Y-15650198D02*
X15322444Y-15764484D01*
X15322444Y-15764484D02*
X15446253Y-15764484D01*
X15674825Y-15754960D02*
X15693873Y-15764484D01*
X15693873Y-15764484D02*
X15731968Y-15764484D01*
X15731968Y-15764484D02*
X15751015Y-15754960D01*
X15751015Y-15754960D02*
X15760539Y-15735912D01*
X15760539Y-15735912D02*
X15760539Y-15726388D01*
X15760539Y-15726388D02*
X15751015Y-15707341D01*
X15751015Y-15707341D02*
X15731968Y-15697817D01*
X15731968Y-15697817D02*
X15703396Y-15697817D01*
X15703396Y-15697817D02*
X15684349Y-15688293D01*
X15684349Y-15688293D02*
X15674825Y-15669246D01*
X15674825Y-15669246D02*
X15674825Y-15659722D01*
X15674825Y-15659722D02*
X15684349Y-15640674D01*
X15684349Y-15640674D02*
X15703396Y-15631150D01*
X15703396Y-15631150D02*
X15731968Y-15631150D01*
X15731968Y-15631150D02*
X15751015Y-15640674D01*
X15874825Y-15764484D02*
X15855777Y-15754960D01*
X15855777Y-15754960D02*
X15846254Y-15735912D01*
X15846254Y-15735912D02*
X15846254Y-15564484D01*
X15979587Y-15764484D02*
X15960539Y-15754960D01*
X15960539Y-15754960D02*
X15951015Y-15745436D01*
X15951015Y-15745436D02*
X15941492Y-15726388D01*
X15941492Y-15726388D02*
X15941492Y-15669246D01*
X15941492Y-15669246D02*
X15951015Y-15650198D01*
X15951015Y-15650198D02*
X15960539Y-15640674D01*
X15960539Y-15640674D02*
X15979587Y-15631150D01*
X15979587Y-15631150D02*
X16008158Y-15631150D01*
X16008158Y-15631150D02*
X16027206Y-15640674D01*
X16027206Y-15640674D02*
X16036730Y-15650198D01*
X16036730Y-15650198D02*
X16046254Y-15669246D01*
X16046254Y-15669246D02*
X16046254Y-15726388D01*
X16046254Y-15726388D02*
X16036730Y-15745436D01*
X16036730Y-15745436D02*
X16027206Y-15754960D01*
X16027206Y-15754960D02*
X16008158Y-15764484D01*
X16008158Y-15764484D02*
X15979587Y-15764484D01*
X16103396Y-15631150D02*
X16179587Y-15631150D01*
X16131968Y-15564484D02*
X16131968Y-15735912D01*
X16131968Y-15735912D02*
X16141492Y-15754960D01*
X16141492Y-15754960D02*
X16160539Y-15764484D01*
X16160539Y-15764484D02*
X16179587Y-15764484D01*
X16236730Y-15754960D02*
X16255777Y-15764484D01*
X16255777Y-15764484D02*
X16293873Y-15764484D01*
X16293873Y-15764484D02*
X16312920Y-15754960D01*
X16312920Y-15754960D02*
X16322444Y-15735912D01*
X16322444Y-15735912D02*
X16322444Y-15726388D01*
X16322444Y-15726388D02*
X16312920Y-15707341D01*
X16312920Y-15707341D02*
X16293873Y-15697817D01*
X16293873Y-15697817D02*
X16265301Y-15697817D01*
X16265301Y-15697817D02*
X16246254Y-15688293D01*
X16246254Y-15688293D02*
X16236730Y-15669246D01*
X16236730Y-15669246D02*
X16236730Y-15659722D01*
X16236730Y-15659722D02*
X16246254Y-15640674D01*
X16246254Y-15640674D02*
X16265301Y-15631150D01*
X16265301Y-15631150D02*
X16293873Y-15631150D01*
X16293873Y-15631150D02*
X16312920Y-15640674D01*
X16389111Y-15840674D02*
X16398635Y-15831150D01*
X16398635Y-15831150D02*
X16417682Y-15802579D01*
X16417682Y-15802579D02*
X16427206Y-15783531D01*
X16427206Y-15783531D02*
X16436730Y-15754960D01*
X16436730Y-15754960D02*
X16446254Y-15707341D01*
X16446254Y-15707341D02*
X16446254Y-15669246D01*
X16446254Y-15669246D02*
X16436730Y-15621627D01*
X16436730Y-15621627D02*
X16427206Y-15593055D01*
X16427206Y-15593055D02*
X16417682Y-15574008D01*
X16417682Y-15574008D02*
X16398635Y-15545436D01*
X16398635Y-15545436D02*
X16389111Y-15535912D01*
D15*
X9985481Y-15959981D02*
X9985481Y-15914019D01*
X9939519Y-15914019D01*
X9939519Y-15959981D01*
X9985481Y-15959981D01*
D11*
X10293872Y-15828484D02*
X10312920Y-15828484D01*
X10312920Y-15828484D02*
X10331967Y-15838008D01*
X10331967Y-15838008D02*
X10341491Y-15847531D01*
X10341491Y-15847531D02*
X10351015Y-15866579D01*
X10351015Y-15866579D02*
X10360539Y-15904674D01*
X10360539Y-15904674D02*
X10360539Y-15952293D01*
X10360539Y-15952293D02*
X10351015Y-15990388D01*
X10351015Y-15990388D02*
X10341491Y-16009436D01*
X10341491Y-16009436D02*
X10331967Y-16018960D01*
X10331967Y-16018960D02*
X10312920Y-16028484D01*
X10312920Y-16028484D02*
X10293872Y-16028484D01*
X10293872Y-16028484D02*
X10274824Y-16018960D01*
X10274824Y-16018960D02*
X10265301Y-16009436D01*
X10265301Y-16009436D02*
X10255777Y-15990388D01*
X10255777Y-15990388D02*
X10246253Y-15952293D01*
X10246253Y-15952293D02*
X10246253Y-15904674D01*
X10246253Y-15904674D02*
X10255777Y-15866579D01*
X10255777Y-15866579D02*
X10265301Y-15847531D01*
X10265301Y-15847531D02*
X10274824Y-15838008D01*
X10274824Y-15838008D02*
X10293872Y-15828484D01*
X10446253Y-16009436D02*
X10455777Y-16018960D01*
X10455777Y-16018960D02*
X10446253Y-16028484D01*
X10446253Y-16028484D02*
X10436729Y-16018960D01*
X10436729Y-16018960D02*
X10446253Y-16009436D01*
X10446253Y-16009436D02*
X10446253Y-16028484D01*
X10627205Y-15828484D02*
X10589110Y-15828484D01*
X10589110Y-15828484D02*
X10570063Y-15838008D01*
X10570063Y-15838008D02*
X10560539Y-15847531D01*
X10560539Y-15847531D02*
X10541491Y-15876103D01*
X10541491Y-15876103D02*
X10531967Y-15914198D01*
X10531967Y-15914198D02*
X10531967Y-15990388D01*
X10531967Y-15990388D02*
X10541491Y-16009436D01*
X10541491Y-16009436D02*
X10551015Y-16018960D01*
X10551015Y-16018960D02*
X10570063Y-16028484D01*
X10570063Y-16028484D02*
X10608158Y-16028484D01*
X10608158Y-16028484D02*
X10627205Y-16018960D01*
X10627205Y-16018960D02*
X10636729Y-16009436D01*
X10636729Y-16009436D02*
X10646253Y-15990388D01*
X10646253Y-15990388D02*
X10646253Y-15942769D01*
X10646253Y-15942769D02*
X10636729Y-15923722D01*
X10636729Y-15923722D02*
X10627205Y-15914198D01*
X10627205Y-15914198D02*
X10608158Y-15904674D01*
X10608158Y-15904674D02*
X10570063Y-15904674D01*
X10570063Y-15904674D02*
X10551015Y-15914198D01*
X10551015Y-15914198D02*
X10541491Y-15923722D01*
X10541491Y-15923722D02*
X10531967Y-15942769D01*
X10827205Y-15828484D02*
X10731967Y-15828484D01*
X10731967Y-15828484D02*
X10722444Y-15923722D01*
X10722444Y-15923722D02*
X10731967Y-15914198D01*
X10731967Y-15914198D02*
X10751015Y-15904674D01*
X10751015Y-15904674D02*
X10798634Y-15904674D01*
X10798634Y-15904674D02*
X10817682Y-15914198D01*
X10817682Y-15914198D02*
X10827205Y-15923722D01*
X10827205Y-15923722D02*
X10836729Y-15942769D01*
X10836729Y-15942769D02*
X10836729Y-15990388D01*
X10836729Y-15990388D02*
X10827205Y-16009436D01*
X10827205Y-16009436D02*
X10817682Y-16018960D01*
X10817682Y-16018960D02*
X10798634Y-16028484D01*
X10798634Y-16028484D02*
X10751015Y-16028484D01*
X10751015Y-16028484D02*
X10731967Y-16018960D01*
X10731967Y-16018960D02*
X10722444Y-16009436D01*
X10960539Y-15828484D02*
X10979586Y-15828484D01*
X10979586Y-15828484D02*
X10998634Y-15838008D01*
X10998634Y-15838008D02*
X11008158Y-15847531D01*
X11008158Y-15847531D02*
X11017682Y-15866579D01*
X11017682Y-15866579D02*
X11027205Y-15904674D01*
X11027205Y-15904674D02*
X11027205Y-15952293D01*
X11027205Y-15952293D02*
X11017682Y-15990388D01*
X11017682Y-15990388D02*
X11008158Y-16009436D01*
X11008158Y-16009436D02*
X10998634Y-16018960D01*
X10998634Y-16018960D02*
X10979586Y-16028484D01*
X10979586Y-16028484D02*
X10960539Y-16028484D01*
X10960539Y-16028484D02*
X10941491Y-16018960D01*
X10941491Y-16018960D02*
X10931967Y-16009436D01*
X10931967Y-16009436D02*
X10922444Y-15990388D01*
X10922444Y-15990388D02*
X10912920Y-15952293D01*
X10912920Y-15952293D02*
X10912920Y-15904674D01*
X10912920Y-15904674D02*
X10922444Y-15866579D01*
X10922444Y-15866579D02*
X10931967Y-15847531D01*
X10931967Y-15847531D02*
X10941491Y-15838008D01*
X10941491Y-15838008D02*
X10960539Y-15828484D01*
X11112920Y-16028484D02*
X11112920Y-15895150D01*
X11112920Y-15914198D02*
X11122444Y-15904674D01*
X11122444Y-15904674D02*
X11141491Y-15895150D01*
X11141491Y-15895150D02*
X11170063Y-15895150D01*
X11170063Y-15895150D02*
X11189110Y-15904674D01*
X11189110Y-15904674D02*
X11198634Y-15923722D01*
X11198634Y-15923722D02*
X11198634Y-16028484D01*
X11198634Y-15923722D02*
X11208158Y-15904674D01*
X11208158Y-15904674D02*
X11227205Y-15895150D01*
X11227205Y-15895150D02*
X11255777Y-15895150D01*
X11255777Y-15895150D02*
X11274824Y-15904674D01*
X11274824Y-15904674D02*
X11284348Y-15923722D01*
X11284348Y-15923722D02*
X11284348Y-16028484D01*
X11379586Y-16028484D02*
X11379586Y-15895150D01*
X11379586Y-15914198D02*
X11389110Y-15904674D01*
X11389110Y-15904674D02*
X11408158Y-15895150D01*
X11408158Y-15895150D02*
X11436729Y-15895150D01*
X11436729Y-15895150D02*
X11455777Y-15904674D01*
X11455777Y-15904674D02*
X11465301Y-15923722D01*
X11465301Y-15923722D02*
X11465301Y-16028484D01*
X11465301Y-15923722D02*
X11474824Y-15904674D01*
X11474824Y-15904674D02*
X11493872Y-15895150D01*
X11493872Y-15895150D02*
X11522443Y-15895150D01*
X11522443Y-15895150D02*
X11541491Y-15904674D01*
X11541491Y-15904674D02*
X11551015Y-15923722D01*
X11551015Y-15923722D02*
X11551015Y-16028484D01*
X11941491Y-15818960D02*
X11770063Y-16076103D01*
X12198634Y-15828484D02*
X12217682Y-15828484D01*
X12217682Y-15828484D02*
X12236729Y-15838008D01*
X12236729Y-15838008D02*
X12246253Y-15847531D01*
X12246253Y-15847531D02*
X12255777Y-15866579D01*
X12255777Y-15866579D02*
X12265301Y-15904674D01*
X12265301Y-15904674D02*
X12265301Y-15952293D01*
X12265301Y-15952293D02*
X12255777Y-15990388D01*
X12255777Y-15990388D02*
X12246253Y-16009436D01*
X12246253Y-16009436D02*
X12236729Y-16018960D01*
X12236729Y-16018960D02*
X12217682Y-16028484D01*
X12217682Y-16028484D02*
X12198634Y-16028484D01*
X12198634Y-16028484D02*
X12179586Y-16018960D01*
X12179586Y-16018960D02*
X12170063Y-16009436D01*
X12170063Y-16009436D02*
X12160539Y-15990388D01*
X12160539Y-15990388D02*
X12151015Y-15952293D01*
X12151015Y-15952293D02*
X12151015Y-15904674D01*
X12151015Y-15904674D02*
X12160539Y-15866579D01*
X12160539Y-15866579D02*
X12170063Y-15847531D01*
X12170063Y-15847531D02*
X12179586Y-15838008D01*
X12179586Y-15838008D02*
X12198634Y-15828484D01*
X12351015Y-16009436D02*
X12360539Y-16018960D01*
X12360539Y-16018960D02*
X12351015Y-16028484D01*
X12351015Y-16028484D02*
X12341491Y-16018960D01*
X12341491Y-16018960D02*
X12351015Y-16009436D01*
X12351015Y-16009436D02*
X12351015Y-16028484D01*
X12484348Y-15828484D02*
X12503396Y-15828484D01*
X12503396Y-15828484D02*
X12522444Y-15838008D01*
X12522444Y-15838008D02*
X12531967Y-15847531D01*
X12531967Y-15847531D02*
X12541491Y-15866579D01*
X12541491Y-15866579D02*
X12551015Y-15904674D01*
X12551015Y-15904674D02*
X12551015Y-15952293D01*
X12551015Y-15952293D02*
X12541491Y-15990388D01*
X12541491Y-15990388D02*
X12531967Y-16009436D01*
X12531967Y-16009436D02*
X12522444Y-16018960D01*
X12522444Y-16018960D02*
X12503396Y-16028484D01*
X12503396Y-16028484D02*
X12484348Y-16028484D01*
X12484348Y-16028484D02*
X12465301Y-16018960D01*
X12465301Y-16018960D02*
X12455777Y-16009436D01*
X12455777Y-16009436D02*
X12446253Y-15990388D01*
X12446253Y-15990388D02*
X12436729Y-15952293D01*
X12436729Y-15952293D02*
X12436729Y-15904674D01*
X12436729Y-15904674D02*
X12446253Y-15866579D01*
X12446253Y-15866579D02*
X12455777Y-15847531D01*
X12455777Y-15847531D02*
X12465301Y-15838008D01*
X12465301Y-15838008D02*
X12484348Y-15828484D01*
X12627206Y-15847531D02*
X12636729Y-15838008D01*
X12636729Y-15838008D02*
X12655777Y-15828484D01*
X12655777Y-15828484D02*
X12703396Y-15828484D01*
X12703396Y-15828484D02*
X12722444Y-15838008D01*
X12722444Y-15838008D02*
X12731967Y-15847531D01*
X12731967Y-15847531D02*
X12741491Y-15866579D01*
X12741491Y-15866579D02*
X12741491Y-15885627D01*
X12741491Y-15885627D02*
X12731967Y-15914198D01*
X12731967Y-15914198D02*
X12617682Y-16028484D01*
X12617682Y-16028484D02*
X12741491Y-16028484D01*
X12922444Y-15828484D02*
X12827206Y-15828484D01*
X12827206Y-15828484D02*
X12817682Y-15923722D01*
X12817682Y-15923722D02*
X12827206Y-15914198D01*
X12827206Y-15914198D02*
X12846253Y-15904674D01*
X12846253Y-15904674D02*
X12893872Y-15904674D01*
X12893872Y-15904674D02*
X12912920Y-15914198D01*
X12912920Y-15914198D02*
X12922444Y-15923722D01*
X12922444Y-15923722D02*
X12931967Y-15942769D01*
X12931967Y-15942769D02*
X12931967Y-15990388D01*
X12931967Y-15990388D02*
X12922444Y-16009436D01*
X12922444Y-16009436D02*
X12912920Y-16018960D01*
X12912920Y-16018960D02*
X12893872Y-16028484D01*
X12893872Y-16028484D02*
X12846253Y-16028484D01*
X12846253Y-16028484D02*
X12827206Y-16018960D01*
X12827206Y-16018960D02*
X12817682Y-16009436D01*
X13103396Y-15828484D02*
X13065301Y-15828484D01*
X13065301Y-15828484D02*
X13046253Y-15838008D01*
X13046253Y-15838008D02*
X13036729Y-15847531D01*
X13036729Y-15847531D02*
X13017682Y-15876103D01*
X13017682Y-15876103D02*
X13008158Y-15914198D01*
X13008158Y-15914198D02*
X13008158Y-15990388D01*
X13008158Y-15990388D02*
X13017682Y-16009436D01*
X13017682Y-16009436D02*
X13027206Y-16018960D01*
X13027206Y-16018960D02*
X13046253Y-16028484D01*
X13046253Y-16028484D02*
X13084348Y-16028484D01*
X13084348Y-16028484D02*
X13103396Y-16018960D01*
X13103396Y-16018960D02*
X13112920Y-16009436D01*
X13112920Y-16009436D02*
X13122444Y-15990388D01*
X13122444Y-15990388D02*
X13122444Y-15942769D01*
X13122444Y-15942769D02*
X13112920Y-15923722D01*
X13112920Y-15923722D02*
X13103396Y-15914198D01*
X13103396Y-15914198D02*
X13084348Y-15904674D01*
X13084348Y-15904674D02*
X13046253Y-15904674D01*
X13046253Y-15904674D02*
X13027206Y-15914198D01*
X13027206Y-15914198D02*
X13017682Y-15923722D01*
X13017682Y-15923722D02*
X13008158Y-15942769D01*
X13198634Y-15828484D02*
X13198634Y-15866579D01*
X13274825Y-15828484D02*
X13274825Y-15866579D01*
X13570063Y-16104674D02*
X13560539Y-16095150D01*
X13560539Y-16095150D02*
X13541491Y-16066579D01*
X13541491Y-16066579D02*
X13531968Y-16047531D01*
X13531968Y-16047531D02*
X13522444Y-16018960D01*
X13522444Y-16018960D02*
X13512920Y-15971341D01*
X13512920Y-15971341D02*
X13512920Y-15933246D01*
X13512920Y-15933246D02*
X13522444Y-15885627D01*
X13522444Y-15885627D02*
X13531968Y-15857055D01*
X13531968Y-15857055D02*
X13541491Y-15838008D01*
X13541491Y-15838008D02*
X13560539Y-15809436D01*
X13560539Y-15809436D02*
X13570063Y-15799912D01*
X13731968Y-15895150D02*
X13731968Y-16028484D01*
X13684348Y-15818960D02*
X13636729Y-15961817D01*
X13636729Y-15961817D02*
X13760539Y-15961817D01*
X13817682Y-15828484D02*
X13941491Y-15828484D01*
X13941491Y-15828484D02*
X13874825Y-15904674D01*
X13874825Y-15904674D02*
X13903396Y-15904674D01*
X13903396Y-15904674D02*
X13922444Y-15914198D01*
X13922444Y-15914198D02*
X13931968Y-15923722D01*
X13931968Y-15923722D02*
X13941491Y-15942769D01*
X13941491Y-15942769D02*
X13941491Y-15990388D01*
X13941491Y-15990388D02*
X13931968Y-16009436D01*
X13931968Y-16009436D02*
X13922444Y-16018960D01*
X13922444Y-16018960D02*
X13903396Y-16028484D01*
X13903396Y-16028484D02*
X13846253Y-16028484D01*
X13846253Y-16028484D02*
X13827206Y-16018960D01*
X13827206Y-16018960D02*
X13817682Y-16009436D01*
X14179587Y-16028484D02*
X14179587Y-15828484D01*
X14265301Y-16028484D02*
X14265301Y-15923722D01*
X14265301Y-15923722D02*
X14255777Y-15904674D01*
X14255777Y-15904674D02*
X14236730Y-15895150D01*
X14236730Y-15895150D02*
X14208158Y-15895150D01*
X14208158Y-15895150D02*
X14189110Y-15904674D01*
X14189110Y-15904674D02*
X14179587Y-15914198D01*
X14389110Y-16028484D02*
X14370063Y-16018960D01*
X14370063Y-16018960D02*
X14360539Y-16009436D01*
X14360539Y-16009436D02*
X14351015Y-15990388D01*
X14351015Y-15990388D02*
X14351015Y-15933246D01*
X14351015Y-15933246D02*
X14360539Y-15914198D01*
X14360539Y-15914198D02*
X14370063Y-15904674D01*
X14370063Y-15904674D02*
X14389110Y-15895150D01*
X14389110Y-15895150D02*
X14417682Y-15895150D01*
X14417682Y-15895150D02*
X14436730Y-15904674D01*
X14436730Y-15904674D02*
X14446253Y-15914198D01*
X14446253Y-15914198D02*
X14455777Y-15933246D01*
X14455777Y-15933246D02*
X14455777Y-15990388D01*
X14455777Y-15990388D02*
X14446253Y-16009436D01*
X14446253Y-16009436D02*
X14436730Y-16018960D01*
X14436730Y-16018960D02*
X14417682Y-16028484D01*
X14417682Y-16028484D02*
X14389110Y-16028484D01*
X14570063Y-16028484D02*
X14551015Y-16018960D01*
X14551015Y-16018960D02*
X14541491Y-15999912D01*
X14541491Y-15999912D02*
X14541491Y-15828484D01*
X14722444Y-16018960D02*
X14703396Y-16028484D01*
X14703396Y-16028484D02*
X14665301Y-16028484D01*
X14665301Y-16028484D02*
X14646253Y-16018960D01*
X14646253Y-16018960D02*
X14636730Y-15999912D01*
X14636730Y-15999912D02*
X14636730Y-15923722D01*
X14636730Y-15923722D02*
X14646253Y-15904674D01*
X14646253Y-15904674D02*
X14665301Y-15895150D01*
X14665301Y-15895150D02*
X14703396Y-15895150D01*
X14703396Y-15895150D02*
X14722444Y-15904674D01*
X14722444Y-15904674D02*
X14731968Y-15923722D01*
X14731968Y-15923722D02*
X14731968Y-15942769D01*
X14731968Y-15942769D02*
X14636730Y-15961817D01*
X14808158Y-16018960D02*
X14827206Y-16028484D01*
X14827206Y-16028484D02*
X14865301Y-16028484D01*
X14865301Y-16028484D02*
X14884349Y-16018960D01*
X14884349Y-16018960D02*
X14893872Y-15999912D01*
X14893872Y-15999912D02*
X14893872Y-15990388D01*
X14893872Y-15990388D02*
X14884349Y-15971341D01*
X14884349Y-15971341D02*
X14865301Y-15961817D01*
X14865301Y-15961817D02*
X14836730Y-15961817D01*
X14836730Y-15961817D02*
X14817682Y-15952293D01*
X14817682Y-15952293D02*
X14808158Y-15933246D01*
X14808158Y-15933246D02*
X14808158Y-15923722D01*
X14808158Y-15923722D02*
X14817682Y-15904674D01*
X14817682Y-15904674D02*
X14836730Y-15895150D01*
X14836730Y-15895150D02*
X14865301Y-15895150D01*
X14865301Y-15895150D02*
X14884349Y-15904674D01*
X14960539Y-16104674D02*
X14970063Y-16095150D01*
X14970063Y-16095150D02*
X14989111Y-16066579D01*
X14989111Y-16066579D02*
X14998634Y-16047531D01*
X14998634Y-16047531D02*
X15008158Y-16018960D01*
X15008158Y-16018960D02*
X15017682Y-15971341D01*
X15017682Y-15971341D02*
X15017682Y-15933246D01*
X15017682Y-15933246D02*
X15008158Y-15885627D01*
X15008158Y-15885627D02*
X14998634Y-15857055D01*
X14998634Y-15857055D02*
X14989111Y-15838008D01*
X14989111Y-15838008D02*
X14970063Y-15809436D01*
X14970063Y-15809436D02*
X14960539Y-15799912D01*
D16*
X9935000Y-16261000D02*
X9995000Y-16201000D01*
X9935000Y-16141000D01*
X9875000Y-16201000D01*
X9935000Y-16261000D01*
D11*
X10360539Y-16292484D02*
X10246253Y-16292484D01*
X10303396Y-16292484D02*
X10303396Y-16092484D01*
X10303396Y-16092484D02*
X10284348Y-16121055D01*
X10284348Y-16121055D02*
X10265301Y-16140103D01*
X10265301Y-16140103D02*
X10246253Y-16149627D01*
X10446253Y-16273436D02*
X10455777Y-16282960D01*
X10455777Y-16282960D02*
X10446253Y-16292484D01*
X10446253Y-16292484D02*
X10436729Y-16282960D01*
X10436729Y-16282960D02*
X10446253Y-16273436D01*
X10446253Y-16273436D02*
X10446253Y-16292484D01*
X10531967Y-16111531D02*
X10541491Y-16102008D01*
X10541491Y-16102008D02*
X10560539Y-16092484D01*
X10560539Y-16092484D02*
X10608158Y-16092484D01*
X10608158Y-16092484D02*
X10627205Y-16102008D01*
X10627205Y-16102008D02*
X10636729Y-16111531D01*
X10636729Y-16111531D02*
X10646253Y-16130579D01*
X10646253Y-16130579D02*
X10646253Y-16149627D01*
X10646253Y-16149627D02*
X10636729Y-16178198D01*
X10636729Y-16178198D02*
X10522444Y-16292484D01*
X10522444Y-16292484D02*
X10646253Y-16292484D01*
X10770063Y-16092484D02*
X10789110Y-16092484D01*
X10789110Y-16092484D02*
X10808158Y-16102008D01*
X10808158Y-16102008D02*
X10817682Y-16111531D01*
X10817682Y-16111531D02*
X10827205Y-16130579D01*
X10827205Y-16130579D02*
X10836729Y-16168674D01*
X10836729Y-16168674D02*
X10836729Y-16216293D01*
X10836729Y-16216293D02*
X10827205Y-16254388D01*
X10827205Y-16254388D02*
X10817682Y-16273436D01*
X10817682Y-16273436D02*
X10808158Y-16282960D01*
X10808158Y-16282960D02*
X10789110Y-16292484D01*
X10789110Y-16292484D02*
X10770063Y-16292484D01*
X10770063Y-16292484D02*
X10751015Y-16282960D01*
X10751015Y-16282960D02*
X10741491Y-16273436D01*
X10741491Y-16273436D02*
X10731967Y-16254388D01*
X10731967Y-16254388D02*
X10722444Y-16216293D01*
X10722444Y-16216293D02*
X10722444Y-16168674D01*
X10722444Y-16168674D02*
X10731967Y-16130579D01*
X10731967Y-16130579D02*
X10741491Y-16111531D01*
X10741491Y-16111531D02*
X10751015Y-16102008D01*
X10751015Y-16102008D02*
X10770063Y-16092484D01*
X10960539Y-16092484D02*
X10979586Y-16092484D01*
X10979586Y-16092484D02*
X10998634Y-16102008D01*
X10998634Y-16102008D02*
X11008158Y-16111531D01*
X11008158Y-16111531D02*
X11017682Y-16130579D01*
X11017682Y-16130579D02*
X11027205Y-16168674D01*
X11027205Y-16168674D02*
X11027205Y-16216293D01*
X11027205Y-16216293D02*
X11017682Y-16254388D01*
X11017682Y-16254388D02*
X11008158Y-16273436D01*
X11008158Y-16273436D02*
X10998634Y-16282960D01*
X10998634Y-16282960D02*
X10979586Y-16292484D01*
X10979586Y-16292484D02*
X10960539Y-16292484D01*
X10960539Y-16292484D02*
X10941491Y-16282960D01*
X10941491Y-16282960D02*
X10931967Y-16273436D01*
X10931967Y-16273436D02*
X10922444Y-16254388D01*
X10922444Y-16254388D02*
X10912920Y-16216293D01*
X10912920Y-16216293D02*
X10912920Y-16168674D01*
X10912920Y-16168674D02*
X10922444Y-16130579D01*
X10922444Y-16130579D02*
X10931967Y-16111531D01*
X10931967Y-16111531D02*
X10941491Y-16102008D01*
X10941491Y-16102008D02*
X10960539Y-16092484D01*
X11112920Y-16292484D02*
X11112920Y-16159150D01*
X11112920Y-16178198D02*
X11122444Y-16168674D01*
X11122444Y-16168674D02*
X11141491Y-16159150D01*
X11141491Y-16159150D02*
X11170063Y-16159150D01*
X11170063Y-16159150D02*
X11189110Y-16168674D01*
X11189110Y-16168674D02*
X11198634Y-16187722D01*
X11198634Y-16187722D02*
X11198634Y-16292484D01*
X11198634Y-16187722D02*
X11208158Y-16168674D01*
X11208158Y-16168674D02*
X11227205Y-16159150D01*
X11227205Y-16159150D02*
X11255777Y-16159150D01*
X11255777Y-16159150D02*
X11274824Y-16168674D01*
X11274824Y-16168674D02*
X11284348Y-16187722D01*
X11284348Y-16187722D02*
X11284348Y-16292484D01*
X11379586Y-16292484D02*
X11379586Y-16159150D01*
X11379586Y-16178198D02*
X11389110Y-16168674D01*
X11389110Y-16168674D02*
X11408158Y-16159150D01*
X11408158Y-16159150D02*
X11436729Y-16159150D01*
X11436729Y-16159150D02*
X11455777Y-16168674D01*
X11455777Y-16168674D02*
X11465301Y-16187722D01*
X11465301Y-16187722D02*
X11465301Y-16292484D01*
X11465301Y-16187722D02*
X11474824Y-16168674D01*
X11474824Y-16168674D02*
X11493872Y-16159150D01*
X11493872Y-16159150D02*
X11522443Y-16159150D01*
X11522443Y-16159150D02*
X11541491Y-16168674D01*
X11541491Y-16168674D02*
X11551015Y-16187722D01*
X11551015Y-16187722D02*
X11551015Y-16292484D01*
X11941491Y-16082960D02*
X11770063Y-16340103D01*
X12198634Y-16092484D02*
X12217682Y-16092484D01*
X12217682Y-16092484D02*
X12236729Y-16102008D01*
X12236729Y-16102008D02*
X12246253Y-16111531D01*
X12246253Y-16111531D02*
X12255777Y-16130579D01*
X12255777Y-16130579D02*
X12265301Y-16168674D01*
X12265301Y-16168674D02*
X12265301Y-16216293D01*
X12265301Y-16216293D02*
X12255777Y-16254388D01*
X12255777Y-16254388D02*
X12246253Y-16273436D01*
X12246253Y-16273436D02*
X12236729Y-16282960D01*
X12236729Y-16282960D02*
X12217682Y-16292484D01*
X12217682Y-16292484D02*
X12198634Y-16292484D01*
X12198634Y-16292484D02*
X12179586Y-16282960D01*
X12179586Y-16282960D02*
X12170063Y-16273436D01*
X12170063Y-16273436D02*
X12160539Y-16254388D01*
X12160539Y-16254388D02*
X12151015Y-16216293D01*
X12151015Y-16216293D02*
X12151015Y-16168674D01*
X12151015Y-16168674D02*
X12160539Y-16130579D01*
X12160539Y-16130579D02*
X12170063Y-16111531D01*
X12170063Y-16111531D02*
X12179586Y-16102008D01*
X12179586Y-16102008D02*
X12198634Y-16092484D01*
X12351015Y-16273436D02*
X12360539Y-16282960D01*
X12360539Y-16282960D02*
X12351015Y-16292484D01*
X12351015Y-16292484D02*
X12341491Y-16282960D01*
X12341491Y-16282960D02*
X12351015Y-16273436D01*
X12351015Y-16273436D02*
X12351015Y-16292484D01*
X12484348Y-16092484D02*
X12503396Y-16092484D01*
X12503396Y-16092484D02*
X12522444Y-16102008D01*
X12522444Y-16102008D02*
X12531967Y-16111531D01*
X12531967Y-16111531D02*
X12541491Y-16130579D01*
X12541491Y-16130579D02*
X12551015Y-16168674D01*
X12551015Y-16168674D02*
X12551015Y-16216293D01*
X12551015Y-16216293D02*
X12541491Y-16254388D01*
X12541491Y-16254388D02*
X12531967Y-16273436D01*
X12531967Y-16273436D02*
X12522444Y-16282960D01*
X12522444Y-16282960D02*
X12503396Y-16292484D01*
X12503396Y-16292484D02*
X12484348Y-16292484D01*
X12484348Y-16292484D02*
X12465301Y-16282960D01*
X12465301Y-16282960D02*
X12455777Y-16273436D01*
X12455777Y-16273436D02*
X12446253Y-16254388D01*
X12446253Y-16254388D02*
X12436729Y-16216293D01*
X12436729Y-16216293D02*
X12436729Y-16168674D01*
X12436729Y-16168674D02*
X12446253Y-16130579D01*
X12446253Y-16130579D02*
X12455777Y-16111531D01*
X12455777Y-16111531D02*
X12465301Y-16102008D01*
X12465301Y-16102008D02*
X12484348Y-16092484D01*
X12722444Y-16159150D02*
X12722444Y-16292484D01*
X12674825Y-16082960D02*
X12627206Y-16225817D01*
X12627206Y-16225817D02*
X12751015Y-16225817D01*
X12808158Y-16092484D02*
X12941491Y-16092484D01*
X12941491Y-16092484D02*
X12855777Y-16292484D01*
X13008158Y-16111531D02*
X13017682Y-16102008D01*
X13017682Y-16102008D02*
X13036729Y-16092484D01*
X13036729Y-16092484D02*
X13084348Y-16092484D01*
X13084348Y-16092484D02*
X13103396Y-16102008D01*
X13103396Y-16102008D02*
X13112920Y-16111531D01*
X13112920Y-16111531D02*
X13122444Y-16130579D01*
X13122444Y-16130579D02*
X13122444Y-16149627D01*
X13122444Y-16149627D02*
X13112920Y-16178198D01*
X13112920Y-16178198D02*
X12998634Y-16292484D01*
X12998634Y-16292484D02*
X13122444Y-16292484D01*
X13198634Y-16092484D02*
X13198634Y-16130579D01*
X13274825Y-16092484D02*
X13274825Y-16130579D01*
X13570063Y-16368674D02*
X13560539Y-16359150D01*
X13560539Y-16359150D02*
X13541491Y-16330579D01*
X13541491Y-16330579D02*
X13531968Y-16311531D01*
X13531968Y-16311531D02*
X13522444Y-16282960D01*
X13522444Y-16282960D02*
X13512920Y-16235341D01*
X13512920Y-16235341D02*
X13512920Y-16197246D01*
X13512920Y-16197246D02*
X13522444Y-16149627D01*
X13522444Y-16149627D02*
X13531968Y-16121055D01*
X13531968Y-16121055D02*
X13541491Y-16102008D01*
X13541491Y-16102008D02*
X13560539Y-16073436D01*
X13560539Y-16073436D02*
X13570063Y-16063912D01*
X13636729Y-16111531D02*
X13646253Y-16102008D01*
X13646253Y-16102008D02*
X13665301Y-16092484D01*
X13665301Y-16092484D02*
X13712920Y-16092484D01*
X13712920Y-16092484D02*
X13731968Y-16102008D01*
X13731968Y-16102008D02*
X13741491Y-16111531D01*
X13741491Y-16111531D02*
X13751015Y-16130579D01*
X13751015Y-16130579D02*
X13751015Y-16149627D01*
X13751015Y-16149627D02*
X13741491Y-16178198D01*
X13741491Y-16178198D02*
X13627206Y-16292484D01*
X13627206Y-16292484D02*
X13751015Y-16292484D01*
X13989110Y-16292484D02*
X13989110Y-16092484D01*
X14074825Y-16292484D02*
X14074825Y-16187722D01*
X14074825Y-16187722D02*
X14065301Y-16168674D01*
X14065301Y-16168674D02*
X14046253Y-16159150D01*
X14046253Y-16159150D02*
X14017682Y-16159150D01*
X14017682Y-16159150D02*
X13998634Y-16168674D01*
X13998634Y-16168674D02*
X13989110Y-16178198D01*
X14198634Y-16292484D02*
X14179587Y-16282960D01*
X14179587Y-16282960D02*
X14170063Y-16273436D01*
X14170063Y-16273436D02*
X14160539Y-16254388D01*
X14160539Y-16254388D02*
X14160539Y-16197246D01*
X14160539Y-16197246D02*
X14170063Y-16178198D01*
X14170063Y-16178198D02*
X14179587Y-16168674D01*
X14179587Y-16168674D02*
X14198634Y-16159150D01*
X14198634Y-16159150D02*
X14227206Y-16159150D01*
X14227206Y-16159150D02*
X14246253Y-16168674D01*
X14246253Y-16168674D02*
X14255777Y-16178198D01*
X14255777Y-16178198D02*
X14265301Y-16197246D01*
X14265301Y-16197246D02*
X14265301Y-16254388D01*
X14265301Y-16254388D02*
X14255777Y-16273436D01*
X14255777Y-16273436D02*
X14246253Y-16282960D01*
X14246253Y-16282960D02*
X14227206Y-16292484D01*
X14227206Y-16292484D02*
X14198634Y-16292484D01*
X14379587Y-16292484D02*
X14360539Y-16282960D01*
X14360539Y-16282960D02*
X14351015Y-16263912D01*
X14351015Y-16263912D02*
X14351015Y-16092484D01*
X14531968Y-16282960D02*
X14512920Y-16292484D01*
X14512920Y-16292484D02*
X14474825Y-16292484D01*
X14474825Y-16292484D02*
X14455777Y-16282960D01*
X14455777Y-16282960D02*
X14446253Y-16263912D01*
X14446253Y-16263912D02*
X14446253Y-16187722D01*
X14446253Y-16187722D02*
X14455777Y-16168674D01*
X14455777Y-16168674D02*
X14474825Y-16159150D01*
X14474825Y-16159150D02*
X14512920Y-16159150D01*
X14512920Y-16159150D02*
X14531968Y-16168674D01*
X14531968Y-16168674D02*
X14541491Y-16187722D01*
X14541491Y-16187722D02*
X14541491Y-16206769D01*
X14541491Y-16206769D02*
X14446253Y-16225817D01*
X14617682Y-16282960D02*
X14636730Y-16292484D01*
X14636730Y-16292484D02*
X14674825Y-16292484D01*
X14674825Y-16292484D02*
X14693872Y-16282960D01*
X14693872Y-16282960D02*
X14703396Y-16263912D01*
X14703396Y-16263912D02*
X14703396Y-16254388D01*
X14703396Y-16254388D02*
X14693872Y-16235341D01*
X14693872Y-16235341D02*
X14674825Y-16225817D01*
X14674825Y-16225817D02*
X14646253Y-16225817D01*
X14646253Y-16225817D02*
X14627206Y-16216293D01*
X14627206Y-16216293D02*
X14617682Y-16197246D01*
X14617682Y-16197246D02*
X14617682Y-16187722D01*
X14617682Y-16187722D02*
X14627206Y-16168674D01*
X14627206Y-16168674D02*
X14646253Y-16159150D01*
X14646253Y-16159150D02*
X14674825Y-16159150D01*
X14674825Y-16159150D02*
X14693872Y-16168674D01*
X14770063Y-16368674D02*
X14779587Y-16359150D01*
X14779587Y-16359150D02*
X14798634Y-16330579D01*
X14798634Y-16330579D02*
X14808158Y-16311531D01*
X14808158Y-16311531D02*
X14817682Y-16282960D01*
X14817682Y-16282960D02*
X14827206Y-16235341D01*
X14827206Y-16235341D02*
X14827206Y-16197246D01*
X14827206Y-16197246D02*
X14817682Y-16149627D01*
X14817682Y-16149627D02*
X14808158Y-16121055D01*
X14808158Y-16121055D02*
X14798634Y-16102008D01*
X14798634Y-16102008D02*
X14779587Y-16073436D01*
X14779587Y-16073436D02*
X14770063Y-16063912D01*
M02*
