%TF.GenerationSoftware,KiCad,Pcbnew,7.0.7*%
%TF.CreationDate,2024-05-08T11:13:53-07:00*%
%TF.ProjectId,Final_Project_Sutton_Yazzolino,46696e61-6c5f-4507-926f-6a6563745f53,rev?*%
%TF.SameCoordinates,Original*%
%TF.FileFunction,Soldermask,Top*%
%TF.FilePolarity,Negative*%
%FSLAX46Y46*%
G04 Gerber Fmt 4.6, Leading zero omitted, Abs format (unit mm)*
G04 Created by KiCad (PCBNEW 7.0.7) date 2024-05-08 11:13:53*
%MOMM*%
%LPD*%
G01*
G04 APERTURE LIST*
G04 Aperture macros list*
%AMRoundRect*
0 Rectangle with rounded corners*
0 $1 Rounding radius*
0 $2 $3 $4 $5 $6 $7 $8 $9 X,Y pos of 4 corners*
0 Add a 4 corners polygon primitive as box body*
4,1,4,$2,$3,$4,$5,$6,$7,$8,$9,$2,$3,0*
0 Add four circle primitives for the rounded corners*
1,1,$1+$1,$2,$3*
1,1,$1+$1,$4,$5*
1,1,$1+$1,$6,$7*
1,1,$1+$1,$8,$9*
0 Add four rect primitives between the rounded corners*
20,1,$1+$1,$2,$3,$4,$5,0*
20,1,$1+$1,$4,$5,$6,$7,0*
20,1,$1+$1,$6,$7,$8,$9,0*
20,1,$1+$1,$8,$9,$2,$3,0*%
%AMFreePoly0*
4,1,9,3.862500,-0.866500,0.737500,-0.866500,0.737500,-0.450000,-0.737500,-0.450000,-0.737500,0.450000,0.737500,0.450000,0.737500,0.866500,3.862500,0.866500,3.862500,-0.866500,3.862500,-0.866500,$1*%
G04 Aperture macros list end*
%ADD10RoundRect,0.250000X-0.262500X-0.450000X0.262500X-0.450000X0.262500X0.450000X-0.262500X0.450000X0*%
%ADD11RoundRect,0.250000X0.450000X-0.262500X0.450000X0.262500X-0.450000X0.262500X-0.450000X-0.262500X0*%
%ADD12C,2.000000*%
%ADD13RoundRect,0.250000X0.262500X0.450000X-0.262500X0.450000X-0.262500X-0.450000X0.262500X-0.450000X0*%
%ADD14R,0.400000X1.350000*%
%ADD15O,0.890000X1.550000*%
%ADD16R,1.200000X1.550000*%
%ADD17O,1.250000X0.950000*%
%ADD18R,1.500000X1.550000*%
%ADD19R,1.700000X1.700000*%
%ADD20O,1.700000X1.700000*%
%ADD21RoundRect,0.250000X-0.450000X0.262500X-0.450000X-0.262500X0.450000X-0.262500X0.450000X0.262500X0*%
%ADD22RoundRect,0.250000X1.050000X0.550000X-1.050000X0.550000X-1.050000X-0.550000X1.050000X-0.550000X0*%
%ADD23RoundRect,0.150000X-0.825000X-0.150000X0.825000X-0.150000X0.825000X0.150000X-0.825000X0.150000X0*%
%ADD24R,2.290000X3.000000*%
%ADD25RoundRect,0.075000X-0.662500X-0.075000X0.662500X-0.075000X0.662500X0.075000X-0.662500X0.075000X0*%
%ADD26RoundRect,0.075000X-0.075000X-0.662500X0.075000X-0.662500X0.075000X0.662500X-0.075000X0.662500X0*%
%ADD27R,0.800000X1.500000*%
%ADD28R,1.450000X2.000000*%
%ADD29RoundRect,0.250000X-1.050000X-0.550000X1.050000X-0.550000X1.050000X0.550000X-1.050000X0.550000X0*%
%ADD30R,1.000000X1.000000*%
%ADD31O,1.000000X1.000000*%
%ADD32C,3.500000*%
%ADD33R,3.000000X3.000000*%
%ADD34C,3.000000*%
%ADD35R,1.200000X0.600000*%
%ADD36R,1.300000X0.900000*%
%ADD37FreePoly0,180.000000*%
%ADD38RoundRect,0.093750X-0.093750X-0.106250X0.093750X-0.106250X0.093750X0.106250X-0.093750X0.106250X0*%
%ADD39R,1.000000X1.600000*%
%ADD40RoundRect,0.250000X0.300000X0.300000X-0.300000X0.300000X-0.300000X-0.300000X0.300000X-0.300000X0*%
%ADD41RoundRect,0.087500X-0.287500X-0.087500X0.287500X-0.087500X0.287500X0.087500X-0.287500X0.087500X0*%
%ADD42RoundRect,0.150000X-0.150000X0.587500X-0.150000X-0.587500X0.150000X-0.587500X0.150000X0.587500X0*%
%ADD43RoundRect,0.150000X-0.512500X-0.150000X0.512500X-0.150000X0.512500X0.150000X-0.512500X0.150000X0*%
%ADD44C,0.750000*%
%ADD45R,1.000000X1.450000*%
G04 APERTURE END LIST*
D10*
%TO.C,C8*%
X131500000Y-94000000D03*
X133325000Y-94000000D03*
%TD*%
D11*
%TO.C,R15*%
X118750000Y-69312500D03*
X118750000Y-67487500D03*
%TD*%
D10*
%TO.C,C25*%
X181675000Y-141575000D03*
X183500000Y-141575000D03*
%TD*%
D12*
%TO.C,Ie1*%
X150825000Y-112600000D03*
%TD*%
D13*
%TO.C,FB1*%
X115250000Y-90325000D03*
X113425000Y-90325000D03*
%TD*%
D14*
%TO.C,J2*%
X122425000Y-139475000D03*
X123075000Y-139475000D03*
X123725000Y-139475000D03*
X124375000Y-139475000D03*
X125025000Y-139475000D03*
D15*
X120225000Y-142175000D03*
D16*
X120825000Y-142175000D03*
D17*
X121225000Y-139475000D03*
D18*
X122725000Y-142175000D03*
X124725000Y-142175000D03*
D17*
X126225000Y-139475000D03*
D16*
X126625000Y-142175000D03*
D15*
X127225000Y-142175000D03*
%TD*%
D19*
%TO.C,LEDmodule1*%
X132325000Y-142750000D03*
D20*
X134865000Y-142750000D03*
X137405000Y-142750000D03*
X139945000Y-142750000D03*
X142485000Y-142750000D03*
X145025000Y-142750000D03*
X147565000Y-142750000D03*
X150105000Y-142750000D03*
X152645000Y-142750000D03*
X155185000Y-142750000D03*
X157725000Y-142750000D03*
%TD*%
D10*
%TO.C,C16*%
X113350000Y-75975000D03*
X115175000Y-75975000D03*
%TD*%
D13*
%TO.C,C13*%
X115375000Y-87075000D03*
X113550000Y-87075000D03*
%TD*%
D21*
%TO.C,C11*%
X121290000Y-99147500D03*
X121290000Y-100972500D03*
%TD*%
D19*
%TO.C,WifiModule1*%
X103650000Y-91825000D03*
D20*
X103650000Y-89285000D03*
X103650000Y-86745000D03*
X103650000Y-84205000D03*
X103650000Y-81665000D03*
X103650000Y-79125000D03*
X103650000Y-76585000D03*
X103650000Y-74045000D03*
X103650000Y-71505000D03*
X103650000Y-68965000D03*
X103650000Y-66425000D03*
X103650000Y-63885000D03*
%TD*%
D11*
%TO.C,R19*%
X152675000Y-137225000D03*
X152675000Y-135400000D03*
%TD*%
D21*
%TO.C,L1*%
X124625000Y-79700000D03*
X124625000Y-81525000D03*
%TD*%
%TO.C,R3*%
X184100000Y-133875000D03*
X184100000Y-135700000D03*
%TD*%
D22*
%TO.C,C5*%
X173845000Y-113035000D03*
X170245000Y-113035000D03*
%TD*%
D10*
%TO.C,C14*%
X106425000Y-91875000D03*
X108250000Y-91875000D03*
%TD*%
D13*
%TO.C,R13*%
X187700000Y-142625000D03*
X185875000Y-142625000D03*
%TD*%
D11*
%TO.C,C15*%
X132350000Y-138100000D03*
X132350000Y-139925000D03*
%TD*%
D10*
%TO.C,C17*%
X113775000Y-70950000D03*
X115600000Y-70950000D03*
%TD*%
D23*
%TO.C,LDO3.3V1*%
X176075000Y-105805000D03*
X176075000Y-107075000D03*
X176075000Y-108345000D03*
X176075000Y-109615000D03*
X181025000Y-109615000D03*
X181025000Y-108345000D03*
X181025000Y-107075000D03*
X181025000Y-105805000D03*
D24*
X178550000Y-107710000D03*
%TD*%
D25*
%TO.C,U3*%
X118237500Y-86900000D03*
X118237500Y-87400000D03*
X118237500Y-87900000D03*
X118237500Y-88400000D03*
X118237500Y-88900000D03*
X118237500Y-89400000D03*
X118237500Y-89900000D03*
X118237500Y-90400000D03*
X118237500Y-90900000D03*
X118237500Y-91400000D03*
X118237500Y-91900000D03*
X118237500Y-92400000D03*
X118237500Y-92900000D03*
X118237500Y-93400000D03*
X118237500Y-93900000D03*
X118237500Y-94400000D03*
D26*
X120150000Y-96312500D03*
X120650000Y-96312500D03*
X121150000Y-96312500D03*
X121650000Y-96312500D03*
X122150000Y-96312500D03*
X122650000Y-96312500D03*
X123150000Y-96312500D03*
X123650000Y-96312500D03*
X124150000Y-96312500D03*
X124650000Y-96312500D03*
X125150000Y-96312500D03*
X125650000Y-96312500D03*
X126150000Y-96312500D03*
X126650000Y-96312500D03*
X127150000Y-96312500D03*
X127650000Y-96312500D03*
D25*
X129562500Y-94400000D03*
X129562500Y-93900000D03*
X129562500Y-93400000D03*
X129562500Y-92900000D03*
X129562500Y-92400000D03*
X129562500Y-91900000D03*
X129562500Y-91400000D03*
X129562500Y-90900000D03*
X129562500Y-90400000D03*
X129562500Y-89900000D03*
X129562500Y-89400000D03*
X129562500Y-88900000D03*
X129562500Y-88400000D03*
X129562500Y-87900000D03*
X129562500Y-87400000D03*
X129562500Y-86900000D03*
D26*
X127650000Y-84987500D03*
X127150000Y-84987500D03*
X126650000Y-84987500D03*
X126150000Y-84987500D03*
X125650000Y-84987500D03*
X125150000Y-84987500D03*
X124650000Y-84987500D03*
X124150000Y-84987500D03*
X123650000Y-84987500D03*
X123150000Y-84987500D03*
X122650000Y-84987500D03*
X122150000Y-84987500D03*
X121650000Y-84987500D03*
X121150000Y-84987500D03*
X120650000Y-84987500D03*
X120150000Y-84987500D03*
%TD*%
D10*
%TO.C,R17*%
X108500000Y-82975000D03*
X110325000Y-82975000D03*
%TD*%
D21*
%TO.C,R24*%
X156350000Y-135400000D03*
X156350000Y-137225000D03*
%TD*%
D13*
%TO.C,C6*%
X183600000Y-120150000D03*
X181775000Y-120150000D03*
%TD*%
D21*
%TO.C,C18*%
X107325000Y-130650000D03*
X107325000Y-132475000D03*
%TD*%
D10*
%TO.C,C2*%
X183820000Y-105060000D03*
X185645000Y-105060000D03*
%TD*%
%TO.C,C19*%
X120875000Y-130975000D03*
X122700000Y-130975000D03*
%TD*%
D27*
%TO.C,J1*%
X118075000Y-56100000D03*
X119175000Y-56100000D03*
X120275000Y-56100000D03*
X121375000Y-56100000D03*
X122475000Y-56100000D03*
X123575000Y-56100000D03*
X124675000Y-56100000D03*
X125775000Y-56100000D03*
D28*
X114400000Y-53500000D03*
X114400000Y-61800000D03*
X128150000Y-53500000D03*
X128150000Y-61800000D03*
%TD*%
D12*
%TO.C,USB_D+1*%
X145375000Y-104750000D03*
%TD*%
D29*
%TO.C,C7*%
X185125000Y-117900000D03*
X188725000Y-117900000D03*
%TD*%
D30*
%TO.C,J3*%
X103200000Y-103525000D03*
D31*
X104470000Y-103525000D03*
X103200000Y-104795000D03*
X104470000Y-104795000D03*
X103200000Y-106065000D03*
X104470000Y-106065000D03*
X103200000Y-107335000D03*
X104470000Y-107335000D03*
X103200000Y-108605000D03*
X104470000Y-108605000D03*
X103200000Y-109875000D03*
X104470000Y-109875000D03*
X103200000Y-111145000D03*
X104470000Y-111145000D03*
X103200000Y-112415000D03*
X104470000Y-112415000D03*
X103200000Y-113685000D03*
X104470000Y-113685000D03*
X103200000Y-114955000D03*
X104470000Y-114955000D03*
%TD*%
D10*
%TO.C,R5*%
X171275000Y-142350000D03*
X173100000Y-142350000D03*
%TD*%
D13*
%TO.C,C3*%
X179645000Y-112235000D03*
X177820000Y-112235000D03*
%TD*%
D32*
%TO.C,BT1*%
X163875000Y-61400000D03*
X163875000Y-91400000D03*
D33*
X137175000Y-61400000D03*
D34*
X137175000Y-74200000D03*
%TD*%
D35*
%TO.C,Y1*%
X109825000Y-72625000D03*
X109825000Y-73825000D03*
%TD*%
D10*
%TO.C,R16*%
X108425000Y-79075000D03*
X110250000Y-79075000D03*
%TD*%
%TO.C,R2*%
X107075000Y-63400000D03*
X108900000Y-63400000D03*
%TD*%
D11*
%TO.C,R4*%
X103625000Y-60425000D03*
X103625000Y-58600000D03*
%TD*%
D21*
%TO.C,R14*%
X121600000Y-67425000D03*
X121600000Y-69250000D03*
%TD*%
D12*
%TO.C,TP1*%
X150950000Y-104700000D03*
%TD*%
D10*
%TO.C,C4*%
X172045000Y-108410000D03*
X173870000Y-108410000D03*
%TD*%
D12*
%TO.C,TP4*%
X150825000Y-116575000D03*
%TD*%
D11*
%TO.C,R18*%
X147725000Y-137025000D03*
X147725000Y-135200000D03*
%TD*%
D10*
%TO.C,R6*%
X107650000Y-121325000D03*
X109475000Y-121325000D03*
%TD*%
D36*
%TO.C,LDO1.8V1*%
X179875000Y-120075000D03*
D37*
X179787500Y-118575000D03*
D36*
X179875000Y-117075000D03*
%TD*%
D38*
%TO.C,U2*%
X176837500Y-140950000D03*
X176837500Y-141600000D03*
X176837500Y-142250000D03*
X178612500Y-142250000D03*
X178612500Y-141600000D03*
X178612500Y-140950000D03*
D39*
X177725000Y-141600000D03*
%TD*%
D21*
%TO.C,R12*%
X125275000Y-67525000D03*
X125275000Y-69350000D03*
%TD*%
D10*
%TO.C,R7*%
X101575000Y-117175000D03*
X103400000Y-117175000D03*
%TD*%
D11*
%TO.C,R10*%
X116140000Y-107285000D03*
X116140000Y-105460000D03*
%TD*%
%TO.C,C24*%
X181175000Y-103975000D03*
X181175000Y-102150000D03*
%TD*%
D40*
%TO.C,D2*%
X114025000Y-128300000D03*
X111225000Y-128300000D03*
%TD*%
D10*
%TO.C,C23*%
X130600000Y-67300000D03*
X132425000Y-67300000D03*
%TD*%
D29*
%TO.C,C1*%
X184020000Y-109760000D03*
X187620000Y-109760000D03*
%TD*%
D12*
%TO.C,TP5*%
X150900000Y-120350000D03*
%TD*%
D41*
%TO.C,U1*%
X176425000Y-132725000D03*
X176425000Y-133525000D03*
X176425000Y-134325000D03*
X176425000Y-135125000D03*
X176425000Y-135925000D03*
X176425000Y-136725000D03*
X176425000Y-137525000D03*
X178825000Y-137525000D03*
X178825000Y-136725000D03*
X178825000Y-135925000D03*
X178825000Y-135125000D03*
X178825000Y-134325000D03*
X178825000Y-133525000D03*
X178825000Y-132725000D03*
%TD*%
D21*
%TO.C,R1*%
X131125000Y-72800000D03*
X131125000Y-74625000D03*
%TD*%
D11*
%TO.C,R11*%
X120810000Y-107155000D03*
X120810000Y-105330000D03*
%TD*%
D13*
%TO.C,R8*%
X109250000Y-128325000D03*
X107425000Y-128325000D03*
%TD*%
D42*
%TO.C,Q1*%
X109225000Y-134450000D03*
X107325000Y-134450000D03*
X108275000Y-136325000D03*
%TD*%
D21*
%TO.C,C22*%
X127950000Y-77750000D03*
X127950000Y-79575000D03*
%TD*%
D13*
%TO.C,R21*%
X128075000Y-135675000D03*
X126250000Y-135675000D03*
%TD*%
D12*
%TO.C,TP2*%
X150900000Y-108825000D03*
%TD*%
D10*
%TO.C,C9*%
X130575000Y-85150000D03*
X132400000Y-85150000D03*
%TD*%
D43*
%TO.C,U4*%
X116575000Y-128325000D03*
X116575000Y-129275000D03*
X116575000Y-130225000D03*
X118850000Y-130225000D03*
X118850000Y-128325000D03*
%TD*%
D12*
%TO.C,TP6*%
X150825000Y-124275000D03*
%TD*%
D13*
%TO.C,C10*%
X111775000Y-90375000D03*
X109950000Y-90375000D03*
%TD*%
D21*
%TO.C,R9*%
X113800000Y-130600000D03*
X113800000Y-132425000D03*
%TD*%
D10*
%TO.C,R22*%
X121150000Y-135750000D03*
X122975000Y-135750000D03*
%TD*%
D12*
%TO.C,USB_D-1*%
X145225000Y-112000000D03*
%TD*%
D21*
%TO.C,C21*%
X124600000Y-76200000D03*
X124600000Y-78025000D03*
%TD*%
D13*
%TO.C,C12*%
X115325000Y-93575000D03*
X113500000Y-93575000D03*
%TD*%
D10*
%TO.C,R20*%
X107150000Y-67625000D03*
X108975000Y-67625000D03*
%TD*%
D44*
%TO.C,SW1*%
X102175000Y-124525000D03*
X104925000Y-124525000D03*
D45*
X102700000Y-127100000D03*
X102700000Y-121950000D03*
X104400000Y-127100000D03*
X104400000Y-121950000D03*
%TD*%
D10*
%TO.C,C20*%
X120975000Y-128425000D03*
X122800000Y-128425000D03*
%TD*%
M02*
