M48
; DRILL file {KiCad 7.0.7} date Wed May  8 11:13:57 2024
; FORMAT={-:-/ absolute / inch / decimal}
; #@! TF.CreationDate,2024-05-08T11:13:57-07:00
; #@! TF.GenerationSoftware,Kicad,Pcbnew,7.0.7
; #@! TF.FileFunction,Plated,1,4,PTH
FMAT,2
INCH
; #@! TA.AperFunction,Plated,PTH,ViaDrill
T1C0.0157
; #@! TA.AperFunction,Plated,PTH,ComponentDrill
T2C0.0197
; #@! TA.AperFunction,Plated,PTH,ComponentDrill
T3C0.0217
; #@! TA.AperFunction,Plated,PTH,ComponentDrill
T4C0.0256
; #@! TA.AperFunction,Plated,PTH,ComponentDrill
T5C0.0394
; #@! TA.AperFunction,Plated,PTH,ComponentDrill
T6C0.0472
%
G90
G05
T1
X4.0404Y-5.0679
X4.0748Y-4.7323
X4.0797Y-2.2559
X4.1181Y-4.6132
X4.1488Y-5.2248
X4.2115Y-3.4208
X4.2293Y-4.9961
X4.2311Y-2.8134
X4.2524Y-4.2756
X4.2673Y-5.5783
X4.2795Y-5.1457
X4.3047Y-4.0587
X4.31Y-3.6142
X4.3228Y-3.1815
X4.3256Y-3.4358
X4.3356Y-2.4961
X4.3386Y-2.6634
X4.3583Y-4.7795
X4.3642Y-5.1756
X4.374Y-2.978
X4.389Y-3.1161
X4.3906Y-3.2681
X4.3953Y-3.1661
X4.4012Y-3.5024
X4.4118Y-3.3315
X4.4185Y-4.1441
X4.4203Y-3.6781
X4.4222Y-3.4291
X4.4488Y-2.1033
X4.4498Y-2.435
X4.4508Y-2.9059
X4.5193Y-3.7711
X4.535Y-5.1071
X4.5715Y-4.273
X4.5752Y-4.0996
X4.5823Y-2.9953
X4.5955Y-3.5315
X4.5988Y-2.7925
X4.6171Y-2.6555
X4.6236Y-3.1283
X4.6445Y-2.865
X4.6591Y-3.037
X4.6685Y-3.2433
X4.6878Y-5.089
X4.7016Y-2.8449
X4.726Y-3.6933
X4.7547Y-4.0965
X4.7553Y-4.2659
X4.7689Y-3.8523
X4.7766Y-2.1506
X4.7874Y-2.7746
X4.8083Y-3.8539
X4.8094Y-2.9961
X4.8114Y-3.1311
X4.8299Y-3.7382
X4.8299Y-3.9752
X4.8339Y-3.9031
X4.8445Y-3.2331
X4.8488Y-3.9396
X4.8642Y-2.1486
X4.8752Y-3.2717
X4.8789Y-5.1575
X4.8819Y-5.0581
X4.8858Y-3.4028
X4.8972Y-3.9035
X4.9039Y-5.3453
X4.9067Y-2.9508
X4.9209Y-3.6051
X4.9232Y-2.887
X4.9232Y-5.4272
X4.926Y-3.4
X4.9321Y-2.7785
X4.9472Y-3.6965
X5.0024Y-3.6303
X5.0106Y-4.6075
X5.0189Y-3.5898
X5.0201Y-3.5181
X5.0248Y-3.9472
X5.0386Y-3.0122
X5.0469Y-3.2673
X5.078Y-4.8476
X5.0791Y-2.9091
X5.0925Y-2.6526
X5.0925Y-3.3455
X5.1004Y-2.437
X5.1014Y-2.1043
X5.1039Y-3.7496
X5.1067Y-3.2469
X5.1531Y-3.1
X5.1571Y-3.4256
X5.1624Y-2.815
X5.1762Y-3.7559
X5.2016Y-3.8941
X5.2116Y-5.3888
X5.2197Y-3.4579
X5.2303Y-3.55
X5.2472Y-3.7551
X5.2602Y-4.1441
X5.2606Y-3.3508
X5.2618Y-2.6508
X5.3449Y-3.8524
X5.3685Y-3.8063
X5.4154Y-3.9055
X5.4299Y-3.7598
X5.4409Y-3.7173
X5.524Y-3.8799
X5.5398Y-4.5492
X5.565Y-5.4386
X5.5917Y-4.1098
X5.6264Y-5.0268
X5.6468Y-3.759
X5.6484Y-3.7197
X5.6551Y-3.8701
X5.6591Y-3.8224
X5.6791Y-5.085
X5.7102Y-4.276
X5.7205Y-3.4752
X5.7358Y-4.9701
X5.7594Y-4.5091
X5.8165Y-5.2717
X5.8764Y-3.9059
X6.0091Y-5.2819
X6.0846Y-3.911
X6.1587Y-5.2819
X6.6004Y-5.1579
X6.6102Y-5.3185
X6.623Y-4.4508
X6.6929Y-5.6047
X6.7254Y-4.2677
X6.8142Y-4.8657
X6.8157Y-4.6945
X6.8169Y-5.5339
X6.8173Y-4.9961
X6.9006Y-5.3199
X6.9169Y-5.6555
X6.9272Y-4.3642
X6.9272Y-5.5748
X6.9537Y-4.4163
X6.9642Y-5.0008
X6.9756Y-5.1673
X6.9772Y-5.2795
X7.0846Y-5.2894
X7.1228Y-5.4169
X7.1268Y-5.226
X7.1368Y-4.6673
X7.1386Y-5.2969
X7.1504Y-5.628
X7.1624Y-4.3652
X7.1657Y-4.6079
X7.187Y-4.0217
X7.1919Y-4.1644
X7.1919Y-4.2165
X7.2726Y-5.5669
X7.2756Y-4.7323
X7.3553Y-4.1368
X7.3646Y-5.3213
X7.439Y-5.6161
X7.4646Y-4.3209
X7.5079Y-4.6427
T4
X4.063Y-4.0758
X4.063Y-4.1258
X4.063Y-4.1758
X4.063Y-4.2258
X4.063Y-4.2758
X4.063Y-4.3258
X4.063Y-4.3758
X4.063Y-4.4258
X4.063Y-4.4758
X4.063Y-4.5258
X4.113Y-4.0758
X4.113Y-4.1258
X4.113Y-4.1758
X4.113Y-4.2258
X4.113Y-4.2758
X4.113Y-4.3258
X4.113Y-4.3758
X4.113Y-4.4258
X4.113Y-4.4758
X4.113Y-4.5258
T5
X4.0807Y-2.5152
X4.0807Y-2.6152
X4.0807Y-2.7152
X4.0807Y-2.8152
X4.0807Y-2.9152
X4.0807Y-3.0152
X4.0807Y-3.1152
X4.0807Y-3.2152
X4.0807Y-3.3152
X4.0807Y-3.4152
X4.0807Y-3.5152
X4.0807Y-3.6152
X5.2096Y-5.6201
X5.3096Y-5.6201
X5.4096Y-5.6201
X5.5096Y-5.6201
X5.6096Y-5.6201
X5.7096Y-5.6201
X5.7175Y-4.4094
X5.7234Y-4.124
X5.8096Y-5.6201
X5.9096Y-5.6201
X5.938Y-4.4331
X5.938Y-4.5896
X5.938Y-4.8927
X5.9409Y-4.2844
X5.9409Y-4.7382
X5.9429Y-4.122
X6.0096Y-5.6201
X6.1096Y-5.6201
X6.2096Y-5.6201
T6
X5.4006Y-2.4173
X5.4006Y-2.9213
T2
G00X4.7333Y-5.5846
M15
G01X4.7333Y-5.6102
M16
G05
G00X5.0089Y-5.5846
M15
G01X5.0089Y-5.6102
M16
G05
T3
G00X4.7667Y-5.4911
M15
G01X4.7785Y-5.4911
M16
G05
G00X4.9636Y-5.4911
M15
G01X4.9754Y-5.4911
M16
G05
T0
M30
