%TF.GenerationSoftware,KiCad,Pcbnew,7.0.7*%
%TF.CreationDate,2024-05-08T11:13:58-07:00*%
%TF.ProjectId,Final_Project_Sutton_Yazzolino,46696e61-6c5f-4507-926f-6a6563745f53,rev?*%
%TF.SameCoordinates,Original*%
%TF.FileFunction,Drillmap*%
%TF.FilePolarity,Positive*%
%FSLAX45Y45*%
G04 Gerber Fmt 4.5, Leading zero omitted, Abs format (unit mm)*
G04 Created by KiCad (PCBNEW 7.0.7) date 2024-05-08 11:13:58*
%MOMM*%
%LPD*%
G01*
G04 APERTURE LIST*
%ADD10C,0.100000*%
%ADD11C,0.200000*%
%ADD12C,0.040000*%
%ADD13C,0.050000*%
%ADD14C,0.055000*%
%ADD15C,0.065000*%
%ADD16C,0.120000*%
G04 APERTURE END LIST*
D10*
X19000000Y-5000000D02*
X10500000Y-5000000D01*
X19500000Y-5500000D02*
G75*
G03*
X19000000Y-5000000I-500000J0D01*
G01*
X10500000Y-5000000D02*
X10000000Y-5500000D01*
X19500000Y-14000000D02*
X19500000Y-5500000D01*
X19000000Y-14500000D02*
G75*
G03*
X19500000Y-14000000I0J500000D01*
G01*
X10000000Y-14000000D02*
G75*
G03*
X10500000Y-14500000I500000J0D01*
G01*
X10000000Y-5500000D02*
X10000000Y-14000000D01*
X10500000Y-14500000D02*
X19000000Y-14500000D01*
D11*
D12*
X10242500Y-12852500D02*
X10282500Y-12892500D01*
X10282500Y-12852500D02*
X10242500Y-12892500D01*
X10330000Y-12000000D02*
X10370000Y-12040000D01*
X10370000Y-12000000D02*
X10330000Y-12040000D01*
X10342500Y-5710000D02*
X10382500Y-5750000D01*
X10382500Y-5710000D02*
X10342500Y-5750000D01*
X10440000Y-11697500D02*
X10480000Y-11737500D01*
X10480000Y-11697500D02*
X10440000Y-11737500D01*
X10518000Y-13251000D02*
X10558000Y-13291000D01*
X10558000Y-13251000D02*
X10518000Y-13291000D01*
X10677105Y-8668895D02*
X10717105Y-8708895D01*
X10717105Y-8668895D02*
X10677105Y-8708895D01*
X10722500Y-12670000D02*
X10762500Y-12710000D01*
X10762500Y-12670000D02*
X10722500Y-12710000D01*
X10727000Y-7126000D02*
X10767000Y-7166000D01*
X10767000Y-7126000D02*
X10727000Y-7166000D01*
X10781000Y-10840000D02*
X10821000Y-10880000D01*
X10821000Y-10840000D02*
X10781000Y-10880000D01*
X10819000Y-14149000D02*
X10859000Y-14189000D01*
X10859000Y-14149000D02*
X10819000Y-14189000D01*
X10850000Y-13050000D02*
X10890000Y-13090000D01*
X10890000Y-13050000D02*
X10850000Y-13090000D01*
X10914000Y-10289000D02*
X10954000Y-10329000D01*
X10954000Y-10289000D02*
X10914000Y-10329000D01*
X10927500Y-9160000D02*
X10967500Y-9200000D01*
X10967500Y-9160000D02*
X10927500Y-9200000D01*
X10960000Y-8061000D02*
X11000000Y-8101000D01*
X11000000Y-8061000D02*
X10960000Y-8101000D01*
X10967000Y-8707000D02*
X11007000Y-8747000D01*
X11007000Y-8707000D02*
X10967000Y-8747000D01*
X10992500Y-6320000D02*
X11032500Y-6360000D01*
X11032500Y-6320000D02*
X10992500Y-6360000D01*
X11000000Y-6745000D02*
X11040000Y-6785000D01*
X11040000Y-6745000D02*
X11000000Y-6785000D01*
X11050000Y-12120000D02*
X11090000Y-12160000D01*
X11090000Y-12120000D02*
X11050000Y-12160000D01*
X11065000Y-13126000D02*
X11105000Y-13166000D01*
X11105000Y-13126000D02*
X11065000Y-13166000D01*
X11090000Y-7544000D02*
X11130000Y-7584000D01*
X11130000Y-7544000D02*
X11090000Y-7584000D01*
X11128000Y-7895000D02*
X11168000Y-7935000D01*
X11168000Y-7895000D02*
X11128000Y-7935000D01*
X11132000Y-8281000D02*
X11172000Y-8321000D01*
X11172000Y-8281000D02*
X11132000Y-8321000D01*
X11144000Y-8022000D02*
X11184000Y-8062000D01*
X11184000Y-8022000D02*
X11144000Y-8062000D01*
X11159000Y-8876000D02*
X11199000Y-8916000D01*
X11199000Y-8876000D02*
X11159000Y-8916000D01*
X11186000Y-8442000D02*
X11226000Y-8482000D01*
X11226000Y-8442000D02*
X11186000Y-8482000D01*
X11203000Y-10506000D02*
X11243000Y-10546000D01*
X11243000Y-10506000D02*
X11203000Y-10546000D01*
X11207500Y-9322500D02*
X11247500Y-9362500D01*
X11247500Y-9322500D02*
X11207500Y-9362500D01*
X11212500Y-8690000D02*
X11252500Y-8730000D01*
X11252500Y-8690000D02*
X11212500Y-8730000D01*
X11280000Y-5322500D02*
X11320000Y-5362500D01*
X11320000Y-5322500D02*
X11280000Y-5362500D01*
X11282500Y-6165000D02*
X11322500Y-6205000D01*
X11322500Y-6165000D02*
X11282500Y-6205000D01*
X11285000Y-7361000D02*
X11325000Y-7401000D01*
X11325000Y-7361000D02*
X11285000Y-7401000D01*
X11459000Y-9558550D02*
X11499000Y-9598550D01*
X11499000Y-9558550D02*
X11459000Y-9598550D01*
X11499000Y-12952000D02*
X11539000Y-12992000D01*
X11539000Y-12952000D02*
X11499000Y-12992000D01*
X11591500Y-10833500D02*
X11631500Y-10873500D01*
X11631500Y-10833500D02*
X11591500Y-10873500D01*
X11601000Y-10393000D02*
X11641000Y-10433000D01*
X11641000Y-10393000D02*
X11601000Y-10433000D01*
X11619000Y-7588000D02*
X11659000Y-7628000D01*
X11659000Y-7588000D02*
X11619000Y-7628000D01*
X11652500Y-8950000D02*
X11692500Y-8990000D01*
X11692500Y-8950000D02*
X11652500Y-8990000D01*
X11661000Y-7073000D02*
X11701000Y-7113000D01*
X11701000Y-7073000D02*
X11661000Y-7113000D01*
X11707500Y-6725000D02*
X11747500Y-6765000D01*
X11747500Y-6725000D02*
X11707500Y-6765000D01*
X11724000Y-7926000D02*
X11764000Y-7966000D01*
X11764000Y-7926000D02*
X11724000Y-7966000D01*
X11777000Y-7257000D02*
X11817000Y-7297000D01*
X11817000Y-7257000D02*
X11777000Y-7297000D01*
X11814000Y-7694000D02*
X11854000Y-7734000D01*
X11854000Y-7694000D02*
X11814000Y-7734000D01*
X11838000Y-8218000D02*
X11878000Y-8258000D01*
X11878000Y-8218000D02*
X11838000Y-8258000D01*
X11887000Y-12906000D02*
X11927000Y-12946000D01*
X11927000Y-12906000D02*
X11887000Y-12946000D01*
X11922000Y-7206000D02*
X11962000Y-7246000D01*
X11962000Y-7206000D02*
X11922000Y-7246000D01*
X11984000Y-9361000D02*
X12024000Y-9401000D01*
X12024000Y-9361000D02*
X11984000Y-9401000D01*
X12057000Y-10385000D02*
X12097000Y-10425000D01*
X12097000Y-10385000D02*
X12057000Y-10425000D01*
X12058500Y-10815500D02*
X12098500Y-10855500D01*
X12098500Y-10815500D02*
X12058500Y-10855500D01*
X12093133Y-9764924D02*
X12133133Y-9804924D01*
X12133133Y-9764924D02*
X12093133Y-9804924D01*
X12112500Y-5442500D02*
X12152500Y-5482500D01*
X12152500Y-5442500D02*
X12112500Y-5482500D01*
X12140000Y-7027500D02*
X12180000Y-7067500D01*
X12180000Y-7027500D02*
X12140000Y-7067500D01*
X12193000Y-9769000D02*
X12233000Y-9809000D01*
X12233000Y-9769000D02*
X12193000Y-9809000D01*
X12196000Y-7590000D02*
X12236000Y-7630000D01*
X12236000Y-7590000D02*
X12196000Y-7630000D01*
X12201000Y-7933000D02*
X12241000Y-7973000D01*
X12241000Y-7933000D02*
X12201000Y-7973000D01*
X12248000Y-9475000D02*
X12288000Y-9515000D01*
X12288000Y-9475000D02*
X12248000Y-9515000D01*
X12248000Y-10077000D02*
X12288000Y-10117000D01*
X12288000Y-10077000D02*
X12248000Y-10117000D01*
X12258000Y-9894000D02*
X12298000Y-9934000D01*
X12298000Y-9894000D02*
X12258000Y-9934000D01*
X12285000Y-8192000D02*
X12325000Y-8232000D01*
X12325000Y-8192000D02*
X12285000Y-8232000D01*
X12295888Y-9986491D02*
X12335888Y-10026491D01*
X12335888Y-9986491D02*
X12295888Y-10026491D01*
X12335000Y-5437500D02*
X12375000Y-5477500D01*
X12375000Y-5437500D02*
X12335000Y-5477500D01*
X12363000Y-8290000D02*
X12403000Y-8330000D01*
X12403000Y-8290000D02*
X12363000Y-8330000D01*
X12372500Y-13080000D02*
X12412500Y-13120000D01*
X12412500Y-13080000D02*
X12372500Y-13120000D01*
X12380000Y-12827500D02*
X12420000Y-12867500D01*
X12420000Y-12827500D02*
X12380000Y-12867500D01*
X12390000Y-8623000D02*
X12430000Y-8663000D01*
X12430000Y-8623000D02*
X12390000Y-8663000D01*
X12419000Y-9895000D02*
X12459000Y-9935000D01*
X12459000Y-9895000D02*
X12419000Y-9935000D01*
X12436000Y-13557000D02*
X12476000Y-13597000D01*
X12476000Y-13557000D02*
X12436000Y-13597000D01*
X12443000Y-7475000D02*
X12483000Y-7515000D01*
X12483000Y-7475000D02*
X12443000Y-7515000D01*
X12479000Y-9137000D02*
X12519000Y-9177000D01*
X12519000Y-9137000D02*
X12479000Y-9177000D01*
X12485000Y-7313000D02*
X12525000Y-7353000D01*
X12525000Y-7313000D02*
X12485000Y-7353000D01*
X12485000Y-13765000D02*
X12525000Y-13805000D01*
X12525000Y-13765000D02*
X12485000Y-13805000D01*
X12492000Y-8616000D02*
X12532000Y-8656000D01*
X12532000Y-8616000D02*
X12492000Y-8656000D01*
X12507500Y-7037500D02*
X12547500Y-7077500D01*
X12547500Y-7037500D02*
X12507500Y-7077500D01*
X12546000Y-9369000D02*
X12586000Y-9409000D01*
X12586000Y-9369000D02*
X12546000Y-9409000D01*
X12686000Y-9201000D02*
X12726000Y-9241000D01*
X12726000Y-9201000D02*
X12686000Y-9241000D01*
X12707000Y-11683000D02*
X12747000Y-11723000D01*
X12747000Y-11683000D02*
X12707000Y-11723000D01*
X12728000Y-9098000D02*
X12768000Y-9138000D01*
X12768000Y-9098000D02*
X12728000Y-9138000D01*
X12731000Y-8916000D02*
X12771000Y-8956000D01*
X12771000Y-8916000D02*
X12731000Y-8956000D01*
X12743000Y-10006000D02*
X12783000Y-10046000D01*
X12783000Y-10006000D02*
X12743000Y-10046000D01*
X12778000Y-7631000D02*
X12818000Y-7671000D01*
X12818000Y-7631000D02*
X12778000Y-7671000D01*
X12799000Y-8279000D02*
X12839000Y-8319000D01*
X12839000Y-8279000D02*
X12799000Y-8319000D01*
X12878000Y-12293000D02*
X12918000Y-12333000D01*
X12918000Y-12293000D02*
X12878000Y-12333000D01*
X12881000Y-7369000D02*
X12921000Y-7409000D01*
X12921000Y-7369000D02*
X12881000Y-7409000D01*
X12915000Y-6717500D02*
X12955000Y-6757500D01*
X12955000Y-6717500D02*
X12915000Y-6757500D01*
X12915000Y-8477500D02*
X12955000Y-8517500D01*
X12955000Y-8477500D02*
X12915000Y-8517500D01*
X12935000Y-6170000D02*
X12975000Y-6210000D01*
X12975000Y-6170000D02*
X12935000Y-6210000D01*
X12937500Y-5325000D02*
X12977500Y-5365000D01*
X12977500Y-5325000D02*
X12937500Y-5365000D01*
X12944000Y-9504000D02*
X12984000Y-9544000D01*
X12984000Y-9504000D02*
X12944000Y-9544000D01*
X12951000Y-8227000D02*
X12991000Y-8267000D01*
X12991000Y-8227000D02*
X12951000Y-8267000D01*
X13069000Y-7854000D02*
X13109000Y-7894000D01*
X13109000Y-7854000D02*
X13069000Y-7894000D01*
X13079000Y-8681000D02*
X13119000Y-8721000D01*
X13119000Y-8681000D02*
X13079000Y-8721000D01*
X13092500Y-7130000D02*
X13132500Y-7170000D01*
X13132500Y-7130000D02*
X13092500Y-7170000D01*
X13127500Y-9520000D02*
X13167500Y-9560000D01*
X13167500Y-9520000D02*
X13127500Y-9560000D01*
X13192000Y-9871000D02*
X13232000Y-9911000D01*
X13232000Y-9871000D02*
X13192000Y-9911000D01*
X13217500Y-13667500D02*
X13257500Y-13707500D01*
X13257500Y-13667500D02*
X13217500Y-13707500D01*
X13238000Y-8763000D02*
X13278000Y-8803000D01*
X13278000Y-8763000D02*
X13238000Y-8803000D01*
X13265000Y-8997000D02*
X13305000Y-9037000D01*
X13305000Y-8997000D02*
X13265000Y-9037000D01*
X13308000Y-9518000D02*
X13348000Y-9558000D01*
X13348000Y-9518000D02*
X13308000Y-9558000D01*
X13341000Y-10506000D02*
X13381000Y-10546000D01*
X13381000Y-10506000D02*
X13341000Y-10546000D01*
X13342000Y-8491000D02*
X13382000Y-8531000D01*
X13382000Y-8491000D02*
X13342000Y-8531000D01*
X13345000Y-6713000D02*
X13385000Y-6753000D01*
X13385000Y-6713000D02*
X13345000Y-6753000D01*
X13556000Y-9765000D02*
X13596000Y-9805000D01*
X13596000Y-9765000D02*
X13556000Y-9805000D01*
X13616000Y-9648000D02*
X13656000Y-9688000D01*
X13656000Y-9648000D02*
X13616000Y-9688000D01*
X13735000Y-9900000D02*
X13775000Y-9940000D01*
X13775000Y-9900000D02*
X13735000Y-9940000D01*
X13772000Y-9530000D02*
X13812000Y-9570000D01*
X13812000Y-9530000D02*
X13772000Y-9570000D01*
X13800000Y-9422000D02*
X13840000Y-9462000D01*
X13840000Y-9422000D02*
X13800000Y-9462000D01*
X14011000Y-9835000D02*
X14051000Y-9875000D01*
X14051000Y-9835000D02*
X14011000Y-9875000D01*
X14051000Y-11535000D02*
X14091000Y-11575000D01*
X14091000Y-11535000D02*
X14051000Y-11575000D01*
X14115000Y-13794000D02*
X14155000Y-13834000D01*
X14155000Y-13794000D02*
X14115000Y-13834000D01*
X14183000Y-10419000D02*
X14223000Y-10459000D01*
X14223000Y-10419000D02*
X14183000Y-10459000D01*
X14271000Y-12748000D02*
X14311000Y-12788000D01*
X14311000Y-12748000D02*
X14271000Y-12788000D01*
X14322795Y-9527862D02*
X14362795Y-9567862D01*
X14362795Y-9527862D02*
X14322795Y-9567862D01*
X14327000Y-9428000D02*
X14367000Y-9468000D01*
X14367000Y-9428000D02*
X14327000Y-9468000D01*
X14344000Y-9810000D02*
X14384000Y-9850000D01*
X14384000Y-9810000D02*
X14344000Y-9850000D01*
X14354000Y-9689000D02*
X14394000Y-9729000D01*
X14394000Y-9689000D02*
X14354000Y-9729000D01*
X14405000Y-12896000D02*
X14445000Y-12936000D01*
X14445000Y-12896000D02*
X14405000Y-12936000D01*
X14484000Y-10841000D02*
X14524000Y-10881000D01*
X14524000Y-10841000D02*
X14484000Y-10881000D01*
X14510000Y-8807000D02*
X14550000Y-8847000D01*
X14550000Y-8807000D02*
X14510000Y-8847000D01*
X14549000Y-12604000D02*
X14589000Y-12644000D01*
X14589000Y-12604000D02*
X14549000Y-12644000D01*
X14609000Y-11433000D02*
X14649000Y-11473000D01*
X14649000Y-11433000D02*
X14609000Y-11473000D01*
X14754000Y-13370000D02*
X14794000Y-13410000D01*
X14794000Y-13370000D02*
X14754000Y-13410000D01*
X14906000Y-9901000D02*
X14946000Y-9941000D01*
X14946000Y-9901000D02*
X14906000Y-9941000D01*
X15243000Y-13396000D02*
X15283000Y-13436000D01*
X15283000Y-13396000D02*
X15243000Y-13436000D01*
X15435000Y-9914000D02*
X15475000Y-9954000D01*
X15475000Y-9914000D02*
X15435000Y-9954000D01*
X15623000Y-13396000D02*
X15663000Y-13436000D01*
X15663000Y-13396000D02*
X15623000Y-13436000D01*
X16745000Y-13081000D02*
X16785000Y-13121000D01*
X16785000Y-13081000D02*
X16745000Y-13121000D01*
X16770000Y-13489000D02*
X16810000Y-13529000D01*
X16810000Y-13489000D02*
X16770000Y-13529000D01*
X16802500Y-11285000D02*
X16842500Y-11325000D01*
X16842500Y-11285000D02*
X16802500Y-11325000D01*
X16980000Y-14216000D02*
X17020000Y-14256000D01*
X17020000Y-14216000D02*
X16980000Y-14256000D01*
X17062500Y-10820000D02*
X17102500Y-10860000D01*
X17102500Y-10820000D02*
X17062500Y-10860000D01*
X17288000Y-12339000D02*
X17328000Y-12379000D01*
X17328000Y-12339000D02*
X17288000Y-12379000D01*
X17292000Y-11904000D02*
X17332000Y-11944000D01*
X17332000Y-11904000D02*
X17292000Y-11944000D01*
X17295000Y-14036000D02*
X17335000Y-14076000D01*
X17335000Y-14036000D02*
X17295000Y-14076000D01*
X17296000Y-12670000D02*
X17336000Y-12710000D01*
X17336000Y-12670000D02*
X17296000Y-12710000D01*
X17507500Y-13492500D02*
X17547500Y-13532500D01*
X17547500Y-13492500D02*
X17507500Y-13532500D01*
X17549000Y-14345000D02*
X17589000Y-14385000D01*
X17589000Y-14345000D02*
X17549000Y-14385000D01*
X17575000Y-11065000D02*
X17615000Y-11105000D01*
X17615000Y-11065000D02*
X17575000Y-11105000D01*
X17575000Y-14140000D02*
X17615000Y-14180000D01*
X17615000Y-14140000D02*
X17575000Y-14180000D01*
X17642500Y-11197500D02*
X17682500Y-11237500D01*
X17682500Y-11197500D02*
X17642500Y-11237500D01*
X17669000Y-12682000D02*
X17709000Y-12722000D01*
X17709000Y-12682000D02*
X17669000Y-12722000D01*
X17698000Y-13105000D02*
X17738000Y-13145000D01*
X17738000Y-13105000D02*
X17698000Y-13145000D01*
X17702000Y-13390000D02*
X17742000Y-13430000D01*
X17742000Y-13390000D02*
X17702000Y-13430000D01*
X17975000Y-13415000D02*
X18015000Y-13455000D01*
X18015000Y-13415000D02*
X17975000Y-13455000D01*
X18072000Y-13739000D02*
X18112000Y-13779000D01*
X18112000Y-13739000D02*
X18072000Y-13779000D01*
X18082000Y-13254000D02*
X18122000Y-13294000D01*
X18122000Y-13254000D02*
X18082000Y-13294000D01*
X18107500Y-11835000D02*
X18147500Y-11875000D01*
X18147500Y-11835000D02*
X18107500Y-11875000D01*
X18112000Y-13434000D02*
X18152000Y-13474000D01*
X18152000Y-13434000D02*
X18112000Y-13474000D01*
X18142000Y-14275000D02*
X18182000Y-14315000D01*
X18182000Y-14275000D02*
X18142000Y-14315000D01*
X18172500Y-11067500D02*
X18212500Y-11107500D01*
X18212500Y-11067500D02*
X18172500Y-11107500D01*
X18181000Y-11684000D02*
X18221000Y-11724000D01*
X18221000Y-11684000D02*
X18181000Y-11724000D01*
X18235000Y-10195000D02*
X18275000Y-10235000D01*
X18275000Y-10195000D02*
X18235000Y-10235000D01*
X18247500Y-10557500D02*
X18287500Y-10597500D01*
X18287500Y-10557500D02*
X18247500Y-10597500D01*
X18247500Y-10690000D02*
X18287500Y-10730000D01*
X18287500Y-10690000D02*
X18247500Y-10730000D01*
X18452500Y-14120000D02*
X18492500Y-14160000D01*
X18492500Y-14120000D02*
X18452500Y-14160000D01*
X18460000Y-12000000D02*
X18500000Y-12040000D01*
X18500000Y-12000000D02*
X18460000Y-12040000D01*
X18662500Y-10487500D02*
X18702500Y-10527500D01*
X18702500Y-10487500D02*
X18662500Y-10527500D01*
X18686000Y-13496000D02*
X18726000Y-13536000D01*
X18726000Y-13496000D02*
X18686000Y-13536000D01*
X18875000Y-14245000D02*
X18915000Y-14285000D01*
X18915000Y-14245000D02*
X18875000Y-14285000D01*
X18940000Y-10955000D02*
X18980000Y-10995000D01*
X18980000Y-10955000D02*
X18940000Y-10995000D01*
X19050000Y-11772500D02*
X19090000Y-11812500D01*
X19090000Y-11772500D02*
X19050000Y-11812500D01*
D13*
X12047500Y-14217500D02*
G75*
G03*
X12047500Y-14217500I-25000J0D01*
G01*
D11*
X11997500Y-14185000D02*
X11997500Y-14250000D01*
X11997500Y-14250000D02*
G75*
G03*
X12047500Y-14250000I25000J0D01*
G01*
X12047500Y-14250000D02*
X12047500Y-14185000D01*
X12047500Y-14185000D02*
G75*
G03*
X11997500Y-14185000I-25000J0D01*
G01*
D13*
X12747500Y-14217500D02*
G75*
G03*
X12747500Y-14217500I-25000J0D01*
G01*
D11*
X12697500Y-14185000D02*
X12697500Y-14250000D01*
X12697500Y-14250000D02*
G75*
G03*
X12747500Y-14250000I25000J0D01*
G01*
X12747500Y-14250000D02*
X12747500Y-14185000D01*
X12747500Y-14185000D02*
G75*
G03*
X12697500Y-14185000I-25000J0D01*
G01*
D14*
X12122500Y-13920000D02*
X12122500Y-13975000D01*
X12095000Y-13947500D02*
X12150000Y-13947500D01*
D11*
X12107500Y-13975000D02*
X12137500Y-13975000D01*
X12137500Y-13975000D02*
G75*
G03*
X12137500Y-13920000I0J27500D01*
G01*
X12137500Y-13920000D02*
X12107500Y-13920000D01*
X12107500Y-13920000D02*
G75*
G03*
X12107500Y-13975000I0J-27500D01*
G01*
D14*
X12622500Y-13920000D02*
X12622500Y-13975000D01*
X12595000Y-13947500D02*
X12650000Y-13947500D01*
D11*
X12607500Y-13975000D02*
X12637500Y-13975000D01*
X12637500Y-13975000D02*
G75*
G03*
X12637500Y-13920000I0J27500D01*
G01*
X12637500Y-13920000D02*
X12607500Y-13920000D01*
X12607500Y-13920000D02*
G75*
G03*
X12607500Y-13975000I0J-27500D01*
G01*
D15*
X10342981Y-10375481D02*
X10342981Y-10329519D01*
X10297019Y-10329519D01*
X10297019Y-10375481D01*
X10342981Y-10375481D01*
X10342981Y-10502481D02*
X10342981Y-10456519D01*
X10297019Y-10456519D01*
X10297019Y-10502481D01*
X10342981Y-10502481D01*
X10342981Y-10629481D02*
X10342981Y-10583519D01*
X10297019Y-10583519D01*
X10297019Y-10629481D01*
X10342981Y-10629481D01*
X10342981Y-10756481D02*
X10342981Y-10710519D01*
X10297019Y-10710519D01*
X10297019Y-10756481D01*
X10342981Y-10756481D01*
X10342981Y-10883481D02*
X10342981Y-10837519D01*
X10297019Y-10837519D01*
X10297019Y-10883481D01*
X10342981Y-10883481D01*
X10342981Y-11010481D02*
X10342981Y-10964519D01*
X10297019Y-10964519D01*
X10297019Y-11010481D01*
X10342981Y-11010481D01*
X10342981Y-11137481D02*
X10342981Y-11091519D01*
X10297019Y-11091519D01*
X10297019Y-11137481D01*
X10342981Y-11137481D01*
X10342981Y-11264481D02*
X10342981Y-11218519D01*
X10297019Y-11218519D01*
X10297019Y-11264481D01*
X10342981Y-11264481D01*
X10342981Y-11391481D02*
X10342981Y-11345519D01*
X10297019Y-11345519D01*
X10297019Y-11391481D01*
X10342981Y-11391481D01*
X10342981Y-11518481D02*
X10342981Y-11472519D01*
X10297019Y-11472519D01*
X10297019Y-11518481D01*
X10342981Y-11518481D01*
X10469981Y-10375481D02*
X10469981Y-10329519D01*
X10424019Y-10329519D01*
X10424019Y-10375481D01*
X10469981Y-10375481D01*
X10469981Y-10502481D02*
X10469981Y-10456519D01*
X10424019Y-10456519D01*
X10424019Y-10502481D01*
X10469981Y-10502481D01*
X10469981Y-10629481D02*
X10469981Y-10583519D01*
X10424019Y-10583519D01*
X10424019Y-10629481D01*
X10469981Y-10629481D01*
X10469981Y-10756481D02*
X10469981Y-10710519D01*
X10424019Y-10710519D01*
X10424019Y-10756481D01*
X10469981Y-10756481D01*
X10469981Y-10883481D02*
X10469981Y-10837519D01*
X10424019Y-10837519D01*
X10424019Y-10883481D01*
X10469981Y-10883481D01*
X10469981Y-11010481D02*
X10469981Y-10964519D01*
X10424019Y-10964519D01*
X10424019Y-11010481D01*
X10469981Y-11010481D01*
X10469981Y-11137481D02*
X10469981Y-11091519D01*
X10424019Y-11091519D01*
X10424019Y-11137481D01*
X10469981Y-11137481D01*
X10469981Y-11264481D02*
X10469981Y-11218519D01*
X10424019Y-11218519D01*
X10424019Y-11264481D01*
X10469981Y-11264481D01*
X10469981Y-11391481D02*
X10469981Y-11345519D01*
X10424019Y-11345519D01*
X10424019Y-11391481D01*
X10469981Y-11391481D01*
X10469981Y-11518481D02*
X10469981Y-11472519D01*
X10424019Y-11472519D01*
X10424019Y-11518481D01*
X10469981Y-11518481D01*
D10*
X10365000Y-6438500D02*
X10415000Y-6388500D01*
X10365000Y-6338500D01*
X10315000Y-6388500D01*
X10365000Y-6438500D01*
X10365000Y-6692500D02*
X10415000Y-6642500D01*
X10365000Y-6592500D01*
X10315000Y-6642500D01*
X10365000Y-6692500D01*
X10365000Y-6946500D02*
X10415000Y-6896500D01*
X10365000Y-6846500D01*
X10315000Y-6896500D01*
X10365000Y-6946500D01*
X10365000Y-7200500D02*
X10415000Y-7150500D01*
X10365000Y-7100500D01*
X10315000Y-7150500D01*
X10365000Y-7200500D01*
X10365000Y-7454500D02*
X10415000Y-7404500D01*
X10365000Y-7354500D01*
X10315000Y-7404500D01*
X10365000Y-7454500D01*
X10365000Y-7708500D02*
X10415000Y-7658500D01*
X10365000Y-7608500D01*
X10315000Y-7658500D01*
X10365000Y-7708500D01*
X10365000Y-7962500D02*
X10415000Y-7912500D01*
X10365000Y-7862500D01*
X10315000Y-7912500D01*
X10365000Y-7962500D01*
X10365000Y-8216500D02*
X10415000Y-8166500D01*
X10365000Y-8116500D01*
X10315000Y-8166500D01*
X10365000Y-8216500D01*
X10365000Y-8470500D02*
X10415000Y-8420500D01*
X10365000Y-8370500D01*
X10315000Y-8420500D01*
X10365000Y-8470500D01*
X10365000Y-8724500D02*
X10415000Y-8674500D01*
X10365000Y-8624500D01*
X10315000Y-8674500D01*
X10365000Y-8724500D01*
X10365000Y-8978500D02*
X10415000Y-8928500D01*
X10365000Y-8878500D01*
X10315000Y-8928500D01*
X10365000Y-8978500D01*
X10365000Y-9232500D02*
X10415000Y-9182500D01*
X10365000Y-9132500D01*
X10315000Y-9182500D01*
X10365000Y-9232500D01*
X13232500Y-14325000D02*
X13282500Y-14275000D01*
X13232500Y-14225000D01*
X13182500Y-14275000D01*
X13232500Y-14325000D01*
X13486500Y-14325000D02*
X13536500Y-14275000D01*
X13486500Y-14225000D01*
X13436500Y-14275000D01*
X13486500Y-14325000D01*
X13740500Y-14325000D02*
X13790500Y-14275000D01*
X13740500Y-14225000D01*
X13690500Y-14275000D01*
X13740500Y-14325000D01*
X13994500Y-14325000D02*
X14044500Y-14275000D01*
X13994500Y-14225000D01*
X13944500Y-14275000D01*
X13994500Y-14325000D01*
X14248500Y-14325000D02*
X14298500Y-14275000D01*
X14248500Y-14225000D01*
X14198500Y-14275000D01*
X14248500Y-14325000D01*
X14502500Y-14325000D02*
X14552500Y-14275000D01*
X14502500Y-14225000D01*
X14452500Y-14275000D01*
X14502500Y-14325000D01*
X14522500Y-11250000D02*
X14572500Y-11200000D01*
X14522500Y-11150000D01*
X14472500Y-11200000D01*
X14522500Y-11250000D01*
X14537500Y-10525000D02*
X14587500Y-10475000D01*
X14537500Y-10425000D01*
X14487500Y-10475000D01*
X14537500Y-10525000D01*
X14756500Y-14325000D02*
X14806500Y-14275000D01*
X14756500Y-14225000D01*
X14706500Y-14275000D01*
X14756500Y-14325000D01*
X15010500Y-14325000D02*
X15060500Y-14275000D01*
X15010500Y-14225000D01*
X14960500Y-14275000D01*
X15010500Y-14325000D01*
X15082500Y-11310000D02*
X15132500Y-11260000D01*
X15082500Y-11210000D01*
X15032500Y-11260000D01*
X15082500Y-11310000D01*
X15082500Y-11707500D02*
X15132500Y-11657500D01*
X15082500Y-11607500D01*
X15032500Y-11657500D01*
X15082500Y-11707500D01*
X15082500Y-12477500D02*
X15132500Y-12427500D01*
X15082500Y-12377500D01*
X15032500Y-12427500D01*
X15082500Y-12477500D01*
X15090000Y-10932500D02*
X15140000Y-10882500D01*
X15090000Y-10832500D01*
X15040000Y-10882500D01*
X15090000Y-10932500D01*
X15090000Y-12085000D02*
X15140000Y-12035000D01*
X15090000Y-11985000D01*
X15040000Y-12035000D01*
X15090000Y-12085000D01*
X15095000Y-10520000D02*
X15145000Y-10470000D01*
X15095000Y-10420000D01*
X15045000Y-10470000D01*
X15095000Y-10520000D01*
X15264500Y-14325000D02*
X15314500Y-14275000D01*
X15264500Y-14225000D01*
X15214500Y-14275000D01*
X15264500Y-14325000D01*
X15518500Y-14325000D02*
X15568500Y-14275000D01*
X15518500Y-14225000D01*
X15468500Y-14275000D01*
X15518500Y-14325000D01*
X15772500Y-14325000D02*
X15822500Y-14275000D01*
X15772500Y-14225000D01*
X15722500Y-14275000D01*
X15772500Y-14325000D01*
D16*
X13657500Y-6080000D02*
X13777500Y-6200000D01*
X13777500Y-6080000D02*
X13657500Y-6200000D01*
X13777500Y-6140000D02*
G75*
G03*
X13777500Y-6140000I-60000J0D01*
G01*
X13657500Y-7360000D02*
X13777500Y-7480000D01*
X13777500Y-7360000D02*
X13657500Y-7480000D01*
X13777500Y-7420000D02*
G75*
G03*
X13777500Y-7420000I-60000J0D01*
G01*
D11*
X10255777Y-14816484D02*
X10255777Y-14616484D01*
X10255777Y-14616484D02*
X10303396Y-14616484D01*
X10303396Y-14616484D02*
X10331967Y-14626008D01*
X10331967Y-14626008D02*
X10351015Y-14645055D01*
X10351015Y-14645055D02*
X10360539Y-14664103D01*
X10360539Y-14664103D02*
X10370063Y-14702198D01*
X10370063Y-14702198D02*
X10370063Y-14730769D01*
X10370063Y-14730769D02*
X10360539Y-14768865D01*
X10360539Y-14768865D02*
X10351015Y-14787912D01*
X10351015Y-14787912D02*
X10331967Y-14806960D01*
X10331967Y-14806960D02*
X10303396Y-14816484D01*
X10303396Y-14816484D02*
X10255777Y-14816484D01*
X10455777Y-14816484D02*
X10455777Y-14683150D01*
X10455777Y-14721246D02*
X10465301Y-14702198D01*
X10465301Y-14702198D02*
X10474824Y-14692674D01*
X10474824Y-14692674D02*
X10493872Y-14683150D01*
X10493872Y-14683150D02*
X10512920Y-14683150D01*
X10579586Y-14816484D02*
X10579586Y-14683150D01*
X10579586Y-14616484D02*
X10570063Y-14626008D01*
X10570063Y-14626008D02*
X10579586Y-14635531D01*
X10579586Y-14635531D02*
X10589110Y-14626008D01*
X10589110Y-14626008D02*
X10579586Y-14616484D01*
X10579586Y-14616484D02*
X10579586Y-14635531D01*
X10703396Y-14816484D02*
X10684348Y-14806960D01*
X10684348Y-14806960D02*
X10674824Y-14787912D01*
X10674824Y-14787912D02*
X10674824Y-14616484D01*
X10808158Y-14816484D02*
X10789110Y-14806960D01*
X10789110Y-14806960D02*
X10779586Y-14787912D01*
X10779586Y-14787912D02*
X10779586Y-14616484D01*
X11036729Y-14816484D02*
X11036729Y-14616484D01*
X11036729Y-14616484D02*
X11103396Y-14759341D01*
X11103396Y-14759341D02*
X11170063Y-14616484D01*
X11170063Y-14616484D02*
X11170063Y-14816484D01*
X11351015Y-14816484D02*
X11351015Y-14711722D01*
X11351015Y-14711722D02*
X11341491Y-14692674D01*
X11341491Y-14692674D02*
X11322443Y-14683150D01*
X11322443Y-14683150D02*
X11284348Y-14683150D01*
X11284348Y-14683150D02*
X11265301Y-14692674D01*
X11351015Y-14806960D02*
X11331967Y-14816484D01*
X11331967Y-14816484D02*
X11284348Y-14816484D01*
X11284348Y-14816484D02*
X11265301Y-14806960D01*
X11265301Y-14806960D02*
X11255777Y-14787912D01*
X11255777Y-14787912D02*
X11255777Y-14768865D01*
X11255777Y-14768865D02*
X11265301Y-14749817D01*
X11265301Y-14749817D02*
X11284348Y-14740293D01*
X11284348Y-14740293D02*
X11331967Y-14740293D01*
X11331967Y-14740293D02*
X11351015Y-14730769D01*
X11446253Y-14683150D02*
X11446253Y-14883150D01*
X11446253Y-14692674D02*
X11465301Y-14683150D01*
X11465301Y-14683150D02*
X11503396Y-14683150D01*
X11503396Y-14683150D02*
X11522443Y-14692674D01*
X11522443Y-14692674D02*
X11531967Y-14702198D01*
X11531967Y-14702198D02*
X11541491Y-14721246D01*
X11541491Y-14721246D02*
X11541491Y-14778388D01*
X11541491Y-14778388D02*
X11531967Y-14797436D01*
X11531967Y-14797436D02*
X11522443Y-14806960D01*
X11522443Y-14806960D02*
X11503396Y-14816484D01*
X11503396Y-14816484D02*
X11465301Y-14816484D01*
X11465301Y-14816484D02*
X11446253Y-14806960D01*
X11627205Y-14797436D02*
X11636729Y-14806960D01*
X11636729Y-14806960D02*
X11627205Y-14816484D01*
X11627205Y-14816484D02*
X11617682Y-14806960D01*
X11617682Y-14806960D02*
X11627205Y-14797436D01*
X11627205Y-14797436D02*
X11627205Y-14816484D01*
X11627205Y-14692674D02*
X11636729Y-14702198D01*
X11636729Y-14702198D02*
X11627205Y-14711722D01*
X11627205Y-14711722D02*
X11617682Y-14702198D01*
X11617682Y-14702198D02*
X11627205Y-14692674D01*
X11627205Y-14692674D02*
X11627205Y-14711722D01*
D12*
X9955000Y-15125000D02*
X9995000Y-15165000D01*
X9995000Y-15125000D02*
X9955000Y-15165000D01*
D11*
X10293872Y-15036484D02*
X10312920Y-15036484D01*
X10312920Y-15036484D02*
X10331967Y-15046008D01*
X10331967Y-15046008D02*
X10341491Y-15055531D01*
X10341491Y-15055531D02*
X10351015Y-15074579D01*
X10351015Y-15074579D02*
X10360539Y-15112674D01*
X10360539Y-15112674D02*
X10360539Y-15160293D01*
X10360539Y-15160293D02*
X10351015Y-15198388D01*
X10351015Y-15198388D02*
X10341491Y-15217436D01*
X10341491Y-15217436D02*
X10331967Y-15226960D01*
X10331967Y-15226960D02*
X10312920Y-15236484D01*
X10312920Y-15236484D02*
X10293872Y-15236484D01*
X10293872Y-15236484D02*
X10274824Y-15226960D01*
X10274824Y-15226960D02*
X10265301Y-15217436D01*
X10265301Y-15217436D02*
X10255777Y-15198388D01*
X10255777Y-15198388D02*
X10246253Y-15160293D01*
X10246253Y-15160293D02*
X10246253Y-15112674D01*
X10246253Y-15112674D02*
X10255777Y-15074579D01*
X10255777Y-15074579D02*
X10265301Y-15055531D01*
X10265301Y-15055531D02*
X10274824Y-15046008D01*
X10274824Y-15046008D02*
X10293872Y-15036484D01*
X10446253Y-15217436D02*
X10455777Y-15226960D01*
X10455777Y-15226960D02*
X10446253Y-15236484D01*
X10446253Y-15236484D02*
X10436729Y-15226960D01*
X10436729Y-15226960D02*
X10446253Y-15217436D01*
X10446253Y-15217436D02*
X10446253Y-15236484D01*
X10627205Y-15103150D02*
X10627205Y-15236484D01*
X10579586Y-15026960D02*
X10531967Y-15169817D01*
X10531967Y-15169817D02*
X10655777Y-15169817D01*
X10770063Y-15036484D02*
X10789110Y-15036484D01*
X10789110Y-15036484D02*
X10808158Y-15046008D01*
X10808158Y-15046008D02*
X10817682Y-15055531D01*
X10817682Y-15055531D02*
X10827205Y-15074579D01*
X10827205Y-15074579D02*
X10836729Y-15112674D01*
X10836729Y-15112674D02*
X10836729Y-15160293D01*
X10836729Y-15160293D02*
X10827205Y-15198388D01*
X10827205Y-15198388D02*
X10817682Y-15217436D01*
X10817682Y-15217436D02*
X10808158Y-15226960D01*
X10808158Y-15226960D02*
X10789110Y-15236484D01*
X10789110Y-15236484D02*
X10770063Y-15236484D01*
X10770063Y-15236484D02*
X10751015Y-15226960D01*
X10751015Y-15226960D02*
X10741491Y-15217436D01*
X10741491Y-15217436D02*
X10731967Y-15198388D01*
X10731967Y-15198388D02*
X10722444Y-15160293D01*
X10722444Y-15160293D02*
X10722444Y-15112674D01*
X10722444Y-15112674D02*
X10731967Y-15074579D01*
X10731967Y-15074579D02*
X10741491Y-15055531D01*
X10741491Y-15055531D02*
X10751015Y-15046008D01*
X10751015Y-15046008D02*
X10770063Y-15036484D01*
X10960539Y-15036484D02*
X10979586Y-15036484D01*
X10979586Y-15036484D02*
X10998634Y-15046008D01*
X10998634Y-15046008D02*
X11008158Y-15055531D01*
X11008158Y-15055531D02*
X11017682Y-15074579D01*
X11017682Y-15074579D02*
X11027205Y-15112674D01*
X11027205Y-15112674D02*
X11027205Y-15160293D01*
X11027205Y-15160293D02*
X11017682Y-15198388D01*
X11017682Y-15198388D02*
X11008158Y-15217436D01*
X11008158Y-15217436D02*
X10998634Y-15226960D01*
X10998634Y-15226960D02*
X10979586Y-15236484D01*
X10979586Y-15236484D02*
X10960539Y-15236484D01*
X10960539Y-15236484D02*
X10941491Y-15226960D01*
X10941491Y-15226960D02*
X10931967Y-15217436D01*
X10931967Y-15217436D02*
X10922444Y-15198388D01*
X10922444Y-15198388D02*
X10912920Y-15160293D01*
X10912920Y-15160293D02*
X10912920Y-15112674D01*
X10912920Y-15112674D02*
X10922444Y-15074579D01*
X10922444Y-15074579D02*
X10931967Y-15055531D01*
X10931967Y-15055531D02*
X10941491Y-15046008D01*
X10941491Y-15046008D02*
X10960539Y-15036484D01*
X11112920Y-15236484D02*
X11112920Y-15103150D01*
X11112920Y-15122198D02*
X11122444Y-15112674D01*
X11122444Y-15112674D02*
X11141491Y-15103150D01*
X11141491Y-15103150D02*
X11170063Y-15103150D01*
X11170063Y-15103150D02*
X11189110Y-15112674D01*
X11189110Y-15112674D02*
X11198634Y-15131722D01*
X11198634Y-15131722D02*
X11198634Y-15236484D01*
X11198634Y-15131722D02*
X11208158Y-15112674D01*
X11208158Y-15112674D02*
X11227205Y-15103150D01*
X11227205Y-15103150D02*
X11255777Y-15103150D01*
X11255777Y-15103150D02*
X11274824Y-15112674D01*
X11274824Y-15112674D02*
X11284348Y-15131722D01*
X11284348Y-15131722D02*
X11284348Y-15236484D01*
X11379586Y-15236484D02*
X11379586Y-15103150D01*
X11379586Y-15122198D02*
X11389110Y-15112674D01*
X11389110Y-15112674D02*
X11408158Y-15103150D01*
X11408158Y-15103150D02*
X11436729Y-15103150D01*
X11436729Y-15103150D02*
X11455777Y-15112674D01*
X11455777Y-15112674D02*
X11465301Y-15131722D01*
X11465301Y-15131722D02*
X11465301Y-15236484D01*
X11465301Y-15131722D02*
X11474824Y-15112674D01*
X11474824Y-15112674D02*
X11493872Y-15103150D01*
X11493872Y-15103150D02*
X11522443Y-15103150D01*
X11522443Y-15103150D02*
X11541491Y-15112674D01*
X11541491Y-15112674D02*
X11551015Y-15131722D01*
X11551015Y-15131722D02*
X11551015Y-15236484D01*
X11941491Y-15026960D02*
X11770063Y-15284103D01*
X12198634Y-15036484D02*
X12217682Y-15036484D01*
X12217682Y-15036484D02*
X12236729Y-15046008D01*
X12236729Y-15046008D02*
X12246253Y-15055531D01*
X12246253Y-15055531D02*
X12255777Y-15074579D01*
X12255777Y-15074579D02*
X12265301Y-15112674D01*
X12265301Y-15112674D02*
X12265301Y-15160293D01*
X12265301Y-15160293D02*
X12255777Y-15198388D01*
X12255777Y-15198388D02*
X12246253Y-15217436D01*
X12246253Y-15217436D02*
X12236729Y-15226960D01*
X12236729Y-15226960D02*
X12217682Y-15236484D01*
X12217682Y-15236484D02*
X12198634Y-15236484D01*
X12198634Y-15236484D02*
X12179586Y-15226960D01*
X12179586Y-15226960D02*
X12170063Y-15217436D01*
X12170063Y-15217436D02*
X12160539Y-15198388D01*
X12160539Y-15198388D02*
X12151015Y-15160293D01*
X12151015Y-15160293D02*
X12151015Y-15112674D01*
X12151015Y-15112674D02*
X12160539Y-15074579D01*
X12160539Y-15074579D02*
X12170063Y-15055531D01*
X12170063Y-15055531D02*
X12179586Y-15046008D01*
X12179586Y-15046008D02*
X12198634Y-15036484D01*
X12351015Y-15217436D02*
X12360539Y-15226960D01*
X12360539Y-15226960D02*
X12351015Y-15236484D01*
X12351015Y-15236484D02*
X12341491Y-15226960D01*
X12341491Y-15226960D02*
X12351015Y-15217436D01*
X12351015Y-15217436D02*
X12351015Y-15236484D01*
X12484348Y-15036484D02*
X12503396Y-15036484D01*
X12503396Y-15036484D02*
X12522444Y-15046008D01*
X12522444Y-15046008D02*
X12531967Y-15055531D01*
X12531967Y-15055531D02*
X12541491Y-15074579D01*
X12541491Y-15074579D02*
X12551015Y-15112674D01*
X12551015Y-15112674D02*
X12551015Y-15160293D01*
X12551015Y-15160293D02*
X12541491Y-15198388D01*
X12541491Y-15198388D02*
X12531967Y-15217436D01*
X12531967Y-15217436D02*
X12522444Y-15226960D01*
X12522444Y-15226960D02*
X12503396Y-15236484D01*
X12503396Y-15236484D02*
X12484348Y-15236484D01*
X12484348Y-15236484D02*
X12465301Y-15226960D01*
X12465301Y-15226960D02*
X12455777Y-15217436D01*
X12455777Y-15217436D02*
X12446253Y-15198388D01*
X12446253Y-15198388D02*
X12436729Y-15160293D01*
X12436729Y-15160293D02*
X12436729Y-15112674D01*
X12436729Y-15112674D02*
X12446253Y-15074579D01*
X12446253Y-15074579D02*
X12455777Y-15055531D01*
X12455777Y-15055531D02*
X12465301Y-15046008D01*
X12465301Y-15046008D02*
X12484348Y-15036484D01*
X12741491Y-15236484D02*
X12627206Y-15236484D01*
X12684348Y-15236484D02*
X12684348Y-15036484D01*
X12684348Y-15036484D02*
X12665301Y-15065055D01*
X12665301Y-15065055D02*
X12646253Y-15084103D01*
X12646253Y-15084103D02*
X12627206Y-15093627D01*
X12922444Y-15036484D02*
X12827206Y-15036484D01*
X12827206Y-15036484D02*
X12817682Y-15131722D01*
X12817682Y-15131722D02*
X12827206Y-15122198D01*
X12827206Y-15122198D02*
X12846253Y-15112674D01*
X12846253Y-15112674D02*
X12893872Y-15112674D01*
X12893872Y-15112674D02*
X12912920Y-15122198D01*
X12912920Y-15122198D02*
X12922444Y-15131722D01*
X12922444Y-15131722D02*
X12931967Y-15150769D01*
X12931967Y-15150769D02*
X12931967Y-15198388D01*
X12931967Y-15198388D02*
X12922444Y-15217436D01*
X12922444Y-15217436D02*
X12912920Y-15226960D01*
X12912920Y-15226960D02*
X12893872Y-15236484D01*
X12893872Y-15236484D02*
X12846253Y-15236484D01*
X12846253Y-15236484D02*
X12827206Y-15226960D01*
X12827206Y-15226960D02*
X12817682Y-15217436D01*
X12998634Y-15036484D02*
X13131967Y-15036484D01*
X13131967Y-15036484D02*
X13046253Y-15236484D01*
X13198634Y-15036484D02*
X13198634Y-15074579D01*
X13274825Y-15036484D02*
X13274825Y-15074579D01*
X13570063Y-15312674D02*
X13560539Y-15303150D01*
X13560539Y-15303150D02*
X13541491Y-15274579D01*
X13541491Y-15274579D02*
X13531968Y-15255531D01*
X13531968Y-15255531D02*
X13522444Y-15226960D01*
X13522444Y-15226960D02*
X13512920Y-15179341D01*
X13512920Y-15179341D02*
X13512920Y-15141246D01*
X13512920Y-15141246D02*
X13522444Y-15093627D01*
X13522444Y-15093627D02*
X13531968Y-15065055D01*
X13531968Y-15065055D02*
X13541491Y-15046008D01*
X13541491Y-15046008D02*
X13560539Y-15017436D01*
X13560539Y-15017436D02*
X13570063Y-15007912D01*
X13751015Y-15236484D02*
X13636729Y-15236484D01*
X13693872Y-15236484D02*
X13693872Y-15036484D01*
X13693872Y-15036484D02*
X13674825Y-15065055D01*
X13674825Y-15065055D02*
X13655777Y-15084103D01*
X13655777Y-15084103D02*
X13636729Y-15093627D01*
X13931968Y-15036484D02*
X13836729Y-15036484D01*
X13836729Y-15036484D02*
X13827206Y-15131722D01*
X13827206Y-15131722D02*
X13836729Y-15122198D01*
X13836729Y-15122198D02*
X13855777Y-15112674D01*
X13855777Y-15112674D02*
X13903396Y-15112674D01*
X13903396Y-15112674D02*
X13922444Y-15122198D01*
X13922444Y-15122198D02*
X13931968Y-15131722D01*
X13931968Y-15131722D02*
X13941491Y-15150769D01*
X13941491Y-15150769D02*
X13941491Y-15198388D01*
X13941491Y-15198388D02*
X13931968Y-15217436D01*
X13931968Y-15217436D02*
X13922444Y-15226960D01*
X13922444Y-15226960D02*
X13903396Y-15236484D01*
X13903396Y-15236484D02*
X13855777Y-15236484D01*
X13855777Y-15236484D02*
X13836729Y-15226960D01*
X13836729Y-15226960D02*
X13827206Y-15217436D01*
X14036729Y-15236484D02*
X14074825Y-15236484D01*
X14074825Y-15236484D02*
X14093872Y-15226960D01*
X14093872Y-15226960D02*
X14103396Y-15217436D01*
X14103396Y-15217436D02*
X14122444Y-15188865D01*
X14122444Y-15188865D02*
X14131968Y-15150769D01*
X14131968Y-15150769D02*
X14131968Y-15074579D01*
X14131968Y-15074579D02*
X14122444Y-15055531D01*
X14122444Y-15055531D02*
X14112920Y-15046008D01*
X14112920Y-15046008D02*
X14093872Y-15036484D01*
X14093872Y-15036484D02*
X14055777Y-15036484D01*
X14055777Y-15036484D02*
X14036729Y-15046008D01*
X14036729Y-15046008D02*
X14027206Y-15055531D01*
X14027206Y-15055531D02*
X14017682Y-15074579D01*
X14017682Y-15074579D02*
X14017682Y-15122198D01*
X14017682Y-15122198D02*
X14027206Y-15141246D01*
X14027206Y-15141246D02*
X14036729Y-15150769D01*
X14036729Y-15150769D02*
X14055777Y-15160293D01*
X14055777Y-15160293D02*
X14093872Y-15160293D01*
X14093872Y-15160293D02*
X14112920Y-15150769D01*
X14112920Y-15150769D02*
X14122444Y-15141246D01*
X14122444Y-15141246D02*
X14131968Y-15122198D01*
X14370063Y-15236484D02*
X14370063Y-15036484D01*
X14455777Y-15236484D02*
X14455777Y-15131722D01*
X14455777Y-15131722D02*
X14446253Y-15112674D01*
X14446253Y-15112674D02*
X14427206Y-15103150D01*
X14427206Y-15103150D02*
X14398634Y-15103150D01*
X14398634Y-15103150D02*
X14379587Y-15112674D01*
X14379587Y-15112674D02*
X14370063Y-15122198D01*
X14579587Y-15236484D02*
X14560539Y-15226960D01*
X14560539Y-15226960D02*
X14551015Y-15217436D01*
X14551015Y-15217436D02*
X14541491Y-15198388D01*
X14541491Y-15198388D02*
X14541491Y-15141246D01*
X14541491Y-15141246D02*
X14551015Y-15122198D01*
X14551015Y-15122198D02*
X14560539Y-15112674D01*
X14560539Y-15112674D02*
X14579587Y-15103150D01*
X14579587Y-15103150D02*
X14608158Y-15103150D01*
X14608158Y-15103150D02*
X14627206Y-15112674D01*
X14627206Y-15112674D02*
X14636730Y-15122198D01*
X14636730Y-15122198D02*
X14646253Y-15141246D01*
X14646253Y-15141246D02*
X14646253Y-15198388D01*
X14646253Y-15198388D02*
X14636730Y-15217436D01*
X14636730Y-15217436D02*
X14627206Y-15226960D01*
X14627206Y-15226960D02*
X14608158Y-15236484D01*
X14608158Y-15236484D02*
X14579587Y-15236484D01*
X14760539Y-15236484D02*
X14741491Y-15226960D01*
X14741491Y-15226960D02*
X14731968Y-15207912D01*
X14731968Y-15207912D02*
X14731968Y-15036484D01*
X14912920Y-15226960D02*
X14893872Y-15236484D01*
X14893872Y-15236484D02*
X14855777Y-15236484D01*
X14855777Y-15236484D02*
X14836730Y-15226960D01*
X14836730Y-15226960D02*
X14827206Y-15207912D01*
X14827206Y-15207912D02*
X14827206Y-15131722D01*
X14827206Y-15131722D02*
X14836730Y-15112674D01*
X14836730Y-15112674D02*
X14855777Y-15103150D01*
X14855777Y-15103150D02*
X14893872Y-15103150D01*
X14893872Y-15103150D02*
X14912920Y-15112674D01*
X14912920Y-15112674D02*
X14922444Y-15131722D01*
X14922444Y-15131722D02*
X14922444Y-15150769D01*
X14922444Y-15150769D02*
X14827206Y-15169817D01*
X14998634Y-15226960D02*
X15017682Y-15236484D01*
X15017682Y-15236484D02*
X15055777Y-15236484D01*
X15055777Y-15236484D02*
X15074825Y-15226960D01*
X15074825Y-15226960D02*
X15084349Y-15207912D01*
X15084349Y-15207912D02*
X15084349Y-15198388D01*
X15084349Y-15198388D02*
X15074825Y-15179341D01*
X15074825Y-15179341D02*
X15055777Y-15169817D01*
X15055777Y-15169817D02*
X15027206Y-15169817D01*
X15027206Y-15169817D02*
X15008158Y-15160293D01*
X15008158Y-15160293D02*
X14998634Y-15141246D01*
X14998634Y-15141246D02*
X14998634Y-15131722D01*
X14998634Y-15131722D02*
X15008158Y-15112674D01*
X15008158Y-15112674D02*
X15027206Y-15103150D01*
X15027206Y-15103150D02*
X15055777Y-15103150D01*
X15055777Y-15103150D02*
X15074825Y-15112674D01*
X15151015Y-15312674D02*
X15160539Y-15303150D01*
X15160539Y-15303150D02*
X15179587Y-15274579D01*
X15179587Y-15274579D02*
X15189111Y-15255531D01*
X15189111Y-15255531D02*
X15198634Y-15226960D01*
X15198634Y-15226960D02*
X15208158Y-15179341D01*
X15208158Y-15179341D02*
X15208158Y-15141246D01*
X15208158Y-15141246D02*
X15198634Y-15093627D01*
X15198634Y-15093627D02*
X15189111Y-15065055D01*
X15189111Y-15065055D02*
X15179587Y-15046008D01*
X15179587Y-15046008D02*
X15160539Y-15017436D01*
X15160539Y-15017436D02*
X15151015Y-15007912D01*
D13*
X9995000Y-15409000D02*
G75*
G03*
X9995000Y-15409000I-25000J0D01*
G01*
D11*
X10293872Y-15300484D02*
X10312920Y-15300484D01*
X10312920Y-15300484D02*
X10331967Y-15310008D01*
X10331967Y-15310008D02*
X10341491Y-15319531D01*
X10341491Y-15319531D02*
X10351015Y-15338579D01*
X10351015Y-15338579D02*
X10360539Y-15376674D01*
X10360539Y-15376674D02*
X10360539Y-15424293D01*
X10360539Y-15424293D02*
X10351015Y-15462388D01*
X10351015Y-15462388D02*
X10341491Y-15481436D01*
X10341491Y-15481436D02*
X10331967Y-15490960D01*
X10331967Y-15490960D02*
X10312920Y-15500484D01*
X10312920Y-15500484D02*
X10293872Y-15500484D01*
X10293872Y-15500484D02*
X10274824Y-15490960D01*
X10274824Y-15490960D02*
X10265301Y-15481436D01*
X10265301Y-15481436D02*
X10255777Y-15462388D01*
X10255777Y-15462388D02*
X10246253Y-15424293D01*
X10246253Y-15424293D02*
X10246253Y-15376674D01*
X10246253Y-15376674D02*
X10255777Y-15338579D01*
X10255777Y-15338579D02*
X10265301Y-15319531D01*
X10265301Y-15319531D02*
X10274824Y-15310008D01*
X10274824Y-15310008D02*
X10293872Y-15300484D01*
X10446253Y-15481436D02*
X10455777Y-15490960D01*
X10455777Y-15490960D02*
X10446253Y-15500484D01*
X10446253Y-15500484D02*
X10436729Y-15490960D01*
X10436729Y-15490960D02*
X10446253Y-15481436D01*
X10446253Y-15481436D02*
X10446253Y-15500484D01*
X10636729Y-15300484D02*
X10541491Y-15300484D01*
X10541491Y-15300484D02*
X10531967Y-15395722D01*
X10531967Y-15395722D02*
X10541491Y-15386198D01*
X10541491Y-15386198D02*
X10560539Y-15376674D01*
X10560539Y-15376674D02*
X10608158Y-15376674D01*
X10608158Y-15376674D02*
X10627205Y-15386198D01*
X10627205Y-15386198D02*
X10636729Y-15395722D01*
X10636729Y-15395722D02*
X10646253Y-15414769D01*
X10646253Y-15414769D02*
X10646253Y-15462388D01*
X10646253Y-15462388D02*
X10636729Y-15481436D01*
X10636729Y-15481436D02*
X10627205Y-15490960D01*
X10627205Y-15490960D02*
X10608158Y-15500484D01*
X10608158Y-15500484D02*
X10560539Y-15500484D01*
X10560539Y-15500484D02*
X10541491Y-15490960D01*
X10541491Y-15490960D02*
X10531967Y-15481436D01*
X10770063Y-15300484D02*
X10789110Y-15300484D01*
X10789110Y-15300484D02*
X10808158Y-15310008D01*
X10808158Y-15310008D02*
X10817682Y-15319531D01*
X10817682Y-15319531D02*
X10827205Y-15338579D01*
X10827205Y-15338579D02*
X10836729Y-15376674D01*
X10836729Y-15376674D02*
X10836729Y-15424293D01*
X10836729Y-15424293D02*
X10827205Y-15462388D01*
X10827205Y-15462388D02*
X10817682Y-15481436D01*
X10817682Y-15481436D02*
X10808158Y-15490960D01*
X10808158Y-15490960D02*
X10789110Y-15500484D01*
X10789110Y-15500484D02*
X10770063Y-15500484D01*
X10770063Y-15500484D02*
X10751015Y-15490960D01*
X10751015Y-15490960D02*
X10741491Y-15481436D01*
X10741491Y-15481436D02*
X10731967Y-15462388D01*
X10731967Y-15462388D02*
X10722444Y-15424293D01*
X10722444Y-15424293D02*
X10722444Y-15376674D01*
X10722444Y-15376674D02*
X10731967Y-15338579D01*
X10731967Y-15338579D02*
X10741491Y-15319531D01*
X10741491Y-15319531D02*
X10751015Y-15310008D01*
X10751015Y-15310008D02*
X10770063Y-15300484D01*
X10960539Y-15300484D02*
X10979586Y-15300484D01*
X10979586Y-15300484D02*
X10998634Y-15310008D01*
X10998634Y-15310008D02*
X11008158Y-15319531D01*
X11008158Y-15319531D02*
X11017682Y-15338579D01*
X11017682Y-15338579D02*
X11027205Y-15376674D01*
X11027205Y-15376674D02*
X11027205Y-15424293D01*
X11027205Y-15424293D02*
X11017682Y-15462388D01*
X11017682Y-15462388D02*
X11008158Y-15481436D01*
X11008158Y-15481436D02*
X10998634Y-15490960D01*
X10998634Y-15490960D02*
X10979586Y-15500484D01*
X10979586Y-15500484D02*
X10960539Y-15500484D01*
X10960539Y-15500484D02*
X10941491Y-15490960D01*
X10941491Y-15490960D02*
X10931967Y-15481436D01*
X10931967Y-15481436D02*
X10922444Y-15462388D01*
X10922444Y-15462388D02*
X10912920Y-15424293D01*
X10912920Y-15424293D02*
X10912920Y-15376674D01*
X10912920Y-15376674D02*
X10922444Y-15338579D01*
X10922444Y-15338579D02*
X10931967Y-15319531D01*
X10931967Y-15319531D02*
X10941491Y-15310008D01*
X10941491Y-15310008D02*
X10960539Y-15300484D01*
X11112920Y-15500484D02*
X11112920Y-15367150D01*
X11112920Y-15386198D02*
X11122444Y-15376674D01*
X11122444Y-15376674D02*
X11141491Y-15367150D01*
X11141491Y-15367150D02*
X11170063Y-15367150D01*
X11170063Y-15367150D02*
X11189110Y-15376674D01*
X11189110Y-15376674D02*
X11198634Y-15395722D01*
X11198634Y-15395722D02*
X11198634Y-15500484D01*
X11198634Y-15395722D02*
X11208158Y-15376674D01*
X11208158Y-15376674D02*
X11227205Y-15367150D01*
X11227205Y-15367150D02*
X11255777Y-15367150D01*
X11255777Y-15367150D02*
X11274824Y-15376674D01*
X11274824Y-15376674D02*
X11284348Y-15395722D01*
X11284348Y-15395722D02*
X11284348Y-15500484D01*
X11379586Y-15500484D02*
X11379586Y-15367150D01*
X11379586Y-15386198D02*
X11389110Y-15376674D01*
X11389110Y-15376674D02*
X11408158Y-15367150D01*
X11408158Y-15367150D02*
X11436729Y-15367150D01*
X11436729Y-15367150D02*
X11455777Y-15376674D01*
X11455777Y-15376674D02*
X11465301Y-15395722D01*
X11465301Y-15395722D02*
X11465301Y-15500484D01*
X11465301Y-15395722D02*
X11474824Y-15376674D01*
X11474824Y-15376674D02*
X11493872Y-15367150D01*
X11493872Y-15367150D02*
X11522443Y-15367150D01*
X11522443Y-15367150D02*
X11541491Y-15376674D01*
X11541491Y-15376674D02*
X11551015Y-15395722D01*
X11551015Y-15395722D02*
X11551015Y-15500484D01*
X11941491Y-15290960D02*
X11770063Y-15548103D01*
X12198634Y-15300484D02*
X12217682Y-15300484D01*
X12217682Y-15300484D02*
X12236729Y-15310008D01*
X12236729Y-15310008D02*
X12246253Y-15319531D01*
X12246253Y-15319531D02*
X12255777Y-15338579D01*
X12255777Y-15338579D02*
X12265301Y-15376674D01*
X12265301Y-15376674D02*
X12265301Y-15424293D01*
X12265301Y-15424293D02*
X12255777Y-15462388D01*
X12255777Y-15462388D02*
X12246253Y-15481436D01*
X12246253Y-15481436D02*
X12236729Y-15490960D01*
X12236729Y-15490960D02*
X12217682Y-15500484D01*
X12217682Y-15500484D02*
X12198634Y-15500484D01*
X12198634Y-15500484D02*
X12179586Y-15490960D01*
X12179586Y-15490960D02*
X12170063Y-15481436D01*
X12170063Y-15481436D02*
X12160539Y-15462388D01*
X12160539Y-15462388D02*
X12151015Y-15424293D01*
X12151015Y-15424293D02*
X12151015Y-15376674D01*
X12151015Y-15376674D02*
X12160539Y-15338579D01*
X12160539Y-15338579D02*
X12170063Y-15319531D01*
X12170063Y-15319531D02*
X12179586Y-15310008D01*
X12179586Y-15310008D02*
X12198634Y-15300484D01*
X12351015Y-15481436D02*
X12360539Y-15490960D01*
X12360539Y-15490960D02*
X12351015Y-15500484D01*
X12351015Y-15500484D02*
X12341491Y-15490960D01*
X12341491Y-15490960D02*
X12351015Y-15481436D01*
X12351015Y-15481436D02*
X12351015Y-15500484D01*
X12484348Y-15300484D02*
X12503396Y-15300484D01*
X12503396Y-15300484D02*
X12522444Y-15310008D01*
X12522444Y-15310008D02*
X12531967Y-15319531D01*
X12531967Y-15319531D02*
X12541491Y-15338579D01*
X12541491Y-15338579D02*
X12551015Y-15376674D01*
X12551015Y-15376674D02*
X12551015Y-15424293D01*
X12551015Y-15424293D02*
X12541491Y-15462388D01*
X12541491Y-15462388D02*
X12531967Y-15481436D01*
X12531967Y-15481436D02*
X12522444Y-15490960D01*
X12522444Y-15490960D02*
X12503396Y-15500484D01*
X12503396Y-15500484D02*
X12484348Y-15500484D01*
X12484348Y-15500484D02*
X12465301Y-15490960D01*
X12465301Y-15490960D02*
X12455777Y-15481436D01*
X12455777Y-15481436D02*
X12446253Y-15462388D01*
X12446253Y-15462388D02*
X12436729Y-15424293D01*
X12436729Y-15424293D02*
X12436729Y-15376674D01*
X12436729Y-15376674D02*
X12446253Y-15338579D01*
X12446253Y-15338579D02*
X12455777Y-15319531D01*
X12455777Y-15319531D02*
X12465301Y-15310008D01*
X12465301Y-15310008D02*
X12484348Y-15300484D01*
X12741491Y-15500484D02*
X12627206Y-15500484D01*
X12684348Y-15500484D02*
X12684348Y-15300484D01*
X12684348Y-15300484D02*
X12665301Y-15329055D01*
X12665301Y-15329055D02*
X12646253Y-15348103D01*
X12646253Y-15348103D02*
X12627206Y-15357627D01*
X12836729Y-15500484D02*
X12874825Y-15500484D01*
X12874825Y-15500484D02*
X12893872Y-15490960D01*
X12893872Y-15490960D02*
X12903396Y-15481436D01*
X12903396Y-15481436D02*
X12922444Y-15452865D01*
X12922444Y-15452865D02*
X12931967Y-15414769D01*
X12931967Y-15414769D02*
X12931967Y-15338579D01*
X12931967Y-15338579D02*
X12922444Y-15319531D01*
X12922444Y-15319531D02*
X12912920Y-15310008D01*
X12912920Y-15310008D02*
X12893872Y-15300484D01*
X12893872Y-15300484D02*
X12855777Y-15300484D01*
X12855777Y-15300484D02*
X12836729Y-15310008D01*
X12836729Y-15310008D02*
X12827206Y-15319531D01*
X12827206Y-15319531D02*
X12817682Y-15338579D01*
X12817682Y-15338579D02*
X12817682Y-15386198D01*
X12817682Y-15386198D02*
X12827206Y-15405246D01*
X12827206Y-15405246D02*
X12836729Y-15414769D01*
X12836729Y-15414769D02*
X12855777Y-15424293D01*
X12855777Y-15424293D02*
X12893872Y-15424293D01*
X12893872Y-15424293D02*
X12912920Y-15414769D01*
X12912920Y-15414769D02*
X12922444Y-15405246D01*
X12922444Y-15405246D02*
X12931967Y-15386198D01*
X12998634Y-15300484D02*
X13131967Y-15300484D01*
X13131967Y-15300484D02*
X13046253Y-15500484D01*
X13198634Y-15300484D02*
X13198634Y-15338579D01*
X13274825Y-15300484D02*
X13274825Y-15338579D01*
X13570063Y-15576674D02*
X13560539Y-15567150D01*
X13560539Y-15567150D02*
X13541491Y-15538579D01*
X13541491Y-15538579D02*
X13531968Y-15519531D01*
X13531968Y-15519531D02*
X13522444Y-15490960D01*
X13522444Y-15490960D02*
X13512920Y-15443341D01*
X13512920Y-15443341D02*
X13512920Y-15405246D01*
X13512920Y-15405246D02*
X13522444Y-15357627D01*
X13522444Y-15357627D02*
X13531968Y-15329055D01*
X13531968Y-15329055D02*
X13541491Y-15310008D01*
X13541491Y-15310008D02*
X13560539Y-15281436D01*
X13560539Y-15281436D02*
X13570063Y-15271912D01*
X13684348Y-15300484D02*
X13703396Y-15300484D01*
X13703396Y-15300484D02*
X13722444Y-15310008D01*
X13722444Y-15310008D02*
X13731968Y-15319531D01*
X13731968Y-15319531D02*
X13741491Y-15338579D01*
X13741491Y-15338579D02*
X13751015Y-15376674D01*
X13751015Y-15376674D02*
X13751015Y-15424293D01*
X13751015Y-15424293D02*
X13741491Y-15462388D01*
X13741491Y-15462388D02*
X13731968Y-15481436D01*
X13731968Y-15481436D02*
X13722444Y-15490960D01*
X13722444Y-15490960D02*
X13703396Y-15500484D01*
X13703396Y-15500484D02*
X13684348Y-15500484D01*
X13684348Y-15500484D02*
X13665301Y-15490960D01*
X13665301Y-15490960D02*
X13655777Y-15481436D01*
X13655777Y-15481436D02*
X13646253Y-15462388D01*
X13646253Y-15462388D02*
X13636729Y-15424293D01*
X13636729Y-15424293D02*
X13636729Y-15376674D01*
X13636729Y-15376674D02*
X13646253Y-15338579D01*
X13646253Y-15338579D02*
X13655777Y-15319531D01*
X13655777Y-15319531D02*
X13665301Y-15310008D01*
X13665301Y-15310008D02*
X13684348Y-15300484D01*
X13989110Y-15500484D02*
X13989110Y-15300484D01*
X14074825Y-15500484D02*
X14074825Y-15395722D01*
X14074825Y-15395722D02*
X14065301Y-15376674D01*
X14065301Y-15376674D02*
X14046253Y-15367150D01*
X14046253Y-15367150D02*
X14017682Y-15367150D01*
X14017682Y-15367150D02*
X13998634Y-15376674D01*
X13998634Y-15376674D02*
X13989110Y-15386198D01*
X14198634Y-15500484D02*
X14179587Y-15490960D01*
X14179587Y-15490960D02*
X14170063Y-15481436D01*
X14170063Y-15481436D02*
X14160539Y-15462388D01*
X14160539Y-15462388D02*
X14160539Y-15405246D01*
X14160539Y-15405246D02*
X14170063Y-15386198D01*
X14170063Y-15386198D02*
X14179587Y-15376674D01*
X14179587Y-15376674D02*
X14198634Y-15367150D01*
X14198634Y-15367150D02*
X14227206Y-15367150D01*
X14227206Y-15367150D02*
X14246253Y-15376674D01*
X14246253Y-15376674D02*
X14255777Y-15386198D01*
X14255777Y-15386198D02*
X14265301Y-15405246D01*
X14265301Y-15405246D02*
X14265301Y-15462388D01*
X14265301Y-15462388D02*
X14255777Y-15481436D01*
X14255777Y-15481436D02*
X14246253Y-15490960D01*
X14246253Y-15490960D02*
X14227206Y-15500484D01*
X14227206Y-15500484D02*
X14198634Y-15500484D01*
X14379587Y-15500484D02*
X14360539Y-15490960D01*
X14360539Y-15490960D02*
X14351015Y-15471912D01*
X14351015Y-15471912D02*
X14351015Y-15300484D01*
X14531968Y-15490960D02*
X14512920Y-15500484D01*
X14512920Y-15500484D02*
X14474825Y-15500484D01*
X14474825Y-15500484D02*
X14455777Y-15490960D01*
X14455777Y-15490960D02*
X14446253Y-15471912D01*
X14446253Y-15471912D02*
X14446253Y-15395722D01*
X14446253Y-15395722D02*
X14455777Y-15376674D01*
X14455777Y-15376674D02*
X14474825Y-15367150D01*
X14474825Y-15367150D02*
X14512920Y-15367150D01*
X14512920Y-15367150D02*
X14531968Y-15376674D01*
X14531968Y-15376674D02*
X14541491Y-15395722D01*
X14541491Y-15395722D02*
X14541491Y-15414769D01*
X14541491Y-15414769D02*
X14446253Y-15433817D01*
X14617682Y-15490960D02*
X14636730Y-15500484D01*
X14636730Y-15500484D02*
X14674825Y-15500484D01*
X14674825Y-15500484D02*
X14693872Y-15490960D01*
X14693872Y-15490960D02*
X14703396Y-15471912D01*
X14703396Y-15471912D02*
X14703396Y-15462388D01*
X14703396Y-15462388D02*
X14693872Y-15443341D01*
X14693872Y-15443341D02*
X14674825Y-15433817D01*
X14674825Y-15433817D02*
X14646253Y-15433817D01*
X14646253Y-15433817D02*
X14627206Y-15424293D01*
X14627206Y-15424293D02*
X14617682Y-15405246D01*
X14617682Y-15405246D02*
X14617682Y-15395722D01*
X14617682Y-15395722D02*
X14627206Y-15376674D01*
X14627206Y-15376674D02*
X14646253Y-15367150D01*
X14646253Y-15367150D02*
X14674825Y-15367150D01*
X14674825Y-15367150D02*
X14693872Y-15376674D01*
X14941492Y-15424293D02*
X15093873Y-15424293D01*
X15017682Y-15500484D02*
X15017682Y-15348103D01*
X15331968Y-15319531D02*
X15341492Y-15310008D01*
X15341492Y-15310008D02*
X15360539Y-15300484D01*
X15360539Y-15300484D02*
X15408158Y-15300484D01*
X15408158Y-15300484D02*
X15427206Y-15310008D01*
X15427206Y-15310008D02*
X15436730Y-15319531D01*
X15436730Y-15319531D02*
X15446253Y-15338579D01*
X15446253Y-15338579D02*
X15446253Y-15357627D01*
X15446253Y-15357627D02*
X15436730Y-15386198D01*
X15436730Y-15386198D02*
X15322444Y-15500484D01*
X15322444Y-15500484D02*
X15446253Y-15500484D01*
X15674825Y-15490960D02*
X15693873Y-15500484D01*
X15693873Y-15500484D02*
X15731968Y-15500484D01*
X15731968Y-15500484D02*
X15751015Y-15490960D01*
X15751015Y-15490960D02*
X15760539Y-15471912D01*
X15760539Y-15471912D02*
X15760539Y-15462388D01*
X15760539Y-15462388D02*
X15751015Y-15443341D01*
X15751015Y-15443341D02*
X15731968Y-15433817D01*
X15731968Y-15433817D02*
X15703396Y-15433817D01*
X15703396Y-15433817D02*
X15684349Y-15424293D01*
X15684349Y-15424293D02*
X15674825Y-15405246D01*
X15674825Y-15405246D02*
X15674825Y-15395722D01*
X15674825Y-15395722D02*
X15684349Y-15376674D01*
X15684349Y-15376674D02*
X15703396Y-15367150D01*
X15703396Y-15367150D02*
X15731968Y-15367150D01*
X15731968Y-15367150D02*
X15751015Y-15376674D01*
X15874825Y-15500484D02*
X15855777Y-15490960D01*
X15855777Y-15490960D02*
X15846254Y-15471912D01*
X15846254Y-15471912D02*
X15846254Y-15300484D01*
X15979587Y-15500484D02*
X15960539Y-15490960D01*
X15960539Y-15490960D02*
X15951015Y-15481436D01*
X15951015Y-15481436D02*
X15941492Y-15462388D01*
X15941492Y-15462388D02*
X15941492Y-15405246D01*
X15941492Y-15405246D02*
X15951015Y-15386198D01*
X15951015Y-15386198D02*
X15960539Y-15376674D01*
X15960539Y-15376674D02*
X15979587Y-15367150D01*
X15979587Y-15367150D02*
X16008158Y-15367150D01*
X16008158Y-15367150D02*
X16027206Y-15376674D01*
X16027206Y-15376674D02*
X16036730Y-15386198D01*
X16036730Y-15386198D02*
X16046254Y-15405246D01*
X16046254Y-15405246D02*
X16046254Y-15462388D01*
X16046254Y-15462388D02*
X16036730Y-15481436D01*
X16036730Y-15481436D02*
X16027206Y-15490960D01*
X16027206Y-15490960D02*
X16008158Y-15500484D01*
X16008158Y-15500484D02*
X15979587Y-15500484D01*
X16103396Y-15367150D02*
X16179587Y-15367150D01*
X16131968Y-15300484D02*
X16131968Y-15471912D01*
X16131968Y-15471912D02*
X16141492Y-15490960D01*
X16141492Y-15490960D02*
X16160539Y-15500484D01*
X16160539Y-15500484D02*
X16179587Y-15500484D01*
X16236730Y-15490960D02*
X16255777Y-15500484D01*
X16255777Y-15500484D02*
X16293873Y-15500484D01*
X16293873Y-15500484D02*
X16312920Y-15490960D01*
X16312920Y-15490960D02*
X16322444Y-15471912D01*
X16322444Y-15471912D02*
X16322444Y-15462388D01*
X16322444Y-15462388D02*
X16312920Y-15443341D01*
X16312920Y-15443341D02*
X16293873Y-15433817D01*
X16293873Y-15433817D02*
X16265301Y-15433817D01*
X16265301Y-15433817D02*
X16246254Y-15424293D01*
X16246254Y-15424293D02*
X16236730Y-15405246D01*
X16236730Y-15405246D02*
X16236730Y-15395722D01*
X16236730Y-15395722D02*
X16246254Y-15376674D01*
X16246254Y-15376674D02*
X16265301Y-15367150D01*
X16265301Y-15367150D02*
X16293873Y-15367150D01*
X16293873Y-15367150D02*
X16312920Y-15376674D01*
X16389111Y-15576674D02*
X16398635Y-15567150D01*
X16398635Y-15567150D02*
X16417682Y-15538579D01*
X16417682Y-15538579D02*
X16427206Y-15519531D01*
X16427206Y-15519531D02*
X16436730Y-15490960D01*
X16436730Y-15490960D02*
X16446254Y-15443341D01*
X16446254Y-15443341D02*
X16446254Y-15405246D01*
X16446254Y-15405246D02*
X16436730Y-15357627D01*
X16436730Y-15357627D02*
X16427206Y-15329055D01*
X16427206Y-15329055D02*
X16417682Y-15310008D01*
X16417682Y-15310008D02*
X16398635Y-15281436D01*
X16398635Y-15281436D02*
X16389111Y-15271912D01*
D14*
X9967500Y-15645500D02*
X9967500Y-15700500D01*
X9940000Y-15673000D02*
X9995000Y-15673000D01*
D11*
X10293872Y-15564484D02*
X10312920Y-15564484D01*
X10312920Y-15564484D02*
X10331967Y-15574008D01*
X10331967Y-15574008D02*
X10341491Y-15583531D01*
X10341491Y-15583531D02*
X10351015Y-15602579D01*
X10351015Y-15602579D02*
X10360539Y-15640674D01*
X10360539Y-15640674D02*
X10360539Y-15688293D01*
X10360539Y-15688293D02*
X10351015Y-15726388D01*
X10351015Y-15726388D02*
X10341491Y-15745436D01*
X10341491Y-15745436D02*
X10331967Y-15754960D01*
X10331967Y-15754960D02*
X10312920Y-15764484D01*
X10312920Y-15764484D02*
X10293872Y-15764484D01*
X10293872Y-15764484D02*
X10274824Y-15754960D01*
X10274824Y-15754960D02*
X10265301Y-15745436D01*
X10265301Y-15745436D02*
X10255777Y-15726388D01*
X10255777Y-15726388D02*
X10246253Y-15688293D01*
X10246253Y-15688293D02*
X10246253Y-15640674D01*
X10246253Y-15640674D02*
X10255777Y-15602579D01*
X10255777Y-15602579D02*
X10265301Y-15583531D01*
X10265301Y-15583531D02*
X10274824Y-15574008D01*
X10274824Y-15574008D02*
X10293872Y-15564484D01*
X10446253Y-15745436D02*
X10455777Y-15754960D01*
X10455777Y-15754960D02*
X10446253Y-15764484D01*
X10446253Y-15764484D02*
X10436729Y-15754960D01*
X10436729Y-15754960D02*
X10446253Y-15745436D01*
X10446253Y-15745436D02*
X10446253Y-15764484D01*
X10636729Y-15564484D02*
X10541491Y-15564484D01*
X10541491Y-15564484D02*
X10531967Y-15659722D01*
X10531967Y-15659722D02*
X10541491Y-15650198D01*
X10541491Y-15650198D02*
X10560539Y-15640674D01*
X10560539Y-15640674D02*
X10608158Y-15640674D01*
X10608158Y-15640674D02*
X10627205Y-15650198D01*
X10627205Y-15650198D02*
X10636729Y-15659722D01*
X10636729Y-15659722D02*
X10646253Y-15678769D01*
X10646253Y-15678769D02*
X10646253Y-15726388D01*
X10646253Y-15726388D02*
X10636729Y-15745436D01*
X10636729Y-15745436D02*
X10627205Y-15754960D01*
X10627205Y-15754960D02*
X10608158Y-15764484D01*
X10608158Y-15764484D02*
X10560539Y-15764484D01*
X10560539Y-15764484D02*
X10541491Y-15754960D01*
X10541491Y-15754960D02*
X10531967Y-15745436D01*
X10827205Y-15564484D02*
X10731967Y-15564484D01*
X10731967Y-15564484D02*
X10722444Y-15659722D01*
X10722444Y-15659722D02*
X10731967Y-15650198D01*
X10731967Y-15650198D02*
X10751015Y-15640674D01*
X10751015Y-15640674D02*
X10798634Y-15640674D01*
X10798634Y-15640674D02*
X10817682Y-15650198D01*
X10817682Y-15650198D02*
X10827205Y-15659722D01*
X10827205Y-15659722D02*
X10836729Y-15678769D01*
X10836729Y-15678769D02*
X10836729Y-15726388D01*
X10836729Y-15726388D02*
X10827205Y-15745436D01*
X10827205Y-15745436D02*
X10817682Y-15754960D01*
X10817682Y-15754960D02*
X10798634Y-15764484D01*
X10798634Y-15764484D02*
X10751015Y-15764484D01*
X10751015Y-15764484D02*
X10731967Y-15754960D01*
X10731967Y-15754960D02*
X10722444Y-15745436D01*
X10960539Y-15564484D02*
X10979586Y-15564484D01*
X10979586Y-15564484D02*
X10998634Y-15574008D01*
X10998634Y-15574008D02*
X11008158Y-15583531D01*
X11008158Y-15583531D02*
X11017682Y-15602579D01*
X11017682Y-15602579D02*
X11027205Y-15640674D01*
X11027205Y-15640674D02*
X11027205Y-15688293D01*
X11027205Y-15688293D02*
X11017682Y-15726388D01*
X11017682Y-15726388D02*
X11008158Y-15745436D01*
X11008158Y-15745436D02*
X10998634Y-15754960D01*
X10998634Y-15754960D02*
X10979586Y-15764484D01*
X10979586Y-15764484D02*
X10960539Y-15764484D01*
X10960539Y-15764484D02*
X10941491Y-15754960D01*
X10941491Y-15754960D02*
X10931967Y-15745436D01*
X10931967Y-15745436D02*
X10922444Y-15726388D01*
X10922444Y-15726388D02*
X10912920Y-15688293D01*
X10912920Y-15688293D02*
X10912920Y-15640674D01*
X10912920Y-15640674D02*
X10922444Y-15602579D01*
X10922444Y-15602579D02*
X10931967Y-15583531D01*
X10931967Y-15583531D02*
X10941491Y-15574008D01*
X10941491Y-15574008D02*
X10960539Y-15564484D01*
X11112920Y-15764484D02*
X11112920Y-15631150D01*
X11112920Y-15650198D02*
X11122444Y-15640674D01*
X11122444Y-15640674D02*
X11141491Y-15631150D01*
X11141491Y-15631150D02*
X11170063Y-15631150D01*
X11170063Y-15631150D02*
X11189110Y-15640674D01*
X11189110Y-15640674D02*
X11198634Y-15659722D01*
X11198634Y-15659722D02*
X11198634Y-15764484D01*
X11198634Y-15659722D02*
X11208158Y-15640674D01*
X11208158Y-15640674D02*
X11227205Y-15631150D01*
X11227205Y-15631150D02*
X11255777Y-15631150D01*
X11255777Y-15631150D02*
X11274824Y-15640674D01*
X11274824Y-15640674D02*
X11284348Y-15659722D01*
X11284348Y-15659722D02*
X11284348Y-15764484D01*
X11379586Y-15764484D02*
X11379586Y-15631150D01*
X11379586Y-15650198D02*
X11389110Y-15640674D01*
X11389110Y-15640674D02*
X11408158Y-15631150D01*
X11408158Y-15631150D02*
X11436729Y-15631150D01*
X11436729Y-15631150D02*
X11455777Y-15640674D01*
X11455777Y-15640674D02*
X11465301Y-15659722D01*
X11465301Y-15659722D02*
X11465301Y-15764484D01*
X11465301Y-15659722D02*
X11474824Y-15640674D01*
X11474824Y-15640674D02*
X11493872Y-15631150D01*
X11493872Y-15631150D02*
X11522443Y-15631150D01*
X11522443Y-15631150D02*
X11541491Y-15640674D01*
X11541491Y-15640674D02*
X11551015Y-15659722D01*
X11551015Y-15659722D02*
X11551015Y-15764484D01*
X11941491Y-15554960D02*
X11770063Y-15812103D01*
X12198634Y-15564484D02*
X12217682Y-15564484D01*
X12217682Y-15564484D02*
X12236729Y-15574008D01*
X12236729Y-15574008D02*
X12246253Y-15583531D01*
X12246253Y-15583531D02*
X12255777Y-15602579D01*
X12255777Y-15602579D02*
X12265301Y-15640674D01*
X12265301Y-15640674D02*
X12265301Y-15688293D01*
X12265301Y-15688293D02*
X12255777Y-15726388D01*
X12255777Y-15726388D02*
X12246253Y-15745436D01*
X12246253Y-15745436D02*
X12236729Y-15754960D01*
X12236729Y-15754960D02*
X12217682Y-15764484D01*
X12217682Y-15764484D02*
X12198634Y-15764484D01*
X12198634Y-15764484D02*
X12179586Y-15754960D01*
X12179586Y-15754960D02*
X12170063Y-15745436D01*
X12170063Y-15745436D02*
X12160539Y-15726388D01*
X12160539Y-15726388D02*
X12151015Y-15688293D01*
X12151015Y-15688293D02*
X12151015Y-15640674D01*
X12151015Y-15640674D02*
X12160539Y-15602579D01*
X12160539Y-15602579D02*
X12170063Y-15583531D01*
X12170063Y-15583531D02*
X12179586Y-15574008D01*
X12179586Y-15574008D02*
X12198634Y-15564484D01*
X12351015Y-15745436D02*
X12360539Y-15754960D01*
X12360539Y-15754960D02*
X12351015Y-15764484D01*
X12351015Y-15764484D02*
X12341491Y-15754960D01*
X12341491Y-15754960D02*
X12351015Y-15745436D01*
X12351015Y-15745436D02*
X12351015Y-15764484D01*
X12484348Y-15564484D02*
X12503396Y-15564484D01*
X12503396Y-15564484D02*
X12522444Y-15574008D01*
X12522444Y-15574008D02*
X12531967Y-15583531D01*
X12531967Y-15583531D02*
X12541491Y-15602579D01*
X12541491Y-15602579D02*
X12551015Y-15640674D01*
X12551015Y-15640674D02*
X12551015Y-15688293D01*
X12551015Y-15688293D02*
X12541491Y-15726388D01*
X12541491Y-15726388D02*
X12531967Y-15745436D01*
X12531967Y-15745436D02*
X12522444Y-15754960D01*
X12522444Y-15754960D02*
X12503396Y-15764484D01*
X12503396Y-15764484D02*
X12484348Y-15764484D01*
X12484348Y-15764484D02*
X12465301Y-15754960D01*
X12465301Y-15754960D02*
X12455777Y-15745436D01*
X12455777Y-15745436D02*
X12446253Y-15726388D01*
X12446253Y-15726388D02*
X12436729Y-15688293D01*
X12436729Y-15688293D02*
X12436729Y-15640674D01*
X12436729Y-15640674D02*
X12446253Y-15602579D01*
X12446253Y-15602579D02*
X12455777Y-15583531D01*
X12455777Y-15583531D02*
X12465301Y-15574008D01*
X12465301Y-15574008D02*
X12484348Y-15564484D01*
X12627206Y-15583531D02*
X12636729Y-15574008D01*
X12636729Y-15574008D02*
X12655777Y-15564484D01*
X12655777Y-15564484D02*
X12703396Y-15564484D01*
X12703396Y-15564484D02*
X12722444Y-15574008D01*
X12722444Y-15574008D02*
X12731967Y-15583531D01*
X12731967Y-15583531D02*
X12741491Y-15602579D01*
X12741491Y-15602579D02*
X12741491Y-15621627D01*
X12741491Y-15621627D02*
X12731967Y-15650198D01*
X12731967Y-15650198D02*
X12617682Y-15764484D01*
X12617682Y-15764484D02*
X12741491Y-15764484D01*
X12931967Y-15764484D02*
X12817682Y-15764484D01*
X12874825Y-15764484D02*
X12874825Y-15564484D01*
X12874825Y-15564484D02*
X12855777Y-15593055D01*
X12855777Y-15593055D02*
X12836729Y-15612103D01*
X12836729Y-15612103D02*
X12817682Y-15621627D01*
X12998634Y-15564484D02*
X13131967Y-15564484D01*
X13131967Y-15564484D02*
X13046253Y-15764484D01*
X13198634Y-15564484D02*
X13198634Y-15602579D01*
X13274825Y-15564484D02*
X13274825Y-15602579D01*
X13570063Y-15840674D02*
X13560539Y-15831150D01*
X13560539Y-15831150D02*
X13541491Y-15802579D01*
X13541491Y-15802579D02*
X13531968Y-15783531D01*
X13531968Y-15783531D02*
X13522444Y-15754960D01*
X13522444Y-15754960D02*
X13512920Y-15707341D01*
X13512920Y-15707341D02*
X13512920Y-15669246D01*
X13512920Y-15669246D02*
X13522444Y-15621627D01*
X13522444Y-15621627D02*
X13531968Y-15593055D01*
X13531968Y-15593055D02*
X13541491Y-15574008D01*
X13541491Y-15574008D02*
X13560539Y-15545436D01*
X13560539Y-15545436D02*
X13570063Y-15535912D01*
X13684348Y-15564484D02*
X13703396Y-15564484D01*
X13703396Y-15564484D02*
X13722444Y-15574008D01*
X13722444Y-15574008D02*
X13731968Y-15583531D01*
X13731968Y-15583531D02*
X13741491Y-15602579D01*
X13741491Y-15602579D02*
X13751015Y-15640674D01*
X13751015Y-15640674D02*
X13751015Y-15688293D01*
X13751015Y-15688293D02*
X13741491Y-15726388D01*
X13741491Y-15726388D02*
X13731968Y-15745436D01*
X13731968Y-15745436D02*
X13722444Y-15754960D01*
X13722444Y-15754960D02*
X13703396Y-15764484D01*
X13703396Y-15764484D02*
X13684348Y-15764484D01*
X13684348Y-15764484D02*
X13665301Y-15754960D01*
X13665301Y-15754960D02*
X13655777Y-15745436D01*
X13655777Y-15745436D02*
X13646253Y-15726388D01*
X13646253Y-15726388D02*
X13636729Y-15688293D01*
X13636729Y-15688293D02*
X13636729Y-15640674D01*
X13636729Y-15640674D02*
X13646253Y-15602579D01*
X13646253Y-15602579D02*
X13655777Y-15583531D01*
X13655777Y-15583531D02*
X13665301Y-15574008D01*
X13665301Y-15574008D02*
X13684348Y-15564484D01*
X13989110Y-15764484D02*
X13989110Y-15564484D01*
X14074825Y-15764484D02*
X14074825Y-15659722D01*
X14074825Y-15659722D02*
X14065301Y-15640674D01*
X14065301Y-15640674D02*
X14046253Y-15631150D01*
X14046253Y-15631150D02*
X14017682Y-15631150D01*
X14017682Y-15631150D02*
X13998634Y-15640674D01*
X13998634Y-15640674D02*
X13989110Y-15650198D01*
X14198634Y-15764484D02*
X14179587Y-15754960D01*
X14179587Y-15754960D02*
X14170063Y-15745436D01*
X14170063Y-15745436D02*
X14160539Y-15726388D01*
X14160539Y-15726388D02*
X14160539Y-15669246D01*
X14160539Y-15669246D02*
X14170063Y-15650198D01*
X14170063Y-15650198D02*
X14179587Y-15640674D01*
X14179587Y-15640674D02*
X14198634Y-15631150D01*
X14198634Y-15631150D02*
X14227206Y-15631150D01*
X14227206Y-15631150D02*
X14246253Y-15640674D01*
X14246253Y-15640674D02*
X14255777Y-15650198D01*
X14255777Y-15650198D02*
X14265301Y-15669246D01*
X14265301Y-15669246D02*
X14265301Y-15726388D01*
X14265301Y-15726388D02*
X14255777Y-15745436D01*
X14255777Y-15745436D02*
X14246253Y-15754960D01*
X14246253Y-15754960D02*
X14227206Y-15764484D01*
X14227206Y-15764484D02*
X14198634Y-15764484D01*
X14379587Y-15764484D02*
X14360539Y-15754960D01*
X14360539Y-15754960D02*
X14351015Y-15735912D01*
X14351015Y-15735912D02*
X14351015Y-15564484D01*
X14531968Y-15754960D02*
X14512920Y-15764484D01*
X14512920Y-15764484D02*
X14474825Y-15764484D01*
X14474825Y-15764484D02*
X14455777Y-15754960D01*
X14455777Y-15754960D02*
X14446253Y-15735912D01*
X14446253Y-15735912D02*
X14446253Y-15659722D01*
X14446253Y-15659722D02*
X14455777Y-15640674D01*
X14455777Y-15640674D02*
X14474825Y-15631150D01*
X14474825Y-15631150D02*
X14512920Y-15631150D01*
X14512920Y-15631150D02*
X14531968Y-15640674D01*
X14531968Y-15640674D02*
X14541491Y-15659722D01*
X14541491Y-15659722D02*
X14541491Y-15678769D01*
X14541491Y-15678769D02*
X14446253Y-15697817D01*
X14617682Y-15754960D02*
X14636730Y-15764484D01*
X14636730Y-15764484D02*
X14674825Y-15764484D01*
X14674825Y-15764484D02*
X14693872Y-15754960D01*
X14693872Y-15754960D02*
X14703396Y-15735912D01*
X14703396Y-15735912D02*
X14703396Y-15726388D01*
X14703396Y-15726388D02*
X14693872Y-15707341D01*
X14693872Y-15707341D02*
X14674825Y-15697817D01*
X14674825Y-15697817D02*
X14646253Y-15697817D01*
X14646253Y-15697817D02*
X14627206Y-15688293D01*
X14627206Y-15688293D02*
X14617682Y-15669246D01*
X14617682Y-15669246D02*
X14617682Y-15659722D01*
X14617682Y-15659722D02*
X14627206Y-15640674D01*
X14627206Y-15640674D02*
X14646253Y-15631150D01*
X14646253Y-15631150D02*
X14674825Y-15631150D01*
X14674825Y-15631150D02*
X14693872Y-15640674D01*
X14941492Y-15688293D02*
X15093873Y-15688293D01*
X15017682Y-15764484D02*
X15017682Y-15612103D01*
X15331968Y-15583531D02*
X15341492Y-15574008D01*
X15341492Y-15574008D02*
X15360539Y-15564484D01*
X15360539Y-15564484D02*
X15408158Y-15564484D01*
X15408158Y-15564484D02*
X15427206Y-15574008D01*
X15427206Y-15574008D02*
X15436730Y-15583531D01*
X15436730Y-15583531D02*
X15446253Y-15602579D01*
X15446253Y-15602579D02*
X15446253Y-15621627D01*
X15446253Y-15621627D02*
X15436730Y-15650198D01*
X15436730Y-15650198D02*
X15322444Y-15764484D01*
X15322444Y-15764484D02*
X15446253Y-15764484D01*
X15674825Y-15754960D02*
X15693873Y-15764484D01*
X15693873Y-15764484D02*
X15731968Y-15764484D01*
X15731968Y-15764484D02*
X15751015Y-15754960D01*
X15751015Y-15754960D02*
X15760539Y-15735912D01*
X15760539Y-15735912D02*
X15760539Y-15726388D01*
X15760539Y-15726388D02*
X15751015Y-15707341D01*
X15751015Y-15707341D02*
X15731968Y-15697817D01*
X15731968Y-15697817D02*
X15703396Y-15697817D01*
X15703396Y-15697817D02*
X15684349Y-15688293D01*
X15684349Y-15688293D02*
X15674825Y-15669246D01*
X15674825Y-15669246D02*
X15674825Y-15659722D01*
X15674825Y-15659722D02*
X15684349Y-15640674D01*
X15684349Y-15640674D02*
X15703396Y-15631150D01*
X15703396Y-15631150D02*
X15731968Y-15631150D01*
X15731968Y-15631150D02*
X15751015Y-15640674D01*
X15874825Y-15764484D02*
X15855777Y-15754960D01*
X15855777Y-15754960D02*
X15846254Y-15735912D01*
X15846254Y-15735912D02*
X15846254Y-15564484D01*
X15979587Y-15764484D02*
X15960539Y-15754960D01*
X15960539Y-15754960D02*
X15951015Y-15745436D01*
X15951015Y-15745436D02*
X15941492Y-15726388D01*
X15941492Y-15726388D02*
X15941492Y-15669246D01*
X15941492Y-15669246D02*
X15951015Y-15650198D01*
X15951015Y-15650198D02*
X15960539Y-15640674D01*
X15960539Y-15640674D02*
X15979587Y-15631150D01*
X15979587Y-15631150D02*
X16008158Y-15631150D01*
X16008158Y-15631150D02*
X16027206Y-15640674D01*
X16027206Y-15640674D02*
X16036730Y-15650198D01*
X16036730Y-15650198D02*
X16046254Y-15669246D01*
X16046254Y-15669246D02*
X16046254Y-15726388D01*
X16046254Y-15726388D02*
X16036730Y-15745436D01*
X16036730Y-15745436D02*
X16027206Y-15754960D01*
X16027206Y-15754960D02*
X16008158Y-15764484D01*
X16008158Y-15764484D02*
X15979587Y-15764484D01*
X16103396Y-15631150D02*
X16179587Y-15631150D01*
X16131968Y-15564484D02*
X16131968Y-15735912D01*
X16131968Y-15735912D02*
X16141492Y-15754960D01*
X16141492Y-15754960D02*
X16160539Y-15764484D01*
X16160539Y-15764484D02*
X16179587Y-15764484D01*
X16236730Y-15754960D02*
X16255777Y-15764484D01*
X16255777Y-15764484D02*
X16293873Y-15764484D01*
X16293873Y-15764484D02*
X16312920Y-15754960D01*
X16312920Y-15754960D02*
X16322444Y-15735912D01*
X16322444Y-15735912D02*
X16322444Y-15726388D01*
X16322444Y-15726388D02*
X16312920Y-15707341D01*
X16312920Y-15707341D02*
X16293873Y-15697817D01*
X16293873Y-15697817D02*
X16265301Y-15697817D01*
X16265301Y-15697817D02*
X16246254Y-15688293D01*
X16246254Y-15688293D02*
X16236730Y-15669246D01*
X16236730Y-15669246D02*
X16236730Y-15659722D01*
X16236730Y-15659722D02*
X16246254Y-15640674D01*
X16246254Y-15640674D02*
X16265301Y-15631150D01*
X16265301Y-15631150D02*
X16293873Y-15631150D01*
X16293873Y-15631150D02*
X16312920Y-15640674D01*
X16389111Y-15840674D02*
X16398635Y-15831150D01*
X16398635Y-15831150D02*
X16417682Y-15802579D01*
X16417682Y-15802579D02*
X16427206Y-15783531D01*
X16427206Y-15783531D02*
X16436730Y-15754960D01*
X16436730Y-15754960D02*
X16446254Y-15707341D01*
X16446254Y-15707341D02*
X16446254Y-15669246D01*
X16446254Y-15669246D02*
X16436730Y-15621627D01*
X16436730Y-15621627D02*
X16427206Y-15593055D01*
X16427206Y-15593055D02*
X16417682Y-15574008D01*
X16417682Y-15574008D02*
X16398635Y-15545436D01*
X16398635Y-15545436D02*
X16389111Y-15535912D01*
D15*
X9985481Y-15959981D02*
X9985481Y-15914019D01*
X9939519Y-15914019D01*
X9939519Y-15959981D01*
X9985481Y-15959981D01*
D11*
X10293872Y-15828484D02*
X10312920Y-15828484D01*
X10312920Y-15828484D02*
X10331967Y-15838008D01*
X10331967Y-15838008D02*
X10341491Y-15847531D01*
X10341491Y-15847531D02*
X10351015Y-15866579D01*
X10351015Y-15866579D02*
X10360539Y-15904674D01*
X10360539Y-15904674D02*
X10360539Y-15952293D01*
X10360539Y-15952293D02*
X10351015Y-15990388D01*
X10351015Y-15990388D02*
X10341491Y-16009436D01*
X10341491Y-16009436D02*
X10331967Y-16018960D01*
X10331967Y-16018960D02*
X10312920Y-16028484D01*
X10312920Y-16028484D02*
X10293872Y-16028484D01*
X10293872Y-16028484D02*
X10274824Y-16018960D01*
X10274824Y-16018960D02*
X10265301Y-16009436D01*
X10265301Y-16009436D02*
X10255777Y-15990388D01*
X10255777Y-15990388D02*
X10246253Y-15952293D01*
X10246253Y-15952293D02*
X10246253Y-15904674D01*
X10246253Y-15904674D02*
X10255777Y-15866579D01*
X10255777Y-15866579D02*
X10265301Y-15847531D01*
X10265301Y-15847531D02*
X10274824Y-15838008D01*
X10274824Y-15838008D02*
X10293872Y-15828484D01*
X10446253Y-16009436D02*
X10455777Y-16018960D01*
X10455777Y-16018960D02*
X10446253Y-16028484D01*
X10446253Y-16028484D02*
X10436729Y-16018960D01*
X10436729Y-16018960D02*
X10446253Y-16009436D01*
X10446253Y-16009436D02*
X10446253Y-16028484D01*
X10627205Y-15828484D02*
X10589110Y-15828484D01*
X10589110Y-15828484D02*
X10570063Y-15838008D01*
X10570063Y-15838008D02*
X10560539Y-15847531D01*
X10560539Y-15847531D02*
X10541491Y-15876103D01*
X10541491Y-15876103D02*
X10531967Y-15914198D01*
X10531967Y-15914198D02*
X10531967Y-15990388D01*
X10531967Y-15990388D02*
X10541491Y-16009436D01*
X10541491Y-16009436D02*
X10551015Y-16018960D01*
X10551015Y-16018960D02*
X10570063Y-16028484D01*
X10570063Y-16028484D02*
X10608158Y-16028484D01*
X10608158Y-16028484D02*
X10627205Y-16018960D01*
X10627205Y-16018960D02*
X10636729Y-16009436D01*
X10636729Y-16009436D02*
X10646253Y-15990388D01*
X10646253Y-15990388D02*
X10646253Y-15942769D01*
X10646253Y-15942769D02*
X10636729Y-15923722D01*
X10636729Y-15923722D02*
X10627205Y-15914198D01*
X10627205Y-15914198D02*
X10608158Y-15904674D01*
X10608158Y-15904674D02*
X10570063Y-15904674D01*
X10570063Y-15904674D02*
X10551015Y-15914198D01*
X10551015Y-15914198D02*
X10541491Y-15923722D01*
X10541491Y-15923722D02*
X10531967Y-15942769D01*
X10827205Y-15828484D02*
X10731967Y-15828484D01*
X10731967Y-15828484D02*
X10722444Y-15923722D01*
X10722444Y-15923722D02*
X10731967Y-15914198D01*
X10731967Y-15914198D02*
X10751015Y-15904674D01*
X10751015Y-15904674D02*
X10798634Y-15904674D01*
X10798634Y-15904674D02*
X10817682Y-15914198D01*
X10817682Y-15914198D02*
X10827205Y-15923722D01*
X10827205Y-15923722D02*
X10836729Y-15942769D01*
X10836729Y-15942769D02*
X10836729Y-15990388D01*
X10836729Y-15990388D02*
X10827205Y-16009436D01*
X10827205Y-16009436D02*
X10817682Y-16018960D01*
X10817682Y-16018960D02*
X10798634Y-16028484D01*
X10798634Y-16028484D02*
X10751015Y-16028484D01*
X10751015Y-16028484D02*
X10731967Y-16018960D01*
X10731967Y-16018960D02*
X10722444Y-16009436D01*
X10960539Y-15828484D02*
X10979586Y-15828484D01*
X10979586Y-15828484D02*
X10998634Y-15838008D01*
X10998634Y-15838008D02*
X11008158Y-15847531D01*
X11008158Y-15847531D02*
X11017682Y-15866579D01*
X11017682Y-15866579D02*
X11027205Y-15904674D01*
X11027205Y-15904674D02*
X11027205Y-15952293D01*
X11027205Y-15952293D02*
X11017682Y-15990388D01*
X11017682Y-15990388D02*
X11008158Y-16009436D01*
X11008158Y-16009436D02*
X10998634Y-16018960D01*
X10998634Y-16018960D02*
X10979586Y-16028484D01*
X10979586Y-16028484D02*
X10960539Y-16028484D01*
X10960539Y-16028484D02*
X10941491Y-16018960D01*
X10941491Y-16018960D02*
X10931967Y-16009436D01*
X10931967Y-16009436D02*
X10922444Y-15990388D01*
X10922444Y-15990388D02*
X10912920Y-15952293D01*
X10912920Y-15952293D02*
X10912920Y-15904674D01*
X10912920Y-15904674D02*
X10922444Y-15866579D01*
X10922444Y-15866579D02*
X10931967Y-15847531D01*
X10931967Y-15847531D02*
X10941491Y-15838008D01*
X10941491Y-15838008D02*
X10960539Y-15828484D01*
X11112920Y-16028484D02*
X11112920Y-15895150D01*
X11112920Y-15914198D02*
X11122444Y-15904674D01*
X11122444Y-15904674D02*
X11141491Y-15895150D01*
X11141491Y-15895150D02*
X11170063Y-15895150D01*
X11170063Y-15895150D02*
X11189110Y-15904674D01*
X11189110Y-15904674D02*
X11198634Y-15923722D01*
X11198634Y-15923722D02*
X11198634Y-16028484D01*
X11198634Y-15923722D02*
X11208158Y-15904674D01*
X11208158Y-15904674D02*
X11227205Y-15895150D01*
X11227205Y-15895150D02*
X11255777Y-15895150D01*
X11255777Y-15895150D02*
X11274824Y-15904674D01*
X11274824Y-15904674D02*
X11284348Y-15923722D01*
X11284348Y-15923722D02*
X11284348Y-16028484D01*
X11379586Y-16028484D02*
X11379586Y-15895150D01*
X11379586Y-15914198D02*
X11389110Y-15904674D01*
X11389110Y-15904674D02*
X11408158Y-15895150D01*
X11408158Y-15895150D02*
X11436729Y-15895150D01*
X11436729Y-15895150D02*
X11455777Y-15904674D01*
X11455777Y-15904674D02*
X11465301Y-15923722D01*
X11465301Y-15923722D02*
X11465301Y-16028484D01*
X11465301Y-15923722D02*
X11474824Y-15904674D01*
X11474824Y-15904674D02*
X11493872Y-15895150D01*
X11493872Y-15895150D02*
X11522443Y-15895150D01*
X11522443Y-15895150D02*
X11541491Y-15904674D01*
X11541491Y-15904674D02*
X11551015Y-15923722D01*
X11551015Y-15923722D02*
X11551015Y-16028484D01*
X11941491Y-15818960D02*
X11770063Y-16076103D01*
X12198634Y-15828484D02*
X12217682Y-15828484D01*
X12217682Y-15828484D02*
X12236729Y-15838008D01*
X12236729Y-15838008D02*
X12246253Y-15847531D01*
X12246253Y-15847531D02*
X12255777Y-15866579D01*
X12255777Y-15866579D02*
X12265301Y-15904674D01*
X12265301Y-15904674D02*
X12265301Y-15952293D01*
X12265301Y-15952293D02*
X12255777Y-15990388D01*
X12255777Y-15990388D02*
X12246253Y-16009436D01*
X12246253Y-16009436D02*
X12236729Y-16018960D01*
X12236729Y-16018960D02*
X12217682Y-16028484D01*
X12217682Y-16028484D02*
X12198634Y-16028484D01*
X12198634Y-16028484D02*
X12179586Y-16018960D01*
X12179586Y-16018960D02*
X12170063Y-16009436D01*
X12170063Y-16009436D02*
X12160539Y-15990388D01*
X12160539Y-15990388D02*
X12151015Y-15952293D01*
X12151015Y-15952293D02*
X12151015Y-15904674D01*
X12151015Y-15904674D02*
X12160539Y-15866579D01*
X12160539Y-15866579D02*
X12170063Y-15847531D01*
X12170063Y-15847531D02*
X12179586Y-15838008D01*
X12179586Y-15838008D02*
X12198634Y-15828484D01*
X12351015Y-16009436D02*
X12360539Y-16018960D01*
X12360539Y-16018960D02*
X12351015Y-16028484D01*
X12351015Y-16028484D02*
X12341491Y-16018960D01*
X12341491Y-16018960D02*
X12351015Y-16009436D01*
X12351015Y-16009436D02*
X12351015Y-16028484D01*
X12484348Y-15828484D02*
X12503396Y-15828484D01*
X12503396Y-15828484D02*
X12522444Y-15838008D01*
X12522444Y-15838008D02*
X12531967Y-15847531D01*
X12531967Y-15847531D02*
X12541491Y-15866579D01*
X12541491Y-15866579D02*
X12551015Y-15904674D01*
X12551015Y-15904674D02*
X12551015Y-15952293D01*
X12551015Y-15952293D02*
X12541491Y-15990388D01*
X12541491Y-15990388D02*
X12531967Y-16009436D01*
X12531967Y-16009436D02*
X12522444Y-16018960D01*
X12522444Y-16018960D02*
X12503396Y-16028484D01*
X12503396Y-16028484D02*
X12484348Y-16028484D01*
X12484348Y-16028484D02*
X12465301Y-16018960D01*
X12465301Y-16018960D02*
X12455777Y-16009436D01*
X12455777Y-16009436D02*
X12446253Y-15990388D01*
X12446253Y-15990388D02*
X12436729Y-15952293D01*
X12436729Y-15952293D02*
X12436729Y-15904674D01*
X12436729Y-15904674D02*
X12446253Y-15866579D01*
X12446253Y-15866579D02*
X12455777Y-15847531D01*
X12455777Y-15847531D02*
X12465301Y-15838008D01*
X12465301Y-15838008D02*
X12484348Y-15828484D01*
X12627206Y-15847531D02*
X12636729Y-15838008D01*
X12636729Y-15838008D02*
X12655777Y-15828484D01*
X12655777Y-15828484D02*
X12703396Y-15828484D01*
X12703396Y-15828484D02*
X12722444Y-15838008D01*
X12722444Y-15838008D02*
X12731967Y-15847531D01*
X12731967Y-15847531D02*
X12741491Y-15866579D01*
X12741491Y-15866579D02*
X12741491Y-15885627D01*
X12741491Y-15885627D02*
X12731967Y-15914198D01*
X12731967Y-15914198D02*
X12617682Y-16028484D01*
X12617682Y-16028484D02*
X12741491Y-16028484D01*
X12922444Y-15828484D02*
X12827206Y-15828484D01*
X12827206Y-15828484D02*
X12817682Y-15923722D01*
X12817682Y-15923722D02*
X12827206Y-15914198D01*
X12827206Y-15914198D02*
X12846253Y-15904674D01*
X12846253Y-15904674D02*
X12893872Y-15904674D01*
X12893872Y-15904674D02*
X12912920Y-15914198D01*
X12912920Y-15914198D02*
X12922444Y-15923722D01*
X12922444Y-15923722D02*
X12931967Y-15942769D01*
X12931967Y-15942769D02*
X12931967Y-15990388D01*
X12931967Y-15990388D02*
X12922444Y-16009436D01*
X12922444Y-16009436D02*
X12912920Y-16018960D01*
X12912920Y-16018960D02*
X12893872Y-16028484D01*
X12893872Y-16028484D02*
X12846253Y-16028484D01*
X12846253Y-16028484D02*
X12827206Y-16018960D01*
X12827206Y-16018960D02*
X12817682Y-16009436D01*
X13103396Y-15828484D02*
X13065301Y-15828484D01*
X13065301Y-15828484D02*
X13046253Y-15838008D01*
X13046253Y-15838008D02*
X13036729Y-15847531D01*
X13036729Y-15847531D02*
X13017682Y-15876103D01*
X13017682Y-15876103D02*
X13008158Y-15914198D01*
X13008158Y-15914198D02*
X13008158Y-15990388D01*
X13008158Y-15990388D02*
X13017682Y-16009436D01*
X13017682Y-16009436D02*
X13027206Y-16018960D01*
X13027206Y-16018960D02*
X13046253Y-16028484D01*
X13046253Y-16028484D02*
X13084348Y-16028484D01*
X13084348Y-16028484D02*
X13103396Y-16018960D01*
X13103396Y-16018960D02*
X13112920Y-16009436D01*
X13112920Y-16009436D02*
X13122444Y-15990388D01*
X13122444Y-15990388D02*
X13122444Y-15942769D01*
X13122444Y-15942769D02*
X13112920Y-15923722D01*
X13112920Y-15923722D02*
X13103396Y-15914198D01*
X13103396Y-15914198D02*
X13084348Y-15904674D01*
X13084348Y-15904674D02*
X13046253Y-15904674D01*
X13046253Y-15904674D02*
X13027206Y-15914198D01*
X13027206Y-15914198D02*
X13017682Y-15923722D01*
X13017682Y-15923722D02*
X13008158Y-15942769D01*
X13198634Y-15828484D02*
X13198634Y-15866579D01*
X13274825Y-15828484D02*
X13274825Y-15866579D01*
X13570063Y-16104674D02*
X13560539Y-16095150D01*
X13560539Y-16095150D02*
X13541491Y-16066579D01*
X13541491Y-16066579D02*
X13531968Y-16047531D01*
X13531968Y-16047531D02*
X13522444Y-16018960D01*
X13522444Y-16018960D02*
X13512920Y-15971341D01*
X13512920Y-15971341D02*
X13512920Y-15933246D01*
X13512920Y-15933246D02*
X13522444Y-15885627D01*
X13522444Y-15885627D02*
X13531968Y-15857055D01*
X13531968Y-15857055D02*
X13541491Y-15838008D01*
X13541491Y-15838008D02*
X13560539Y-15809436D01*
X13560539Y-15809436D02*
X13570063Y-15799912D01*
X13636729Y-15847531D02*
X13646253Y-15838008D01*
X13646253Y-15838008D02*
X13665301Y-15828484D01*
X13665301Y-15828484D02*
X13712920Y-15828484D01*
X13712920Y-15828484D02*
X13731968Y-15838008D01*
X13731968Y-15838008D02*
X13741491Y-15847531D01*
X13741491Y-15847531D02*
X13751015Y-15866579D01*
X13751015Y-15866579D02*
X13751015Y-15885627D01*
X13751015Y-15885627D02*
X13741491Y-15914198D01*
X13741491Y-15914198D02*
X13627206Y-16028484D01*
X13627206Y-16028484D02*
X13751015Y-16028484D01*
X13874825Y-15828484D02*
X13893872Y-15828484D01*
X13893872Y-15828484D02*
X13912920Y-15838008D01*
X13912920Y-15838008D02*
X13922444Y-15847531D01*
X13922444Y-15847531D02*
X13931968Y-15866579D01*
X13931968Y-15866579D02*
X13941491Y-15904674D01*
X13941491Y-15904674D02*
X13941491Y-15952293D01*
X13941491Y-15952293D02*
X13931968Y-15990388D01*
X13931968Y-15990388D02*
X13922444Y-16009436D01*
X13922444Y-16009436D02*
X13912920Y-16018960D01*
X13912920Y-16018960D02*
X13893872Y-16028484D01*
X13893872Y-16028484D02*
X13874825Y-16028484D01*
X13874825Y-16028484D02*
X13855777Y-16018960D01*
X13855777Y-16018960D02*
X13846253Y-16009436D01*
X13846253Y-16009436D02*
X13836729Y-15990388D01*
X13836729Y-15990388D02*
X13827206Y-15952293D01*
X13827206Y-15952293D02*
X13827206Y-15904674D01*
X13827206Y-15904674D02*
X13836729Y-15866579D01*
X13836729Y-15866579D02*
X13846253Y-15847531D01*
X13846253Y-15847531D02*
X13855777Y-15838008D01*
X13855777Y-15838008D02*
X13874825Y-15828484D01*
X14179587Y-16028484D02*
X14179587Y-15828484D01*
X14265301Y-16028484D02*
X14265301Y-15923722D01*
X14265301Y-15923722D02*
X14255777Y-15904674D01*
X14255777Y-15904674D02*
X14236730Y-15895150D01*
X14236730Y-15895150D02*
X14208158Y-15895150D01*
X14208158Y-15895150D02*
X14189110Y-15904674D01*
X14189110Y-15904674D02*
X14179587Y-15914198D01*
X14389110Y-16028484D02*
X14370063Y-16018960D01*
X14370063Y-16018960D02*
X14360539Y-16009436D01*
X14360539Y-16009436D02*
X14351015Y-15990388D01*
X14351015Y-15990388D02*
X14351015Y-15933246D01*
X14351015Y-15933246D02*
X14360539Y-15914198D01*
X14360539Y-15914198D02*
X14370063Y-15904674D01*
X14370063Y-15904674D02*
X14389110Y-15895150D01*
X14389110Y-15895150D02*
X14417682Y-15895150D01*
X14417682Y-15895150D02*
X14436730Y-15904674D01*
X14436730Y-15904674D02*
X14446253Y-15914198D01*
X14446253Y-15914198D02*
X14455777Y-15933246D01*
X14455777Y-15933246D02*
X14455777Y-15990388D01*
X14455777Y-15990388D02*
X14446253Y-16009436D01*
X14446253Y-16009436D02*
X14436730Y-16018960D01*
X14436730Y-16018960D02*
X14417682Y-16028484D01*
X14417682Y-16028484D02*
X14389110Y-16028484D01*
X14570063Y-16028484D02*
X14551015Y-16018960D01*
X14551015Y-16018960D02*
X14541491Y-15999912D01*
X14541491Y-15999912D02*
X14541491Y-15828484D01*
X14722444Y-16018960D02*
X14703396Y-16028484D01*
X14703396Y-16028484D02*
X14665301Y-16028484D01*
X14665301Y-16028484D02*
X14646253Y-16018960D01*
X14646253Y-16018960D02*
X14636730Y-15999912D01*
X14636730Y-15999912D02*
X14636730Y-15923722D01*
X14636730Y-15923722D02*
X14646253Y-15904674D01*
X14646253Y-15904674D02*
X14665301Y-15895150D01*
X14665301Y-15895150D02*
X14703396Y-15895150D01*
X14703396Y-15895150D02*
X14722444Y-15904674D01*
X14722444Y-15904674D02*
X14731968Y-15923722D01*
X14731968Y-15923722D02*
X14731968Y-15942769D01*
X14731968Y-15942769D02*
X14636730Y-15961817D01*
X14808158Y-16018960D02*
X14827206Y-16028484D01*
X14827206Y-16028484D02*
X14865301Y-16028484D01*
X14865301Y-16028484D02*
X14884349Y-16018960D01*
X14884349Y-16018960D02*
X14893872Y-15999912D01*
X14893872Y-15999912D02*
X14893872Y-15990388D01*
X14893872Y-15990388D02*
X14884349Y-15971341D01*
X14884349Y-15971341D02*
X14865301Y-15961817D01*
X14865301Y-15961817D02*
X14836730Y-15961817D01*
X14836730Y-15961817D02*
X14817682Y-15952293D01*
X14817682Y-15952293D02*
X14808158Y-15933246D01*
X14808158Y-15933246D02*
X14808158Y-15923722D01*
X14808158Y-15923722D02*
X14817682Y-15904674D01*
X14817682Y-15904674D02*
X14836730Y-15895150D01*
X14836730Y-15895150D02*
X14865301Y-15895150D01*
X14865301Y-15895150D02*
X14884349Y-15904674D01*
X14960539Y-16104674D02*
X14970063Y-16095150D01*
X14970063Y-16095150D02*
X14989111Y-16066579D01*
X14989111Y-16066579D02*
X14998634Y-16047531D01*
X14998634Y-16047531D02*
X15008158Y-16018960D01*
X15008158Y-16018960D02*
X15017682Y-15971341D01*
X15017682Y-15971341D02*
X15017682Y-15933246D01*
X15017682Y-15933246D02*
X15008158Y-15885627D01*
X15008158Y-15885627D02*
X14998634Y-15857055D01*
X14998634Y-15857055D02*
X14989111Y-15838008D01*
X14989111Y-15838008D02*
X14970063Y-15809436D01*
X14970063Y-15809436D02*
X14960539Y-15799912D01*
D10*
X9945000Y-16251000D02*
X9995000Y-16201000D01*
X9945000Y-16151000D01*
X9895000Y-16201000D01*
X9945000Y-16251000D01*
D11*
X10360539Y-16292484D02*
X10246253Y-16292484D01*
X10303396Y-16292484D02*
X10303396Y-16092484D01*
X10303396Y-16092484D02*
X10284348Y-16121055D01*
X10284348Y-16121055D02*
X10265301Y-16140103D01*
X10265301Y-16140103D02*
X10246253Y-16149627D01*
X10446253Y-16273436D02*
X10455777Y-16282960D01*
X10455777Y-16282960D02*
X10446253Y-16292484D01*
X10446253Y-16292484D02*
X10436729Y-16282960D01*
X10436729Y-16282960D02*
X10446253Y-16273436D01*
X10446253Y-16273436D02*
X10446253Y-16292484D01*
X10579586Y-16092484D02*
X10598634Y-16092484D01*
X10598634Y-16092484D02*
X10617682Y-16102008D01*
X10617682Y-16102008D02*
X10627205Y-16111531D01*
X10627205Y-16111531D02*
X10636729Y-16130579D01*
X10636729Y-16130579D02*
X10646253Y-16168674D01*
X10646253Y-16168674D02*
X10646253Y-16216293D01*
X10646253Y-16216293D02*
X10636729Y-16254388D01*
X10636729Y-16254388D02*
X10627205Y-16273436D01*
X10627205Y-16273436D02*
X10617682Y-16282960D01*
X10617682Y-16282960D02*
X10598634Y-16292484D01*
X10598634Y-16292484D02*
X10579586Y-16292484D01*
X10579586Y-16292484D02*
X10560539Y-16282960D01*
X10560539Y-16282960D02*
X10551015Y-16273436D01*
X10551015Y-16273436D02*
X10541491Y-16254388D01*
X10541491Y-16254388D02*
X10531967Y-16216293D01*
X10531967Y-16216293D02*
X10531967Y-16168674D01*
X10531967Y-16168674D02*
X10541491Y-16130579D01*
X10541491Y-16130579D02*
X10551015Y-16111531D01*
X10551015Y-16111531D02*
X10560539Y-16102008D01*
X10560539Y-16102008D02*
X10579586Y-16092484D01*
X10770063Y-16092484D02*
X10789110Y-16092484D01*
X10789110Y-16092484D02*
X10808158Y-16102008D01*
X10808158Y-16102008D02*
X10817682Y-16111531D01*
X10817682Y-16111531D02*
X10827205Y-16130579D01*
X10827205Y-16130579D02*
X10836729Y-16168674D01*
X10836729Y-16168674D02*
X10836729Y-16216293D01*
X10836729Y-16216293D02*
X10827205Y-16254388D01*
X10827205Y-16254388D02*
X10817682Y-16273436D01*
X10817682Y-16273436D02*
X10808158Y-16282960D01*
X10808158Y-16282960D02*
X10789110Y-16292484D01*
X10789110Y-16292484D02*
X10770063Y-16292484D01*
X10770063Y-16292484D02*
X10751015Y-16282960D01*
X10751015Y-16282960D02*
X10741491Y-16273436D01*
X10741491Y-16273436D02*
X10731967Y-16254388D01*
X10731967Y-16254388D02*
X10722444Y-16216293D01*
X10722444Y-16216293D02*
X10722444Y-16168674D01*
X10722444Y-16168674D02*
X10731967Y-16130579D01*
X10731967Y-16130579D02*
X10741491Y-16111531D01*
X10741491Y-16111531D02*
X10751015Y-16102008D01*
X10751015Y-16102008D02*
X10770063Y-16092484D01*
X10960539Y-16092484D02*
X10979586Y-16092484D01*
X10979586Y-16092484D02*
X10998634Y-16102008D01*
X10998634Y-16102008D02*
X11008158Y-16111531D01*
X11008158Y-16111531D02*
X11017682Y-16130579D01*
X11017682Y-16130579D02*
X11027205Y-16168674D01*
X11027205Y-16168674D02*
X11027205Y-16216293D01*
X11027205Y-16216293D02*
X11017682Y-16254388D01*
X11017682Y-16254388D02*
X11008158Y-16273436D01*
X11008158Y-16273436D02*
X10998634Y-16282960D01*
X10998634Y-16282960D02*
X10979586Y-16292484D01*
X10979586Y-16292484D02*
X10960539Y-16292484D01*
X10960539Y-16292484D02*
X10941491Y-16282960D01*
X10941491Y-16282960D02*
X10931967Y-16273436D01*
X10931967Y-16273436D02*
X10922444Y-16254388D01*
X10922444Y-16254388D02*
X10912920Y-16216293D01*
X10912920Y-16216293D02*
X10912920Y-16168674D01*
X10912920Y-16168674D02*
X10922444Y-16130579D01*
X10922444Y-16130579D02*
X10931967Y-16111531D01*
X10931967Y-16111531D02*
X10941491Y-16102008D01*
X10941491Y-16102008D02*
X10960539Y-16092484D01*
X11112920Y-16292484D02*
X11112920Y-16159150D01*
X11112920Y-16178198D02*
X11122444Y-16168674D01*
X11122444Y-16168674D02*
X11141491Y-16159150D01*
X11141491Y-16159150D02*
X11170063Y-16159150D01*
X11170063Y-16159150D02*
X11189110Y-16168674D01*
X11189110Y-16168674D02*
X11198634Y-16187722D01*
X11198634Y-16187722D02*
X11198634Y-16292484D01*
X11198634Y-16187722D02*
X11208158Y-16168674D01*
X11208158Y-16168674D02*
X11227205Y-16159150D01*
X11227205Y-16159150D02*
X11255777Y-16159150D01*
X11255777Y-16159150D02*
X11274824Y-16168674D01*
X11274824Y-16168674D02*
X11284348Y-16187722D01*
X11284348Y-16187722D02*
X11284348Y-16292484D01*
X11379586Y-16292484D02*
X11379586Y-16159150D01*
X11379586Y-16178198D02*
X11389110Y-16168674D01*
X11389110Y-16168674D02*
X11408158Y-16159150D01*
X11408158Y-16159150D02*
X11436729Y-16159150D01*
X11436729Y-16159150D02*
X11455777Y-16168674D01*
X11455777Y-16168674D02*
X11465301Y-16187722D01*
X11465301Y-16187722D02*
X11465301Y-16292484D01*
X11465301Y-16187722D02*
X11474824Y-16168674D01*
X11474824Y-16168674D02*
X11493872Y-16159150D01*
X11493872Y-16159150D02*
X11522443Y-16159150D01*
X11522443Y-16159150D02*
X11541491Y-16168674D01*
X11541491Y-16168674D02*
X11551015Y-16187722D01*
X11551015Y-16187722D02*
X11551015Y-16292484D01*
X11941491Y-16082960D02*
X11770063Y-16340103D01*
X12198634Y-16092484D02*
X12217682Y-16092484D01*
X12217682Y-16092484D02*
X12236729Y-16102008D01*
X12236729Y-16102008D02*
X12246253Y-16111531D01*
X12246253Y-16111531D02*
X12255777Y-16130579D01*
X12255777Y-16130579D02*
X12265301Y-16168674D01*
X12265301Y-16168674D02*
X12265301Y-16216293D01*
X12265301Y-16216293D02*
X12255777Y-16254388D01*
X12255777Y-16254388D02*
X12246253Y-16273436D01*
X12246253Y-16273436D02*
X12236729Y-16282960D01*
X12236729Y-16282960D02*
X12217682Y-16292484D01*
X12217682Y-16292484D02*
X12198634Y-16292484D01*
X12198634Y-16292484D02*
X12179586Y-16282960D01*
X12179586Y-16282960D02*
X12170063Y-16273436D01*
X12170063Y-16273436D02*
X12160539Y-16254388D01*
X12160539Y-16254388D02*
X12151015Y-16216293D01*
X12151015Y-16216293D02*
X12151015Y-16168674D01*
X12151015Y-16168674D02*
X12160539Y-16130579D01*
X12160539Y-16130579D02*
X12170063Y-16111531D01*
X12170063Y-16111531D02*
X12179586Y-16102008D01*
X12179586Y-16102008D02*
X12198634Y-16092484D01*
X12351015Y-16273436D02*
X12360539Y-16282960D01*
X12360539Y-16282960D02*
X12351015Y-16292484D01*
X12351015Y-16292484D02*
X12341491Y-16282960D01*
X12341491Y-16282960D02*
X12351015Y-16273436D01*
X12351015Y-16273436D02*
X12351015Y-16292484D01*
X12484348Y-16092484D02*
X12503396Y-16092484D01*
X12503396Y-16092484D02*
X12522444Y-16102008D01*
X12522444Y-16102008D02*
X12531967Y-16111531D01*
X12531967Y-16111531D02*
X12541491Y-16130579D01*
X12541491Y-16130579D02*
X12551015Y-16168674D01*
X12551015Y-16168674D02*
X12551015Y-16216293D01*
X12551015Y-16216293D02*
X12541491Y-16254388D01*
X12541491Y-16254388D02*
X12531967Y-16273436D01*
X12531967Y-16273436D02*
X12522444Y-16282960D01*
X12522444Y-16282960D02*
X12503396Y-16292484D01*
X12503396Y-16292484D02*
X12484348Y-16292484D01*
X12484348Y-16292484D02*
X12465301Y-16282960D01*
X12465301Y-16282960D02*
X12455777Y-16273436D01*
X12455777Y-16273436D02*
X12446253Y-16254388D01*
X12446253Y-16254388D02*
X12436729Y-16216293D01*
X12436729Y-16216293D02*
X12436729Y-16168674D01*
X12436729Y-16168674D02*
X12446253Y-16130579D01*
X12446253Y-16130579D02*
X12455777Y-16111531D01*
X12455777Y-16111531D02*
X12465301Y-16102008D01*
X12465301Y-16102008D02*
X12484348Y-16092484D01*
X12617682Y-16092484D02*
X12741491Y-16092484D01*
X12741491Y-16092484D02*
X12674825Y-16168674D01*
X12674825Y-16168674D02*
X12703396Y-16168674D01*
X12703396Y-16168674D02*
X12722444Y-16178198D01*
X12722444Y-16178198D02*
X12731967Y-16187722D01*
X12731967Y-16187722D02*
X12741491Y-16206769D01*
X12741491Y-16206769D02*
X12741491Y-16254388D01*
X12741491Y-16254388D02*
X12731967Y-16273436D01*
X12731967Y-16273436D02*
X12722444Y-16282960D01*
X12722444Y-16282960D02*
X12703396Y-16292484D01*
X12703396Y-16292484D02*
X12646253Y-16292484D01*
X12646253Y-16292484D02*
X12627206Y-16282960D01*
X12627206Y-16282960D02*
X12617682Y-16273436D01*
X12836729Y-16292484D02*
X12874825Y-16292484D01*
X12874825Y-16292484D02*
X12893872Y-16282960D01*
X12893872Y-16282960D02*
X12903396Y-16273436D01*
X12903396Y-16273436D02*
X12922444Y-16244865D01*
X12922444Y-16244865D02*
X12931967Y-16206769D01*
X12931967Y-16206769D02*
X12931967Y-16130579D01*
X12931967Y-16130579D02*
X12922444Y-16111531D01*
X12922444Y-16111531D02*
X12912920Y-16102008D01*
X12912920Y-16102008D02*
X12893872Y-16092484D01*
X12893872Y-16092484D02*
X12855777Y-16092484D01*
X12855777Y-16092484D02*
X12836729Y-16102008D01*
X12836729Y-16102008D02*
X12827206Y-16111531D01*
X12827206Y-16111531D02*
X12817682Y-16130579D01*
X12817682Y-16130579D02*
X12817682Y-16178198D01*
X12817682Y-16178198D02*
X12827206Y-16197246D01*
X12827206Y-16197246D02*
X12836729Y-16206769D01*
X12836729Y-16206769D02*
X12855777Y-16216293D01*
X12855777Y-16216293D02*
X12893872Y-16216293D01*
X12893872Y-16216293D02*
X12912920Y-16206769D01*
X12912920Y-16206769D02*
X12922444Y-16197246D01*
X12922444Y-16197246D02*
X12931967Y-16178198D01*
X13103396Y-16159150D02*
X13103396Y-16292484D01*
X13055777Y-16082960D02*
X13008158Y-16225817D01*
X13008158Y-16225817D02*
X13131967Y-16225817D01*
X13198634Y-16092484D02*
X13198634Y-16130579D01*
X13274825Y-16092484D02*
X13274825Y-16130579D01*
X13570063Y-16368674D02*
X13560539Y-16359150D01*
X13560539Y-16359150D02*
X13541491Y-16330579D01*
X13541491Y-16330579D02*
X13531968Y-16311531D01*
X13531968Y-16311531D02*
X13522444Y-16282960D01*
X13522444Y-16282960D02*
X13512920Y-16235341D01*
X13512920Y-16235341D02*
X13512920Y-16197246D01*
X13512920Y-16197246D02*
X13522444Y-16149627D01*
X13522444Y-16149627D02*
X13531968Y-16121055D01*
X13531968Y-16121055D02*
X13541491Y-16102008D01*
X13541491Y-16102008D02*
X13560539Y-16073436D01*
X13560539Y-16073436D02*
X13570063Y-16063912D01*
X13627206Y-16092484D02*
X13751015Y-16092484D01*
X13751015Y-16092484D02*
X13684348Y-16168674D01*
X13684348Y-16168674D02*
X13712920Y-16168674D01*
X13712920Y-16168674D02*
X13731968Y-16178198D01*
X13731968Y-16178198D02*
X13741491Y-16187722D01*
X13741491Y-16187722D02*
X13751015Y-16206769D01*
X13751015Y-16206769D02*
X13751015Y-16254388D01*
X13751015Y-16254388D02*
X13741491Y-16273436D01*
X13741491Y-16273436D02*
X13731968Y-16282960D01*
X13731968Y-16282960D02*
X13712920Y-16292484D01*
X13712920Y-16292484D02*
X13655777Y-16292484D01*
X13655777Y-16292484D02*
X13636729Y-16282960D01*
X13636729Y-16282960D02*
X13627206Y-16273436D01*
X13941491Y-16292484D02*
X13827206Y-16292484D01*
X13884348Y-16292484D02*
X13884348Y-16092484D01*
X13884348Y-16092484D02*
X13865301Y-16121055D01*
X13865301Y-16121055D02*
X13846253Y-16140103D01*
X13846253Y-16140103D02*
X13827206Y-16149627D01*
X14179587Y-16292484D02*
X14179587Y-16092484D01*
X14265301Y-16292484D02*
X14265301Y-16187722D01*
X14265301Y-16187722D02*
X14255777Y-16168674D01*
X14255777Y-16168674D02*
X14236730Y-16159150D01*
X14236730Y-16159150D02*
X14208158Y-16159150D01*
X14208158Y-16159150D02*
X14189110Y-16168674D01*
X14189110Y-16168674D02*
X14179587Y-16178198D01*
X14389110Y-16292484D02*
X14370063Y-16282960D01*
X14370063Y-16282960D02*
X14360539Y-16273436D01*
X14360539Y-16273436D02*
X14351015Y-16254388D01*
X14351015Y-16254388D02*
X14351015Y-16197246D01*
X14351015Y-16197246D02*
X14360539Y-16178198D01*
X14360539Y-16178198D02*
X14370063Y-16168674D01*
X14370063Y-16168674D02*
X14389110Y-16159150D01*
X14389110Y-16159150D02*
X14417682Y-16159150D01*
X14417682Y-16159150D02*
X14436730Y-16168674D01*
X14436730Y-16168674D02*
X14446253Y-16178198D01*
X14446253Y-16178198D02*
X14455777Y-16197246D01*
X14455777Y-16197246D02*
X14455777Y-16254388D01*
X14455777Y-16254388D02*
X14446253Y-16273436D01*
X14446253Y-16273436D02*
X14436730Y-16282960D01*
X14436730Y-16282960D02*
X14417682Y-16292484D01*
X14417682Y-16292484D02*
X14389110Y-16292484D01*
X14570063Y-16292484D02*
X14551015Y-16282960D01*
X14551015Y-16282960D02*
X14541491Y-16263912D01*
X14541491Y-16263912D02*
X14541491Y-16092484D01*
X14722444Y-16282960D02*
X14703396Y-16292484D01*
X14703396Y-16292484D02*
X14665301Y-16292484D01*
X14665301Y-16292484D02*
X14646253Y-16282960D01*
X14646253Y-16282960D02*
X14636730Y-16263912D01*
X14636730Y-16263912D02*
X14636730Y-16187722D01*
X14636730Y-16187722D02*
X14646253Y-16168674D01*
X14646253Y-16168674D02*
X14665301Y-16159150D01*
X14665301Y-16159150D02*
X14703396Y-16159150D01*
X14703396Y-16159150D02*
X14722444Y-16168674D01*
X14722444Y-16168674D02*
X14731968Y-16187722D01*
X14731968Y-16187722D02*
X14731968Y-16206769D01*
X14731968Y-16206769D02*
X14636730Y-16225817D01*
X14808158Y-16282960D02*
X14827206Y-16292484D01*
X14827206Y-16292484D02*
X14865301Y-16292484D01*
X14865301Y-16292484D02*
X14884349Y-16282960D01*
X14884349Y-16282960D02*
X14893872Y-16263912D01*
X14893872Y-16263912D02*
X14893872Y-16254388D01*
X14893872Y-16254388D02*
X14884349Y-16235341D01*
X14884349Y-16235341D02*
X14865301Y-16225817D01*
X14865301Y-16225817D02*
X14836730Y-16225817D01*
X14836730Y-16225817D02*
X14817682Y-16216293D01*
X14817682Y-16216293D02*
X14808158Y-16197246D01*
X14808158Y-16197246D02*
X14808158Y-16187722D01*
X14808158Y-16187722D02*
X14817682Y-16168674D01*
X14817682Y-16168674D02*
X14836730Y-16159150D01*
X14836730Y-16159150D02*
X14865301Y-16159150D01*
X14865301Y-16159150D02*
X14884349Y-16168674D01*
X14960539Y-16368674D02*
X14970063Y-16359150D01*
X14970063Y-16359150D02*
X14989111Y-16330579D01*
X14989111Y-16330579D02*
X14998634Y-16311531D01*
X14998634Y-16311531D02*
X15008158Y-16282960D01*
X15008158Y-16282960D02*
X15017682Y-16235341D01*
X15017682Y-16235341D02*
X15017682Y-16197246D01*
X15017682Y-16197246D02*
X15008158Y-16149627D01*
X15008158Y-16149627D02*
X14998634Y-16121055D01*
X14998634Y-16121055D02*
X14989111Y-16102008D01*
X14989111Y-16102008D02*
X14970063Y-16073436D01*
X14970063Y-16073436D02*
X14960539Y-16063912D01*
D16*
X9875000Y-16405000D02*
X9995000Y-16525000D01*
X9995000Y-16405000D02*
X9875000Y-16525000D01*
X9995000Y-16465000D02*
G75*
G03*
X9995000Y-16465000I-60000J0D01*
G01*
D11*
X10360539Y-16556484D02*
X10246253Y-16556484D01*
X10303396Y-16556484D02*
X10303396Y-16356484D01*
X10303396Y-16356484D02*
X10284348Y-16385055D01*
X10284348Y-16385055D02*
X10265301Y-16404103D01*
X10265301Y-16404103D02*
X10246253Y-16413627D01*
X10446253Y-16537436D02*
X10455777Y-16546960D01*
X10455777Y-16546960D02*
X10446253Y-16556484D01*
X10446253Y-16556484D02*
X10436729Y-16546960D01*
X10436729Y-16546960D02*
X10446253Y-16537436D01*
X10446253Y-16537436D02*
X10446253Y-16556484D01*
X10531967Y-16375531D02*
X10541491Y-16366008D01*
X10541491Y-16366008D02*
X10560539Y-16356484D01*
X10560539Y-16356484D02*
X10608158Y-16356484D01*
X10608158Y-16356484D02*
X10627205Y-16366008D01*
X10627205Y-16366008D02*
X10636729Y-16375531D01*
X10636729Y-16375531D02*
X10646253Y-16394579D01*
X10646253Y-16394579D02*
X10646253Y-16413627D01*
X10646253Y-16413627D02*
X10636729Y-16442198D01*
X10636729Y-16442198D02*
X10522444Y-16556484D01*
X10522444Y-16556484D02*
X10646253Y-16556484D01*
X10770063Y-16356484D02*
X10789110Y-16356484D01*
X10789110Y-16356484D02*
X10808158Y-16366008D01*
X10808158Y-16366008D02*
X10817682Y-16375531D01*
X10817682Y-16375531D02*
X10827205Y-16394579D01*
X10827205Y-16394579D02*
X10836729Y-16432674D01*
X10836729Y-16432674D02*
X10836729Y-16480293D01*
X10836729Y-16480293D02*
X10827205Y-16518388D01*
X10827205Y-16518388D02*
X10817682Y-16537436D01*
X10817682Y-16537436D02*
X10808158Y-16546960D01*
X10808158Y-16546960D02*
X10789110Y-16556484D01*
X10789110Y-16556484D02*
X10770063Y-16556484D01*
X10770063Y-16556484D02*
X10751015Y-16546960D01*
X10751015Y-16546960D02*
X10741491Y-16537436D01*
X10741491Y-16537436D02*
X10731967Y-16518388D01*
X10731967Y-16518388D02*
X10722444Y-16480293D01*
X10722444Y-16480293D02*
X10722444Y-16432674D01*
X10722444Y-16432674D02*
X10731967Y-16394579D01*
X10731967Y-16394579D02*
X10741491Y-16375531D01*
X10741491Y-16375531D02*
X10751015Y-16366008D01*
X10751015Y-16366008D02*
X10770063Y-16356484D01*
X10960539Y-16356484D02*
X10979586Y-16356484D01*
X10979586Y-16356484D02*
X10998634Y-16366008D01*
X10998634Y-16366008D02*
X11008158Y-16375531D01*
X11008158Y-16375531D02*
X11017682Y-16394579D01*
X11017682Y-16394579D02*
X11027205Y-16432674D01*
X11027205Y-16432674D02*
X11027205Y-16480293D01*
X11027205Y-16480293D02*
X11017682Y-16518388D01*
X11017682Y-16518388D02*
X11008158Y-16537436D01*
X11008158Y-16537436D02*
X10998634Y-16546960D01*
X10998634Y-16546960D02*
X10979586Y-16556484D01*
X10979586Y-16556484D02*
X10960539Y-16556484D01*
X10960539Y-16556484D02*
X10941491Y-16546960D01*
X10941491Y-16546960D02*
X10931967Y-16537436D01*
X10931967Y-16537436D02*
X10922444Y-16518388D01*
X10922444Y-16518388D02*
X10912920Y-16480293D01*
X10912920Y-16480293D02*
X10912920Y-16432674D01*
X10912920Y-16432674D02*
X10922444Y-16394579D01*
X10922444Y-16394579D02*
X10931967Y-16375531D01*
X10931967Y-16375531D02*
X10941491Y-16366008D01*
X10941491Y-16366008D02*
X10960539Y-16356484D01*
X11112920Y-16556484D02*
X11112920Y-16423150D01*
X11112920Y-16442198D02*
X11122444Y-16432674D01*
X11122444Y-16432674D02*
X11141491Y-16423150D01*
X11141491Y-16423150D02*
X11170063Y-16423150D01*
X11170063Y-16423150D02*
X11189110Y-16432674D01*
X11189110Y-16432674D02*
X11198634Y-16451722D01*
X11198634Y-16451722D02*
X11198634Y-16556484D01*
X11198634Y-16451722D02*
X11208158Y-16432674D01*
X11208158Y-16432674D02*
X11227205Y-16423150D01*
X11227205Y-16423150D02*
X11255777Y-16423150D01*
X11255777Y-16423150D02*
X11274824Y-16432674D01*
X11274824Y-16432674D02*
X11284348Y-16451722D01*
X11284348Y-16451722D02*
X11284348Y-16556484D01*
X11379586Y-16556484D02*
X11379586Y-16423150D01*
X11379586Y-16442198D02*
X11389110Y-16432674D01*
X11389110Y-16432674D02*
X11408158Y-16423150D01*
X11408158Y-16423150D02*
X11436729Y-16423150D01*
X11436729Y-16423150D02*
X11455777Y-16432674D01*
X11455777Y-16432674D02*
X11465301Y-16451722D01*
X11465301Y-16451722D02*
X11465301Y-16556484D01*
X11465301Y-16451722D02*
X11474824Y-16432674D01*
X11474824Y-16432674D02*
X11493872Y-16423150D01*
X11493872Y-16423150D02*
X11522443Y-16423150D01*
X11522443Y-16423150D02*
X11541491Y-16432674D01*
X11541491Y-16432674D02*
X11551015Y-16451722D01*
X11551015Y-16451722D02*
X11551015Y-16556484D01*
X11941491Y-16346960D02*
X11770063Y-16604103D01*
X12198634Y-16356484D02*
X12217682Y-16356484D01*
X12217682Y-16356484D02*
X12236729Y-16366008D01*
X12236729Y-16366008D02*
X12246253Y-16375531D01*
X12246253Y-16375531D02*
X12255777Y-16394579D01*
X12255777Y-16394579D02*
X12265301Y-16432674D01*
X12265301Y-16432674D02*
X12265301Y-16480293D01*
X12265301Y-16480293D02*
X12255777Y-16518388D01*
X12255777Y-16518388D02*
X12246253Y-16537436D01*
X12246253Y-16537436D02*
X12236729Y-16546960D01*
X12236729Y-16546960D02*
X12217682Y-16556484D01*
X12217682Y-16556484D02*
X12198634Y-16556484D01*
X12198634Y-16556484D02*
X12179586Y-16546960D01*
X12179586Y-16546960D02*
X12170063Y-16537436D01*
X12170063Y-16537436D02*
X12160539Y-16518388D01*
X12160539Y-16518388D02*
X12151015Y-16480293D01*
X12151015Y-16480293D02*
X12151015Y-16432674D01*
X12151015Y-16432674D02*
X12160539Y-16394579D01*
X12160539Y-16394579D02*
X12170063Y-16375531D01*
X12170063Y-16375531D02*
X12179586Y-16366008D01*
X12179586Y-16366008D02*
X12198634Y-16356484D01*
X12351015Y-16537436D02*
X12360539Y-16546960D01*
X12360539Y-16546960D02*
X12351015Y-16556484D01*
X12351015Y-16556484D02*
X12341491Y-16546960D01*
X12341491Y-16546960D02*
X12351015Y-16537436D01*
X12351015Y-16537436D02*
X12351015Y-16556484D01*
X12484348Y-16356484D02*
X12503396Y-16356484D01*
X12503396Y-16356484D02*
X12522444Y-16366008D01*
X12522444Y-16366008D02*
X12531967Y-16375531D01*
X12531967Y-16375531D02*
X12541491Y-16394579D01*
X12541491Y-16394579D02*
X12551015Y-16432674D01*
X12551015Y-16432674D02*
X12551015Y-16480293D01*
X12551015Y-16480293D02*
X12541491Y-16518388D01*
X12541491Y-16518388D02*
X12531967Y-16537436D01*
X12531967Y-16537436D02*
X12522444Y-16546960D01*
X12522444Y-16546960D02*
X12503396Y-16556484D01*
X12503396Y-16556484D02*
X12484348Y-16556484D01*
X12484348Y-16556484D02*
X12465301Y-16546960D01*
X12465301Y-16546960D02*
X12455777Y-16537436D01*
X12455777Y-16537436D02*
X12446253Y-16518388D01*
X12446253Y-16518388D02*
X12436729Y-16480293D01*
X12436729Y-16480293D02*
X12436729Y-16432674D01*
X12436729Y-16432674D02*
X12446253Y-16394579D01*
X12446253Y-16394579D02*
X12455777Y-16375531D01*
X12455777Y-16375531D02*
X12465301Y-16366008D01*
X12465301Y-16366008D02*
X12484348Y-16356484D01*
X12722444Y-16423150D02*
X12722444Y-16556484D01*
X12674825Y-16346960D02*
X12627206Y-16489817D01*
X12627206Y-16489817D02*
X12751015Y-16489817D01*
X12808158Y-16356484D02*
X12941491Y-16356484D01*
X12941491Y-16356484D02*
X12855777Y-16556484D01*
X13008158Y-16375531D02*
X13017682Y-16366008D01*
X13017682Y-16366008D02*
X13036729Y-16356484D01*
X13036729Y-16356484D02*
X13084348Y-16356484D01*
X13084348Y-16356484D02*
X13103396Y-16366008D01*
X13103396Y-16366008D02*
X13112920Y-16375531D01*
X13112920Y-16375531D02*
X13122444Y-16394579D01*
X13122444Y-16394579D02*
X13122444Y-16413627D01*
X13122444Y-16413627D02*
X13112920Y-16442198D01*
X13112920Y-16442198D02*
X12998634Y-16556484D01*
X12998634Y-16556484D02*
X13122444Y-16556484D01*
X13198634Y-16356484D02*
X13198634Y-16394579D01*
X13274825Y-16356484D02*
X13274825Y-16394579D01*
X13570063Y-16632674D02*
X13560539Y-16623150D01*
X13560539Y-16623150D02*
X13541491Y-16594579D01*
X13541491Y-16594579D02*
X13531968Y-16575531D01*
X13531968Y-16575531D02*
X13522444Y-16546960D01*
X13522444Y-16546960D02*
X13512920Y-16499341D01*
X13512920Y-16499341D02*
X13512920Y-16461246D01*
X13512920Y-16461246D02*
X13522444Y-16413627D01*
X13522444Y-16413627D02*
X13531968Y-16385055D01*
X13531968Y-16385055D02*
X13541491Y-16366008D01*
X13541491Y-16366008D02*
X13560539Y-16337436D01*
X13560539Y-16337436D02*
X13570063Y-16327912D01*
X13636729Y-16375531D02*
X13646253Y-16366008D01*
X13646253Y-16366008D02*
X13665301Y-16356484D01*
X13665301Y-16356484D02*
X13712920Y-16356484D01*
X13712920Y-16356484D02*
X13731968Y-16366008D01*
X13731968Y-16366008D02*
X13741491Y-16375531D01*
X13741491Y-16375531D02*
X13751015Y-16394579D01*
X13751015Y-16394579D02*
X13751015Y-16413627D01*
X13751015Y-16413627D02*
X13741491Y-16442198D01*
X13741491Y-16442198D02*
X13627206Y-16556484D01*
X13627206Y-16556484D02*
X13751015Y-16556484D01*
X13989110Y-16556484D02*
X13989110Y-16356484D01*
X14074825Y-16556484D02*
X14074825Y-16451722D01*
X14074825Y-16451722D02*
X14065301Y-16432674D01*
X14065301Y-16432674D02*
X14046253Y-16423150D01*
X14046253Y-16423150D02*
X14017682Y-16423150D01*
X14017682Y-16423150D02*
X13998634Y-16432674D01*
X13998634Y-16432674D02*
X13989110Y-16442198D01*
X14198634Y-16556484D02*
X14179587Y-16546960D01*
X14179587Y-16546960D02*
X14170063Y-16537436D01*
X14170063Y-16537436D02*
X14160539Y-16518388D01*
X14160539Y-16518388D02*
X14160539Y-16461246D01*
X14160539Y-16461246D02*
X14170063Y-16442198D01*
X14170063Y-16442198D02*
X14179587Y-16432674D01*
X14179587Y-16432674D02*
X14198634Y-16423150D01*
X14198634Y-16423150D02*
X14227206Y-16423150D01*
X14227206Y-16423150D02*
X14246253Y-16432674D01*
X14246253Y-16432674D02*
X14255777Y-16442198D01*
X14255777Y-16442198D02*
X14265301Y-16461246D01*
X14265301Y-16461246D02*
X14265301Y-16518388D01*
X14265301Y-16518388D02*
X14255777Y-16537436D01*
X14255777Y-16537436D02*
X14246253Y-16546960D01*
X14246253Y-16546960D02*
X14227206Y-16556484D01*
X14227206Y-16556484D02*
X14198634Y-16556484D01*
X14379587Y-16556484D02*
X14360539Y-16546960D01*
X14360539Y-16546960D02*
X14351015Y-16527912D01*
X14351015Y-16527912D02*
X14351015Y-16356484D01*
X14531968Y-16546960D02*
X14512920Y-16556484D01*
X14512920Y-16556484D02*
X14474825Y-16556484D01*
X14474825Y-16556484D02*
X14455777Y-16546960D01*
X14455777Y-16546960D02*
X14446253Y-16527912D01*
X14446253Y-16527912D02*
X14446253Y-16451722D01*
X14446253Y-16451722D02*
X14455777Y-16432674D01*
X14455777Y-16432674D02*
X14474825Y-16423150D01*
X14474825Y-16423150D02*
X14512920Y-16423150D01*
X14512920Y-16423150D02*
X14531968Y-16432674D01*
X14531968Y-16432674D02*
X14541491Y-16451722D01*
X14541491Y-16451722D02*
X14541491Y-16470769D01*
X14541491Y-16470769D02*
X14446253Y-16489817D01*
X14617682Y-16546960D02*
X14636730Y-16556484D01*
X14636730Y-16556484D02*
X14674825Y-16556484D01*
X14674825Y-16556484D02*
X14693872Y-16546960D01*
X14693872Y-16546960D02*
X14703396Y-16527912D01*
X14703396Y-16527912D02*
X14703396Y-16518388D01*
X14703396Y-16518388D02*
X14693872Y-16499341D01*
X14693872Y-16499341D02*
X14674825Y-16489817D01*
X14674825Y-16489817D02*
X14646253Y-16489817D01*
X14646253Y-16489817D02*
X14627206Y-16480293D01*
X14627206Y-16480293D02*
X14617682Y-16461246D01*
X14617682Y-16461246D02*
X14617682Y-16451722D01*
X14617682Y-16451722D02*
X14627206Y-16432674D01*
X14627206Y-16432674D02*
X14646253Y-16423150D01*
X14646253Y-16423150D02*
X14674825Y-16423150D01*
X14674825Y-16423150D02*
X14693872Y-16432674D01*
X14770063Y-16632674D02*
X14779587Y-16623150D01*
X14779587Y-16623150D02*
X14798634Y-16594579D01*
X14798634Y-16594579D02*
X14808158Y-16575531D01*
X14808158Y-16575531D02*
X14817682Y-16546960D01*
X14817682Y-16546960D02*
X14827206Y-16499341D01*
X14827206Y-16499341D02*
X14827206Y-16461246D01*
X14827206Y-16461246D02*
X14817682Y-16413627D01*
X14817682Y-16413627D02*
X14808158Y-16385055D01*
X14808158Y-16385055D02*
X14798634Y-16366008D01*
X14798634Y-16366008D02*
X14779587Y-16337436D01*
X14779587Y-16337436D02*
X14770063Y-16327912D01*
M02*
