%TF.GenerationSoftware,KiCad,Pcbnew,7.0.7*%
%TF.CreationDate,2024-05-08T11:13:52-07:00*%
%TF.ProjectId,Final_Project_Sutton_Yazzolino,46696e61-6c5f-4507-926f-6a6563745f53,rev?*%
%TF.SameCoordinates,Original*%
%TF.FileFunction,Legend,Top*%
%TF.FilePolarity,Positive*%
%FSLAX46Y46*%
G04 Gerber Fmt 4.6, Leading zero omitted, Abs format (unit mm)*
G04 Created by KiCad (PCBNEW 7.0.7) date 2024-05-08 11:13:53*
%MOMM*%
%LPD*%
G01*
G04 APERTURE LIST*
%ADD10C,0.150000*%
%ADD11C,0.120000*%
G04 APERTURE END LIST*
D10*
X132245833Y-92709580D02*
X132198214Y-92757200D01*
X132198214Y-92757200D02*
X132055357Y-92804819D01*
X132055357Y-92804819D02*
X131960119Y-92804819D01*
X131960119Y-92804819D02*
X131817262Y-92757200D01*
X131817262Y-92757200D02*
X131722024Y-92661961D01*
X131722024Y-92661961D02*
X131674405Y-92566723D01*
X131674405Y-92566723D02*
X131626786Y-92376247D01*
X131626786Y-92376247D02*
X131626786Y-92233390D01*
X131626786Y-92233390D02*
X131674405Y-92042914D01*
X131674405Y-92042914D02*
X131722024Y-91947676D01*
X131722024Y-91947676D02*
X131817262Y-91852438D01*
X131817262Y-91852438D02*
X131960119Y-91804819D01*
X131960119Y-91804819D02*
X132055357Y-91804819D01*
X132055357Y-91804819D02*
X132198214Y-91852438D01*
X132198214Y-91852438D02*
X132245833Y-91900057D01*
X132817262Y-92233390D02*
X132722024Y-92185771D01*
X132722024Y-92185771D02*
X132674405Y-92138152D01*
X132674405Y-92138152D02*
X132626786Y-92042914D01*
X132626786Y-92042914D02*
X132626786Y-91995295D01*
X132626786Y-91995295D02*
X132674405Y-91900057D01*
X132674405Y-91900057D02*
X132722024Y-91852438D01*
X132722024Y-91852438D02*
X132817262Y-91804819D01*
X132817262Y-91804819D02*
X133007738Y-91804819D01*
X133007738Y-91804819D02*
X133102976Y-91852438D01*
X133102976Y-91852438D02*
X133150595Y-91900057D01*
X133150595Y-91900057D02*
X133198214Y-91995295D01*
X133198214Y-91995295D02*
X133198214Y-92042914D01*
X133198214Y-92042914D02*
X133150595Y-92138152D01*
X133150595Y-92138152D02*
X133102976Y-92185771D01*
X133102976Y-92185771D02*
X133007738Y-92233390D01*
X133007738Y-92233390D02*
X132817262Y-92233390D01*
X132817262Y-92233390D02*
X132722024Y-92281009D01*
X132722024Y-92281009D02*
X132674405Y-92328628D01*
X132674405Y-92328628D02*
X132626786Y-92423866D01*
X132626786Y-92423866D02*
X132626786Y-92614342D01*
X132626786Y-92614342D02*
X132674405Y-92709580D01*
X132674405Y-92709580D02*
X132722024Y-92757200D01*
X132722024Y-92757200D02*
X132817262Y-92804819D01*
X132817262Y-92804819D02*
X133007738Y-92804819D01*
X133007738Y-92804819D02*
X133102976Y-92757200D01*
X133102976Y-92757200D02*
X133150595Y-92709580D01*
X133150595Y-92709580D02*
X133198214Y-92614342D01*
X133198214Y-92614342D02*
X133198214Y-92423866D01*
X133198214Y-92423866D02*
X133150595Y-92328628D01*
X133150595Y-92328628D02*
X133102976Y-92281009D01*
X133102976Y-92281009D02*
X133007738Y-92233390D01*
X117554819Y-69042857D02*
X117078628Y-69376190D01*
X117554819Y-69614285D02*
X116554819Y-69614285D01*
X116554819Y-69614285D02*
X116554819Y-69233333D01*
X116554819Y-69233333D02*
X116602438Y-69138095D01*
X116602438Y-69138095D02*
X116650057Y-69090476D01*
X116650057Y-69090476D02*
X116745295Y-69042857D01*
X116745295Y-69042857D02*
X116888152Y-69042857D01*
X116888152Y-69042857D02*
X116983390Y-69090476D01*
X116983390Y-69090476D02*
X117031009Y-69138095D01*
X117031009Y-69138095D02*
X117078628Y-69233333D01*
X117078628Y-69233333D02*
X117078628Y-69614285D01*
X117554819Y-68090476D02*
X117554819Y-68661904D01*
X117554819Y-68376190D02*
X116554819Y-68376190D01*
X116554819Y-68376190D02*
X116697676Y-68471428D01*
X116697676Y-68471428D02*
X116792914Y-68566666D01*
X116792914Y-68566666D02*
X116840533Y-68661904D01*
X116554819Y-67185714D02*
X116554819Y-67661904D01*
X116554819Y-67661904D02*
X117031009Y-67709523D01*
X117031009Y-67709523D02*
X116983390Y-67661904D01*
X116983390Y-67661904D02*
X116935771Y-67566666D01*
X116935771Y-67566666D02*
X116935771Y-67328571D01*
X116935771Y-67328571D02*
X116983390Y-67233333D01*
X116983390Y-67233333D02*
X117031009Y-67185714D01*
X117031009Y-67185714D02*
X117126247Y-67138095D01*
X117126247Y-67138095D02*
X117364342Y-67138095D01*
X117364342Y-67138095D02*
X117459580Y-67185714D01*
X117459580Y-67185714D02*
X117507200Y-67233333D01*
X117507200Y-67233333D02*
X117554819Y-67328571D01*
X117554819Y-67328571D02*
X117554819Y-67566666D01*
X117554819Y-67566666D02*
X117507200Y-67661904D01*
X117507200Y-67661904D02*
X117459580Y-67709523D01*
X181944642Y-140284580D02*
X181897023Y-140332200D01*
X181897023Y-140332200D02*
X181754166Y-140379819D01*
X181754166Y-140379819D02*
X181658928Y-140379819D01*
X181658928Y-140379819D02*
X181516071Y-140332200D01*
X181516071Y-140332200D02*
X181420833Y-140236961D01*
X181420833Y-140236961D02*
X181373214Y-140141723D01*
X181373214Y-140141723D02*
X181325595Y-139951247D01*
X181325595Y-139951247D02*
X181325595Y-139808390D01*
X181325595Y-139808390D02*
X181373214Y-139617914D01*
X181373214Y-139617914D02*
X181420833Y-139522676D01*
X181420833Y-139522676D02*
X181516071Y-139427438D01*
X181516071Y-139427438D02*
X181658928Y-139379819D01*
X181658928Y-139379819D02*
X181754166Y-139379819D01*
X181754166Y-139379819D02*
X181897023Y-139427438D01*
X181897023Y-139427438D02*
X181944642Y-139475057D01*
X182325595Y-139475057D02*
X182373214Y-139427438D01*
X182373214Y-139427438D02*
X182468452Y-139379819D01*
X182468452Y-139379819D02*
X182706547Y-139379819D01*
X182706547Y-139379819D02*
X182801785Y-139427438D01*
X182801785Y-139427438D02*
X182849404Y-139475057D01*
X182849404Y-139475057D02*
X182897023Y-139570295D01*
X182897023Y-139570295D02*
X182897023Y-139665533D01*
X182897023Y-139665533D02*
X182849404Y-139808390D01*
X182849404Y-139808390D02*
X182277976Y-140379819D01*
X182277976Y-140379819D02*
X182897023Y-140379819D01*
X183801785Y-139379819D02*
X183325595Y-139379819D01*
X183325595Y-139379819D02*
X183277976Y-139856009D01*
X183277976Y-139856009D02*
X183325595Y-139808390D01*
X183325595Y-139808390D02*
X183420833Y-139760771D01*
X183420833Y-139760771D02*
X183658928Y-139760771D01*
X183658928Y-139760771D02*
X183754166Y-139808390D01*
X183754166Y-139808390D02*
X183801785Y-139856009D01*
X183801785Y-139856009D02*
X183849404Y-139951247D01*
X183849404Y-139951247D02*
X183849404Y-140189342D01*
X183849404Y-140189342D02*
X183801785Y-140284580D01*
X183801785Y-140284580D02*
X183754166Y-140332200D01*
X183754166Y-140332200D02*
X183658928Y-140379819D01*
X183658928Y-140379819D02*
X183420833Y-140379819D01*
X183420833Y-140379819D02*
X183325595Y-140332200D01*
X183325595Y-140332200D02*
X183277976Y-140284580D01*
X153779819Y-112804761D02*
X152779819Y-112804761D01*
X153732200Y-111947619D02*
X153779819Y-112042857D01*
X153779819Y-112042857D02*
X153779819Y-112233333D01*
X153779819Y-112233333D02*
X153732200Y-112328571D01*
X153732200Y-112328571D02*
X153636961Y-112376190D01*
X153636961Y-112376190D02*
X153256009Y-112376190D01*
X153256009Y-112376190D02*
X153160771Y-112328571D01*
X153160771Y-112328571D02*
X153113152Y-112233333D01*
X153113152Y-112233333D02*
X153113152Y-112042857D01*
X153113152Y-112042857D02*
X153160771Y-111947619D01*
X153160771Y-111947619D02*
X153256009Y-111900000D01*
X153256009Y-111900000D02*
X153351247Y-111900000D01*
X153351247Y-111900000D02*
X153446485Y-112376190D01*
X153779819Y-110947619D02*
X153779819Y-111519047D01*
X153779819Y-111233333D02*
X152779819Y-111233333D01*
X152779819Y-111233333D02*
X152922676Y-111328571D01*
X152922676Y-111328571D02*
X153017914Y-111423809D01*
X153017914Y-111423809D02*
X153065533Y-111519047D01*
X113504166Y-91906009D02*
X113170833Y-91906009D01*
X113170833Y-92429819D02*
X113170833Y-91429819D01*
X113170833Y-91429819D02*
X113647023Y-91429819D01*
X114361309Y-91906009D02*
X114504166Y-91953628D01*
X114504166Y-91953628D02*
X114551785Y-92001247D01*
X114551785Y-92001247D02*
X114599404Y-92096485D01*
X114599404Y-92096485D02*
X114599404Y-92239342D01*
X114599404Y-92239342D02*
X114551785Y-92334580D01*
X114551785Y-92334580D02*
X114504166Y-92382200D01*
X114504166Y-92382200D02*
X114408928Y-92429819D01*
X114408928Y-92429819D02*
X114027976Y-92429819D01*
X114027976Y-92429819D02*
X114027976Y-91429819D01*
X114027976Y-91429819D02*
X114361309Y-91429819D01*
X114361309Y-91429819D02*
X114456547Y-91477438D01*
X114456547Y-91477438D02*
X114504166Y-91525057D01*
X114504166Y-91525057D02*
X114551785Y-91620295D01*
X114551785Y-91620295D02*
X114551785Y-91715533D01*
X114551785Y-91715533D02*
X114504166Y-91810771D01*
X114504166Y-91810771D02*
X114456547Y-91858390D01*
X114456547Y-91858390D02*
X114361309Y-91906009D01*
X114361309Y-91906009D02*
X114027976Y-91906009D01*
X115551785Y-92429819D02*
X114980357Y-92429819D01*
X115266071Y-92429819D02*
X115266071Y-91429819D01*
X115266071Y-91429819D02*
X115170833Y-91572676D01*
X115170833Y-91572676D02*
X115075595Y-91667914D01*
X115075595Y-91667914D02*
X114980357Y-91715533D01*
X123391666Y-136829819D02*
X123391666Y-137544104D01*
X123391666Y-137544104D02*
X123344047Y-137686961D01*
X123344047Y-137686961D02*
X123248809Y-137782200D01*
X123248809Y-137782200D02*
X123105952Y-137829819D01*
X123105952Y-137829819D02*
X123010714Y-137829819D01*
X123820238Y-136925057D02*
X123867857Y-136877438D01*
X123867857Y-136877438D02*
X123963095Y-136829819D01*
X123963095Y-136829819D02*
X124201190Y-136829819D01*
X124201190Y-136829819D02*
X124296428Y-136877438D01*
X124296428Y-136877438D02*
X124344047Y-136925057D01*
X124344047Y-136925057D02*
X124391666Y-137020295D01*
X124391666Y-137020295D02*
X124391666Y-137115533D01*
X124391666Y-137115533D02*
X124344047Y-137258390D01*
X124344047Y-137258390D02*
X123772619Y-137829819D01*
X123772619Y-137829819D02*
X124391666Y-137829819D01*
X140536666Y-139004819D02*
X140060476Y-139004819D01*
X140060476Y-139004819D02*
X140060476Y-138004819D01*
X140870000Y-138481009D02*
X141203333Y-138481009D01*
X141346190Y-139004819D02*
X140870000Y-139004819D01*
X140870000Y-139004819D02*
X140870000Y-138004819D01*
X140870000Y-138004819D02*
X141346190Y-138004819D01*
X141774762Y-139004819D02*
X141774762Y-138004819D01*
X141774762Y-138004819D02*
X142012857Y-138004819D01*
X142012857Y-138004819D02*
X142155714Y-138052438D01*
X142155714Y-138052438D02*
X142250952Y-138147676D01*
X142250952Y-138147676D02*
X142298571Y-138242914D01*
X142298571Y-138242914D02*
X142346190Y-138433390D01*
X142346190Y-138433390D02*
X142346190Y-138576247D01*
X142346190Y-138576247D02*
X142298571Y-138766723D01*
X142298571Y-138766723D02*
X142250952Y-138861961D01*
X142250952Y-138861961D02*
X142155714Y-138957200D01*
X142155714Y-138957200D02*
X142012857Y-139004819D01*
X142012857Y-139004819D02*
X141774762Y-139004819D01*
X142774762Y-139004819D02*
X142774762Y-138338152D01*
X142774762Y-138433390D02*
X142822381Y-138385771D01*
X142822381Y-138385771D02*
X142917619Y-138338152D01*
X142917619Y-138338152D02*
X143060476Y-138338152D01*
X143060476Y-138338152D02*
X143155714Y-138385771D01*
X143155714Y-138385771D02*
X143203333Y-138481009D01*
X143203333Y-138481009D02*
X143203333Y-139004819D01*
X143203333Y-138481009D02*
X143250952Y-138385771D01*
X143250952Y-138385771D02*
X143346190Y-138338152D01*
X143346190Y-138338152D02*
X143489047Y-138338152D01*
X143489047Y-138338152D02*
X143584286Y-138385771D01*
X143584286Y-138385771D02*
X143631905Y-138481009D01*
X143631905Y-138481009D02*
X143631905Y-139004819D01*
X144250952Y-139004819D02*
X144155714Y-138957200D01*
X144155714Y-138957200D02*
X144108095Y-138909580D01*
X144108095Y-138909580D02*
X144060476Y-138814342D01*
X144060476Y-138814342D02*
X144060476Y-138528628D01*
X144060476Y-138528628D02*
X144108095Y-138433390D01*
X144108095Y-138433390D02*
X144155714Y-138385771D01*
X144155714Y-138385771D02*
X144250952Y-138338152D01*
X144250952Y-138338152D02*
X144393809Y-138338152D01*
X144393809Y-138338152D02*
X144489047Y-138385771D01*
X144489047Y-138385771D02*
X144536666Y-138433390D01*
X144536666Y-138433390D02*
X144584285Y-138528628D01*
X144584285Y-138528628D02*
X144584285Y-138814342D01*
X144584285Y-138814342D02*
X144536666Y-138909580D01*
X144536666Y-138909580D02*
X144489047Y-138957200D01*
X144489047Y-138957200D02*
X144393809Y-139004819D01*
X144393809Y-139004819D02*
X144250952Y-139004819D01*
X145441428Y-139004819D02*
X145441428Y-138004819D01*
X145441428Y-138957200D02*
X145346190Y-139004819D01*
X145346190Y-139004819D02*
X145155714Y-139004819D01*
X145155714Y-139004819D02*
X145060476Y-138957200D01*
X145060476Y-138957200D02*
X145012857Y-138909580D01*
X145012857Y-138909580D02*
X144965238Y-138814342D01*
X144965238Y-138814342D02*
X144965238Y-138528628D01*
X144965238Y-138528628D02*
X145012857Y-138433390D01*
X145012857Y-138433390D02*
X145060476Y-138385771D01*
X145060476Y-138385771D02*
X145155714Y-138338152D01*
X145155714Y-138338152D02*
X145346190Y-138338152D01*
X145346190Y-138338152D02*
X145441428Y-138385771D01*
X146346190Y-138338152D02*
X146346190Y-139004819D01*
X145917619Y-138338152D02*
X145917619Y-138861961D01*
X145917619Y-138861961D02*
X145965238Y-138957200D01*
X145965238Y-138957200D02*
X146060476Y-139004819D01*
X146060476Y-139004819D02*
X146203333Y-139004819D01*
X146203333Y-139004819D02*
X146298571Y-138957200D01*
X146298571Y-138957200D02*
X146346190Y-138909580D01*
X146965238Y-139004819D02*
X146870000Y-138957200D01*
X146870000Y-138957200D02*
X146822381Y-138861961D01*
X146822381Y-138861961D02*
X146822381Y-138004819D01*
X147727143Y-138957200D02*
X147631905Y-139004819D01*
X147631905Y-139004819D02*
X147441429Y-139004819D01*
X147441429Y-139004819D02*
X147346191Y-138957200D01*
X147346191Y-138957200D02*
X147298572Y-138861961D01*
X147298572Y-138861961D02*
X147298572Y-138481009D01*
X147298572Y-138481009D02*
X147346191Y-138385771D01*
X147346191Y-138385771D02*
X147441429Y-138338152D01*
X147441429Y-138338152D02*
X147631905Y-138338152D01*
X147631905Y-138338152D02*
X147727143Y-138385771D01*
X147727143Y-138385771D02*
X147774762Y-138481009D01*
X147774762Y-138481009D02*
X147774762Y-138576247D01*
X147774762Y-138576247D02*
X147298572Y-138671485D01*
X148727143Y-139004819D02*
X148155715Y-139004819D01*
X148441429Y-139004819D02*
X148441429Y-138004819D01*
X148441429Y-138004819D02*
X148346191Y-138147676D01*
X148346191Y-138147676D02*
X148250953Y-138242914D01*
X148250953Y-138242914D02*
X148155715Y-138290533D01*
X113619642Y-74684580D02*
X113572023Y-74732200D01*
X113572023Y-74732200D02*
X113429166Y-74779819D01*
X113429166Y-74779819D02*
X113333928Y-74779819D01*
X113333928Y-74779819D02*
X113191071Y-74732200D01*
X113191071Y-74732200D02*
X113095833Y-74636961D01*
X113095833Y-74636961D02*
X113048214Y-74541723D01*
X113048214Y-74541723D02*
X113000595Y-74351247D01*
X113000595Y-74351247D02*
X113000595Y-74208390D01*
X113000595Y-74208390D02*
X113048214Y-74017914D01*
X113048214Y-74017914D02*
X113095833Y-73922676D01*
X113095833Y-73922676D02*
X113191071Y-73827438D01*
X113191071Y-73827438D02*
X113333928Y-73779819D01*
X113333928Y-73779819D02*
X113429166Y-73779819D01*
X113429166Y-73779819D02*
X113572023Y-73827438D01*
X113572023Y-73827438D02*
X113619642Y-73875057D01*
X114572023Y-74779819D02*
X114000595Y-74779819D01*
X114286309Y-74779819D02*
X114286309Y-73779819D01*
X114286309Y-73779819D02*
X114191071Y-73922676D01*
X114191071Y-73922676D02*
X114095833Y-74017914D01*
X114095833Y-74017914D02*
X114000595Y-74065533D01*
X115429166Y-73779819D02*
X115238690Y-73779819D01*
X115238690Y-73779819D02*
X115143452Y-73827438D01*
X115143452Y-73827438D02*
X115095833Y-73875057D01*
X115095833Y-73875057D02*
X115000595Y-74017914D01*
X115000595Y-74017914D02*
X114952976Y-74208390D01*
X114952976Y-74208390D02*
X114952976Y-74589342D01*
X114952976Y-74589342D02*
X115000595Y-74684580D01*
X115000595Y-74684580D02*
X115048214Y-74732200D01*
X115048214Y-74732200D02*
X115143452Y-74779819D01*
X115143452Y-74779819D02*
X115333928Y-74779819D01*
X115333928Y-74779819D02*
X115429166Y-74732200D01*
X115429166Y-74732200D02*
X115476785Y-74684580D01*
X115476785Y-74684580D02*
X115524404Y-74589342D01*
X115524404Y-74589342D02*
X115524404Y-74351247D01*
X115524404Y-74351247D02*
X115476785Y-74256009D01*
X115476785Y-74256009D02*
X115429166Y-74208390D01*
X115429166Y-74208390D02*
X115333928Y-74160771D01*
X115333928Y-74160771D02*
X115143452Y-74160771D01*
X115143452Y-74160771D02*
X115048214Y-74208390D01*
X115048214Y-74208390D02*
X115000595Y-74256009D01*
X115000595Y-74256009D02*
X114952976Y-74351247D01*
X113819642Y-89084580D02*
X113772023Y-89132200D01*
X113772023Y-89132200D02*
X113629166Y-89179819D01*
X113629166Y-89179819D02*
X113533928Y-89179819D01*
X113533928Y-89179819D02*
X113391071Y-89132200D01*
X113391071Y-89132200D02*
X113295833Y-89036961D01*
X113295833Y-89036961D02*
X113248214Y-88941723D01*
X113248214Y-88941723D02*
X113200595Y-88751247D01*
X113200595Y-88751247D02*
X113200595Y-88608390D01*
X113200595Y-88608390D02*
X113248214Y-88417914D01*
X113248214Y-88417914D02*
X113295833Y-88322676D01*
X113295833Y-88322676D02*
X113391071Y-88227438D01*
X113391071Y-88227438D02*
X113533928Y-88179819D01*
X113533928Y-88179819D02*
X113629166Y-88179819D01*
X113629166Y-88179819D02*
X113772023Y-88227438D01*
X113772023Y-88227438D02*
X113819642Y-88275057D01*
X114772023Y-89179819D02*
X114200595Y-89179819D01*
X114486309Y-89179819D02*
X114486309Y-88179819D01*
X114486309Y-88179819D02*
X114391071Y-88322676D01*
X114391071Y-88322676D02*
X114295833Y-88417914D01*
X114295833Y-88417914D02*
X114200595Y-88465533D01*
X115105357Y-88179819D02*
X115724404Y-88179819D01*
X115724404Y-88179819D02*
X115391071Y-88560771D01*
X115391071Y-88560771D02*
X115533928Y-88560771D01*
X115533928Y-88560771D02*
X115629166Y-88608390D01*
X115629166Y-88608390D02*
X115676785Y-88656009D01*
X115676785Y-88656009D02*
X115724404Y-88751247D01*
X115724404Y-88751247D02*
X115724404Y-88989342D01*
X115724404Y-88989342D02*
X115676785Y-89084580D01*
X115676785Y-89084580D02*
X115629166Y-89132200D01*
X115629166Y-89132200D02*
X115533928Y-89179819D01*
X115533928Y-89179819D02*
X115248214Y-89179819D01*
X115248214Y-89179819D02*
X115152976Y-89132200D01*
X115152976Y-89132200D02*
X115105357Y-89084580D01*
X123299580Y-100702857D02*
X123347200Y-100750476D01*
X123347200Y-100750476D02*
X123394819Y-100893333D01*
X123394819Y-100893333D02*
X123394819Y-100988571D01*
X123394819Y-100988571D02*
X123347200Y-101131428D01*
X123347200Y-101131428D02*
X123251961Y-101226666D01*
X123251961Y-101226666D02*
X123156723Y-101274285D01*
X123156723Y-101274285D02*
X122966247Y-101321904D01*
X122966247Y-101321904D02*
X122823390Y-101321904D01*
X122823390Y-101321904D02*
X122632914Y-101274285D01*
X122632914Y-101274285D02*
X122537676Y-101226666D01*
X122537676Y-101226666D02*
X122442438Y-101131428D01*
X122442438Y-101131428D02*
X122394819Y-100988571D01*
X122394819Y-100988571D02*
X122394819Y-100893333D01*
X122394819Y-100893333D02*
X122442438Y-100750476D01*
X122442438Y-100750476D02*
X122490057Y-100702857D01*
X123394819Y-99750476D02*
X123394819Y-100321904D01*
X123394819Y-100036190D02*
X122394819Y-100036190D01*
X122394819Y-100036190D02*
X122537676Y-100131428D01*
X122537676Y-100131428D02*
X122632914Y-100226666D01*
X122632914Y-100226666D02*
X122680533Y-100321904D01*
X123394819Y-98798095D02*
X123394819Y-99369523D01*
X123394819Y-99083809D02*
X122394819Y-99083809D01*
X122394819Y-99083809D02*
X122537676Y-99179047D01*
X122537676Y-99179047D02*
X122632914Y-99274285D01*
X122632914Y-99274285D02*
X122680533Y-99369523D01*
X106029819Y-82210713D02*
X107029819Y-81972618D01*
X107029819Y-81972618D02*
X106315533Y-81782142D01*
X106315533Y-81782142D02*
X107029819Y-81591666D01*
X107029819Y-81591666D02*
X106029819Y-81353571D01*
X107029819Y-80972618D02*
X106363152Y-80972618D01*
X106029819Y-80972618D02*
X106077438Y-81020237D01*
X106077438Y-81020237D02*
X106125057Y-80972618D01*
X106125057Y-80972618D02*
X106077438Y-80924999D01*
X106077438Y-80924999D02*
X106029819Y-80972618D01*
X106029819Y-80972618D02*
X106125057Y-80972618D01*
X106363152Y-80639285D02*
X106363152Y-80258333D01*
X107029819Y-80496428D02*
X106172676Y-80496428D01*
X106172676Y-80496428D02*
X106077438Y-80448809D01*
X106077438Y-80448809D02*
X106029819Y-80353571D01*
X106029819Y-80353571D02*
X106029819Y-80258333D01*
X107029819Y-79924999D02*
X106363152Y-79924999D01*
X106029819Y-79924999D02*
X106077438Y-79972618D01*
X106077438Y-79972618D02*
X106125057Y-79924999D01*
X106125057Y-79924999D02*
X106077438Y-79877380D01*
X106077438Y-79877380D02*
X106029819Y-79924999D01*
X106029819Y-79924999D02*
X106125057Y-79924999D01*
X107029819Y-79448809D02*
X106029819Y-79448809D01*
X106029819Y-79448809D02*
X106744104Y-79115476D01*
X106744104Y-79115476D02*
X106029819Y-78782143D01*
X106029819Y-78782143D02*
X107029819Y-78782143D01*
X107029819Y-78163095D02*
X106982200Y-78258333D01*
X106982200Y-78258333D02*
X106934580Y-78305952D01*
X106934580Y-78305952D02*
X106839342Y-78353571D01*
X106839342Y-78353571D02*
X106553628Y-78353571D01*
X106553628Y-78353571D02*
X106458390Y-78305952D01*
X106458390Y-78305952D02*
X106410771Y-78258333D01*
X106410771Y-78258333D02*
X106363152Y-78163095D01*
X106363152Y-78163095D02*
X106363152Y-78020238D01*
X106363152Y-78020238D02*
X106410771Y-77925000D01*
X106410771Y-77925000D02*
X106458390Y-77877381D01*
X106458390Y-77877381D02*
X106553628Y-77829762D01*
X106553628Y-77829762D02*
X106839342Y-77829762D01*
X106839342Y-77829762D02*
X106934580Y-77877381D01*
X106934580Y-77877381D02*
X106982200Y-77925000D01*
X106982200Y-77925000D02*
X107029819Y-78020238D01*
X107029819Y-78020238D02*
X107029819Y-78163095D01*
X107029819Y-76972619D02*
X106029819Y-76972619D01*
X106982200Y-76972619D02*
X107029819Y-77067857D01*
X107029819Y-77067857D02*
X107029819Y-77258333D01*
X107029819Y-77258333D02*
X106982200Y-77353571D01*
X106982200Y-77353571D02*
X106934580Y-77401190D01*
X106934580Y-77401190D02*
X106839342Y-77448809D01*
X106839342Y-77448809D02*
X106553628Y-77448809D01*
X106553628Y-77448809D02*
X106458390Y-77401190D01*
X106458390Y-77401190D02*
X106410771Y-77353571D01*
X106410771Y-77353571D02*
X106363152Y-77258333D01*
X106363152Y-77258333D02*
X106363152Y-77067857D01*
X106363152Y-77067857D02*
X106410771Y-76972619D01*
X106363152Y-76067857D02*
X107029819Y-76067857D01*
X106363152Y-76496428D02*
X106886961Y-76496428D01*
X106886961Y-76496428D02*
X106982200Y-76448809D01*
X106982200Y-76448809D02*
X107029819Y-76353571D01*
X107029819Y-76353571D02*
X107029819Y-76210714D01*
X107029819Y-76210714D02*
X106982200Y-76115476D01*
X106982200Y-76115476D02*
X106934580Y-76067857D01*
X107029819Y-75448809D02*
X106982200Y-75544047D01*
X106982200Y-75544047D02*
X106886961Y-75591666D01*
X106886961Y-75591666D02*
X106029819Y-75591666D01*
X106982200Y-74686904D02*
X107029819Y-74782142D01*
X107029819Y-74782142D02*
X107029819Y-74972618D01*
X107029819Y-74972618D02*
X106982200Y-75067856D01*
X106982200Y-75067856D02*
X106886961Y-75115475D01*
X106886961Y-75115475D02*
X106506009Y-75115475D01*
X106506009Y-75115475D02*
X106410771Y-75067856D01*
X106410771Y-75067856D02*
X106363152Y-74972618D01*
X106363152Y-74972618D02*
X106363152Y-74782142D01*
X106363152Y-74782142D02*
X106410771Y-74686904D01*
X106410771Y-74686904D02*
X106506009Y-74639285D01*
X106506009Y-74639285D02*
X106601247Y-74639285D01*
X106601247Y-74639285D02*
X106696485Y-75115475D01*
X107029819Y-73686904D02*
X107029819Y-74258332D01*
X107029819Y-73972618D02*
X106029819Y-73972618D01*
X106029819Y-73972618D02*
X106172676Y-74067856D01*
X106172676Y-74067856D02*
X106267914Y-74163094D01*
X106267914Y-74163094D02*
X106315533Y-74258332D01*
X151479819Y-136955357D02*
X151003628Y-137288690D01*
X151479819Y-137526785D02*
X150479819Y-137526785D01*
X150479819Y-137526785D02*
X150479819Y-137145833D01*
X150479819Y-137145833D02*
X150527438Y-137050595D01*
X150527438Y-137050595D02*
X150575057Y-137002976D01*
X150575057Y-137002976D02*
X150670295Y-136955357D01*
X150670295Y-136955357D02*
X150813152Y-136955357D01*
X150813152Y-136955357D02*
X150908390Y-137002976D01*
X150908390Y-137002976D02*
X150956009Y-137050595D01*
X150956009Y-137050595D02*
X151003628Y-137145833D01*
X151003628Y-137145833D02*
X151003628Y-137526785D01*
X151479819Y-136002976D02*
X151479819Y-136574404D01*
X151479819Y-136288690D02*
X150479819Y-136288690D01*
X150479819Y-136288690D02*
X150622676Y-136383928D01*
X150622676Y-136383928D02*
X150717914Y-136479166D01*
X150717914Y-136479166D02*
X150765533Y-136574404D01*
X151479819Y-135526785D02*
X151479819Y-135336309D01*
X151479819Y-135336309D02*
X151432200Y-135241071D01*
X151432200Y-135241071D02*
X151384580Y-135193452D01*
X151384580Y-135193452D02*
X151241723Y-135098214D01*
X151241723Y-135098214D02*
X151051247Y-135050595D01*
X151051247Y-135050595D02*
X150670295Y-135050595D01*
X150670295Y-135050595D02*
X150575057Y-135098214D01*
X150575057Y-135098214D02*
X150527438Y-135145833D01*
X150527438Y-135145833D02*
X150479819Y-135241071D01*
X150479819Y-135241071D02*
X150479819Y-135431547D01*
X150479819Y-135431547D02*
X150527438Y-135526785D01*
X150527438Y-135526785D02*
X150575057Y-135574404D01*
X150575057Y-135574404D02*
X150670295Y-135622023D01*
X150670295Y-135622023D02*
X150908390Y-135622023D01*
X150908390Y-135622023D02*
X151003628Y-135574404D01*
X151003628Y-135574404D02*
X151051247Y-135526785D01*
X151051247Y-135526785D02*
X151098866Y-135431547D01*
X151098866Y-135431547D02*
X151098866Y-135241071D01*
X151098866Y-135241071D02*
X151051247Y-135145833D01*
X151051247Y-135145833D02*
X151003628Y-135098214D01*
X151003628Y-135098214D02*
X150908390Y-135050595D01*
X126729819Y-80779166D02*
X126729819Y-81255356D01*
X126729819Y-81255356D02*
X125729819Y-81255356D01*
X126729819Y-79922023D02*
X126729819Y-80493451D01*
X126729819Y-80207737D02*
X125729819Y-80207737D01*
X125729819Y-80207737D02*
X125872676Y-80302975D01*
X125872676Y-80302975D02*
X125967914Y-80398213D01*
X125967914Y-80398213D02*
X126015533Y-80493451D01*
X186204819Y-134954166D02*
X185728628Y-135287499D01*
X186204819Y-135525594D02*
X185204819Y-135525594D01*
X185204819Y-135525594D02*
X185204819Y-135144642D01*
X185204819Y-135144642D02*
X185252438Y-135049404D01*
X185252438Y-135049404D02*
X185300057Y-135001785D01*
X185300057Y-135001785D02*
X185395295Y-134954166D01*
X185395295Y-134954166D02*
X185538152Y-134954166D01*
X185538152Y-134954166D02*
X185633390Y-135001785D01*
X185633390Y-135001785D02*
X185681009Y-135049404D01*
X185681009Y-135049404D02*
X185728628Y-135144642D01*
X185728628Y-135144642D02*
X185728628Y-135525594D01*
X185204819Y-134620832D02*
X185204819Y-134001785D01*
X185204819Y-134001785D02*
X185585771Y-134335118D01*
X185585771Y-134335118D02*
X185585771Y-134192261D01*
X185585771Y-134192261D02*
X185633390Y-134097023D01*
X185633390Y-134097023D02*
X185681009Y-134049404D01*
X185681009Y-134049404D02*
X185776247Y-134001785D01*
X185776247Y-134001785D02*
X186014342Y-134001785D01*
X186014342Y-134001785D02*
X186109580Y-134049404D01*
X186109580Y-134049404D02*
X186157200Y-134097023D01*
X186157200Y-134097023D02*
X186204819Y-134192261D01*
X186204819Y-134192261D02*
X186204819Y-134477975D01*
X186204819Y-134477975D02*
X186157200Y-134573213D01*
X186157200Y-134573213D02*
X186109580Y-134620832D01*
X171878333Y-116594580D02*
X171830714Y-116642200D01*
X171830714Y-116642200D02*
X171687857Y-116689819D01*
X171687857Y-116689819D02*
X171592619Y-116689819D01*
X171592619Y-116689819D02*
X171449762Y-116642200D01*
X171449762Y-116642200D02*
X171354524Y-116546961D01*
X171354524Y-116546961D02*
X171306905Y-116451723D01*
X171306905Y-116451723D02*
X171259286Y-116261247D01*
X171259286Y-116261247D02*
X171259286Y-116118390D01*
X171259286Y-116118390D02*
X171306905Y-115927914D01*
X171306905Y-115927914D02*
X171354524Y-115832676D01*
X171354524Y-115832676D02*
X171449762Y-115737438D01*
X171449762Y-115737438D02*
X171592619Y-115689819D01*
X171592619Y-115689819D02*
X171687857Y-115689819D01*
X171687857Y-115689819D02*
X171830714Y-115737438D01*
X171830714Y-115737438D02*
X171878333Y-115785057D01*
X172783095Y-115689819D02*
X172306905Y-115689819D01*
X172306905Y-115689819D02*
X172259286Y-116166009D01*
X172259286Y-116166009D02*
X172306905Y-116118390D01*
X172306905Y-116118390D02*
X172402143Y-116070771D01*
X172402143Y-116070771D02*
X172640238Y-116070771D01*
X172640238Y-116070771D02*
X172735476Y-116118390D01*
X172735476Y-116118390D02*
X172783095Y-116166009D01*
X172783095Y-116166009D02*
X172830714Y-116261247D01*
X172830714Y-116261247D02*
X172830714Y-116499342D01*
X172830714Y-116499342D02*
X172783095Y-116594580D01*
X172783095Y-116594580D02*
X172735476Y-116642200D01*
X172735476Y-116642200D02*
X172640238Y-116689819D01*
X172640238Y-116689819D02*
X172402143Y-116689819D01*
X172402143Y-116689819D02*
X172306905Y-116642200D01*
X172306905Y-116642200D02*
X172259286Y-116594580D01*
X106694642Y-90584580D02*
X106647023Y-90632200D01*
X106647023Y-90632200D02*
X106504166Y-90679819D01*
X106504166Y-90679819D02*
X106408928Y-90679819D01*
X106408928Y-90679819D02*
X106266071Y-90632200D01*
X106266071Y-90632200D02*
X106170833Y-90536961D01*
X106170833Y-90536961D02*
X106123214Y-90441723D01*
X106123214Y-90441723D02*
X106075595Y-90251247D01*
X106075595Y-90251247D02*
X106075595Y-90108390D01*
X106075595Y-90108390D02*
X106123214Y-89917914D01*
X106123214Y-89917914D02*
X106170833Y-89822676D01*
X106170833Y-89822676D02*
X106266071Y-89727438D01*
X106266071Y-89727438D02*
X106408928Y-89679819D01*
X106408928Y-89679819D02*
X106504166Y-89679819D01*
X106504166Y-89679819D02*
X106647023Y-89727438D01*
X106647023Y-89727438D02*
X106694642Y-89775057D01*
X107647023Y-90679819D02*
X107075595Y-90679819D01*
X107361309Y-90679819D02*
X107361309Y-89679819D01*
X107361309Y-89679819D02*
X107266071Y-89822676D01*
X107266071Y-89822676D02*
X107170833Y-89917914D01*
X107170833Y-89917914D02*
X107075595Y-89965533D01*
X108504166Y-90013152D02*
X108504166Y-90679819D01*
X108266071Y-89632200D02*
X108027976Y-90346485D01*
X108027976Y-90346485D02*
X108647023Y-90346485D01*
X186144642Y-144729819D02*
X185811309Y-144253628D01*
X185573214Y-144729819D02*
X185573214Y-143729819D01*
X185573214Y-143729819D02*
X185954166Y-143729819D01*
X185954166Y-143729819D02*
X186049404Y-143777438D01*
X186049404Y-143777438D02*
X186097023Y-143825057D01*
X186097023Y-143825057D02*
X186144642Y-143920295D01*
X186144642Y-143920295D02*
X186144642Y-144063152D01*
X186144642Y-144063152D02*
X186097023Y-144158390D01*
X186097023Y-144158390D02*
X186049404Y-144206009D01*
X186049404Y-144206009D02*
X185954166Y-144253628D01*
X185954166Y-144253628D02*
X185573214Y-144253628D01*
X187097023Y-144729819D02*
X186525595Y-144729819D01*
X186811309Y-144729819D02*
X186811309Y-143729819D01*
X186811309Y-143729819D02*
X186716071Y-143872676D01*
X186716071Y-143872676D02*
X186620833Y-143967914D01*
X186620833Y-143967914D02*
X186525595Y-144015533D01*
X187430357Y-143729819D02*
X188049404Y-143729819D01*
X188049404Y-143729819D02*
X187716071Y-144110771D01*
X187716071Y-144110771D02*
X187858928Y-144110771D01*
X187858928Y-144110771D02*
X187954166Y-144158390D01*
X187954166Y-144158390D02*
X188001785Y-144206009D01*
X188001785Y-144206009D02*
X188049404Y-144301247D01*
X188049404Y-144301247D02*
X188049404Y-144539342D01*
X188049404Y-144539342D02*
X188001785Y-144634580D01*
X188001785Y-144634580D02*
X187954166Y-144682200D01*
X187954166Y-144682200D02*
X187858928Y-144729819D01*
X187858928Y-144729819D02*
X187573214Y-144729819D01*
X187573214Y-144729819D02*
X187477976Y-144682200D01*
X187477976Y-144682200D02*
X187430357Y-144634580D01*
X131059580Y-139655357D02*
X131107200Y-139702976D01*
X131107200Y-139702976D02*
X131154819Y-139845833D01*
X131154819Y-139845833D02*
X131154819Y-139941071D01*
X131154819Y-139941071D02*
X131107200Y-140083928D01*
X131107200Y-140083928D02*
X131011961Y-140179166D01*
X131011961Y-140179166D02*
X130916723Y-140226785D01*
X130916723Y-140226785D02*
X130726247Y-140274404D01*
X130726247Y-140274404D02*
X130583390Y-140274404D01*
X130583390Y-140274404D02*
X130392914Y-140226785D01*
X130392914Y-140226785D02*
X130297676Y-140179166D01*
X130297676Y-140179166D02*
X130202438Y-140083928D01*
X130202438Y-140083928D02*
X130154819Y-139941071D01*
X130154819Y-139941071D02*
X130154819Y-139845833D01*
X130154819Y-139845833D02*
X130202438Y-139702976D01*
X130202438Y-139702976D02*
X130250057Y-139655357D01*
X131154819Y-138702976D02*
X131154819Y-139274404D01*
X131154819Y-138988690D02*
X130154819Y-138988690D01*
X130154819Y-138988690D02*
X130297676Y-139083928D01*
X130297676Y-139083928D02*
X130392914Y-139179166D01*
X130392914Y-139179166D02*
X130440533Y-139274404D01*
X130154819Y-137798214D02*
X130154819Y-138274404D01*
X130154819Y-138274404D02*
X130631009Y-138322023D01*
X130631009Y-138322023D02*
X130583390Y-138274404D01*
X130583390Y-138274404D02*
X130535771Y-138179166D01*
X130535771Y-138179166D02*
X130535771Y-137941071D01*
X130535771Y-137941071D02*
X130583390Y-137845833D01*
X130583390Y-137845833D02*
X130631009Y-137798214D01*
X130631009Y-137798214D02*
X130726247Y-137750595D01*
X130726247Y-137750595D02*
X130964342Y-137750595D01*
X130964342Y-137750595D02*
X131059580Y-137798214D01*
X131059580Y-137798214D02*
X131107200Y-137845833D01*
X131107200Y-137845833D02*
X131154819Y-137941071D01*
X131154819Y-137941071D02*
X131154819Y-138179166D01*
X131154819Y-138179166D02*
X131107200Y-138274404D01*
X131107200Y-138274404D02*
X131059580Y-138322023D01*
X114044642Y-69659580D02*
X113997023Y-69707200D01*
X113997023Y-69707200D02*
X113854166Y-69754819D01*
X113854166Y-69754819D02*
X113758928Y-69754819D01*
X113758928Y-69754819D02*
X113616071Y-69707200D01*
X113616071Y-69707200D02*
X113520833Y-69611961D01*
X113520833Y-69611961D02*
X113473214Y-69516723D01*
X113473214Y-69516723D02*
X113425595Y-69326247D01*
X113425595Y-69326247D02*
X113425595Y-69183390D01*
X113425595Y-69183390D02*
X113473214Y-68992914D01*
X113473214Y-68992914D02*
X113520833Y-68897676D01*
X113520833Y-68897676D02*
X113616071Y-68802438D01*
X113616071Y-68802438D02*
X113758928Y-68754819D01*
X113758928Y-68754819D02*
X113854166Y-68754819D01*
X113854166Y-68754819D02*
X113997023Y-68802438D01*
X113997023Y-68802438D02*
X114044642Y-68850057D01*
X114997023Y-69754819D02*
X114425595Y-69754819D01*
X114711309Y-69754819D02*
X114711309Y-68754819D01*
X114711309Y-68754819D02*
X114616071Y-68897676D01*
X114616071Y-68897676D02*
X114520833Y-68992914D01*
X114520833Y-68992914D02*
X114425595Y-69040533D01*
X115330357Y-68754819D02*
X115997023Y-68754819D01*
X115997023Y-68754819D02*
X115568452Y-69754819D01*
X175740476Y-104764819D02*
X175264286Y-104764819D01*
X175264286Y-104764819D02*
X175264286Y-103764819D01*
X176073810Y-104764819D02*
X176073810Y-103764819D01*
X176073810Y-103764819D02*
X176311905Y-103764819D01*
X176311905Y-103764819D02*
X176454762Y-103812438D01*
X176454762Y-103812438D02*
X176550000Y-103907676D01*
X176550000Y-103907676D02*
X176597619Y-104002914D01*
X176597619Y-104002914D02*
X176645238Y-104193390D01*
X176645238Y-104193390D02*
X176645238Y-104336247D01*
X176645238Y-104336247D02*
X176597619Y-104526723D01*
X176597619Y-104526723D02*
X176550000Y-104621961D01*
X176550000Y-104621961D02*
X176454762Y-104717200D01*
X176454762Y-104717200D02*
X176311905Y-104764819D01*
X176311905Y-104764819D02*
X176073810Y-104764819D01*
X177264286Y-103764819D02*
X177454762Y-103764819D01*
X177454762Y-103764819D02*
X177550000Y-103812438D01*
X177550000Y-103812438D02*
X177645238Y-103907676D01*
X177645238Y-103907676D02*
X177692857Y-104098152D01*
X177692857Y-104098152D02*
X177692857Y-104431485D01*
X177692857Y-104431485D02*
X177645238Y-104621961D01*
X177645238Y-104621961D02*
X177550000Y-104717200D01*
X177550000Y-104717200D02*
X177454762Y-104764819D01*
X177454762Y-104764819D02*
X177264286Y-104764819D01*
X177264286Y-104764819D02*
X177169048Y-104717200D01*
X177169048Y-104717200D02*
X177073810Y-104621961D01*
X177073810Y-104621961D02*
X177026191Y-104431485D01*
X177026191Y-104431485D02*
X177026191Y-104098152D01*
X177026191Y-104098152D02*
X177073810Y-103907676D01*
X177073810Y-103907676D02*
X177169048Y-103812438D01*
X177169048Y-103812438D02*
X177264286Y-103764819D01*
X178026191Y-103764819D02*
X178645238Y-103764819D01*
X178645238Y-103764819D02*
X178311905Y-104145771D01*
X178311905Y-104145771D02*
X178454762Y-104145771D01*
X178454762Y-104145771D02*
X178550000Y-104193390D01*
X178550000Y-104193390D02*
X178597619Y-104241009D01*
X178597619Y-104241009D02*
X178645238Y-104336247D01*
X178645238Y-104336247D02*
X178645238Y-104574342D01*
X178645238Y-104574342D02*
X178597619Y-104669580D01*
X178597619Y-104669580D02*
X178550000Y-104717200D01*
X178550000Y-104717200D02*
X178454762Y-104764819D01*
X178454762Y-104764819D02*
X178169048Y-104764819D01*
X178169048Y-104764819D02*
X178073810Y-104717200D01*
X178073810Y-104717200D02*
X178026191Y-104669580D01*
X179073810Y-104669580D02*
X179121429Y-104717200D01*
X179121429Y-104717200D02*
X179073810Y-104764819D01*
X179073810Y-104764819D02*
X179026191Y-104717200D01*
X179026191Y-104717200D02*
X179073810Y-104669580D01*
X179073810Y-104669580D02*
X179073810Y-104764819D01*
X179454762Y-103764819D02*
X180073809Y-103764819D01*
X180073809Y-103764819D02*
X179740476Y-104145771D01*
X179740476Y-104145771D02*
X179883333Y-104145771D01*
X179883333Y-104145771D02*
X179978571Y-104193390D01*
X179978571Y-104193390D02*
X180026190Y-104241009D01*
X180026190Y-104241009D02*
X180073809Y-104336247D01*
X180073809Y-104336247D02*
X180073809Y-104574342D01*
X180073809Y-104574342D02*
X180026190Y-104669580D01*
X180026190Y-104669580D02*
X179978571Y-104717200D01*
X179978571Y-104717200D02*
X179883333Y-104764819D01*
X179883333Y-104764819D02*
X179597619Y-104764819D01*
X179597619Y-104764819D02*
X179502381Y-104717200D01*
X179502381Y-104717200D02*
X179454762Y-104669580D01*
X180359524Y-103764819D02*
X180692857Y-104764819D01*
X180692857Y-104764819D02*
X181026190Y-103764819D01*
X181883333Y-104764819D02*
X181311905Y-104764819D01*
X181597619Y-104764819D02*
X181597619Y-103764819D01*
X181597619Y-103764819D02*
X181502381Y-103907676D01*
X181502381Y-103907676D02*
X181407143Y-104002914D01*
X181407143Y-104002914D02*
X181311905Y-104050533D01*
X123138095Y-82754819D02*
X123138095Y-83564342D01*
X123138095Y-83564342D02*
X123185714Y-83659580D01*
X123185714Y-83659580D02*
X123233333Y-83707200D01*
X123233333Y-83707200D02*
X123328571Y-83754819D01*
X123328571Y-83754819D02*
X123519047Y-83754819D01*
X123519047Y-83754819D02*
X123614285Y-83707200D01*
X123614285Y-83707200D02*
X123661904Y-83659580D01*
X123661904Y-83659580D02*
X123709523Y-83564342D01*
X123709523Y-83564342D02*
X123709523Y-82754819D01*
X124090476Y-82754819D02*
X124709523Y-82754819D01*
X124709523Y-82754819D02*
X124376190Y-83135771D01*
X124376190Y-83135771D02*
X124519047Y-83135771D01*
X124519047Y-83135771D02*
X124614285Y-83183390D01*
X124614285Y-83183390D02*
X124661904Y-83231009D01*
X124661904Y-83231009D02*
X124709523Y-83326247D01*
X124709523Y-83326247D02*
X124709523Y-83564342D01*
X124709523Y-83564342D02*
X124661904Y-83659580D01*
X124661904Y-83659580D02*
X124614285Y-83707200D01*
X124614285Y-83707200D02*
X124519047Y-83754819D01*
X124519047Y-83754819D02*
X124233333Y-83754819D01*
X124233333Y-83754819D02*
X124138095Y-83707200D01*
X124138095Y-83707200D02*
X124090476Y-83659580D01*
X108769642Y-81779819D02*
X108436309Y-81303628D01*
X108198214Y-81779819D02*
X108198214Y-80779819D01*
X108198214Y-80779819D02*
X108579166Y-80779819D01*
X108579166Y-80779819D02*
X108674404Y-80827438D01*
X108674404Y-80827438D02*
X108722023Y-80875057D01*
X108722023Y-80875057D02*
X108769642Y-80970295D01*
X108769642Y-80970295D02*
X108769642Y-81113152D01*
X108769642Y-81113152D02*
X108722023Y-81208390D01*
X108722023Y-81208390D02*
X108674404Y-81256009D01*
X108674404Y-81256009D02*
X108579166Y-81303628D01*
X108579166Y-81303628D02*
X108198214Y-81303628D01*
X109722023Y-81779819D02*
X109150595Y-81779819D01*
X109436309Y-81779819D02*
X109436309Y-80779819D01*
X109436309Y-80779819D02*
X109341071Y-80922676D01*
X109341071Y-80922676D02*
X109245833Y-81017914D01*
X109245833Y-81017914D02*
X109150595Y-81065533D01*
X110055357Y-80779819D02*
X110722023Y-80779819D01*
X110722023Y-80779819D02*
X110293452Y-81779819D01*
X158454819Y-136955357D02*
X157978628Y-137288690D01*
X158454819Y-137526785D02*
X157454819Y-137526785D01*
X157454819Y-137526785D02*
X157454819Y-137145833D01*
X157454819Y-137145833D02*
X157502438Y-137050595D01*
X157502438Y-137050595D02*
X157550057Y-137002976D01*
X157550057Y-137002976D02*
X157645295Y-136955357D01*
X157645295Y-136955357D02*
X157788152Y-136955357D01*
X157788152Y-136955357D02*
X157883390Y-137002976D01*
X157883390Y-137002976D02*
X157931009Y-137050595D01*
X157931009Y-137050595D02*
X157978628Y-137145833D01*
X157978628Y-137145833D02*
X157978628Y-137526785D01*
X157550057Y-136574404D02*
X157502438Y-136526785D01*
X157502438Y-136526785D02*
X157454819Y-136431547D01*
X157454819Y-136431547D02*
X157454819Y-136193452D01*
X157454819Y-136193452D02*
X157502438Y-136098214D01*
X157502438Y-136098214D02*
X157550057Y-136050595D01*
X157550057Y-136050595D02*
X157645295Y-136002976D01*
X157645295Y-136002976D02*
X157740533Y-136002976D01*
X157740533Y-136002976D02*
X157883390Y-136050595D01*
X157883390Y-136050595D02*
X158454819Y-136622023D01*
X158454819Y-136622023D02*
X158454819Y-136002976D01*
X157788152Y-135145833D02*
X158454819Y-135145833D01*
X157407200Y-135383928D02*
X158121485Y-135622023D01*
X158121485Y-135622023D02*
X158121485Y-135002976D01*
X182520833Y-122159580D02*
X182473214Y-122207200D01*
X182473214Y-122207200D02*
X182330357Y-122254819D01*
X182330357Y-122254819D02*
X182235119Y-122254819D01*
X182235119Y-122254819D02*
X182092262Y-122207200D01*
X182092262Y-122207200D02*
X181997024Y-122111961D01*
X181997024Y-122111961D02*
X181949405Y-122016723D01*
X181949405Y-122016723D02*
X181901786Y-121826247D01*
X181901786Y-121826247D02*
X181901786Y-121683390D01*
X181901786Y-121683390D02*
X181949405Y-121492914D01*
X181949405Y-121492914D02*
X181997024Y-121397676D01*
X181997024Y-121397676D02*
X182092262Y-121302438D01*
X182092262Y-121302438D02*
X182235119Y-121254819D01*
X182235119Y-121254819D02*
X182330357Y-121254819D01*
X182330357Y-121254819D02*
X182473214Y-121302438D01*
X182473214Y-121302438D02*
X182520833Y-121350057D01*
X183377976Y-121254819D02*
X183187500Y-121254819D01*
X183187500Y-121254819D02*
X183092262Y-121302438D01*
X183092262Y-121302438D02*
X183044643Y-121350057D01*
X183044643Y-121350057D02*
X182949405Y-121492914D01*
X182949405Y-121492914D02*
X182901786Y-121683390D01*
X182901786Y-121683390D02*
X182901786Y-122064342D01*
X182901786Y-122064342D02*
X182949405Y-122159580D01*
X182949405Y-122159580D02*
X182997024Y-122207200D01*
X182997024Y-122207200D02*
X183092262Y-122254819D01*
X183092262Y-122254819D02*
X183282738Y-122254819D01*
X183282738Y-122254819D02*
X183377976Y-122207200D01*
X183377976Y-122207200D02*
X183425595Y-122159580D01*
X183425595Y-122159580D02*
X183473214Y-122064342D01*
X183473214Y-122064342D02*
X183473214Y-121826247D01*
X183473214Y-121826247D02*
X183425595Y-121731009D01*
X183425595Y-121731009D02*
X183377976Y-121683390D01*
X183377976Y-121683390D02*
X183282738Y-121635771D01*
X183282738Y-121635771D02*
X183092262Y-121635771D01*
X183092262Y-121635771D02*
X182997024Y-121683390D01*
X182997024Y-121683390D02*
X182949405Y-121731009D01*
X182949405Y-121731009D02*
X182901786Y-121826247D01*
X105909580Y-132142857D02*
X105957200Y-132190476D01*
X105957200Y-132190476D02*
X106004819Y-132333333D01*
X106004819Y-132333333D02*
X106004819Y-132428571D01*
X106004819Y-132428571D02*
X105957200Y-132571428D01*
X105957200Y-132571428D02*
X105861961Y-132666666D01*
X105861961Y-132666666D02*
X105766723Y-132714285D01*
X105766723Y-132714285D02*
X105576247Y-132761904D01*
X105576247Y-132761904D02*
X105433390Y-132761904D01*
X105433390Y-132761904D02*
X105242914Y-132714285D01*
X105242914Y-132714285D02*
X105147676Y-132666666D01*
X105147676Y-132666666D02*
X105052438Y-132571428D01*
X105052438Y-132571428D02*
X105004819Y-132428571D01*
X105004819Y-132428571D02*
X105004819Y-132333333D01*
X105004819Y-132333333D02*
X105052438Y-132190476D01*
X105052438Y-132190476D02*
X105100057Y-132142857D01*
X106004819Y-131190476D02*
X106004819Y-131761904D01*
X106004819Y-131476190D02*
X105004819Y-131476190D01*
X105004819Y-131476190D02*
X105147676Y-131571428D01*
X105147676Y-131571428D02*
X105242914Y-131666666D01*
X105242914Y-131666666D02*
X105290533Y-131761904D01*
X105433390Y-130619047D02*
X105385771Y-130714285D01*
X105385771Y-130714285D02*
X105338152Y-130761904D01*
X105338152Y-130761904D02*
X105242914Y-130809523D01*
X105242914Y-130809523D02*
X105195295Y-130809523D01*
X105195295Y-130809523D02*
X105100057Y-130761904D01*
X105100057Y-130761904D02*
X105052438Y-130714285D01*
X105052438Y-130714285D02*
X105004819Y-130619047D01*
X105004819Y-130619047D02*
X105004819Y-130428571D01*
X105004819Y-130428571D02*
X105052438Y-130333333D01*
X105052438Y-130333333D02*
X105100057Y-130285714D01*
X105100057Y-130285714D02*
X105195295Y-130238095D01*
X105195295Y-130238095D02*
X105242914Y-130238095D01*
X105242914Y-130238095D02*
X105338152Y-130285714D01*
X105338152Y-130285714D02*
X105385771Y-130333333D01*
X105385771Y-130333333D02*
X105433390Y-130428571D01*
X105433390Y-130428571D02*
X105433390Y-130619047D01*
X105433390Y-130619047D02*
X105481009Y-130714285D01*
X105481009Y-130714285D02*
X105528628Y-130761904D01*
X105528628Y-130761904D02*
X105623866Y-130809523D01*
X105623866Y-130809523D02*
X105814342Y-130809523D01*
X105814342Y-130809523D02*
X105909580Y-130761904D01*
X105909580Y-130761904D02*
X105957200Y-130714285D01*
X105957200Y-130714285D02*
X106004819Y-130619047D01*
X106004819Y-130619047D02*
X106004819Y-130428571D01*
X106004819Y-130428571D02*
X105957200Y-130333333D01*
X105957200Y-130333333D02*
X105909580Y-130285714D01*
X105909580Y-130285714D02*
X105814342Y-130238095D01*
X105814342Y-130238095D02*
X105623866Y-130238095D01*
X105623866Y-130238095D02*
X105528628Y-130285714D01*
X105528628Y-130285714D02*
X105481009Y-130333333D01*
X105481009Y-130333333D02*
X105433390Y-130428571D01*
X184565833Y-103769580D02*
X184518214Y-103817200D01*
X184518214Y-103817200D02*
X184375357Y-103864819D01*
X184375357Y-103864819D02*
X184280119Y-103864819D01*
X184280119Y-103864819D02*
X184137262Y-103817200D01*
X184137262Y-103817200D02*
X184042024Y-103721961D01*
X184042024Y-103721961D02*
X183994405Y-103626723D01*
X183994405Y-103626723D02*
X183946786Y-103436247D01*
X183946786Y-103436247D02*
X183946786Y-103293390D01*
X183946786Y-103293390D02*
X183994405Y-103102914D01*
X183994405Y-103102914D02*
X184042024Y-103007676D01*
X184042024Y-103007676D02*
X184137262Y-102912438D01*
X184137262Y-102912438D02*
X184280119Y-102864819D01*
X184280119Y-102864819D02*
X184375357Y-102864819D01*
X184375357Y-102864819D02*
X184518214Y-102912438D01*
X184518214Y-102912438D02*
X184565833Y-102960057D01*
X184946786Y-102960057D02*
X184994405Y-102912438D01*
X184994405Y-102912438D02*
X185089643Y-102864819D01*
X185089643Y-102864819D02*
X185327738Y-102864819D01*
X185327738Y-102864819D02*
X185422976Y-102912438D01*
X185422976Y-102912438D02*
X185470595Y-102960057D01*
X185470595Y-102960057D02*
X185518214Y-103055295D01*
X185518214Y-103055295D02*
X185518214Y-103150533D01*
X185518214Y-103150533D02*
X185470595Y-103293390D01*
X185470595Y-103293390D02*
X184899167Y-103864819D01*
X184899167Y-103864819D02*
X185518214Y-103864819D01*
X121144642Y-129684580D02*
X121097023Y-129732200D01*
X121097023Y-129732200D02*
X120954166Y-129779819D01*
X120954166Y-129779819D02*
X120858928Y-129779819D01*
X120858928Y-129779819D02*
X120716071Y-129732200D01*
X120716071Y-129732200D02*
X120620833Y-129636961D01*
X120620833Y-129636961D02*
X120573214Y-129541723D01*
X120573214Y-129541723D02*
X120525595Y-129351247D01*
X120525595Y-129351247D02*
X120525595Y-129208390D01*
X120525595Y-129208390D02*
X120573214Y-129017914D01*
X120573214Y-129017914D02*
X120620833Y-128922676D01*
X120620833Y-128922676D02*
X120716071Y-128827438D01*
X120716071Y-128827438D02*
X120858928Y-128779819D01*
X120858928Y-128779819D02*
X120954166Y-128779819D01*
X120954166Y-128779819D02*
X121097023Y-128827438D01*
X121097023Y-128827438D02*
X121144642Y-128875057D01*
X122097023Y-129779819D02*
X121525595Y-129779819D01*
X121811309Y-129779819D02*
X121811309Y-128779819D01*
X121811309Y-128779819D02*
X121716071Y-128922676D01*
X121716071Y-128922676D02*
X121620833Y-129017914D01*
X121620833Y-129017914D02*
X121525595Y-129065533D01*
X122573214Y-129779819D02*
X122763690Y-129779819D01*
X122763690Y-129779819D02*
X122858928Y-129732200D01*
X122858928Y-129732200D02*
X122906547Y-129684580D01*
X122906547Y-129684580D02*
X123001785Y-129541723D01*
X123001785Y-129541723D02*
X123049404Y-129351247D01*
X123049404Y-129351247D02*
X123049404Y-128970295D01*
X123049404Y-128970295D02*
X123001785Y-128875057D01*
X123001785Y-128875057D02*
X122954166Y-128827438D01*
X122954166Y-128827438D02*
X122858928Y-128779819D01*
X122858928Y-128779819D02*
X122668452Y-128779819D01*
X122668452Y-128779819D02*
X122573214Y-128827438D01*
X122573214Y-128827438D02*
X122525595Y-128875057D01*
X122525595Y-128875057D02*
X122477976Y-128970295D01*
X122477976Y-128970295D02*
X122477976Y-129208390D01*
X122477976Y-129208390D02*
X122525595Y-129303628D01*
X122525595Y-129303628D02*
X122573214Y-129351247D01*
X122573214Y-129351247D02*
X122668452Y-129398866D01*
X122668452Y-129398866D02*
X122858928Y-129398866D01*
X122858928Y-129398866D02*
X122954166Y-129351247D01*
X122954166Y-129351247D02*
X123001785Y-129303628D01*
X123001785Y-129303628D02*
X123049404Y-129208390D01*
X120941666Y-49114819D02*
X120941666Y-49829104D01*
X120941666Y-49829104D02*
X120894047Y-49971961D01*
X120894047Y-49971961D02*
X120798809Y-50067200D01*
X120798809Y-50067200D02*
X120655952Y-50114819D01*
X120655952Y-50114819D02*
X120560714Y-50114819D01*
X121941666Y-50114819D02*
X121370238Y-50114819D01*
X121655952Y-50114819D02*
X121655952Y-49114819D01*
X121655952Y-49114819D02*
X121560714Y-49257676D01*
X121560714Y-49257676D02*
X121465476Y-49352914D01*
X121465476Y-49352914D02*
X121370238Y-49400533D01*
X142329819Y-108688094D02*
X143139342Y-108688094D01*
X143139342Y-108688094D02*
X143234580Y-108640475D01*
X143234580Y-108640475D02*
X143282200Y-108592856D01*
X143282200Y-108592856D02*
X143329819Y-108497618D01*
X143329819Y-108497618D02*
X143329819Y-108307142D01*
X143329819Y-108307142D02*
X143282200Y-108211904D01*
X143282200Y-108211904D02*
X143234580Y-108164285D01*
X143234580Y-108164285D02*
X143139342Y-108116666D01*
X143139342Y-108116666D02*
X142329819Y-108116666D01*
X143282200Y-107688094D02*
X143329819Y-107545237D01*
X143329819Y-107545237D02*
X143329819Y-107307142D01*
X143329819Y-107307142D02*
X143282200Y-107211904D01*
X143282200Y-107211904D02*
X143234580Y-107164285D01*
X143234580Y-107164285D02*
X143139342Y-107116666D01*
X143139342Y-107116666D02*
X143044104Y-107116666D01*
X143044104Y-107116666D02*
X142948866Y-107164285D01*
X142948866Y-107164285D02*
X142901247Y-107211904D01*
X142901247Y-107211904D02*
X142853628Y-107307142D01*
X142853628Y-107307142D02*
X142806009Y-107497618D01*
X142806009Y-107497618D02*
X142758390Y-107592856D01*
X142758390Y-107592856D02*
X142710771Y-107640475D01*
X142710771Y-107640475D02*
X142615533Y-107688094D01*
X142615533Y-107688094D02*
X142520295Y-107688094D01*
X142520295Y-107688094D02*
X142425057Y-107640475D01*
X142425057Y-107640475D02*
X142377438Y-107592856D01*
X142377438Y-107592856D02*
X142329819Y-107497618D01*
X142329819Y-107497618D02*
X142329819Y-107259523D01*
X142329819Y-107259523D02*
X142377438Y-107116666D01*
X142806009Y-106354761D02*
X142853628Y-106211904D01*
X142853628Y-106211904D02*
X142901247Y-106164285D01*
X142901247Y-106164285D02*
X142996485Y-106116666D01*
X142996485Y-106116666D02*
X143139342Y-106116666D01*
X143139342Y-106116666D02*
X143234580Y-106164285D01*
X143234580Y-106164285D02*
X143282200Y-106211904D01*
X143282200Y-106211904D02*
X143329819Y-106307142D01*
X143329819Y-106307142D02*
X143329819Y-106688094D01*
X143329819Y-106688094D02*
X142329819Y-106688094D01*
X142329819Y-106688094D02*
X142329819Y-106354761D01*
X142329819Y-106354761D02*
X142377438Y-106259523D01*
X142377438Y-106259523D02*
X142425057Y-106211904D01*
X142425057Y-106211904D02*
X142520295Y-106164285D01*
X142520295Y-106164285D02*
X142615533Y-106164285D01*
X142615533Y-106164285D02*
X142710771Y-106211904D01*
X142710771Y-106211904D02*
X142758390Y-106259523D01*
X142758390Y-106259523D02*
X142806009Y-106354761D01*
X142806009Y-106354761D02*
X142806009Y-106688094D01*
X143425057Y-105926190D02*
X143425057Y-105164285D01*
X143329819Y-104926189D02*
X142329819Y-104926189D01*
X142329819Y-104926189D02*
X142329819Y-104688094D01*
X142329819Y-104688094D02*
X142377438Y-104545237D01*
X142377438Y-104545237D02*
X142472676Y-104449999D01*
X142472676Y-104449999D02*
X142567914Y-104402380D01*
X142567914Y-104402380D02*
X142758390Y-104354761D01*
X142758390Y-104354761D02*
X142901247Y-104354761D01*
X142901247Y-104354761D02*
X143091723Y-104402380D01*
X143091723Y-104402380D02*
X143186961Y-104449999D01*
X143186961Y-104449999D02*
X143282200Y-104545237D01*
X143282200Y-104545237D02*
X143329819Y-104688094D01*
X143329819Y-104688094D02*
X143329819Y-104926189D01*
X142948866Y-103926189D02*
X142948866Y-103164285D01*
X143329819Y-103545237D02*
X142567914Y-103545237D01*
X143329819Y-102164285D02*
X143329819Y-102735713D01*
X143329819Y-102449999D02*
X142329819Y-102449999D01*
X142329819Y-102449999D02*
X142472676Y-102545237D01*
X142472676Y-102545237D02*
X142567914Y-102640475D01*
X142567914Y-102640475D02*
X142615533Y-102735713D01*
X186758333Y-115059580D02*
X186710714Y-115107200D01*
X186710714Y-115107200D02*
X186567857Y-115154819D01*
X186567857Y-115154819D02*
X186472619Y-115154819D01*
X186472619Y-115154819D02*
X186329762Y-115107200D01*
X186329762Y-115107200D02*
X186234524Y-115011961D01*
X186234524Y-115011961D02*
X186186905Y-114916723D01*
X186186905Y-114916723D02*
X186139286Y-114726247D01*
X186139286Y-114726247D02*
X186139286Y-114583390D01*
X186139286Y-114583390D02*
X186186905Y-114392914D01*
X186186905Y-114392914D02*
X186234524Y-114297676D01*
X186234524Y-114297676D02*
X186329762Y-114202438D01*
X186329762Y-114202438D02*
X186472619Y-114154819D01*
X186472619Y-114154819D02*
X186567857Y-114154819D01*
X186567857Y-114154819D02*
X186710714Y-114202438D01*
X186710714Y-114202438D02*
X186758333Y-114250057D01*
X187091667Y-114154819D02*
X187758333Y-114154819D01*
X187758333Y-114154819D02*
X187329762Y-115154819D01*
X103501666Y-101284819D02*
X103501666Y-101999104D01*
X103501666Y-101999104D02*
X103454047Y-102141961D01*
X103454047Y-102141961D02*
X103358809Y-102237200D01*
X103358809Y-102237200D02*
X103215952Y-102284819D01*
X103215952Y-102284819D02*
X103120714Y-102284819D01*
X103882619Y-101284819D02*
X104501666Y-101284819D01*
X104501666Y-101284819D02*
X104168333Y-101665771D01*
X104168333Y-101665771D02*
X104311190Y-101665771D01*
X104311190Y-101665771D02*
X104406428Y-101713390D01*
X104406428Y-101713390D02*
X104454047Y-101761009D01*
X104454047Y-101761009D02*
X104501666Y-101856247D01*
X104501666Y-101856247D02*
X104501666Y-102094342D01*
X104501666Y-102094342D02*
X104454047Y-102189580D01*
X104454047Y-102189580D02*
X104406428Y-102237200D01*
X104406428Y-102237200D02*
X104311190Y-102284819D01*
X104311190Y-102284819D02*
X104025476Y-102284819D01*
X104025476Y-102284819D02*
X103930238Y-102237200D01*
X103930238Y-102237200D02*
X103882619Y-102189580D01*
X172020833Y-141154819D02*
X171687500Y-140678628D01*
X171449405Y-141154819D02*
X171449405Y-140154819D01*
X171449405Y-140154819D02*
X171830357Y-140154819D01*
X171830357Y-140154819D02*
X171925595Y-140202438D01*
X171925595Y-140202438D02*
X171973214Y-140250057D01*
X171973214Y-140250057D02*
X172020833Y-140345295D01*
X172020833Y-140345295D02*
X172020833Y-140488152D01*
X172020833Y-140488152D02*
X171973214Y-140583390D01*
X171973214Y-140583390D02*
X171925595Y-140631009D01*
X171925595Y-140631009D02*
X171830357Y-140678628D01*
X171830357Y-140678628D02*
X171449405Y-140678628D01*
X172925595Y-140154819D02*
X172449405Y-140154819D01*
X172449405Y-140154819D02*
X172401786Y-140631009D01*
X172401786Y-140631009D02*
X172449405Y-140583390D01*
X172449405Y-140583390D02*
X172544643Y-140535771D01*
X172544643Y-140535771D02*
X172782738Y-140535771D01*
X172782738Y-140535771D02*
X172877976Y-140583390D01*
X172877976Y-140583390D02*
X172925595Y-140631009D01*
X172925595Y-140631009D02*
X172973214Y-140726247D01*
X172973214Y-140726247D02*
X172973214Y-140964342D01*
X172973214Y-140964342D02*
X172925595Y-141059580D01*
X172925595Y-141059580D02*
X172877976Y-141107200D01*
X172877976Y-141107200D02*
X172782738Y-141154819D01*
X172782738Y-141154819D02*
X172544643Y-141154819D01*
X172544643Y-141154819D02*
X172449405Y-141107200D01*
X172449405Y-141107200D02*
X172401786Y-141059580D01*
X178565833Y-114244580D02*
X178518214Y-114292200D01*
X178518214Y-114292200D02*
X178375357Y-114339819D01*
X178375357Y-114339819D02*
X178280119Y-114339819D01*
X178280119Y-114339819D02*
X178137262Y-114292200D01*
X178137262Y-114292200D02*
X178042024Y-114196961D01*
X178042024Y-114196961D02*
X177994405Y-114101723D01*
X177994405Y-114101723D02*
X177946786Y-113911247D01*
X177946786Y-113911247D02*
X177946786Y-113768390D01*
X177946786Y-113768390D02*
X177994405Y-113577914D01*
X177994405Y-113577914D02*
X178042024Y-113482676D01*
X178042024Y-113482676D02*
X178137262Y-113387438D01*
X178137262Y-113387438D02*
X178280119Y-113339819D01*
X178280119Y-113339819D02*
X178375357Y-113339819D01*
X178375357Y-113339819D02*
X178518214Y-113387438D01*
X178518214Y-113387438D02*
X178565833Y-113435057D01*
X178899167Y-113339819D02*
X179518214Y-113339819D01*
X179518214Y-113339819D02*
X179184881Y-113720771D01*
X179184881Y-113720771D02*
X179327738Y-113720771D01*
X179327738Y-113720771D02*
X179422976Y-113768390D01*
X179422976Y-113768390D02*
X179470595Y-113816009D01*
X179470595Y-113816009D02*
X179518214Y-113911247D01*
X179518214Y-113911247D02*
X179518214Y-114149342D01*
X179518214Y-114149342D02*
X179470595Y-114244580D01*
X179470595Y-114244580D02*
X179422976Y-114292200D01*
X179422976Y-114292200D02*
X179327738Y-114339819D01*
X179327738Y-114339819D02*
X179042024Y-114339819D01*
X179042024Y-114339819D02*
X178946786Y-114292200D01*
X178946786Y-114292200D02*
X178899167Y-114244580D01*
X136589285Y-50981009D02*
X136732142Y-51028628D01*
X136732142Y-51028628D02*
X136779761Y-51076247D01*
X136779761Y-51076247D02*
X136827380Y-51171485D01*
X136827380Y-51171485D02*
X136827380Y-51314342D01*
X136827380Y-51314342D02*
X136779761Y-51409580D01*
X136779761Y-51409580D02*
X136732142Y-51457200D01*
X136732142Y-51457200D02*
X136636904Y-51504819D01*
X136636904Y-51504819D02*
X136255952Y-51504819D01*
X136255952Y-51504819D02*
X136255952Y-50504819D01*
X136255952Y-50504819D02*
X136589285Y-50504819D01*
X136589285Y-50504819D02*
X136684523Y-50552438D01*
X136684523Y-50552438D02*
X136732142Y-50600057D01*
X136732142Y-50600057D02*
X136779761Y-50695295D01*
X136779761Y-50695295D02*
X136779761Y-50790533D01*
X136779761Y-50790533D02*
X136732142Y-50885771D01*
X136732142Y-50885771D02*
X136684523Y-50933390D01*
X136684523Y-50933390D02*
X136589285Y-50981009D01*
X136589285Y-50981009D02*
X136255952Y-50981009D01*
X137113095Y-50504819D02*
X137684523Y-50504819D01*
X137398809Y-51504819D02*
X137398809Y-50504819D01*
X138541666Y-51504819D02*
X137970238Y-51504819D01*
X138255952Y-51504819D02*
X138255952Y-50504819D01*
X138255952Y-50504819D02*
X138160714Y-50647676D01*
X138160714Y-50647676D02*
X138065476Y-50742914D01*
X138065476Y-50742914D02*
X137970238Y-50790533D01*
X131532142Y-61637200D02*
X133817857Y-61637200D01*
X132674999Y-62780057D02*
X132674999Y-60494342D01*
X109498809Y-70753628D02*
X109498809Y-71229819D01*
X109165476Y-70229819D02*
X109498809Y-70753628D01*
X109498809Y-70753628D02*
X109832142Y-70229819D01*
X110689285Y-71229819D02*
X110117857Y-71229819D01*
X110403571Y-71229819D02*
X110403571Y-70229819D01*
X110403571Y-70229819D02*
X110308333Y-70372676D01*
X110308333Y-70372676D02*
X110213095Y-70467914D01*
X110213095Y-70467914D02*
X110117857Y-70515533D01*
X108694642Y-77879819D02*
X108361309Y-77403628D01*
X108123214Y-77879819D02*
X108123214Y-76879819D01*
X108123214Y-76879819D02*
X108504166Y-76879819D01*
X108504166Y-76879819D02*
X108599404Y-76927438D01*
X108599404Y-76927438D02*
X108647023Y-76975057D01*
X108647023Y-76975057D02*
X108694642Y-77070295D01*
X108694642Y-77070295D02*
X108694642Y-77213152D01*
X108694642Y-77213152D02*
X108647023Y-77308390D01*
X108647023Y-77308390D02*
X108599404Y-77356009D01*
X108599404Y-77356009D02*
X108504166Y-77403628D01*
X108504166Y-77403628D02*
X108123214Y-77403628D01*
X109647023Y-77879819D02*
X109075595Y-77879819D01*
X109361309Y-77879819D02*
X109361309Y-76879819D01*
X109361309Y-76879819D02*
X109266071Y-77022676D01*
X109266071Y-77022676D02*
X109170833Y-77117914D01*
X109170833Y-77117914D02*
X109075595Y-77165533D01*
X110504166Y-76879819D02*
X110313690Y-76879819D01*
X110313690Y-76879819D02*
X110218452Y-76927438D01*
X110218452Y-76927438D02*
X110170833Y-76975057D01*
X110170833Y-76975057D02*
X110075595Y-77117914D01*
X110075595Y-77117914D02*
X110027976Y-77308390D01*
X110027976Y-77308390D02*
X110027976Y-77689342D01*
X110027976Y-77689342D02*
X110075595Y-77784580D01*
X110075595Y-77784580D02*
X110123214Y-77832200D01*
X110123214Y-77832200D02*
X110218452Y-77879819D01*
X110218452Y-77879819D02*
X110408928Y-77879819D01*
X110408928Y-77879819D02*
X110504166Y-77832200D01*
X110504166Y-77832200D02*
X110551785Y-77784580D01*
X110551785Y-77784580D02*
X110599404Y-77689342D01*
X110599404Y-77689342D02*
X110599404Y-77451247D01*
X110599404Y-77451247D02*
X110551785Y-77356009D01*
X110551785Y-77356009D02*
X110504166Y-77308390D01*
X110504166Y-77308390D02*
X110408928Y-77260771D01*
X110408928Y-77260771D02*
X110218452Y-77260771D01*
X110218452Y-77260771D02*
X110123214Y-77308390D01*
X110123214Y-77308390D02*
X110075595Y-77356009D01*
X110075595Y-77356009D02*
X110027976Y-77451247D01*
X107820833Y-62204819D02*
X107487500Y-61728628D01*
X107249405Y-62204819D02*
X107249405Y-61204819D01*
X107249405Y-61204819D02*
X107630357Y-61204819D01*
X107630357Y-61204819D02*
X107725595Y-61252438D01*
X107725595Y-61252438D02*
X107773214Y-61300057D01*
X107773214Y-61300057D02*
X107820833Y-61395295D01*
X107820833Y-61395295D02*
X107820833Y-61538152D01*
X107820833Y-61538152D02*
X107773214Y-61633390D01*
X107773214Y-61633390D02*
X107725595Y-61681009D01*
X107725595Y-61681009D02*
X107630357Y-61728628D01*
X107630357Y-61728628D02*
X107249405Y-61728628D01*
X108201786Y-61300057D02*
X108249405Y-61252438D01*
X108249405Y-61252438D02*
X108344643Y-61204819D01*
X108344643Y-61204819D02*
X108582738Y-61204819D01*
X108582738Y-61204819D02*
X108677976Y-61252438D01*
X108677976Y-61252438D02*
X108725595Y-61300057D01*
X108725595Y-61300057D02*
X108773214Y-61395295D01*
X108773214Y-61395295D02*
X108773214Y-61490533D01*
X108773214Y-61490533D02*
X108725595Y-61633390D01*
X108725595Y-61633390D02*
X108154167Y-62204819D01*
X108154167Y-62204819D02*
X108773214Y-62204819D01*
X102429819Y-59679166D02*
X101953628Y-60012499D01*
X102429819Y-60250594D02*
X101429819Y-60250594D01*
X101429819Y-60250594D02*
X101429819Y-59869642D01*
X101429819Y-59869642D02*
X101477438Y-59774404D01*
X101477438Y-59774404D02*
X101525057Y-59726785D01*
X101525057Y-59726785D02*
X101620295Y-59679166D01*
X101620295Y-59679166D02*
X101763152Y-59679166D01*
X101763152Y-59679166D02*
X101858390Y-59726785D01*
X101858390Y-59726785D02*
X101906009Y-59774404D01*
X101906009Y-59774404D02*
X101953628Y-59869642D01*
X101953628Y-59869642D02*
X101953628Y-60250594D01*
X101763152Y-58822023D02*
X102429819Y-58822023D01*
X101382200Y-59060118D02*
X102096485Y-59298213D01*
X102096485Y-59298213D02*
X102096485Y-58679166D01*
X123704819Y-68980357D02*
X123228628Y-69313690D01*
X123704819Y-69551785D02*
X122704819Y-69551785D01*
X122704819Y-69551785D02*
X122704819Y-69170833D01*
X122704819Y-69170833D02*
X122752438Y-69075595D01*
X122752438Y-69075595D02*
X122800057Y-69027976D01*
X122800057Y-69027976D02*
X122895295Y-68980357D01*
X122895295Y-68980357D02*
X123038152Y-68980357D01*
X123038152Y-68980357D02*
X123133390Y-69027976D01*
X123133390Y-69027976D02*
X123181009Y-69075595D01*
X123181009Y-69075595D02*
X123228628Y-69170833D01*
X123228628Y-69170833D02*
X123228628Y-69551785D01*
X123704819Y-68027976D02*
X123704819Y-68599404D01*
X123704819Y-68313690D02*
X122704819Y-68313690D01*
X122704819Y-68313690D02*
X122847676Y-68408928D01*
X122847676Y-68408928D02*
X122942914Y-68504166D01*
X122942914Y-68504166D02*
X122990533Y-68599404D01*
X123038152Y-67170833D02*
X123704819Y-67170833D01*
X122657200Y-67408928D02*
X123371485Y-67647023D01*
X123371485Y-67647023D02*
X123371485Y-67027976D01*
X152904819Y-105261904D02*
X152904819Y-104690476D01*
X153904819Y-104976190D02*
X152904819Y-104976190D01*
X153904819Y-104357142D02*
X152904819Y-104357142D01*
X152904819Y-104357142D02*
X152904819Y-103976190D01*
X152904819Y-103976190D02*
X152952438Y-103880952D01*
X152952438Y-103880952D02*
X153000057Y-103833333D01*
X153000057Y-103833333D02*
X153095295Y-103785714D01*
X153095295Y-103785714D02*
X153238152Y-103785714D01*
X153238152Y-103785714D02*
X153333390Y-103833333D01*
X153333390Y-103833333D02*
X153381009Y-103880952D01*
X153381009Y-103880952D02*
X153428628Y-103976190D01*
X153428628Y-103976190D02*
X153428628Y-104357142D01*
X153904819Y-102833333D02*
X153904819Y-103404761D01*
X153904819Y-103119047D02*
X152904819Y-103119047D01*
X152904819Y-103119047D02*
X153047676Y-103214285D01*
X153047676Y-103214285D02*
X153142914Y-103309523D01*
X153142914Y-103309523D02*
X153190533Y-103404761D01*
X172790833Y-107119580D02*
X172743214Y-107167200D01*
X172743214Y-107167200D02*
X172600357Y-107214819D01*
X172600357Y-107214819D02*
X172505119Y-107214819D01*
X172505119Y-107214819D02*
X172362262Y-107167200D01*
X172362262Y-107167200D02*
X172267024Y-107071961D01*
X172267024Y-107071961D02*
X172219405Y-106976723D01*
X172219405Y-106976723D02*
X172171786Y-106786247D01*
X172171786Y-106786247D02*
X172171786Y-106643390D01*
X172171786Y-106643390D02*
X172219405Y-106452914D01*
X172219405Y-106452914D02*
X172267024Y-106357676D01*
X172267024Y-106357676D02*
X172362262Y-106262438D01*
X172362262Y-106262438D02*
X172505119Y-106214819D01*
X172505119Y-106214819D02*
X172600357Y-106214819D01*
X172600357Y-106214819D02*
X172743214Y-106262438D01*
X172743214Y-106262438D02*
X172790833Y-106310057D01*
X173647976Y-106548152D02*
X173647976Y-107214819D01*
X173409881Y-106167200D02*
X173171786Y-106881485D01*
X173171786Y-106881485D02*
X173790833Y-106881485D01*
X152779819Y-117136904D02*
X152779819Y-116565476D01*
X153779819Y-116851190D02*
X152779819Y-116851190D01*
X153779819Y-116232142D02*
X152779819Y-116232142D01*
X152779819Y-116232142D02*
X152779819Y-115851190D01*
X152779819Y-115851190D02*
X152827438Y-115755952D01*
X152827438Y-115755952D02*
X152875057Y-115708333D01*
X152875057Y-115708333D02*
X152970295Y-115660714D01*
X152970295Y-115660714D02*
X153113152Y-115660714D01*
X153113152Y-115660714D02*
X153208390Y-115708333D01*
X153208390Y-115708333D02*
X153256009Y-115755952D01*
X153256009Y-115755952D02*
X153303628Y-115851190D01*
X153303628Y-115851190D02*
X153303628Y-116232142D01*
X153113152Y-114803571D02*
X153779819Y-114803571D01*
X152732200Y-115041666D02*
X153446485Y-115279761D01*
X153446485Y-115279761D02*
X153446485Y-114660714D01*
X146529819Y-136755357D02*
X146053628Y-137088690D01*
X146529819Y-137326785D02*
X145529819Y-137326785D01*
X145529819Y-137326785D02*
X145529819Y-136945833D01*
X145529819Y-136945833D02*
X145577438Y-136850595D01*
X145577438Y-136850595D02*
X145625057Y-136802976D01*
X145625057Y-136802976D02*
X145720295Y-136755357D01*
X145720295Y-136755357D02*
X145863152Y-136755357D01*
X145863152Y-136755357D02*
X145958390Y-136802976D01*
X145958390Y-136802976D02*
X146006009Y-136850595D01*
X146006009Y-136850595D02*
X146053628Y-136945833D01*
X146053628Y-136945833D02*
X146053628Y-137326785D01*
X146529819Y-135802976D02*
X146529819Y-136374404D01*
X146529819Y-136088690D02*
X145529819Y-136088690D01*
X145529819Y-136088690D02*
X145672676Y-136183928D01*
X145672676Y-136183928D02*
X145767914Y-136279166D01*
X145767914Y-136279166D02*
X145815533Y-136374404D01*
X145958390Y-135231547D02*
X145910771Y-135326785D01*
X145910771Y-135326785D02*
X145863152Y-135374404D01*
X145863152Y-135374404D02*
X145767914Y-135422023D01*
X145767914Y-135422023D02*
X145720295Y-135422023D01*
X145720295Y-135422023D02*
X145625057Y-135374404D01*
X145625057Y-135374404D02*
X145577438Y-135326785D01*
X145577438Y-135326785D02*
X145529819Y-135231547D01*
X145529819Y-135231547D02*
X145529819Y-135041071D01*
X145529819Y-135041071D02*
X145577438Y-134945833D01*
X145577438Y-134945833D02*
X145625057Y-134898214D01*
X145625057Y-134898214D02*
X145720295Y-134850595D01*
X145720295Y-134850595D02*
X145767914Y-134850595D01*
X145767914Y-134850595D02*
X145863152Y-134898214D01*
X145863152Y-134898214D02*
X145910771Y-134945833D01*
X145910771Y-134945833D02*
X145958390Y-135041071D01*
X145958390Y-135041071D02*
X145958390Y-135231547D01*
X145958390Y-135231547D02*
X146006009Y-135326785D01*
X146006009Y-135326785D02*
X146053628Y-135374404D01*
X146053628Y-135374404D02*
X146148866Y-135422023D01*
X146148866Y-135422023D02*
X146339342Y-135422023D01*
X146339342Y-135422023D02*
X146434580Y-135374404D01*
X146434580Y-135374404D02*
X146482200Y-135326785D01*
X146482200Y-135326785D02*
X146529819Y-135231547D01*
X146529819Y-135231547D02*
X146529819Y-135041071D01*
X146529819Y-135041071D02*
X146482200Y-134945833D01*
X146482200Y-134945833D02*
X146434580Y-134898214D01*
X146434580Y-134898214D02*
X146339342Y-134850595D01*
X146339342Y-134850595D02*
X146148866Y-134850595D01*
X146148866Y-134850595D02*
X146053628Y-134898214D01*
X146053628Y-134898214D02*
X146006009Y-134945833D01*
X146006009Y-134945833D02*
X145958390Y-135041071D01*
X108395833Y-120129819D02*
X108062500Y-119653628D01*
X107824405Y-120129819D02*
X107824405Y-119129819D01*
X107824405Y-119129819D02*
X108205357Y-119129819D01*
X108205357Y-119129819D02*
X108300595Y-119177438D01*
X108300595Y-119177438D02*
X108348214Y-119225057D01*
X108348214Y-119225057D02*
X108395833Y-119320295D01*
X108395833Y-119320295D02*
X108395833Y-119463152D01*
X108395833Y-119463152D02*
X108348214Y-119558390D01*
X108348214Y-119558390D02*
X108300595Y-119606009D01*
X108300595Y-119606009D02*
X108205357Y-119653628D01*
X108205357Y-119653628D02*
X107824405Y-119653628D01*
X109252976Y-119129819D02*
X109062500Y-119129819D01*
X109062500Y-119129819D02*
X108967262Y-119177438D01*
X108967262Y-119177438D02*
X108919643Y-119225057D01*
X108919643Y-119225057D02*
X108824405Y-119367914D01*
X108824405Y-119367914D02*
X108776786Y-119558390D01*
X108776786Y-119558390D02*
X108776786Y-119939342D01*
X108776786Y-119939342D02*
X108824405Y-120034580D01*
X108824405Y-120034580D02*
X108872024Y-120082200D01*
X108872024Y-120082200D02*
X108967262Y-120129819D01*
X108967262Y-120129819D02*
X109157738Y-120129819D01*
X109157738Y-120129819D02*
X109252976Y-120082200D01*
X109252976Y-120082200D02*
X109300595Y-120034580D01*
X109300595Y-120034580D02*
X109348214Y-119939342D01*
X109348214Y-119939342D02*
X109348214Y-119701247D01*
X109348214Y-119701247D02*
X109300595Y-119606009D01*
X109300595Y-119606009D02*
X109252976Y-119558390D01*
X109252976Y-119558390D02*
X109157738Y-119510771D01*
X109157738Y-119510771D02*
X108967262Y-119510771D01*
X108967262Y-119510771D02*
X108872024Y-119558390D01*
X108872024Y-119558390D02*
X108824405Y-119606009D01*
X108824405Y-119606009D02*
X108776786Y-119701247D01*
X175115476Y-122529819D02*
X174639286Y-122529819D01*
X174639286Y-122529819D02*
X174639286Y-121529819D01*
X175448810Y-122529819D02*
X175448810Y-121529819D01*
X175448810Y-121529819D02*
X175686905Y-121529819D01*
X175686905Y-121529819D02*
X175829762Y-121577438D01*
X175829762Y-121577438D02*
X175925000Y-121672676D01*
X175925000Y-121672676D02*
X175972619Y-121767914D01*
X175972619Y-121767914D02*
X176020238Y-121958390D01*
X176020238Y-121958390D02*
X176020238Y-122101247D01*
X176020238Y-122101247D02*
X175972619Y-122291723D01*
X175972619Y-122291723D02*
X175925000Y-122386961D01*
X175925000Y-122386961D02*
X175829762Y-122482200D01*
X175829762Y-122482200D02*
X175686905Y-122529819D01*
X175686905Y-122529819D02*
X175448810Y-122529819D01*
X176639286Y-121529819D02*
X176829762Y-121529819D01*
X176829762Y-121529819D02*
X176925000Y-121577438D01*
X176925000Y-121577438D02*
X177020238Y-121672676D01*
X177020238Y-121672676D02*
X177067857Y-121863152D01*
X177067857Y-121863152D02*
X177067857Y-122196485D01*
X177067857Y-122196485D02*
X177020238Y-122386961D01*
X177020238Y-122386961D02*
X176925000Y-122482200D01*
X176925000Y-122482200D02*
X176829762Y-122529819D01*
X176829762Y-122529819D02*
X176639286Y-122529819D01*
X176639286Y-122529819D02*
X176544048Y-122482200D01*
X176544048Y-122482200D02*
X176448810Y-122386961D01*
X176448810Y-122386961D02*
X176401191Y-122196485D01*
X176401191Y-122196485D02*
X176401191Y-121863152D01*
X176401191Y-121863152D02*
X176448810Y-121672676D01*
X176448810Y-121672676D02*
X176544048Y-121577438D01*
X176544048Y-121577438D02*
X176639286Y-121529819D01*
X178020238Y-122529819D02*
X177448810Y-122529819D01*
X177734524Y-122529819D02*
X177734524Y-121529819D01*
X177734524Y-121529819D02*
X177639286Y-121672676D01*
X177639286Y-121672676D02*
X177544048Y-121767914D01*
X177544048Y-121767914D02*
X177448810Y-121815533D01*
X178448810Y-122434580D02*
X178496429Y-122482200D01*
X178496429Y-122482200D02*
X178448810Y-122529819D01*
X178448810Y-122529819D02*
X178401191Y-122482200D01*
X178401191Y-122482200D02*
X178448810Y-122434580D01*
X178448810Y-122434580D02*
X178448810Y-122529819D01*
X179067857Y-121958390D02*
X178972619Y-121910771D01*
X178972619Y-121910771D02*
X178925000Y-121863152D01*
X178925000Y-121863152D02*
X178877381Y-121767914D01*
X178877381Y-121767914D02*
X178877381Y-121720295D01*
X178877381Y-121720295D02*
X178925000Y-121625057D01*
X178925000Y-121625057D02*
X178972619Y-121577438D01*
X178972619Y-121577438D02*
X179067857Y-121529819D01*
X179067857Y-121529819D02*
X179258333Y-121529819D01*
X179258333Y-121529819D02*
X179353571Y-121577438D01*
X179353571Y-121577438D02*
X179401190Y-121625057D01*
X179401190Y-121625057D02*
X179448809Y-121720295D01*
X179448809Y-121720295D02*
X179448809Y-121767914D01*
X179448809Y-121767914D02*
X179401190Y-121863152D01*
X179401190Y-121863152D02*
X179353571Y-121910771D01*
X179353571Y-121910771D02*
X179258333Y-121958390D01*
X179258333Y-121958390D02*
X179067857Y-121958390D01*
X179067857Y-121958390D02*
X178972619Y-122006009D01*
X178972619Y-122006009D02*
X178925000Y-122053628D01*
X178925000Y-122053628D02*
X178877381Y-122148866D01*
X178877381Y-122148866D02*
X178877381Y-122339342D01*
X178877381Y-122339342D02*
X178925000Y-122434580D01*
X178925000Y-122434580D02*
X178972619Y-122482200D01*
X178972619Y-122482200D02*
X179067857Y-122529819D01*
X179067857Y-122529819D02*
X179258333Y-122529819D01*
X179258333Y-122529819D02*
X179353571Y-122482200D01*
X179353571Y-122482200D02*
X179401190Y-122434580D01*
X179401190Y-122434580D02*
X179448809Y-122339342D01*
X179448809Y-122339342D02*
X179448809Y-122148866D01*
X179448809Y-122148866D02*
X179401190Y-122053628D01*
X179401190Y-122053628D02*
X179353571Y-122006009D01*
X179353571Y-122006009D02*
X179258333Y-121958390D01*
X179734524Y-121529819D02*
X180067857Y-122529819D01*
X180067857Y-122529819D02*
X180401190Y-121529819D01*
X181258333Y-122529819D02*
X180686905Y-122529819D01*
X180972619Y-122529819D02*
X180972619Y-121529819D01*
X180972619Y-121529819D02*
X180877381Y-121672676D01*
X180877381Y-121672676D02*
X180782143Y-121767914D01*
X180782143Y-121767914D02*
X180686905Y-121815533D01*
X174188095Y-141154819D02*
X174188095Y-141964342D01*
X174188095Y-141964342D02*
X174235714Y-142059580D01*
X174235714Y-142059580D02*
X174283333Y-142107200D01*
X174283333Y-142107200D02*
X174378571Y-142154819D01*
X174378571Y-142154819D02*
X174569047Y-142154819D01*
X174569047Y-142154819D02*
X174664285Y-142107200D01*
X174664285Y-142107200D02*
X174711904Y-142059580D01*
X174711904Y-142059580D02*
X174759523Y-141964342D01*
X174759523Y-141964342D02*
X174759523Y-141154819D01*
X175188095Y-141250057D02*
X175235714Y-141202438D01*
X175235714Y-141202438D02*
X175330952Y-141154819D01*
X175330952Y-141154819D02*
X175569047Y-141154819D01*
X175569047Y-141154819D02*
X175664285Y-141202438D01*
X175664285Y-141202438D02*
X175711904Y-141250057D01*
X175711904Y-141250057D02*
X175759523Y-141345295D01*
X175759523Y-141345295D02*
X175759523Y-141440533D01*
X175759523Y-141440533D02*
X175711904Y-141583390D01*
X175711904Y-141583390D02*
X175140476Y-142154819D01*
X175140476Y-142154819D02*
X175759523Y-142154819D01*
X127379819Y-69080357D02*
X126903628Y-69413690D01*
X127379819Y-69651785D02*
X126379819Y-69651785D01*
X126379819Y-69651785D02*
X126379819Y-69270833D01*
X126379819Y-69270833D02*
X126427438Y-69175595D01*
X126427438Y-69175595D02*
X126475057Y-69127976D01*
X126475057Y-69127976D02*
X126570295Y-69080357D01*
X126570295Y-69080357D02*
X126713152Y-69080357D01*
X126713152Y-69080357D02*
X126808390Y-69127976D01*
X126808390Y-69127976D02*
X126856009Y-69175595D01*
X126856009Y-69175595D02*
X126903628Y-69270833D01*
X126903628Y-69270833D02*
X126903628Y-69651785D01*
X127379819Y-68127976D02*
X127379819Y-68699404D01*
X127379819Y-68413690D02*
X126379819Y-68413690D01*
X126379819Y-68413690D02*
X126522676Y-68508928D01*
X126522676Y-68508928D02*
X126617914Y-68604166D01*
X126617914Y-68604166D02*
X126665533Y-68699404D01*
X126475057Y-67747023D02*
X126427438Y-67699404D01*
X126427438Y-67699404D02*
X126379819Y-67604166D01*
X126379819Y-67604166D02*
X126379819Y-67366071D01*
X126379819Y-67366071D02*
X126427438Y-67270833D01*
X126427438Y-67270833D02*
X126475057Y-67223214D01*
X126475057Y-67223214D02*
X126570295Y-67175595D01*
X126570295Y-67175595D02*
X126665533Y-67175595D01*
X126665533Y-67175595D02*
X126808390Y-67223214D01*
X126808390Y-67223214D02*
X127379819Y-67794642D01*
X127379819Y-67794642D02*
X127379819Y-67175595D01*
X102320833Y-115979819D02*
X101987500Y-115503628D01*
X101749405Y-115979819D02*
X101749405Y-114979819D01*
X101749405Y-114979819D02*
X102130357Y-114979819D01*
X102130357Y-114979819D02*
X102225595Y-115027438D01*
X102225595Y-115027438D02*
X102273214Y-115075057D01*
X102273214Y-115075057D02*
X102320833Y-115170295D01*
X102320833Y-115170295D02*
X102320833Y-115313152D01*
X102320833Y-115313152D02*
X102273214Y-115408390D01*
X102273214Y-115408390D02*
X102225595Y-115456009D01*
X102225595Y-115456009D02*
X102130357Y-115503628D01*
X102130357Y-115503628D02*
X101749405Y-115503628D01*
X102654167Y-114979819D02*
X103320833Y-114979819D01*
X103320833Y-114979819D02*
X102892262Y-115979819D01*
X114944819Y-107015357D02*
X114468628Y-107348690D01*
X114944819Y-107586785D02*
X113944819Y-107586785D01*
X113944819Y-107586785D02*
X113944819Y-107205833D01*
X113944819Y-107205833D02*
X113992438Y-107110595D01*
X113992438Y-107110595D02*
X114040057Y-107062976D01*
X114040057Y-107062976D02*
X114135295Y-107015357D01*
X114135295Y-107015357D02*
X114278152Y-107015357D01*
X114278152Y-107015357D02*
X114373390Y-107062976D01*
X114373390Y-107062976D02*
X114421009Y-107110595D01*
X114421009Y-107110595D02*
X114468628Y-107205833D01*
X114468628Y-107205833D02*
X114468628Y-107586785D01*
X114944819Y-106062976D02*
X114944819Y-106634404D01*
X114944819Y-106348690D02*
X113944819Y-106348690D01*
X113944819Y-106348690D02*
X114087676Y-106443928D01*
X114087676Y-106443928D02*
X114182914Y-106539166D01*
X114182914Y-106539166D02*
X114230533Y-106634404D01*
X113944819Y-105443928D02*
X113944819Y-105348690D01*
X113944819Y-105348690D02*
X113992438Y-105253452D01*
X113992438Y-105253452D02*
X114040057Y-105205833D01*
X114040057Y-105205833D02*
X114135295Y-105158214D01*
X114135295Y-105158214D02*
X114325771Y-105110595D01*
X114325771Y-105110595D02*
X114563866Y-105110595D01*
X114563866Y-105110595D02*
X114754342Y-105158214D01*
X114754342Y-105158214D02*
X114849580Y-105205833D01*
X114849580Y-105205833D02*
X114897200Y-105253452D01*
X114897200Y-105253452D02*
X114944819Y-105348690D01*
X114944819Y-105348690D02*
X114944819Y-105443928D01*
X114944819Y-105443928D02*
X114897200Y-105539166D01*
X114897200Y-105539166D02*
X114849580Y-105586785D01*
X114849580Y-105586785D02*
X114754342Y-105634404D01*
X114754342Y-105634404D02*
X114563866Y-105682023D01*
X114563866Y-105682023D02*
X114325771Y-105682023D01*
X114325771Y-105682023D02*
X114135295Y-105634404D01*
X114135295Y-105634404D02*
X114040057Y-105586785D01*
X114040057Y-105586785D02*
X113992438Y-105539166D01*
X113992438Y-105539166D02*
X113944819Y-105443928D01*
X179884580Y-103705357D02*
X179932200Y-103752976D01*
X179932200Y-103752976D02*
X179979819Y-103895833D01*
X179979819Y-103895833D02*
X179979819Y-103991071D01*
X179979819Y-103991071D02*
X179932200Y-104133928D01*
X179932200Y-104133928D02*
X179836961Y-104229166D01*
X179836961Y-104229166D02*
X179741723Y-104276785D01*
X179741723Y-104276785D02*
X179551247Y-104324404D01*
X179551247Y-104324404D02*
X179408390Y-104324404D01*
X179408390Y-104324404D02*
X179217914Y-104276785D01*
X179217914Y-104276785D02*
X179122676Y-104229166D01*
X179122676Y-104229166D02*
X179027438Y-104133928D01*
X179027438Y-104133928D02*
X178979819Y-103991071D01*
X178979819Y-103991071D02*
X178979819Y-103895833D01*
X178979819Y-103895833D02*
X179027438Y-103752976D01*
X179027438Y-103752976D02*
X179075057Y-103705357D01*
X179075057Y-103324404D02*
X179027438Y-103276785D01*
X179027438Y-103276785D02*
X178979819Y-103181547D01*
X178979819Y-103181547D02*
X178979819Y-102943452D01*
X178979819Y-102943452D02*
X179027438Y-102848214D01*
X179027438Y-102848214D02*
X179075057Y-102800595D01*
X179075057Y-102800595D02*
X179170295Y-102752976D01*
X179170295Y-102752976D02*
X179265533Y-102752976D01*
X179265533Y-102752976D02*
X179408390Y-102800595D01*
X179408390Y-102800595D02*
X179979819Y-103372023D01*
X179979819Y-103372023D02*
X179979819Y-102752976D01*
X179313152Y-101895833D02*
X179979819Y-101895833D01*
X178932200Y-102133928D02*
X179646485Y-102372023D01*
X179646485Y-102372023D02*
X179646485Y-101752976D01*
X112011905Y-126829819D02*
X112011905Y-125829819D01*
X112011905Y-125829819D02*
X112250000Y-125829819D01*
X112250000Y-125829819D02*
X112392857Y-125877438D01*
X112392857Y-125877438D02*
X112488095Y-125972676D01*
X112488095Y-125972676D02*
X112535714Y-126067914D01*
X112535714Y-126067914D02*
X112583333Y-126258390D01*
X112583333Y-126258390D02*
X112583333Y-126401247D01*
X112583333Y-126401247D02*
X112535714Y-126591723D01*
X112535714Y-126591723D02*
X112488095Y-126686961D01*
X112488095Y-126686961D02*
X112392857Y-126782200D01*
X112392857Y-126782200D02*
X112250000Y-126829819D01*
X112250000Y-126829819D02*
X112011905Y-126829819D01*
X112964286Y-125925057D02*
X113011905Y-125877438D01*
X113011905Y-125877438D02*
X113107143Y-125829819D01*
X113107143Y-125829819D02*
X113345238Y-125829819D01*
X113345238Y-125829819D02*
X113440476Y-125877438D01*
X113440476Y-125877438D02*
X113488095Y-125925057D01*
X113488095Y-125925057D02*
X113535714Y-126020295D01*
X113535714Y-126020295D02*
X113535714Y-126115533D01*
X113535714Y-126115533D02*
X113488095Y-126258390D01*
X113488095Y-126258390D02*
X112916667Y-126829819D01*
X112916667Y-126829819D02*
X113535714Y-126829819D01*
X130869642Y-66009580D02*
X130822023Y-66057200D01*
X130822023Y-66057200D02*
X130679166Y-66104819D01*
X130679166Y-66104819D02*
X130583928Y-66104819D01*
X130583928Y-66104819D02*
X130441071Y-66057200D01*
X130441071Y-66057200D02*
X130345833Y-65961961D01*
X130345833Y-65961961D02*
X130298214Y-65866723D01*
X130298214Y-65866723D02*
X130250595Y-65676247D01*
X130250595Y-65676247D02*
X130250595Y-65533390D01*
X130250595Y-65533390D02*
X130298214Y-65342914D01*
X130298214Y-65342914D02*
X130345833Y-65247676D01*
X130345833Y-65247676D02*
X130441071Y-65152438D01*
X130441071Y-65152438D02*
X130583928Y-65104819D01*
X130583928Y-65104819D02*
X130679166Y-65104819D01*
X130679166Y-65104819D02*
X130822023Y-65152438D01*
X130822023Y-65152438D02*
X130869642Y-65200057D01*
X131250595Y-65200057D02*
X131298214Y-65152438D01*
X131298214Y-65152438D02*
X131393452Y-65104819D01*
X131393452Y-65104819D02*
X131631547Y-65104819D01*
X131631547Y-65104819D02*
X131726785Y-65152438D01*
X131726785Y-65152438D02*
X131774404Y-65200057D01*
X131774404Y-65200057D02*
X131822023Y-65295295D01*
X131822023Y-65295295D02*
X131822023Y-65390533D01*
X131822023Y-65390533D02*
X131774404Y-65533390D01*
X131774404Y-65533390D02*
X131202976Y-66104819D01*
X131202976Y-66104819D02*
X131822023Y-66104819D01*
X132155357Y-65104819D02*
X132774404Y-65104819D01*
X132774404Y-65104819D02*
X132441071Y-65485771D01*
X132441071Y-65485771D02*
X132583928Y-65485771D01*
X132583928Y-65485771D02*
X132679166Y-65533390D01*
X132679166Y-65533390D02*
X132726785Y-65581009D01*
X132726785Y-65581009D02*
X132774404Y-65676247D01*
X132774404Y-65676247D02*
X132774404Y-65914342D01*
X132774404Y-65914342D02*
X132726785Y-66009580D01*
X132726785Y-66009580D02*
X132679166Y-66057200D01*
X132679166Y-66057200D02*
X132583928Y-66104819D01*
X132583928Y-66104819D02*
X132298214Y-66104819D01*
X132298214Y-66104819D02*
X132202976Y-66057200D01*
X132202976Y-66057200D02*
X132155357Y-66009580D01*
X185653333Y-106919580D02*
X185605714Y-106967200D01*
X185605714Y-106967200D02*
X185462857Y-107014819D01*
X185462857Y-107014819D02*
X185367619Y-107014819D01*
X185367619Y-107014819D02*
X185224762Y-106967200D01*
X185224762Y-106967200D02*
X185129524Y-106871961D01*
X185129524Y-106871961D02*
X185081905Y-106776723D01*
X185081905Y-106776723D02*
X185034286Y-106586247D01*
X185034286Y-106586247D02*
X185034286Y-106443390D01*
X185034286Y-106443390D02*
X185081905Y-106252914D01*
X185081905Y-106252914D02*
X185129524Y-106157676D01*
X185129524Y-106157676D02*
X185224762Y-106062438D01*
X185224762Y-106062438D02*
X185367619Y-106014819D01*
X185367619Y-106014819D02*
X185462857Y-106014819D01*
X185462857Y-106014819D02*
X185605714Y-106062438D01*
X185605714Y-106062438D02*
X185653333Y-106110057D01*
X186605714Y-107014819D02*
X186034286Y-107014819D01*
X186320000Y-107014819D02*
X186320000Y-106014819D01*
X186320000Y-106014819D02*
X186224762Y-106157676D01*
X186224762Y-106157676D02*
X186129524Y-106252914D01*
X186129524Y-106252914D02*
X186034286Y-106300533D01*
X152854819Y-120911904D02*
X152854819Y-120340476D01*
X153854819Y-120626190D02*
X152854819Y-120626190D01*
X153854819Y-120007142D02*
X152854819Y-120007142D01*
X152854819Y-120007142D02*
X152854819Y-119626190D01*
X152854819Y-119626190D02*
X152902438Y-119530952D01*
X152902438Y-119530952D02*
X152950057Y-119483333D01*
X152950057Y-119483333D02*
X153045295Y-119435714D01*
X153045295Y-119435714D02*
X153188152Y-119435714D01*
X153188152Y-119435714D02*
X153283390Y-119483333D01*
X153283390Y-119483333D02*
X153331009Y-119530952D01*
X153331009Y-119530952D02*
X153378628Y-119626190D01*
X153378628Y-119626190D02*
X153378628Y-120007142D01*
X152854819Y-118530952D02*
X152854819Y-119007142D01*
X152854819Y-119007142D02*
X153331009Y-119054761D01*
X153331009Y-119054761D02*
X153283390Y-119007142D01*
X153283390Y-119007142D02*
X153235771Y-118911904D01*
X153235771Y-118911904D02*
X153235771Y-118673809D01*
X153235771Y-118673809D02*
X153283390Y-118578571D01*
X153283390Y-118578571D02*
X153331009Y-118530952D01*
X153331009Y-118530952D02*
X153426247Y-118483333D01*
X153426247Y-118483333D02*
X153664342Y-118483333D01*
X153664342Y-118483333D02*
X153759580Y-118530952D01*
X153759580Y-118530952D02*
X153807200Y-118578571D01*
X153807200Y-118578571D02*
X153854819Y-118673809D01*
X153854819Y-118673809D02*
X153854819Y-118911904D01*
X153854819Y-118911904D02*
X153807200Y-119007142D01*
X153807200Y-119007142D02*
X153759580Y-119054761D01*
X177083095Y-130509819D02*
X177083095Y-131319342D01*
X177083095Y-131319342D02*
X177130714Y-131414580D01*
X177130714Y-131414580D02*
X177178333Y-131462200D01*
X177178333Y-131462200D02*
X177273571Y-131509819D01*
X177273571Y-131509819D02*
X177464047Y-131509819D01*
X177464047Y-131509819D02*
X177559285Y-131462200D01*
X177559285Y-131462200D02*
X177606904Y-131414580D01*
X177606904Y-131414580D02*
X177654523Y-131319342D01*
X177654523Y-131319342D02*
X177654523Y-130509819D01*
X178654523Y-131509819D02*
X178083095Y-131509819D01*
X178368809Y-131509819D02*
X178368809Y-130509819D01*
X178368809Y-130509819D02*
X178273571Y-130652676D01*
X178273571Y-130652676D02*
X178178333Y-130747914D01*
X178178333Y-130747914D02*
X178083095Y-130795533D01*
X133229819Y-73879166D02*
X132753628Y-74212499D01*
X133229819Y-74450594D02*
X132229819Y-74450594D01*
X132229819Y-74450594D02*
X132229819Y-74069642D01*
X132229819Y-74069642D02*
X132277438Y-73974404D01*
X132277438Y-73974404D02*
X132325057Y-73926785D01*
X132325057Y-73926785D02*
X132420295Y-73879166D01*
X132420295Y-73879166D02*
X132563152Y-73879166D01*
X132563152Y-73879166D02*
X132658390Y-73926785D01*
X132658390Y-73926785D02*
X132706009Y-73974404D01*
X132706009Y-73974404D02*
X132753628Y-74069642D01*
X132753628Y-74069642D02*
X132753628Y-74450594D01*
X133229819Y-72926785D02*
X133229819Y-73498213D01*
X133229819Y-73212499D02*
X132229819Y-73212499D01*
X132229819Y-73212499D02*
X132372676Y-73307737D01*
X132372676Y-73307737D02*
X132467914Y-73402975D01*
X132467914Y-73402975D02*
X132515533Y-73498213D01*
X119614819Y-106885357D02*
X119138628Y-107218690D01*
X119614819Y-107456785D02*
X118614819Y-107456785D01*
X118614819Y-107456785D02*
X118614819Y-107075833D01*
X118614819Y-107075833D02*
X118662438Y-106980595D01*
X118662438Y-106980595D02*
X118710057Y-106932976D01*
X118710057Y-106932976D02*
X118805295Y-106885357D01*
X118805295Y-106885357D02*
X118948152Y-106885357D01*
X118948152Y-106885357D02*
X119043390Y-106932976D01*
X119043390Y-106932976D02*
X119091009Y-106980595D01*
X119091009Y-106980595D02*
X119138628Y-107075833D01*
X119138628Y-107075833D02*
X119138628Y-107456785D01*
X119614819Y-105932976D02*
X119614819Y-106504404D01*
X119614819Y-106218690D02*
X118614819Y-106218690D01*
X118614819Y-106218690D02*
X118757676Y-106313928D01*
X118757676Y-106313928D02*
X118852914Y-106409166D01*
X118852914Y-106409166D02*
X118900533Y-106504404D01*
X119614819Y-104980595D02*
X119614819Y-105552023D01*
X119614819Y-105266309D02*
X118614819Y-105266309D01*
X118614819Y-105266309D02*
X118757676Y-105361547D01*
X118757676Y-105361547D02*
X118852914Y-105456785D01*
X118852914Y-105456785D02*
X118900533Y-105552023D01*
X108908333Y-127304819D02*
X108575000Y-126828628D01*
X108336905Y-127304819D02*
X108336905Y-126304819D01*
X108336905Y-126304819D02*
X108717857Y-126304819D01*
X108717857Y-126304819D02*
X108813095Y-126352438D01*
X108813095Y-126352438D02*
X108860714Y-126400057D01*
X108860714Y-126400057D02*
X108908333Y-126495295D01*
X108908333Y-126495295D02*
X108908333Y-126638152D01*
X108908333Y-126638152D02*
X108860714Y-126733390D01*
X108860714Y-126733390D02*
X108813095Y-126781009D01*
X108813095Y-126781009D02*
X108717857Y-126828628D01*
X108717857Y-126828628D02*
X108336905Y-126828628D01*
X109479762Y-126733390D02*
X109384524Y-126685771D01*
X109384524Y-126685771D02*
X109336905Y-126638152D01*
X109336905Y-126638152D02*
X109289286Y-126542914D01*
X109289286Y-126542914D02*
X109289286Y-126495295D01*
X109289286Y-126495295D02*
X109336905Y-126400057D01*
X109336905Y-126400057D02*
X109384524Y-126352438D01*
X109384524Y-126352438D02*
X109479762Y-126304819D01*
X109479762Y-126304819D02*
X109670238Y-126304819D01*
X109670238Y-126304819D02*
X109765476Y-126352438D01*
X109765476Y-126352438D02*
X109813095Y-126400057D01*
X109813095Y-126400057D02*
X109860714Y-126495295D01*
X109860714Y-126495295D02*
X109860714Y-126542914D01*
X109860714Y-126542914D02*
X109813095Y-126638152D01*
X109813095Y-126638152D02*
X109765476Y-126685771D01*
X109765476Y-126685771D02*
X109670238Y-126733390D01*
X109670238Y-126733390D02*
X109479762Y-126733390D01*
X109479762Y-126733390D02*
X109384524Y-126781009D01*
X109384524Y-126781009D02*
X109336905Y-126828628D01*
X109336905Y-126828628D02*
X109289286Y-126923866D01*
X109289286Y-126923866D02*
X109289286Y-127114342D01*
X109289286Y-127114342D02*
X109336905Y-127209580D01*
X109336905Y-127209580D02*
X109384524Y-127257200D01*
X109384524Y-127257200D02*
X109479762Y-127304819D01*
X109479762Y-127304819D02*
X109670238Y-127304819D01*
X109670238Y-127304819D02*
X109765476Y-127257200D01*
X109765476Y-127257200D02*
X109813095Y-127209580D01*
X109813095Y-127209580D02*
X109860714Y-127114342D01*
X109860714Y-127114342D02*
X109860714Y-126923866D01*
X109860714Y-126923866D02*
X109813095Y-126828628D01*
X109813095Y-126828628D02*
X109765476Y-126781009D01*
X109765476Y-126781009D02*
X109670238Y-126733390D01*
X111225057Y-135482738D02*
X111177438Y-135577976D01*
X111177438Y-135577976D02*
X111082200Y-135673214D01*
X111082200Y-135673214D02*
X110939342Y-135816071D01*
X110939342Y-135816071D02*
X110891723Y-135911309D01*
X110891723Y-135911309D02*
X110891723Y-136006547D01*
X111129819Y-135958928D02*
X111082200Y-136054166D01*
X111082200Y-136054166D02*
X110986961Y-136149404D01*
X110986961Y-136149404D02*
X110796485Y-136197023D01*
X110796485Y-136197023D02*
X110463152Y-136197023D01*
X110463152Y-136197023D02*
X110272676Y-136149404D01*
X110272676Y-136149404D02*
X110177438Y-136054166D01*
X110177438Y-136054166D02*
X110129819Y-135958928D01*
X110129819Y-135958928D02*
X110129819Y-135768452D01*
X110129819Y-135768452D02*
X110177438Y-135673214D01*
X110177438Y-135673214D02*
X110272676Y-135577976D01*
X110272676Y-135577976D02*
X110463152Y-135530357D01*
X110463152Y-135530357D02*
X110796485Y-135530357D01*
X110796485Y-135530357D02*
X110986961Y-135577976D01*
X110986961Y-135577976D02*
X111082200Y-135673214D01*
X111082200Y-135673214D02*
X111129819Y-135768452D01*
X111129819Y-135768452D02*
X111129819Y-135958928D01*
X111129819Y-134577976D02*
X111129819Y-135149404D01*
X111129819Y-134863690D02*
X110129819Y-134863690D01*
X110129819Y-134863690D02*
X110272676Y-134958928D01*
X110272676Y-134958928D02*
X110367914Y-135054166D01*
X110367914Y-135054166D02*
X110415533Y-135149404D01*
X129959580Y-79305357D02*
X130007200Y-79352976D01*
X130007200Y-79352976D02*
X130054819Y-79495833D01*
X130054819Y-79495833D02*
X130054819Y-79591071D01*
X130054819Y-79591071D02*
X130007200Y-79733928D01*
X130007200Y-79733928D02*
X129911961Y-79829166D01*
X129911961Y-79829166D02*
X129816723Y-79876785D01*
X129816723Y-79876785D02*
X129626247Y-79924404D01*
X129626247Y-79924404D02*
X129483390Y-79924404D01*
X129483390Y-79924404D02*
X129292914Y-79876785D01*
X129292914Y-79876785D02*
X129197676Y-79829166D01*
X129197676Y-79829166D02*
X129102438Y-79733928D01*
X129102438Y-79733928D02*
X129054819Y-79591071D01*
X129054819Y-79591071D02*
X129054819Y-79495833D01*
X129054819Y-79495833D02*
X129102438Y-79352976D01*
X129102438Y-79352976D02*
X129150057Y-79305357D01*
X129150057Y-78924404D02*
X129102438Y-78876785D01*
X129102438Y-78876785D02*
X129054819Y-78781547D01*
X129054819Y-78781547D02*
X129054819Y-78543452D01*
X129054819Y-78543452D02*
X129102438Y-78448214D01*
X129102438Y-78448214D02*
X129150057Y-78400595D01*
X129150057Y-78400595D02*
X129245295Y-78352976D01*
X129245295Y-78352976D02*
X129340533Y-78352976D01*
X129340533Y-78352976D02*
X129483390Y-78400595D01*
X129483390Y-78400595D02*
X130054819Y-78972023D01*
X130054819Y-78972023D02*
X130054819Y-78352976D01*
X129150057Y-77972023D02*
X129102438Y-77924404D01*
X129102438Y-77924404D02*
X129054819Y-77829166D01*
X129054819Y-77829166D02*
X129054819Y-77591071D01*
X129054819Y-77591071D02*
X129102438Y-77495833D01*
X129102438Y-77495833D02*
X129150057Y-77448214D01*
X129150057Y-77448214D02*
X129245295Y-77400595D01*
X129245295Y-77400595D02*
X129340533Y-77400595D01*
X129340533Y-77400595D02*
X129483390Y-77448214D01*
X129483390Y-77448214D02*
X130054819Y-78019642D01*
X130054819Y-78019642D02*
X130054819Y-77400595D01*
X126519642Y-137779819D02*
X126186309Y-137303628D01*
X125948214Y-137779819D02*
X125948214Y-136779819D01*
X125948214Y-136779819D02*
X126329166Y-136779819D01*
X126329166Y-136779819D02*
X126424404Y-136827438D01*
X126424404Y-136827438D02*
X126472023Y-136875057D01*
X126472023Y-136875057D02*
X126519642Y-136970295D01*
X126519642Y-136970295D02*
X126519642Y-137113152D01*
X126519642Y-137113152D02*
X126472023Y-137208390D01*
X126472023Y-137208390D02*
X126424404Y-137256009D01*
X126424404Y-137256009D02*
X126329166Y-137303628D01*
X126329166Y-137303628D02*
X125948214Y-137303628D01*
X126900595Y-136875057D02*
X126948214Y-136827438D01*
X126948214Y-136827438D02*
X127043452Y-136779819D01*
X127043452Y-136779819D02*
X127281547Y-136779819D01*
X127281547Y-136779819D02*
X127376785Y-136827438D01*
X127376785Y-136827438D02*
X127424404Y-136875057D01*
X127424404Y-136875057D02*
X127472023Y-136970295D01*
X127472023Y-136970295D02*
X127472023Y-137065533D01*
X127472023Y-137065533D02*
X127424404Y-137208390D01*
X127424404Y-137208390D02*
X126852976Y-137779819D01*
X126852976Y-137779819D02*
X127472023Y-137779819D01*
X128424404Y-137779819D02*
X127852976Y-137779819D01*
X128138690Y-137779819D02*
X128138690Y-136779819D01*
X128138690Y-136779819D02*
X128043452Y-136922676D01*
X128043452Y-136922676D02*
X127948214Y-137017914D01*
X127948214Y-137017914D02*
X127852976Y-137065533D01*
X152854819Y-109386904D02*
X152854819Y-108815476D01*
X153854819Y-109101190D02*
X152854819Y-109101190D01*
X153854819Y-108482142D02*
X152854819Y-108482142D01*
X152854819Y-108482142D02*
X152854819Y-108101190D01*
X152854819Y-108101190D02*
X152902438Y-108005952D01*
X152902438Y-108005952D02*
X152950057Y-107958333D01*
X152950057Y-107958333D02*
X153045295Y-107910714D01*
X153045295Y-107910714D02*
X153188152Y-107910714D01*
X153188152Y-107910714D02*
X153283390Y-107958333D01*
X153283390Y-107958333D02*
X153331009Y-108005952D01*
X153331009Y-108005952D02*
X153378628Y-108101190D01*
X153378628Y-108101190D02*
X153378628Y-108482142D01*
X152950057Y-107529761D02*
X152902438Y-107482142D01*
X152902438Y-107482142D02*
X152854819Y-107386904D01*
X152854819Y-107386904D02*
X152854819Y-107148809D01*
X152854819Y-107148809D02*
X152902438Y-107053571D01*
X152902438Y-107053571D02*
X152950057Y-107005952D01*
X152950057Y-107005952D02*
X153045295Y-106958333D01*
X153045295Y-106958333D02*
X153140533Y-106958333D01*
X153140533Y-106958333D02*
X153283390Y-107005952D01*
X153283390Y-107005952D02*
X153854819Y-107577380D01*
X153854819Y-107577380D02*
X153854819Y-106958333D01*
X131320833Y-83859580D02*
X131273214Y-83907200D01*
X131273214Y-83907200D02*
X131130357Y-83954819D01*
X131130357Y-83954819D02*
X131035119Y-83954819D01*
X131035119Y-83954819D02*
X130892262Y-83907200D01*
X130892262Y-83907200D02*
X130797024Y-83811961D01*
X130797024Y-83811961D02*
X130749405Y-83716723D01*
X130749405Y-83716723D02*
X130701786Y-83526247D01*
X130701786Y-83526247D02*
X130701786Y-83383390D01*
X130701786Y-83383390D02*
X130749405Y-83192914D01*
X130749405Y-83192914D02*
X130797024Y-83097676D01*
X130797024Y-83097676D02*
X130892262Y-83002438D01*
X130892262Y-83002438D02*
X131035119Y-82954819D01*
X131035119Y-82954819D02*
X131130357Y-82954819D01*
X131130357Y-82954819D02*
X131273214Y-83002438D01*
X131273214Y-83002438D02*
X131320833Y-83050057D01*
X131797024Y-83954819D02*
X131987500Y-83954819D01*
X131987500Y-83954819D02*
X132082738Y-83907200D01*
X132082738Y-83907200D02*
X132130357Y-83859580D01*
X132130357Y-83859580D02*
X132225595Y-83716723D01*
X132225595Y-83716723D02*
X132273214Y-83526247D01*
X132273214Y-83526247D02*
X132273214Y-83145295D01*
X132273214Y-83145295D02*
X132225595Y-83050057D01*
X132225595Y-83050057D02*
X132177976Y-83002438D01*
X132177976Y-83002438D02*
X132082738Y-82954819D01*
X132082738Y-82954819D02*
X131892262Y-82954819D01*
X131892262Y-82954819D02*
X131797024Y-83002438D01*
X131797024Y-83002438D02*
X131749405Y-83050057D01*
X131749405Y-83050057D02*
X131701786Y-83145295D01*
X131701786Y-83145295D02*
X131701786Y-83383390D01*
X131701786Y-83383390D02*
X131749405Y-83478628D01*
X131749405Y-83478628D02*
X131797024Y-83526247D01*
X131797024Y-83526247D02*
X131892262Y-83573866D01*
X131892262Y-83573866D02*
X132082738Y-83573866D01*
X132082738Y-83573866D02*
X132177976Y-83526247D01*
X132177976Y-83526247D02*
X132225595Y-83478628D01*
X132225595Y-83478628D02*
X132273214Y-83383390D01*
X116950595Y-126329819D02*
X116950595Y-127139342D01*
X116950595Y-127139342D02*
X116998214Y-127234580D01*
X116998214Y-127234580D02*
X117045833Y-127282200D01*
X117045833Y-127282200D02*
X117141071Y-127329819D01*
X117141071Y-127329819D02*
X117331547Y-127329819D01*
X117331547Y-127329819D02*
X117426785Y-127282200D01*
X117426785Y-127282200D02*
X117474404Y-127234580D01*
X117474404Y-127234580D02*
X117522023Y-127139342D01*
X117522023Y-127139342D02*
X117522023Y-126329819D01*
X118426785Y-126663152D02*
X118426785Y-127329819D01*
X118188690Y-126282200D02*
X117950595Y-126996485D01*
X117950595Y-126996485D02*
X118569642Y-126996485D01*
X152779819Y-124836904D02*
X152779819Y-124265476D01*
X153779819Y-124551190D02*
X152779819Y-124551190D01*
X153779819Y-123932142D02*
X152779819Y-123932142D01*
X152779819Y-123932142D02*
X152779819Y-123551190D01*
X152779819Y-123551190D02*
X152827438Y-123455952D01*
X152827438Y-123455952D02*
X152875057Y-123408333D01*
X152875057Y-123408333D02*
X152970295Y-123360714D01*
X152970295Y-123360714D02*
X153113152Y-123360714D01*
X153113152Y-123360714D02*
X153208390Y-123408333D01*
X153208390Y-123408333D02*
X153256009Y-123455952D01*
X153256009Y-123455952D02*
X153303628Y-123551190D01*
X153303628Y-123551190D02*
X153303628Y-123932142D01*
X152779819Y-122503571D02*
X152779819Y-122694047D01*
X152779819Y-122694047D02*
X152827438Y-122789285D01*
X152827438Y-122789285D02*
X152875057Y-122836904D01*
X152875057Y-122836904D02*
X153017914Y-122932142D01*
X153017914Y-122932142D02*
X153208390Y-122979761D01*
X153208390Y-122979761D02*
X153589342Y-122979761D01*
X153589342Y-122979761D02*
X153684580Y-122932142D01*
X153684580Y-122932142D02*
X153732200Y-122884523D01*
X153732200Y-122884523D02*
X153779819Y-122789285D01*
X153779819Y-122789285D02*
X153779819Y-122598809D01*
X153779819Y-122598809D02*
X153732200Y-122503571D01*
X153732200Y-122503571D02*
X153684580Y-122455952D01*
X153684580Y-122455952D02*
X153589342Y-122408333D01*
X153589342Y-122408333D02*
X153351247Y-122408333D01*
X153351247Y-122408333D02*
X153256009Y-122455952D01*
X153256009Y-122455952D02*
X153208390Y-122503571D01*
X153208390Y-122503571D02*
X153160771Y-122598809D01*
X153160771Y-122598809D02*
X153160771Y-122789285D01*
X153160771Y-122789285D02*
X153208390Y-122884523D01*
X153208390Y-122884523D02*
X153256009Y-122932142D01*
X153256009Y-122932142D02*
X153351247Y-122979761D01*
X110219642Y-92384580D02*
X110172023Y-92432200D01*
X110172023Y-92432200D02*
X110029166Y-92479819D01*
X110029166Y-92479819D02*
X109933928Y-92479819D01*
X109933928Y-92479819D02*
X109791071Y-92432200D01*
X109791071Y-92432200D02*
X109695833Y-92336961D01*
X109695833Y-92336961D02*
X109648214Y-92241723D01*
X109648214Y-92241723D02*
X109600595Y-92051247D01*
X109600595Y-92051247D02*
X109600595Y-91908390D01*
X109600595Y-91908390D02*
X109648214Y-91717914D01*
X109648214Y-91717914D02*
X109695833Y-91622676D01*
X109695833Y-91622676D02*
X109791071Y-91527438D01*
X109791071Y-91527438D02*
X109933928Y-91479819D01*
X109933928Y-91479819D02*
X110029166Y-91479819D01*
X110029166Y-91479819D02*
X110172023Y-91527438D01*
X110172023Y-91527438D02*
X110219642Y-91575057D01*
X111172023Y-92479819D02*
X110600595Y-92479819D01*
X110886309Y-92479819D02*
X110886309Y-91479819D01*
X110886309Y-91479819D02*
X110791071Y-91622676D01*
X110791071Y-91622676D02*
X110695833Y-91717914D01*
X110695833Y-91717914D02*
X110600595Y-91765533D01*
X111791071Y-91479819D02*
X111886309Y-91479819D01*
X111886309Y-91479819D02*
X111981547Y-91527438D01*
X111981547Y-91527438D02*
X112029166Y-91575057D01*
X112029166Y-91575057D02*
X112076785Y-91670295D01*
X112076785Y-91670295D02*
X112124404Y-91860771D01*
X112124404Y-91860771D02*
X112124404Y-92098866D01*
X112124404Y-92098866D02*
X112076785Y-92289342D01*
X112076785Y-92289342D02*
X112029166Y-92384580D01*
X112029166Y-92384580D02*
X111981547Y-92432200D01*
X111981547Y-92432200D02*
X111886309Y-92479819D01*
X111886309Y-92479819D02*
X111791071Y-92479819D01*
X111791071Y-92479819D02*
X111695833Y-92432200D01*
X111695833Y-92432200D02*
X111648214Y-92384580D01*
X111648214Y-92384580D02*
X111600595Y-92289342D01*
X111600595Y-92289342D02*
X111552976Y-92098866D01*
X111552976Y-92098866D02*
X111552976Y-91860771D01*
X111552976Y-91860771D02*
X111600595Y-91670295D01*
X111600595Y-91670295D02*
X111648214Y-91575057D01*
X111648214Y-91575057D02*
X111695833Y-91527438D01*
X111695833Y-91527438D02*
X111791071Y-91479819D01*
X115904819Y-131679166D02*
X115428628Y-132012499D01*
X115904819Y-132250594D02*
X114904819Y-132250594D01*
X114904819Y-132250594D02*
X114904819Y-131869642D01*
X114904819Y-131869642D02*
X114952438Y-131774404D01*
X114952438Y-131774404D02*
X115000057Y-131726785D01*
X115000057Y-131726785D02*
X115095295Y-131679166D01*
X115095295Y-131679166D02*
X115238152Y-131679166D01*
X115238152Y-131679166D02*
X115333390Y-131726785D01*
X115333390Y-131726785D02*
X115381009Y-131774404D01*
X115381009Y-131774404D02*
X115428628Y-131869642D01*
X115428628Y-131869642D02*
X115428628Y-132250594D01*
X115904819Y-131202975D02*
X115904819Y-131012499D01*
X115904819Y-131012499D02*
X115857200Y-130917261D01*
X115857200Y-130917261D02*
X115809580Y-130869642D01*
X115809580Y-130869642D02*
X115666723Y-130774404D01*
X115666723Y-130774404D02*
X115476247Y-130726785D01*
X115476247Y-130726785D02*
X115095295Y-130726785D01*
X115095295Y-130726785D02*
X115000057Y-130774404D01*
X115000057Y-130774404D02*
X114952438Y-130822023D01*
X114952438Y-130822023D02*
X114904819Y-130917261D01*
X114904819Y-130917261D02*
X114904819Y-131107737D01*
X114904819Y-131107737D02*
X114952438Y-131202975D01*
X114952438Y-131202975D02*
X115000057Y-131250594D01*
X115000057Y-131250594D02*
X115095295Y-131298213D01*
X115095295Y-131298213D02*
X115333390Y-131298213D01*
X115333390Y-131298213D02*
X115428628Y-131250594D01*
X115428628Y-131250594D02*
X115476247Y-131202975D01*
X115476247Y-131202975D02*
X115523866Y-131107737D01*
X115523866Y-131107737D02*
X115523866Y-130917261D01*
X115523866Y-130917261D02*
X115476247Y-130822023D01*
X115476247Y-130822023D02*
X115428628Y-130774404D01*
X115428628Y-130774404D02*
X115333390Y-130726785D01*
X121419642Y-134554819D02*
X121086309Y-134078628D01*
X120848214Y-134554819D02*
X120848214Y-133554819D01*
X120848214Y-133554819D02*
X121229166Y-133554819D01*
X121229166Y-133554819D02*
X121324404Y-133602438D01*
X121324404Y-133602438D02*
X121372023Y-133650057D01*
X121372023Y-133650057D02*
X121419642Y-133745295D01*
X121419642Y-133745295D02*
X121419642Y-133888152D01*
X121419642Y-133888152D02*
X121372023Y-133983390D01*
X121372023Y-133983390D02*
X121324404Y-134031009D01*
X121324404Y-134031009D02*
X121229166Y-134078628D01*
X121229166Y-134078628D02*
X120848214Y-134078628D01*
X121800595Y-133650057D02*
X121848214Y-133602438D01*
X121848214Y-133602438D02*
X121943452Y-133554819D01*
X121943452Y-133554819D02*
X122181547Y-133554819D01*
X122181547Y-133554819D02*
X122276785Y-133602438D01*
X122276785Y-133602438D02*
X122324404Y-133650057D01*
X122324404Y-133650057D02*
X122372023Y-133745295D01*
X122372023Y-133745295D02*
X122372023Y-133840533D01*
X122372023Y-133840533D02*
X122324404Y-133983390D01*
X122324404Y-133983390D02*
X121752976Y-134554819D01*
X121752976Y-134554819D02*
X122372023Y-134554819D01*
X122752976Y-133650057D02*
X122800595Y-133602438D01*
X122800595Y-133602438D02*
X122895833Y-133554819D01*
X122895833Y-133554819D02*
X123133928Y-133554819D01*
X123133928Y-133554819D02*
X123229166Y-133602438D01*
X123229166Y-133602438D02*
X123276785Y-133650057D01*
X123276785Y-133650057D02*
X123324404Y-133745295D01*
X123324404Y-133745295D02*
X123324404Y-133840533D01*
X123324404Y-133840533D02*
X123276785Y-133983390D01*
X123276785Y-133983390D02*
X122705357Y-134554819D01*
X122705357Y-134554819D02*
X123324404Y-134554819D01*
X142179819Y-115938094D02*
X142989342Y-115938094D01*
X142989342Y-115938094D02*
X143084580Y-115890475D01*
X143084580Y-115890475D02*
X143132200Y-115842856D01*
X143132200Y-115842856D02*
X143179819Y-115747618D01*
X143179819Y-115747618D02*
X143179819Y-115557142D01*
X143179819Y-115557142D02*
X143132200Y-115461904D01*
X143132200Y-115461904D02*
X143084580Y-115414285D01*
X143084580Y-115414285D02*
X142989342Y-115366666D01*
X142989342Y-115366666D02*
X142179819Y-115366666D01*
X143132200Y-114938094D02*
X143179819Y-114795237D01*
X143179819Y-114795237D02*
X143179819Y-114557142D01*
X143179819Y-114557142D02*
X143132200Y-114461904D01*
X143132200Y-114461904D02*
X143084580Y-114414285D01*
X143084580Y-114414285D02*
X142989342Y-114366666D01*
X142989342Y-114366666D02*
X142894104Y-114366666D01*
X142894104Y-114366666D02*
X142798866Y-114414285D01*
X142798866Y-114414285D02*
X142751247Y-114461904D01*
X142751247Y-114461904D02*
X142703628Y-114557142D01*
X142703628Y-114557142D02*
X142656009Y-114747618D01*
X142656009Y-114747618D02*
X142608390Y-114842856D01*
X142608390Y-114842856D02*
X142560771Y-114890475D01*
X142560771Y-114890475D02*
X142465533Y-114938094D01*
X142465533Y-114938094D02*
X142370295Y-114938094D01*
X142370295Y-114938094D02*
X142275057Y-114890475D01*
X142275057Y-114890475D02*
X142227438Y-114842856D01*
X142227438Y-114842856D02*
X142179819Y-114747618D01*
X142179819Y-114747618D02*
X142179819Y-114509523D01*
X142179819Y-114509523D02*
X142227438Y-114366666D01*
X142656009Y-113604761D02*
X142703628Y-113461904D01*
X142703628Y-113461904D02*
X142751247Y-113414285D01*
X142751247Y-113414285D02*
X142846485Y-113366666D01*
X142846485Y-113366666D02*
X142989342Y-113366666D01*
X142989342Y-113366666D02*
X143084580Y-113414285D01*
X143084580Y-113414285D02*
X143132200Y-113461904D01*
X143132200Y-113461904D02*
X143179819Y-113557142D01*
X143179819Y-113557142D02*
X143179819Y-113938094D01*
X143179819Y-113938094D02*
X142179819Y-113938094D01*
X142179819Y-113938094D02*
X142179819Y-113604761D01*
X142179819Y-113604761D02*
X142227438Y-113509523D01*
X142227438Y-113509523D02*
X142275057Y-113461904D01*
X142275057Y-113461904D02*
X142370295Y-113414285D01*
X142370295Y-113414285D02*
X142465533Y-113414285D01*
X142465533Y-113414285D02*
X142560771Y-113461904D01*
X142560771Y-113461904D02*
X142608390Y-113509523D01*
X142608390Y-113509523D02*
X142656009Y-113604761D01*
X142656009Y-113604761D02*
X142656009Y-113938094D01*
X143275057Y-113176190D02*
X143275057Y-112414285D01*
X143179819Y-112176189D02*
X142179819Y-112176189D01*
X142179819Y-112176189D02*
X142179819Y-111938094D01*
X142179819Y-111938094D02*
X142227438Y-111795237D01*
X142227438Y-111795237D02*
X142322676Y-111699999D01*
X142322676Y-111699999D02*
X142417914Y-111652380D01*
X142417914Y-111652380D02*
X142608390Y-111604761D01*
X142608390Y-111604761D02*
X142751247Y-111604761D01*
X142751247Y-111604761D02*
X142941723Y-111652380D01*
X142941723Y-111652380D02*
X143036961Y-111699999D01*
X143036961Y-111699999D02*
X143132200Y-111795237D01*
X143132200Y-111795237D02*
X143179819Y-111938094D01*
X143179819Y-111938094D02*
X143179819Y-112176189D01*
X142798866Y-111176189D02*
X142798866Y-110414285D01*
X143179819Y-109414285D02*
X143179819Y-109985713D01*
X143179819Y-109699999D02*
X142179819Y-109699999D01*
X142179819Y-109699999D02*
X142322676Y-109795237D01*
X142322676Y-109795237D02*
X142417914Y-109890475D01*
X142417914Y-109890475D02*
X142465533Y-109985713D01*
X126609580Y-77755357D02*
X126657200Y-77802976D01*
X126657200Y-77802976D02*
X126704819Y-77945833D01*
X126704819Y-77945833D02*
X126704819Y-78041071D01*
X126704819Y-78041071D02*
X126657200Y-78183928D01*
X126657200Y-78183928D02*
X126561961Y-78279166D01*
X126561961Y-78279166D02*
X126466723Y-78326785D01*
X126466723Y-78326785D02*
X126276247Y-78374404D01*
X126276247Y-78374404D02*
X126133390Y-78374404D01*
X126133390Y-78374404D02*
X125942914Y-78326785D01*
X125942914Y-78326785D02*
X125847676Y-78279166D01*
X125847676Y-78279166D02*
X125752438Y-78183928D01*
X125752438Y-78183928D02*
X125704819Y-78041071D01*
X125704819Y-78041071D02*
X125704819Y-77945833D01*
X125704819Y-77945833D02*
X125752438Y-77802976D01*
X125752438Y-77802976D02*
X125800057Y-77755357D01*
X125800057Y-77374404D02*
X125752438Y-77326785D01*
X125752438Y-77326785D02*
X125704819Y-77231547D01*
X125704819Y-77231547D02*
X125704819Y-76993452D01*
X125704819Y-76993452D02*
X125752438Y-76898214D01*
X125752438Y-76898214D02*
X125800057Y-76850595D01*
X125800057Y-76850595D02*
X125895295Y-76802976D01*
X125895295Y-76802976D02*
X125990533Y-76802976D01*
X125990533Y-76802976D02*
X126133390Y-76850595D01*
X126133390Y-76850595D02*
X126704819Y-77422023D01*
X126704819Y-77422023D02*
X126704819Y-76802976D01*
X126704819Y-75850595D02*
X126704819Y-76422023D01*
X126704819Y-76136309D02*
X125704819Y-76136309D01*
X125704819Y-76136309D02*
X125847676Y-76231547D01*
X125847676Y-76231547D02*
X125942914Y-76326785D01*
X125942914Y-76326785D02*
X125990533Y-76422023D01*
X113769642Y-95584580D02*
X113722023Y-95632200D01*
X113722023Y-95632200D02*
X113579166Y-95679819D01*
X113579166Y-95679819D02*
X113483928Y-95679819D01*
X113483928Y-95679819D02*
X113341071Y-95632200D01*
X113341071Y-95632200D02*
X113245833Y-95536961D01*
X113245833Y-95536961D02*
X113198214Y-95441723D01*
X113198214Y-95441723D02*
X113150595Y-95251247D01*
X113150595Y-95251247D02*
X113150595Y-95108390D01*
X113150595Y-95108390D02*
X113198214Y-94917914D01*
X113198214Y-94917914D02*
X113245833Y-94822676D01*
X113245833Y-94822676D02*
X113341071Y-94727438D01*
X113341071Y-94727438D02*
X113483928Y-94679819D01*
X113483928Y-94679819D02*
X113579166Y-94679819D01*
X113579166Y-94679819D02*
X113722023Y-94727438D01*
X113722023Y-94727438D02*
X113769642Y-94775057D01*
X114722023Y-95679819D02*
X114150595Y-95679819D01*
X114436309Y-95679819D02*
X114436309Y-94679819D01*
X114436309Y-94679819D02*
X114341071Y-94822676D01*
X114341071Y-94822676D02*
X114245833Y-94917914D01*
X114245833Y-94917914D02*
X114150595Y-94965533D01*
X115102976Y-94775057D02*
X115150595Y-94727438D01*
X115150595Y-94727438D02*
X115245833Y-94679819D01*
X115245833Y-94679819D02*
X115483928Y-94679819D01*
X115483928Y-94679819D02*
X115579166Y-94727438D01*
X115579166Y-94727438D02*
X115626785Y-94775057D01*
X115626785Y-94775057D02*
X115674404Y-94870295D01*
X115674404Y-94870295D02*
X115674404Y-94965533D01*
X115674404Y-94965533D02*
X115626785Y-95108390D01*
X115626785Y-95108390D02*
X115055357Y-95679819D01*
X115055357Y-95679819D02*
X115674404Y-95679819D01*
X107419642Y-66429819D02*
X107086309Y-65953628D01*
X106848214Y-66429819D02*
X106848214Y-65429819D01*
X106848214Y-65429819D02*
X107229166Y-65429819D01*
X107229166Y-65429819D02*
X107324404Y-65477438D01*
X107324404Y-65477438D02*
X107372023Y-65525057D01*
X107372023Y-65525057D02*
X107419642Y-65620295D01*
X107419642Y-65620295D02*
X107419642Y-65763152D01*
X107419642Y-65763152D02*
X107372023Y-65858390D01*
X107372023Y-65858390D02*
X107324404Y-65906009D01*
X107324404Y-65906009D02*
X107229166Y-65953628D01*
X107229166Y-65953628D02*
X106848214Y-65953628D01*
X107800595Y-65525057D02*
X107848214Y-65477438D01*
X107848214Y-65477438D02*
X107943452Y-65429819D01*
X107943452Y-65429819D02*
X108181547Y-65429819D01*
X108181547Y-65429819D02*
X108276785Y-65477438D01*
X108276785Y-65477438D02*
X108324404Y-65525057D01*
X108324404Y-65525057D02*
X108372023Y-65620295D01*
X108372023Y-65620295D02*
X108372023Y-65715533D01*
X108372023Y-65715533D02*
X108324404Y-65858390D01*
X108324404Y-65858390D02*
X107752976Y-66429819D01*
X107752976Y-66429819D02*
X108372023Y-66429819D01*
X108991071Y-65429819D02*
X109086309Y-65429819D01*
X109086309Y-65429819D02*
X109181547Y-65477438D01*
X109181547Y-65477438D02*
X109229166Y-65525057D01*
X109229166Y-65525057D02*
X109276785Y-65620295D01*
X109276785Y-65620295D02*
X109324404Y-65810771D01*
X109324404Y-65810771D02*
X109324404Y-66048866D01*
X109324404Y-66048866D02*
X109276785Y-66239342D01*
X109276785Y-66239342D02*
X109229166Y-66334580D01*
X109229166Y-66334580D02*
X109181547Y-66382200D01*
X109181547Y-66382200D02*
X109086309Y-66429819D01*
X109086309Y-66429819D02*
X108991071Y-66429819D01*
X108991071Y-66429819D02*
X108895833Y-66382200D01*
X108895833Y-66382200D02*
X108848214Y-66334580D01*
X108848214Y-66334580D02*
X108800595Y-66239342D01*
X108800595Y-66239342D02*
X108752976Y-66048866D01*
X108752976Y-66048866D02*
X108752976Y-65810771D01*
X108752976Y-65810771D02*
X108800595Y-65620295D01*
X108800595Y-65620295D02*
X108848214Y-65525057D01*
X108848214Y-65525057D02*
X108895833Y-65477438D01*
X108895833Y-65477438D02*
X108991071Y-65429819D01*
X107032200Y-125958332D02*
X107079819Y-125815475D01*
X107079819Y-125815475D02*
X107079819Y-125577380D01*
X107079819Y-125577380D02*
X107032200Y-125482142D01*
X107032200Y-125482142D02*
X106984580Y-125434523D01*
X106984580Y-125434523D02*
X106889342Y-125386904D01*
X106889342Y-125386904D02*
X106794104Y-125386904D01*
X106794104Y-125386904D02*
X106698866Y-125434523D01*
X106698866Y-125434523D02*
X106651247Y-125482142D01*
X106651247Y-125482142D02*
X106603628Y-125577380D01*
X106603628Y-125577380D02*
X106556009Y-125767856D01*
X106556009Y-125767856D02*
X106508390Y-125863094D01*
X106508390Y-125863094D02*
X106460771Y-125910713D01*
X106460771Y-125910713D02*
X106365533Y-125958332D01*
X106365533Y-125958332D02*
X106270295Y-125958332D01*
X106270295Y-125958332D02*
X106175057Y-125910713D01*
X106175057Y-125910713D02*
X106127438Y-125863094D01*
X106127438Y-125863094D02*
X106079819Y-125767856D01*
X106079819Y-125767856D02*
X106079819Y-125529761D01*
X106079819Y-125529761D02*
X106127438Y-125386904D01*
X106079819Y-125053570D02*
X107079819Y-124815475D01*
X107079819Y-124815475D02*
X106365533Y-124624999D01*
X106365533Y-124624999D02*
X107079819Y-124434523D01*
X107079819Y-124434523D02*
X106079819Y-124196428D01*
X107079819Y-123291666D02*
X107079819Y-123863094D01*
X107079819Y-123577380D02*
X106079819Y-123577380D01*
X106079819Y-123577380D02*
X106222676Y-123672618D01*
X106222676Y-123672618D02*
X106317914Y-123767856D01*
X106317914Y-123767856D02*
X106365533Y-123863094D01*
X121244642Y-127134580D02*
X121197023Y-127182200D01*
X121197023Y-127182200D02*
X121054166Y-127229819D01*
X121054166Y-127229819D02*
X120958928Y-127229819D01*
X120958928Y-127229819D02*
X120816071Y-127182200D01*
X120816071Y-127182200D02*
X120720833Y-127086961D01*
X120720833Y-127086961D02*
X120673214Y-126991723D01*
X120673214Y-126991723D02*
X120625595Y-126801247D01*
X120625595Y-126801247D02*
X120625595Y-126658390D01*
X120625595Y-126658390D02*
X120673214Y-126467914D01*
X120673214Y-126467914D02*
X120720833Y-126372676D01*
X120720833Y-126372676D02*
X120816071Y-126277438D01*
X120816071Y-126277438D02*
X120958928Y-126229819D01*
X120958928Y-126229819D02*
X121054166Y-126229819D01*
X121054166Y-126229819D02*
X121197023Y-126277438D01*
X121197023Y-126277438D02*
X121244642Y-126325057D01*
X121625595Y-126325057D02*
X121673214Y-126277438D01*
X121673214Y-126277438D02*
X121768452Y-126229819D01*
X121768452Y-126229819D02*
X122006547Y-126229819D01*
X122006547Y-126229819D02*
X122101785Y-126277438D01*
X122101785Y-126277438D02*
X122149404Y-126325057D01*
X122149404Y-126325057D02*
X122197023Y-126420295D01*
X122197023Y-126420295D02*
X122197023Y-126515533D01*
X122197023Y-126515533D02*
X122149404Y-126658390D01*
X122149404Y-126658390D02*
X121577976Y-127229819D01*
X121577976Y-127229819D02*
X122197023Y-127229819D01*
X122816071Y-126229819D02*
X122911309Y-126229819D01*
X122911309Y-126229819D02*
X123006547Y-126277438D01*
X123006547Y-126277438D02*
X123054166Y-126325057D01*
X123054166Y-126325057D02*
X123101785Y-126420295D01*
X123101785Y-126420295D02*
X123149404Y-126610771D01*
X123149404Y-126610771D02*
X123149404Y-126848866D01*
X123149404Y-126848866D02*
X123101785Y-127039342D01*
X123101785Y-127039342D02*
X123054166Y-127134580D01*
X123054166Y-127134580D02*
X123006547Y-127182200D01*
X123006547Y-127182200D02*
X122911309Y-127229819D01*
X122911309Y-127229819D02*
X122816071Y-127229819D01*
X122816071Y-127229819D02*
X122720833Y-127182200D01*
X122720833Y-127182200D02*
X122673214Y-127134580D01*
X122673214Y-127134580D02*
X122625595Y-127039342D01*
X122625595Y-127039342D02*
X122577976Y-126848866D01*
X122577976Y-126848866D02*
X122577976Y-126610771D01*
X122577976Y-126610771D02*
X122625595Y-126420295D01*
X122625595Y-126420295D02*
X122673214Y-126325057D01*
X122673214Y-126325057D02*
X122720833Y-126277438D01*
X122720833Y-126277438D02*
X122816071Y-126229819D01*
D11*
%TO.C,C8*%
X132185436Y-93265000D02*
X132639564Y-93265000D01*
X132185436Y-94735000D02*
X132639564Y-94735000D01*
%TO.C,R15*%
X118015000Y-68627064D02*
X118015000Y-68172936D01*
X119485000Y-68627064D02*
X119485000Y-68172936D01*
%TO.C,C25*%
X182360436Y-140840000D02*
X182814564Y-140840000D01*
X182360436Y-142310000D02*
X182814564Y-142310000D01*
%TO.C,Ie1*%
X152325000Y-112600000D02*
G75*
G03*
X152325000Y-112600000I-1500000J0D01*
G01*
%TO.C,FB1*%
X114564564Y-91060000D02*
X114110436Y-91060000D01*
X114564564Y-89590000D02*
X114110436Y-89590000D01*
%TO.C,J2*%
X119965000Y-139215000D02*
X120385000Y-139215000D01*
X119965000Y-141195000D02*
X119965000Y-139215000D01*
X119965000Y-143565000D02*
X119965000Y-143165000D01*
X121965000Y-138985000D02*
X121965000Y-138535000D01*
X122415000Y-138535000D02*
X121965000Y-138535000D01*
X127485000Y-139215000D02*
X127065000Y-139215000D01*
X127485000Y-141195000D02*
X127485000Y-139215000D01*
X127485000Y-143165000D02*
X127485000Y-143565000D01*
%TO.C,LEDmodule1*%
X130995000Y-144080000D02*
X130995000Y-142750000D01*
X132325000Y-144080000D02*
X130995000Y-144080000D01*
X133595000Y-144080000D02*
X159055000Y-144080000D01*
X133595000Y-144080000D02*
X133595000Y-141420000D01*
X159055000Y-144080000D02*
X159055000Y-141420000D01*
X133595000Y-141420000D02*
X159055000Y-141420000D01*
%TO.C,C16*%
X114035436Y-75240000D02*
X114489564Y-75240000D01*
X114035436Y-76710000D02*
X114489564Y-76710000D01*
%TO.C,C13*%
X114689564Y-87810000D02*
X114235436Y-87810000D01*
X114689564Y-86340000D02*
X114235436Y-86340000D01*
%TO.C,C11*%
X122025000Y-99832936D02*
X122025000Y-100287064D01*
X120555000Y-99832936D02*
X120555000Y-100287064D01*
%TO.C,WifiModule1*%
X104980000Y-93155000D02*
X103650000Y-93155000D01*
X104980000Y-91825000D02*
X104980000Y-93155000D01*
X104980000Y-90555000D02*
X104980000Y-62555000D01*
X104980000Y-90555000D02*
X102320000Y-90555000D01*
X104980000Y-62555000D02*
X102320000Y-62555000D01*
X102320000Y-90555000D02*
X102320000Y-62555000D01*
%TO.C,R19*%
X151940000Y-136539564D02*
X151940000Y-136085436D01*
X153410000Y-136539564D02*
X153410000Y-136085436D01*
%TO.C,L1*%
X125360000Y-80385436D02*
X125360000Y-80839564D01*
X123890000Y-80385436D02*
X123890000Y-80839564D01*
%TO.C,R3*%
X184835000Y-134560436D02*
X184835000Y-135014564D01*
X183365000Y-134560436D02*
X183365000Y-135014564D01*
%TO.C,C5*%
X175045000Y-114595000D02*
X174545000Y-114595000D01*
X174795000Y-114845000D02*
X174795000Y-114345000D01*
X174305000Y-114230563D02*
X174305000Y-114095000D01*
X174305000Y-114230563D02*
X173240563Y-115295000D01*
X174305000Y-111839437D02*
X174305000Y-111975000D01*
X174305000Y-111839437D02*
X173240563Y-110775000D01*
X173240563Y-115295000D02*
X169785000Y-115295000D01*
X173240563Y-110775000D02*
X169785000Y-110775000D01*
X169785000Y-115295000D02*
X169785000Y-114095000D01*
X169785000Y-110775000D02*
X169785000Y-111975000D01*
%TO.C,C14*%
X107110436Y-91140000D02*
X107564564Y-91140000D01*
X107110436Y-92610000D02*
X107564564Y-92610000D01*
%TO.C,R13*%
X187014564Y-143360000D02*
X186560436Y-143360000D01*
X187014564Y-141890000D02*
X186560436Y-141890000D01*
%TO.C,C15*%
X133085000Y-139239564D02*
X133085000Y-138785436D01*
X131615000Y-139239564D02*
X131615000Y-138785436D01*
%TO.C,C17*%
X114460436Y-70215000D02*
X114914564Y-70215000D01*
X114460436Y-71685000D02*
X114914564Y-71685000D01*
%TO.C,LDO3.3V1*%
X178550000Y-105150000D02*
X175100000Y-105150000D01*
X178550000Y-105150000D02*
X180500000Y-105150000D01*
X178550000Y-110270000D02*
X176600000Y-110270000D01*
X178550000Y-110270000D02*
X180500000Y-110270000D01*
%TO.C,U3*%
X118790000Y-85540000D02*
X118790000Y-86490000D01*
X118790000Y-86490000D02*
X117500000Y-86490000D01*
X118790000Y-95760000D02*
X118790000Y-94810000D01*
X119740000Y-85540000D02*
X118790000Y-85540000D01*
X119740000Y-95760000D02*
X118790000Y-95760000D01*
X128060000Y-85540000D02*
X129010000Y-85540000D01*
X128060000Y-95760000D02*
X129010000Y-95760000D01*
X129010000Y-85540000D02*
X129010000Y-86490000D01*
X129010000Y-95760000D02*
X129010000Y-94810000D01*
%TO.C,R17*%
X109185436Y-82240000D02*
X109639564Y-82240000D01*
X109185436Y-83710000D02*
X109639564Y-83710000D01*
%TO.C,R24*%
X157085000Y-136085436D02*
X157085000Y-136539564D01*
X155615000Y-136085436D02*
X155615000Y-136539564D01*
%TO.C,C6*%
X182914564Y-120885000D02*
X182460436Y-120885000D01*
X182914564Y-119415000D02*
X182460436Y-119415000D01*
%TO.C,C18*%
X108060000Y-131335436D02*
X108060000Y-131789564D01*
X106590000Y-131335436D02*
X106590000Y-131789564D01*
%TO.C,C2*%
X184505436Y-104325000D02*
X184959564Y-104325000D01*
X184505436Y-105795000D02*
X184959564Y-105795000D01*
%TO.C,C19*%
X121560436Y-130240000D02*
X122014564Y-130240000D01*
X121560436Y-131710000D02*
X122014564Y-131710000D01*
%TO.C,J1*%
X114365000Y-51840000D02*
X114365000Y-52240000D01*
X114365000Y-51840000D02*
X128185000Y-51840000D01*
X114365000Y-54760000D02*
X114365000Y-60540000D01*
X114365000Y-63060000D02*
X114365000Y-65760000D01*
X115775000Y-50940000D02*
X116575000Y-51140000D01*
X115775000Y-51840000D02*
X115775000Y-50840000D01*
X116275000Y-50340000D02*
X126275000Y-50340000D01*
X116575000Y-51140000D02*
X118275000Y-51440000D01*
X118275000Y-51440000D02*
X119075000Y-51540000D01*
X119075000Y-51540000D02*
X120375000Y-51640000D01*
X120375000Y-51640000D02*
X122175000Y-51640000D01*
X122175000Y-51640000D02*
X123475000Y-51540000D01*
X123475000Y-51540000D02*
X124975000Y-51340000D01*
X124975000Y-51340000D02*
X126275000Y-51040000D01*
X126275000Y-51040000D02*
X126775000Y-50940000D01*
X126775000Y-51840000D02*
X126775000Y-50840000D01*
X128185000Y-51840000D02*
X128185000Y-52240000D01*
X128185000Y-54760000D02*
X128185000Y-60540000D01*
X128185000Y-63060000D02*
X128185000Y-65760000D01*
X128185000Y-65760000D02*
X114365000Y-65760000D01*
X116275000Y-50340000D02*
G75*
G03*
X115775000Y-50840000I1J-500001D01*
G01*
X126775000Y-50840000D02*
G75*
G03*
X126275000Y-50340000I-500000J0D01*
G01*
%TO.C,USB_D+1*%
X146875000Y-104750000D02*
G75*
G03*
X146875000Y-104750000I-1500000J0D01*
G01*
%TO.C,C7*%
X183925000Y-116340000D02*
X184425000Y-116340000D01*
X184175000Y-116090000D02*
X184175000Y-116590000D01*
X184665000Y-116704437D02*
X184665000Y-116840000D01*
X184665000Y-116704437D02*
X185729437Y-115640000D01*
X184665000Y-119095563D02*
X184665000Y-118960000D01*
X184665000Y-119095563D02*
X185729437Y-120160000D01*
X185729437Y-115640000D02*
X189185000Y-115640000D01*
X185729437Y-120160000D02*
X189185000Y-120160000D01*
X189185000Y-115640000D02*
X189185000Y-116840000D01*
X189185000Y-120160000D02*
X189185000Y-118960000D01*
%TO.C,J3*%
X102070000Y-102765000D02*
X103200000Y-102765000D01*
X102070000Y-103525000D02*
X102070000Y-102765000D01*
X102070000Y-104285000D02*
X102070000Y-115650000D01*
X102070000Y-104285000D02*
X102636529Y-104285000D01*
X102070000Y-115650000D02*
X102892470Y-115650000D01*
X103507530Y-115650000D02*
X104162470Y-115650000D01*
X103763471Y-104285000D02*
X103906529Y-104285000D01*
X103960000Y-102830000D02*
X104162470Y-102830000D01*
X103960000Y-102961529D02*
X103960000Y-102830000D01*
X103960000Y-104231529D02*
X103960000Y-104088471D01*
X104777530Y-102830000D02*
X105600000Y-102830000D01*
X104777530Y-115650000D02*
X105600000Y-115650000D01*
X105600000Y-102830000D02*
X105600000Y-115650000D01*
%TO.C,R5*%
X171960436Y-141615000D02*
X172414564Y-141615000D01*
X171960436Y-143085000D02*
X172414564Y-143085000D01*
%TO.C,C3*%
X178959564Y-112970000D02*
X178505436Y-112970000D01*
X178959564Y-111500000D02*
X178505436Y-111500000D01*
%TO.C,BT1*%
X134375000Y-51750000D02*
X137375000Y-51750000D01*
X134375000Y-54750000D02*
X134375000Y-51750000D01*
X134755000Y-52130000D02*
X134755000Y-100670000D01*
X134755000Y-52130000D02*
X192995000Y-52130000D01*
X134755000Y-100670000D02*
X192995000Y-100670000D01*
X192995000Y-52130000D02*
X192995000Y-100670000D01*
%TO.C,Y1*%
X110425000Y-72125000D02*
X109225000Y-72125000D01*
X110525000Y-73125000D02*
X110525000Y-73325000D01*
X109125000Y-73125000D02*
X109125000Y-73325000D01*
%TO.C,R16*%
X109110436Y-78340000D02*
X109564564Y-78340000D01*
X109110436Y-79810000D02*
X109564564Y-79810000D01*
%TO.C,R2*%
X107760436Y-62665000D02*
X108214564Y-62665000D01*
X107760436Y-64135000D02*
X108214564Y-64135000D01*
%TO.C,R4*%
X102890000Y-59739564D02*
X102890000Y-59285436D01*
X104360000Y-59739564D02*
X104360000Y-59285436D01*
%TO.C,R14*%
X122335000Y-68110436D02*
X122335000Y-68564564D01*
X120865000Y-68110436D02*
X120865000Y-68564564D01*
%TO.C,TP1*%
X152450000Y-104700000D02*
G75*
G03*
X152450000Y-104700000I-1500000J0D01*
G01*
%TO.C,C4*%
X172730436Y-107675000D02*
X173184564Y-107675000D01*
X172730436Y-109145000D02*
X173184564Y-109145000D01*
%TO.C,TP4*%
X152325000Y-116575000D02*
G75*
G03*
X152325000Y-116575000I-1500000J0D01*
G01*
%TO.C,R18*%
X146990000Y-136339564D02*
X146990000Y-135885436D01*
X148460000Y-136339564D02*
X148460000Y-135885436D01*
%TO.C,R6*%
X108335436Y-120590000D02*
X108789564Y-120590000D01*
X108335436Y-122060000D02*
X108789564Y-122060000D01*
%TO.C,LDO1.8V1*%
X180425000Y-120705000D02*
X179285000Y-120705000D01*
X179285000Y-120935000D02*
X179285000Y-120705000D01*
X179285000Y-120935000D02*
X176565000Y-120935000D01*
X179285000Y-116215000D02*
X179285000Y-116445000D01*
X176565000Y-120935000D02*
X176565000Y-119625000D01*
X176565000Y-117525000D02*
X176565000Y-116215000D01*
X176565000Y-116215000D02*
X179285000Y-116215000D01*
%TO.C,U2*%
X176725000Y-142710000D02*
X178725000Y-142710000D01*
X177725000Y-140490000D02*
X178725000Y-140490000D01*
%TO.C,R12*%
X126010000Y-68210436D02*
X126010000Y-68664564D01*
X124540000Y-68210436D02*
X124540000Y-68664564D01*
%TO.C,R7*%
X102260436Y-116440000D02*
X102714564Y-116440000D01*
X102260436Y-117910000D02*
X102714564Y-117910000D01*
%TO.C,R10*%
X115405000Y-106599564D02*
X115405000Y-106145436D01*
X116875000Y-106599564D02*
X116875000Y-106145436D01*
%TO.C,C24*%
X180440000Y-103289564D02*
X180440000Y-102835436D01*
X181910000Y-103289564D02*
X181910000Y-102835436D01*
%TO.C,D2*%
X114835000Y-129300000D02*
X114835000Y-127300000D01*
X114835000Y-129300000D02*
X110975000Y-129300000D01*
X114835000Y-127300000D02*
X110975000Y-127300000D01*
%TO.C,C23*%
X131285436Y-66565000D02*
X131739564Y-66565000D01*
X131285436Y-68035000D02*
X131739564Y-68035000D01*
%TO.C,C1*%
X182820000Y-108200000D02*
X183320000Y-108200000D01*
X183070000Y-107950000D02*
X183070000Y-108450000D01*
X183560000Y-108564437D02*
X183560000Y-108700000D01*
X183560000Y-108564437D02*
X184624437Y-107500000D01*
X183560000Y-110955563D02*
X183560000Y-110820000D01*
X183560000Y-110955563D02*
X184624437Y-112020000D01*
X184624437Y-107500000D02*
X188080000Y-107500000D01*
X184624437Y-112020000D02*
X188080000Y-112020000D01*
X188080000Y-107500000D02*
X188080000Y-108700000D01*
X188080000Y-112020000D02*
X188080000Y-110820000D01*
%TO.C,TP5*%
X152400000Y-120350000D02*
G75*
G03*
X152400000Y-120350000I-1500000J0D01*
G01*
%TO.C,U1*%
X177625000Y-132205000D02*
X179265000Y-132205000D01*
X179285000Y-138025000D02*
X175975000Y-138025000D01*
%TO.C,R1*%
X131860000Y-73485436D02*
X131860000Y-73939564D01*
X130390000Y-73485436D02*
X130390000Y-73939564D01*
%TO.C,R11*%
X120075000Y-106469564D02*
X120075000Y-106015436D01*
X121545000Y-106469564D02*
X121545000Y-106015436D01*
%TO.C,R8*%
X108564564Y-129060000D02*
X108110436Y-129060000D01*
X108564564Y-127590000D02*
X108110436Y-127590000D01*
%TO.C,Q1*%
X109835000Y-135387500D02*
X109835000Y-133712500D01*
X109835000Y-135387500D02*
X109835000Y-136037500D01*
X106715000Y-135387500D02*
X106715000Y-134737500D01*
X106715000Y-135387500D02*
X106715000Y-136037500D01*
%TO.C,C22*%
X128685000Y-78435436D02*
X128685000Y-78889564D01*
X127215000Y-78435436D02*
X127215000Y-78889564D01*
%TO.C,R21*%
X127389564Y-136410000D02*
X126935436Y-136410000D01*
X127389564Y-134940000D02*
X126935436Y-134940000D01*
%TO.C,TP2*%
X152400000Y-108825000D02*
G75*
G03*
X152400000Y-108825000I-1500000J0D01*
G01*
%TO.C,C9*%
X131260436Y-84415000D02*
X131714564Y-84415000D01*
X131260436Y-85885000D02*
X131714564Y-85885000D01*
%TO.C,U4*%
X117712500Y-127715000D02*
X115912500Y-127715000D01*
X117712500Y-127715000D02*
X118512500Y-127715000D01*
X117712500Y-130835000D02*
X116912500Y-130835000D01*
X117712500Y-130835000D02*
X118512500Y-130835000D01*
%TO.C,TP6*%
X152325000Y-124275000D02*
G75*
G03*
X152325000Y-124275000I-1500000J0D01*
G01*
%TO.C,C10*%
X111089564Y-91110000D02*
X110635436Y-91110000D01*
X111089564Y-89640000D02*
X110635436Y-89640000D01*
%TO.C,R9*%
X114535000Y-131285436D02*
X114535000Y-131739564D01*
X113065000Y-131285436D02*
X113065000Y-131739564D01*
%TO.C,R22*%
X121835436Y-135015000D02*
X122289564Y-135015000D01*
X121835436Y-136485000D02*
X122289564Y-136485000D01*
%TO.C,USB_D-1*%
X146725000Y-112000000D02*
G75*
G03*
X146725000Y-112000000I-1500000J0D01*
G01*
%TO.C,C21*%
X125335000Y-76885436D02*
X125335000Y-77339564D01*
X123865000Y-76885436D02*
X123865000Y-77339564D01*
%TO.C,C12*%
X114639564Y-94310000D02*
X114185436Y-94310000D01*
X114639564Y-92840000D02*
X114185436Y-92840000D01*
%TO.C,R20*%
X107835436Y-66890000D02*
X108289564Y-66890000D01*
X107835436Y-68360000D02*
X108289564Y-68360000D01*
%TO.C,SW1*%
X103825000Y-126975000D02*
X103275000Y-126975000D01*
X101700000Y-125950000D02*
X101700000Y-126875000D01*
X101700000Y-122175000D02*
X101700000Y-123100000D01*
X105400000Y-122175000D02*
X105400000Y-126875000D01*
X103825000Y-122075000D02*
X103275000Y-122075000D01*
%TO.C,C20*%
X121660436Y-127690000D02*
X122114564Y-127690000D01*
X121660436Y-129160000D02*
X122114564Y-129160000D01*
%TD*%
M02*
