%TF.GenerationSoftware,KiCad,Pcbnew,7.0.7*%
%TF.CreationDate,2024-05-08T11:13:52-07:00*%
%TF.ProjectId,Final_Project_Sutton_Yazzolino,46696e61-6c5f-4507-926f-6a6563745f53,rev?*%
%TF.SameCoordinates,Original*%
%TF.FileFunction,Copper,L2,Inr*%
%TF.FilePolarity,Positive*%
%FSLAX46Y46*%
G04 Gerber Fmt 4.6, Leading zero omitted, Abs format (unit mm)*
G04 Created by KiCad (PCBNEW 7.0.7) date 2024-05-08 11:13:52*
%MOMM*%
%LPD*%
G01*
G04 APERTURE LIST*
%TA.AperFunction,ComponentPad*%
%ADD10C,2.000000*%
%TD*%
%TA.AperFunction,ComponentPad*%
%ADD11O,0.890000X1.550000*%
%TD*%
%TA.AperFunction,ComponentPad*%
%ADD12O,1.250000X0.950000*%
%TD*%
%TA.AperFunction,ComponentPad*%
%ADD13R,1.700000X1.700000*%
%TD*%
%TA.AperFunction,ComponentPad*%
%ADD14O,1.700000X1.700000*%
%TD*%
%TA.AperFunction,ComponentPad*%
%ADD15R,1.000000X1.000000*%
%TD*%
%TA.AperFunction,ComponentPad*%
%ADD16O,1.000000X1.000000*%
%TD*%
%TA.AperFunction,ComponentPad*%
%ADD17R,3.000000X3.000000*%
%TD*%
%TA.AperFunction,ComponentPad*%
%ADD18C,3.000000*%
%TD*%
%TA.AperFunction,ViaPad*%
%ADD19C,0.800000*%
%TD*%
G04 APERTURE END LIST*
D10*
%TO.N,/I2C-DIO*%
%TO.C,Ie1*%
X150825000Y-112600000D03*
%TD*%
D11*
%TO.N,GND*%
%TO.C,J2*%
X120225000Y-142175000D03*
D12*
X121225000Y-139475000D03*
X126225000Y-139475000D03*
D11*
X127225000Y-142175000D03*
%TD*%
D13*
%TO.N,+3.3V*%
%TO.C,LEDmodule1*%
X132325000Y-142750000D03*
D14*
%TO.N,unconnected-(LEDmodule1-3V-Pad2)*%
X134865000Y-142750000D03*
%TO.N,GND*%
X137405000Y-142750000D03*
%TO.N,/SPI-CLK*%
X139945000Y-142750000D03*
%TO.N,/SPI_MISO*%
X142485000Y-142750000D03*
%TO.N,/SPI_MOSI*%
X145025000Y-142750000D03*
%TO.N,/LED_TFTCS*%
X147565000Y-142750000D03*
%TO.N,/LEDreset(unconnected)*%
X150105000Y-142750000D03*
%TO.N,/LED_DC*%
X152645000Y-142750000D03*
%TO.N,/LED_SDCS*%
X155185000Y-142750000D03*
%TO.N,/LED_LIT(unconnected)*%
X157725000Y-142750000D03*
%TD*%
D13*
%TO.N,+3.3V*%
%TO.C,WifiModule1*%
X103650000Y-91825000D03*
D14*
%TO.N,unconnected-(WifiModule1-3V-Pad2)*%
X103650000Y-89285000D03*
%TO.N,GND*%
X103650000Y-86745000D03*
%TO.N,/SPI-CLK*%
X103650000Y-84205000D03*
%TO.N,/SPI_MISO*%
X103650000Y-81665000D03*
%TO.N,/SPI_MOSI*%
X103650000Y-79125000D03*
%TO.N,/Wifi_CS*%
X103650000Y-76585000D03*
%TO.N,/Wifi_BUSY*%
X103650000Y-74045000D03*
%TO.N,/reset*%
X103650000Y-71505000D03*
%TO.N,/Wifi_GPO*%
X103650000Y-68965000D03*
%TO.N,/Wifi_RXI*%
X103650000Y-66425000D03*
%TO.N,/Wifi_TXO*%
X103650000Y-63885000D03*
%TD*%
D10*
%TO.N,/USB_D+*%
%TO.C,USB_D+1*%
X145375000Y-104750000D03*
%TD*%
D15*
%TO.N,+3.3V*%
%TO.C,J3*%
X103200000Y-103525000D03*
D16*
%TO.N,/I2C-SWDIO*%
X104470000Y-103525000D03*
%TO.N,GND*%
X103200000Y-104795000D03*
%TO.N,/I2C-SWCLK*%
X104470000Y-104795000D03*
%TO.N,GND*%
X103200000Y-106065000D03*
%TO.N,unconnected-(J3-SWO{slash}TDO-Pad6)*%
X104470000Y-106065000D03*
%TO.N,unconnected-(J3-KEY-Pad7)*%
X103200000Y-107335000D03*
%TO.N,unconnected-(J3-NC{slash}TDI-Pad8)*%
X104470000Y-107335000D03*
%TO.N,Net-(J3-GNDDetect)*%
X103200000Y-108605000D03*
%TO.N,/reset*%
X104470000Y-108605000D03*
%TO.N,N/C*%
X103200000Y-109875000D03*
X104470000Y-109875000D03*
X103200000Y-111145000D03*
X104470000Y-111145000D03*
X103200000Y-112415000D03*
X104470000Y-112415000D03*
X103200000Y-113685000D03*
X104470000Y-113685000D03*
X103200000Y-114955000D03*
X104470000Y-114955000D03*
%TD*%
D17*
%TO.N,+BATT*%
%TO.C,BT1*%
X137175000Y-61400000D03*
D18*
%TO.N,GND*%
X137175000Y-74200000D03*
%TD*%
D10*
%TO.N,/SPI_MISO*%
%TO.C,TP1*%
X150950000Y-104700000D03*
%TD*%
%TO.N,/I2C-CLK*%
%TO.C,TP4*%
X150825000Y-116575000D03*
%TD*%
%TO.N,/I2C-SWCLK*%
%TO.C,TP5*%
X150900000Y-120350000D03*
%TD*%
%TO.N,/SPI_MOSI*%
%TO.C,TP2*%
X150900000Y-108825000D03*
%TD*%
%TO.N,/I2C-SWDIO*%
%TO.C,TP6*%
X150825000Y-124275000D03*
%TD*%
%TO.N,/USB_D-*%
%TO.C,USB_D-1*%
X145225000Y-112000000D03*
%TD*%
D19*
%TO.N,/SPI-CLK*%
X144250000Y-129160000D03*
X146290000Y-114530000D03*
%TO.N,GND*%
X115190000Y-129720000D03*
X125120000Y-86360000D03*
X116810000Y-70930000D03*
X112325000Y-87100000D03*
X127980000Y-76510000D03*
X132375000Y-136875000D03*
X184725000Y-141400000D03*
X108700000Y-130700000D03*
X176625000Y-112175000D03*
X124000000Y-128475000D03*
X123925000Y-131000000D03*
X179950000Y-134350000D03*
X188950000Y-142650000D03*
X175950000Y-141600000D03*
X107425000Y-126900000D03*
X129575000Y-53450000D03*
X184800000Y-120200000D03*
X175950000Y-110850000D03*
X102625000Y-128725000D03*
X123550000Y-54575000D03*
X113000000Y-53425000D03*
X130990000Y-87010000D03*
X168225000Y-113050000D03*
X122680000Y-94950000D03*
X170825000Y-108400000D03*
X133280000Y-95380000D03*
X125050000Y-137850000D03*
X190700000Y-117925000D03*
X181275000Y-118550000D03*
X109475000Y-91800000D03*
X124630000Y-74950000D03*
X133620000Y-85110000D03*
X189600000Y-109750000D03*
X116725000Y-89700000D03*
X129550000Y-61900000D03*
X103500000Y-120200000D03*
X104600000Y-117175000D03*
X129640000Y-95240000D03*
X182550000Y-102150000D03*
X113025000Y-61850000D03*
X175275000Y-135125000D03*
X112275000Y-93425000D03*
X116390000Y-76080000D03*
X122680000Y-100970000D03*
X186825000Y-105075000D03*
X133650000Y-67330000D03*
%TO.N,+3.3V*%
X117275000Y-67450000D03*
X152630000Y-134160000D03*
X121325000Y-54625000D03*
X131125000Y-71500000D03*
X110125000Y-63400000D03*
X182675000Y-105775000D03*
X129350000Y-67375000D03*
X111790000Y-88960000D03*
X170000000Y-142360000D03*
X111480000Y-79150000D03*
X124100000Y-86430000D03*
X111520000Y-83010000D03*
X122130000Y-97890000D03*
X125275000Y-70575000D03*
X147740000Y-133900000D03*
X103625000Y-57300000D03*
X124560000Y-135770000D03*
X181620000Y-142950000D03*
X182675000Y-107100000D03*
X131475000Y-95400000D03*
X119070000Y-129260000D03*
X129350000Y-84975000D03*
X120785000Y-108355000D03*
X110700000Y-121400000D03*
X116115000Y-108535000D03*
X110200000Y-67650000D03*
X181925000Y-110875000D03*
X156430000Y-134160000D03*
X121600000Y-70475000D03*
%TO.N,+BATT*%
X108390000Y-141690000D03*
%TO.N,Net-(LDO1.8V1-VI)*%
X182010000Y-117040000D03*
X187060000Y-135160000D03*
%TO.N,Net-(U3-PA01)*%
X118580000Y-82380000D03*
X111100000Y-75640000D03*
%TO.N,Net-(U3-PA00)*%
X117440000Y-79460000D03*
X113050000Y-73810000D03*
%TO.N,Net-(D2-K)*%
X105380000Y-132710000D03*
X110850000Y-131460000D03*
%TO.N,/SPI_MOSI*%
X129010000Y-73890000D03*
X117970000Y-72770000D03*
X125050000Y-73330000D03*
%TO.N,/SD_CMD*%
X119420000Y-72260000D03*
X125660000Y-93890000D03*
%TO.N,/SPI-CLK*%
X106971051Y-86888948D03*
X130890000Y-78740000D03*
%TO.N,/SPI_MISO*%
X112060000Y-84620000D03*
%TO.N,/USB_D-*%
X140310000Y-98550000D03*
X145690000Y-126240000D03*
%TO.N,/USB_D+*%
X145300000Y-88270000D03*
X145040000Y-108610000D03*
X142910000Y-127680000D03*
%TO.N,/I2C-SWDIO*%
X109870000Y-87270000D03*
X118340000Y-77140000D03*
X128980000Y-123130000D03*
X127270000Y-117030000D03*
X109340000Y-103090000D03*
%TO.N,/I2C-SWCLK*%
X122160000Y-76100000D03*
X122210000Y-79530000D03*
X108010000Y-108600000D03*
%TO.N,/reset*%
X129710000Y-82470000D03*
X107470000Y-71460000D03*
%TO.N,Net-(JP1-A)*%
X180920000Y-137590000D03*
%TO.N,/PulseOx_IRD*%
X135760000Y-97850000D03*
X137550000Y-99200000D03*
X124990000Y-91570000D03*
%TO.N,Net-(JP2-A)*%
X181020000Y-132740000D03*
%TO.N,/PulseOx_RD*%
X143740000Y-97090000D03*
X136360000Y-96680000D03*
X127060000Y-92210000D03*
%TO.N,Net-(JP3-A)*%
X127630000Y-100260000D03*
%TO.N,Net-(JP4-A)*%
X124390000Y-99150000D03*
%TO.N,Net-(JP5-A)*%
X122780000Y-99140000D03*
%TO.N,/I2C-DIO*%
X116210000Y-104130000D03*
X177180000Y-131250000D03*
X140710000Y-115550000D03*
X167650000Y-131010000D03*
X177220000Y-134100000D03*
%TO.N,Net-(JP6-A)*%
X123158878Y-100064909D03*
%TO.N,/I2C-CLK*%
X120770000Y-104050000D03*
X167900000Y-135090000D03*
%TO.N,Net-(JP7-A)*%
X128190000Y-82990000D03*
%TO.N,Net-(JP8-B)*%
X123830000Y-83100000D03*
%TO.N,Net-(JP9-B)*%
X123050000Y-82120000D03*
%TO.N,Net-(JP10-B)*%
X132850000Y-90170000D03*
%TO.N,Net-(JP11-B)*%
X132580000Y-87830000D03*
%TO.N,/LED_TFTCS*%
X141350000Y-138140000D03*
X112230000Y-105260000D03*
%TO.N,/LED_SDCS*%
X121131329Y-97849238D03*
%TO.N,/PulseOx_INT*%
X173160000Y-126900000D03*
X143640000Y-98300000D03*
X149260000Y-99210000D03*
X173080000Y-123590000D03*
X154550000Y-99340000D03*
X181320000Y-134540000D03*
X176890000Y-127020000D03*
X133610000Y-105260000D03*
X142030000Y-104390000D03*
X173120000Y-119240000D03*
X132120000Y-98910000D03*
%TO.N,/TempSensor_INT*%
X127510000Y-89360000D03*
X143470000Y-94480000D03*
X173150000Y-140560000D03*
X138200000Y-94420000D03*
%TO.N,/TempSensor_ADDR*%
X143427953Y-95478618D03*
X175690000Y-143650000D03*
X127480000Y-91180000D03*
X137920000Y-95500000D03*
%TO.N,/Wifi_BUSY*%
X111640000Y-80420000D03*
X120040000Y-93810000D03*
%TO.N,/Wifi_CS*%
X114790000Y-95785500D03*
X109800000Y-80810000D03*
%TD*%
%TA.AperFunction,Conductor*%
%TO.N,GND*%
G36*
X103095481Y-105106584D02*
G01*
X103171564Y-105120000D01*
X103171568Y-105120000D01*
X103228432Y-105120000D01*
X103228436Y-105120000D01*
X103304469Y-105106593D01*
X103373906Y-105114337D01*
X103428136Y-105158393D01*
X103449938Y-105224774D01*
X103450000Y-105228709D01*
X103450000Y-105631290D01*
X103430315Y-105698329D01*
X103377511Y-105744084D01*
X103308353Y-105754028D01*
X103304469Y-105753406D01*
X103228440Y-105740000D01*
X103228436Y-105740000D01*
X103171564Y-105740000D01*
X103171559Y-105740000D01*
X103095531Y-105753406D01*
X103026092Y-105745662D01*
X102971864Y-105701605D01*
X102950062Y-105635223D01*
X102950000Y-105631290D01*
X102950000Y-105228709D01*
X102969685Y-105161670D01*
X103022489Y-105115915D01*
X103091647Y-105105971D01*
X103095481Y-105106584D01*
G37*
%TD.AperFunction*%
%TA.AperFunction,Conductor*%
G36*
X190399846Y-50398957D02*
G01*
X190405199Y-50399426D01*
X190799315Y-50451312D01*
X190804631Y-50452250D01*
X191192713Y-50538286D01*
X191197924Y-50539681D01*
X191577043Y-50659217D01*
X191582100Y-50661057D01*
X191949371Y-50813185D01*
X191954249Y-50815459D01*
X192306850Y-50999012D01*
X192311528Y-51001714D01*
X192646782Y-51215293D01*
X192651215Y-51218397D01*
X192966569Y-51460377D01*
X192970714Y-51463856D01*
X193263789Y-51732409D01*
X193267590Y-51736210D01*
X193390426Y-51870262D01*
X193536143Y-52029285D01*
X193539622Y-52033430D01*
X193781602Y-52348784D01*
X193784706Y-52353217D01*
X193998285Y-52688471D01*
X194000991Y-52693157D01*
X194182644Y-53042109D01*
X194184531Y-53045732D01*
X194186818Y-53050637D01*
X194338937Y-53417886D01*
X194340783Y-53422960D01*
X194460313Y-53802059D01*
X194461713Y-53807286D01*
X194547749Y-54195368D01*
X194548689Y-54200697D01*
X194600571Y-54594783D01*
X194601043Y-54600174D01*
X194618500Y-54999999D01*
X194618500Y-140000000D01*
X194601043Y-140399825D01*
X194600571Y-140405216D01*
X194548689Y-140799302D01*
X194547749Y-140804631D01*
X194461713Y-141192713D01*
X194460313Y-141197940D01*
X194340783Y-141577039D01*
X194338933Y-141582124D01*
X194186818Y-141949362D01*
X194184531Y-141954267D01*
X194000991Y-142306842D01*
X193998285Y-142311528D01*
X193784706Y-142646782D01*
X193781602Y-142651215D01*
X193539622Y-142966569D01*
X193536143Y-142970714D01*
X193267603Y-143263776D01*
X193263776Y-143267603D01*
X192970714Y-143536143D01*
X192966569Y-143539622D01*
X192651215Y-143781602D01*
X192646782Y-143784706D01*
X192311528Y-143998285D01*
X192306842Y-144000991D01*
X191954267Y-144184531D01*
X191949362Y-144186818D01*
X191677674Y-144299354D01*
X191606433Y-144328864D01*
X191582124Y-144338933D01*
X191577039Y-144340783D01*
X191197940Y-144460313D01*
X191192713Y-144461713D01*
X190804631Y-144547749D01*
X190799302Y-144548689D01*
X190405216Y-144600571D01*
X190399825Y-144601043D01*
X190000000Y-144618500D01*
X176284239Y-144618500D01*
X176217200Y-144598815D01*
X176171445Y-144546011D01*
X176161501Y-144476853D01*
X176190526Y-144413297D01*
X176211350Y-144394184D01*
X176301253Y-144328866D01*
X176429040Y-144186944D01*
X176524527Y-144021556D01*
X176583542Y-143839928D01*
X176603504Y-143650000D01*
X176583542Y-143460072D01*
X176524527Y-143278444D01*
X176429040Y-143113056D01*
X176301253Y-142971134D01*
X176272165Y-142950000D01*
X180706496Y-142950000D01*
X180726458Y-143139928D01*
X180726459Y-143139931D01*
X180785470Y-143321549D01*
X180785473Y-143321556D01*
X180880960Y-143486944D01*
X181008747Y-143628866D01*
X181163248Y-143741118D01*
X181337712Y-143818794D01*
X181524513Y-143858500D01*
X181715487Y-143858500D01*
X181902288Y-143818794D01*
X182076752Y-143741118D01*
X182231253Y-143628866D01*
X182359040Y-143486944D01*
X182454527Y-143321556D01*
X182513542Y-143139928D01*
X182533504Y-142950000D01*
X182513542Y-142760072D01*
X182454527Y-142578444D01*
X182359040Y-142413056D01*
X182231253Y-142271134D01*
X182076752Y-142158882D01*
X181902288Y-142081206D01*
X181902286Y-142081205D01*
X181715487Y-142041500D01*
X181524513Y-142041500D01*
X181337714Y-142081205D01*
X181163246Y-142158883D01*
X181008745Y-142271135D01*
X180880959Y-142413057D01*
X180785473Y-142578443D01*
X180785470Y-142578450D01*
X180729729Y-142750005D01*
X180726458Y-142760072D01*
X180706496Y-142950000D01*
X176272165Y-142950000D01*
X176146752Y-142858882D01*
X175972288Y-142781206D01*
X175972286Y-142781205D01*
X175785487Y-142741500D01*
X175594513Y-142741500D01*
X175407714Y-142781205D01*
X175233246Y-142858883D01*
X175078745Y-142971135D01*
X174950959Y-143113057D01*
X174855473Y-143278443D01*
X174855470Y-143278450D01*
X174796459Y-143460068D01*
X174796458Y-143460072D01*
X174776496Y-143650000D01*
X174796458Y-143839928D01*
X174796459Y-143839931D01*
X174855470Y-144021549D01*
X174855473Y-144021556D01*
X174950960Y-144186944D01*
X175078747Y-144328866D01*
X175168647Y-144394182D01*
X175211312Y-144449512D01*
X175217291Y-144519126D01*
X175184685Y-144580920D01*
X175123846Y-144615278D01*
X175095761Y-144618500D01*
X105000000Y-144618500D01*
X104600174Y-144601043D01*
X104594783Y-144600571D01*
X104200697Y-144548689D01*
X104195368Y-144547749D01*
X103807286Y-144461713D01*
X103802059Y-144460313D01*
X103422960Y-144340783D01*
X103417886Y-144338937D01*
X103050637Y-144186818D01*
X103045740Y-144184535D01*
X102693157Y-144000991D01*
X102688471Y-143998285D01*
X102353217Y-143784706D01*
X102348784Y-143781602D01*
X102311387Y-143752906D01*
X102175501Y-143648637D01*
X130966499Y-143648637D01*
X130966500Y-143648654D01*
X130973011Y-143709202D01*
X130973011Y-143709204D01*
X131010066Y-143808549D01*
X131024111Y-143846204D01*
X131111739Y-143963261D01*
X131228796Y-144050889D01*
X131365799Y-144101989D01*
X131393050Y-144104918D01*
X131426345Y-144108499D01*
X131426362Y-144108500D01*
X133223638Y-144108500D01*
X133223654Y-144108499D01*
X133250692Y-144105591D01*
X133284201Y-144101989D01*
X133421204Y-144050889D01*
X133538261Y-143963261D01*
X133625889Y-143846204D01*
X133671138Y-143724887D01*
X133713009Y-143668956D01*
X133778474Y-143644539D01*
X133846746Y-143659391D01*
X133878545Y-143684236D01*
X133941760Y-143752906D01*
X134119424Y-143891189D01*
X134119425Y-143891189D01*
X134119427Y-143891191D01*
X134179314Y-143923600D01*
X134317426Y-143998342D01*
X134530365Y-144071444D01*
X134752431Y-144108500D01*
X134977569Y-144108500D01*
X135199635Y-144071444D01*
X135412574Y-143998342D01*
X135610576Y-143891189D01*
X135788240Y-143752906D01*
X135909594Y-143621082D01*
X135940715Y-143587276D01*
X135940715Y-143587275D01*
X135940722Y-143587268D01*
X136034749Y-143443347D01*
X136087894Y-143397994D01*
X136157125Y-143388570D01*
X136220461Y-143418072D01*
X136240130Y-143440048D01*
X136366890Y-143621078D01*
X136533917Y-143788105D01*
X136727421Y-143923600D01*
X136941507Y-144023429D01*
X136941516Y-144023433D01*
X137155000Y-144080634D01*
X137155000Y-143362301D01*
X137174685Y-143295262D01*
X137227489Y-143249507D01*
X137296647Y-143239563D01*
X137369237Y-143250000D01*
X137369238Y-143250000D01*
X137440762Y-143250000D01*
X137440763Y-143250000D01*
X137513353Y-143239563D01*
X137582512Y-143249507D01*
X137635315Y-143295262D01*
X137655000Y-143362301D01*
X137655000Y-144080633D01*
X137868483Y-144023433D01*
X137868492Y-144023429D01*
X138082578Y-143923600D01*
X138276082Y-143788105D01*
X138443105Y-143621082D01*
X138569868Y-143440048D01*
X138624445Y-143396423D01*
X138693944Y-143389231D01*
X138756298Y-143420753D01*
X138775251Y-143443350D01*
X138869276Y-143587265D01*
X138869284Y-143587276D01*
X138995968Y-143724889D01*
X139021760Y-143752906D01*
X139199424Y-143891189D01*
X139199425Y-143891189D01*
X139199427Y-143891191D01*
X139259314Y-143923600D01*
X139397426Y-143998342D01*
X139610365Y-144071444D01*
X139832431Y-144108500D01*
X140057569Y-144108500D01*
X140279635Y-144071444D01*
X140492574Y-143998342D01*
X140690576Y-143891189D01*
X140868240Y-143752906D01*
X140989594Y-143621082D01*
X141020715Y-143587276D01*
X141020715Y-143587275D01*
X141020722Y-143587268D01*
X141111193Y-143448790D01*
X141164338Y-143403437D01*
X141233569Y-143394013D01*
X141296905Y-143423515D01*
X141318804Y-143448787D01*
X141409278Y-143587268D01*
X141409283Y-143587273D01*
X141409284Y-143587276D01*
X141535968Y-143724889D01*
X141561760Y-143752906D01*
X141739424Y-143891189D01*
X141739425Y-143891189D01*
X141739427Y-143891191D01*
X141799314Y-143923600D01*
X141937426Y-143998342D01*
X142150365Y-144071444D01*
X142372431Y-144108500D01*
X142597569Y-144108500D01*
X142819635Y-144071444D01*
X143032574Y-143998342D01*
X143230576Y-143891189D01*
X143408240Y-143752906D01*
X143529594Y-143621082D01*
X143560715Y-143587276D01*
X143560715Y-143587275D01*
X143560722Y-143587268D01*
X143651193Y-143448790D01*
X143704338Y-143403437D01*
X143773569Y-143394013D01*
X143836905Y-143423515D01*
X143858804Y-143448787D01*
X143949278Y-143587268D01*
X143949283Y-143587273D01*
X143949284Y-143587276D01*
X144075968Y-143724889D01*
X144101760Y-143752906D01*
X144279424Y-143891189D01*
X144279425Y-143891189D01*
X144279427Y-143891191D01*
X144339314Y-143923600D01*
X144477426Y-143998342D01*
X144690365Y-144071444D01*
X144912431Y-144108500D01*
X145137569Y-144108500D01*
X145359635Y-144071444D01*
X145572574Y-143998342D01*
X145770576Y-143891189D01*
X145948240Y-143752906D01*
X146069594Y-143621082D01*
X146100715Y-143587276D01*
X146100715Y-143587275D01*
X146100722Y-143587268D01*
X146191193Y-143448790D01*
X146244338Y-143403437D01*
X146313569Y-143394013D01*
X146376905Y-143423515D01*
X146398804Y-143448787D01*
X146489278Y-143587268D01*
X146489283Y-143587273D01*
X146489284Y-143587276D01*
X146615968Y-143724889D01*
X146641760Y-143752906D01*
X146819424Y-143891189D01*
X146819425Y-143891189D01*
X146819427Y-143891191D01*
X146879314Y-143923600D01*
X147017426Y-143998342D01*
X147230365Y-144071444D01*
X147452431Y-144108500D01*
X147677569Y-144108500D01*
X147899635Y-144071444D01*
X148112574Y-143998342D01*
X148310576Y-143891189D01*
X148488240Y-143752906D01*
X148609594Y-143621082D01*
X148640715Y-143587276D01*
X148640715Y-143587275D01*
X148640722Y-143587268D01*
X148731193Y-143448790D01*
X148784338Y-143403437D01*
X148853569Y-143394013D01*
X148916905Y-143423515D01*
X148938804Y-143448787D01*
X149029278Y-143587268D01*
X149029283Y-143587273D01*
X149029284Y-143587276D01*
X149155968Y-143724889D01*
X149181760Y-143752906D01*
X149359424Y-143891189D01*
X149359425Y-143891189D01*
X149359427Y-143891191D01*
X149419314Y-143923600D01*
X149557426Y-143998342D01*
X149770365Y-144071444D01*
X149992431Y-144108500D01*
X150217569Y-144108500D01*
X150439635Y-144071444D01*
X150652574Y-143998342D01*
X150850576Y-143891189D01*
X151028240Y-143752906D01*
X151149594Y-143621082D01*
X151180715Y-143587276D01*
X151180715Y-143587275D01*
X151180722Y-143587268D01*
X151271193Y-143448790D01*
X151324338Y-143403437D01*
X151393569Y-143394013D01*
X151456905Y-143423515D01*
X151478804Y-143448787D01*
X151569278Y-143587268D01*
X151569283Y-143587273D01*
X151569284Y-143587276D01*
X151695968Y-143724889D01*
X151721760Y-143752906D01*
X151899424Y-143891189D01*
X151899425Y-143891189D01*
X151899427Y-143891191D01*
X151959314Y-143923600D01*
X152097426Y-143998342D01*
X152310365Y-144071444D01*
X152532431Y-144108500D01*
X152757569Y-144108500D01*
X152979635Y-144071444D01*
X153192574Y-143998342D01*
X153390576Y-143891189D01*
X153568240Y-143752906D01*
X153689594Y-143621082D01*
X153720715Y-143587276D01*
X153720715Y-143587275D01*
X153720722Y-143587268D01*
X153811193Y-143448790D01*
X153864338Y-143403437D01*
X153933569Y-143394013D01*
X153996905Y-143423515D01*
X154018804Y-143448787D01*
X154109278Y-143587268D01*
X154109283Y-143587273D01*
X154109284Y-143587276D01*
X154235968Y-143724889D01*
X154261760Y-143752906D01*
X154439424Y-143891189D01*
X154439425Y-143891189D01*
X154439427Y-143891191D01*
X154499314Y-143923600D01*
X154637426Y-143998342D01*
X154850365Y-144071444D01*
X155072431Y-144108500D01*
X155297569Y-144108500D01*
X155519635Y-144071444D01*
X155732574Y-143998342D01*
X155930576Y-143891189D01*
X156108240Y-143752906D01*
X156229594Y-143621082D01*
X156260715Y-143587276D01*
X156260715Y-143587275D01*
X156260722Y-143587268D01*
X156351193Y-143448790D01*
X156404338Y-143403437D01*
X156473569Y-143394013D01*
X156536905Y-143423515D01*
X156558804Y-143448787D01*
X156649278Y-143587268D01*
X156649283Y-143587273D01*
X156649284Y-143587276D01*
X156775968Y-143724889D01*
X156801760Y-143752906D01*
X156979424Y-143891189D01*
X156979425Y-143891189D01*
X156979427Y-143891191D01*
X157039314Y-143923600D01*
X157177426Y-143998342D01*
X157390365Y-144071444D01*
X157612431Y-144108500D01*
X157837569Y-144108500D01*
X158059635Y-144071444D01*
X158272574Y-143998342D01*
X158470576Y-143891189D01*
X158648240Y-143752906D01*
X158769594Y-143621082D01*
X158800715Y-143587276D01*
X158800717Y-143587273D01*
X158800722Y-143587268D01*
X158923860Y-143398791D01*
X159014296Y-143192616D01*
X159069564Y-142974368D01*
X159069867Y-142970714D01*
X159088156Y-142750005D01*
X159088156Y-142749994D01*
X159069565Y-142525640D01*
X159069563Y-142525628D01*
X159066876Y-142515018D01*
X159027620Y-142360000D01*
X169086496Y-142360000D01*
X169106458Y-142549928D01*
X169108442Y-142556035D01*
X169165470Y-142731549D01*
X169165473Y-142731556D01*
X169260960Y-142896944D01*
X169388747Y-143038866D01*
X169543248Y-143151118D01*
X169717712Y-143228794D01*
X169904513Y-143268500D01*
X170095487Y-143268500D01*
X170282288Y-143228794D01*
X170456752Y-143151118D01*
X170611253Y-143038866D01*
X170739040Y-142896944D01*
X170834527Y-142731556D01*
X170893542Y-142549928D01*
X170913504Y-142360000D01*
X170893542Y-142170072D01*
X170834527Y-141988444D01*
X170739040Y-141823056D01*
X170611253Y-141681134D01*
X170456752Y-141568882D01*
X170282288Y-141491206D01*
X170282286Y-141491205D01*
X170095487Y-141451500D01*
X169904513Y-141451500D01*
X169717714Y-141491205D01*
X169630479Y-141530043D01*
X169561756Y-141560642D01*
X169543246Y-141568883D01*
X169388745Y-141681135D01*
X169260959Y-141823057D01*
X169165473Y-141988443D01*
X169165470Y-141988450D01*
X169106459Y-142170068D01*
X169106458Y-142170072D01*
X169086496Y-142360000D01*
X159027620Y-142360000D01*
X159014296Y-142307384D01*
X158923860Y-142101209D01*
X158910791Y-142081206D01*
X158850186Y-141988443D01*
X158800722Y-141912732D01*
X158800719Y-141912729D01*
X158800715Y-141912723D01*
X158648243Y-141747097D01*
X158648238Y-141747092D01*
X158478981Y-141615353D01*
X158470576Y-141608811D01*
X158470575Y-141608810D01*
X158470572Y-141608808D01*
X158272580Y-141501661D01*
X158272577Y-141501659D01*
X158272574Y-141501658D01*
X158272571Y-141501657D01*
X158272569Y-141501656D01*
X158059637Y-141428556D01*
X157837569Y-141391500D01*
X157612431Y-141391500D01*
X157390362Y-141428556D01*
X157177430Y-141501656D01*
X157177419Y-141501661D01*
X156979427Y-141608808D01*
X156979422Y-141608812D01*
X156801761Y-141747092D01*
X156801756Y-141747097D01*
X156649284Y-141912723D01*
X156649276Y-141912734D01*
X156558808Y-142051206D01*
X156505662Y-142096562D01*
X156436431Y-142105986D01*
X156373095Y-142076484D01*
X156351192Y-142051206D01*
X156286287Y-141951862D01*
X156260722Y-141912732D01*
X156260719Y-141912729D01*
X156260715Y-141912723D01*
X156108243Y-141747097D01*
X156108238Y-141747092D01*
X155938981Y-141615353D01*
X155930576Y-141608811D01*
X155930575Y-141608810D01*
X155930572Y-141608808D01*
X155732580Y-141501661D01*
X155732577Y-141501659D01*
X155732574Y-141501658D01*
X155732571Y-141501657D01*
X155732569Y-141501656D01*
X155519637Y-141428556D01*
X155297569Y-141391500D01*
X155072431Y-141391500D01*
X154850362Y-141428556D01*
X154637430Y-141501656D01*
X154637419Y-141501661D01*
X154439427Y-141608808D01*
X154439422Y-141608812D01*
X154261761Y-141747092D01*
X154261756Y-141747097D01*
X154109284Y-141912723D01*
X154109276Y-141912734D01*
X154018808Y-142051206D01*
X153965662Y-142096562D01*
X153896431Y-142105986D01*
X153833095Y-142076484D01*
X153811192Y-142051206D01*
X153746287Y-141951862D01*
X153720722Y-141912732D01*
X153720719Y-141912729D01*
X153720715Y-141912723D01*
X153568243Y-141747097D01*
X153568238Y-141747092D01*
X153398981Y-141615353D01*
X153390576Y-141608811D01*
X153390575Y-141608810D01*
X153390572Y-141608808D01*
X153192580Y-141501661D01*
X153192577Y-141501659D01*
X153192574Y-141501658D01*
X153192571Y-141501657D01*
X153192569Y-141501656D01*
X152979637Y-141428556D01*
X152757569Y-141391500D01*
X152532431Y-141391500D01*
X152310362Y-141428556D01*
X152097430Y-141501656D01*
X152097419Y-141501661D01*
X151899427Y-141608808D01*
X151899422Y-141608812D01*
X151721761Y-141747092D01*
X151721756Y-141747097D01*
X151569284Y-141912723D01*
X151569276Y-141912734D01*
X151478808Y-142051206D01*
X151425662Y-142096562D01*
X151356431Y-142105986D01*
X151293095Y-142076484D01*
X151271192Y-142051206D01*
X151206287Y-141951862D01*
X151180722Y-141912732D01*
X151180719Y-141912729D01*
X151180715Y-141912723D01*
X151028243Y-141747097D01*
X151028238Y-141747092D01*
X150858981Y-141615353D01*
X150850576Y-141608811D01*
X150850575Y-141608810D01*
X150850572Y-141608808D01*
X150652580Y-141501661D01*
X150652577Y-141501659D01*
X150652574Y-141501658D01*
X150652571Y-141501657D01*
X150652569Y-141501656D01*
X150439637Y-141428556D01*
X150217569Y-141391500D01*
X149992431Y-141391500D01*
X149770362Y-141428556D01*
X149557430Y-141501656D01*
X149557419Y-141501661D01*
X149359427Y-141608808D01*
X149359422Y-141608812D01*
X149181761Y-141747092D01*
X149181756Y-141747097D01*
X149029284Y-141912723D01*
X149029276Y-141912734D01*
X148938808Y-142051206D01*
X148885662Y-142096562D01*
X148816431Y-142105986D01*
X148753095Y-142076484D01*
X148731192Y-142051206D01*
X148666287Y-141951862D01*
X148640722Y-141912732D01*
X148640719Y-141912729D01*
X148640715Y-141912723D01*
X148488243Y-141747097D01*
X148488238Y-141747092D01*
X148318981Y-141615353D01*
X148310576Y-141608811D01*
X148310575Y-141608810D01*
X148310572Y-141608808D01*
X148112580Y-141501661D01*
X148112577Y-141501659D01*
X148112574Y-141501658D01*
X148112571Y-141501657D01*
X148112569Y-141501656D01*
X147899637Y-141428556D01*
X147677569Y-141391500D01*
X147452431Y-141391500D01*
X147230362Y-141428556D01*
X147017430Y-141501656D01*
X147017419Y-141501661D01*
X146819427Y-141608808D01*
X146819422Y-141608812D01*
X146641761Y-141747092D01*
X146641756Y-141747097D01*
X146489284Y-141912723D01*
X146489276Y-141912734D01*
X146398808Y-142051206D01*
X146345662Y-142096562D01*
X146276431Y-142105986D01*
X146213095Y-142076484D01*
X146191192Y-142051206D01*
X146126287Y-141951862D01*
X146100722Y-141912732D01*
X146100719Y-141912729D01*
X146100715Y-141912723D01*
X145948243Y-141747097D01*
X145948238Y-141747092D01*
X145778981Y-141615353D01*
X145770576Y-141608811D01*
X145770575Y-141608810D01*
X145770572Y-141608808D01*
X145572580Y-141501661D01*
X145572577Y-141501659D01*
X145572574Y-141501658D01*
X145572571Y-141501657D01*
X145572569Y-141501656D01*
X145359637Y-141428556D01*
X145137569Y-141391500D01*
X144912431Y-141391500D01*
X144690362Y-141428556D01*
X144477430Y-141501656D01*
X144477419Y-141501661D01*
X144279427Y-141608808D01*
X144279422Y-141608812D01*
X144101761Y-141747092D01*
X144101756Y-141747097D01*
X143949284Y-141912723D01*
X143949276Y-141912734D01*
X143858808Y-142051206D01*
X143805662Y-142096562D01*
X143736431Y-142105986D01*
X143673095Y-142076484D01*
X143651192Y-142051206D01*
X143586287Y-141951862D01*
X143560722Y-141912732D01*
X143560719Y-141912729D01*
X143560715Y-141912723D01*
X143408243Y-141747097D01*
X143408238Y-141747092D01*
X143238981Y-141615353D01*
X143230576Y-141608811D01*
X143230575Y-141608810D01*
X143230572Y-141608808D01*
X143032580Y-141501661D01*
X143032577Y-141501659D01*
X143032574Y-141501658D01*
X143032571Y-141501657D01*
X143032569Y-141501656D01*
X142819637Y-141428556D01*
X142597569Y-141391500D01*
X142372431Y-141391500D01*
X142150362Y-141428556D01*
X141937430Y-141501656D01*
X141937419Y-141501661D01*
X141739427Y-141608808D01*
X141739422Y-141608812D01*
X141561761Y-141747092D01*
X141561756Y-141747097D01*
X141409284Y-141912723D01*
X141409276Y-141912734D01*
X141318808Y-142051206D01*
X141265662Y-142096562D01*
X141196431Y-142105986D01*
X141133095Y-142076484D01*
X141111192Y-142051206D01*
X141046287Y-141951862D01*
X141020722Y-141912732D01*
X141020719Y-141912729D01*
X141020715Y-141912723D01*
X140868243Y-141747097D01*
X140868238Y-141747092D01*
X140698981Y-141615353D01*
X140690576Y-141608811D01*
X140690575Y-141608810D01*
X140690572Y-141608808D01*
X140492580Y-141501661D01*
X140492577Y-141501659D01*
X140492574Y-141501658D01*
X140492571Y-141501657D01*
X140492569Y-141501656D01*
X140279637Y-141428556D01*
X140057569Y-141391500D01*
X139832431Y-141391500D01*
X139610362Y-141428556D01*
X139397430Y-141501656D01*
X139397419Y-141501661D01*
X139199427Y-141608808D01*
X139199422Y-141608812D01*
X139021761Y-141747092D01*
X139021756Y-141747097D01*
X138869284Y-141912723D01*
X138869276Y-141912734D01*
X138775251Y-142056650D01*
X138722105Y-142102007D01*
X138652873Y-142111430D01*
X138589538Y-142081928D01*
X138569868Y-142059951D01*
X138443113Y-141878926D01*
X138443108Y-141878920D01*
X138276082Y-141711894D01*
X138082578Y-141576399D01*
X137868492Y-141476570D01*
X137868486Y-141476567D01*
X137655000Y-141419364D01*
X137655000Y-142137698D01*
X137635315Y-142204737D01*
X137582511Y-142250492D01*
X137513355Y-142260436D01*
X137440766Y-142250000D01*
X137440763Y-142250000D01*
X137369237Y-142250000D01*
X137369233Y-142250000D01*
X137296645Y-142260436D01*
X137227487Y-142250492D01*
X137174684Y-142204736D01*
X137155000Y-142137698D01*
X137155000Y-141419364D01*
X137154999Y-141419364D01*
X136941513Y-141476567D01*
X136941507Y-141476570D01*
X136727422Y-141576399D01*
X136727420Y-141576400D01*
X136533926Y-141711886D01*
X136533920Y-141711891D01*
X136366891Y-141878920D01*
X136366890Y-141878922D01*
X136240131Y-142059952D01*
X136185554Y-142103577D01*
X136116055Y-142110769D01*
X136053701Y-142079247D01*
X136034752Y-142056656D01*
X135940722Y-141912732D01*
X135940715Y-141912725D01*
X135940715Y-141912723D01*
X135788243Y-141747097D01*
X135788238Y-141747092D01*
X135618981Y-141615353D01*
X135610576Y-141608811D01*
X135610575Y-141608810D01*
X135610572Y-141608808D01*
X135412580Y-141501661D01*
X135412577Y-141501659D01*
X135412574Y-141501658D01*
X135412571Y-141501657D01*
X135412569Y-141501656D01*
X135199637Y-141428556D01*
X134977569Y-141391500D01*
X134752431Y-141391500D01*
X134530362Y-141428556D01*
X134317430Y-141501656D01*
X134317419Y-141501661D01*
X134119427Y-141608808D01*
X134119422Y-141608812D01*
X133941761Y-141747092D01*
X133878548Y-141815760D01*
X133818661Y-141851750D01*
X133748823Y-141849649D01*
X133691207Y-141810124D01*
X133671138Y-141775110D01*
X133625889Y-141653796D01*
X133596476Y-141614505D01*
X133538261Y-141536739D01*
X133421204Y-141449111D01*
X133366733Y-141428794D01*
X133284203Y-141398011D01*
X133223654Y-141391500D01*
X133223638Y-141391500D01*
X131426362Y-141391500D01*
X131426345Y-141391500D01*
X131365797Y-141398011D01*
X131365795Y-141398011D01*
X131228795Y-141449111D01*
X131111739Y-141536739D01*
X131024111Y-141653795D01*
X130973011Y-141790795D01*
X130973011Y-141790797D01*
X130966500Y-141851345D01*
X130966499Y-141851362D01*
X130966499Y-143648637D01*
X102175501Y-143648637D01*
X102033428Y-143539621D01*
X102029285Y-143536143D01*
X101908388Y-143425362D01*
X101736210Y-143267590D01*
X101732409Y-143263789D01*
X101463856Y-142970714D01*
X101460377Y-142966569D01*
X101459920Y-142965974D01*
X101218393Y-142651210D01*
X101215293Y-142646782D01*
X101001714Y-142311528D01*
X100999008Y-142306842D01*
X100995967Y-142301000D01*
X100815459Y-141954249D01*
X100813181Y-141949362D01*
X100803090Y-141925000D01*
X100705750Y-141690000D01*
X107476496Y-141690000D01*
X107496458Y-141879928D01*
X107496459Y-141879931D01*
X107555470Y-142061549D01*
X107555473Y-142061556D01*
X107650960Y-142226944D01*
X107725069Y-142309250D01*
X107775767Y-142365557D01*
X107778747Y-142368866D01*
X107933248Y-142481118D01*
X108107712Y-142558794D01*
X108294513Y-142598500D01*
X108485487Y-142598500D01*
X108672288Y-142558794D01*
X108685479Y-142552921D01*
X119280000Y-142552921D01*
X119294570Y-142696209D01*
X119352103Y-142879579D01*
X119352108Y-142879589D01*
X119445380Y-143047633D01*
X119445380Y-143047634D01*
X119570567Y-143193460D01*
X119570568Y-143193461D01*
X119722548Y-143311102D01*
X119722552Y-143311104D01*
X119895107Y-143395746D01*
X119975000Y-143416430D01*
X119975000Y-142856264D01*
X119994685Y-142789225D01*
X120047489Y-142743470D01*
X120116647Y-142733526D01*
X120123192Y-142734647D01*
X120224999Y-142754898D01*
X120225000Y-142754898D01*
X120225001Y-142754898D01*
X120326808Y-142734647D01*
X120396400Y-142740874D01*
X120451577Y-142783737D01*
X120474822Y-142849627D01*
X120475000Y-142856264D01*
X120475000Y-143420137D01*
X120643314Y-143357801D01*
X120643323Y-143357797D01*
X120806419Y-143256140D01*
X120806424Y-143256135D01*
X120945720Y-143123725D01*
X121055518Y-142965974D01*
X121131310Y-142789357D01*
X121170000Y-142601097D01*
X121170000Y-142552921D01*
X126280000Y-142552921D01*
X126294570Y-142696209D01*
X126352103Y-142879579D01*
X126352108Y-142879589D01*
X126445380Y-143047633D01*
X126445380Y-143047634D01*
X126570567Y-143193460D01*
X126570568Y-143193461D01*
X126722548Y-143311102D01*
X126722552Y-143311104D01*
X126895107Y-143395746D01*
X126974999Y-143416430D01*
X126974999Y-142856264D01*
X126994683Y-142789225D01*
X127047487Y-142743470D01*
X127116646Y-142733526D01*
X127123190Y-142734647D01*
X127224998Y-142754898D01*
X127225000Y-142754898D01*
X127225001Y-142754898D01*
X127326808Y-142734647D01*
X127396400Y-142740874D01*
X127451577Y-142783737D01*
X127474822Y-142849627D01*
X127475000Y-142856264D01*
X127475000Y-143420137D01*
X127643314Y-143357801D01*
X127643323Y-143357797D01*
X127806419Y-143256140D01*
X127806424Y-143256135D01*
X127945720Y-143123725D01*
X128055518Y-142965974D01*
X128131310Y-142789357D01*
X128170000Y-142601097D01*
X128170000Y-142425000D01*
X127599000Y-142425000D01*
X127531961Y-142405315D01*
X127486206Y-142352511D01*
X127475000Y-142301000D01*
X127475000Y-142049000D01*
X127494685Y-141981961D01*
X127547489Y-141936206D01*
X127599000Y-141925000D01*
X128170000Y-141925000D01*
X128170000Y-141797078D01*
X128155429Y-141653790D01*
X128097896Y-141470420D01*
X128097891Y-141470410D01*
X128004619Y-141302366D01*
X128004619Y-141302365D01*
X127879432Y-141156539D01*
X127879431Y-141156538D01*
X127727451Y-141038897D01*
X127727447Y-141038895D01*
X127554893Y-140954254D01*
X127475000Y-140933567D01*
X127475000Y-141493735D01*
X127455315Y-141560774D01*
X127402511Y-141606529D01*
X127333353Y-141616473D01*
X127326809Y-141615353D01*
X127225000Y-141595102D01*
X127123191Y-141615353D01*
X127053599Y-141609125D01*
X126998422Y-141566261D01*
X126975178Y-141500371D01*
X126975000Y-141493735D01*
X126975000Y-140929861D01*
X126974999Y-140929861D01*
X126806685Y-140992198D01*
X126806676Y-140992202D01*
X126643580Y-141093859D01*
X126643575Y-141093864D01*
X126504279Y-141226274D01*
X126394481Y-141384025D01*
X126318689Y-141560642D01*
X126280000Y-141748902D01*
X126280000Y-141925000D01*
X126851000Y-141925000D01*
X126918039Y-141944685D01*
X126963794Y-141997489D01*
X126975000Y-142049000D01*
X126975000Y-142301000D01*
X126955315Y-142368039D01*
X126902511Y-142413794D01*
X126851000Y-142425000D01*
X126280000Y-142425000D01*
X126280000Y-142552921D01*
X121170000Y-142552921D01*
X121170000Y-142425000D01*
X120599000Y-142425000D01*
X120531961Y-142405315D01*
X120486206Y-142352511D01*
X120475000Y-142301000D01*
X120475000Y-142049000D01*
X120494685Y-141981961D01*
X120547489Y-141936206D01*
X120599000Y-141925000D01*
X121170000Y-141925000D01*
X121170000Y-141797078D01*
X121155429Y-141653790D01*
X121097896Y-141470420D01*
X121097891Y-141470410D01*
X121004619Y-141302366D01*
X121004619Y-141302365D01*
X120879432Y-141156539D01*
X120879431Y-141156538D01*
X120727451Y-141038897D01*
X120727447Y-141038895D01*
X120554893Y-140954254D01*
X120475000Y-140933567D01*
X120475000Y-141493735D01*
X120455315Y-141560774D01*
X120402511Y-141606529D01*
X120333353Y-141616473D01*
X120326809Y-141615353D01*
X120280433Y-141606128D01*
X120225000Y-141595102D01*
X120224999Y-141595102D01*
X120123191Y-141615353D01*
X120053599Y-141609125D01*
X119998422Y-141566261D01*
X119975178Y-141500371D01*
X119975000Y-141493735D01*
X119975000Y-140929861D01*
X119974999Y-140929861D01*
X119806685Y-140992198D01*
X119806676Y-140992202D01*
X119643580Y-141093859D01*
X119643575Y-141093864D01*
X119504279Y-141226274D01*
X119394481Y-141384025D01*
X119318689Y-141560642D01*
X119280000Y-141748902D01*
X119280000Y-141925000D01*
X119851000Y-141925000D01*
X119918039Y-141944685D01*
X119963794Y-141997489D01*
X119975000Y-142049000D01*
X119975000Y-142301000D01*
X119955315Y-142368039D01*
X119902511Y-142413794D01*
X119851000Y-142425000D01*
X119280000Y-142425000D01*
X119280000Y-142552921D01*
X108685479Y-142552921D01*
X108846752Y-142481118D01*
X109001253Y-142368866D01*
X109129040Y-142226944D01*
X109224527Y-142061556D01*
X109283542Y-141879928D01*
X109303504Y-141690000D01*
X109283542Y-141500072D01*
X109224527Y-141318444D01*
X109129040Y-141153056D01*
X109001253Y-141011134D01*
X108846752Y-140898882D01*
X108672288Y-140821206D01*
X108672286Y-140821205D01*
X108485487Y-140781500D01*
X108294513Y-140781500D01*
X108107714Y-140821205D01*
X107933246Y-140898883D01*
X107778745Y-141011135D01*
X107650959Y-141153057D01*
X107555473Y-141318443D01*
X107555470Y-141318450D01*
X107498517Y-141493735D01*
X107496458Y-141500072D01*
X107476496Y-141690000D01*
X100705750Y-141690000D01*
X100661057Y-141582100D01*
X100659216Y-141577039D01*
X100659014Y-141576399D01*
X100539681Y-141197924D01*
X100538286Y-141192713D01*
X100452250Y-140804631D01*
X100451312Y-140799315D01*
X100419806Y-140560000D01*
X172236496Y-140560000D01*
X172256458Y-140749928D01*
X172256459Y-140749931D01*
X172315470Y-140931549D01*
X172315473Y-140931556D01*
X172410960Y-141096944D01*
X172538747Y-141238866D01*
X172693248Y-141351118D01*
X172867712Y-141428794D01*
X173054513Y-141468500D01*
X173245487Y-141468500D01*
X173432288Y-141428794D01*
X173606752Y-141351118D01*
X173761253Y-141238866D01*
X173889040Y-141096944D01*
X173984527Y-140931556D01*
X174043542Y-140749928D01*
X174063504Y-140560000D01*
X174043542Y-140370072D01*
X173984527Y-140188444D01*
X173889040Y-140023056D01*
X173761253Y-139881134D01*
X173606752Y-139768882D01*
X173432288Y-139691206D01*
X173432286Y-139691205D01*
X173245487Y-139651500D01*
X173054513Y-139651500D01*
X172867714Y-139691205D01*
X172693246Y-139768883D01*
X172538745Y-139881135D01*
X172410959Y-140023057D01*
X172315473Y-140188443D01*
X172315470Y-140188450D01*
X172304381Y-140222580D01*
X172256458Y-140370072D01*
X172236496Y-140560000D01*
X100419806Y-140560000D01*
X100399426Y-140405199D01*
X100398957Y-140399846D01*
X100381500Y-140000000D01*
X100381500Y-139945149D01*
X100381500Y-139725000D01*
X120127869Y-139725000D01*
X120195122Y-139906591D01*
X120195126Y-139906598D01*
X120300019Y-140074883D01*
X120436633Y-140218601D01*
X120436635Y-140218602D01*
X120599390Y-140331884D01*
X120781615Y-140410082D01*
X120974999Y-140449823D01*
X120974999Y-139874000D01*
X120994683Y-139806961D01*
X121047487Y-139761206D01*
X121098999Y-139750000D01*
X121351000Y-139750000D01*
X121418039Y-139769685D01*
X121463794Y-139822489D01*
X121475000Y-139874000D01*
X121475000Y-140444858D01*
X121572279Y-140434967D01*
X121761471Y-140375607D01*
X121761486Y-140375600D01*
X121934856Y-140279372D01*
X121934861Y-140279369D01*
X122085315Y-140150208D01*
X122085317Y-140150207D01*
X122206693Y-139993402D01*
X122206695Y-139993398D01*
X122294022Y-139815370D01*
X122317420Y-139725000D01*
X125127869Y-139725000D01*
X125195122Y-139906591D01*
X125195126Y-139906598D01*
X125300019Y-140074883D01*
X125436633Y-140218601D01*
X125436635Y-140218602D01*
X125599390Y-140331884D01*
X125781615Y-140410082D01*
X125974999Y-140449823D01*
X125974999Y-139874000D01*
X125994683Y-139806961D01*
X126047487Y-139761206D01*
X126098999Y-139750000D01*
X126351000Y-139750000D01*
X126418039Y-139769685D01*
X126463794Y-139822489D01*
X126475000Y-139874000D01*
X126474999Y-140444858D01*
X126572279Y-140434967D01*
X126761471Y-140375607D01*
X126761486Y-140375600D01*
X126934856Y-140279372D01*
X126934861Y-140279369D01*
X127085315Y-140150208D01*
X127085317Y-140150207D01*
X127206693Y-139993402D01*
X127206695Y-139993398D01*
X127294022Y-139815370D01*
X127317420Y-139725000D01*
X126756755Y-139725000D01*
X126689716Y-139705315D01*
X126643961Y-139652511D01*
X126634017Y-139583353D01*
X126635137Y-139576809D01*
X126655388Y-139475000D01*
X126635137Y-139373190D01*
X126641365Y-139303599D01*
X126684229Y-139248422D01*
X126750119Y-139225178D01*
X126756755Y-139225000D01*
X127322130Y-139225000D01*
X127322130Y-139224999D01*
X127254877Y-139043408D01*
X127254873Y-139043401D01*
X127149980Y-138875116D01*
X127013366Y-138731398D01*
X127013364Y-138731397D01*
X126850609Y-138618115D01*
X126668384Y-138539917D01*
X126475000Y-138500175D01*
X126475000Y-139076000D01*
X126455315Y-139143039D01*
X126402511Y-139188794D01*
X126351000Y-139200000D01*
X126098999Y-139200000D01*
X126031960Y-139180315D01*
X125986205Y-139127511D01*
X125974999Y-139076000D01*
X125974999Y-138505140D01*
X125877716Y-138515034D01*
X125688528Y-138574392D01*
X125688513Y-138574399D01*
X125515143Y-138670627D01*
X125515138Y-138670630D01*
X125364684Y-138799791D01*
X125364682Y-138799792D01*
X125243306Y-138956597D01*
X125243304Y-138956601D01*
X125155977Y-139134629D01*
X125132579Y-139224999D01*
X125132580Y-139225000D01*
X125693245Y-139225000D01*
X125760284Y-139244685D01*
X125806039Y-139297489D01*
X125815983Y-139366647D01*
X125814863Y-139373191D01*
X125794612Y-139474999D01*
X125814863Y-139576809D01*
X125808635Y-139646401D01*
X125765771Y-139701578D01*
X125699881Y-139724822D01*
X125693245Y-139725000D01*
X125127869Y-139725000D01*
X122317420Y-139725000D01*
X121756755Y-139725000D01*
X121689716Y-139705315D01*
X121643961Y-139652511D01*
X121634017Y-139583353D01*
X121635137Y-139576809D01*
X121655388Y-139475000D01*
X121635137Y-139373190D01*
X121641365Y-139303599D01*
X121684229Y-139248422D01*
X121750119Y-139225178D01*
X121756755Y-139225000D01*
X122322130Y-139225000D01*
X122322130Y-139224999D01*
X122254877Y-139043408D01*
X122254873Y-139043401D01*
X122149980Y-138875116D01*
X122013366Y-138731398D01*
X122013364Y-138731397D01*
X121850609Y-138618115D01*
X121668384Y-138539917D01*
X121475000Y-138500175D01*
X121475000Y-139076000D01*
X121455315Y-139143039D01*
X121402511Y-139188794D01*
X121351000Y-139200000D01*
X121098999Y-139200000D01*
X121031960Y-139180315D01*
X120986205Y-139127511D01*
X120974999Y-139076000D01*
X120974999Y-138505140D01*
X120974998Y-138505140D01*
X120877716Y-138515034D01*
X120688528Y-138574392D01*
X120688513Y-138574399D01*
X120515143Y-138670627D01*
X120515138Y-138670630D01*
X120364684Y-138799791D01*
X120364682Y-138799792D01*
X120243306Y-138956597D01*
X120243304Y-138956601D01*
X120155977Y-139134629D01*
X120132579Y-139224999D01*
X120132580Y-139225000D01*
X120693245Y-139225000D01*
X120760284Y-139244685D01*
X120806039Y-139297489D01*
X120815983Y-139366647D01*
X120814863Y-139373191D01*
X120794612Y-139474999D01*
X120814863Y-139576809D01*
X120808635Y-139646401D01*
X120765771Y-139701578D01*
X120699881Y-139724822D01*
X120693245Y-139725000D01*
X120127869Y-139725000D01*
X100381500Y-139725000D01*
X100381500Y-138140000D01*
X140436496Y-138140000D01*
X140456458Y-138329928D01*
X140456459Y-138329931D01*
X140515470Y-138511549D01*
X140515473Y-138511556D01*
X140610960Y-138676944D01*
X140738747Y-138818866D01*
X140893248Y-138931118D01*
X141067712Y-139008794D01*
X141254513Y-139048500D01*
X141445487Y-139048500D01*
X141632288Y-139008794D01*
X141806752Y-138931118D01*
X141961253Y-138818866D01*
X142089040Y-138676944D01*
X142184527Y-138511556D01*
X142243542Y-138329928D01*
X142263504Y-138140000D01*
X142243542Y-137950072D01*
X142184527Y-137768444D01*
X142089040Y-137603056D01*
X142077284Y-137590000D01*
X180006496Y-137590000D01*
X180026458Y-137779928D01*
X180026459Y-137779931D01*
X180085470Y-137961549D01*
X180085473Y-137961556D01*
X180180960Y-138126944D01*
X180308747Y-138268866D01*
X180463248Y-138381118D01*
X180637712Y-138458794D01*
X180824513Y-138498500D01*
X181015487Y-138498500D01*
X181202288Y-138458794D01*
X181376752Y-138381118D01*
X181531253Y-138268866D01*
X181659040Y-138126944D01*
X181754527Y-137961556D01*
X181813542Y-137779928D01*
X181833504Y-137590000D01*
X181813542Y-137400072D01*
X181754527Y-137218444D01*
X181659040Y-137053056D01*
X181531253Y-136911134D01*
X181376752Y-136798882D01*
X181202288Y-136721206D01*
X181202286Y-136721205D01*
X181015487Y-136681500D01*
X180824513Y-136681500D01*
X180637714Y-136721205D01*
X180463246Y-136798883D01*
X180308745Y-136911135D01*
X180180959Y-137053057D01*
X180085473Y-137218443D01*
X180085470Y-137218450D01*
X180043090Y-137348883D01*
X180026458Y-137400072D01*
X180006496Y-137590000D01*
X142077284Y-137590000D01*
X141961253Y-137461134D01*
X141806752Y-137348882D01*
X141632288Y-137271206D01*
X141632286Y-137271205D01*
X141445487Y-137231500D01*
X141254513Y-137231500D01*
X141067714Y-137271205D01*
X140893246Y-137348883D01*
X140738745Y-137461135D01*
X140610959Y-137603057D01*
X140515473Y-137768443D01*
X140515470Y-137768450D01*
X140456459Y-137950068D01*
X140456458Y-137950072D01*
X140436496Y-138140000D01*
X100381500Y-138140000D01*
X100381500Y-135770000D01*
X123646496Y-135770000D01*
X123666458Y-135959928D01*
X123666459Y-135959931D01*
X123725470Y-136141549D01*
X123725473Y-136141556D01*
X123820960Y-136306944D01*
X123948747Y-136448866D01*
X124103248Y-136561118D01*
X124277712Y-136638794D01*
X124464513Y-136678500D01*
X124655487Y-136678500D01*
X124842288Y-136638794D01*
X125016752Y-136561118D01*
X125171253Y-136448866D01*
X125299040Y-136306944D01*
X125394527Y-136141556D01*
X125453542Y-135959928D01*
X125473504Y-135770000D01*
X125453542Y-135580072D01*
X125394527Y-135398444D01*
X125299040Y-135233056D01*
X125171253Y-135091134D01*
X125169692Y-135090000D01*
X166986496Y-135090000D01*
X167006458Y-135279928D01*
X167006459Y-135279931D01*
X167065470Y-135461549D01*
X167065473Y-135461556D01*
X167160960Y-135626944D01*
X167288747Y-135768866D01*
X167443248Y-135881118D01*
X167617712Y-135958794D01*
X167804513Y-135998500D01*
X167995487Y-135998500D01*
X168182288Y-135958794D01*
X168356752Y-135881118D01*
X168511253Y-135768866D01*
X168639040Y-135626944D01*
X168734527Y-135461556D01*
X168793542Y-135279928D01*
X168813504Y-135090000D01*
X168793542Y-134900072D01*
X168734527Y-134718444D01*
X168639040Y-134553056D01*
X168511253Y-134411134D01*
X168356752Y-134298882D01*
X168182288Y-134221206D01*
X168182286Y-134221205D01*
X167995487Y-134181500D01*
X167804513Y-134181500D01*
X167617714Y-134221205D01*
X167617711Y-134221206D01*
X167617712Y-134221206D01*
X167463353Y-134289931D01*
X167443246Y-134298883D01*
X167288745Y-134411135D01*
X167160959Y-134553057D01*
X167065473Y-134718443D01*
X167065470Y-134718450D01*
X167009368Y-134891116D01*
X167006458Y-134900072D01*
X166986496Y-135090000D01*
X125169692Y-135090000D01*
X125016752Y-134978882D01*
X124842288Y-134901206D01*
X124842286Y-134901205D01*
X124655487Y-134861500D01*
X124464513Y-134861500D01*
X124277714Y-134901205D01*
X124103246Y-134978883D01*
X123948745Y-135091135D01*
X123820959Y-135233057D01*
X123725473Y-135398443D01*
X123725470Y-135398450D01*
X123666459Y-135580068D01*
X123666458Y-135580072D01*
X123646496Y-135770000D01*
X100381500Y-135770000D01*
X100381500Y-133900000D01*
X146826496Y-133900000D01*
X146846458Y-134089928D01*
X146846459Y-134089931D01*
X146905470Y-134271549D01*
X146905473Y-134271556D01*
X147000960Y-134436944D01*
X147128747Y-134578866D01*
X147283248Y-134691118D01*
X147457712Y-134768794D01*
X147644513Y-134808500D01*
X147835487Y-134808500D01*
X148022288Y-134768794D01*
X148196752Y-134691118D01*
X148351253Y-134578866D01*
X148479040Y-134436944D01*
X148574527Y-134271556D01*
X148610774Y-134160000D01*
X151716496Y-134160000D01*
X151736458Y-134349928D01*
X151736505Y-134350072D01*
X151795470Y-134531549D01*
X151795473Y-134531556D01*
X151890960Y-134696944D01*
X152018747Y-134838866D01*
X152173248Y-134951118D01*
X152347712Y-135028794D01*
X152534513Y-135068500D01*
X152725487Y-135068500D01*
X152912288Y-135028794D01*
X153086752Y-134951118D01*
X153241253Y-134838866D01*
X153369040Y-134696944D01*
X153464527Y-134531556D01*
X153523542Y-134349928D01*
X153543504Y-134160000D01*
X155516496Y-134160000D01*
X155536458Y-134349928D01*
X155536505Y-134350072D01*
X155595470Y-134531549D01*
X155595473Y-134531556D01*
X155690960Y-134696944D01*
X155818747Y-134838866D01*
X155973248Y-134951118D01*
X156147712Y-135028794D01*
X156334513Y-135068500D01*
X156525487Y-135068500D01*
X156712288Y-135028794D01*
X156886752Y-134951118D01*
X157041253Y-134838866D01*
X157169040Y-134696944D01*
X157264527Y-134531556D01*
X157323542Y-134349928D01*
X157343504Y-134160000D01*
X157337198Y-134100000D01*
X176306496Y-134100000D01*
X176326458Y-134289928D01*
X176326459Y-134289931D01*
X176385470Y-134471549D01*
X176385473Y-134471556D01*
X176480960Y-134636944D01*
X176608747Y-134778866D01*
X176763248Y-134891118D01*
X176937712Y-134968794D01*
X177124513Y-135008500D01*
X177315487Y-135008500D01*
X177502288Y-134968794D01*
X177676752Y-134891118D01*
X177831253Y-134778866D01*
X177959040Y-134636944D01*
X178054527Y-134471556D01*
X178113542Y-134289928D01*
X178133504Y-134100000D01*
X178113542Y-133910072D01*
X178054527Y-133728444D01*
X177959040Y-133563056D01*
X177831253Y-133421134D01*
X177676752Y-133308882D01*
X177502288Y-133231206D01*
X177502286Y-133231205D01*
X177315487Y-133191500D01*
X177124513Y-133191500D01*
X176937714Y-133231205D01*
X176937711Y-133231206D01*
X176937712Y-133231206D01*
X176802952Y-133291205D01*
X176763246Y-133308883D01*
X176608745Y-133421135D01*
X176480959Y-133563057D01*
X176385473Y-133728443D01*
X176385470Y-133728450D01*
X176326459Y-133910068D01*
X176326458Y-133910072D01*
X176306496Y-134100000D01*
X157337198Y-134100000D01*
X157323542Y-133970072D01*
X157264527Y-133788444D01*
X157169040Y-133623056D01*
X157041253Y-133481134D01*
X156886752Y-133368882D01*
X156712288Y-133291206D01*
X156712286Y-133291205D01*
X156525487Y-133251500D01*
X156334513Y-133251500D01*
X156147714Y-133291205D01*
X156060480Y-133330043D01*
X155986334Y-133363056D01*
X155973246Y-133368883D01*
X155818745Y-133481135D01*
X155690959Y-133623057D01*
X155595473Y-133788443D01*
X155595470Y-133788450D01*
X155555953Y-133910072D01*
X155536458Y-133970072D01*
X155516496Y-134160000D01*
X153543504Y-134160000D01*
X153523542Y-133970072D01*
X153464527Y-133788444D01*
X153369040Y-133623056D01*
X153241253Y-133481134D01*
X153086752Y-133368882D01*
X152912288Y-133291206D01*
X152912286Y-133291205D01*
X152725487Y-133251500D01*
X152534513Y-133251500D01*
X152347714Y-133291205D01*
X152260480Y-133330043D01*
X152186334Y-133363056D01*
X152173246Y-133368883D01*
X152018745Y-133481135D01*
X151890959Y-133623057D01*
X151795473Y-133788443D01*
X151795470Y-133788450D01*
X151755953Y-133910072D01*
X151736458Y-133970072D01*
X151716496Y-134160000D01*
X148610774Y-134160000D01*
X148633542Y-134089928D01*
X148653504Y-133900000D01*
X148633542Y-133710072D01*
X148574527Y-133528444D01*
X148479040Y-133363056D01*
X148351253Y-133221134D01*
X148196752Y-133108882D01*
X148022288Y-133031206D01*
X148022286Y-133031205D01*
X147835487Y-132991500D01*
X147644513Y-132991500D01*
X147457714Y-133031205D01*
X147457711Y-133031206D01*
X147457712Y-133031206D01*
X147344624Y-133081556D01*
X147283246Y-133108883D01*
X147128745Y-133221135D01*
X147000959Y-133363057D01*
X146905473Y-133528443D01*
X146905470Y-133528450D01*
X146859086Y-133671206D01*
X146846458Y-133710072D01*
X146826496Y-133900000D01*
X100381500Y-133900000D01*
X100381500Y-132710000D01*
X104466496Y-132710000D01*
X104486458Y-132899928D01*
X104486459Y-132899931D01*
X104545470Y-133081549D01*
X104545473Y-133081556D01*
X104640960Y-133246944D01*
X104768747Y-133388866D01*
X104923248Y-133501118D01*
X105097712Y-133578794D01*
X105284513Y-133618500D01*
X105475487Y-133618500D01*
X105662288Y-133578794D01*
X105836752Y-133501118D01*
X105991253Y-133388866D01*
X106119040Y-133246944D01*
X106214527Y-133081556D01*
X106273542Y-132899928D01*
X106290351Y-132740000D01*
X180106496Y-132740000D01*
X180126458Y-132929928D01*
X180126459Y-132929931D01*
X180185470Y-133111549D01*
X180185473Y-133111556D01*
X180280960Y-133276944D01*
X180408747Y-133418866D01*
X180563248Y-133531118D01*
X180737712Y-133608794D01*
X180737715Y-133608794D01*
X180738895Y-133609320D01*
X180792132Y-133654570D01*
X180812454Y-133721419D01*
X180793409Y-133788643D01*
X180761347Y-133822917D01*
X180708746Y-133861134D01*
X180580959Y-134003057D01*
X180485473Y-134168443D01*
X180485470Y-134168450D01*
X180426504Y-134349931D01*
X180426458Y-134350072D01*
X180406496Y-134540000D01*
X180426458Y-134729928D01*
X180426459Y-134729931D01*
X180485470Y-134911549D01*
X180485473Y-134911556D01*
X180580960Y-135076944D01*
X180708747Y-135218866D01*
X180863248Y-135331118D01*
X181037712Y-135408794D01*
X181224513Y-135448500D01*
X181415487Y-135448500D01*
X181602288Y-135408794D01*
X181776752Y-135331118D01*
X181931253Y-135218866D01*
X181984256Y-135160000D01*
X186146496Y-135160000D01*
X186166458Y-135349928D01*
X186166459Y-135349931D01*
X186225470Y-135531549D01*
X186225473Y-135531556D01*
X186320960Y-135696944D01*
X186448747Y-135838866D01*
X186603248Y-135951118D01*
X186777712Y-136028794D01*
X186964513Y-136068500D01*
X187155487Y-136068500D01*
X187342288Y-136028794D01*
X187516752Y-135951118D01*
X187671253Y-135838866D01*
X187799040Y-135696944D01*
X187894527Y-135531556D01*
X187953542Y-135349928D01*
X187973504Y-135160000D01*
X187953542Y-134970072D01*
X187894527Y-134788444D01*
X187799040Y-134623056D01*
X187671253Y-134481134D01*
X187516752Y-134368882D01*
X187342288Y-134291206D01*
X187342286Y-134291205D01*
X187155487Y-134251500D01*
X186964513Y-134251500D01*
X186777714Y-134291205D01*
X186603246Y-134368883D01*
X186448745Y-134481135D01*
X186320959Y-134623057D01*
X186225473Y-134788443D01*
X186225470Y-134788450D01*
X186166873Y-134968794D01*
X186166458Y-134970072D01*
X186146496Y-135160000D01*
X181984256Y-135160000D01*
X182059040Y-135076944D01*
X182154527Y-134911556D01*
X182213542Y-134729928D01*
X182233504Y-134540000D01*
X182213542Y-134350072D01*
X182154527Y-134168444D01*
X182059040Y-134003056D01*
X181931253Y-133861134D01*
X181776752Y-133748882D01*
X181602288Y-133671206D01*
X181602287Y-133671205D01*
X181601104Y-133670679D01*
X181547866Y-133625428D01*
X181527545Y-133558579D01*
X181546590Y-133491356D01*
X181578649Y-133457084D01*
X181631253Y-133418866D01*
X181759040Y-133276944D01*
X181854527Y-133111556D01*
X181913542Y-132929928D01*
X181933504Y-132740000D01*
X181913542Y-132550072D01*
X181854527Y-132368444D01*
X181759040Y-132203056D01*
X181631253Y-132061134D01*
X181476752Y-131948882D01*
X181302288Y-131871206D01*
X181302286Y-131871205D01*
X181115487Y-131831500D01*
X180924513Y-131831500D01*
X180737714Y-131871205D01*
X180737711Y-131871206D01*
X180737712Y-131871206D01*
X180608210Y-131928864D01*
X180563246Y-131948883D01*
X180408745Y-132061135D01*
X180280959Y-132203057D01*
X180185473Y-132368443D01*
X180185470Y-132368450D01*
X180126459Y-132550068D01*
X180126458Y-132550072D01*
X180106496Y-132740000D01*
X106290351Y-132740000D01*
X106293504Y-132710000D01*
X106273542Y-132520072D01*
X106214527Y-132338444D01*
X106119040Y-132173056D01*
X105991253Y-132031134D01*
X105836752Y-131918882D01*
X105662288Y-131841206D01*
X105662286Y-131841205D01*
X105475487Y-131801500D01*
X105284513Y-131801500D01*
X105097714Y-131841205D01*
X104923246Y-131918883D01*
X104768745Y-132031135D01*
X104640959Y-132173057D01*
X104545473Y-132338443D01*
X104545470Y-132338450D01*
X104486459Y-132520068D01*
X104486458Y-132520072D01*
X104466496Y-132710000D01*
X100381500Y-132710000D01*
X100381500Y-131460000D01*
X109936496Y-131460000D01*
X109956458Y-131649928D01*
X109956459Y-131649931D01*
X110015470Y-131831549D01*
X110015473Y-131831556D01*
X110110960Y-131996944D01*
X110238747Y-132138866D01*
X110393248Y-132251118D01*
X110567712Y-132328794D01*
X110754513Y-132368500D01*
X110945487Y-132368500D01*
X111132288Y-132328794D01*
X111306752Y-132251118D01*
X111461253Y-132138866D01*
X111589040Y-131996944D01*
X111684527Y-131831556D01*
X111743542Y-131649928D01*
X111763504Y-131460000D01*
X111743542Y-131270072D01*
X111684527Y-131088444D01*
X111639237Y-131010000D01*
X166736496Y-131010000D01*
X166756458Y-131199928D01*
X166756459Y-131199931D01*
X166815470Y-131381549D01*
X166815473Y-131381556D01*
X166910960Y-131546944D01*
X167038747Y-131688866D01*
X167193248Y-131801118D01*
X167367712Y-131878794D01*
X167554513Y-131918500D01*
X167745487Y-131918500D01*
X167932288Y-131878794D01*
X168106752Y-131801118D01*
X168261253Y-131688866D01*
X168389040Y-131546944D01*
X168484527Y-131381556D01*
X168527272Y-131250000D01*
X176266496Y-131250000D01*
X176286458Y-131439928D01*
X176286459Y-131439931D01*
X176345470Y-131621549D01*
X176345473Y-131621556D01*
X176440960Y-131786944D01*
X176568747Y-131928866D01*
X176723248Y-132041118D01*
X176897712Y-132118794D01*
X177084513Y-132158500D01*
X177275487Y-132158500D01*
X177462288Y-132118794D01*
X177636752Y-132041118D01*
X177791253Y-131928866D01*
X177919040Y-131786944D01*
X178014527Y-131621556D01*
X178073542Y-131439928D01*
X178093504Y-131250000D01*
X178073542Y-131060072D01*
X178014527Y-130878444D01*
X177919040Y-130713056D01*
X177791253Y-130571134D01*
X177636752Y-130458882D01*
X177462288Y-130381206D01*
X177462286Y-130381205D01*
X177275487Y-130341500D01*
X177084513Y-130341500D01*
X176897714Y-130381205D01*
X176723246Y-130458883D01*
X176568745Y-130571135D01*
X176440959Y-130713057D01*
X176345473Y-130878443D01*
X176345470Y-130878450D01*
X176286459Y-131060068D01*
X176286458Y-131060072D01*
X176266496Y-131250000D01*
X168527272Y-131250000D01*
X168543542Y-131199928D01*
X168563504Y-131010000D01*
X168543542Y-130820072D01*
X168484527Y-130638444D01*
X168389040Y-130473056D01*
X168261253Y-130331134D01*
X168106752Y-130218882D01*
X167932288Y-130141206D01*
X167932286Y-130141205D01*
X167745487Y-130101500D01*
X167554513Y-130101500D01*
X167367714Y-130141205D01*
X167193246Y-130218883D01*
X167038745Y-130331135D01*
X166910959Y-130473057D01*
X166815473Y-130638443D01*
X166815470Y-130638450D01*
X166756459Y-130820068D01*
X166756458Y-130820072D01*
X166736496Y-131010000D01*
X111639237Y-131010000D01*
X111589040Y-130923056D01*
X111461253Y-130781134D01*
X111306752Y-130668882D01*
X111132288Y-130591206D01*
X111132286Y-130591205D01*
X110945487Y-130551500D01*
X110754513Y-130551500D01*
X110567714Y-130591205D01*
X110393246Y-130668883D01*
X110238745Y-130781135D01*
X110110959Y-130923057D01*
X110015473Y-131088443D01*
X110015470Y-131088450D01*
X109956459Y-131270068D01*
X109956458Y-131270072D01*
X109936496Y-131460000D01*
X100381500Y-131460000D01*
X100381500Y-129260000D01*
X118156496Y-129260000D01*
X118176458Y-129449928D01*
X118176459Y-129449931D01*
X118235470Y-129631549D01*
X118235473Y-129631556D01*
X118330960Y-129796944D01*
X118458747Y-129938866D01*
X118613248Y-130051118D01*
X118787712Y-130128794D01*
X118974513Y-130168500D01*
X119165487Y-130168500D01*
X119352288Y-130128794D01*
X119526752Y-130051118D01*
X119681253Y-129938866D01*
X119809040Y-129796944D01*
X119904527Y-129631556D01*
X119963542Y-129449928D01*
X119983504Y-129260000D01*
X119963542Y-129070072D01*
X119904527Y-128888444D01*
X119809040Y-128723056D01*
X119681253Y-128581134D01*
X119526752Y-128468882D01*
X119352288Y-128391206D01*
X119352286Y-128391205D01*
X119165487Y-128351500D01*
X118974513Y-128351500D01*
X118787714Y-128391205D01*
X118613246Y-128468883D01*
X118458745Y-128581135D01*
X118330959Y-128723057D01*
X118235473Y-128888443D01*
X118235470Y-128888450D01*
X118208950Y-128970072D01*
X118176458Y-129070072D01*
X118156496Y-129260000D01*
X100381500Y-129260000D01*
X100381500Y-127680000D01*
X141996496Y-127680000D01*
X142016458Y-127869928D01*
X142016459Y-127869931D01*
X142075470Y-128051549D01*
X142075473Y-128051556D01*
X142170960Y-128216944D01*
X142237825Y-128291205D01*
X142292114Y-128351500D01*
X142298747Y-128358866D01*
X142453248Y-128471118D01*
X142627712Y-128548794D01*
X142814513Y-128588500D01*
X143005487Y-128588500D01*
X143192288Y-128548794D01*
X143330290Y-128487351D01*
X143399537Y-128478067D01*
X143462814Y-128507695D01*
X143500027Y-128566830D01*
X143499362Y-128636696D01*
X143488111Y-128662630D01*
X143415472Y-128788446D01*
X143415470Y-128788450D01*
X143356459Y-128970068D01*
X143356458Y-128970072D01*
X143336496Y-129160000D01*
X143356458Y-129349928D01*
X143356459Y-129349931D01*
X143415470Y-129531549D01*
X143415473Y-129531556D01*
X143510960Y-129696944D01*
X143638747Y-129838866D01*
X143793248Y-129951118D01*
X143967712Y-130028794D01*
X144154513Y-130068500D01*
X144345487Y-130068500D01*
X144532288Y-130028794D01*
X144706752Y-129951118D01*
X144861253Y-129838866D01*
X144989040Y-129696944D01*
X145084527Y-129531556D01*
X145143542Y-129349928D01*
X145163504Y-129160000D01*
X145143542Y-128970072D01*
X145084527Y-128788444D01*
X144989040Y-128623056D01*
X144861253Y-128481134D01*
X144706752Y-128368882D01*
X144532288Y-128291206D01*
X144532286Y-128291205D01*
X144345487Y-128251500D01*
X144154513Y-128251500D01*
X143967714Y-128291205D01*
X143967711Y-128291206D01*
X143967712Y-128291206D01*
X143829710Y-128352648D01*
X143760461Y-128361932D01*
X143697185Y-128332304D01*
X143659972Y-128273168D01*
X143660637Y-128203302D01*
X143671889Y-128177368D01*
X143744527Y-128051556D01*
X143803542Y-127869928D01*
X143823504Y-127680000D01*
X143803542Y-127490072D01*
X143744527Y-127308444D01*
X143649040Y-127143056D01*
X143521253Y-127001134D01*
X143366752Y-126888882D01*
X143192288Y-126811206D01*
X143192286Y-126811205D01*
X143005487Y-126771500D01*
X142814513Y-126771500D01*
X142627714Y-126811205D01*
X142453246Y-126888883D01*
X142298745Y-127001135D01*
X142170959Y-127143057D01*
X142075473Y-127308443D01*
X142075470Y-127308450D01*
X142033721Y-127436942D01*
X142016458Y-127490072D01*
X141996496Y-127680000D01*
X100381500Y-127680000D01*
X100381500Y-126240000D01*
X144776496Y-126240000D01*
X144796458Y-126429928D01*
X144796459Y-126429931D01*
X144855470Y-126611549D01*
X144855473Y-126611556D01*
X144950960Y-126776944D01*
X145078747Y-126918866D01*
X145233248Y-127031118D01*
X145407712Y-127108794D01*
X145594513Y-127148500D01*
X145785487Y-127148500D01*
X145972288Y-127108794D01*
X146146752Y-127031118D01*
X146301253Y-126918866D01*
X146318240Y-126900000D01*
X172246496Y-126900000D01*
X172266458Y-127089928D01*
X172266459Y-127089931D01*
X172325470Y-127271549D01*
X172325473Y-127271556D01*
X172420960Y-127436944D01*
X172548747Y-127578866D01*
X172703248Y-127691118D01*
X172877712Y-127768794D01*
X173064513Y-127808500D01*
X173255487Y-127808500D01*
X173442288Y-127768794D01*
X173616752Y-127691118D01*
X173771253Y-127578866D01*
X173899040Y-127436944D01*
X173994527Y-127271556D01*
X174053542Y-127089928D01*
X174060892Y-127020000D01*
X175976496Y-127020000D01*
X175996458Y-127209928D01*
X175996459Y-127209931D01*
X176055470Y-127391549D01*
X176055473Y-127391556D01*
X176150960Y-127556944D01*
X176278747Y-127698866D01*
X176433248Y-127811118D01*
X176607712Y-127888794D01*
X176794513Y-127928500D01*
X176985487Y-127928500D01*
X177172288Y-127888794D01*
X177346752Y-127811118D01*
X177501253Y-127698866D01*
X177629040Y-127556944D01*
X177724527Y-127391556D01*
X177783542Y-127209928D01*
X177803504Y-127020000D01*
X177783542Y-126830072D01*
X177724527Y-126648444D01*
X177629040Y-126483056D01*
X177501253Y-126341134D01*
X177346752Y-126228882D01*
X177172288Y-126151206D01*
X177172286Y-126151205D01*
X176985487Y-126111500D01*
X176794513Y-126111500D01*
X176607714Y-126151205D01*
X176607711Y-126151206D01*
X176607712Y-126151206D01*
X176450651Y-126221134D01*
X176433246Y-126228883D01*
X176278745Y-126341135D01*
X176150959Y-126483057D01*
X176055473Y-126648443D01*
X176055470Y-126648450D01*
X176015489Y-126771500D01*
X175996458Y-126830072D01*
X175976496Y-127020000D01*
X174060892Y-127020000D01*
X174073504Y-126900000D01*
X174053542Y-126710072D01*
X173994527Y-126528444D01*
X173899040Y-126363056D01*
X173771253Y-126221134D01*
X173616752Y-126108882D01*
X173442288Y-126031206D01*
X173442286Y-126031205D01*
X173255487Y-125991500D01*
X173064513Y-125991500D01*
X172877714Y-126031205D01*
X172703246Y-126108883D01*
X172548745Y-126221135D01*
X172420959Y-126363057D01*
X172325473Y-126528443D01*
X172325470Y-126528450D01*
X172286482Y-126648444D01*
X172266458Y-126710072D01*
X172260002Y-126771500D01*
X172247665Y-126888882D01*
X172246496Y-126900000D01*
X146318240Y-126900000D01*
X146429040Y-126776944D01*
X146524527Y-126611556D01*
X146583542Y-126429928D01*
X146603504Y-126240000D01*
X146583542Y-126050072D01*
X146524527Y-125868444D01*
X146429040Y-125703056D01*
X146301253Y-125561134D01*
X146146752Y-125448882D01*
X145972288Y-125371206D01*
X145972286Y-125371205D01*
X145785487Y-125331500D01*
X145594513Y-125331500D01*
X145407714Y-125371205D01*
X145233246Y-125448883D01*
X145078745Y-125561135D01*
X144950959Y-125703057D01*
X144855473Y-125868443D01*
X144855470Y-125868450D01*
X144815489Y-125991500D01*
X144796458Y-126050072D01*
X144776496Y-126240000D01*
X100381500Y-126240000D01*
X100381500Y-124525000D01*
X101591306Y-124525000D01*
X101611195Y-124676070D01*
X101611196Y-124676074D01*
X101669504Y-124816844D01*
X101669505Y-124816846D01*
X101669506Y-124816847D01*
X101762266Y-124937734D01*
X101883153Y-125030494D01*
X102023929Y-125088805D01*
X102137067Y-125103700D01*
X102137074Y-125103700D01*
X102212926Y-125103700D01*
X102212933Y-125103700D01*
X102326071Y-125088805D01*
X102466847Y-125030494D01*
X102587734Y-124937734D01*
X102680494Y-124816847D01*
X102738805Y-124676071D01*
X102758694Y-124525000D01*
X104341306Y-124525000D01*
X104361195Y-124676070D01*
X104361196Y-124676074D01*
X104419504Y-124816844D01*
X104419505Y-124816846D01*
X104419506Y-124816847D01*
X104512266Y-124937734D01*
X104633153Y-125030494D01*
X104773929Y-125088805D01*
X104887067Y-125103700D01*
X104887074Y-125103700D01*
X104962926Y-125103700D01*
X104962933Y-125103700D01*
X105076071Y-125088805D01*
X105216847Y-125030494D01*
X105337734Y-124937734D01*
X105430494Y-124816847D01*
X105488805Y-124676071D01*
X105508694Y-124525000D01*
X105488805Y-124373929D01*
X105449930Y-124280078D01*
X105447827Y-124275000D01*
X149311835Y-124275000D01*
X149330465Y-124511714D01*
X149385895Y-124742595D01*
X149385895Y-124742597D01*
X149476757Y-124961959D01*
X149476759Y-124961962D01*
X149600820Y-125164410D01*
X149600821Y-125164413D01*
X149600824Y-125164416D01*
X149755031Y-125344969D01*
X149876699Y-125448883D01*
X149935586Y-125499178D01*
X149935589Y-125499179D01*
X150138037Y-125623240D01*
X150138040Y-125623242D01*
X150357403Y-125714104D01*
X150357404Y-125714104D01*
X150357406Y-125714105D01*
X150588289Y-125769535D01*
X150825000Y-125788165D01*
X151061711Y-125769535D01*
X151292594Y-125714105D01*
X151292596Y-125714104D01*
X151292597Y-125714104D01*
X151511959Y-125623242D01*
X151511960Y-125623241D01*
X151511963Y-125623240D01*
X151714416Y-125499176D01*
X151894969Y-125344969D01*
X152049176Y-125164416D01*
X152173240Y-124961963D01*
X152183277Y-124937733D01*
X152264104Y-124742597D01*
X152264104Y-124742596D01*
X152264105Y-124742594D01*
X152319535Y-124511711D01*
X152338165Y-124275000D01*
X152319535Y-124038289D01*
X152264105Y-123807406D01*
X152264104Y-123807403D01*
X152264104Y-123807402D01*
X152174054Y-123590000D01*
X172166496Y-123590000D01*
X172186458Y-123779928D01*
X172186459Y-123779931D01*
X172245470Y-123961549D01*
X172245473Y-123961556D01*
X172340960Y-124126944D01*
X172468747Y-124268866D01*
X172623248Y-124381118D01*
X172797712Y-124458794D01*
X172984513Y-124498500D01*
X173175487Y-124498500D01*
X173362288Y-124458794D01*
X173536752Y-124381118D01*
X173691253Y-124268866D01*
X173819040Y-124126944D01*
X173914527Y-123961556D01*
X173973542Y-123779928D01*
X173993504Y-123590000D01*
X173973542Y-123400072D01*
X173914527Y-123218444D01*
X173819040Y-123053056D01*
X173691253Y-122911134D01*
X173536752Y-122798882D01*
X173362288Y-122721206D01*
X173362286Y-122721205D01*
X173175487Y-122681500D01*
X172984513Y-122681500D01*
X172797714Y-122721205D01*
X172797711Y-122721206D01*
X172797712Y-122721206D01*
X172664614Y-122780465D01*
X172623246Y-122798883D01*
X172468745Y-122911135D01*
X172340959Y-123053057D01*
X172245473Y-123218443D01*
X172245470Y-123218450D01*
X172186459Y-123400068D01*
X172186458Y-123400072D01*
X172166496Y-123590000D01*
X152174054Y-123590000D01*
X152173242Y-123588040D01*
X152173240Y-123588037D01*
X152049179Y-123385589D01*
X152049178Y-123385586D01*
X151993100Y-123319928D01*
X151894969Y-123205031D01*
X151717031Y-123053057D01*
X151714413Y-123050821D01*
X151714410Y-123050820D01*
X151511962Y-122926759D01*
X151511959Y-122926757D01*
X151292596Y-122835895D01*
X151061714Y-122780465D01*
X150825000Y-122761835D01*
X150588285Y-122780465D01*
X150357404Y-122835895D01*
X150357402Y-122835895D01*
X150138040Y-122926757D01*
X150138037Y-122926759D01*
X149935589Y-123050820D01*
X149935586Y-123050821D01*
X149755031Y-123205031D01*
X149600821Y-123385586D01*
X149600820Y-123385589D01*
X149476759Y-123588037D01*
X149476757Y-123588040D01*
X149385895Y-123807402D01*
X149385895Y-123807404D01*
X149330465Y-124038285D01*
X149311835Y-124275000D01*
X105447827Y-124275000D01*
X105430495Y-124233155D01*
X105430494Y-124233154D01*
X105430494Y-124233153D01*
X105337734Y-124112266D01*
X105216847Y-124019506D01*
X105216846Y-124019505D01*
X105216844Y-124019504D01*
X105076074Y-123961196D01*
X105076072Y-123961195D01*
X105076071Y-123961195D01*
X105061928Y-123959333D01*
X104962940Y-123946300D01*
X104962933Y-123946300D01*
X104887067Y-123946300D01*
X104887059Y-123946300D01*
X104773929Y-123961195D01*
X104773925Y-123961196D01*
X104633155Y-124019504D01*
X104512266Y-124112266D01*
X104419504Y-124233155D01*
X104361196Y-124373925D01*
X104361195Y-124373929D01*
X104341306Y-124525000D01*
X102758694Y-124525000D01*
X102738805Y-124373929D01*
X102699930Y-124280078D01*
X102680495Y-124233155D01*
X102680494Y-124233154D01*
X102680494Y-124233153D01*
X102587734Y-124112266D01*
X102466847Y-124019506D01*
X102466846Y-124019505D01*
X102466844Y-124019504D01*
X102326074Y-123961196D01*
X102326072Y-123961195D01*
X102326071Y-123961195D01*
X102311928Y-123959333D01*
X102212940Y-123946300D01*
X102212933Y-123946300D01*
X102137067Y-123946300D01*
X102137059Y-123946300D01*
X102023929Y-123961195D01*
X102023925Y-123961196D01*
X101883155Y-124019504D01*
X101762266Y-124112266D01*
X101669504Y-124233155D01*
X101611196Y-124373925D01*
X101611195Y-124373929D01*
X101591306Y-124525000D01*
X100381500Y-124525000D01*
X100381500Y-123130000D01*
X128066496Y-123130000D01*
X128086458Y-123319928D01*
X128086459Y-123319931D01*
X128145470Y-123501549D01*
X128145473Y-123501556D01*
X128240960Y-123666944D01*
X128342691Y-123779928D01*
X128367430Y-123807404D01*
X128368747Y-123808866D01*
X128523248Y-123921118D01*
X128697712Y-123998794D01*
X128884513Y-124038500D01*
X129075487Y-124038500D01*
X129262288Y-123998794D01*
X129436752Y-123921118D01*
X129591253Y-123808866D01*
X129719040Y-123666944D01*
X129814527Y-123501556D01*
X129873542Y-123319928D01*
X129893504Y-123130000D01*
X129873542Y-122940072D01*
X129814527Y-122758444D01*
X129719040Y-122593056D01*
X129591253Y-122451134D01*
X129436752Y-122338882D01*
X129262288Y-122261206D01*
X129262286Y-122261205D01*
X129075487Y-122221500D01*
X128884513Y-122221500D01*
X128697714Y-122261205D01*
X128523246Y-122338883D01*
X128368745Y-122451135D01*
X128240959Y-122593057D01*
X128145473Y-122758443D01*
X128145470Y-122758450D01*
X128090783Y-122926760D01*
X128086458Y-122940072D01*
X128066496Y-123130000D01*
X100381500Y-123130000D01*
X100381500Y-121400000D01*
X109786496Y-121400000D01*
X109806458Y-121589928D01*
X109806459Y-121589931D01*
X109865470Y-121771549D01*
X109865473Y-121771556D01*
X109960960Y-121936944D01*
X110088747Y-122078866D01*
X110243248Y-122191118D01*
X110417712Y-122268794D01*
X110604513Y-122308500D01*
X110795487Y-122308500D01*
X110982288Y-122268794D01*
X111156752Y-122191118D01*
X111311253Y-122078866D01*
X111439040Y-121936944D01*
X111534527Y-121771556D01*
X111593542Y-121589928D01*
X111613504Y-121400000D01*
X111593542Y-121210072D01*
X111534527Y-121028444D01*
X111439040Y-120863056D01*
X111311253Y-120721134D01*
X111156752Y-120608882D01*
X110982288Y-120531206D01*
X110982286Y-120531205D01*
X110795487Y-120491500D01*
X110604513Y-120491500D01*
X110417714Y-120531205D01*
X110243246Y-120608883D01*
X110088745Y-120721135D01*
X109960959Y-120863057D01*
X109865473Y-121028443D01*
X109865470Y-121028450D01*
X109806459Y-121210068D01*
X109806458Y-121210072D01*
X109786496Y-121400000D01*
X100381500Y-121400000D01*
X100381500Y-120349999D01*
X149386835Y-120349999D01*
X149405465Y-120586714D01*
X149460895Y-120817595D01*
X149460895Y-120817597D01*
X149551757Y-121036959D01*
X149551759Y-121036962D01*
X149675820Y-121239410D01*
X149675821Y-121239413D01*
X149675824Y-121239416D01*
X149830031Y-121419969D01*
X149969797Y-121539340D01*
X150010586Y-121574178D01*
X150010589Y-121574179D01*
X150213037Y-121698240D01*
X150213040Y-121698242D01*
X150432403Y-121789104D01*
X150432404Y-121789104D01*
X150432406Y-121789105D01*
X150663289Y-121844535D01*
X150900000Y-121863165D01*
X151136711Y-121844535D01*
X151367594Y-121789105D01*
X151367596Y-121789104D01*
X151367597Y-121789104D01*
X151586959Y-121698242D01*
X151586960Y-121698241D01*
X151586963Y-121698240D01*
X151789416Y-121574176D01*
X151969969Y-121419969D01*
X152124176Y-121239416D01*
X152248240Y-121036963D01*
X152251767Y-121028450D01*
X152339104Y-120817597D01*
X152339104Y-120817596D01*
X152339105Y-120817594D01*
X152394535Y-120586711D01*
X152413165Y-120350000D01*
X152394535Y-120113289D01*
X152339105Y-119882406D01*
X152339104Y-119882403D01*
X152339104Y-119882402D01*
X152248242Y-119663040D01*
X152248240Y-119663037D01*
X152124179Y-119460589D01*
X152124178Y-119460586D01*
X152089340Y-119419797D01*
X151969969Y-119280031D01*
X151923099Y-119240000D01*
X172206496Y-119240000D01*
X172226458Y-119429928D01*
X172226459Y-119429931D01*
X172285470Y-119611549D01*
X172285473Y-119611556D01*
X172380960Y-119776944D01*
X172508747Y-119918866D01*
X172663248Y-120031118D01*
X172837712Y-120108794D01*
X173024513Y-120148500D01*
X173215487Y-120148500D01*
X173402288Y-120108794D01*
X173576752Y-120031118D01*
X173731253Y-119918866D01*
X173859040Y-119776944D01*
X173954527Y-119611556D01*
X174013542Y-119429928D01*
X174033504Y-119240000D01*
X174013542Y-119050072D01*
X173954527Y-118868444D01*
X173859040Y-118703056D01*
X173731253Y-118561134D01*
X173576752Y-118448882D01*
X173402288Y-118371206D01*
X173402286Y-118371205D01*
X173215487Y-118331500D01*
X173024513Y-118331500D01*
X172837714Y-118371205D01*
X172663246Y-118448883D01*
X172508745Y-118561135D01*
X172380959Y-118703057D01*
X172285473Y-118868443D01*
X172285470Y-118868450D01*
X172226459Y-119050068D01*
X172226458Y-119050072D01*
X172206496Y-119240000D01*
X151923099Y-119240000D01*
X151850596Y-119178076D01*
X151789413Y-119125821D01*
X151789410Y-119125820D01*
X151586962Y-119001759D01*
X151586959Y-119001757D01*
X151367596Y-118910895D01*
X151136714Y-118855465D01*
X150900000Y-118836835D01*
X150663285Y-118855465D01*
X150432404Y-118910895D01*
X150432402Y-118910895D01*
X150213040Y-119001757D01*
X150213037Y-119001759D01*
X150010589Y-119125820D01*
X150010586Y-119125821D01*
X149830031Y-119280031D01*
X149675821Y-119460586D01*
X149675820Y-119460589D01*
X149551759Y-119663037D01*
X149551757Y-119663040D01*
X149460895Y-119882402D01*
X149460895Y-119882404D01*
X149405465Y-120113285D01*
X149386835Y-120349999D01*
X100381500Y-120349999D01*
X100381500Y-117030000D01*
X126356496Y-117030000D01*
X126376458Y-117219928D01*
X126376459Y-117219931D01*
X126435470Y-117401549D01*
X126435473Y-117401556D01*
X126530960Y-117566944D01*
X126658747Y-117708866D01*
X126813248Y-117821118D01*
X126987712Y-117898794D01*
X127174513Y-117938500D01*
X127365487Y-117938500D01*
X127552288Y-117898794D01*
X127726752Y-117821118D01*
X127881253Y-117708866D01*
X128009040Y-117566944D01*
X128104527Y-117401556D01*
X128163542Y-117219928D01*
X128183504Y-117030000D01*
X128163542Y-116840072D01*
X128104527Y-116658444D01*
X128056350Y-116574999D01*
X149311835Y-116574999D01*
X149330465Y-116811714D01*
X149385895Y-117042595D01*
X149385895Y-117042597D01*
X149476757Y-117261959D01*
X149476759Y-117261962D01*
X149600820Y-117464410D01*
X149600821Y-117464413D01*
X149600824Y-117464416D01*
X149755031Y-117644969D01*
X149894797Y-117764340D01*
X149935586Y-117799178D01*
X149935589Y-117799179D01*
X150138037Y-117923240D01*
X150138040Y-117923242D01*
X150357403Y-118014104D01*
X150357404Y-118014104D01*
X150357406Y-118014105D01*
X150588289Y-118069535D01*
X150825000Y-118088165D01*
X151061711Y-118069535D01*
X151292594Y-118014105D01*
X151292596Y-118014104D01*
X151292597Y-118014104D01*
X151511959Y-117923242D01*
X151511960Y-117923241D01*
X151511963Y-117923240D01*
X151714416Y-117799176D01*
X151894969Y-117644969D01*
X152049176Y-117464416D01*
X152173240Y-117261963D01*
X152186510Y-117229928D01*
X152264104Y-117042597D01*
X152264104Y-117042596D01*
X152264105Y-117042594D01*
X152264728Y-117040000D01*
X181096496Y-117040000D01*
X181116458Y-117229928D01*
X181116459Y-117229931D01*
X181175470Y-117411549D01*
X181175473Y-117411556D01*
X181270960Y-117576944D01*
X181398747Y-117718866D01*
X181553248Y-117831118D01*
X181727712Y-117908794D01*
X181914513Y-117948500D01*
X182105487Y-117948500D01*
X182292288Y-117908794D01*
X182466752Y-117831118D01*
X182621253Y-117718866D01*
X182749040Y-117576944D01*
X182844527Y-117411556D01*
X182903542Y-117229928D01*
X182923504Y-117040000D01*
X182903542Y-116850072D01*
X182844527Y-116668444D01*
X182749040Y-116503056D01*
X182621253Y-116361134D01*
X182466752Y-116248882D01*
X182292288Y-116171206D01*
X182292286Y-116171205D01*
X182105487Y-116131500D01*
X181914513Y-116131500D01*
X181727714Y-116171205D01*
X181727711Y-116171206D01*
X181727712Y-116171206D01*
X181575709Y-116238882D01*
X181553246Y-116248883D01*
X181398745Y-116361135D01*
X181270959Y-116503057D01*
X181175473Y-116668443D01*
X181175470Y-116668450D01*
X181119707Y-116840072D01*
X181116458Y-116850072D01*
X181096496Y-117040000D01*
X152264728Y-117040000D01*
X152319535Y-116811711D01*
X152338165Y-116575000D01*
X152319535Y-116338289D01*
X152264105Y-116107406D01*
X152264104Y-116107403D01*
X152264104Y-116107402D01*
X152173242Y-115888040D01*
X152173240Y-115888037D01*
X152049179Y-115685589D01*
X152049178Y-115685586D01*
X151933376Y-115550000D01*
X151894969Y-115505031D01*
X151725244Y-115360072D01*
X151714413Y-115350821D01*
X151714410Y-115350820D01*
X151511962Y-115226759D01*
X151511959Y-115226757D01*
X151292596Y-115135895D01*
X151061714Y-115080465D01*
X150825000Y-115061835D01*
X150588285Y-115080465D01*
X150357404Y-115135895D01*
X150357402Y-115135895D01*
X150138040Y-115226757D01*
X150138037Y-115226759D01*
X149935589Y-115350820D01*
X149935586Y-115350821D01*
X149755031Y-115505031D01*
X149600821Y-115685586D01*
X149600820Y-115685589D01*
X149476759Y-115888037D01*
X149476757Y-115888040D01*
X149385895Y-116107402D01*
X149385895Y-116107404D01*
X149330465Y-116338285D01*
X149311835Y-116574999D01*
X128056350Y-116574999D01*
X128009040Y-116493056D01*
X127881253Y-116351134D01*
X127726752Y-116238882D01*
X127552288Y-116161206D01*
X127552286Y-116161205D01*
X127365487Y-116121500D01*
X127174513Y-116121500D01*
X126987714Y-116161205D01*
X126900480Y-116200044D01*
X126835745Y-116228866D01*
X126813246Y-116238883D01*
X126658745Y-116351135D01*
X126530959Y-116493057D01*
X126435473Y-116658443D01*
X126435470Y-116658450D01*
X126385673Y-116811711D01*
X126376458Y-116840072D01*
X126356496Y-117030000D01*
X100381500Y-117030000D01*
X100381500Y-114954999D01*
X102186620Y-114954999D01*
X102206091Y-115152699D01*
X102263760Y-115342808D01*
X102357401Y-115517998D01*
X102357405Y-115518005D01*
X102483431Y-115671568D01*
X102636994Y-115797594D01*
X102637001Y-115797598D01*
X102812191Y-115891239D01*
X102812193Y-115891239D01*
X102812196Y-115891241D01*
X103002299Y-115948908D01*
X103002298Y-115948908D01*
X103020024Y-115950653D01*
X103200000Y-115968380D01*
X103397701Y-115948908D01*
X103587804Y-115891241D01*
X103593793Y-115888040D01*
X103762995Y-115797600D01*
X103762998Y-115797598D01*
X103763004Y-115797595D01*
X103763010Y-115797589D01*
X103766101Y-115795525D01*
X103767978Y-115794936D01*
X103768377Y-115794724D01*
X103768417Y-115794799D01*
X103832776Y-115774642D01*
X103900158Y-115793121D01*
X103903899Y-115795525D01*
X103906993Y-115797593D01*
X103906996Y-115797595D01*
X103906998Y-115797596D01*
X103907004Y-115797600D01*
X104082191Y-115891239D01*
X104082193Y-115891239D01*
X104082196Y-115891241D01*
X104272299Y-115948908D01*
X104272298Y-115948908D01*
X104290024Y-115950653D01*
X104470000Y-115968380D01*
X104667701Y-115948908D01*
X104857804Y-115891241D01*
X104863799Y-115888037D01*
X104927883Y-115853782D01*
X105033004Y-115797595D01*
X105186568Y-115671568D01*
X105286337Y-115550000D01*
X139796496Y-115550000D01*
X139816458Y-115739928D01*
X139816459Y-115739931D01*
X139875470Y-115921549D01*
X139875473Y-115921556D01*
X139970960Y-116086944D01*
X140098747Y-116228866D01*
X140253248Y-116341118D01*
X140427712Y-116418794D01*
X140614513Y-116458500D01*
X140805487Y-116458500D01*
X140992288Y-116418794D01*
X141166752Y-116341118D01*
X141321253Y-116228866D01*
X141449040Y-116086944D01*
X141544527Y-115921556D01*
X141603542Y-115739928D01*
X141623504Y-115550000D01*
X141603542Y-115360072D01*
X141544527Y-115178444D01*
X141449040Y-115013056D01*
X141321253Y-114871134D01*
X141166752Y-114758882D01*
X140992288Y-114681206D01*
X140992286Y-114681205D01*
X140805487Y-114641500D01*
X140614513Y-114641500D01*
X140427714Y-114681205D01*
X140427711Y-114681206D01*
X140427712Y-114681206D01*
X140256804Y-114757299D01*
X140253246Y-114758883D01*
X140098745Y-114871135D01*
X139970959Y-115013057D01*
X139875473Y-115178443D01*
X139875470Y-115178450D01*
X139822067Y-115342808D01*
X139816458Y-115360072D01*
X139796496Y-115550000D01*
X105286337Y-115550000D01*
X105312595Y-115518004D01*
X105406241Y-115342804D01*
X105463908Y-115152701D01*
X105483380Y-114955000D01*
X105463908Y-114757299D01*
X105406241Y-114567196D01*
X105406239Y-114567193D01*
X105406239Y-114567191D01*
X105386360Y-114530000D01*
X145376496Y-114530000D01*
X145396458Y-114719928D01*
X145396459Y-114719931D01*
X145455470Y-114901549D01*
X145455473Y-114901556D01*
X145550960Y-115066944D01*
X145678747Y-115208866D01*
X145833248Y-115321118D01*
X146007712Y-115398794D01*
X146194513Y-115438500D01*
X146385487Y-115438500D01*
X146572288Y-115398794D01*
X146746752Y-115321118D01*
X146901253Y-115208866D01*
X147029040Y-115066944D01*
X147124527Y-114901556D01*
X147183542Y-114719928D01*
X147203504Y-114530000D01*
X147183542Y-114340072D01*
X147124527Y-114158444D01*
X147029040Y-113993056D01*
X146901253Y-113851134D01*
X146746752Y-113738882D01*
X146572288Y-113661206D01*
X146572286Y-113661205D01*
X146385487Y-113621500D01*
X146194513Y-113621500D01*
X146007714Y-113661205D01*
X145833246Y-113738883D01*
X145678745Y-113851135D01*
X145550959Y-113993057D01*
X145455473Y-114158443D01*
X145455470Y-114158450D01*
X145402257Y-114322224D01*
X145396458Y-114340072D01*
X145376496Y-114530000D01*
X105386360Y-114530000D01*
X105312600Y-114392004D01*
X105310525Y-114388899D01*
X105309936Y-114387021D01*
X105309724Y-114386623D01*
X105309799Y-114386582D01*
X105289642Y-114322224D01*
X105308121Y-114254842D01*
X105310525Y-114251101D01*
X105312589Y-114248010D01*
X105312595Y-114248004D01*
X105360463Y-114158450D01*
X105406239Y-114072808D01*
X105406239Y-114072807D01*
X105406241Y-114072804D01*
X105463908Y-113882701D01*
X105483380Y-113685000D01*
X105463908Y-113487299D01*
X105406241Y-113297196D01*
X105406239Y-113297193D01*
X105406239Y-113297191D01*
X105312600Y-113122004D01*
X105310525Y-113118899D01*
X105309936Y-113117021D01*
X105309724Y-113116623D01*
X105309799Y-113116582D01*
X105289642Y-113052224D01*
X105308121Y-112984842D01*
X105310525Y-112981101D01*
X105312589Y-112978010D01*
X105312595Y-112978004D01*
X105388118Y-112836711D01*
X105406239Y-112802808D01*
X105406239Y-112802807D01*
X105406241Y-112802804D01*
X105463908Y-112612701D01*
X105483380Y-112415000D01*
X105463908Y-112217299D01*
X105406241Y-112027196D01*
X105406239Y-112027193D01*
X105406239Y-112027191D01*
X105391705Y-112000000D01*
X143711835Y-112000000D01*
X143730465Y-112236714D01*
X143785895Y-112467595D01*
X143785895Y-112467597D01*
X143876757Y-112686959D01*
X143876759Y-112686962D01*
X144000820Y-112889410D01*
X144000821Y-112889413D01*
X144000824Y-112889416D01*
X144155031Y-113069969D01*
X144294797Y-113189340D01*
X144335586Y-113224178D01*
X144335589Y-113224179D01*
X144538037Y-113348240D01*
X144538040Y-113348242D01*
X144757403Y-113439104D01*
X144757404Y-113439104D01*
X144757406Y-113439105D01*
X144988289Y-113494535D01*
X145225000Y-113513165D01*
X145461711Y-113494535D01*
X145692594Y-113439105D01*
X145692596Y-113439104D01*
X145692597Y-113439104D01*
X145911959Y-113348242D01*
X145911960Y-113348241D01*
X145911963Y-113348240D01*
X146114416Y-113224176D01*
X146294969Y-113069969D01*
X146449176Y-112889416D01*
X146573240Y-112686963D01*
X146609261Y-112600000D01*
X149311835Y-112600000D01*
X149330465Y-112836714D01*
X149385895Y-113067595D01*
X149385895Y-113067597D01*
X149476757Y-113286959D01*
X149476759Y-113286962D01*
X149600820Y-113489410D01*
X149600821Y-113489413D01*
X149653076Y-113550596D01*
X149755031Y-113669969D01*
X149835718Y-113738882D01*
X149935586Y-113824178D01*
X149935589Y-113824179D01*
X150138037Y-113948240D01*
X150138040Y-113948242D01*
X150357403Y-114039104D01*
X150357404Y-114039104D01*
X150357406Y-114039105D01*
X150588289Y-114094535D01*
X150825000Y-114113165D01*
X151061711Y-114094535D01*
X151292594Y-114039105D01*
X151292596Y-114039104D01*
X151292597Y-114039104D01*
X151511959Y-113948242D01*
X151511960Y-113948241D01*
X151511963Y-113948240D01*
X151714416Y-113824176D01*
X151894969Y-113669969D01*
X152049176Y-113489416D01*
X152173240Y-113286963D01*
X152199247Y-113224178D01*
X152264104Y-113067597D01*
X152264104Y-113067596D01*
X152264105Y-113067594D01*
X152319535Y-112836711D01*
X152338165Y-112600000D01*
X152319535Y-112363289D01*
X152264105Y-112132406D01*
X152264104Y-112132403D01*
X152264104Y-112132402D01*
X152173242Y-111913040D01*
X152173240Y-111913037D01*
X152049179Y-111710589D01*
X152049178Y-111710586D01*
X152011197Y-111666116D01*
X151894969Y-111530031D01*
X151756705Y-111411942D01*
X151714413Y-111375821D01*
X151714410Y-111375820D01*
X151511962Y-111251759D01*
X151511959Y-111251757D01*
X151292596Y-111160895D01*
X151061714Y-111105465D01*
X150884177Y-111091492D01*
X150825000Y-111086835D01*
X150824999Y-111086835D01*
X150588285Y-111105465D01*
X150357404Y-111160895D01*
X150357402Y-111160895D01*
X150138040Y-111251757D01*
X150138037Y-111251759D01*
X149935589Y-111375820D01*
X149935586Y-111375821D01*
X149755031Y-111530031D01*
X149600821Y-111710586D01*
X149600820Y-111710589D01*
X149476759Y-111913037D01*
X149476757Y-111913040D01*
X149385895Y-112132402D01*
X149385895Y-112132404D01*
X149330465Y-112363285D01*
X149311835Y-112600000D01*
X146609261Y-112600000D01*
X146664105Y-112467594D01*
X146719535Y-112236711D01*
X146738165Y-112000000D01*
X146719535Y-111763289D01*
X146664105Y-111532406D01*
X146664104Y-111532403D01*
X146664104Y-111532402D01*
X146573242Y-111313040D01*
X146573240Y-111313037D01*
X146449179Y-111110589D01*
X146449178Y-111110586D01*
X146410182Y-111064928D01*
X146294969Y-110930031D01*
X146230536Y-110875000D01*
X181011496Y-110875000D01*
X181031458Y-111064928D01*
X181031459Y-111064931D01*
X181090470Y-111246549D01*
X181090473Y-111246556D01*
X181185960Y-111411944D01*
X181313747Y-111553866D01*
X181468248Y-111666118D01*
X181642712Y-111743794D01*
X181829513Y-111783500D01*
X182020487Y-111783500D01*
X182207288Y-111743794D01*
X182381752Y-111666118D01*
X182536253Y-111553866D01*
X182664040Y-111411944D01*
X182759527Y-111246556D01*
X182818542Y-111064928D01*
X182838504Y-110875000D01*
X182818542Y-110685072D01*
X182759527Y-110503444D01*
X182664040Y-110338056D01*
X182536253Y-110196134D01*
X182381752Y-110083882D01*
X182207288Y-110006206D01*
X182207286Y-110006205D01*
X182020487Y-109966500D01*
X181829513Y-109966500D01*
X181642714Y-110006205D01*
X181468246Y-110083883D01*
X181313745Y-110196135D01*
X181185959Y-110338057D01*
X181090473Y-110503443D01*
X181090470Y-110503450D01*
X181031459Y-110685068D01*
X181031458Y-110685072D01*
X181011496Y-110875000D01*
X146230536Y-110875000D01*
X146175596Y-110828076D01*
X146114413Y-110775821D01*
X146114410Y-110775820D01*
X145911962Y-110651759D01*
X145911959Y-110651757D01*
X145692596Y-110560895D01*
X145461714Y-110505465D01*
X145284177Y-110491492D01*
X145225000Y-110486835D01*
X145224999Y-110486835D01*
X144988285Y-110505465D01*
X144757404Y-110560895D01*
X144757402Y-110560895D01*
X144538040Y-110651757D01*
X144538037Y-110651759D01*
X144335589Y-110775820D01*
X144335586Y-110775821D01*
X144155031Y-110930031D01*
X144000821Y-111110586D01*
X144000820Y-111110589D01*
X143876759Y-111313037D01*
X143876757Y-111313040D01*
X143785895Y-111532402D01*
X143785895Y-111532404D01*
X143730465Y-111763285D01*
X143711835Y-112000000D01*
X105391705Y-112000000D01*
X105312600Y-111852004D01*
X105310525Y-111848899D01*
X105309936Y-111847021D01*
X105309724Y-111846623D01*
X105309799Y-111846582D01*
X105289642Y-111782224D01*
X105308121Y-111714842D01*
X105310525Y-111711101D01*
X105312589Y-111708010D01*
X105312595Y-111708004D01*
X105334984Y-111666118D01*
X105406239Y-111532808D01*
X105406239Y-111532807D01*
X105406241Y-111532804D01*
X105463908Y-111342701D01*
X105483380Y-111145000D01*
X105463908Y-110947299D01*
X105406241Y-110757196D01*
X105406239Y-110757193D01*
X105406239Y-110757191D01*
X105312596Y-110581997D01*
X105310518Y-110578887D01*
X105309930Y-110577010D01*
X105309724Y-110576624D01*
X105309797Y-110576584D01*
X105289642Y-110512209D01*
X105308129Y-110444829D01*
X105310529Y-110441094D01*
X105312585Y-110438015D01*
X105312595Y-110438004D01*
X105406241Y-110262804D01*
X105463908Y-110072701D01*
X105483380Y-109875000D01*
X105463908Y-109677299D01*
X105406241Y-109487196D01*
X105406239Y-109487193D01*
X105406239Y-109487191D01*
X105312600Y-109312004D01*
X105310525Y-109308899D01*
X105309936Y-109307021D01*
X105309724Y-109306623D01*
X105309799Y-109306582D01*
X105289642Y-109242224D01*
X105308121Y-109174842D01*
X105310525Y-109171101D01*
X105312589Y-109168010D01*
X105312595Y-109168004D01*
X105324295Y-109146116D01*
X105406239Y-108992808D01*
X105406239Y-108992807D01*
X105406241Y-108992804D01*
X105463908Y-108802701D01*
X105483380Y-108605000D01*
X105482888Y-108600000D01*
X107096496Y-108600000D01*
X107116458Y-108789928D01*
X107116459Y-108789931D01*
X107175470Y-108971549D01*
X107175473Y-108971556D01*
X107270960Y-109136944D01*
X107398747Y-109278866D01*
X107553248Y-109391118D01*
X107727712Y-109468794D01*
X107914513Y-109508500D01*
X108105487Y-109508500D01*
X108292288Y-109468794D01*
X108466752Y-109391118D01*
X108621253Y-109278866D01*
X108749040Y-109136944D01*
X108844527Y-108971556D01*
X108903542Y-108789928D01*
X108923504Y-108600000D01*
X108916672Y-108535000D01*
X115201496Y-108535000D01*
X115221458Y-108724928D01*
X115221459Y-108724931D01*
X115280470Y-108906549D01*
X115280473Y-108906556D01*
X115375960Y-109071944D01*
X115503747Y-109213866D01*
X115658248Y-109326118D01*
X115832712Y-109403794D01*
X116019513Y-109443500D01*
X116210487Y-109443500D01*
X116397288Y-109403794D01*
X116571752Y-109326118D01*
X116726253Y-109213866D01*
X116854040Y-109071944D01*
X116949527Y-108906556D01*
X117008542Y-108724928D01*
X117028504Y-108535000D01*
X117009585Y-108355000D01*
X119871496Y-108355000D01*
X119891458Y-108544928D01*
X119891459Y-108544931D01*
X119950470Y-108726549D01*
X119950473Y-108726556D01*
X120045960Y-108891944D01*
X120173747Y-109033866D01*
X120328248Y-109146118D01*
X120502712Y-109223794D01*
X120689513Y-109263500D01*
X120880487Y-109263500D01*
X121067288Y-109223794D01*
X121241752Y-109146118D01*
X121396253Y-109033866D01*
X121524040Y-108891944D01*
X121619527Y-108726556D01*
X121657399Y-108610000D01*
X144126496Y-108610000D01*
X144146458Y-108799928D01*
X144146459Y-108799931D01*
X144205470Y-108981549D01*
X144205473Y-108981556D01*
X144300960Y-109146944D01*
X144428747Y-109288866D01*
X144583248Y-109401118D01*
X144757712Y-109478794D01*
X144944513Y-109518500D01*
X145135487Y-109518500D01*
X145322288Y-109478794D01*
X145496752Y-109401118D01*
X145651253Y-109288866D01*
X145779040Y-109146944D01*
X145874527Y-108981556D01*
X145925396Y-108825000D01*
X149386835Y-108825000D01*
X149405465Y-109061714D01*
X149460895Y-109292595D01*
X149460895Y-109292597D01*
X149551757Y-109511959D01*
X149551759Y-109511962D01*
X149675820Y-109714410D01*
X149675821Y-109714413D01*
X149675824Y-109714416D01*
X149830031Y-109894969D01*
X149960273Y-110006206D01*
X150010586Y-110049178D01*
X150010589Y-110049179D01*
X150213037Y-110173240D01*
X150213040Y-110173242D01*
X150432403Y-110264104D01*
X150432404Y-110264104D01*
X150432406Y-110264105D01*
X150663289Y-110319535D01*
X150900000Y-110338165D01*
X151136711Y-110319535D01*
X151367594Y-110264105D01*
X151367596Y-110264104D01*
X151367597Y-110264104D01*
X151586959Y-110173242D01*
X151586960Y-110173241D01*
X151586963Y-110173240D01*
X151789416Y-110049176D01*
X151969969Y-109894969D01*
X152124176Y-109714416D01*
X152248240Y-109511963D01*
X152249675Y-109508500D01*
X152339104Y-109292597D01*
X152339104Y-109292596D01*
X152339105Y-109292594D01*
X152394535Y-109061711D01*
X152413165Y-108825000D01*
X152394535Y-108588289D01*
X152339105Y-108357406D01*
X152339104Y-108357403D01*
X152339104Y-108357402D01*
X152248242Y-108138040D01*
X152248240Y-108138037D01*
X152124179Y-107935589D01*
X152124178Y-107935586D01*
X152056319Y-107856134D01*
X151969969Y-107755031D01*
X151819479Y-107626500D01*
X151789413Y-107600821D01*
X151789410Y-107600820D01*
X151586962Y-107476759D01*
X151586959Y-107476757D01*
X151367596Y-107385895D01*
X151136714Y-107330465D01*
X150959177Y-107316492D01*
X150900000Y-107311835D01*
X150899999Y-107311835D01*
X150663285Y-107330465D01*
X150432404Y-107385895D01*
X150432402Y-107385895D01*
X150213040Y-107476757D01*
X150213037Y-107476759D01*
X150010589Y-107600820D01*
X150010586Y-107600821D01*
X149830031Y-107755031D01*
X149675821Y-107935586D01*
X149675820Y-107935589D01*
X149551759Y-108138037D01*
X149551757Y-108138040D01*
X149460895Y-108357402D01*
X149460895Y-108357404D01*
X149405465Y-108588285D01*
X149386835Y-108825000D01*
X145925396Y-108825000D01*
X145933542Y-108799928D01*
X145953504Y-108610000D01*
X145933542Y-108420072D01*
X145874527Y-108238444D01*
X145779040Y-108073056D01*
X145651253Y-107931134D01*
X145496752Y-107818882D01*
X145322288Y-107741206D01*
X145322286Y-107741205D01*
X145135487Y-107701500D01*
X144944513Y-107701500D01*
X144757714Y-107741205D01*
X144751699Y-107743883D01*
X144605709Y-107808882D01*
X144583246Y-107818883D01*
X144428745Y-107931135D01*
X144300959Y-108073057D01*
X144205473Y-108238443D01*
X144205470Y-108238450D01*
X144149707Y-108410072D01*
X144146458Y-108420072D01*
X144126496Y-108610000D01*
X121657399Y-108610000D01*
X121678542Y-108544928D01*
X121698504Y-108355000D01*
X121678542Y-108165072D01*
X121619527Y-107983444D01*
X121524040Y-107818056D01*
X121396253Y-107676134D01*
X121241752Y-107563882D01*
X121067288Y-107486206D01*
X121067286Y-107486205D01*
X120880487Y-107446500D01*
X120689513Y-107446500D01*
X120502714Y-107486205D01*
X120328246Y-107563883D01*
X120173745Y-107676135D01*
X120045959Y-107818057D01*
X119950473Y-107983443D01*
X119950470Y-107983450D01*
X119900242Y-108138037D01*
X119891458Y-108165072D01*
X119871496Y-108355000D01*
X117009585Y-108355000D01*
X117008542Y-108345072D01*
X116949527Y-108163444D01*
X116854040Y-107998056D01*
X116726253Y-107856134D01*
X116571752Y-107743882D01*
X116397288Y-107666206D01*
X116397286Y-107666205D01*
X116210487Y-107626500D01*
X116019513Y-107626500D01*
X115832714Y-107666205D01*
X115832711Y-107666206D01*
X115832712Y-107666206D01*
X115664259Y-107741206D01*
X115658246Y-107743883D01*
X115503745Y-107856135D01*
X115375959Y-107998057D01*
X115280473Y-108163443D01*
X115280470Y-108163450D01*
X115221459Y-108345068D01*
X115221458Y-108345072D01*
X115201496Y-108535000D01*
X108916672Y-108535000D01*
X108903542Y-108410072D01*
X108844527Y-108228444D01*
X108749040Y-108063056D01*
X108621253Y-107921134D01*
X108466752Y-107808882D01*
X108292288Y-107731206D01*
X108292286Y-107731205D01*
X108105487Y-107691500D01*
X107914513Y-107691500D01*
X107727714Y-107731205D01*
X107553246Y-107808883D01*
X107398745Y-107921135D01*
X107270959Y-108063057D01*
X107175473Y-108228443D01*
X107175470Y-108228450D01*
X107116459Y-108410068D01*
X107116458Y-108410072D01*
X107096496Y-108600000D01*
X105482888Y-108600000D01*
X105463908Y-108407299D01*
X105406241Y-108217196D01*
X105406239Y-108217193D01*
X105406239Y-108217191D01*
X105312600Y-108042004D01*
X105310525Y-108038899D01*
X105309936Y-108037021D01*
X105309724Y-108036623D01*
X105309799Y-108036582D01*
X105289642Y-107972224D01*
X105308121Y-107904842D01*
X105310525Y-107901101D01*
X105312589Y-107898010D01*
X105312595Y-107898004D01*
X105334975Y-107856135D01*
X105406239Y-107722808D01*
X105406239Y-107722807D01*
X105406241Y-107722804D01*
X105463908Y-107532701D01*
X105483380Y-107335000D01*
X105463908Y-107137299D01*
X105452593Y-107100000D01*
X181761496Y-107100000D01*
X181781458Y-107289928D01*
X181781459Y-107289931D01*
X181840470Y-107471549D01*
X181840473Y-107471556D01*
X181935960Y-107636944D01*
X182063747Y-107778866D01*
X182218248Y-107891118D01*
X182392712Y-107968794D01*
X182579513Y-108008500D01*
X182770487Y-108008500D01*
X182957288Y-107968794D01*
X183131752Y-107891118D01*
X183286253Y-107778866D01*
X183414040Y-107636944D01*
X183509527Y-107471556D01*
X183568542Y-107289928D01*
X183588504Y-107100000D01*
X183568542Y-106910072D01*
X183509527Y-106728444D01*
X183414040Y-106563056D01*
X183375697Y-106520472D01*
X183345467Y-106457481D01*
X183354092Y-106388146D01*
X183375697Y-106354528D01*
X183377730Y-106352269D01*
X183414040Y-106311944D01*
X183509527Y-106146556D01*
X183568542Y-105964928D01*
X183588504Y-105775000D01*
X183568542Y-105585072D01*
X183509527Y-105403444D01*
X183414040Y-105238056D01*
X183286253Y-105096134D01*
X183131752Y-104983882D01*
X182957288Y-104906206D01*
X182957286Y-104906205D01*
X182770487Y-104866500D01*
X182579513Y-104866500D01*
X182392714Y-104906205D01*
X182218246Y-104983883D01*
X182063745Y-105096135D01*
X181935959Y-105238057D01*
X181840473Y-105403443D01*
X181840470Y-105403450D01*
X181781459Y-105585068D01*
X181781458Y-105585072D01*
X181761496Y-105775000D01*
X181781458Y-105964928D01*
X181781459Y-105964931D01*
X181840470Y-106146549D01*
X181840473Y-106146556D01*
X181935960Y-106311944D01*
X181962205Y-106341092D01*
X181974302Y-106354527D01*
X182004532Y-106417518D01*
X181995907Y-106486854D01*
X181974304Y-106520469D01*
X181935959Y-106563057D01*
X181840473Y-106728443D01*
X181840470Y-106728450D01*
X181826319Y-106772004D01*
X181781458Y-106910072D01*
X181761496Y-107100000D01*
X105452593Y-107100000D01*
X105406241Y-106947196D01*
X105406239Y-106947193D01*
X105406239Y-106947191D01*
X105312600Y-106772004D01*
X105310525Y-106768899D01*
X105309936Y-106767021D01*
X105309724Y-106766623D01*
X105309799Y-106766582D01*
X105289642Y-106702224D01*
X105308121Y-106634842D01*
X105310525Y-106631101D01*
X105312589Y-106628010D01*
X105312595Y-106628004D01*
X105317712Y-106618432D01*
X105406239Y-106452808D01*
X105406239Y-106452807D01*
X105406241Y-106452804D01*
X105463908Y-106262701D01*
X105483380Y-106065000D01*
X105463908Y-105867299D01*
X105406241Y-105677196D01*
X105406239Y-105677193D01*
X105406239Y-105677191D01*
X105312600Y-105502004D01*
X105310525Y-105498899D01*
X105309936Y-105497021D01*
X105309724Y-105496623D01*
X105309799Y-105496582D01*
X105289642Y-105432224D01*
X105308121Y-105364842D01*
X105310525Y-105361101D01*
X105312589Y-105358010D01*
X105312595Y-105358004D01*
X105315135Y-105353253D01*
X105364979Y-105260000D01*
X111316496Y-105260000D01*
X111336458Y-105449928D01*
X111336459Y-105449931D01*
X111395470Y-105631549D01*
X111395473Y-105631556D01*
X111490960Y-105796944D01*
X111618747Y-105938866D01*
X111773248Y-106051118D01*
X111947712Y-106128794D01*
X112134513Y-106168500D01*
X112325487Y-106168500D01*
X112512288Y-106128794D01*
X112686752Y-106051118D01*
X112841253Y-105938866D01*
X112969040Y-105796944D01*
X113064527Y-105631556D01*
X113123542Y-105449928D01*
X113143504Y-105260000D01*
X132696496Y-105260000D01*
X132716458Y-105449928D01*
X132716459Y-105449931D01*
X132775470Y-105631549D01*
X132775473Y-105631556D01*
X132870960Y-105796944D01*
X132998747Y-105938866D01*
X133153248Y-106051118D01*
X133327712Y-106128794D01*
X133514513Y-106168500D01*
X133705487Y-106168500D01*
X133892288Y-106128794D01*
X134066752Y-106051118D01*
X134221253Y-105938866D01*
X134349040Y-105796944D01*
X134444527Y-105631556D01*
X134503542Y-105449928D01*
X134523504Y-105260000D01*
X134503542Y-105070072D01*
X134444527Y-104888444D01*
X134349040Y-104723056D01*
X134221253Y-104581134D01*
X134066752Y-104468882D01*
X133892288Y-104391206D01*
X133892286Y-104391205D01*
X133886617Y-104390000D01*
X141116496Y-104390000D01*
X141136458Y-104579928D01*
X141136459Y-104579931D01*
X141195470Y-104761549D01*
X141195473Y-104761556D01*
X141290960Y-104926944D01*
X141418747Y-105068866D01*
X141573248Y-105181118D01*
X141747712Y-105258794D01*
X141934513Y-105298500D01*
X142125487Y-105298500D01*
X142312288Y-105258794D01*
X142486752Y-105181118D01*
X142641253Y-105068866D01*
X142769040Y-104926944D01*
X142864527Y-104761556D01*
X142868282Y-104750000D01*
X143861835Y-104750000D01*
X143880465Y-104986714D01*
X143935895Y-105217595D01*
X143935895Y-105217597D01*
X144026757Y-105436959D01*
X144026759Y-105436962D01*
X144150820Y-105639410D01*
X144150821Y-105639413D01*
X144203076Y-105700596D01*
X144305031Y-105819969D01*
X144384087Y-105887489D01*
X144485586Y-105974178D01*
X144485588Y-105974178D01*
X144540280Y-106007694D01*
X144688037Y-106098240D01*
X144688040Y-106098242D01*
X144907403Y-106189104D01*
X144907404Y-106189104D01*
X144907406Y-106189105D01*
X145138289Y-106244535D01*
X145375000Y-106263165D01*
X145611711Y-106244535D01*
X145842594Y-106189105D01*
X145842596Y-106189104D01*
X145842597Y-106189104D01*
X146061959Y-106098242D01*
X146061960Y-106098241D01*
X146061963Y-106098240D01*
X146264416Y-105974176D01*
X146444969Y-105819969D01*
X146599176Y-105639416D01*
X146723240Y-105436963D01*
X146737122Y-105403450D01*
X146814104Y-105217597D01*
X146814104Y-105217596D01*
X146814105Y-105217594D01*
X146869535Y-104986711D01*
X146888165Y-104750000D01*
X146884230Y-104700000D01*
X149436835Y-104700000D01*
X149455465Y-104936714D01*
X149510895Y-105167595D01*
X149510895Y-105167597D01*
X149601757Y-105386959D01*
X149601759Y-105386962D01*
X149725820Y-105589410D01*
X149725821Y-105589413D01*
X149768528Y-105639416D01*
X149880031Y-105769969D01*
X149955804Y-105834685D01*
X150060586Y-105924178D01*
X150060589Y-105924179D01*
X150263037Y-106048240D01*
X150263040Y-106048242D01*
X150482403Y-106139104D01*
X150482404Y-106139104D01*
X150482406Y-106139105D01*
X150713289Y-106194535D01*
X150950000Y-106213165D01*
X151186711Y-106194535D01*
X151417594Y-106139105D01*
X151417596Y-106139104D01*
X151417597Y-106139104D01*
X151636959Y-106048242D01*
X151636960Y-106048241D01*
X151636963Y-106048240D01*
X151839416Y-105924176D01*
X152019969Y-105769969D01*
X152174176Y-105589416D01*
X152298240Y-105386963D01*
X152308953Y-105361101D01*
X152389104Y-105167597D01*
X152389104Y-105167596D01*
X152389105Y-105167594D01*
X152444535Y-104936711D01*
X152463165Y-104700000D01*
X152444535Y-104463289D01*
X152389105Y-104232406D01*
X152389104Y-104232403D01*
X152389104Y-104232402D01*
X152298242Y-104013040D01*
X152298240Y-104013037D01*
X152236817Y-103912804D01*
X152174178Y-103810588D01*
X152174178Y-103810586D01*
X152129643Y-103758443D01*
X152019969Y-103630031D01*
X151896992Y-103524999D01*
X151839413Y-103475821D01*
X151839410Y-103475820D01*
X151636962Y-103351759D01*
X151636959Y-103351757D01*
X151417596Y-103260895D01*
X151186714Y-103205465D01*
X150950000Y-103186835D01*
X150713285Y-103205465D01*
X150482404Y-103260895D01*
X150482402Y-103260895D01*
X150263040Y-103351757D01*
X150263037Y-103351759D01*
X150060589Y-103475820D01*
X150060586Y-103475821D01*
X149880031Y-103630031D01*
X149725821Y-103810586D01*
X149725820Y-103810589D01*
X149601759Y-104013037D01*
X149601757Y-104013040D01*
X149510895Y-104232402D01*
X149510895Y-104232404D01*
X149455465Y-104463285D01*
X149436835Y-104700000D01*
X146884230Y-104700000D01*
X146869535Y-104513289D01*
X146814105Y-104282406D01*
X146814104Y-104282403D01*
X146814104Y-104282402D01*
X146723242Y-104063040D01*
X146723240Y-104063037D01*
X146599179Y-103860589D01*
X146599178Y-103860586D01*
X146520841Y-103768866D01*
X146444969Y-103680031D01*
X146325596Y-103578076D01*
X146264413Y-103525821D01*
X146264410Y-103525820D01*
X146061962Y-103401759D01*
X146061959Y-103401757D01*
X145842596Y-103310895D01*
X145611714Y-103255465D01*
X145375000Y-103236835D01*
X145138285Y-103255465D01*
X144907404Y-103310895D01*
X144907402Y-103310895D01*
X144688040Y-103401757D01*
X144688037Y-103401759D01*
X144485589Y-103525820D01*
X144485586Y-103525821D01*
X144305031Y-103680031D01*
X144150821Y-103860586D01*
X144150820Y-103860589D01*
X144026759Y-104063037D01*
X144026757Y-104063040D01*
X143935895Y-104282402D01*
X143935895Y-104282404D01*
X143880465Y-104513285D01*
X143861835Y-104750000D01*
X142868282Y-104750000D01*
X142923542Y-104579928D01*
X142943504Y-104390000D01*
X142923542Y-104200072D01*
X142864527Y-104018444D01*
X142769040Y-103853056D01*
X142641253Y-103711134D01*
X142486752Y-103598882D01*
X142312288Y-103521206D01*
X142312286Y-103521205D01*
X142125487Y-103481500D01*
X141934513Y-103481500D01*
X141747714Y-103521205D01*
X141747711Y-103521206D01*
X141747712Y-103521206D01*
X141586334Y-103593056D01*
X141573246Y-103598883D01*
X141418745Y-103711135D01*
X141290959Y-103853057D01*
X141195473Y-104018443D01*
X141195470Y-104018450D01*
X141136459Y-104200068D01*
X141136458Y-104200072D01*
X141116496Y-104390000D01*
X133886617Y-104390000D01*
X133705487Y-104351500D01*
X133514513Y-104351500D01*
X133327714Y-104391205D01*
X133153246Y-104468883D01*
X132998745Y-104581135D01*
X132870959Y-104723057D01*
X132775473Y-104888443D01*
X132775470Y-104888450D01*
X132716850Y-105068866D01*
X132716458Y-105070072D01*
X132696496Y-105260000D01*
X113143504Y-105260000D01*
X113123542Y-105070072D01*
X113064527Y-104888444D01*
X112969040Y-104723056D01*
X112841253Y-104581134D01*
X112686752Y-104468882D01*
X112512288Y-104391206D01*
X112512286Y-104391205D01*
X112325487Y-104351500D01*
X112134513Y-104351500D01*
X111947714Y-104391205D01*
X111773246Y-104468883D01*
X111618745Y-104581135D01*
X111490959Y-104723057D01*
X111395473Y-104888443D01*
X111395470Y-104888450D01*
X111336850Y-105068866D01*
X111336458Y-105070072D01*
X111316496Y-105260000D01*
X105364979Y-105260000D01*
X105406239Y-105182808D01*
X105406239Y-105182807D01*
X105406241Y-105182804D01*
X105463908Y-104992701D01*
X105483380Y-104795000D01*
X105463908Y-104597299D01*
X105406241Y-104407196D01*
X105406239Y-104407193D01*
X105406239Y-104407191D01*
X105312600Y-104232004D01*
X105310525Y-104228899D01*
X105309936Y-104227021D01*
X105309724Y-104226623D01*
X105309799Y-104226582D01*
X105289642Y-104162224D01*
X105298479Y-104130000D01*
X115296496Y-104130000D01*
X115316458Y-104319928D01*
X115316459Y-104319931D01*
X115375470Y-104501549D01*
X115375473Y-104501556D01*
X115470960Y-104666944D01*
X115598747Y-104808866D01*
X115753248Y-104921118D01*
X115927712Y-104998794D01*
X116114513Y-105038500D01*
X116305487Y-105038500D01*
X116492288Y-104998794D01*
X116666752Y-104921118D01*
X116821253Y-104808866D01*
X116949040Y-104666944D01*
X117044527Y-104501556D01*
X117103542Y-104319928D01*
X117123504Y-104130000D01*
X117115096Y-104050000D01*
X119856496Y-104050000D01*
X119876458Y-104239928D01*
X119876459Y-104239931D01*
X119935470Y-104421549D01*
X119935473Y-104421556D01*
X120030960Y-104586944D01*
X120102992Y-104666944D01*
X120153516Y-104723057D01*
X120158747Y-104728866D01*
X120313248Y-104841118D01*
X120487712Y-104918794D01*
X120674513Y-104958500D01*
X120865487Y-104958500D01*
X121052288Y-104918794D01*
X121226752Y-104841118D01*
X121381253Y-104728866D01*
X121509040Y-104586944D01*
X121604527Y-104421556D01*
X121663542Y-104239928D01*
X121683504Y-104050000D01*
X121663542Y-103860072D01*
X121604527Y-103678444D01*
X121509040Y-103513056D01*
X121381253Y-103371134D01*
X121226752Y-103258882D01*
X121052288Y-103181206D01*
X121052286Y-103181205D01*
X120865487Y-103141500D01*
X120674513Y-103141500D01*
X120487714Y-103181205D01*
X120313246Y-103258883D01*
X120158745Y-103371135D01*
X120030959Y-103513057D01*
X119935473Y-103678443D01*
X119935470Y-103678450D01*
X119878737Y-103853057D01*
X119876458Y-103860072D01*
X119856496Y-104050000D01*
X117115096Y-104050000D01*
X117103542Y-103940072D01*
X117044527Y-103758444D01*
X116949040Y-103593056D01*
X116821253Y-103451134D01*
X116666752Y-103338882D01*
X116492288Y-103261206D01*
X116492286Y-103261205D01*
X116305487Y-103221500D01*
X116114513Y-103221500D01*
X115927714Y-103261205D01*
X115753246Y-103338883D01*
X115598745Y-103451135D01*
X115470959Y-103593057D01*
X115375473Y-103758443D01*
X115375470Y-103758450D01*
X115316459Y-103940068D01*
X115316458Y-103940072D01*
X115296496Y-104130000D01*
X105298479Y-104130000D01*
X105308121Y-104094842D01*
X105310525Y-104091101D01*
X105312589Y-104088010D01*
X105312595Y-104088004D01*
X105325939Y-104063040D01*
X105406239Y-103912808D01*
X105406239Y-103912807D01*
X105406241Y-103912804D01*
X105463908Y-103722701D01*
X105483380Y-103525000D01*
X105463908Y-103327299D01*
X105406241Y-103137196D01*
X105406239Y-103137193D01*
X105406239Y-103137191D01*
X105381015Y-103090000D01*
X108426496Y-103090000D01*
X108446458Y-103279928D01*
X108446459Y-103279931D01*
X108505470Y-103461549D01*
X108505473Y-103461556D01*
X108600960Y-103626944D01*
X108728747Y-103768866D01*
X108883248Y-103881118D01*
X109057712Y-103958794D01*
X109244513Y-103998500D01*
X109435487Y-103998500D01*
X109622288Y-103958794D01*
X109796752Y-103881118D01*
X109951253Y-103768866D01*
X110079040Y-103626944D01*
X110174527Y-103461556D01*
X110233542Y-103279928D01*
X110253504Y-103090000D01*
X110233542Y-102900072D01*
X110174527Y-102718444D01*
X110079040Y-102553056D01*
X109951253Y-102411134D01*
X109796752Y-102298882D01*
X109622288Y-102221206D01*
X109622286Y-102221205D01*
X109435487Y-102181500D01*
X109244513Y-102181500D01*
X109057714Y-102221205D01*
X108883246Y-102298883D01*
X108728745Y-102411135D01*
X108600959Y-102553057D01*
X108505473Y-102718443D01*
X108505470Y-102718450D01*
X108446459Y-102900068D01*
X108446458Y-102900072D01*
X108426496Y-103090000D01*
X105381015Y-103090000D01*
X105312598Y-102962001D01*
X105312594Y-102961994D01*
X105186568Y-102808431D01*
X105033005Y-102682405D01*
X105032998Y-102682401D01*
X104857808Y-102588760D01*
X104740107Y-102553056D01*
X104667701Y-102531092D01*
X104667699Y-102531091D01*
X104667701Y-102531091D01*
X104487725Y-102513365D01*
X104470000Y-102511620D01*
X104469999Y-102511620D01*
X104272302Y-102531091D01*
X104272298Y-102531092D01*
X104272299Y-102531092D01*
X104082196Y-102588759D01*
X104082194Y-102588759D01*
X104082184Y-102588763D01*
X104076565Y-102591091D01*
X104075916Y-102589524D01*
X104015452Y-102602108D01*
X103951101Y-102577776D01*
X103946207Y-102574112D01*
X103946206Y-102574111D01*
X103809203Y-102523011D01*
X103748654Y-102516500D01*
X103748638Y-102516500D01*
X102651362Y-102516500D01*
X102651345Y-102516500D01*
X102590797Y-102523011D01*
X102590795Y-102523011D01*
X102453795Y-102574111D01*
X102336739Y-102661739D01*
X102249111Y-102778795D01*
X102198011Y-102915795D01*
X102198011Y-102915797D01*
X102191500Y-102976345D01*
X102191500Y-104073654D01*
X102198011Y-104134202D01*
X102198011Y-104134204D01*
X102249111Y-104271206D01*
X102249112Y-104271207D01*
X102258440Y-104283667D01*
X102282858Y-104349131D01*
X102273738Y-104405424D01*
X102271649Y-104410467D01*
X102230839Y-104544998D01*
X102230840Y-104545000D01*
X102768045Y-104545000D01*
X102835084Y-104564685D01*
X102880839Y-104617489D01*
X102890783Y-104686647D01*
X102884568Y-104711404D01*
X102875000Y-104737694D01*
X102875000Y-104852306D01*
X102884567Y-104878592D01*
X102888998Y-104948319D01*
X102855027Y-105009375D01*
X102793440Y-105042372D01*
X102768045Y-105045000D01*
X102230840Y-105045000D01*
X102271652Y-105179541D01*
X102364503Y-105353253D01*
X102367890Y-105358322D01*
X102366338Y-105359358D01*
X102390242Y-105415661D01*
X102378442Y-105484527D01*
X102367560Y-105501458D01*
X102367890Y-105501678D01*
X102364503Y-105506746D01*
X102271652Y-105680458D01*
X102230839Y-105814999D01*
X102230840Y-105815000D01*
X102768045Y-105815000D01*
X102835084Y-105834685D01*
X102880839Y-105887489D01*
X102890783Y-105956647D01*
X102884568Y-105981404D01*
X102875000Y-106007694D01*
X102875000Y-106122306D01*
X102884567Y-106148592D01*
X102888998Y-106218319D01*
X102855027Y-106279375D01*
X102793440Y-106312372D01*
X102768045Y-106315000D01*
X102230840Y-106315000D01*
X102271652Y-106449541D01*
X102364510Y-106623266D01*
X102365016Y-106624023D01*
X102365158Y-106624479D01*
X102367378Y-106628631D01*
X102366590Y-106629052D01*
X102385886Y-106690703D01*
X102367392Y-106758081D01*
X102357768Y-106771552D01*
X102357413Y-106771984D01*
X102357401Y-106772002D01*
X102263760Y-106947191D01*
X102206091Y-107137300D01*
X102186620Y-107335000D01*
X102206091Y-107532699D01*
X102263760Y-107722808D01*
X102357404Y-107898004D01*
X102359483Y-107901115D01*
X102360070Y-107902991D01*
X102360276Y-107903376D01*
X102360203Y-107903415D01*
X102380357Y-107967794D01*
X102361869Y-108035173D01*
X102359483Y-108038885D01*
X102357404Y-108041995D01*
X102263760Y-108217191D01*
X102206091Y-108407300D01*
X102187112Y-108600000D01*
X102186620Y-108605000D01*
X102188747Y-108626598D01*
X102206091Y-108802699D01*
X102263760Y-108992808D01*
X102357404Y-109168004D01*
X102359475Y-109171103D01*
X102360061Y-109172975D01*
X102360276Y-109173377D01*
X102360199Y-109173417D01*
X102380357Y-109237779D01*
X102361876Y-109305160D01*
X102359487Y-109308878D01*
X102357406Y-109311992D01*
X102263760Y-109487191D01*
X102206091Y-109677300D01*
X102186620Y-109874999D01*
X102206091Y-110072699D01*
X102263760Y-110262808D01*
X102357404Y-110438004D01*
X102359483Y-110441115D01*
X102360070Y-110442991D01*
X102360276Y-110443376D01*
X102360203Y-110443415D01*
X102380357Y-110507794D01*
X102361869Y-110575173D01*
X102359483Y-110578885D01*
X102357404Y-110581995D01*
X102263760Y-110757191D01*
X102206091Y-110947300D01*
X102186620Y-111145000D01*
X102206091Y-111342699D01*
X102263760Y-111532808D01*
X102357404Y-111708004D01*
X102359483Y-111711115D01*
X102360070Y-111712991D01*
X102360276Y-111713376D01*
X102360203Y-111713415D01*
X102380357Y-111777794D01*
X102361869Y-111845173D01*
X102359483Y-111848885D01*
X102357404Y-111851995D01*
X102263760Y-112027191D01*
X102206091Y-112217300D01*
X102186620Y-112415000D01*
X102206091Y-112612699D01*
X102263760Y-112802808D01*
X102357404Y-112978004D01*
X102359483Y-112981115D01*
X102360070Y-112982991D01*
X102360276Y-112983376D01*
X102360203Y-112983415D01*
X102380357Y-113047794D01*
X102361869Y-113115173D01*
X102359483Y-113118885D01*
X102357404Y-113121995D01*
X102263760Y-113297191D01*
X102206091Y-113487300D01*
X102186620Y-113685000D01*
X102206091Y-113882699D01*
X102263760Y-114072808D01*
X102357404Y-114248004D01*
X102359483Y-114251115D01*
X102360070Y-114252991D01*
X102360276Y-114253376D01*
X102360203Y-114253415D01*
X102380357Y-114317794D01*
X102361869Y-114385173D01*
X102359483Y-114388885D01*
X102357404Y-114391995D01*
X102263760Y-114567191D01*
X102206091Y-114757300D01*
X102186620Y-114954999D01*
X100381500Y-114954999D01*
X100381500Y-97849238D01*
X120217825Y-97849238D01*
X120237787Y-98039166D01*
X120237788Y-98039169D01*
X120296799Y-98220787D01*
X120296802Y-98220794D01*
X120392289Y-98386182D01*
X120520076Y-98528104D01*
X120674577Y-98640356D01*
X120849041Y-98718032D01*
X121035842Y-98757738D01*
X121226816Y-98757738D01*
X121413617Y-98718032D01*
X121540701Y-98661450D01*
X121609949Y-98652167D01*
X121664020Y-98674413D01*
X121673248Y-98681118D01*
X121833857Y-98752625D01*
X121887095Y-98797875D01*
X121907417Y-98864724D01*
X121901355Y-98904221D01*
X121895723Y-98921556D01*
X121886458Y-98950072D01*
X121866496Y-99140000D01*
X121886458Y-99329928D01*
X121886459Y-99329931D01*
X121945470Y-99511549D01*
X121945473Y-99511556D01*
X122040960Y-99676944D01*
X122168747Y-99818866D01*
X122206043Y-99845963D01*
X122248709Y-99901292D01*
X122256479Y-99959241D01*
X122245374Y-100064908D01*
X122245374Y-100064909D01*
X122265336Y-100254837D01*
X122265337Y-100254840D01*
X122324348Y-100436458D01*
X122324351Y-100436465D01*
X122419838Y-100601853D01*
X122547625Y-100743775D01*
X122702126Y-100856027D01*
X122876590Y-100933703D01*
X123063391Y-100973409D01*
X123254365Y-100973409D01*
X123441166Y-100933703D01*
X123615630Y-100856027D01*
X123770131Y-100743775D01*
X123897918Y-100601853D01*
X123993405Y-100436465D01*
X124050742Y-100260000D01*
X126716496Y-100260000D01*
X126736458Y-100449928D01*
X126736459Y-100449931D01*
X126795470Y-100631549D01*
X126795473Y-100631556D01*
X126890960Y-100796944D01*
X127018747Y-100938866D01*
X127173248Y-101051118D01*
X127347712Y-101128794D01*
X127534513Y-101168500D01*
X127725487Y-101168500D01*
X127912288Y-101128794D01*
X128086752Y-101051118D01*
X128241253Y-100938866D01*
X128369040Y-100796944D01*
X128464527Y-100631556D01*
X128523542Y-100449928D01*
X128543504Y-100260000D01*
X128523542Y-100070072D01*
X128464664Y-99888866D01*
X128464529Y-99888450D01*
X128464528Y-99888449D01*
X128464527Y-99888444D01*
X128369040Y-99723056D01*
X128241253Y-99581134D01*
X128086752Y-99468882D01*
X127912288Y-99391206D01*
X127912286Y-99391205D01*
X127725487Y-99351500D01*
X127534513Y-99351500D01*
X127347714Y-99391205D01*
X127347711Y-99391206D01*
X127347712Y-99391206D01*
X127196567Y-99458500D01*
X127173246Y-99468883D01*
X127018745Y-99581135D01*
X126890959Y-99723057D01*
X126795473Y-99888443D01*
X126795470Y-99888450D01*
X126736873Y-100068794D01*
X126736458Y-100070072D01*
X126716496Y-100260000D01*
X124050742Y-100260000D01*
X124052420Y-100254837D01*
X124063500Y-100149415D01*
X124090083Y-100084803D01*
X124147381Y-100044818D01*
X124212601Y-100041089D01*
X124294513Y-100058500D01*
X124485487Y-100058500D01*
X124672288Y-100018794D01*
X124846752Y-99941118D01*
X125001253Y-99828866D01*
X125129040Y-99686944D01*
X125224527Y-99521556D01*
X125283542Y-99339928D01*
X125303504Y-99150000D01*
X125283542Y-98960072D01*
X125267272Y-98910000D01*
X131206496Y-98910000D01*
X131226458Y-99099928D01*
X131226459Y-99099931D01*
X131285470Y-99281549D01*
X131285473Y-99281556D01*
X131380960Y-99446944D01*
X131508747Y-99588866D01*
X131663248Y-99701118D01*
X131837712Y-99778794D01*
X132024513Y-99818500D01*
X132215487Y-99818500D01*
X132402288Y-99778794D01*
X132576752Y-99701118D01*
X132731253Y-99588866D01*
X132859040Y-99446944D01*
X132954527Y-99281556D01*
X132981026Y-99200000D01*
X136636496Y-99200000D01*
X136656458Y-99389928D01*
X136656459Y-99389931D01*
X136715470Y-99571549D01*
X136715473Y-99571556D01*
X136810960Y-99736944D01*
X136848642Y-99778794D01*
X136937014Y-99876942D01*
X136938747Y-99878866D01*
X137093248Y-99991118D01*
X137267712Y-100068794D01*
X137454513Y-100108500D01*
X137645487Y-100108500D01*
X137832288Y-100068794D01*
X138006752Y-99991118D01*
X138161253Y-99878866D01*
X138289040Y-99736944D01*
X138384527Y-99571556D01*
X138443542Y-99389928D01*
X138463504Y-99200000D01*
X138443542Y-99010072D01*
X138384527Y-98828444D01*
X138289040Y-98663056D01*
X138187244Y-98550000D01*
X139396496Y-98550000D01*
X139416458Y-98739928D01*
X139416459Y-98739931D01*
X139475470Y-98921549D01*
X139475473Y-98921556D01*
X139570960Y-99086944D01*
X139698747Y-99228866D01*
X139853248Y-99341118D01*
X140027712Y-99418794D01*
X140214513Y-99458500D01*
X140405487Y-99458500D01*
X140592288Y-99418794D01*
X140766752Y-99341118D01*
X140921253Y-99228866D01*
X140938240Y-99210000D01*
X148346496Y-99210000D01*
X148366458Y-99399928D01*
X148366459Y-99399931D01*
X148425470Y-99581549D01*
X148425473Y-99581556D01*
X148520960Y-99746944D01*
X148585718Y-99818865D01*
X148638010Y-99876942D01*
X148648747Y-99888866D01*
X148803248Y-100001118D01*
X148977712Y-100078794D01*
X149164513Y-100118500D01*
X149355487Y-100118500D01*
X149542288Y-100078794D01*
X149716752Y-100001118D01*
X149871253Y-99888866D01*
X149999040Y-99746944D01*
X150094527Y-99581556D01*
X150153542Y-99399928D01*
X150159841Y-99340000D01*
X153636496Y-99340000D01*
X153656458Y-99529928D01*
X153656459Y-99529931D01*
X153715470Y-99711549D01*
X153715473Y-99711556D01*
X153810960Y-99876944D01*
X153938747Y-100018866D01*
X154093248Y-100131118D01*
X154267712Y-100208794D01*
X154454513Y-100248500D01*
X154645487Y-100248500D01*
X154832288Y-100208794D01*
X155006752Y-100131118D01*
X155161253Y-100018866D01*
X155289040Y-99876944D01*
X155384527Y-99711556D01*
X155443542Y-99529928D01*
X155463504Y-99340000D01*
X155443542Y-99150072D01*
X155384527Y-98968444D01*
X155289040Y-98803056D01*
X155170631Y-98671549D01*
X155161254Y-98661135D01*
X155133701Y-98641116D01*
X155006752Y-98548882D01*
X154832288Y-98471206D01*
X154832286Y-98471205D01*
X154645487Y-98431500D01*
X154454513Y-98431500D01*
X154267714Y-98471205D01*
X154267711Y-98471206D01*
X154267712Y-98471206D01*
X154116695Y-98538443D01*
X154093246Y-98548883D01*
X153938745Y-98661135D01*
X153810959Y-98803057D01*
X153715473Y-98968443D01*
X153715470Y-98968450D01*
X153656481Y-99150000D01*
X153656458Y-99150072D01*
X153636496Y-99340000D01*
X150159841Y-99340000D01*
X150173504Y-99210000D01*
X150153542Y-99020072D01*
X150094527Y-98838444D01*
X149999040Y-98673056D01*
X149871253Y-98531134D01*
X149716752Y-98418882D01*
X149542288Y-98341206D01*
X149542286Y-98341205D01*
X149355487Y-98301500D01*
X149164513Y-98301500D01*
X148977714Y-98341205D01*
X148935347Y-98360068D01*
X148825709Y-98408882D01*
X148803246Y-98418883D01*
X148648745Y-98531135D01*
X148520959Y-98673057D01*
X148425473Y-98838443D01*
X148425470Y-98838450D01*
X148369707Y-99010072D01*
X148366458Y-99020072D01*
X148346496Y-99210000D01*
X140938240Y-99210000D01*
X141049040Y-99086944D01*
X141144527Y-98921556D01*
X141203542Y-98739928D01*
X141223504Y-98550000D01*
X141203542Y-98360072D01*
X141144527Y-98178444D01*
X141049040Y-98013056D01*
X140921253Y-97871134D01*
X140766752Y-97758882D01*
X140592288Y-97681206D01*
X140592286Y-97681205D01*
X140405487Y-97641500D01*
X140214513Y-97641500D01*
X140027714Y-97681205D01*
X140027711Y-97681206D01*
X140027712Y-97681206D01*
X139855425Y-97757913D01*
X139853246Y-97758883D01*
X139698745Y-97871135D01*
X139570959Y-98013057D01*
X139475473Y-98178443D01*
X139475470Y-98178450D01*
X139416844Y-98358883D01*
X139416458Y-98360072D01*
X139399560Y-98520843D01*
X139396614Y-98548882D01*
X139396496Y-98550000D01*
X138187244Y-98550000D01*
X138161253Y-98521134D01*
X138006752Y-98408882D01*
X137832288Y-98331206D01*
X137832286Y-98331205D01*
X137645487Y-98291500D01*
X137454513Y-98291500D01*
X137267714Y-98331205D01*
X137093246Y-98408883D01*
X136938745Y-98521135D01*
X136810959Y-98663057D01*
X136715473Y-98828443D01*
X136715470Y-98828450D01*
X136656459Y-99010068D01*
X136656458Y-99010072D01*
X136636496Y-99200000D01*
X132981026Y-99200000D01*
X133013542Y-99099928D01*
X133033504Y-98910000D01*
X133013542Y-98720072D01*
X132954527Y-98538444D01*
X132859040Y-98373056D01*
X132731253Y-98231134D01*
X132576752Y-98118882D01*
X132402288Y-98041206D01*
X132402286Y-98041205D01*
X132215487Y-98001500D01*
X132024513Y-98001500D01*
X131837714Y-98041205D01*
X131663246Y-98118883D01*
X131508745Y-98231135D01*
X131380959Y-98373057D01*
X131285473Y-98538443D01*
X131285470Y-98538450D01*
X131227121Y-98718032D01*
X131226458Y-98720072D01*
X131206496Y-98910000D01*
X125267272Y-98910000D01*
X125224527Y-98778444D01*
X125129040Y-98613056D01*
X125001253Y-98471134D01*
X124846752Y-98358882D01*
X124672288Y-98281206D01*
X124672286Y-98281205D01*
X124485487Y-98241500D01*
X124294513Y-98241500D01*
X124107714Y-98281205D01*
X124107711Y-98281206D01*
X124107712Y-98281206D01*
X123955709Y-98348882D01*
X123933246Y-98358883D01*
X123778745Y-98471135D01*
X123681652Y-98578969D01*
X123622165Y-98615618D01*
X123552308Y-98614287D01*
X123497352Y-98578969D01*
X123391254Y-98461135D01*
X123236751Y-98348881D01*
X123076139Y-98277372D01*
X123022902Y-98232122D01*
X123002581Y-98165273D01*
X123008644Y-98125778D01*
X123023542Y-98079928D01*
X123043504Y-97890000D01*
X123039300Y-97850000D01*
X134846496Y-97850000D01*
X134866458Y-98039928D01*
X134866459Y-98039931D01*
X134925470Y-98221549D01*
X134925473Y-98221556D01*
X135020960Y-98386944D01*
X135148747Y-98528866D01*
X135303248Y-98641118D01*
X135477712Y-98718794D01*
X135664513Y-98758500D01*
X135855487Y-98758500D01*
X136042288Y-98718794D01*
X136216752Y-98641118D01*
X136371253Y-98528866D01*
X136499040Y-98386944D01*
X136594527Y-98221556D01*
X136653542Y-98039928D01*
X136673504Y-97850000D01*
X136653542Y-97660072D01*
X136653540Y-97660065D01*
X136652190Y-97653711D01*
X136654710Y-97653175D01*
X136653032Y-97594848D01*
X136689101Y-97535008D01*
X136722524Y-97513070D01*
X136816752Y-97471118D01*
X136971253Y-97358866D01*
X137099040Y-97216944D01*
X137194527Y-97051556D01*
X137253542Y-96869928D01*
X137273504Y-96680000D01*
X137253542Y-96490072D01*
X137222048Y-96393147D01*
X137220054Y-96323309D01*
X137256134Y-96263476D01*
X137318834Y-96232647D01*
X137388249Y-96240611D01*
X137412864Y-96254512D01*
X137463248Y-96291118D01*
X137637712Y-96368794D01*
X137824513Y-96408500D01*
X138015487Y-96408500D01*
X138202288Y-96368794D01*
X138376752Y-96291118D01*
X138531253Y-96178866D01*
X138659040Y-96036944D01*
X138754527Y-95871556D01*
X138813542Y-95689928D01*
X138833504Y-95500000D01*
X138831257Y-95478618D01*
X142514449Y-95478618D01*
X142534411Y-95668546D01*
X142534412Y-95668549D01*
X142593423Y-95850167D01*
X142593426Y-95850174D01*
X142688913Y-96015562D01*
X142791243Y-96129212D01*
X142816314Y-96157056D01*
X142816700Y-96157484D01*
X142971201Y-96269736D01*
X143018629Y-96290852D01*
X143071865Y-96336101D01*
X143092187Y-96402950D01*
X143073142Y-96470174D01*
X143060344Y-96487102D01*
X143000959Y-96553057D01*
X142905473Y-96718443D01*
X142905470Y-96718450D01*
X142854013Y-96876819D01*
X142846458Y-96900072D01*
X142826496Y-97090000D01*
X142846458Y-97279928D01*
X142846459Y-97279931D01*
X142905470Y-97461549D01*
X142905473Y-97461556D01*
X142964726Y-97564185D01*
X142981199Y-97632085D01*
X142958346Y-97698112D01*
X142949490Y-97709156D01*
X142900961Y-97763054D01*
X142900957Y-97763059D01*
X142805473Y-97928443D01*
X142805470Y-97928450D01*
X142746459Y-98110068D01*
X142746458Y-98110072D01*
X142726496Y-98300000D01*
X142746458Y-98489928D01*
X142746459Y-98489931D01*
X142805470Y-98671549D01*
X142805473Y-98671556D01*
X142900960Y-98836944D01*
X143028747Y-98978866D01*
X143183248Y-99091118D01*
X143357712Y-99168794D01*
X143544513Y-99208500D01*
X143735487Y-99208500D01*
X143922288Y-99168794D01*
X144096752Y-99091118D01*
X144251253Y-98978866D01*
X144379040Y-98836944D01*
X144474527Y-98671556D01*
X144533542Y-98489928D01*
X144553504Y-98300000D01*
X144533542Y-98110072D01*
X144474527Y-97928444D01*
X144415271Y-97825810D01*
X144398799Y-97757913D01*
X144421651Y-97691886D01*
X144430499Y-97680853D01*
X144479040Y-97626944D01*
X144574527Y-97461556D01*
X144633542Y-97279928D01*
X144653504Y-97090000D01*
X144633542Y-96900072D01*
X144574527Y-96718444D01*
X144479040Y-96553056D01*
X144351253Y-96411134D01*
X144229182Y-96322444D01*
X144196751Y-96298881D01*
X144149323Y-96277765D01*
X144096086Y-96232515D01*
X144075765Y-96165666D01*
X144094810Y-96098442D01*
X144107601Y-96081523D01*
X144166993Y-96015562D01*
X144262480Y-95850174D01*
X144321495Y-95668546D01*
X144341457Y-95478618D01*
X144321495Y-95288690D01*
X144262480Y-95107062D01*
X144245539Y-95077720D01*
X144229067Y-95009822D01*
X144245538Y-94953726D01*
X144304527Y-94851556D01*
X144363542Y-94669928D01*
X144383504Y-94480000D01*
X144363542Y-94290072D01*
X144304527Y-94108444D01*
X144209040Y-93943056D01*
X144081253Y-93801134D01*
X143926752Y-93688882D01*
X143752288Y-93611206D01*
X143752286Y-93611205D01*
X143565487Y-93571500D01*
X143374513Y-93571500D01*
X143187714Y-93611205D01*
X143013246Y-93688883D01*
X142858745Y-93801135D01*
X142730959Y-93943057D01*
X142635473Y-94108443D01*
X142635470Y-94108450D01*
X142585723Y-94261556D01*
X142576458Y-94290072D01*
X142556496Y-94480000D01*
X142576458Y-94669928D01*
X142576459Y-94669931D01*
X142635470Y-94851549D01*
X142635473Y-94851556D01*
X142642112Y-94863056D01*
X142652411Y-94880893D01*
X142668884Y-94948793D01*
X142652412Y-95004893D01*
X142593425Y-95107062D01*
X142556375Y-95221091D01*
X142534411Y-95288690D01*
X142514449Y-95478618D01*
X138831257Y-95478618D01*
X138813542Y-95310072D01*
X138784630Y-95221091D01*
X138782635Y-95151250D01*
X138810411Y-95099801D01*
X138830291Y-95077722D01*
X138939040Y-94956944D01*
X139034527Y-94791556D01*
X139093542Y-94609928D01*
X139113504Y-94420000D01*
X139093542Y-94230072D01*
X139034527Y-94048444D01*
X138939040Y-93883056D01*
X138811253Y-93741134D01*
X138656752Y-93628882D01*
X138482288Y-93551206D01*
X138482286Y-93551205D01*
X138295487Y-93511500D01*
X138104513Y-93511500D01*
X137917714Y-93551205D01*
X137917711Y-93551206D01*
X137917712Y-93551206D01*
X137782952Y-93611205D01*
X137743246Y-93628883D01*
X137588745Y-93741135D01*
X137460959Y-93883057D01*
X137365473Y-94048443D01*
X137365470Y-94048450D01*
X137306459Y-94230068D01*
X137306458Y-94230072D01*
X137286496Y-94420000D01*
X137306348Y-94608883D01*
X137306459Y-94609933D01*
X137335369Y-94698910D01*
X137337364Y-94768751D01*
X137309588Y-94820199D01*
X137180959Y-94963057D01*
X137085473Y-95128443D01*
X137085470Y-95128450D01*
X137033405Y-95288690D01*
X137026458Y-95310072D01*
X137006496Y-95500000D01*
X137026458Y-95689928D01*
X137026459Y-95689931D01*
X137057950Y-95786850D01*
X137059945Y-95856691D01*
X137023865Y-95916524D01*
X136961164Y-95947352D01*
X136891750Y-95939387D01*
X136867134Y-95925486D01*
X136816756Y-95888884D01*
X136816752Y-95888882D01*
X136642288Y-95811206D01*
X136642286Y-95811205D01*
X136455487Y-95771500D01*
X136264513Y-95771500D01*
X136077714Y-95811205D01*
X135903246Y-95888883D01*
X135748745Y-96001135D01*
X135620959Y-96143057D01*
X135525473Y-96308443D01*
X135525470Y-96308450D01*
X135492106Y-96411135D01*
X135466458Y-96490072D01*
X135446496Y-96680000D01*
X135450537Y-96718444D01*
X135466458Y-96869929D01*
X135467810Y-96876286D01*
X135465301Y-96876819D01*
X135466949Y-96935219D01*
X135430846Y-96995039D01*
X135397470Y-97016931D01*
X135303248Y-97058881D01*
X135148745Y-97171135D01*
X135020959Y-97313057D01*
X134925473Y-97478443D01*
X134925470Y-97478450D01*
X134866460Y-97660065D01*
X134866458Y-97660072D01*
X134846496Y-97850000D01*
X123039300Y-97850000D01*
X123023542Y-97700072D01*
X122964527Y-97518444D01*
X122869040Y-97353056D01*
X122741253Y-97211134D01*
X122586752Y-97098882D01*
X122412288Y-97021206D01*
X122412286Y-97021205D01*
X122225487Y-96981500D01*
X122034513Y-96981500D01*
X121847713Y-97021205D01*
X121847710Y-97021206D01*
X121720628Y-97077786D01*
X121651378Y-97087070D01*
X121597308Y-97064824D01*
X121588079Y-97058118D01*
X121446398Y-96995039D01*
X121413617Y-96980444D01*
X121413615Y-96980443D01*
X121226816Y-96940738D01*
X121035842Y-96940738D01*
X120849043Y-96980443D01*
X120846669Y-96981500D01*
X120674582Y-97058118D01*
X120674575Y-97058121D01*
X120520074Y-97170373D01*
X120392288Y-97312295D01*
X120296802Y-97477681D01*
X120296799Y-97477688D01*
X120239780Y-97653175D01*
X120237787Y-97659310D01*
X120217825Y-97849238D01*
X100381500Y-97849238D01*
X100381500Y-95785500D01*
X113876496Y-95785500D01*
X113896458Y-95975428D01*
X113896459Y-95975431D01*
X113955470Y-96157049D01*
X113955473Y-96157056D01*
X114050960Y-96322444D01*
X114178747Y-96464366D01*
X114333248Y-96576618D01*
X114507712Y-96654294D01*
X114694513Y-96694000D01*
X114885487Y-96694000D01*
X115072288Y-96654294D01*
X115246752Y-96576618D01*
X115401253Y-96464366D01*
X115529040Y-96322444D01*
X115624527Y-96157056D01*
X115683542Y-95975428D01*
X115703504Y-95785500D01*
X115683542Y-95595572D01*
X115624527Y-95413944D01*
X115616476Y-95400000D01*
X130561496Y-95400000D01*
X130581458Y-95589928D01*
X130581459Y-95589931D01*
X130640470Y-95771549D01*
X130640473Y-95771556D01*
X130735960Y-95936944D01*
X130863747Y-96078866D01*
X131018248Y-96191118D01*
X131192712Y-96268794D01*
X131379513Y-96308500D01*
X131570487Y-96308500D01*
X131757288Y-96268794D01*
X131931752Y-96191118D01*
X132086253Y-96078866D01*
X132214040Y-95936944D01*
X132309527Y-95771556D01*
X132368542Y-95589928D01*
X132388504Y-95400000D01*
X132368542Y-95210072D01*
X132309527Y-95028444D01*
X132214040Y-94863056D01*
X132086253Y-94721134D01*
X131931752Y-94608882D01*
X131757288Y-94531206D01*
X131757286Y-94531205D01*
X131570487Y-94491500D01*
X131379513Y-94491500D01*
X131192714Y-94531205D01*
X131192711Y-94531206D01*
X131192712Y-94531206D01*
X131035687Y-94601118D01*
X131018246Y-94608883D01*
X130863745Y-94721135D01*
X130735959Y-94863057D01*
X130640473Y-95028443D01*
X130640470Y-95028450D01*
X130581459Y-95210068D01*
X130581458Y-95210072D01*
X130561496Y-95400000D01*
X115616476Y-95400000D01*
X115529040Y-95248556D01*
X115401638Y-95107062D01*
X115401254Y-95106635D01*
X115293633Y-95028443D01*
X115246752Y-94994382D01*
X115072288Y-94916706D01*
X115072286Y-94916705D01*
X114885487Y-94877000D01*
X114694513Y-94877000D01*
X114507714Y-94916705D01*
X114333246Y-94994383D01*
X114178745Y-95106635D01*
X114050959Y-95248557D01*
X113955473Y-95413943D01*
X113955470Y-95413950D01*
X113927511Y-95500000D01*
X113896458Y-95595572D01*
X113876496Y-95785500D01*
X100381500Y-95785500D01*
X100381500Y-93810000D01*
X119126496Y-93810000D01*
X119146458Y-93999928D01*
X119146459Y-93999931D01*
X119205470Y-94181549D01*
X119205473Y-94181556D01*
X119300960Y-94346944D01*
X119428747Y-94488866D01*
X119583248Y-94601118D01*
X119757712Y-94678794D01*
X119944513Y-94718500D01*
X120135487Y-94718500D01*
X120322288Y-94678794D01*
X120496752Y-94601118D01*
X120651253Y-94488866D01*
X120779040Y-94346944D01*
X120874527Y-94181556D01*
X120933542Y-93999928D01*
X120945096Y-93890000D01*
X124746496Y-93890000D01*
X124766458Y-94079928D01*
X124766459Y-94079931D01*
X124825470Y-94261549D01*
X124825473Y-94261556D01*
X124920960Y-94426944D01*
X125048747Y-94568866D01*
X125203248Y-94681118D01*
X125377712Y-94758794D01*
X125564513Y-94798500D01*
X125755487Y-94798500D01*
X125942288Y-94758794D01*
X126116752Y-94681118D01*
X126271253Y-94568866D01*
X126399040Y-94426944D01*
X126494527Y-94261556D01*
X126553542Y-94079928D01*
X126573504Y-93890000D01*
X126553542Y-93700072D01*
X126494527Y-93518444D01*
X126399040Y-93353056D01*
X126271253Y-93211134D01*
X126116752Y-93098882D01*
X125942288Y-93021206D01*
X125942286Y-93021205D01*
X125755487Y-92981500D01*
X125564513Y-92981500D01*
X125377714Y-93021205D01*
X125203246Y-93098883D01*
X125048745Y-93211135D01*
X124920959Y-93353057D01*
X124825473Y-93518443D01*
X124825470Y-93518450D01*
X124766459Y-93700068D01*
X124766458Y-93700072D01*
X124746496Y-93890000D01*
X120945096Y-93890000D01*
X120953504Y-93810000D01*
X120933542Y-93620072D01*
X120874527Y-93438444D01*
X120779040Y-93273056D01*
X120651253Y-93131134D01*
X120496752Y-93018882D01*
X120322288Y-92941206D01*
X120322286Y-92941205D01*
X120135487Y-92901500D01*
X119944513Y-92901500D01*
X119757714Y-92941205D01*
X119583246Y-93018883D01*
X119428745Y-93131135D01*
X119300959Y-93273057D01*
X119205473Y-93438443D01*
X119205470Y-93438450D01*
X119146459Y-93620068D01*
X119146458Y-93620072D01*
X119126496Y-93810000D01*
X100381500Y-93810000D01*
X100381500Y-89285005D01*
X102286844Y-89285005D01*
X102305434Y-89509359D01*
X102305436Y-89509371D01*
X102360703Y-89727614D01*
X102451140Y-89933792D01*
X102574276Y-90122265D01*
X102574284Y-90122276D01*
X102719489Y-90280008D01*
X102750412Y-90342662D01*
X102742552Y-90412088D01*
X102698405Y-90466244D01*
X102671596Y-90480172D01*
X102553794Y-90524111D01*
X102436739Y-90611739D01*
X102349111Y-90728795D01*
X102298011Y-90865795D01*
X102298011Y-90865797D01*
X102291500Y-90926345D01*
X102291500Y-92723654D01*
X102298011Y-92784202D01*
X102298011Y-92784204D01*
X102337049Y-92888866D01*
X102349111Y-92921204D01*
X102436739Y-93038261D01*
X102553796Y-93125889D01*
X102690799Y-93176989D01*
X102718050Y-93179918D01*
X102751345Y-93183499D01*
X102751362Y-93183500D01*
X104548638Y-93183500D01*
X104548654Y-93183499D01*
X104575692Y-93180591D01*
X104609201Y-93176989D01*
X104746204Y-93125889D01*
X104863261Y-93038261D01*
X104950889Y-92921204D01*
X105001989Y-92784201D01*
X105005591Y-92750692D01*
X105008499Y-92723654D01*
X105008500Y-92723637D01*
X105008500Y-91570000D01*
X124076496Y-91570000D01*
X124096458Y-91759928D01*
X124096459Y-91759931D01*
X124155470Y-91941549D01*
X124155473Y-91941556D01*
X124250960Y-92106944D01*
X124378747Y-92248866D01*
X124533248Y-92361118D01*
X124707712Y-92438794D01*
X124894513Y-92478500D01*
X125085487Y-92478500D01*
X125272288Y-92438794D01*
X125446752Y-92361118D01*
X125601253Y-92248866D01*
X125636248Y-92210000D01*
X126146496Y-92210000D01*
X126166458Y-92399928D01*
X126166459Y-92399931D01*
X126225470Y-92581549D01*
X126225473Y-92581556D01*
X126320960Y-92746944D01*
X126423290Y-92860593D01*
X126441021Y-92880286D01*
X126448747Y-92888866D01*
X126603248Y-93001118D01*
X126777712Y-93078794D01*
X126964513Y-93118500D01*
X127155487Y-93118500D01*
X127342288Y-93078794D01*
X127516752Y-93001118D01*
X127671253Y-92888866D01*
X127799040Y-92746944D01*
X127894527Y-92581556D01*
X127953542Y-92399928D01*
X127973504Y-92210000D01*
X127955053Y-92034453D01*
X127967622Y-91965727D01*
X128005490Y-91921176D01*
X128091253Y-91858866D01*
X128219040Y-91716944D01*
X128314527Y-91551556D01*
X128363771Y-91400001D01*
X161916309Y-91400001D01*
X161936246Y-91678752D01*
X161936247Y-91678759D01*
X161995648Y-91951820D01*
X161995650Y-91951827D01*
X162053505Y-92106942D01*
X162093312Y-92213671D01*
X162093314Y-92213675D01*
X162227240Y-92458942D01*
X162227245Y-92458950D01*
X162394713Y-92682662D01*
X162394729Y-92682680D01*
X162592319Y-92880270D01*
X162592337Y-92880286D01*
X162816049Y-93047754D01*
X162816057Y-93047759D01*
X163061324Y-93181685D01*
X163061328Y-93181687D01*
X163061330Y-93181688D01*
X163323173Y-93279350D01*
X163596249Y-93338754D01*
X163805218Y-93353700D01*
X163944782Y-93353700D01*
X164153751Y-93338754D01*
X164426827Y-93279350D01*
X164688670Y-93181688D01*
X164933948Y-93047756D01*
X165157670Y-92880280D01*
X165355280Y-92682670D01*
X165522756Y-92458948D01*
X165656688Y-92213670D01*
X165754350Y-91951827D01*
X165813754Y-91678751D01*
X165833691Y-91400000D01*
X165813754Y-91121249D01*
X165754350Y-90848173D01*
X165656688Y-90586330D01*
X165610167Y-90501134D01*
X165522759Y-90341057D01*
X165522754Y-90341049D01*
X165355286Y-90117337D01*
X165355270Y-90117319D01*
X165157680Y-89919729D01*
X165157662Y-89919713D01*
X164933950Y-89752245D01*
X164933942Y-89752240D01*
X164688675Y-89618314D01*
X164688671Y-89618312D01*
X164589401Y-89581286D01*
X164426827Y-89520650D01*
X164426823Y-89520649D01*
X164426820Y-89520648D01*
X164153759Y-89461247D01*
X164153752Y-89461246D01*
X163944782Y-89446300D01*
X163805218Y-89446300D01*
X163596247Y-89461246D01*
X163596240Y-89461247D01*
X163323179Y-89520648D01*
X163323174Y-89520649D01*
X163323173Y-89520650D01*
X163259867Y-89544261D01*
X163061328Y-89618312D01*
X163061324Y-89618314D01*
X162816057Y-89752240D01*
X162816049Y-89752245D01*
X162592337Y-89919713D01*
X162592319Y-89919729D01*
X162394729Y-90117319D01*
X162394713Y-90117337D01*
X162227245Y-90341049D01*
X162227240Y-90341057D01*
X162093314Y-90586324D01*
X162093312Y-90586328D01*
X162040175Y-90728796D01*
X162010469Y-90808443D01*
X161995648Y-90848179D01*
X161936247Y-91121240D01*
X161936246Y-91121247D01*
X161916309Y-91399998D01*
X161916309Y-91400001D01*
X128363771Y-91400001D01*
X128373542Y-91369928D01*
X128393504Y-91180000D01*
X128373542Y-90990072D01*
X128314527Y-90808444D01*
X128219040Y-90643056D01*
X128091253Y-90501134D01*
X128004770Y-90438300D01*
X127936751Y-90388881D01*
X127931129Y-90385636D01*
X127932100Y-90383953D01*
X127885925Y-90344699D01*
X127865609Y-90277848D01*
X127884660Y-90210626D01*
X127930660Y-90170000D01*
X131936496Y-90170000D01*
X131956458Y-90359928D01*
X131956459Y-90359931D01*
X132015470Y-90541549D01*
X132015473Y-90541556D01*
X132110960Y-90706944D01*
X132238747Y-90848866D01*
X132393248Y-90961118D01*
X132567712Y-91038794D01*
X132754513Y-91078500D01*
X132945487Y-91078500D01*
X133132288Y-91038794D01*
X133306752Y-90961118D01*
X133461253Y-90848866D01*
X133589040Y-90706944D01*
X133684527Y-90541556D01*
X133743542Y-90359928D01*
X133763504Y-90170000D01*
X133743542Y-89980072D01*
X133684527Y-89798444D01*
X133589040Y-89633056D01*
X133461253Y-89491134D01*
X133306752Y-89378882D01*
X133132288Y-89301206D01*
X133132286Y-89301205D01*
X132945487Y-89261500D01*
X132754513Y-89261500D01*
X132567714Y-89301205D01*
X132393246Y-89378883D01*
X132238745Y-89491135D01*
X132110959Y-89633057D01*
X132015473Y-89798443D01*
X132015470Y-89798450D01*
X131971495Y-89933792D01*
X131956458Y-89980072D01*
X131936496Y-90170000D01*
X127930660Y-90170000D01*
X127937029Y-90164375D01*
X127939108Y-90163425D01*
X127966752Y-90151118D01*
X128121253Y-90038866D01*
X128249040Y-89896944D01*
X128344527Y-89731556D01*
X128403542Y-89549928D01*
X128423504Y-89360000D01*
X128403542Y-89170072D01*
X128344527Y-88988444D01*
X128249040Y-88823056D01*
X128121253Y-88681134D01*
X127966752Y-88568882D01*
X127792288Y-88491206D01*
X127792286Y-88491205D01*
X127605487Y-88451500D01*
X127414513Y-88451500D01*
X127227714Y-88491205D01*
X127053246Y-88568883D01*
X126898745Y-88681135D01*
X126770959Y-88823057D01*
X126675473Y-88988443D01*
X126675470Y-88988450D01*
X126623003Y-89149928D01*
X126616458Y-89170072D01*
X126596496Y-89360000D01*
X126616458Y-89549928D01*
X126616459Y-89549931D01*
X126675470Y-89731549D01*
X126675473Y-89731556D01*
X126770960Y-89896944D01*
X126898747Y-90038866D01*
X127013540Y-90122268D01*
X127053248Y-90151118D01*
X127058871Y-90154364D01*
X127057898Y-90156049D01*
X127104065Y-90195286D01*
X127124390Y-90262135D01*
X127105348Y-90329359D01*
X127052984Y-90375617D01*
X127050834Y-90376599D01*
X127023250Y-90388880D01*
X127023248Y-90388881D01*
X126868745Y-90501135D01*
X126740959Y-90643057D01*
X126645473Y-90808443D01*
X126645470Y-90808450D01*
X126586459Y-90990068D01*
X126586458Y-90990072D01*
X126577164Y-91078500D01*
X126566496Y-91180000D01*
X126584946Y-91355543D01*
X126572376Y-91424273D01*
X126534511Y-91468821D01*
X126448750Y-91531131D01*
X126448746Y-91531134D01*
X126320959Y-91673057D01*
X126225473Y-91838443D01*
X126225470Y-91838450D01*
X126182533Y-91970598D01*
X126166458Y-92020072D01*
X126146496Y-92210000D01*
X125636248Y-92210000D01*
X125729040Y-92106944D01*
X125824527Y-91941556D01*
X125883542Y-91759928D01*
X125903504Y-91570000D01*
X125883542Y-91380072D01*
X125824527Y-91198444D01*
X125729040Y-91033056D01*
X125601253Y-90891134D01*
X125446752Y-90778882D01*
X125272288Y-90701206D01*
X125272286Y-90701205D01*
X125085487Y-90661500D01*
X124894513Y-90661500D01*
X124707714Y-90701205D01*
X124533246Y-90778883D01*
X124378745Y-90891135D01*
X124250959Y-91033057D01*
X124155473Y-91198443D01*
X124155470Y-91198450D01*
X124104428Y-91355543D01*
X124096458Y-91380072D01*
X124076496Y-91570000D01*
X105008500Y-91570000D01*
X105008500Y-90926362D01*
X105008499Y-90926345D01*
X105004713Y-90891134D01*
X105001989Y-90865799D01*
X104995673Y-90848866D01*
X104979522Y-90805564D01*
X104950889Y-90728796D01*
X104863261Y-90611739D01*
X104746204Y-90524111D01*
X104746204Y-90524110D01*
X104628404Y-90480172D01*
X104572471Y-90438300D01*
X104548055Y-90372835D01*
X104562908Y-90304562D01*
X104580504Y-90280014D01*
X104725722Y-90122268D01*
X104848860Y-89933791D01*
X104939296Y-89727616D01*
X104994564Y-89509368D01*
X104996075Y-89491134D01*
X105013156Y-89285005D01*
X105013156Y-89284994D01*
X104994565Y-89060640D01*
X104994563Y-89060628D01*
X104969080Y-88960000D01*
X110876496Y-88960000D01*
X110896458Y-89149928D01*
X110896459Y-89149931D01*
X110955470Y-89331549D01*
X110955473Y-89331556D01*
X111050960Y-89496944D01*
X111098667Y-89549928D01*
X111173516Y-89633057D01*
X111178747Y-89638866D01*
X111333248Y-89751118D01*
X111507712Y-89828794D01*
X111694513Y-89868500D01*
X111885487Y-89868500D01*
X112072288Y-89828794D01*
X112246752Y-89751118D01*
X112401253Y-89638866D01*
X112529040Y-89496944D01*
X112624527Y-89331556D01*
X112683542Y-89149928D01*
X112703504Y-88960000D01*
X112683542Y-88770072D01*
X112624527Y-88588444D01*
X112529040Y-88423056D01*
X112401253Y-88281134D01*
X112246752Y-88168882D01*
X112072288Y-88091206D01*
X112072286Y-88091205D01*
X111885487Y-88051500D01*
X111694513Y-88051500D01*
X111507714Y-88091205D01*
X111507711Y-88091206D01*
X111507712Y-88091206D01*
X111389557Y-88143812D01*
X111333246Y-88168883D01*
X111178745Y-88281135D01*
X111050959Y-88423057D01*
X110955473Y-88588443D01*
X110955470Y-88588450D01*
X110906716Y-88738500D01*
X110896458Y-88770072D01*
X110876496Y-88960000D01*
X104969080Y-88960000D01*
X104939296Y-88842385D01*
X104923750Y-88806944D01*
X104848860Y-88636209D01*
X104838999Y-88621116D01*
X104733690Y-88459928D01*
X104725722Y-88447732D01*
X104725719Y-88447729D01*
X104725715Y-88447723D01*
X104573243Y-88282097D01*
X104573238Y-88282092D01*
X104395577Y-88143812D01*
X104395577Y-88143811D01*
X104352303Y-88120393D01*
X104302713Y-88071173D01*
X104287605Y-88002957D01*
X104311775Y-87937401D01*
X104340198Y-87909763D01*
X104521079Y-87783108D01*
X104688105Y-87616082D01*
X104823600Y-87422578D01*
X104923429Y-87208492D01*
X104923432Y-87208486D01*
X104980636Y-86995000D01*
X104263347Y-86995000D01*
X104196308Y-86975315D01*
X104150553Y-86922511D01*
X104145727Y-86888948D01*
X106057547Y-86888948D01*
X106077509Y-87078876D01*
X106077510Y-87078879D01*
X106136521Y-87260497D01*
X106136524Y-87260504D01*
X106232011Y-87425892D01*
X106359798Y-87567814D01*
X106514299Y-87680066D01*
X106688763Y-87757742D01*
X106875564Y-87797448D01*
X107066538Y-87797448D01*
X107253339Y-87757742D01*
X107427803Y-87680066D01*
X107582304Y-87567814D01*
X107710091Y-87425892D01*
X107800095Y-87270000D01*
X108956496Y-87270000D01*
X108976458Y-87459928D01*
X108976459Y-87459931D01*
X109035470Y-87641549D01*
X109035473Y-87641556D01*
X109130960Y-87806944D01*
X109258747Y-87948866D01*
X109413248Y-88061118D01*
X109587712Y-88138794D01*
X109774513Y-88178500D01*
X109965487Y-88178500D01*
X110152288Y-88138794D01*
X110326752Y-88061118D01*
X110481253Y-87948866D01*
X110588280Y-87830000D01*
X131666496Y-87830000D01*
X131686458Y-88019928D01*
X131686459Y-88019931D01*
X131745470Y-88201549D01*
X131745473Y-88201556D01*
X131840960Y-88366944D01*
X131968747Y-88508866D01*
X132123248Y-88621118D01*
X132297712Y-88698794D01*
X132484513Y-88738500D01*
X132675487Y-88738500D01*
X132862288Y-88698794D01*
X133036752Y-88621118D01*
X133191253Y-88508866D01*
X133319040Y-88366944D01*
X133375011Y-88270000D01*
X144386496Y-88270000D01*
X144406458Y-88459928D01*
X144406459Y-88459931D01*
X144465470Y-88641549D01*
X144465473Y-88641556D01*
X144560960Y-88806944D01*
X144688747Y-88948866D01*
X144843248Y-89061118D01*
X145017712Y-89138794D01*
X145204513Y-89178500D01*
X145395487Y-89178500D01*
X145582288Y-89138794D01*
X145756752Y-89061118D01*
X145911253Y-88948866D01*
X146039040Y-88806944D01*
X146134527Y-88641556D01*
X146193542Y-88459928D01*
X146213504Y-88270000D01*
X146193542Y-88080072D01*
X146134527Y-87898444D01*
X146039040Y-87733056D01*
X145911253Y-87591134D01*
X145756752Y-87478882D01*
X145582288Y-87401206D01*
X145582286Y-87401205D01*
X145395487Y-87361500D01*
X145204513Y-87361500D01*
X145017714Y-87401205D01*
X144843246Y-87478883D01*
X144688745Y-87591135D01*
X144560959Y-87733057D01*
X144465473Y-87898443D01*
X144465470Y-87898450D01*
X144409349Y-88071173D01*
X144406458Y-88080072D01*
X144386496Y-88270000D01*
X133375011Y-88270000D01*
X133414527Y-88201556D01*
X133473542Y-88019928D01*
X133493504Y-87830000D01*
X133473542Y-87640072D01*
X133414527Y-87458444D01*
X133319040Y-87293056D01*
X133191253Y-87151134D01*
X133036752Y-87038882D01*
X132862288Y-86961206D01*
X132862286Y-86961205D01*
X132675487Y-86921500D01*
X132484513Y-86921500D01*
X132297714Y-86961205D01*
X132123246Y-87038883D01*
X131968745Y-87151135D01*
X131840959Y-87293057D01*
X131745473Y-87458443D01*
X131745470Y-87458450D01*
X131686459Y-87640068D01*
X131686458Y-87640072D01*
X131666496Y-87830000D01*
X110588280Y-87830000D01*
X110609040Y-87806944D01*
X110704527Y-87641556D01*
X110763542Y-87459928D01*
X110783504Y-87270000D01*
X110763542Y-87080072D01*
X110704527Y-86898444D01*
X110609040Y-86733056D01*
X110481253Y-86591134D01*
X110326752Y-86478882D01*
X110216961Y-86430000D01*
X123186496Y-86430000D01*
X123206458Y-86619928D01*
X123206459Y-86619931D01*
X123265470Y-86801549D01*
X123265473Y-86801556D01*
X123360960Y-86966944D01*
X123488747Y-87108866D01*
X123643248Y-87221118D01*
X123817712Y-87298794D01*
X124004513Y-87338500D01*
X124195487Y-87338500D01*
X124382288Y-87298794D01*
X124556752Y-87221118D01*
X124711253Y-87108866D01*
X124839040Y-86966944D01*
X124934527Y-86801556D01*
X124993542Y-86619928D01*
X125013504Y-86430000D01*
X124993542Y-86240072D01*
X124934527Y-86058444D01*
X124839040Y-85893056D01*
X124711253Y-85751134D01*
X124556752Y-85638882D01*
X124382288Y-85561206D01*
X124382286Y-85561205D01*
X124195487Y-85521500D01*
X124004513Y-85521500D01*
X123817714Y-85561205D01*
X123643246Y-85638883D01*
X123488745Y-85751135D01*
X123360959Y-85893057D01*
X123265473Y-86058443D01*
X123265470Y-86058450D01*
X123216202Y-86210082D01*
X123206458Y-86240072D01*
X123186496Y-86430000D01*
X110216961Y-86430000D01*
X110152288Y-86401206D01*
X110152286Y-86401205D01*
X109965487Y-86361500D01*
X109774513Y-86361500D01*
X109587714Y-86401205D01*
X109413246Y-86478883D01*
X109258745Y-86591135D01*
X109130959Y-86733057D01*
X109035473Y-86898443D01*
X109035470Y-86898450D01*
X108976459Y-87080068D01*
X108976458Y-87080072D01*
X108956496Y-87270000D01*
X107800095Y-87270000D01*
X107805578Y-87260504D01*
X107864593Y-87078876D01*
X107884555Y-86888948D01*
X107864593Y-86699020D01*
X107805578Y-86517392D01*
X107710091Y-86352004D01*
X107582304Y-86210082D01*
X107427803Y-86097830D01*
X107253339Y-86020154D01*
X107253337Y-86020153D01*
X107066538Y-85980448D01*
X106875564Y-85980448D01*
X106688765Y-86020153D01*
X106514297Y-86097831D01*
X106359796Y-86210083D01*
X106232010Y-86352005D01*
X106136524Y-86517391D01*
X106136521Y-86517398D01*
X106085927Y-86673111D01*
X106077509Y-86699020D01*
X106057547Y-86888948D01*
X104145727Y-86888948D01*
X104140609Y-86853353D01*
X104144369Y-86836067D01*
X104150000Y-86816888D01*
X104150000Y-86673111D01*
X104144369Y-86653933D01*
X104144370Y-86584064D01*
X104182145Y-86525286D01*
X104245701Y-86496262D01*
X104263347Y-86495000D01*
X104980636Y-86495000D01*
X104980635Y-86494999D01*
X104923432Y-86281513D01*
X104923429Y-86281507D01*
X104823600Y-86067422D01*
X104823599Y-86067420D01*
X104688113Y-85873926D01*
X104688108Y-85873920D01*
X104521082Y-85706894D01*
X104340197Y-85580236D01*
X104296572Y-85525659D01*
X104289380Y-85456160D01*
X104320902Y-85393806D01*
X104352300Y-85369608D01*
X104395576Y-85346189D01*
X104573240Y-85207906D01*
X104725722Y-85042268D01*
X104848860Y-84853791D01*
X104939296Y-84647616D01*
X104994564Y-84429368D01*
X104994565Y-84429359D01*
X105013156Y-84205005D01*
X105013156Y-84204994D01*
X104994565Y-83980640D01*
X104994563Y-83980628D01*
X104956136Y-83828883D01*
X104939296Y-83762384D01*
X104848860Y-83556209D01*
X104842806Y-83546943D01*
X104787290Y-83461970D01*
X104725722Y-83367732D01*
X104725719Y-83367729D01*
X104725715Y-83367723D01*
X104573243Y-83202097D01*
X104573238Y-83202092D01*
X104395577Y-83063812D01*
X104395578Y-83063812D01*
X104395576Y-83063811D01*
X104359070Y-83044055D01*
X104324758Y-83010000D01*
X110606496Y-83010000D01*
X110626458Y-83199928D01*
X110626459Y-83199931D01*
X110685470Y-83381549D01*
X110685473Y-83381556D01*
X110780960Y-83546944D01*
X110908747Y-83688866D01*
X111063248Y-83801118D01*
X111237712Y-83878794D01*
X111251878Y-83881805D01*
X111313359Y-83914995D01*
X111347137Y-83976158D01*
X111342486Y-84045872D01*
X111323707Y-84077023D01*
X111324778Y-84077801D01*
X111320959Y-84083056D01*
X111225473Y-84248443D01*
X111225470Y-84248450D01*
X111166459Y-84430068D01*
X111166458Y-84430072D01*
X111146496Y-84620000D01*
X111166458Y-84809928D01*
X111166459Y-84809931D01*
X111225470Y-84991549D01*
X111225473Y-84991556D01*
X111320960Y-85156944D01*
X111448747Y-85298866D01*
X111603248Y-85411118D01*
X111777712Y-85488794D01*
X111964513Y-85528500D01*
X112155487Y-85528500D01*
X112342288Y-85488794D01*
X112516752Y-85411118D01*
X112671253Y-85298866D01*
X112799040Y-85156944D01*
X112894527Y-84991556D01*
X112899906Y-84975000D01*
X128436496Y-84975000D01*
X128456458Y-85164928D01*
X128456459Y-85164931D01*
X128515470Y-85346549D01*
X128515473Y-85346556D01*
X128610960Y-85511944D01*
X128738747Y-85653866D01*
X128893248Y-85766118D01*
X129067712Y-85843794D01*
X129254513Y-85883500D01*
X129445487Y-85883500D01*
X129632288Y-85843794D01*
X129806752Y-85766118D01*
X129961253Y-85653866D01*
X130089040Y-85511944D01*
X130184527Y-85346556D01*
X130243542Y-85164928D01*
X130263504Y-84975000D01*
X130243542Y-84785072D01*
X130184527Y-84603444D01*
X130089040Y-84438056D01*
X129961253Y-84296134D01*
X129806752Y-84183882D01*
X129632288Y-84106206D01*
X129632286Y-84106205D01*
X129445487Y-84066500D01*
X129254513Y-84066500D01*
X129067714Y-84106205D01*
X128893246Y-84183883D01*
X128738745Y-84296135D01*
X128610959Y-84438057D01*
X128515473Y-84603443D01*
X128515470Y-84603450D01*
X128456459Y-84785068D01*
X128456458Y-84785072D01*
X128436496Y-84975000D01*
X112899906Y-84975000D01*
X112953542Y-84809928D01*
X112973504Y-84620000D01*
X112953542Y-84430072D01*
X112894527Y-84248444D01*
X112799040Y-84083056D01*
X112671253Y-83941134D01*
X112516752Y-83828882D01*
X112409472Y-83781118D01*
X112342287Y-83751205D01*
X112328118Y-83748194D01*
X112266637Y-83715000D01*
X112232861Y-83653837D01*
X112237515Y-83584122D01*
X112256299Y-83552981D01*
X112255222Y-83552199D01*
X112259036Y-83546948D01*
X112259040Y-83546944D01*
X112354527Y-83381556D01*
X112413542Y-83199928D01*
X112433504Y-83010000D01*
X112413542Y-82820072D01*
X112354527Y-82638444D01*
X112259040Y-82473056D01*
X112175252Y-82380000D01*
X117666496Y-82380000D01*
X117686458Y-82569928D01*
X117686459Y-82569931D01*
X117745470Y-82751549D01*
X117745473Y-82751556D01*
X117840960Y-82916944D01*
X117968747Y-83058866D01*
X118123248Y-83171118D01*
X118297712Y-83248794D01*
X118484513Y-83288500D01*
X118675487Y-83288500D01*
X118862288Y-83248794D01*
X119036752Y-83171118D01*
X119191253Y-83058866D01*
X119319040Y-82916944D01*
X119414527Y-82751556D01*
X119473542Y-82569928D01*
X119493504Y-82380000D01*
X119473542Y-82190072D01*
X119450774Y-82120000D01*
X122136496Y-82120000D01*
X122156458Y-82309928D01*
X122156459Y-82309931D01*
X122215470Y-82491549D01*
X122215473Y-82491556D01*
X122310960Y-82656944D01*
X122438747Y-82798866D01*
X122593248Y-82911118D01*
X122767712Y-82988794D01*
X122819819Y-82999869D01*
X122881298Y-83033061D01*
X122915075Y-83094224D01*
X122917357Y-83108197D01*
X122923971Y-83171118D01*
X122936458Y-83289928D01*
X122936459Y-83289931D01*
X122995470Y-83471549D01*
X122995473Y-83471556D01*
X123090960Y-83636944D01*
X123161242Y-83715000D01*
X123203906Y-83762384D01*
X123218747Y-83778866D01*
X123373248Y-83891118D01*
X123547712Y-83968794D01*
X123734513Y-84008500D01*
X123925487Y-84008500D01*
X124112288Y-83968794D01*
X124286752Y-83891118D01*
X124441253Y-83778866D01*
X124569040Y-83636944D01*
X124664527Y-83471556D01*
X124723542Y-83289928D01*
X124743504Y-83100000D01*
X124731943Y-82990000D01*
X127276496Y-82990000D01*
X127296458Y-83179928D01*
X127296459Y-83179931D01*
X127355470Y-83361549D01*
X127355473Y-83361556D01*
X127450960Y-83526944D01*
X127578747Y-83668866D01*
X127733248Y-83781118D01*
X127907712Y-83858794D01*
X128094513Y-83898500D01*
X128285487Y-83898500D01*
X128472288Y-83858794D01*
X128646752Y-83781118D01*
X128801253Y-83668866D01*
X128929040Y-83526944D01*
X129024527Y-83361556D01*
X129041870Y-83308179D01*
X129081307Y-83250504D01*
X129145665Y-83223305D01*
X129214511Y-83235219D01*
X129232687Y-83246180D01*
X129253242Y-83261114D01*
X129253243Y-83261115D01*
X129253245Y-83261116D01*
X129253248Y-83261118D01*
X129427712Y-83338794D01*
X129614513Y-83378500D01*
X129805487Y-83378500D01*
X129992288Y-83338794D01*
X130166752Y-83261118D01*
X130321253Y-83148866D01*
X130449040Y-83006944D01*
X130544527Y-82841556D01*
X130603542Y-82659928D01*
X130623504Y-82470000D01*
X130603542Y-82280072D01*
X130544527Y-82098444D01*
X130449040Y-81933056D01*
X130321253Y-81791134D01*
X130166752Y-81678882D01*
X129992288Y-81601206D01*
X129992286Y-81601205D01*
X129805487Y-81561500D01*
X129614513Y-81561500D01*
X129427714Y-81601205D01*
X129427711Y-81601206D01*
X129427712Y-81601206D01*
X129284417Y-81665005D01*
X129253246Y-81678883D01*
X129098745Y-81791135D01*
X128970959Y-81933057D01*
X128875473Y-82098443D01*
X128875471Y-82098447D01*
X128858129Y-82151821D01*
X128818690Y-82209496D01*
X128754332Y-82236694D01*
X128685485Y-82224779D01*
X128667312Y-82213820D01*
X128646753Y-82198883D01*
X128646752Y-82198882D01*
X128472288Y-82121206D01*
X128472286Y-82121205D01*
X128285487Y-82081500D01*
X128094513Y-82081500D01*
X127907714Y-82121205D01*
X127733246Y-82198883D01*
X127578745Y-82311135D01*
X127450959Y-82453057D01*
X127355473Y-82618443D01*
X127355470Y-82618450D01*
X127296850Y-82798866D01*
X127296458Y-82800072D01*
X127276496Y-82990000D01*
X124731943Y-82990000D01*
X124723542Y-82910072D01*
X124664527Y-82728444D01*
X124569040Y-82563056D01*
X124441253Y-82421134D01*
X124286752Y-82308882D01*
X124112288Y-82231206D01*
X124112286Y-82231205D01*
X124060179Y-82220129D01*
X123998698Y-82186935D01*
X123964922Y-82125771D01*
X123962644Y-82111819D01*
X123943542Y-81930072D01*
X123884527Y-81748444D01*
X123789040Y-81583056D01*
X123661253Y-81441134D01*
X123506752Y-81328882D01*
X123332288Y-81251206D01*
X123332286Y-81251205D01*
X123145487Y-81211500D01*
X122954513Y-81211500D01*
X122767714Y-81251205D01*
X122593246Y-81328883D01*
X122438745Y-81441135D01*
X122310959Y-81583057D01*
X122215473Y-81748443D01*
X122215470Y-81748450D01*
X122156459Y-81930068D01*
X122156458Y-81930072D01*
X122136496Y-82120000D01*
X119450774Y-82120000D01*
X119414527Y-82008444D01*
X119319040Y-81843056D01*
X119191253Y-81701134D01*
X119036752Y-81588882D01*
X118862288Y-81511206D01*
X118862286Y-81511205D01*
X118675487Y-81471500D01*
X118484513Y-81471500D01*
X118297714Y-81511205D01*
X118297711Y-81511206D01*
X118297712Y-81511206D01*
X118136334Y-81583056D01*
X118123246Y-81588883D01*
X117968745Y-81701135D01*
X117840959Y-81843057D01*
X117745473Y-82008443D01*
X117745470Y-82008450D01*
X117687477Y-82186935D01*
X117686458Y-82190072D01*
X117666496Y-82380000D01*
X112175252Y-82380000D01*
X112131253Y-82331134D01*
X111976752Y-82218882D01*
X111802288Y-82141206D01*
X111802286Y-82141205D01*
X111615487Y-82101500D01*
X111424513Y-82101500D01*
X111237714Y-82141205D01*
X111237711Y-82141206D01*
X111237712Y-82141206D01*
X111074618Y-82213820D01*
X111063246Y-82218883D01*
X110908745Y-82331135D01*
X110780959Y-82473057D01*
X110685473Y-82638443D01*
X110685470Y-82638450D01*
X110626459Y-82820068D01*
X110626458Y-82820072D01*
X110606496Y-83010000D01*
X104324758Y-83010000D01*
X104309479Y-82994836D01*
X104294371Y-82926619D01*
X104318541Y-82861064D01*
X104359070Y-82825945D01*
X104369922Y-82820072D01*
X104395576Y-82806189D01*
X104573240Y-82667906D01*
X104725722Y-82502268D01*
X104848860Y-82313791D01*
X104939296Y-82107616D01*
X104994564Y-81889368D01*
X105013156Y-81665000D01*
X105007862Y-81601118D01*
X104994565Y-81440640D01*
X104994563Y-81440628D01*
X104939296Y-81222385D01*
X104934521Y-81211500D01*
X104848860Y-81016209D01*
X104840444Y-81003328D01*
X104725723Y-80827734D01*
X104725715Y-80827723D01*
X104709400Y-80810000D01*
X108886496Y-80810000D01*
X108906458Y-80999928D01*
X108906459Y-80999931D01*
X108965470Y-81181549D01*
X108965473Y-81181556D01*
X109060960Y-81346944D01*
X109188747Y-81488866D01*
X109343248Y-81601118D01*
X109517712Y-81678794D01*
X109704513Y-81718500D01*
X109895487Y-81718500D01*
X110082288Y-81678794D01*
X110256752Y-81601118D01*
X110411253Y-81488866D01*
X110539040Y-81346944D01*
X110634527Y-81181556D01*
X110692437Y-81003327D01*
X110731874Y-80945652D01*
X110796233Y-80918454D01*
X110865079Y-80930369D01*
X110902517Y-80958673D01*
X111028747Y-81098866D01*
X111183248Y-81211118D01*
X111357712Y-81288794D01*
X111544513Y-81328500D01*
X111735487Y-81328500D01*
X111922288Y-81288794D01*
X112096752Y-81211118D01*
X112251253Y-81098866D01*
X112379040Y-80956944D01*
X112474527Y-80791556D01*
X112533542Y-80609928D01*
X112553504Y-80420000D01*
X112533542Y-80230072D01*
X112474527Y-80048444D01*
X112379040Y-79883056D01*
X112272843Y-79765112D01*
X112242614Y-79702123D01*
X112251239Y-79632788D01*
X112257594Y-79620165D01*
X112314527Y-79521556D01*
X112334528Y-79460000D01*
X116526496Y-79460000D01*
X116546458Y-79649928D01*
X116546459Y-79649931D01*
X116605470Y-79831549D01*
X116605473Y-79831556D01*
X116700960Y-79996944D01*
X116803290Y-80110594D01*
X116818878Y-80127906D01*
X116828747Y-80138866D01*
X116983248Y-80251118D01*
X117157712Y-80328794D01*
X117344513Y-80368500D01*
X117535487Y-80368500D01*
X117722288Y-80328794D01*
X117896752Y-80251118D01*
X118051253Y-80138866D01*
X118179040Y-79996944D01*
X118274527Y-79831556D01*
X118333542Y-79649928D01*
X118346147Y-79530000D01*
X121296496Y-79530000D01*
X121316458Y-79719928D01*
X121316459Y-79719931D01*
X121375470Y-79901549D01*
X121375473Y-79901556D01*
X121470960Y-80066944D01*
X121598747Y-80208866D01*
X121753248Y-80321118D01*
X121927712Y-80398794D01*
X122114513Y-80438500D01*
X122305487Y-80438500D01*
X122492288Y-80398794D01*
X122666752Y-80321118D01*
X122821253Y-80208866D01*
X122949040Y-80066944D01*
X123044527Y-79901556D01*
X123103542Y-79719928D01*
X123123504Y-79530000D01*
X123103542Y-79340072D01*
X123044527Y-79158444D01*
X122949040Y-78993056D01*
X122821253Y-78851134D01*
X122668291Y-78740000D01*
X129976496Y-78740000D01*
X129996458Y-78929928D01*
X129996459Y-78929931D01*
X130055470Y-79111549D01*
X130055473Y-79111556D01*
X130150960Y-79276944D01*
X130278747Y-79418866D01*
X130433248Y-79531118D01*
X130607712Y-79608794D01*
X130794513Y-79648500D01*
X130985487Y-79648500D01*
X131172288Y-79608794D01*
X131346752Y-79531118D01*
X131501253Y-79418866D01*
X131629040Y-79276944D01*
X131724527Y-79111556D01*
X131783542Y-78929928D01*
X131803504Y-78740000D01*
X131783542Y-78550072D01*
X131724527Y-78368444D01*
X131629040Y-78203056D01*
X131501253Y-78061134D01*
X131346752Y-77948882D01*
X131172288Y-77871206D01*
X131172286Y-77871205D01*
X130985487Y-77831500D01*
X130794513Y-77831500D01*
X130607714Y-77871205D01*
X130520480Y-77910044D01*
X130478046Y-77928937D01*
X130433246Y-77948883D01*
X130278745Y-78061135D01*
X130150959Y-78203057D01*
X130055473Y-78368443D01*
X130055470Y-78368450D01*
X129996459Y-78550068D01*
X129996458Y-78550072D01*
X129983971Y-78668882D01*
X129976614Y-78738882D01*
X129976496Y-78740000D01*
X122668291Y-78740000D01*
X122666752Y-78738882D01*
X122492288Y-78661206D01*
X122492286Y-78661205D01*
X122305487Y-78621500D01*
X122114513Y-78621500D01*
X121927714Y-78661205D01*
X121753246Y-78738883D01*
X121598745Y-78851135D01*
X121470959Y-78993057D01*
X121375473Y-79158443D01*
X121375470Y-79158450D01*
X121316504Y-79339931D01*
X121316458Y-79340072D01*
X121296496Y-79530000D01*
X118346147Y-79530000D01*
X118353504Y-79460000D01*
X118333542Y-79270072D01*
X118274527Y-79088444D01*
X118179040Y-78923056D01*
X118051253Y-78781134D01*
X117896752Y-78668882D01*
X117722288Y-78591206D01*
X117722286Y-78591205D01*
X117535487Y-78551500D01*
X117344513Y-78551500D01*
X117157714Y-78591205D01*
X116983246Y-78668883D01*
X116828745Y-78781135D01*
X116700959Y-78923057D01*
X116605473Y-79088443D01*
X116605470Y-79088450D01*
X116582728Y-79158444D01*
X116546458Y-79270072D01*
X116526496Y-79460000D01*
X112334528Y-79460000D01*
X112373542Y-79339928D01*
X112393504Y-79150000D01*
X112373542Y-78960072D01*
X112314527Y-78778444D01*
X112219040Y-78613056D01*
X112091253Y-78471134D01*
X111936752Y-78358882D01*
X111762288Y-78281206D01*
X111762286Y-78281205D01*
X111575487Y-78241500D01*
X111384513Y-78241500D01*
X111197714Y-78281205D01*
X111023246Y-78358883D01*
X110868745Y-78471135D01*
X110740959Y-78613057D01*
X110645473Y-78778443D01*
X110645470Y-78778450D01*
X110598485Y-78923056D01*
X110586458Y-78960072D01*
X110566496Y-79150000D01*
X110586458Y-79339928D01*
X110586505Y-79340072D01*
X110645470Y-79521549D01*
X110645471Y-79521551D01*
X110645473Y-79521556D01*
X110740960Y-79686944D01*
X110757717Y-79705554D01*
X110847154Y-79804885D01*
X110877384Y-79867877D01*
X110868759Y-79937212D01*
X110862392Y-79949856D01*
X110805472Y-80048446D01*
X110805471Y-80048447D01*
X110747562Y-80226672D01*
X110708124Y-80284347D01*
X110643765Y-80311545D01*
X110574919Y-80299630D01*
X110537481Y-80271325D01*
X110532860Y-80266193D01*
X110411253Y-80131134D01*
X110256752Y-80018882D01*
X110082288Y-79941206D01*
X110082286Y-79941205D01*
X109895487Y-79901500D01*
X109704513Y-79901500D01*
X109517714Y-79941205D01*
X109343246Y-80018883D01*
X109188745Y-80131135D01*
X109060959Y-80273057D01*
X108965473Y-80438443D01*
X108965470Y-80438450D01*
X108909754Y-80609928D01*
X108906458Y-80620072D01*
X108902041Y-80662097D01*
X108888435Y-80791556D01*
X108886496Y-80810000D01*
X104709400Y-80810000D01*
X104573243Y-80662097D01*
X104573238Y-80662092D01*
X104395577Y-80523812D01*
X104395578Y-80523812D01*
X104395576Y-80523811D01*
X104359070Y-80504055D01*
X104309479Y-80454836D01*
X104294371Y-80386619D01*
X104318541Y-80321064D01*
X104359070Y-80285945D01*
X104362023Y-80284347D01*
X104395576Y-80266189D01*
X104573240Y-80127906D01*
X104725722Y-79962268D01*
X104848860Y-79773791D01*
X104939296Y-79567616D01*
X104994564Y-79349368D01*
X104994565Y-79349359D01*
X105013156Y-79125005D01*
X105013156Y-79124994D01*
X104994565Y-78900640D01*
X104994563Y-78900628D01*
X104953886Y-78739999D01*
X104939296Y-78682384D01*
X104848860Y-78476209D01*
X104845544Y-78471134D01*
X104772207Y-78358883D01*
X104725722Y-78287732D01*
X104725719Y-78287729D01*
X104725715Y-78287723D01*
X104573243Y-78122097D01*
X104573238Y-78122092D01*
X104395577Y-77983812D01*
X104395578Y-77983812D01*
X104395576Y-77983811D01*
X104359070Y-77964055D01*
X104309479Y-77914836D01*
X104294371Y-77846619D01*
X104318541Y-77781064D01*
X104359070Y-77745945D01*
X104359084Y-77745936D01*
X104395576Y-77726189D01*
X104573240Y-77587906D01*
X104725722Y-77422268D01*
X104848860Y-77233791D01*
X104890000Y-77140000D01*
X117426496Y-77140000D01*
X117446458Y-77329928D01*
X117446459Y-77329931D01*
X117505470Y-77511549D01*
X117505473Y-77511556D01*
X117600960Y-77676944D01*
X117728747Y-77818866D01*
X117883248Y-77931118D01*
X118057712Y-78008794D01*
X118244513Y-78048500D01*
X118435487Y-78048500D01*
X118622288Y-78008794D01*
X118796752Y-77931118D01*
X118951253Y-77818866D01*
X119079040Y-77676944D01*
X119174527Y-77511556D01*
X119233542Y-77329928D01*
X119253504Y-77140000D01*
X119233542Y-76950072D01*
X119174527Y-76768444D01*
X119079040Y-76603056D01*
X118951253Y-76461134D01*
X118796752Y-76348882D01*
X118622288Y-76271206D01*
X118622286Y-76271205D01*
X118435487Y-76231500D01*
X118244513Y-76231500D01*
X118057714Y-76271205D01*
X117883246Y-76348883D01*
X117728745Y-76461135D01*
X117600959Y-76603057D01*
X117505473Y-76768443D01*
X117505470Y-76768450D01*
X117465614Y-76891116D01*
X117446458Y-76950072D01*
X117426496Y-77140000D01*
X104890000Y-77140000D01*
X104939296Y-77027616D01*
X104994564Y-76809368D01*
X105013156Y-76585000D01*
X105010131Y-76548500D01*
X104994565Y-76360640D01*
X104994563Y-76360628D01*
X104955180Y-76205109D01*
X104939296Y-76142384D01*
X104848860Y-75936209D01*
X104816581Y-75886803D01*
X104725723Y-75747734D01*
X104725715Y-75747723D01*
X104626547Y-75640000D01*
X110186496Y-75640000D01*
X110206458Y-75829928D01*
X110206459Y-75829931D01*
X110265470Y-76011549D01*
X110265473Y-76011556D01*
X110360960Y-76176944D01*
X110488747Y-76318866D01*
X110643248Y-76431118D01*
X110817712Y-76508794D01*
X111004513Y-76548500D01*
X111195487Y-76548500D01*
X111382288Y-76508794D01*
X111556752Y-76431118D01*
X111711253Y-76318866D01*
X111839040Y-76176944D01*
X111883464Y-76100000D01*
X121246496Y-76100000D01*
X121266458Y-76289928D01*
X121266459Y-76289931D01*
X121325470Y-76471549D01*
X121325473Y-76471556D01*
X121420960Y-76636944D01*
X121548747Y-76778866D01*
X121703248Y-76891118D01*
X121877712Y-76968794D01*
X122064513Y-77008500D01*
X122255487Y-77008500D01*
X122442288Y-76968794D01*
X122616752Y-76891118D01*
X122771253Y-76778866D01*
X122899040Y-76636944D01*
X122994527Y-76471556D01*
X123053542Y-76289928D01*
X123073504Y-76100000D01*
X123053542Y-75910072D01*
X122994527Y-75728444D01*
X122899040Y-75563056D01*
X122776140Y-75426562D01*
X122771254Y-75421135D01*
X122726938Y-75388937D01*
X122616752Y-75308882D01*
X122442288Y-75231206D01*
X122442286Y-75231205D01*
X122255487Y-75191500D01*
X122064513Y-75191500D01*
X121877714Y-75231205D01*
X121703246Y-75308883D01*
X121548745Y-75421135D01*
X121420959Y-75563057D01*
X121325473Y-75728443D01*
X121325470Y-75728450D01*
X121274017Y-75886807D01*
X121266458Y-75910072D01*
X121246496Y-76100000D01*
X111883464Y-76100000D01*
X111934527Y-76011556D01*
X111993542Y-75829928D01*
X112013504Y-75640000D01*
X111993542Y-75450072D01*
X111934527Y-75268444D01*
X111839040Y-75103056D01*
X111711253Y-74961134D01*
X111556752Y-74848882D01*
X111382288Y-74771206D01*
X111382286Y-74771205D01*
X111195487Y-74731500D01*
X111004513Y-74731500D01*
X110817714Y-74771205D01*
X110643246Y-74848883D01*
X110488745Y-74961135D01*
X110360959Y-75103057D01*
X110265473Y-75268443D01*
X110265470Y-75268450D01*
X110214097Y-75426561D01*
X110206458Y-75450072D01*
X110186496Y-75640000D01*
X104626547Y-75640000D01*
X104573243Y-75582097D01*
X104573238Y-75582092D01*
X104395577Y-75443812D01*
X104395578Y-75443812D01*
X104395576Y-75443811D01*
X104359070Y-75424055D01*
X104309479Y-75374836D01*
X104294371Y-75306619D01*
X104318541Y-75241064D01*
X104359070Y-75205945D01*
X104359084Y-75205936D01*
X104395576Y-75186189D01*
X104573240Y-75047906D01*
X104725722Y-74882268D01*
X104848860Y-74693791D01*
X104939296Y-74487616D01*
X104994564Y-74269368D01*
X104994565Y-74269359D01*
X105013156Y-74045005D01*
X105013156Y-74044994D01*
X104994565Y-73820640D01*
X104994563Y-73820628D01*
X104991872Y-73810000D01*
X112136496Y-73810000D01*
X112156458Y-73999928D01*
X112156459Y-73999931D01*
X112215470Y-74181549D01*
X112215473Y-74181556D01*
X112310960Y-74346944D01*
X112438747Y-74488866D01*
X112593248Y-74601118D01*
X112767712Y-74678794D01*
X112954513Y-74718500D01*
X113145487Y-74718500D01*
X113332288Y-74678794D01*
X113506752Y-74601118D01*
X113661253Y-74488866D01*
X113789040Y-74346944D01*
X113884527Y-74181556D01*
X113943542Y-73999928D01*
X113963504Y-73810000D01*
X113943542Y-73620072D01*
X113884527Y-73438444D01*
X113789040Y-73273056D01*
X113661253Y-73131134D01*
X113506752Y-73018882D01*
X113332288Y-72941206D01*
X113332286Y-72941205D01*
X113145487Y-72901500D01*
X112954513Y-72901500D01*
X112767714Y-72941205D01*
X112593246Y-73018883D01*
X112438745Y-73131135D01*
X112310959Y-73273057D01*
X112215473Y-73438443D01*
X112215470Y-73438450D01*
X112156459Y-73620068D01*
X112156458Y-73620072D01*
X112136496Y-73810000D01*
X104991872Y-73810000D01*
X104982268Y-73772075D01*
X104939296Y-73602384D01*
X104848860Y-73396209D01*
X104820667Y-73353057D01*
X104727945Y-73211135D01*
X104725722Y-73207732D01*
X104725719Y-73207729D01*
X104725715Y-73207723D01*
X104573243Y-73042097D01*
X104573238Y-73042092D01*
X104395577Y-72903812D01*
X104395578Y-72903812D01*
X104395576Y-72903811D01*
X104359070Y-72884055D01*
X104309479Y-72834836D01*
X104295120Y-72770000D01*
X117056496Y-72770000D01*
X117076458Y-72959928D01*
X117076459Y-72959931D01*
X117135470Y-73141549D01*
X117135473Y-73141555D01*
X117135473Y-73141556D01*
X117230960Y-73306944D01*
X117358747Y-73448866D01*
X117513248Y-73561118D01*
X117687712Y-73638794D01*
X117874513Y-73678500D01*
X118065487Y-73678500D01*
X118252288Y-73638794D01*
X118426752Y-73561118D01*
X118581253Y-73448866D01*
X118688280Y-73330000D01*
X124136496Y-73330000D01*
X124156458Y-73519928D01*
X124156459Y-73519931D01*
X124215470Y-73701549D01*
X124215473Y-73701556D01*
X124310960Y-73866944D01*
X124438747Y-74008866D01*
X124593248Y-74121118D01*
X124767712Y-74198794D01*
X124954513Y-74238500D01*
X125145487Y-74238500D01*
X125332288Y-74198794D01*
X125506752Y-74121118D01*
X125661253Y-74008866D01*
X125768280Y-73890000D01*
X128096496Y-73890000D01*
X128116458Y-74079928D01*
X128116459Y-74079931D01*
X128175470Y-74261549D01*
X128175473Y-74261556D01*
X128270960Y-74426944D01*
X128398747Y-74568866D01*
X128553248Y-74681118D01*
X128727712Y-74758794D01*
X128914513Y-74798500D01*
X129105487Y-74798500D01*
X129292288Y-74758794D01*
X129466752Y-74681118D01*
X129621253Y-74568866D01*
X129749040Y-74426944D01*
X129844527Y-74261556D01*
X129864528Y-74200001D01*
X135169891Y-74200001D01*
X135190300Y-74485362D01*
X135251109Y-74764895D01*
X135351091Y-75032958D01*
X135488191Y-75284038D01*
X135488196Y-75284046D01*
X135594882Y-75426561D01*
X135594883Y-75426562D01*
X136493589Y-74527855D01*
X136554912Y-74494370D01*
X136624603Y-74499354D01*
X136679645Y-74540048D01*
X136747075Y-74627925D01*
X136747076Y-74627926D01*
X136834948Y-74695352D01*
X136876151Y-74751780D01*
X136880306Y-74821526D01*
X136847143Y-74881409D01*
X135948436Y-75780115D01*
X136090960Y-75886807D01*
X136090961Y-75886808D01*
X136342042Y-76023908D01*
X136342041Y-76023908D01*
X136610104Y-76123890D01*
X136889637Y-76184699D01*
X137174999Y-76205109D01*
X137175001Y-76205109D01*
X137460362Y-76184699D01*
X137739895Y-76123890D01*
X138007958Y-76023908D01*
X138259047Y-75886803D01*
X138401561Y-75780116D01*
X138401562Y-75780115D01*
X137502855Y-74881409D01*
X137469370Y-74820086D01*
X137474354Y-74750395D01*
X137515047Y-74695355D01*
X137602925Y-74627925D01*
X137670355Y-74540048D01*
X137726781Y-74498848D01*
X137796527Y-74494693D01*
X137856410Y-74527856D01*
X138755115Y-75426562D01*
X138755116Y-75426561D01*
X138861803Y-75284047D01*
X138998908Y-75032958D01*
X139098890Y-74764895D01*
X139159699Y-74485362D01*
X139180109Y-74200001D01*
X139180109Y-74199998D01*
X139159699Y-73914637D01*
X139098890Y-73635104D01*
X138998908Y-73367041D01*
X138861808Y-73115961D01*
X138861807Y-73115960D01*
X138755115Y-72973436D01*
X137856409Y-73872143D01*
X137795086Y-73905628D01*
X137725394Y-73900644D01*
X137670352Y-73859948D01*
X137602926Y-73772076D01*
X137602925Y-73772075D01*
X137515048Y-73704645D01*
X137473847Y-73648218D01*
X137469692Y-73578472D01*
X137502855Y-73518589D01*
X138401562Y-72619883D01*
X138401561Y-72619882D01*
X138259046Y-72513196D01*
X138259038Y-72513191D01*
X138007957Y-72376091D01*
X138007958Y-72376091D01*
X137739895Y-72276109D01*
X137460362Y-72215300D01*
X137175001Y-72194891D01*
X137174999Y-72194891D01*
X136889637Y-72215300D01*
X136610104Y-72276109D01*
X136342041Y-72376091D01*
X136090961Y-72513191D01*
X136090953Y-72513196D01*
X135948437Y-72619882D01*
X135948436Y-72619883D01*
X136847144Y-73518590D01*
X136880629Y-73579913D01*
X136875645Y-73649604D01*
X136834950Y-73704645D01*
X136747075Y-73772075D01*
X136747074Y-73772076D01*
X136679645Y-73859950D01*
X136623216Y-73901152D01*
X136553470Y-73905306D01*
X136493589Y-73872143D01*
X135594883Y-72973436D01*
X135594882Y-72973437D01*
X135488196Y-73115953D01*
X135488191Y-73115961D01*
X135351091Y-73367041D01*
X135251109Y-73635104D01*
X135190300Y-73914637D01*
X135169891Y-74199998D01*
X135169891Y-74200001D01*
X129864528Y-74200001D01*
X129903542Y-74079928D01*
X129923504Y-73890000D01*
X129903542Y-73700072D01*
X129844527Y-73518444D01*
X129749040Y-73353056D01*
X129621253Y-73211134D01*
X129466752Y-73098882D01*
X129292288Y-73021206D01*
X129292286Y-73021205D01*
X129105487Y-72981500D01*
X128914513Y-72981500D01*
X128727714Y-73021205D01*
X128553246Y-73098883D01*
X128398745Y-73211135D01*
X128270959Y-73353057D01*
X128175473Y-73518443D01*
X128175470Y-73518450D01*
X128123467Y-73678500D01*
X128116458Y-73700072D01*
X128096496Y-73890000D01*
X125768280Y-73890000D01*
X125789040Y-73866944D01*
X125884527Y-73701556D01*
X125943542Y-73519928D01*
X125963504Y-73330000D01*
X125943542Y-73140072D01*
X125884527Y-72958444D01*
X125789040Y-72793056D01*
X125661253Y-72651134D01*
X125506752Y-72538882D01*
X125332288Y-72461206D01*
X125332286Y-72461205D01*
X125145487Y-72421500D01*
X124954513Y-72421500D01*
X124767714Y-72461205D01*
X124593246Y-72538883D01*
X124438745Y-72651135D01*
X124310959Y-72793057D01*
X124215473Y-72958443D01*
X124215470Y-72958450D01*
X124156459Y-73140068D01*
X124156458Y-73140072D01*
X124136496Y-73330000D01*
X118688280Y-73330000D01*
X118709040Y-73306944D01*
X118804527Y-73141556D01*
X118807700Y-73131788D01*
X118847134Y-73074114D01*
X118911492Y-73046913D01*
X118976065Y-73056824D01*
X119137712Y-73128794D01*
X119324513Y-73168500D01*
X119515487Y-73168500D01*
X119702288Y-73128794D01*
X119876752Y-73051118D01*
X120031253Y-72938866D01*
X120159040Y-72796944D01*
X120254527Y-72631556D01*
X120313542Y-72449928D01*
X120333504Y-72260000D01*
X120313542Y-72070072D01*
X120254527Y-71888444D01*
X120159040Y-71723056D01*
X120031253Y-71581134D01*
X119919582Y-71500000D01*
X130211496Y-71500000D01*
X130231458Y-71689928D01*
X130231459Y-71689931D01*
X130290470Y-71871549D01*
X130290473Y-71871556D01*
X130385960Y-72036944D01*
X130513747Y-72178866D01*
X130668248Y-72291118D01*
X130842712Y-72368794D01*
X131029513Y-72408500D01*
X131220487Y-72408500D01*
X131407288Y-72368794D01*
X131581752Y-72291118D01*
X131736253Y-72178866D01*
X131864040Y-72036944D01*
X131959527Y-71871556D01*
X132018542Y-71689928D01*
X132038504Y-71500000D01*
X132018542Y-71310072D01*
X131959527Y-71128444D01*
X131864040Y-70963056D01*
X131736253Y-70821134D01*
X131581752Y-70708882D01*
X131407288Y-70631206D01*
X131407286Y-70631205D01*
X131220487Y-70591500D01*
X131029513Y-70591500D01*
X130842714Y-70631205D01*
X130668246Y-70708883D01*
X130513745Y-70821135D01*
X130385959Y-70963057D01*
X130290473Y-71128443D01*
X130290470Y-71128450D01*
X130241021Y-71280640D01*
X130231458Y-71310072D01*
X130211496Y-71500000D01*
X119919582Y-71500000D01*
X119876752Y-71468882D01*
X119702288Y-71391206D01*
X119702286Y-71391205D01*
X119515487Y-71351500D01*
X119324513Y-71351500D01*
X119137714Y-71391205D01*
X119137711Y-71391206D01*
X119137712Y-71391206D01*
X118983198Y-71460000D01*
X118963246Y-71468883D01*
X118808745Y-71581135D01*
X118680959Y-71723057D01*
X118585473Y-71888443D01*
X118585469Y-71888453D01*
X118582296Y-71898218D01*
X118542856Y-71955891D01*
X118478496Y-71983086D01*
X118413932Y-71973174D01*
X118354345Y-71946644D01*
X118252288Y-71901206D01*
X118252286Y-71901205D01*
X118065487Y-71861500D01*
X117874513Y-71861500D01*
X117687714Y-71901205D01*
X117687711Y-71901206D01*
X117687712Y-71901206D01*
X117526069Y-71973174D01*
X117513246Y-71978883D01*
X117358745Y-72091135D01*
X117230959Y-72233057D01*
X117135473Y-72398443D01*
X117135470Y-72398450D01*
X117089841Y-72538883D01*
X117076458Y-72580072D01*
X117056496Y-72770000D01*
X104295120Y-72770000D01*
X104294371Y-72766619D01*
X104318541Y-72701064D01*
X104359070Y-72665945D01*
X104359084Y-72665936D01*
X104395576Y-72646189D01*
X104573240Y-72507906D01*
X104674009Y-72398443D01*
X104725715Y-72342276D01*
X104725716Y-72342274D01*
X104725722Y-72342268D01*
X104848860Y-72153791D01*
X104939296Y-71947616D01*
X104994564Y-71729368D01*
X104997832Y-71689928D01*
X105013156Y-71505005D01*
X105013156Y-71504994D01*
X105009428Y-71460000D01*
X106556496Y-71460000D01*
X106576458Y-71649928D01*
X106576459Y-71649931D01*
X106635470Y-71831549D01*
X106635473Y-71831556D01*
X106730960Y-71996944D01*
X106858747Y-72138866D01*
X107013248Y-72251118D01*
X107187712Y-72328794D01*
X107374513Y-72368500D01*
X107565487Y-72368500D01*
X107752288Y-72328794D01*
X107926752Y-72251118D01*
X108081253Y-72138866D01*
X108209040Y-71996944D01*
X108304527Y-71831556D01*
X108363542Y-71649928D01*
X108383504Y-71460000D01*
X108363542Y-71270072D01*
X108304527Y-71088444D01*
X108209040Y-70923056D01*
X108081253Y-70781134D01*
X107926752Y-70668882D01*
X107752288Y-70591206D01*
X107752286Y-70591205D01*
X107565487Y-70551500D01*
X107374513Y-70551500D01*
X107187714Y-70591205D01*
X107100480Y-70630044D01*
X107015827Y-70667734D01*
X107013246Y-70668883D01*
X106858745Y-70781135D01*
X106730959Y-70923057D01*
X106635473Y-71088443D01*
X106635470Y-71088450D01*
X106576459Y-71270068D01*
X106576458Y-71270072D01*
X106556496Y-71460000D01*
X105009428Y-71460000D01*
X104994565Y-71280640D01*
X104994563Y-71280628D01*
X104939296Y-71062385D01*
X104888489Y-70946556D01*
X104848860Y-70856209D01*
X104842553Y-70846556D01*
X104752607Y-70708883D01*
X104725722Y-70667732D01*
X104725719Y-70667729D01*
X104725715Y-70667723D01*
X104573243Y-70502097D01*
X104573238Y-70502092D01*
X104538430Y-70475000D01*
X120686496Y-70475000D01*
X120706458Y-70664928D01*
X120706459Y-70664931D01*
X120765470Y-70846549D01*
X120765473Y-70846556D01*
X120860960Y-71011944D01*
X120988747Y-71153866D01*
X121143248Y-71266118D01*
X121317712Y-71343794D01*
X121504513Y-71383500D01*
X121695487Y-71383500D01*
X121882288Y-71343794D01*
X122056752Y-71266118D01*
X122211253Y-71153866D01*
X122339040Y-71011944D01*
X122434527Y-70846556D01*
X122493542Y-70664928D01*
X122502994Y-70575000D01*
X124361496Y-70575000D01*
X124381458Y-70764928D01*
X124381459Y-70764931D01*
X124440470Y-70946549D01*
X124440473Y-70946556D01*
X124535960Y-71111944D01*
X124663747Y-71253866D01*
X124818248Y-71366118D01*
X124992712Y-71443794D01*
X125179513Y-71483500D01*
X125370487Y-71483500D01*
X125557288Y-71443794D01*
X125731752Y-71366118D01*
X125886253Y-71253866D01*
X126014040Y-71111944D01*
X126109527Y-70946556D01*
X126168542Y-70764928D01*
X126188504Y-70575000D01*
X126168542Y-70385072D01*
X126109527Y-70203444D01*
X126014040Y-70038056D01*
X125886253Y-69896134D01*
X125731752Y-69783882D01*
X125557288Y-69706206D01*
X125557286Y-69706205D01*
X125370487Y-69666500D01*
X125179513Y-69666500D01*
X124992714Y-69706205D01*
X124818246Y-69783883D01*
X124663745Y-69896135D01*
X124535959Y-70038057D01*
X124440473Y-70203443D01*
X124440470Y-70203450D01*
X124381459Y-70385068D01*
X124381458Y-70385072D01*
X124361496Y-70575000D01*
X122502994Y-70575000D01*
X122513504Y-70475000D01*
X122493542Y-70285072D01*
X122434527Y-70103444D01*
X122339040Y-69938056D01*
X122211253Y-69796134D01*
X122056752Y-69683882D01*
X121882288Y-69606206D01*
X121882286Y-69606205D01*
X121695487Y-69566500D01*
X121504513Y-69566500D01*
X121317714Y-69606205D01*
X121143246Y-69683883D01*
X120988745Y-69796135D01*
X120860959Y-69938057D01*
X120765473Y-70103443D01*
X120765470Y-70103450D01*
X120720004Y-70243382D01*
X120706458Y-70285072D01*
X120686496Y-70475000D01*
X104538430Y-70475000D01*
X104395577Y-70363812D01*
X104395578Y-70363812D01*
X104395576Y-70363811D01*
X104359070Y-70344055D01*
X104309479Y-70294836D01*
X104294371Y-70226619D01*
X104318541Y-70161064D01*
X104359070Y-70125945D01*
X104359084Y-70125936D01*
X104395576Y-70106189D01*
X104573240Y-69967906D01*
X104725722Y-69802268D01*
X104848860Y-69613791D01*
X104939296Y-69407616D01*
X104994564Y-69189368D01*
X105013156Y-68965000D01*
X104994564Y-68740632D01*
X104939296Y-68522384D01*
X104848860Y-68316209D01*
X104725722Y-68127732D01*
X104725719Y-68127729D01*
X104725715Y-68127723D01*
X104573243Y-67962097D01*
X104573238Y-67962092D01*
X104395577Y-67823812D01*
X104395578Y-67823812D01*
X104395576Y-67823811D01*
X104359070Y-67804055D01*
X104309479Y-67754836D01*
X104294371Y-67686619D01*
X104307872Y-67650000D01*
X109286496Y-67650000D01*
X109306458Y-67839928D01*
X109306459Y-67839931D01*
X109365470Y-68021549D01*
X109365473Y-68021556D01*
X109460960Y-68186944D01*
X109512148Y-68243794D01*
X109577350Y-68316209D01*
X109588747Y-68328866D01*
X109743248Y-68441118D01*
X109917712Y-68518794D01*
X110104513Y-68558500D01*
X110295487Y-68558500D01*
X110482288Y-68518794D01*
X110656752Y-68441118D01*
X110811253Y-68328866D01*
X110939040Y-68186944D01*
X111034527Y-68021556D01*
X111093542Y-67839928D01*
X111113504Y-67650000D01*
X111093542Y-67460072D01*
X111090269Y-67450000D01*
X116361496Y-67450000D01*
X116381458Y-67639928D01*
X116381459Y-67639931D01*
X116440470Y-67821549D01*
X116440473Y-67821556D01*
X116535960Y-67986944D01*
X116663747Y-68128866D01*
X116818248Y-68241118D01*
X116992712Y-68318794D01*
X117179513Y-68358500D01*
X117370487Y-68358500D01*
X117557288Y-68318794D01*
X117731752Y-68241118D01*
X117886253Y-68128866D01*
X118014040Y-67986944D01*
X118109527Y-67821556D01*
X118168542Y-67639928D01*
X118188504Y-67450000D01*
X118180621Y-67375000D01*
X128436496Y-67375000D01*
X128456458Y-67564928D01*
X128456459Y-67564931D01*
X128515470Y-67746549D01*
X128515473Y-67746556D01*
X128610960Y-67911944D01*
X128738747Y-68053866D01*
X128893248Y-68166118D01*
X129067712Y-68243794D01*
X129254513Y-68283500D01*
X129445487Y-68283500D01*
X129632288Y-68243794D01*
X129806752Y-68166118D01*
X129961253Y-68053866D01*
X130089040Y-67911944D01*
X130184527Y-67746556D01*
X130243542Y-67564928D01*
X130263504Y-67375000D01*
X130243542Y-67185072D01*
X130184527Y-67003444D01*
X130089040Y-66838056D01*
X129961253Y-66696134D01*
X129806752Y-66583882D01*
X129632288Y-66506206D01*
X129632286Y-66506205D01*
X129445487Y-66466500D01*
X129254513Y-66466500D01*
X129067714Y-66506205D01*
X129067711Y-66506206D01*
X129067712Y-66506206D01*
X128899259Y-66581206D01*
X128893246Y-66583883D01*
X128738745Y-66696135D01*
X128610959Y-66838057D01*
X128515473Y-67003443D01*
X128515470Y-67003450D01*
X128479857Y-67113057D01*
X128456458Y-67185072D01*
X128436496Y-67375000D01*
X118180621Y-67375000D01*
X118168542Y-67260072D01*
X118109527Y-67078444D01*
X118014040Y-66913056D01*
X117886253Y-66771134D01*
X117731752Y-66658882D01*
X117557288Y-66581206D01*
X117557286Y-66581205D01*
X117370487Y-66541500D01*
X117179513Y-66541500D01*
X116992714Y-66581205D01*
X116818246Y-66658883D01*
X116663745Y-66771135D01*
X116535959Y-66913057D01*
X116440473Y-67078443D01*
X116440470Y-67078450D01*
X116429226Y-67113057D01*
X116381458Y-67260072D01*
X116361496Y-67450000D01*
X111090269Y-67450000D01*
X111034527Y-67278444D01*
X110939040Y-67113056D01*
X110811253Y-66971134D01*
X110656752Y-66858882D01*
X110482288Y-66781206D01*
X110482286Y-66781205D01*
X110295487Y-66741500D01*
X110104513Y-66741500D01*
X109917714Y-66781205D01*
X109743246Y-66858883D01*
X109588745Y-66971135D01*
X109460959Y-67113057D01*
X109365473Y-67278443D01*
X109365470Y-67278450D01*
X109306459Y-67460068D01*
X109306458Y-67460072D01*
X109286496Y-67650000D01*
X104307872Y-67650000D01*
X104318541Y-67621064D01*
X104359070Y-67585945D01*
X104359084Y-67585936D01*
X104395576Y-67566189D01*
X104573240Y-67427906D01*
X104672614Y-67319957D01*
X104725715Y-67262276D01*
X104725716Y-67262274D01*
X104725722Y-67262268D01*
X104848860Y-67073791D01*
X104939296Y-66867616D01*
X104994564Y-66649368D01*
X104994565Y-66649359D01*
X105013156Y-66425005D01*
X105013156Y-66424994D01*
X104994565Y-66200640D01*
X104994563Y-66200628D01*
X104939296Y-65982385D01*
X104848859Y-65776207D01*
X104725723Y-65587734D01*
X104725715Y-65587723D01*
X104573243Y-65422097D01*
X104573238Y-65422092D01*
X104395577Y-65283812D01*
X104395572Y-65283808D01*
X104359068Y-65264053D01*
X104309478Y-65214833D01*
X104294371Y-65146616D01*
X104318542Y-65081061D01*
X104359069Y-65045945D01*
X104395576Y-65026189D01*
X104573240Y-64887906D01*
X104725722Y-64722268D01*
X104848860Y-64533791D01*
X104939296Y-64327616D01*
X104994564Y-64109368D01*
X105013156Y-63885000D01*
X104994564Y-63660632D01*
X104939296Y-63442384D01*
X104920705Y-63400000D01*
X109211496Y-63400000D01*
X109231458Y-63589928D01*
X109231459Y-63589931D01*
X109290470Y-63771549D01*
X109290473Y-63771556D01*
X109385960Y-63936944D01*
X109513747Y-64078866D01*
X109668248Y-64191118D01*
X109842712Y-64268794D01*
X110029513Y-64308500D01*
X110220487Y-64308500D01*
X110407288Y-64268794D01*
X110581752Y-64191118D01*
X110736253Y-64078866D01*
X110864040Y-63936944D01*
X110959527Y-63771556D01*
X111018542Y-63589928D01*
X111038504Y-63400000D01*
X111018542Y-63210072D01*
X110959527Y-63028444D01*
X110913460Y-62948654D01*
X135166500Y-62948654D01*
X135173011Y-63009202D01*
X135173011Y-63009204D01*
X135224111Y-63146203D01*
X135224111Y-63146204D01*
X135311739Y-63263261D01*
X135428796Y-63350889D01*
X135543949Y-63393839D01*
X135560463Y-63399999D01*
X135565799Y-63401989D01*
X135593050Y-63404918D01*
X135626345Y-63408499D01*
X135626362Y-63408500D01*
X138723638Y-63408500D01*
X138723654Y-63408499D01*
X138750692Y-63405591D01*
X138784201Y-63401989D01*
X138789537Y-63399999D01*
X138798768Y-63396555D01*
X138921204Y-63350889D01*
X139038261Y-63263261D01*
X139125889Y-63146204D01*
X139176989Y-63009201D01*
X139180591Y-62975692D01*
X139183499Y-62948654D01*
X139183500Y-62948637D01*
X139183500Y-61400001D01*
X161916309Y-61400001D01*
X161936246Y-61678752D01*
X161936247Y-61678759D01*
X161995648Y-61951820D01*
X161995650Y-61951827D01*
X162056286Y-62114401D01*
X162093312Y-62213671D01*
X162093314Y-62213675D01*
X162227240Y-62458942D01*
X162227245Y-62458950D01*
X162394713Y-62682662D01*
X162394729Y-62682680D01*
X162592319Y-62880270D01*
X162592337Y-62880286D01*
X162816049Y-63047754D01*
X162816057Y-63047759D01*
X163061324Y-63181685D01*
X163061328Y-63181687D01*
X163061330Y-63181688D01*
X163323173Y-63279350D01*
X163596249Y-63338754D01*
X163805218Y-63353700D01*
X163944782Y-63353700D01*
X164153751Y-63338754D01*
X164426827Y-63279350D01*
X164688670Y-63181688D01*
X164933948Y-63047756D01*
X165157670Y-62880280D01*
X165355280Y-62682670D01*
X165522756Y-62458948D01*
X165656688Y-62213670D01*
X165754350Y-61951827D01*
X165813754Y-61678751D01*
X165833691Y-61400000D01*
X165813754Y-61121249D01*
X165754350Y-60848173D01*
X165656688Y-60586330D01*
X165522756Y-60341052D01*
X165522754Y-60341049D01*
X165355286Y-60117337D01*
X165355270Y-60117319D01*
X165157680Y-59919729D01*
X165157662Y-59919713D01*
X164933950Y-59752245D01*
X164933942Y-59752240D01*
X164688675Y-59618314D01*
X164688671Y-59618312D01*
X164589401Y-59581286D01*
X164426827Y-59520650D01*
X164426823Y-59520649D01*
X164426820Y-59520648D01*
X164153759Y-59461247D01*
X164153752Y-59461246D01*
X163944782Y-59446300D01*
X163805218Y-59446300D01*
X163596247Y-59461246D01*
X163596240Y-59461247D01*
X163323179Y-59520648D01*
X163323174Y-59520649D01*
X163323173Y-59520650D01*
X163280037Y-59536739D01*
X163061328Y-59618312D01*
X163061324Y-59618314D01*
X162816057Y-59752240D01*
X162816049Y-59752245D01*
X162592337Y-59919713D01*
X162592319Y-59919729D01*
X162394729Y-60117319D01*
X162394713Y-60117337D01*
X162227245Y-60341049D01*
X162227240Y-60341057D01*
X162093314Y-60586324D01*
X162093312Y-60586328D01*
X161995648Y-60848179D01*
X161936247Y-61121240D01*
X161936246Y-61121247D01*
X161916309Y-61399998D01*
X161916309Y-61400001D01*
X139183500Y-61400001D01*
X139183500Y-59851362D01*
X139183499Y-59851345D01*
X139180157Y-59820270D01*
X139176989Y-59790799D01*
X139125889Y-59653796D01*
X139038261Y-59536739D01*
X138921204Y-59449111D01*
X138784203Y-59398011D01*
X138723654Y-59391500D01*
X138723638Y-59391500D01*
X135626362Y-59391500D01*
X135626345Y-59391500D01*
X135565797Y-59398011D01*
X135565795Y-59398011D01*
X135428795Y-59449111D01*
X135311739Y-59536739D01*
X135224111Y-59653795D01*
X135173011Y-59790795D01*
X135173011Y-59790797D01*
X135166500Y-59851345D01*
X135166500Y-62948654D01*
X110913460Y-62948654D01*
X110864040Y-62863056D01*
X110736253Y-62721134D01*
X110581752Y-62608882D01*
X110407288Y-62531206D01*
X110407286Y-62531205D01*
X110220487Y-62491500D01*
X110029513Y-62491500D01*
X109842714Y-62531205D01*
X109668246Y-62608883D01*
X109513745Y-62721135D01*
X109385959Y-62863057D01*
X109290473Y-63028443D01*
X109290470Y-63028450D01*
X109231459Y-63210068D01*
X109231458Y-63210072D01*
X109211496Y-63400000D01*
X104920705Y-63400000D01*
X104848860Y-63236209D01*
X104725722Y-63047732D01*
X104725719Y-63047729D01*
X104725715Y-63047723D01*
X104573243Y-62882097D01*
X104573238Y-62882092D01*
X104395577Y-62743812D01*
X104395572Y-62743808D01*
X104197580Y-62636661D01*
X104197577Y-62636659D01*
X104197574Y-62636658D01*
X104197571Y-62636657D01*
X104197569Y-62636656D01*
X103984637Y-62563556D01*
X103762569Y-62526500D01*
X103537431Y-62526500D01*
X103315362Y-62563556D01*
X103102430Y-62636656D01*
X103102419Y-62636661D01*
X102904427Y-62743808D01*
X102904422Y-62743812D01*
X102726761Y-62882092D01*
X102726756Y-62882097D01*
X102574284Y-63047723D01*
X102574276Y-63047734D01*
X102451140Y-63236207D01*
X102360703Y-63442385D01*
X102305436Y-63660628D01*
X102305434Y-63660640D01*
X102286844Y-63884994D01*
X102286844Y-63885005D01*
X102305434Y-64109359D01*
X102305436Y-64109371D01*
X102360703Y-64327614D01*
X102451140Y-64533792D01*
X102574276Y-64722265D01*
X102574284Y-64722276D01*
X102726756Y-64887902D01*
X102726760Y-64887906D01*
X102904424Y-65026189D01*
X102940930Y-65045945D01*
X102990519Y-65095162D01*
X103005629Y-65163378D01*
X102981459Y-65228934D01*
X102940932Y-65264052D01*
X102904432Y-65283805D01*
X102904422Y-65283812D01*
X102726761Y-65422092D01*
X102726756Y-65422097D01*
X102574284Y-65587723D01*
X102574276Y-65587734D01*
X102451140Y-65776207D01*
X102360703Y-65982385D01*
X102305436Y-66200628D01*
X102305434Y-66200640D01*
X102286844Y-66424994D01*
X102286844Y-66425005D01*
X102305434Y-66649359D01*
X102305436Y-66649371D01*
X102360703Y-66867614D01*
X102451140Y-67073792D01*
X102574276Y-67262265D01*
X102574284Y-67262276D01*
X102726756Y-67427902D01*
X102726760Y-67427906D01*
X102904424Y-67566189D01*
X102904429Y-67566191D01*
X102904431Y-67566193D01*
X102940930Y-67585946D01*
X102990520Y-67635165D01*
X103005628Y-67703382D01*
X102981457Y-67768937D01*
X102940930Y-67804054D01*
X102904431Y-67823806D01*
X102904422Y-67823812D01*
X102726761Y-67962092D01*
X102726756Y-67962097D01*
X102574284Y-68127723D01*
X102574276Y-68127734D01*
X102451140Y-68316207D01*
X102360703Y-68522385D01*
X102305436Y-68740628D01*
X102305434Y-68740640D01*
X102286844Y-68964994D01*
X102286844Y-68965005D01*
X102305434Y-69189359D01*
X102305436Y-69189371D01*
X102360703Y-69407614D01*
X102451140Y-69613792D01*
X102574276Y-69802265D01*
X102574284Y-69802276D01*
X102726756Y-69967902D01*
X102726760Y-69967906D01*
X102904424Y-70106189D01*
X102904429Y-70106191D01*
X102904431Y-70106193D01*
X102940930Y-70125946D01*
X102990520Y-70175165D01*
X103005628Y-70243382D01*
X102981457Y-70308937D01*
X102940930Y-70344054D01*
X102904431Y-70363806D01*
X102904422Y-70363812D01*
X102726761Y-70502092D01*
X102726756Y-70502097D01*
X102574284Y-70667723D01*
X102574276Y-70667734D01*
X102451140Y-70856207D01*
X102360703Y-71062385D01*
X102305436Y-71280628D01*
X102305434Y-71280640D01*
X102286844Y-71504994D01*
X102286844Y-71505005D01*
X102305434Y-71729359D01*
X102305436Y-71729371D01*
X102360703Y-71947614D01*
X102451140Y-72153792D01*
X102574276Y-72342265D01*
X102574284Y-72342276D01*
X102726756Y-72507902D01*
X102726761Y-72507907D01*
X102766559Y-72538883D01*
X102904424Y-72646189D01*
X102904429Y-72646191D01*
X102904431Y-72646193D01*
X102940930Y-72665946D01*
X102990520Y-72715165D01*
X103005628Y-72783382D01*
X102981457Y-72848937D01*
X102940930Y-72884054D01*
X102904431Y-72903806D01*
X102904422Y-72903812D01*
X102726761Y-73042092D01*
X102726756Y-73042097D01*
X102574284Y-73207723D01*
X102574276Y-73207734D01*
X102451140Y-73396207D01*
X102360703Y-73602385D01*
X102305436Y-73820628D01*
X102305434Y-73820640D01*
X102286844Y-74044994D01*
X102286844Y-74045005D01*
X102305434Y-74269359D01*
X102305436Y-74269371D01*
X102360703Y-74487614D01*
X102451140Y-74693792D01*
X102574276Y-74882265D01*
X102574284Y-74882276D01*
X102712999Y-75032958D01*
X102726760Y-75047906D01*
X102904424Y-75186189D01*
X102904429Y-75186191D01*
X102904431Y-75186193D01*
X102940930Y-75205946D01*
X102990520Y-75255165D01*
X103005628Y-75323382D01*
X102981457Y-75388937D01*
X102940930Y-75424054D01*
X102904431Y-75443806D01*
X102904422Y-75443812D01*
X102726761Y-75582092D01*
X102726756Y-75582097D01*
X102574284Y-75747723D01*
X102574276Y-75747734D01*
X102451140Y-75936207D01*
X102360703Y-76142385D01*
X102305436Y-76360628D01*
X102305434Y-76360640D01*
X102286844Y-76584994D01*
X102286844Y-76585005D01*
X102305434Y-76809359D01*
X102305436Y-76809371D01*
X102360703Y-77027614D01*
X102451140Y-77233792D01*
X102574276Y-77422265D01*
X102574284Y-77422276D01*
X102726756Y-77587902D01*
X102726760Y-77587906D01*
X102904424Y-77726189D01*
X102904429Y-77726191D01*
X102904431Y-77726193D01*
X102940930Y-77745946D01*
X102990520Y-77795165D01*
X103005628Y-77863382D01*
X102981457Y-77928937D01*
X102940930Y-77964054D01*
X102904431Y-77983806D01*
X102904422Y-77983812D01*
X102726761Y-78122092D01*
X102726756Y-78122097D01*
X102574284Y-78287723D01*
X102574276Y-78287734D01*
X102451140Y-78476207D01*
X102360703Y-78682385D01*
X102305436Y-78900628D01*
X102305434Y-78900640D01*
X102286844Y-79124994D01*
X102286844Y-79125005D01*
X102305434Y-79349359D01*
X102305436Y-79349371D01*
X102360703Y-79567614D01*
X102451140Y-79773792D01*
X102574276Y-79962265D01*
X102574284Y-79962276D01*
X102726756Y-80127902D01*
X102726761Y-80127907D01*
X102740841Y-80138866D01*
X102904424Y-80266189D01*
X102904429Y-80266191D01*
X102904431Y-80266193D01*
X102940930Y-80285946D01*
X102990520Y-80335165D01*
X103005628Y-80403382D01*
X102981457Y-80468937D01*
X102940930Y-80504054D01*
X102904431Y-80523806D01*
X102904422Y-80523812D01*
X102726761Y-80662092D01*
X102726756Y-80662097D01*
X102574284Y-80827723D01*
X102574276Y-80827734D01*
X102451140Y-81016207D01*
X102360703Y-81222385D01*
X102305436Y-81440628D01*
X102305434Y-81440640D01*
X102286844Y-81664994D01*
X102286844Y-81665005D01*
X102305434Y-81889359D01*
X102305436Y-81889371D01*
X102360703Y-82107614D01*
X102451140Y-82313792D01*
X102574276Y-82502265D01*
X102574284Y-82502276D01*
X102719418Y-82659931D01*
X102726760Y-82667906D01*
X102904424Y-82806189D01*
X102904429Y-82806191D01*
X102904431Y-82806193D01*
X102940930Y-82825946D01*
X102990520Y-82875165D01*
X103005628Y-82943382D01*
X102981457Y-83008937D01*
X102940930Y-83044054D01*
X102904431Y-83063806D01*
X102904422Y-83063812D01*
X102726761Y-83202092D01*
X102726756Y-83202097D01*
X102574284Y-83367723D01*
X102574276Y-83367734D01*
X102451140Y-83556207D01*
X102360703Y-83762385D01*
X102305436Y-83980628D01*
X102305434Y-83980640D01*
X102286844Y-84204994D01*
X102286844Y-84205005D01*
X102305434Y-84429359D01*
X102305436Y-84429371D01*
X102360703Y-84647614D01*
X102451140Y-84853792D01*
X102574276Y-85042265D01*
X102574284Y-85042276D01*
X102687198Y-85164931D01*
X102726760Y-85207906D01*
X102904424Y-85346189D01*
X102947693Y-85369605D01*
X102947695Y-85369606D01*
X102997286Y-85418825D01*
X103012394Y-85487042D01*
X102988224Y-85552597D01*
X102959802Y-85580236D01*
X102778922Y-85706890D01*
X102778920Y-85706891D01*
X102611891Y-85873920D01*
X102611886Y-85873926D01*
X102476400Y-86067420D01*
X102476399Y-86067422D01*
X102376570Y-86281507D01*
X102376567Y-86281513D01*
X102319364Y-86494999D01*
X102319364Y-86495000D01*
X103036653Y-86495000D01*
X103103692Y-86514685D01*
X103149447Y-86567489D01*
X103159391Y-86636647D01*
X103155631Y-86653933D01*
X103150000Y-86673111D01*
X103150000Y-86816888D01*
X103155631Y-86836067D01*
X103155630Y-86905936D01*
X103117855Y-86964714D01*
X103054299Y-86993738D01*
X103036653Y-86995000D01*
X102319364Y-86995000D01*
X102376567Y-87208486D01*
X102376570Y-87208492D01*
X102476399Y-87422578D01*
X102611894Y-87616082D01*
X102778917Y-87783105D01*
X102959802Y-87909763D01*
X103003427Y-87964340D01*
X103010619Y-88033839D01*
X102979097Y-88096193D01*
X102947697Y-88120392D01*
X102904427Y-88143809D01*
X102904422Y-88143812D01*
X102726761Y-88282092D01*
X102726756Y-88282097D01*
X102574284Y-88447723D01*
X102574276Y-88447734D01*
X102451140Y-88636207D01*
X102360703Y-88842385D01*
X102305436Y-89060628D01*
X102305434Y-89060640D01*
X102286844Y-89284994D01*
X102286844Y-89285005D01*
X100381500Y-89285005D01*
X100381500Y-57300000D01*
X102711496Y-57300000D01*
X102731458Y-57489928D01*
X102731459Y-57489931D01*
X102790470Y-57671549D01*
X102790473Y-57671556D01*
X102885960Y-57836944D01*
X103013747Y-57978866D01*
X103168248Y-58091118D01*
X103342712Y-58168794D01*
X103529513Y-58208500D01*
X103720487Y-58208500D01*
X103907288Y-58168794D01*
X104081752Y-58091118D01*
X104236253Y-57978866D01*
X104364040Y-57836944D01*
X104459527Y-57671556D01*
X104518542Y-57489928D01*
X104538504Y-57300000D01*
X104518542Y-57110072D01*
X104459527Y-56928444D01*
X104364040Y-56763056D01*
X104236253Y-56621134D01*
X104081752Y-56508882D01*
X103907288Y-56431206D01*
X103907286Y-56431205D01*
X103720487Y-56391500D01*
X103529513Y-56391500D01*
X103342714Y-56431205D01*
X103168246Y-56508883D01*
X103013745Y-56621135D01*
X102885959Y-56763057D01*
X102790473Y-56928443D01*
X102790470Y-56928450D01*
X102731459Y-57110068D01*
X102731458Y-57110072D01*
X102711496Y-57300000D01*
X100381500Y-57300000D01*
X100381500Y-55209383D01*
X100401185Y-55142345D01*
X100417819Y-55121703D01*
X100914522Y-54625000D01*
X120411496Y-54625000D01*
X120431458Y-54814928D01*
X120431459Y-54814931D01*
X120490470Y-54996549D01*
X120490473Y-54996556D01*
X120585960Y-55161944D01*
X120713747Y-55303866D01*
X120868248Y-55416118D01*
X121042712Y-55493794D01*
X121229513Y-55533500D01*
X121420487Y-55533500D01*
X121607288Y-55493794D01*
X121781752Y-55416118D01*
X121936253Y-55303866D01*
X122064040Y-55161944D01*
X122159527Y-54996556D01*
X122218542Y-54814928D01*
X122238504Y-54625000D01*
X122218542Y-54435072D01*
X122159527Y-54253444D01*
X122064040Y-54088056D01*
X121936253Y-53946134D01*
X121781752Y-53833882D01*
X121607288Y-53756206D01*
X121607286Y-53756205D01*
X121420487Y-53716500D01*
X121229513Y-53716500D01*
X121042714Y-53756205D01*
X120868246Y-53833883D01*
X120713745Y-53946135D01*
X120585959Y-54088057D01*
X120490473Y-54253443D01*
X120490470Y-54253450D01*
X120464370Y-54333779D01*
X120431458Y-54435072D01*
X120411496Y-54625000D01*
X100914522Y-54625000D01*
X105121704Y-50417819D01*
X105183027Y-50384334D01*
X105209385Y-50381500D01*
X189945149Y-50381500D01*
X190000000Y-50381500D01*
X190399846Y-50398957D01*
G37*
%TD.AperFunction*%
%TD*%
M02*
